%TF.GenerationSoftware,KiCad,Pcbnew,(6.0.6)*%
%TF.CreationDate,2022-08-08T15:32:18+08:00*%
%TF.ProjectId,Stealthburner_Toolhead_PCB,53746561-6c74-4686-9275-726e65725f54,rev?*%
%TF.SameCoordinates,Original*%
%TF.FileFunction,Soldermask,Top*%
%TF.FilePolarity,Negative*%
%FSLAX46Y46*%
G04 Gerber Fmt 4.6, Leading zero omitted, Abs format (unit mm)*
G04 Created by KiCad (PCBNEW (6.0.6)) date 2022-08-08 15:32:18*
%MOMM*%
%LPD*%
G01*
G04 APERTURE LIST*
G04 Aperture macros list*
%AMRoundRect*
0 Rectangle with rounded corners*
0 $1 Rounding radius*
0 $2 $3 $4 $5 $6 $7 $8 $9 X,Y pos of 4 corners*
0 Add a 4 corners polygon primitive as box body*
4,1,4,$2,$3,$4,$5,$6,$7,$8,$9,$2,$3,0*
0 Add four circle primitives for the rounded corners*
1,1,$1+$1,$2,$3*
1,1,$1+$1,$4,$5*
1,1,$1+$1,$6,$7*
1,1,$1+$1,$8,$9*
0 Add four rect primitives between the rounded corners*
20,1,$1+$1,$2,$3,$4,$5,0*
20,1,$1+$1,$4,$5,$6,$7,0*
20,1,$1+$1,$6,$7,$8,$9,0*
20,1,$1+$1,$8,$9,$2,$3,0*%
%AMFreePoly0*
4,1,6,1.000000,0.000000,0.500000,-0.750000,-0.500000,-0.750000,-0.500000,0.750000,0.500000,0.750000,1.000000,0.000000,1.000000,0.000000,$1*%
%AMFreePoly1*
4,1,6,0.500000,-0.750000,-0.650000,-0.750000,-0.150000,0.000000,-0.650000,0.750000,0.500000,0.750000,0.500000,-0.750000,0.500000,-0.750000,$1*%
G04 Aperture macros list end*
%ADD10RoundRect,0.140000X-0.170000X0.140000X-0.170000X-0.140000X0.170000X-0.140000X0.170000X0.140000X0*%
%ADD11RoundRect,0.140000X0.170000X-0.140000X0.170000X0.140000X-0.170000X0.140000X-0.170000X-0.140000X0*%
%ADD12RoundRect,0.200000X-0.200000X-0.450000X0.200000X-0.450000X0.200000X0.450000X-0.200000X0.450000X0*%
%ADD13O,0.800000X1.300000*%
%ADD14R,0.812800X0.177800*%
%ADD15R,0.177800X0.812800*%
%ADD16R,3.200400X3.200400*%
%ADD17RoundRect,0.140000X-0.140000X-0.170000X0.140000X-0.170000X0.140000X0.170000X-0.140000X0.170000X0*%
%ADD18FreePoly0,0.000000*%
%ADD19FreePoly1,0.000000*%
%ADD20C,3.000000*%
%ADD21RoundRect,0.250001X0.499999X0.759999X-0.499999X0.759999X-0.499999X-0.759999X0.499999X-0.759999X0*%
%ADD22O,1.500000X2.020000*%
%ADD23RoundRect,0.135000X0.135000X0.185000X-0.135000X0.185000X-0.135000X-0.185000X0.135000X-0.185000X0*%
%ADD24RoundRect,0.200000X0.450000X-0.200000X0.450000X0.200000X-0.450000X0.200000X-0.450000X-0.200000X0*%
%ADD25O,1.300000X0.800000*%
%ADD26R,1.600000X1.600000*%
%ADD27C,1.600000*%
%ADD28C,1.000000*%
%ADD29RoundRect,0.135000X-0.135000X-0.185000X0.135000X-0.185000X0.135000X0.185000X-0.135000X0.185000X0*%
%ADD30RoundRect,0.250000X-0.250000X-1.500000X0.250000X-1.500000X0.250000X1.500000X-0.250000X1.500000X0*%
%ADD31RoundRect,0.250001X-0.499999X-1.449999X0.499999X-1.449999X0.499999X1.449999X-0.499999X1.449999X0*%
%ADD32C,5.000000*%
%ADD33R,0.700000X0.600000*%
%ADD34RoundRect,0.200000X-0.450000X0.200000X-0.450000X-0.200000X0.450000X-0.200000X0.450000X0.200000X0*%
%ADD35RoundRect,0.140000X0.140000X0.170000X-0.140000X0.170000X-0.140000X-0.170000X0.140000X-0.170000X0*%
%ADD36RoundRect,0.135000X-0.185000X0.135000X-0.185000X-0.135000X0.185000X-0.135000X0.185000X0.135000X0*%
%ADD37R,0.400000X1.900000*%
%ADD38RoundRect,0.100000X-0.300000X-0.100000X0.300000X-0.100000X0.300000X0.100000X-0.300000X0.100000X0*%
%ADD39R,1.500000X2.400000*%
%ADD40RoundRect,0.250001X-0.759999X0.499999X-0.759999X-0.499999X0.759999X-0.499999X0.759999X0.499999X0*%
%ADD41O,2.020000X1.500000*%
%ADD42R,0.812800X0.254000*%
%ADD43R,0.203200X1.600200*%
%ADD44RoundRect,0.150000X-0.512500X-0.150000X0.512500X-0.150000X0.512500X0.150000X-0.512500X0.150000X0*%
%ADD45RoundRect,0.250000X0.350000X0.625000X-0.350000X0.625000X-0.350000X-0.625000X0.350000X-0.625000X0*%
%ADD46O,1.200000X1.750000*%
G04 APERTURE END LIST*
%TO.C,G\u002A\u002A\u002A*%
G36*
X134191925Y-107804167D02*
G01*
X134253474Y-107622442D01*
X134337961Y-107443843D01*
X134444414Y-107270562D01*
X134571863Y-107104790D01*
X134651973Y-107016127D01*
X134766835Y-106902938D01*
X134874353Y-106812356D01*
X134977334Y-106742966D01*
X135078580Y-106693355D01*
X135180898Y-106662105D01*
X135287090Y-106647804D01*
X135381797Y-106647877D01*
X135445275Y-106653000D01*
X135492599Y-106661799D01*
X135533658Y-106676656D01*
X135563338Y-106691592D01*
X135637958Y-106744406D01*
X135690365Y-106810080D01*
X135721044Y-106889559D01*
X135730479Y-106983786D01*
X135729274Y-107014566D01*
X135717454Y-107095098D01*
X135691754Y-107176559D01*
X135650526Y-107262126D01*
X135592125Y-107354971D01*
X135514903Y-107458269D01*
X135471480Y-107511524D01*
X135423304Y-107571004D01*
X135370908Y-107638367D01*
X135323419Y-107701807D01*
X135310181Y-107720148D01*
X135230257Y-107825282D01*
X135139322Y-107933100D01*
X135043762Y-108036578D01*
X134949963Y-108128693D01*
X134892577Y-108179471D01*
X134843801Y-108220787D01*
X134813304Y-108248060D01*
X134799131Y-108263693D01*
X134799324Y-108270091D01*
X134811926Y-108269658D01*
X134820536Y-108268000D01*
X134906111Y-108240702D01*
X134996767Y-108193215D01*
X135094038Y-108124512D01*
X135199460Y-108033569D01*
X135263270Y-107971900D01*
X135403381Y-107819925D01*
X135530093Y-107658722D01*
X135629068Y-107509702D01*
X135666664Y-107452193D01*
X135702333Y-107406219D01*
X135731818Y-107377147D01*
X135737106Y-107373519D01*
X135793917Y-107352783D01*
X135857175Y-107351470D01*
X135915958Y-107369547D01*
X135923897Y-107374040D01*
X135975795Y-107417548D01*
X136006163Y-107472528D01*
X136015429Y-107540552D01*
X136004025Y-107623191D01*
X135998167Y-107645703D01*
X135986295Y-107697312D01*
X135978659Y-107755434D01*
X135974626Y-107826788D01*
X135973557Y-107907454D01*
X135973502Y-108081722D01*
X136058255Y-108125318D01*
X136177125Y-108178920D01*
X136301454Y-108219250D01*
X136436392Y-108247471D01*
X136587088Y-108264743D01*
X136703687Y-108270909D01*
X136784581Y-108273898D01*
X136843806Y-108277249D01*
X136885769Y-108281539D01*
X136914877Y-108287349D01*
X136935537Y-108295258D01*
X136948365Y-108303074D01*
X136992802Y-108348717D01*
X137017184Y-108404650D01*
X137021881Y-108464949D01*
X137007266Y-108523693D01*
X136973708Y-108574959D01*
X136929186Y-108608979D01*
X136907336Y-108618379D01*
X136879716Y-108624847D01*
X136841484Y-108628846D01*
X136787794Y-108630843D01*
X136713802Y-108631302D01*
X136697167Y-108631254D01*
X136477505Y-108619330D01*
X136270644Y-108585134D01*
X136075412Y-108528411D01*
X135916274Y-108461590D01*
X135818701Y-108408740D01*
X135743501Y-108354173D01*
X135687042Y-108294225D01*
X135645693Y-108225233D01*
X135622316Y-108165048D01*
X135616394Y-108157470D01*
X135604356Y-108159971D01*
X135583314Y-108174628D01*
X135550377Y-108203516D01*
X135502659Y-108248711D01*
X135493152Y-108257892D01*
X135366256Y-108372869D01*
X135245489Y-108465335D01*
X135127450Y-108537056D01*
X135008740Y-108589797D01*
X134885960Y-108625323D01*
X134755712Y-108645398D01*
X134744919Y-108646385D01*
X134672867Y-108648640D01*
X134592605Y-108644721D01*
X134512964Y-108635601D01*
X134442774Y-108622255D01*
X134396259Y-108607958D01*
X134373870Y-108600914D01*
X134352852Y-108601897D01*
X134325857Y-108612932D01*
X134285539Y-108636046D01*
X134278112Y-108640545D01*
X134212088Y-108678195D01*
X134153712Y-108704496D01*
X134095416Y-108721372D01*
X134029635Y-108730747D01*
X133948800Y-108734544D01*
X133906818Y-108734943D01*
X133833658Y-108734437D01*
X133779687Y-108731959D01*
X133738039Y-108726659D01*
X133701851Y-108717691D01*
X133667150Y-108705344D01*
X133576385Y-108657015D01*
X133503333Y-108589640D01*
X133449269Y-108506665D01*
X133431144Y-108469702D01*
X133415947Y-108435022D01*
X133403374Y-108399913D01*
X133393120Y-108361665D01*
X133384882Y-108317568D01*
X133378356Y-108264912D01*
X133373238Y-108200985D01*
X133369223Y-108123079D01*
X133366008Y-108028481D01*
X133363288Y-107914482D01*
X133360759Y-107778372D01*
X133359569Y-107707109D01*
X133356986Y-107559815D01*
X133354346Y-107436510D01*
X133351440Y-107335108D01*
X133348065Y-107253520D01*
X133344013Y-107189660D01*
X133339080Y-107141438D01*
X133333059Y-107106769D01*
X133325745Y-107083563D01*
X133316932Y-107069734D01*
X133306415Y-107063193D01*
X133295969Y-107061805D01*
X133272545Y-107067193D01*
X133235668Y-107080880D01*
X133209231Y-107092534D01*
X133149189Y-107130532D01*
X133081989Y-107190788D01*
X133009778Y-107271199D01*
X132954690Y-107342017D01*
X132906711Y-107409962D01*
X132852624Y-107491266D01*
X132795455Y-107580926D01*
X132738232Y-107673942D01*
X132683981Y-107765311D01*
X132635729Y-107850032D01*
X132596503Y-107923101D01*
X132570420Y-107977024D01*
X132549063Y-108023154D01*
X132517634Y-108087802D01*
X132478385Y-108166499D01*
X132433564Y-108254778D01*
X132385423Y-108348173D01*
X132336211Y-108442215D01*
X132334191Y-108446042D01*
X132280867Y-108546530D01*
X132237726Y-108626401D01*
X132203152Y-108688292D01*
X132175525Y-108734843D01*
X132153227Y-108768691D01*
X132134640Y-108792473D01*
X132118146Y-108808828D01*
X132106060Y-108817882D01*
X132039636Y-108849848D01*
X131974351Y-108856140D01*
X131907832Y-108836928D01*
X131898915Y-108832538D01*
X131861819Y-108811676D01*
X131833606Y-108789732D01*
X131812865Y-108762786D01*
X131798184Y-108726920D01*
X131788151Y-108678217D01*
X131781356Y-108612758D01*
X131776385Y-108526625D01*
X131774685Y-108487748D01*
X131771937Y-108406781D01*
X131770435Y-108329239D01*
X131770216Y-108261217D01*
X131771315Y-108208812D01*
X131772915Y-108184430D01*
X131791886Y-108011471D01*
X131809628Y-107860168D01*
X131826824Y-107726170D01*
X131844162Y-107605126D01*
X131862324Y-107492684D01*
X131881998Y-107384493D01*
X131903867Y-107276202D01*
X131928618Y-107163459D01*
X131944573Y-107094275D01*
X131942879Y-107087285D01*
X131930350Y-107101200D01*
X131908534Y-107133974D01*
X131885442Y-107172386D01*
X131850471Y-107230547D01*
X131806429Y-107301058D01*
X131759076Y-107374818D01*
X131716222Y-107439685D01*
X131677189Y-107498467D01*
X131641740Y-107553219D01*
X131613355Y-107598470D01*
X131595516Y-107628752D01*
X131593530Y-107632511D01*
X131567917Y-107675502D01*
X131527922Y-107733615D01*
X131476803Y-107802763D01*
X131417819Y-107878863D01*
X131354229Y-107957830D01*
X131289292Y-108035578D01*
X131226265Y-108108024D01*
X131168409Y-108171083D01*
X131142981Y-108197270D01*
X130991712Y-108334243D01*
X130818824Y-108463615D01*
X130628335Y-108582534D01*
X130508271Y-108647173D01*
X130428544Y-108685338D01*
X130356255Y-108713769D01*
X130284948Y-108733855D01*
X130208163Y-108746985D01*
X130119441Y-108754546D01*
X130012326Y-108757926D01*
X129991795Y-108758185D01*
X129914277Y-108758814D01*
X129857896Y-108758413D01*
X129817713Y-108756394D01*
X129788793Y-108752168D01*
X129766197Y-108745148D01*
X129744987Y-108734744D01*
X129731878Y-108727223D01*
X129672593Y-108677823D01*
X129631504Y-108610358D01*
X129609361Y-108526147D01*
X129607338Y-108508155D01*
X129602563Y-108467183D01*
X129597266Y-108439131D01*
X129593380Y-108430774D01*
X129579522Y-108438538D01*
X129562105Y-108452796D01*
X129531597Y-108468038D01*
X129482924Y-108478239D01*
X129462295Y-108480277D01*
X129431191Y-108481696D01*
X129403441Y-108479899D01*
X129373801Y-108473302D01*
X129337028Y-108460317D01*
X129287875Y-108439361D01*
X129221101Y-108408846D01*
X129211783Y-108404526D01*
X129066984Y-108339305D01*
X128939908Y-108286601D01*
X128826248Y-108244976D01*
X128721698Y-108212990D01*
X128621951Y-108189206D01*
X128522700Y-108172183D01*
X128511753Y-108170679D01*
X128471069Y-108166536D01*
X128409073Y-108161930D01*
X128330522Y-108157132D01*
X128240174Y-108152414D01*
X128142785Y-108148045D01*
X128057825Y-108144803D01*
X127944935Y-108140555D01*
X127855060Y-108136394D01*
X127785140Y-108132063D01*
X127732115Y-108127306D01*
X127692923Y-108121864D01*
X127664506Y-108115481D01*
X127649815Y-108110487D01*
X127616256Y-108098347D01*
X127594588Y-108092936D01*
X127590863Y-108093388D01*
X127584549Y-108108869D01*
X127572543Y-108144857D01*
X127556212Y-108196755D01*
X127536922Y-108259963D01*
X127516038Y-108329885D01*
X127494926Y-108401922D01*
X127474952Y-108471476D01*
X127457481Y-108533949D01*
X127443880Y-108584744D01*
X127438360Y-108606801D01*
X127426547Y-108660190D01*
X127419050Y-108707374D01*
X127415328Y-108756091D01*
X127414840Y-108814078D01*
X127417043Y-108889075D01*
X127417615Y-108903296D01*
X127424984Y-109082440D01*
X127390458Y-109123473D01*
X127350236Y-109159792D01*
X127302413Y-109186617D01*
X127257045Y-109198651D01*
X127247560Y-109198745D01*
X127218791Y-109193863D01*
X127183677Y-109184316D01*
X127134111Y-109163629D01*
X127100264Y-109135692D01*
X127078119Y-109094882D01*
X127063662Y-109035576D01*
X127059897Y-109011011D01*
X127051528Y-108937256D01*
X127047640Y-108864245D01*
X127048731Y-108789448D01*
X127055301Y-108710334D01*
X127067848Y-108624375D01*
X127086872Y-108529040D01*
X127112871Y-108421799D01*
X127146345Y-108300122D01*
X127187793Y-108161480D01*
X127237713Y-108003343D01*
X127290642Y-107841215D01*
X127301147Y-107809545D01*
X128554303Y-107809545D01*
X128665134Y-107827927D01*
X128719764Y-107839315D01*
X128790393Y-107857396D01*
X128868550Y-107879839D01*
X128945767Y-107904315D01*
X128958512Y-107908620D01*
X129023324Y-107930663D01*
X129079220Y-107949521D01*
X129121629Y-107963665D01*
X129145980Y-107971564D01*
X129149816Y-107972670D01*
X129149219Y-107962345D01*
X129140269Y-107933232D01*
X129124685Y-107890603D01*
X129115332Y-107866837D01*
X129093198Y-107810078D01*
X129072895Y-107755064D01*
X129058031Y-107711651D01*
X129055452Y-107703309D01*
X129042726Y-107670943D01*
X129029696Y-107653515D01*
X129024741Y-107652493D01*
X129008379Y-107658085D01*
X128971451Y-107670504D01*
X128918138Y-107688349D01*
X128852623Y-107710222D01*
X128782485Y-107733590D01*
X128554303Y-107809545D01*
X127301147Y-107809545D01*
X127335628Y-107705589D01*
X127726769Y-107705589D01*
X127726885Y-107720081D01*
X127733245Y-107723401D01*
X127736137Y-107722752D01*
X127754577Y-107716258D01*
X127793557Y-107701928D01*
X127849244Y-107681193D01*
X127917802Y-107655483D01*
X127995396Y-107626229D01*
X128032742Y-107612099D01*
X128132138Y-107575043D01*
X128234597Y-107537701D01*
X129384780Y-107537701D01*
X129387799Y-107550444D01*
X129398826Y-107583038D01*
X129416285Y-107631081D01*
X129438603Y-107690169D01*
X129448368Y-107715475D01*
X129475989Y-107786974D01*
X129503236Y-107858094D01*
X129527220Y-107921258D01*
X129545052Y-107968888D01*
X129547085Y-107974409D01*
X129571857Y-108039126D01*
X129595807Y-108096774D01*
X129616907Y-108142900D01*
X129633127Y-108173048D01*
X129642029Y-108182845D01*
X129652000Y-108172316D01*
X129669627Y-108145425D01*
X129683846Y-108120910D01*
X129701756Y-108092381D01*
X129732684Y-108047128D01*
X129773795Y-107989130D01*
X129822252Y-107922367D01*
X129875218Y-107850819D01*
X129897462Y-107821181D01*
X129971590Y-107724532D01*
X130036780Y-107643829D01*
X130098260Y-107573125D01*
X130161259Y-107506474D01*
X130231005Y-107437928D01*
X130251517Y-107418469D01*
X130306457Y-107366148D01*
X130353746Y-107320115D01*
X130390514Y-107283248D01*
X130413891Y-107258425D01*
X130421030Y-107248546D01*
X130407393Y-107250377D01*
X130371929Y-107258570D01*
X130317856Y-107272229D01*
X130248394Y-107290455D01*
X130166763Y-107312349D01*
X130076182Y-107337013D01*
X129979869Y-107363549D01*
X129881045Y-107391058D01*
X129782928Y-107418642D01*
X129688738Y-107445403D01*
X129601694Y-107470443D01*
X129525015Y-107492863D01*
X129461921Y-107511766D01*
X129415630Y-107526251D01*
X129389363Y-107535422D01*
X129384780Y-107537701D01*
X128234597Y-107537701D01*
X128247249Y-107533090D01*
X128369014Y-107489483D01*
X128488371Y-107447465D01*
X128596259Y-107410277D01*
X128606459Y-107406816D01*
X128690384Y-107378163D01*
X128766147Y-107351862D01*
X128830220Y-107329171D01*
X128879079Y-107311351D01*
X128909195Y-107299661D01*
X128917234Y-107295803D01*
X128919228Y-107279891D01*
X128916082Y-107244294D01*
X128908474Y-107194749D01*
X128900275Y-107152027D01*
X128875712Y-107023567D01*
X128856253Y-106897770D01*
X128840941Y-106766835D01*
X128828817Y-106622966D01*
X128821912Y-106513879D01*
X128814010Y-106376900D01*
X128806037Y-106243633D01*
X128798172Y-106116720D01*
X128790594Y-105998803D01*
X128783481Y-105892524D01*
X128777011Y-105800523D01*
X128771364Y-105725443D01*
X128766718Y-105669925D01*
X128763251Y-105636611D01*
X128762120Y-105629552D01*
X128755362Y-105599121D01*
X128731442Y-105629552D01*
X128707861Y-105663088D01*
X128674235Y-105715792D01*
X128632779Y-105783814D01*
X128585711Y-105863309D01*
X128535248Y-105950429D01*
X128483607Y-106041325D01*
X128433005Y-106132151D01*
X128385658Y-106219058D01*
X128343785Y-106298200D01*
X128324594Y-106335633D01*
X128272961Y-106439380D01*
X128213604Y-106561375D01*
X128149196Y-106695948D01*
X128082409Y-106837432D01*
X128015919Y-106980157D01*
X127952396Y-107118456D01*
X127894516Y-107246659D01*
X127886880Y-107263783D01*
X127858916Y-107329776D01*
X127827078Y-107409915D01*
X127795508Y-107493528D01*
X127771094Y-107561932D01*
X127748153Y-107629828D01*
X127733618Y-107676609D01*
X127726769Y-107705589D01*
X127335628Y-107705589D01*
X127336903Y-107701745D01*
X127376925Y-107582866D01*
X127412358Y-107480311D01*
X127444852Y-107389813D01*
X127476056Y-107307107D01*
X127507621Y-107227927D01*
X127541195Y-107148006D01*
X127578428Y-107063079D01*
X127620971Y-106968878D01*
X127665176Y-106872612D01*
X127785910Y-106614880D01*
X127901549Y-106375984D01*
X128011716Y-106156600D01*
X128116030Y-105957402D01*
X128214113Y-105779068D01*
X128305587Y-105622273D01*
X128390072Y-105487693D01*
X128467192Y-105376004D01*
X128536565Y-105287881D01*
X128578559Y-105242325D01*
X128658940Y-105175158D01*
X128739351Y-105134042D01*
X128819848Y-105118949D01*
X128826328Y-105118865D01*
X128883982Y-105129902D01*
X128943294Y-105159550D01*
X128995275Y-105202615D01*
X129016576Y-105228807D01*
X129036327Y-105259852D01*
X129053784Y-105293314D01*
X129069240Y-105331235D01*
X129082990Y-105375659D01*
X129095327Y-105428628D01*
X129106545Y-105492186D01*
X129116937Y-105568373D01*
X129126799Y-105659235D01*
X129136422Y-105766813D01*
X129146102Y-105893149D01*
X129156132Y-106040288D01*
X129166806Y-106210271D01*
X129173308Y-106318454D01*
X129182615Y-106467870D01*
X129191609Y-106595137D01*
X129200725Y-106704171D01*
X129210397Y-106798890D01*
X129221060Y-106883213D01*
X129233148Y-106961057D01*
X129247095Y-107036338D01*
X129259492Y-107095560D01*
X129279707Y-107188117D01*
X129490721Y-107124345D01*
X129644516Y-107078731D01*
X129801012Y-107033936D01*
X129957861Y-106990522D01*
X130112718Y-106949054D01*
X130263234Y-106910096D01*
X130407065Y-106874213D01*
X130541862Y-106841967D01*
X130665280Y-106813922D01*
X130774971Y-106790644D01*
X130868589Y-106772696D01*
X130943787Y-106760641D01*
X130998219Y-106755043D01*
X131025177Y-106755585D01*
X131086397Y-106776986D01*
X131137103Y-106817906D01*
X131173395Y-106872636D01*
X131191375Y-106935471D01*
X131188573Y-106994708D01*
X131169884Y-107042584D01*
X131132863Y-107095861D01*
X131075892Y-107156456D01*
X130997354Y-107226286D01*
X130983283Y-107237947D01*
X130940601Y-107274463D01*
X130883321Y-107325567D01*
X130815447Y-107387572D01*
X130740984Y-107456791D01*
X130663936Y-107529535D01*
X130598114Y-107592631D01*
X130510042Y-107678446D01*
X130437176Y-107751414D01*
X130375350Y-107816144D01*
X130320394Y-107877245D01*
X130268143Y-107939326D01*
X130214429Y-108006995D01*
X130165300Y-108071302D01*
X130102078Y-108155809D01*
X130053469Y-108222782D01*
X130017745Y-108275008D01*
X129993179Y-108315275D01*
X129978041Y-108346372D01*
X129970603Y-108371085D01*
X129969036Y-108387861D01*
X129972351Y-108397979D01*
X129985660Y-108403089D01*
X130014005Y-108403782D01*
X130062431Y-108400645D01*
X130071824Y-108399874D01*
X130140519Y-108391679D01*
X130205437Y-108377931D01*
X130270390Y-108356903D01*
X130339194Y-108326870D01*
X130415663Y-108286107D01*
X130503611Y-108232888D01*
X130606852Y-108165488D01*
X130641469Y-108142182D01*
X130742295Y-108066637D01*
X130845599Y-107975921D01*
X130903161Y-107919288D01*
X130955041Y-107863472D01*
X131013159Y-107796820D01*
X131074020Y-107723762D01*
X131134130Y-107648727D01*
X131189995Y-107576147D01*
X131238121Y-107510451D01*
X131275012Y-107456070D01*
X131294143Y-107423585D01*
X131309009Y-107398027D01*
X131335131Y-107356248D01*
X131369098Y-107303590D01*
X131407499Y-107245398D01*
X131416210Y-107232375D01*
X131462447Y-107161937D01*
X131511799Y-107084307D01*
X131558120Y-107009282D01*
X131592852Y-106950846D01*
X131636455Y-106873135D01*
X131686953Y-106779456D01*
X131742276Y-106673966D01*
X131800356Y-106560825D01*
X131859122Y-106444188D01*
X131916504Y-106328215D01*
X131970435Y-106217063D01*
X132018844Y-106114889D01*
X132059661Y-106025851D01*
X132090817Y-105954108D01*
X132099076Y-105933803D01*
X132135918Y-105834225D01*
X132174954Y-105717038D01*
X132214111Y-105589464D01*
X132251319Y-105458720D01*
X132284507Y-105332027D01*
X132311602Y-105216604D01*
X132327286Y-105138423D01*
X132338865Y-105079783D01*
X132350931Y-105028132D01*
X132361707Y-104990679D01*
X132366828Y-104977998D01*
X132402248Y-104937459D01*
X132453540Y-104910346D01*
X132513350Y-104898230D01*
X132574320Y-104902682D01*
X132625209Y-104922817D01*
X132657260Y-104950656D01*
X132687419Y-104989842D01*
X132695668Y-105004262D01*
X132705906Y-105025193D01*
X132713045Y-105044629D01*
X132717292Y-105067059D01*
X132718849Y-105096971D01*
X132717922Y-105138856D01*
X132714716Y-105197201D01*
X132709434Y-105276496D01*
X132708620Y-105288372D01*
X132698050Y-105426073D01*
X132686074Y-105544744D01*
X132671504Y-105651435D01*
X132653151Y-105753194D01*
X132629829Y-105857068D01*
X132600350Y-105970106D01*
X132583761Y-106029347D01*
X132559717Y-106116494D01*
X132532064Y-106221184D01*
X132502818Y-106335495D01*
X132473998Y-106451508D01*
X132447620Y-106561301D01*
X132440384Y-106592273D01*
X132416969Y-106692684D01*
X132392549Y-106796328D01*
X132368659Y-106896772D01*
X132346832Y-106987582D01*
X132328601Y-107062326D01*
X132321928Y-107089206D01*
X132286647Y-107235046D01*
X132254967Y-107375626D01*
X132227803Y-107506459D01*
X132206070Y-107623056D01*
X132190683Y-107720930D01*
X132186636Y-107752746D01*
X132179439Y-107813799D01*
X132172489Y-107871299D01*
X132166911Y-107916012D01*
X132165244Y-107928772D01*
X132162686Y-107957716D01*
X132165666Y-107968426D01*
X132175029Y-107959687D01*
X132191619Y-107930285D01*
X132216280Y-107879006D01*
X132246842Y-107811421D01*
X132292210Y-107717795D01*
X132351866Y-107609029D01*
X132426534Y-107483901D01*
X132516939Y-107341185D01*
X132597993Y-107218146D01*
X132698331Y-107077781D01*
X132796151Y-106961766D01*
X132893302Y-106868744D01*
X132991632Y-106797356D01*
X133092990Y-106746243D01*
X133199227Y-106714046D01*
X133303206Y-106699941D01*
X133359232Y-106697226D01*
X133398888Y-106698841D01*
X133431724Y-106706274D01*
X133467292Y-106721013D01*
X133481093Y-106727655D01*
X133538803Y-106763322D01*
X133584712Y-106811127D01*
X133598731Y-106830510D01*
X133627387Y-106876287D01*
X133651546Y-106924850D01*
X133671545Y-106978713D01*
X133687722Y-107040392D01*
X133700414Y-107112401D01*
X133709957Y-107197254D01*
X133716689Y-107297467D01*
X133720946Y-107415554D01*
X133723066Y-107554029D01*
X133723386Y-107715408D01*
X133723226Y-107759265D01*
X133722791Y-107876660D01*
X133722821Y-107971425D01*
X133723541Y-108047008D01*
X133725178Y-108106855D01*
X133727959Y-108154414D01*
X133732109Y-108193132D01*
X133737854Y-108226455D01*
X133745422Y-108257832D01*
X133755038Y-108290709D01*
X133758935Y-108303224D01*
X133772943Y-108341170D01*
X133788627Y-108361236D01*
X133813024Y-108371060D01*
X133823419Y-108373213D01*
X133904066Y-108379141D01*
X133986549Y-108369417D01*
X134060122Y-108345638D01*
X134080531Y-108335027D01*
X134141520Y-108299285D01*
X134141520Y-108168233D01*
X134153674Y-107995478D01*
X134519652Y-107995478D01*
X134528341Y-107998093D01*
X134552354Y-107984807D01*
X134588613Y-107958196D01*
X134634036Y-107920834D01*
X134685546Y-107875297D01*
X134740061Y-107824161D01*
X134794503Y-107769999D01*
X134815676Y-107747952D01*
X134869357Y-107688509D01*
X134926734Y-107620553D01*
X134979150Y-107554512D01*
X135003573Y-107521606D01*
X135048230Y-107461077D01*
X135101710Y-107391315D01*
X135155847Y-107322872D01*
X135185360Y-107286694D01*
X135229742Y-107230509D01*
X135271506Y-107172914D01*
X135308102Y-107117995D01*
X135336982Y-107069839D01*
X135355598Y-107032532D01*
X135361400Y-107010160D01*
X135359999Y-107006679D01*
X135342759Y-107004352D01*
X135308588Y-107008631D01*
X135265301Y-107017904D01*
X135220715Y-107030557D01*
X135190075Y-107041733D01*
X135143603Y-107067423D01*
X135085734Y-107108968D01*
X135021593Y-107162051D01*
X134956306Y-107222352D01*
X134895001Y-107285552D01*
X134877777Y-107304861D01*
X134774630Y-107433051D01*
X134690300Y-107560748D01*
X134636725Y-107659724D01*
X134612795Y-107712089D01*
X134587759Y-107773752D01*
X134563796Y-107838463D01*
X134543086Y-107899972D01*
X134527809Y-107952029D01*
X134520142Y-107988384D01*
X134519652Y-107995478D01*
X134153674Y-107995478D01*
X134154283Y-107986827D01*
X134191925Y-107804167D01*
G37*
%TD*%
D10*
%TO.C,C24*%
X113434800Y-115296400D03*
X113434800Y-116256400D03*
%TD*%
D11*
%TO.C,C16*%
X114554000Y-103400800D03*
X114554000Y-102440800D03*
%TD*%
D12*
%TO.C,J4*%
X119278400Y-103835200D03*
D13*
X120528400Y-103835200D03*
%TD*%
D14*
%TO.C,U7*%
X108407200Y-106772075D03*
X108407200Y-107172125D03*
X108407200Y-107572175D03*
X108407200Y-107972225D03*
X108407200Y-108372275D03*
X108407200Y-108772325D03*
X108407200Y-109172375D03*
X108407200Y-109572425D03*
X108407200Y-109972475D03*
X108407200Y-110372525D03*
X108407200Y-110772575D03*
X108407200Y-111172625D03*
X108407200Y-111572675D03*
X108407200Y-111972725D03*
D15*
X109210475Y-112776000D03*
X109610525Y-112776000D03*
X110010575Y-112776000D03*
X110410625Y-112776000D03*
X110810675Y-112776000D03*
X111210725Y-112776000D03*
X111610775Y-112776000D03*
X112010825Y-112776000D03*
X112410875Y-112776000D03*
X112810925Y-112776000D03*
X113210975Y-112776000D03*
X113611025Y-112776000D03*
X114011075Y-112776000D03*
X114411125Y-112776000D03*
D14*
X115214400Y-111972725D03*
X115214400Y-111572675D03*
X115214400Y-111172625D03*
X115214400Y-110772575D03*
X115214400Y-110372525D03*
X115214400Y-109972475D03*
X115214400Y-109572425D03*
X115214400Y-109172375D03*
X115214400Y-108772325D03*
X115214400Y-108372275D03*
X115214400Y-107972225D03*
X115214400Y-107572175D03*
X115214400Y-107172125D03*
X115214400Y-106772075D03*
D15*
X114411125Y-105968800D03*
X114011075Y-105968800D03*
X113611025Y-105968800D03*
X113210975Y-105968800D03*
X112810925Y-105968800D03*
X112410875Y-105968800D03*
X112010825Y-105968800D03*
X111610775Y-105968800D03*
X111210725Y-105968800D03*
X110810675Y-105968800D03*
X110410625Y-105968800D03*
X110010575Y-105968800D03*
X109610525Y-105968800D03*
X109210475Y-105968800D03*
D16*
X111810800Y-109372400D03*
%TD*%
D17*
%TO.C,C19*%
X117477600Y-110896400D03*
X118437600Y-110896400D03*
%TD*%
D18*
%TO.C,JP4*%
X118793600Y-112826800D03*
D19*
X120243600Y-112826800D03*
%TD*%
D20*
%TO.C,J9*%
X133451600Y-118561600D03*
D21*
X134951600Y-114241600D03*
D22*
X131951600Y-114241600D03*
%TD*%
D23*
%TO.C,R5*%
X108968000Y-100838000D03*
X107948000Y-100838000D03*
%TD*%
D24*
%TO.C,J7*%
X102710400Y-116444400D03*
D25*
X102710400Y-115194400D03*
X102710400Y-113944400D03*
X102710400Y-112694400D03*
X102710400Y-111444400D03*
%TD*%
D18*
%TO.C,JP3*%
X122756000Y-112826800D03*
D19*
X124206000Y-112826800D03*
%TD*%
D26*
%TO.C,C32*%
X143611600Y-126630421D03*
D27*
X143611600Y-129130421D03*
%TD*%
D28*
%TO.C,J3*%
X112471200Y-101142800D03*
%TD*%
D11*
%TO.C,C18*%
X115468400Y-103400800D03*
X115468400Y-102440800D03*
%TD*%
D29*
%TO.C,R14*%
X115579600Y-98806000D03*
X116599600Y-98806000D03*
%TD*%
D23*
%TO.C,R7*%
X128018000Y-98145600D03*
X126998000Y-98145600D03*
%TD*%
D30*
%TO.C,J11*%
X118716800Y-113685200D03*
X120716800Y-113685200D03*
X122716800Y-113685200D03*
X124716800Y-113685200D03*
D31*
X116366800Y-119435200D03*
X127066800Y-119435200D03*
%TD*%
D11*
%TO.C,C15*%
X112623600Y-103400800D03*
X112623600Y-102440800D03*
%TD*%
%TO.C,C23*%
X106426000Y-109852400D03*
X106426000Y-108892400D03*
%TD*%
D32*
%TO.C,H2*%
X121564400Y-108661200D03*
%TD*%
D33*
%TO.C,D2*%
X127304800Y-102503200D03*
X127304800Y-101103200D03*
%TD*%
D29*
%TO.C,R12*%
X117447600Y-108051600D03*
X118467600Y-108051600D03*
%TD*%
D34*
%TO.C,J2*%
X123901200Y-99314000D03*
D25*
X123901200Y-100564000D03*
X123901200Y-101814000D03*
%TD*%
D11*
%TO.C,C4*%
X113436400Y-118386800D03*
X113436400Y-117426800D03*
%TD*%
D24*
%TO.C,J8*%
X141572400Y-120528400D03*
D25*
X141572400Y-119278400D03*
X141572400Y-118028400D03*
%TD*%
D32*
%TO.C,H1*%
X109575600Y-121361200D03*
%TD*%
D10*
%TO.C,C29*%
X105511600Y-122252800D03*
X105511600Y-123212800D03*
%TD*%
D35*
%TO.C,C13*%
X118437600Y-107137200D03*
X117477600Y-107137200D03*
%TD*%
D28*
%TO.C,TP1*%
X111963200Y-118567200D03*
%TD*%
D23*
%TO.C,R4*%
X108968000Y-99923600D03*
X107948000Y-99923600D03*
%TD*%
D36*
%TO.C,R11*%
X112369600Y-115266400D03*
X112369600Y-116286400D03*
%TD*%
D29*
%TO.C,R8*%
X141120400Y-110337600D03*
X142140400Y-110337600D03*
%TD*%
D37*
%TO.C,Y1*%
X108780400Y-116081200D03*
X109980400Y-116081200D03*
X111180400Y-116081200D03*
%TD*%
D23*
%TO.C,R6*%
X128018000Y-99974400D03*
X126998000Y-99974400D03*
%TD*%
D35*
%TO.C,C17*%
X116558000Y-99720400D03*
X115598000Y-99720400D03*
%TD*%
D38*
%TO.C,U9*%
X101572400Y-121224800D03*
X101572400Y-122224800D03*
X101572400Y-123224800D03*
X104472400Y-123224800D03*
X104472400Y-122224800D03*
X104472400Y-121224800D03*
D39*
X103022400Y-122224800D03*
%TD*%
D24*
%TO.C,J10*%
X102717600Y-107797600D03*
D25*
X102717600Y-106547600D03*
X102717600Y-105297600D03*
X102717600Y-104047600D03*
X102717600Y-102797600D03*
%TD*%
D24*
%TO.C,J5*%
X145230000Y-113568800D03*
D25*
X145230000Y-112318800D03*
X145230000Y-111068800D03*
%TD*%
D23*
%TO.C,R10*%
X142140400Y-111353600D03*
X141120400Y-111353600D03*
%TD*%
D20*
%TO.C,J1*%
X144215600Y-103581200D03*
D40*
X139895600Y-102081200D03*
D41*
X139895600Y-105081200D03*
%TD*%
D11*
%TO.C,C21*%
X113538000Y-103400800D03*
X113538000Y-102440800D03*
%TD*%
%TO.C,C20*%
X116433600Y-105890000D03*
X116433600Y-104930000D03*
%TD*%
D42*
%TO.C,U4*%
X108126400Y-101967599D03*
X108126400Y-102467600D03*
X108126400Y-102967600D03*
X108126400Y-103467601D03*
X110923200Y-103467601D03*
X110923200Y-102967600D03*
X110923200Y-102467600D03*
X110923200Y-101967599D03*
D43*
X109524800Y-102717600D03*
%TD*%
D29*
%TO.C,R15*%
X115590800Y-100634800D03*
X116610800Y-100634800D03*
%TD*%
D35*
%TO.C,C3*%
X111071600Y-99923600D03*
X110111600Y-99923600D03*
%TD*%
D17*
%TO.C,C11*%
X127028000Y-99060000D03*
X127988000Y-99060000D03*
%TD*%
D11*
%TO.C,C22*%
X107137200Y-105940800D03*
X107137200Y-104980800D03*
%TD*%
D44*
%TO.C,U5*%
X137444900Y-109946400D03*
X137444900Y-110896400D03*
X137444900Y-111846400D03*
X139719900Y-111846400D03*
X139719900Y-110896400D03*
X139719900Y-109946400D03*
%TD*%
D36*
%TO.C,R1*%
X114350800Y-117396800D03*
X114350800Y-118416800D03*
%TD*%
D35*
%TO.C,C2*%
X111071600Y-100838000D03*
X110111600Y-100838000D03*
%TD*%
D10*
%TO.C,C14*%
X114452400Y-115293200D03*
X114452400Y-116253200D03*
%TD*%
D12*
%TO.C,J6*%
X119278400Y-99872800D03*
D13*
X120528400Y-99872800D03*
%TD*%
D29*
%TO.C,R9*%
X117447600Y-106220800D03*
X118467600Y-106220800D03*
%TD*%
D45*
%TO.C,J12*%
X141734800Y-132546000D03*
D46*
X139734800Y-132546000D03*
X137734800Y-132546000D03*
X135734800Y-132546000D03*
%TD*%
M02*
