%TF.GenerationSoftware,KiCad,Pcbnew,(6.0.6)*%
%TF.CreationDate,2022-08-08T15:32:18+08:00*%
%TF.ProjectId,Stealthburner_Toolhead_PCB,53746561-6c74-4686-9275-726e65725f54,rev?*%
%TF.SameCoordinates,Original*%
%TF.FileFunction,Legend,Bot*%
%TF.FilePolarity,Positive*%
%FSLAX46Y46*%
G04 Gerber Fmt 4.6, Leading zero omitted, Abs format (unit mm)*
G04 Created by KiCad (PCBNEW (6.0.6)) date 2022-08-08 15:32:18*
%MOMM*%
%LPD*%
G01*
G04 APERTURE LIST*
G04 Aperture macros list*
%AMRoundRect*
0 Rectangle with rounded corners*
0 $1 Rounding radius*
0 $2 $3 $4 $5 $6 $7 $8 $9 X,Y pos of 4 corners*
0 Add a 4 corners polygon primitive as box body*
4,1,4,$2,$3,$4,$5,$6,$7,$8,$9,$2,$3,0*
0 Add four circle primitives for the rounded corners*
1,1,$1+$1,$2,$3*
1,1,$1+$1,$4,$5*
1,1,$1+$1,$6,$7*
1,1,$1+$1,$8,$9*
0 Add four rect primitives between the rounded corners*
20,1,$1+$1,$2,$3,$4,$5,0*
20,1,$1+$1,$4,$5,$6,$7,0*
20,1,$1+$1,$6,$7,$8,$9,0*
20,1,$1+$1,$8,$9,$2,$3,0*%
%AMFreePoly0*
4,1,17,1.370000,0.720000,0.950000,0.720000,0.950000,0.580000,1.370000,0.580000,1.370000,0.080000,0.950000,0.080000,0.950000,-0.080000,1.370000,-0.080000,1.370000,-0.580000,0.950000,-0.580000,0.950000,-0.720000,1.371000,-0.720000,1.371000,-1.225000,-0.950000,-1.225000,-0.950000,1.225000,1.370000,1.225000,1.370000,0.720000,1.370000,0.720000,$1*%
G04 Aperture macros list end*
%ADD10C,0.120000*%
%ADD11C,0.150000*%
%ADD12C,0.200000*%
%ADD13C,0.024000*%
%ADD14RoundRect,0.200000X-0.200000X-0.450000X0.200000X-0.450000X0.200000X0.450000X-0.200000X0.450000X0*%
%ADD15O,0.800000X1.300000*%
%ADD16C,3.000000*%
%ADD17RoundRect,0.250001X0.499999X0.759999X-0.499999X0.759999X-0.499999X-0.759999X0.499999X-0.759999X0*%
%ADD18O,1.500000X2.020000*%
%ADD19RoundRect,0.200000X0.450000X-0.200000X0.450000X0.200000X-0.450000X0.200000X-0.450000X-0.200000X0*%
%ADD20O,1.300000X0.800000*%
%ADD21R,1.600000X1.600000*%
%ADD22C,1.600000*%
%ADD23C,1.000000*%
%ADD24C,5.000000*%
%ADD25RoundRect,0.200000X-0.450000X0.200000X-0.450000X-0.200000X0.450000X-0.200000X0.450000X0.200000X0*%
%ADD26RoundRect,0.250001X-0.759999X0.499999X-0.759999X-0.499999X0.759999X-0.499999X0.759999X0.499999X0*%
%ADD27O,2.020000X1.500000*%
%ADD28RoundRect,0.225000X0.250000X-0.225000X0.250000X0.225000X-0.250000X0.225000X-0.250000X-0.225000X0*%
%ADD29RoundRect,0.225000X-0.250000X0.225000X-0.250000X-0.225000X0.250000X-0.225000X0.250000X0.225000X0*%
%ADD30RoundRect,0.150000X-0.512500X-0.150000X0.512500X-0.150000X0.512500X0.150000X-0.512500X0.150000X0*%
%ADD31RoundRect,0.075000X0.337500X0.075000X-0.337500X0.075000X-0.337500X-0.075000X0.337500X-0.075000X0*%
%ADD32RoundRect,0.075000X0.075000X0.337500X-0.075000X0.337500X-0.075000X-0.337500X0.075000X-0.337500X0*%
%ADD33R,3.250000X3.250000*%
%ADD34RoundRect,0.135000X0.135000X0.185000X-0.135000X0.185000X-0.135000X-0.185000X0.135000X-0.185000X0*%
%ADD35RoundRect,0.135000X-0.135000X-0.185000X0.135000X-0.185000X0.135000X0.185000X-0.135000X0.185000X0*%
%ADD36RoundRect,0.140000X0.140000X0.170000X-0.140000X0.170000X-0.140000X-0.170000X0.140000X-0.170000X0*%
%ADD37RoundRect,0.150000X-0.150000X0.587500X-0.150000X-0.587500X0.150000X-0.587500X0.150000X0.587500X0*%
%ADD38RoundRect,0.150000X-0.587500X-0.150000X0.587500X-0.150000X0.587500X0.150000X-0.587500X0.150000X0*%
%ADD39RoundRect,0.140000X0.170000X-0.140000X0.170000X0.140000X-0.170000X0.140000X-0.170000X-0.140000X0*%
%ADD40RoundRect,0.140000X-0.140000X-0.170000X0.140000X-0.170000X0.140000X0.170000X-0.140000X0.170000X0*%
%ADD41R,0.630000X0.500000*%
%ADD42FreePoly0,180.000000*%
%ADD43R,0.600000X0.700000*%
%ADD44RoundRect,0.250000X-0.450000X0.262500X-0.450000X-0.262500X0.450000X-0.262500X0.450000X0.262500X0*%
%ADD45RoundRect,0.200000X-0.200000X-0.275000X0.200000X-0.275000X0.200000X0.275000X-0.200000X0.275000X0*%
%ADD46RoundRect,0.200000X0.200000X0.275000X-0.200000X0.275000X-0.200000X-0.275000X0.200000X-0.275000X0*%
%ADD47RoundRect,0.150000X-0.150000X0.512500X-0.150000X-0.512500X0.150000X-0.512500X0.150000X0.512500X0*%
%ADD48R,1.200000X0.900000*%
%ADD49R,1.200000X3.700000*%
%ADD50RoundRect,0.140000X-0.170000X0.140000X-0.170000X-0.140000X0.170000X-0.140000X0.170000X0.140000X0*%
%ADD51R,0.800000X0.500000*%
%ADD52R,0.762000X0.254000*%
%ADD53R,0.254000X0.762000*%
%ADD54R,3.800000X3.800000*%
%ADD55RoundRect,0.150000X0.150000X-0.325000X0.150000X0.325000X-0.150000X0.325000X-0.150000X-0.325000X0*%
%ADD56RoundRect,0.150000X0.325000X-0.150000X0.325000X0.150000X-0.325000X0.150000X-0.325000X-0.150000X0*%
%ADD57R,0.500000X0.800000*%
%ADD58RoundRect,0.218750X-0.256250X0.218750X-0.256250X-0.218750X0.256250X-0.218750X0.256250X0.218750X0*%
%ADD59RoundRect,0.250000X-0.250000X-0.475000X0.250000X-0.475000X0.250000X0.475000X-0.250000X0.475000X0*%
%ADD60RoundRect,0.135000X-0.185000X0.135000X-0.185000X-0.135000X0.185000X-0.135000X0.185000X0.135000X0*%
%ADD61RoundRect,0.250000X0.350000X0.625000X-0.350000X0.625000X-0.350000X-0.625000X0.350000X-0.625000X0*%
%ADD62O,1.200000X1.750000*%
%ADD63RoundRect,0.225000X0.225000X0.250000X-0.225000X0.250000X-0.225000X-0.250000X0.225000X-0.250000X0*%
%ADD64R,1.100000X1.100000*%
%ADD65RoundRect,0.135000X0.185000X-0.135000X0.185000X0.135000X-0.185000X0.135000X-0.185000X-0.135000X0*%
G04 APERTURE END LIST*
D10*
X101530133Y-109841466D02*
X101930133Y-109841466D01*
X101730133Y-109841466D02*
X101730133Y-109141466D01*
X101796800Y-109241466D01*
X101863466Y-109308133D01*
X101930133Y-109341466D01*
X101263466Y-109208133D02*
X101230133Y-109174800D01*
X101163466Y-109141466D01*
X100996800Y-109141466D01*
X100930133Y-109174800D01*
X100896800Y-109208133D01*
X100863466Y-109274800D01*
X100863466Y-109341466D01*
X100896800Y-109441466D01*
X101296800Y-109841466D01*
X100863466Y-109841466D01*
X101930133Y-105702933D02*
X101896800Y-105669600D01*
X101830133Y-105636266D01*
X101663466Y-105636266D01*
X101596800Y-105669600D01*
X101563466Y-105702933D01*
X101530133Y-105769600D01*
X101530133Y-105836266D01*
X101563466Y-105936266D01*
X101963466Y-106336266D01*
X101530133Y-106336266D01*
X100930133Y-105869600D02*
X100930133Y-106336266D01*
X101096800Y-105602933D02*
X101263466Y-106102933D01*
X100830133Y-106102933D01*
D11*
X114601428Y-110993180D02*
X114601428Y-109993180D01*
X114363333Y-109993180D01*
X114220476Y-110040800D01*
X114125238Y-110136038D01*
X114077619Y-110231276D01*
X114030000Y-110421752D01*
X114030000Y-110564609D01*
X114077619Y-110755085D01*
X114125238Y-110850323D01*
X114220476Y-110945561D01*
X114363333Y-110993180D01*
X114601428Y-110993180D01*
X113601428Y-110469371D02*
X113268095Y-110469371D01*
X113125238Y-110993180D02*
X113601428Y-110993180D01*
X113601428Y-109993180D01*
X113125238Y-109993180D01*
X112839523Y-109993180D02*
X112268095Y-109993180D01*
X112553809Y-110993180D02*
X112553809Y-109993180D01*
X111410952Y-110993180D02*
X111982380Y-110993180D01*
X111696666Y-110993180D02*
X111696666Y-109993180D01*
X111791904Y-110136038D01*
X111887142Y-110231276D01*
X111982380Y-110278895D01*
D10*
X101879333Y-114338933D02*
X101846000Y-114305600D01*
X101779333Y-114272266D01*
X101612666Y-114272266D01*
X101546000Y-114305600D01*
X101512666Y-114338933D01*
X101479333Y-114405600D01*
X101479333Y-114472266D01*
X101512666Y-114572266D01*
X101912666Y-114972266D01*
X101479333Y-114972266D01*
X100879333Y-114505600D02*
X100879333Y-114972266D01*
X101046000Y-114238933D02*
X101212666Y-114738933D01*
X100779333Y-114738933D01*
D11*
X115215752Y-116885980D02*
X115215752Y-115885980D01*
X114834800Y-115885980D01*
X114739561Y-115933600D01*
X114691942Y-115981219D01*
X114644323Y-116076457D01*
X114644323Y-116219314D01*
X114691942Y-116314552D01*
X114739561Y-116362171D01*
X114834800Y-116409790D01*
X115215752Y-116409790D01*
X114310990Y-115885980D02*
X114072895Y-116885980D01*
X113882419Y-116171695D01*
X113691942Y-116885980D01*
X113453847Y-115885980D01*
X113072895Y-116885980D02*
X113072895Y-115885980D01*
X112739561Y-116600266D01*
X112406228Y-115885980D01*
X112406228Y-116885980D01*
X111977657Y-115981219D02*
X111930038Y-115933600D01*
X111834800Y-115885980D01*
X111596704Y-115885980D01*
X111501466Y-115933600D01*
X111453847Y-115981219D01*
X111406228Y-116076457D01*
X111406228Y-116171695D01*
X111453847Y-116314552D01*
X112025276Y-116885980D01*
X111406228Y-116885980D01*
X115215752Y-112974380D02*
X115215752Y-111974380D01*
X114834800Y-111974380D01*
X114739561Y-112022000D01*
X114691942Y-112069619D01*
X114644323Y-112164857D01*
X114644323Y-112307714D01*
X114691942Y-112402952D01*
X114739561Y-112450571D01*
X114834800Y-112498190D01*
X115215752Y-112498190D01*
X114310990Y-111974380D02*
X114072895Y-112974380D01*
X113882419Y-112260095D01*
X113691942Y-112974380D01*
X113453847Y-111974380D01*
X113072895Y-112974380D02*
X113072895Y-111974380D01*
X112739561Y-112688666D01*
X112406228Y-111974380D01*
X112406228Y-112974380D01*
X111406228Y-112974380D02*
X111977657Y-112974380D01*
X111691942Y-112974380D02*
X111691942Y-111974380D01*
X111787180Y-112117238D01*
X111882419Y-112212476D01*
X111977657Y-112260095D01*
D10*
X101479333Y-118680666D02*
X101879333Y-118680666D01*
X101679333Y-118680666D02*
X101679333Y-117980666D01*
X101746000Y-118080666D01*
X101812666Y-118147333D01*
X101879333Y-118180666D01*
X101212666Y-118047333D02*
X101179333Y-118014000D01*
X101112666Y-117980666D01*
X100946000Y-117980666D01*
X100879333Y-118014000D01*
X100846000Y-118047333D01*
X100812666Y-118114000D01*
X100812666Y-118180666D01*
X100846000Y-118280666D01*
X101246000Y-118680666D01*
X100812666Y-118680666D01*
D11*
X114601428Y-114955580D02*
X114601428Y-113955580D01*
X114363333Y-113955580D01*
X114220476Y-114003200D01*
X114125238Y-114098438D01*
X114077619Y-114193676D01*
X114030000Y-114384152D01*
X114030000Y-114527009D01*
X114077619Y-114717485D01*
X114125238Y-114812723D01*
X114220476Y-114907961D01*
X114363333Y-114955580D01*
X114601428Y-114955580D01*
X113601428Y-114431771D02*
X113268095Y-114431771D01*
X113125238Y-114955580D02*
X113601428Y-114955580D01*
X113601428Y-113955580D01*
X113125238Y-113955580D01*
X112839523Y-113955580D02*
X112268095Y-113955580D01*
X112553809Y-114955580D02*
X112553809Y-113955580D01*
X111982380Y-114050819D02*
X111934761Y-114003200D01*
X111839523Y-113955580D01*
X111601428Y-113955580D01*
X111506190Y-114003200D01*
X111458571Y-114050819D01*
X111410952Y-114146057D01*
X111410952Y-114241295D01*
X111458571Y-114384152D01*
X112030000Y-114955580D01*
X111410952Y-114955580D01*
D10*
%TO.C,C12*%
X130548800Y-99513200D02*
X130582133Y-99546533D01*
X130682133Y-99579866D01*
X130748800Y-99579866D01*
X130848800Y-99546533D01*
X130915466Y-99479866D01*
X130948800Y-99413200D01*
X130982133Y-99279866D01*
X130982133Y-99179866D01*
X130948800Y-99046533D01*
X130915466Y-98979866D01*
X130848800Y-98913200D01*
X130748800Y-98879866D01*
X130682133Y-98879866D01*
X130582133Y-98913200D01*
X130548800Y-98946533D01*
X129882133Y-99579866D02*
X130282133Y-99579866D01*
X130082133Y-99579866D02*
X130082133Y-98879866D01*
X130148800Y-98979866D01*
X130215466Y-99046533D01*
X130282133Y-99079866D01*
X129615466Y-98946533D02*
X129582133Y-98913200D01*
X129515466Y-98879866D01*
X129348800Y-98879866D01*
X129282133Y-98913200D01*
X129248800Y-98946533D01*
X129215466Y-99013200D01*
X129215466Y-99079866D01*
X129248800Y-99179866D01*
X129648800Y-99579866D01*
X129215466Y-99579866D01*
%TO.C,C5*%
X130571066Y-110079600D02*
X130604400Y-110112933D01*
X130704400Y-110146266D01*
X130771066Y-110146266D01*
X130871066Y-110112933D01*
X130937733Y-110046266D01*
X130971066Y-109979600D01*
X131004400Y-109846266D01*
X131004400Y-109746266D01*
X130971066Y-109612933D01*
X130937733Y-109546266D01*
X130871066Y-109479600D01*
X130771066Y-109446266D01*
X130704400Y-109446266D01*
X130604400Y-109479600D01*
X130571066Y-109512933D01*
X129937733Y-109446266D02*
X130271066Y-109446266D01*
X130304400Y-109779600D01*
X130271066Y-109746266D01*
X130204400Y-109712933D01*
X130037733Y-109712933D01*
X129971066Y-109746266D01*
X129937733Y-109779600D01*
X129904400Y-109846266D01*
X129904400Y-110012933D01*
X129937733Y-110079600D01*
X129971066Y-110112933D01*
X130037733Y-110146266D01*
X130204400Y-110146266D01*
X130271066Y-110112933D01*
X130304400Y-110079600D01*
%TO.C,U1*%
X138201333Y-99235466D02*
X138201333Y-99802133D01*
X138168000Y-99868800D01*
X138134666Y-99902133D01*
X138068000Y-99935466D01*
X137934666Y-99935466D01*
X137868000Y-99902133D01*
X137834666Y-99868800D01*
X137801333Y-99802133D01*
X137801333Y-99235466D01*
X137101333Y-99935466D02*
X137501333Y-99935466D01*
X137301333Y-99935466D02*
X137301333Y-99235466D01*
X137368000Y-99335466D01*
X137434666Y-99402133D01*
X137501333Y-99435466D01*
%TO.C,U13*%
X118265466Y-114475466D02*
X118265466Y-115042133D01*
X118232133Y-115108800D01*
X118198800Y-115142133D01*
X118132133Y-115175466D01*
X117998800Y-115175466D01*
X117932133Y-115142133D01*
X117898800Y-115108800D01*
X117865466Y-115042133D01*
X117865466Y-114475466D01*
X117165466Y-115175466D02*
X117565466Y-115175466D01*
X117365466Y-115175466D02*
X117365466Y-114475466D01*
X117432133Y-114575466D01*
X117498800Y-114642133D01*
X117565466Y-114675466D01*
X116932133Y-114475466D02*
X116498800Y-114475466D01*
X116732133Y-114742133D01*
X116632133Y-114742133D01*
X116565466Y-114775466D01*
X116532133Y-114808800D01*
X116498800Y-114875466D01*
X116498800Y-115042133D01*
X116532133Y-115108800D01*
X116565466Y-115142133D01*
X116632133Y-115175466D01*
X116832133Y-115175466D01*
X116898800Y-115142133D01*
X116932133Y-115108800D01*
%TO.C,R25*%
X145837600Y-124522666D02*
X146070933Y-124189333D01*
X146237600Y-124522666D02*
X146237600Y-123822666D01*
X145970933Y-123822666D01*
X145904266Y-123856000D01*
X145870933Y-123889333D01*
X145837600Y-123956000D01*
X145837600Y-124056000D01*
X145870933Y-124122666D01*
X145904266Y-124156000D01*
X145970933Y-124189333D01*
X146237600Y-124189333D01*
X145570933Y-123889333D02*
X145537600Y-123856000D01*
X145470933Y-123822666D01*
X145304266Y-123822666D01*
X145237600Y-123856000D01*
X145204266Y-123889333D01*
X145170933Y-123956000D01*
X145170933Y-124022666D01*
X145204266Y-124122666D01*
X145604266Y-124522666D01*
X145170933Y-124522666D01*
X144537600Y-123822666D02*
X144870933Y-123822666D01*
X144904266Y-124156000D01*
X144870933Y-124122666D01*
X144804266Y-124089333D01*
X144637600Y-124089333D01*
X144570933Y-124122666D01*
X144537600Y-124156000D01*
X144504266Y-124222666D01*
X144504266Y-124389333D01*
X144537600Y-124456000D01*
X144570933Y-124489333D01*
X144637600Y-124522666D01*
X144804266Y-124522666D01*
X144870933Y-124489333D01*
X144904266Y-124456000D01*
%TO.C,R13*%
X108349200Y-100545066D02*
X108582533Y-100211733D01*
X108749200Y-100545066D02*
X108749200Y-99845066D01*
X108482533Y-99845066D01*
X108415866Y-99878400D01*
X108382533Y-99911733D01*
X108349200Y-99978400D01*
X108349200Y-100078400D01*
X108382533Y-100145066D01*
X108415866Y-100178400D01*
X108482533Y-100211733D01*
X108749200Y-100211733D01*
X107682533Y-100545066D02*
X108082533Y-100545066D01*
X107882533Y-100545066D02*
X107882533Y-99845066D01*
X107949200Y-99945066D01*
X108015866Y-100011733D01*
X108082533Y-100045066D01*
X107449200Y-99845066D02*
X107015866Y-99845066D01*
X107249200Y-100111733D01*
X107149200Y-100111733D01*
X107082533Y-100145066D01*
X107049200Y-100178400D01*
X107015866Y-100245066D01*
X107015866Y-100411733D01*
X107049200Y-100478400D01*
X107082533Y-100511733D01*
X107149200Y-100545066D01*
X107349200Y-100545066D01*
X107415866Y-100511733D01*
X107449200Y-100478400D01*
%TO.C,C27*%
X145886400Y-123541600D02*
X145919733Y-123574933D01*
X146019733Y-123608266D01*
X146086400Y-123608266D01*
X146186400Y-123574933D01*
X146253066Y-123508266D01*
X146286400Y-123441600D01*
X146319733Y-123308266D01*
X146319733Y-123208266D01*
X146286400Y-123074933D01*
X146253066Y-123008266D01*
X146186400Y-122941600D01*
X146086400Y-122908266D01*
X146019733Y-122908266D01*
X145919733Y-122941600D01*
X145886400Y-122974933D01*
X145619733Y-122974933D02*
X145586400Y-122941600D01*
X145519733Y-122908266D01*
X145353066Y-122908266D01*
X145286400Y-122941600D01*
X145253066Y-122974933D01*
X145219733Y-123041600D01*
X145219733Y-123108266D01*
X145253066Y-123208266D01*
X145653066Y-123608266D01*
X145219733Y-123608266D01*
X144986400Y-122908266D02*
X144519733Y-122908266D01*
X144819733Y-123608266D01*
%TO.C,R28*%
X133698400Y-127570666D02*
X133931733Y-127237333D01*
X134098400Y-127570666D02*
X134098400Y-126870666D01*
X133831733Y-126870666D01*
X133765066Y-126904000D01*
X133731733Y-126937333D01*
X133698400Y-127004000D01*
X133698400Y-127104000D01*
X133731733Y-127170666D01*
X133765066Y-127204000D01*
X133831733Y-127237333D01*
X134098400Y-127237333D01*
X133431733Y-126937333D02*
X133398400Y-126904000D01*
X133331733Y-126870666D01*
X133165066Y-126870666D01*
X133098400Y-126904000D01*
X133065066Y-126937333D01*
X133031733Y-127004000D01*
X133031733Y-127070666D01*
X133065066Y-127170666D01*
X133465066Y-127570666D01*
X133031733Y-127570666D01*
X132631733Y-127170666D02*
X132698400Y-127137333D01*
X132731733Y-127104000D01*
X132765066Y-127037333D01*
X132765066Y-127004000D01*
X132731733Y-126937333D01*
X132698400Y-126904000D01*
X132631733Y-126870666D01*
X132498400Y-126870666D01*
X132431733Y-126904000D01*
X132398400Y-126937333D01*
X132365066Y-127004000D01*
X132365066Y-127037333D01*
X132398400Y-127104000D01*
X132431733Y-127137333D01*
X132498400Y-127170666D01*
X132631733Y-127170666D01*
X132698400Y-127204000D01*
X132731733Y-127237333D01*
X132765066Y-127304000D01*
X132765066Y-127437333D01*
X132731733Y-127504000D01*
X132698400Y-127537333D01*
X132631733Y-127570666D01*
X132498400Y-127570666D01*
X132431733Y-127537333D01*
X132398400Y-127504000D01*
X132365066Y-127437333D01*
X132365066Y-127304000D01*
X132398400Y-127237333D01*
X132431733Y-127204000D01*
X132498400Y-127170666D01*
%TO.C,C10*%
X132580800Y-99513200D02*
X132614133Y-99546533D01*
X132714133Y-99579866D01*
X132780800Y-99579866D01*
X132880800Y-99546533D01*
X132947466Y-99479866D01*
X132980800Y-99413200D01*
X133014133Y-99279866D01*
X133014133Y-99179866D01*
X132980800Y-99046533D01*
X132947466Y-98979866D01*
X132880800Y-98913200D01*
X132780800Y-98879866D01*
X132714133Y-98879866D01*
X132614133Y-98913200D01*
X132580800Y-98946533D01*
X131914133Y-99579866D02*
X132314133Y-99579866D01*
X132114133Y-99579866D02*
X132114133Y-98879866D01*
X132180800Y-98979866D01*
X132247466Y-99046533D01*
X132314133Y-99079866D01*
X131480800Y-98879866D02*
X131414133Y-98879866D01*
X131347466Y-98913200D01*
X131314133Y-98946533D01*
X131280800Y-99013200D01*
X131247466Y-99146533D01*
X131247466Y-99313200D01*
X131280800Y-99446533D01*
X131314133Y-99513200D01*
X131347466Y-99546533D01*
X131414133Y-99579866D01*
X131480800Y-99579866D01*
X131547466Y-99546533D01*
X131580800Y-99513200D01*
X131614133Y-99446533D01*
X131647466Y-99313200D01*
X131647466Y-99146533D01*
X131614133Y-99013200D01*
X131580800Y-98946533D01*
X131547466Y-98913200D01*
X131480800Y-98879866D01*
%TO.C,C6*%
X130571066Y-106218800D02*
X130604400Y-106252133D01*
X130704400Y-106285466D01*
X130771066Y-106285466D01*
X130871066Y-106252133D01*
X130937733Y-106185466D01*
X130971066Y-106118800D01*
X131004400Y-105985466D01*
X131004400Y-105885466D01*
X130971066Y-105752133D01*
X130937733Y-105685466D01*
X130871066Y-105618800D01*
X130771066Y-105585466D01*
X130704400Y-105585466D01*
X130604400Y-105618800D01*
X130571066Y-105652133D01*
X129971066Y-105585466D02*
X130104400Y-105585466D01*
X130171066Y-105618800D01*
X130204400Y-105652133D01*
X130271066Y-105752133D01*
X130304400Y-105885466D01*
X130304400Y-106152133D01*
X130271066Y-106218800D01*
X130237733Y-106252133D01*
X130171066Y-106285466D01*
X130037733Y-106285466D01*
X129971066Y-106252133D01*
X129937733Y-106218800D01*
X129904400Y-106152133D01*
X129904400Y-105985466D01*
X129937733Y-105918800D01*
X129971066Y-105885466D01*
X130037733Y-105852133D01*
X130171066Y-105852133D01*
X130237733Y-105885466D01*
X130271066Y-105918800D01*
X130304400Y-105985466D01*
%TO.C,Q1*%
X106746666Y-117731333D02*
X106813333Y-117698000D01*
X106880000Y-117631333D01*
X106980000Y-117531333D01*
X107046666Y-117498000D01*
X107113333Y-117498000D01*
X107080000Y-117664666D02*
X107146666Y-117631333D01*
X107213333Y-117564666D01*
X107246666Y-117431333D01*
X107246666Y-117198000D01*
X107213333Y-117064666D01*
X107146666Y-116998000D01*
X107080000Y-116964666D01*
X106946666Y-116964666D01*
X106880000Y-116998000D01*
X106813333Y-117064666D01*
X106780000Y-117198000D01*
X106780000Y-117431333D01*
X106813333Y-117564666D01*
X106880000Y-117631333D01*
X106946666Y-117664666D01*
X107080000Y-117664666D01*
X106113333Y-117664666D02*
X106513333Y-117664666D01*
X106313333Y-117664666D02*
X106313333Y-116964666D01*
X106380000Y-117064666D01*
X106446666Y-117131333D01*
X106513333Y-117164666D01*
%TO.C,C34*%
X133698400Y-126538800D02*
X133731733Y-126572133D01*
X133831733Y-126605466D01*
X133898400Y-126605466D01*
X133998400Y-126572133D01*
X134065066Y-126505466D01*
X134098400Y-126438800D01*
X134131733Y-126305466D01*
X134131733Y-126205466D01*
X134098400Y-126072133D01*
X134065066Y-126005466D01*
X133998400Y-125938800D01*
X133898400Y-125905466D01*
X133831733Y-125905466D01*
X133731733Y-125938800D01*
X133698400Y-125972133D01*
X133465066Y-125905466D02*
X133031733Y-125905466D01*
X133265066Y-126172133D01*
X133165066Y-126172133D01*
X133098400Y-126205466D01*
X133065066Y-126238800D01*
X133031733Y-126305466D01*
X133031733Y-126472133D01*
X133065066Y-126538800D01*
X133098400Y-126572133D01*
X133165066Y-126605466D01*
X133365066Y-126605466D01*
X133431733Y-126572133D01*
X133465066Y-126538800D01*
X132431733Y-126138800D02*
X132431733Y-126605466D01*
X132598400Y-125872133D02*
X132765066Y-126372133D01*
X132331733Y-126372133D01*
%TO.C,U3*%
X129616133Y-102842266D02*
X129616133Y-103408933D01*
X129582800Y-103475600D01*
X129549466Y-103508933D01*
X129482800Y-103542266D01*
X129349466Y-103542266D01*
X129282800Y-103508933D01*
X129249466Y-103475600D01*
X129216133Y-103408933D01*
X129216133Y-102842266D01*
X128949466Y-102842266D02*
X128516133Y-102842266D01*
X128749466Y-103108933D01*
X128649466Y-103108933D01*
X128582800Y-103142266D01*
X128549466Y-103175600D01*
X128516133Y-103242266D01*
X128516133Y-103408933D01*
X128549466Y-103475600D01*
X128582800Y-103508933D01*
X128649466Y-103542266D01*
X128849466Y-103542266D01*
X128916133Y-103508933D01*
X128949466Y-103475600D01*
%TO.C,C31*%
X124808400Y-111552800D02*
X124841733Y-111586133D01*
X124941733Y-111619466D01*
X125008400Y-111619466D01*
X125108400Y-111586133D01*
X125175066Y-111519466D01*
X125208400Y-111452800D01*
X125241733Y-111319466D01*
X125241733Y-111219466D01*
X125208400Y-111086133D01*
X125175066Y-111019466D01*
X125108400Y-110952800D01*
X125008400Y-110919466D01*
X124941733Y-110919466D01*
X124841733Y-110952800D01*
X124808400Y-110986133D01*
X124575066Y-110919466D02*
X124141733Y-110919466D01*
X124375066Y-111186133D01*
X124275066Y-111186133D01*
X124208400Y-111219466D01*
X124175066Y-111252800D01*
X124141733Y-111319466D01*
X124141733Y-111486133D01*
X124175066Y-111552800D01*
X124208400Y-111586133D01*
X124275066Y-111619466D01*
X124475066Y-111619466D01*
X124541733Y-111586133D01*
X124575066Y-111552800D01*
X123475066Y-111619466D02*
X123875066Y-111619466D01*
X123675066Y-111619466D02*
X123675066Y-110919466D01*
X123741733Y-111019466D01*
X123808400Y-111086133D01*
X123875066Y-111119466D01*
%TO.C,C35*%
X132377600Y-120747600D02*
X132410933Y-120780933D01*
X132510933Y-120814266D01*
X132577600Y-120814266D01*
X132677600Y-120780933D01*
X132744266Y-120714266D01*
X132777600Y-120647600D01*
X132810933Y-120514266D01*
X132810933Y-120414266D01*
X132777600Y-120280933D01*
X132744266Y-120214266D01*
X132677600Y-120147600D01*
X132577600Y-120114266D01*
X132510933Y-120114266D01*
X132410933Y-120147600D01*
X132377600Y-120180933D01*
X132144266Y-120114266D02*
X131710933Y-120114266D01*
X131944266Y-120380933D01*
X131844266Y-120380933D01*
X131777600Y-120414266D01*
X131744266Y-120447600D01*
X131710933Y-120514266D01*
X131710933Y-120680933D01*
X131744266Y-120747600D01*
X131777600Y-120780933D01*
X131844266Y-120814266D01*
X132044266Y-120814266D01*
X132110933Y-120780933D01*
X132144266Y-120747600D01*
X131077600Y-120114266D02*
X131410933Y-120114266D01*
X131444266Y-120447600D01*
X131410933Y-120414266D01*
X131344266Y-120380933D01*
X131177600Y-120380933D01*
X131110933Y-120414266D01*
X131077600Y-120447600D01*
X131044266Y-120514266D01*
X131044266Y-120680933D01*
X131077600Y-120747600D01*
X131110933Y-120780933D01*
X131177600Y-120814266D01*
X131344266Y-120814266D01*
X131410933Y-120780933D01*
X131444266Y-120747600D01*
%TO.C,Q2*%
X106695866Y-109247733D02*
X106762533Y-109214400D01*
X106829200Y-109147733D01*
X106929200Y-109047733D01*
X106995866Y-109014400D01*
X107062533Y-109014400D01*
X107029200Y-109181066D02*
X107095866Y-109147733D01*
X107162533Y-109081066D01*
X107195866Y-108947733D01*
X107195866Y-108714400D01*
X107162533Y-108581066D01*
X107095866Y-108514400D01*
X107029200Y-108481066D01*
X106895866Y-108481066D01*
X106829200Y-108514400D01*
X106762533Y-108581066D01*
X106729200Y-108714400D01*
X106729200Y-108947733D01*
X106762533Y-109081066D01*
X106829200Y-109147733D01*
X106895866Y-109181066D01*
X107029200Y-109181066D01*
X106462533Y-108547733D02*
X106429200Y-108514400D01*
X106362533Y-108481066D01*
X106195866Y-108481066D01*
X106129200Y-108514400D01*
X106095866Y-108547733D01*
X106062533Y-108614400D01*
X106062533Y-108681066D01*
X106095866Y-108781066D01*
X106495866Y-109181066D01*
X106062533Y-109181066D01*
%TO.C,Q3*%
X139563466Y-111889333D02*
X139630133Y-111856000D01*
X139696800Y-111789333D01*
X139796800Y-111689333D01*
X139863466Y-111656000D01*
X139930133Y-111656000D01*
X139896800Y-111822666D02*
X139963466Y-111789333D01*
X140030133Y-111722666D01*
X140063466Y-111589333D01*
X140063466Y-111356000D01*
X140030133Y-111222666D01*
X139963466Y-111156000D01*
X139896800Y-111122666D01*
X139763466Y-111122666D01*
X139696800Y-111156000D01*
X139630133Y-111222666D01*
X139596800Y-111356000D01*
X139596800Y-111589333D01*
X139630133Y-111722666D01*
X139696800Y-111789333D01*
X139763466Y-111822666D01*
X139896800Y-111822666D01*
X139363466Y-111122666D02*
X138930133Y-111122666D01*
X139163466Y-111389333D01*
X139063466Y-111389333D01*
X138996800Y-111422666D01*
X138963466Y-111456000D01*
X138930133Y-111522666D01*
X138930133Y-111689333D01*
X138963466Y-111756000D01*
X138996800Y-111789333D01*
X139063466Y-111822666D01*
X139263466Y-111822666D01*
X139330133Y-111789333D01*
X139363466Y-111756000D01*
%TO.C,D3*%
X108009466Y-113651466D02*
X108009466Y-112951466D01*
X107842800Y-112951466D01*
X107742800Y-112984800D01*
X107676133Y-113051466D01*
X107642800Y-113118133D01*
X107609466Y-113251466D01*
X107609466Y-113351466D01*
X107642800Y-113484800D01*
X107676133Y-113551466D01*
X107742800Y-113618133D01*
X107842800Y-113651466D01*
X108009466Y-113651466D01*
X107376133Y-112951466D02*
X106942800Y-112951466D01*
X107176133Y-113218133D01*
X107076133Y-113218133D01*
X107009466Y-113251466D01*
X106976133Y-113284800D01*
X106942800Y-113351466D01*
X106942800Y-113518133D01*
X106976133Y-113584800D01*
X107009466Y-113618133D01*
X107076133Y-113651466D01*
X107276133Y-113651466D01*
X107342800Y-113618133D01*
X107376133Y-113584800D01*
%TO.C,D6*%
X106028266Y-100697466D02*
X106028266Y-99997466D01*
X105861600Y-99997466D01*
X105761600Y-100030800D01*
X105694933Y-100097466D01*
X105661600Y-100164133D01*
X105628266Y-100297466D01*
X105628266Y-100397466D01*
X105661600Y-100530800D01*
X105694933Y-100597466D01*
X105761600Y-100664133D01*
X105861600Y-100697466D01*
X106028266Y-100697466D01*
X105028266Y-99997466D02*
X105161600Y-99997466D01*
X105228266Y-100030800D01*
X105261600Y-100064133D01*
X105328266Y-100164133D01*
X105361600Y-100297466D01*
X105361600Y-100564133D01*
X105328266Y-100630800D01*
X105294933Y-100664133D01*
X105228266Y-100697466D01*
X105094933Y-100697466D01*
X105028266Y-100664133D01*
X104994933Y-100630800D01*
X104961600Y-100564133D01*
X104961600Y-100397466D01*
X104994933Y-100330800D01*
X105028266Y-100297466D01*
X105094933Y-100264133D01*
X105228266Y-100264133D01*
X105294933Y-100297466D01*
X105328266Y-100330800D01*
X105361600Y-100397466D01*
%TO.C,R31*%
X125538666Y-113494400D02*
X125205333Y-113261066D01*
X125538666Y-113094400D02*
X124838666Y-113094400D01*
X124838666Y-113361066D01*
X124872000Y-113427733D01*
X124905333Y-113461066D01*
X124972000Y-113494400D01*
X125072000Y-113494400D01*
X125138666Y-113461066D01*
X125172000Y-113427733D01*
X125205333Y-113361066D01*
X125205333Y-113094400D01*
X124838666Y-113727733D02*
X124838666Y-114161066D01*
X125105333Y-113927733D01*
X125105333Y-114027733D01*
X125138666Y-114094400D01*
X125172000Y-114127733D01*
X125238666Y-114161066D01*
X125405333Y-114161066D01*
X125472000Y-114127733D01*
X125505333Y-114094400D01*
X125538666Y-114027733D01*
X125538666Y-113827733D01*
X125505333Y-113761066D01*
X125472000Y-113727733D01*
X125538666Y-114827733D02*
X125538666Y-114427733D01*
X125538666Y-114627733D02*
X124838666Y-114627733D01*
X124938666Y-114561066D01*
X125005333Y-114494400D01*
X125038666Y-114427733D01*
%TO.C,R29*%
X141064400Y-129653466D02*
X141297733Y-129320133D01*
X141464400Y-129653466D02*
X141464400Y-128953466D01*
X141197733Y-128953466D01*
X141131066Y-128986800D01*
X141097733Y-129020133D01*
X141064400Y-129086800D01*
X141064400Y-129186800D01*
X141097733Y-129253466D01*
X141131066Y-129286800D01*
X141197733Y-129320133D01*
X141464400Y-129320133D01*
X140797733Y-129020133D02*
X140764400Y-128986800D01*
X140697733Y-128953466D01*
X140531066Y-128953466D01*
X140464400Y-128986800D01*
X140431066Y-129020133D01*
X140397733Y-129086800D01*
X140397733Y-129153466D01*
X140431066Y-129253466D01*
X140831066Y-129653466D01*
X140397733Y-129653466D01*
X140064400Y-129653466D02*
X139931066Y-129653466D01*
X139864400Y-129620133D01*
X139831066Y-129586800D01*
X139764400Y-129486800D01*
X139731066Y-129353466D01*
X139731066Y-129086800D01*
X139764400Y-129020133D01*
X139797733Y-128986800D01*
X139864400Y-128953466D01*
X139997733Y-128953466D01*
X140064400Y-128986800D01*
X140097733Y-129020133D01*
X140131066Y-129086800D01*
X140131066Y-129253466D01*
X140097733Y-129320133D01*
X140064400Y-129353466D01*
X139997733Y-129386800D01*
X139864400Y-129386800D01*
X139797733Y-129353466D01*
X139764400Y-129320133D01*
X139731066Y-129253466D01*
%TO.C,C33*%
X131768000Y-122728800D02*
X131801333Y-122762133D01*
X131901333Y-122795466D01*
X131968000Y-122795466D01*
X132068000Y-122762133D01*
X132134666Y-122695466D01*
X132168000Y-122628800D01*
X132201333Y-122495466D01*
X132201333Y-122395466D01*
X132168000Y-122262133D01*
X132134666Y-122195466D01*
X132068000Y-122128800D01*
X131968000Y-122095466D01*
X131901333Y-122095466D01*
X131801333Y-122128800D01*
X131768000Y-122162133D01*
X131534666Y-122095466D02*
X131101333Y-122095466D01*
X131334666Y-122362133D01*
X131234666Y-122362133D01*
X131168000Y-122395466D01*
X131134666Y-122428800D01*
X131101333Y-122495466D01*
X131101333Y-122662133D01*
X131134666Y-122728800D01*
X131168000Y-122762133D01*
X131234666Y-122795466D01*
X131434666Y-122795466D01*
X131501333Y-122762133D01*
X131534666Y-122728800D01*
X130868000Y-122095466D02*
X130434666Y-122095466D01*
X130668000Y-122362133D01*
X130568000Y-122362133D01*
X130501333Y-122395466D01*
X130468000Y-122428800D01*
X130434666Y-122495466D01*
X130434666Y-122662133D01*
X130468000Y-122728800D01*
X130501333Y-122762133D01*
X130568000Y-122795466D01*
X130768000Y-122795466D01*
X130834666Y-122762133D01*
X130868000Y-122728800D01*
%TO.C,R30*%
X136543200Y-129704266D02*
X136776533Y-129370933D01*
X136943200Y-129704266D02*
X136943200Y-129004266D01*
X136676533Y-129004266D01*
X136609866Y-129037600D01*
X136576533Y-129070933D01*
X136543200Y-129137600D01*
X136543200Y-129237600D01*
X136576533Y-129304266D01*
X136609866Y-129337600D01*
X136676533Y-129370933D01*
X136943200Y-129370933D01*
X136309866Y-129004266D02*
X135876533Y-129004266D01*
X136109866Y-129270933D01*
X136009866Y-129270933D01*
X135943200Y-129304266D01*
X135909866Y-129337600D01*
X135876533Y-129404266D01*
X135876533Y-129570933D01*
X135909866Y-129637600D01*
X135943200Y-129670933D01*
X136009866Y-129704266D01*
X136209866Y-129704266D01*
X136276533Y-129670933D01*
X136309866Y-129637600D01*
X135443200Y-129004266D02*
X135376533Y-129004266D01*
X135309866Y-129037600D01*
X135276533Y-129070933D01*
X135243200Y-129137600D01*
X135209866Y-129270933D01*
X135209866Y-129437600D01*
X135243200Y-129570933D01*
X135276533Y-129637600D01*
X135309866Y-129670933D01*
X135376533Y-129704266D01*
X135443200Y-129704266D01*
X135509866Y-129670933D01*
X135543200Y-129637600D01*
X135576533Y-129570933D01*
X135609866Y-129437600D01*
X135609866Y-129270933D01*
X135576533Y-129137600D01*
X135543200Y-129070933D01*
X135509866Y-129037600D01*
X135443200Y-129004266D01*
%TO.C,R20*%
X105910800Y-99732266D02*
X106144133Y-99398933D01*
X106310800Y-99732266D02*
X106310800Y-99032266D01*
X106044133Y-99032266D01*
X105977466Y-99065600D01*
X105944133Y-99098933D01*
X105910800Y-99165600D01*
X105910800Y-99265600D01*
X105944133Y-99332266D01*
X105977466Y-99365600D01*
X106044133Y-99398933D01*
X106310800Y-99398933D01*
X105644133Y-99098933D02*
X105610800Y-99065600D01*
X105544133Y-99032266D01*
X105377466Y-99032266D01*
X105310800Y-99065600D01*
X105277466Y-99098933D01*
X105244133Y-99165600D01*
X105244133Y-99232266D01*
X105277466Y-99332266D01*
X105677466Y-99732266D01*
X105244133Y-99732266D01*
X104810800Y-99032266D02*
X104744133Y-99032266D01*
X104677466Y-99065600D01*
X104644133Y-99098933D01*
X104610800Y-99165600D01*
X104577466Y-99298933D01*
X104577466Y-99465600D01*
X104610800Y-99598933D01*
X104644133Y-99665600D01*
X104677466Y-99698933D01*
X104744133Y-99732266D01*
X104810800Y-99732266D01*
X104877466Y-99698933D01*
X104910800Y-99665600D01*
X104944133Y-99598933D01*
X104977466Y-99465600D01*
X104977466Y-99298933D01*
X104944133Y-99165600D01*
X104910800Y-99098933D01*
X104877466Y-99065600D01*
X104810800Y-99032266D01*
%TO.C,R2*%
X136333866Y-99833866D02*
X136567200Y-99500533D01*
X136733866Y-99833866D02*
X136733866Y-99133866D01*
X136467200Y-99133866D01*
X136400533Y-99167200D01*
X136367200Y-99200533D01*
X136333866Y-99267200D01*
X136333866Y-99367200D01*
X136367200Y-99433866D01*
X136400533Y-99467200D01*
X136467200Y-99500533D01*
X136733866Y-99500533D01*
X136067200Y-99200533D02*
X136033866Y-99167200D01*
X135967200Y-99133866D01*
X135800533Y-99133866D01*
X135733866Y-99167200D01*
X135700533Y-99200533D01*
X135667200Y-99267200D01*
X135667200Y-99333866D01*
X135700533Y-99433866D01*
X136100533Y-99833866D01*
X135667200Y-99833866D01*
%TO.C,C28*%
X131768000Y-121712800D02*
X131801333Y-121746133D01*
X131901333Y-121779466D01*
X131968000Y-121779466D01*
X132068000Y-121746133D01*
X132134666Y-121679466D01*
X132168000Y-121612800D01*
X132201333Y-121479466D01*
X132201333Y-121379466D01*
X132168000Y-121246133D01*
X132134666Y-121179466D01*
X132068000Y-121112800D01*
X131968000Y-121079466D01*
X131901333Y-121079466D01*
X131801333Y-121112800D01*
X131768000Y-121146133D01*
X131501333Y-121146133D02*
X131468000Y-121112800D01*
X131401333Y-121079466D01*
X131234666Y-121079466D01*
X131168000Y-121112800D01*
X131134666Y-121146133D01*
X131101333Y-121212800D01*
X131101333Y-121279466D01*
X131134666Y-121379466D01*
X131534666Y-121779466D01*
X131101333Y-121779466D01*
X130701333Y-121379466D02*
X130768000Y-121346133D01*
X130801333Y-121312800D01*
X130834666Y-121246133D01*
X130834666Y-121212800D01*
X130801333Y-121146133D01*
X130768000Y-121112800D01*
X130701333Y-121079466D01*
X130568000Y-121079466D01*
X130501333Y-121112800D01*
X130468000Y-121146133D01*
X130434666Y-121212800D01*
X130434666Y-121246133D01*
X130468000Y-121312800D01*
X130501333Y-121346133D01*
X130568000Y-121379466D01*
X130701333Y-121379466D01*
X130768000Y-121412800D01*
X130801333Y-121446133D01*
X130834666Y-121512800D01*
X130834666Y-121646133D01*
X130801333Y-121712800D01*
X130768000Y-121746133D01*
X130701333Y-121779466D01*
X130568000Y-121779466D01*
X130501333Y-121746133D01*
X130468000Y-121712800D01*
X130434666Y-121646133D01*
X130434666Y-121512800D01*
X130468000Y-121446133D01*
X130501333Y-121412800D01*
X130568000Y-121379466D01*
%TO.C,U11*%
X132540266Y-112240266D02*
X132540266Y-112806933D01*
X132506933Y-112873600D01*
X132473600Y-112906933D01*
X132406933Y-112940266D01*
X132273600Y-112940266D01*
X132206933Y-112906933D01*
X132173600Y-112873600D01*
X132140266Y-112806933D01*
X132140266Y-112240266D01*
X131440266Y-112940266D02*
X131840266Y-112940266D01*
X131640266Y-112940266D02*
X131640266Y-112240266D01*
X131706933Y-112340266D01*
X131773600Y-112406933D01*
X131840266Y-112440266D01*
X130773600Y-112940266D02*
X131173600Y-112940266D01*
X130973600Y-112940266D02*
X130973600Y-112240266D01*
X131040266Y-112340266D01*
X131106933Y-112406933D01*
X131173600Y-112440266D01*
%TO.C,D1*%
X139403866Y-107555466D02*
X139403866Y-106855466D01*
X139237200Y-106855466D01*
X139137200Y-106888800D01*
X139070533Y-106955466D01*
X139037200Y-107022133D01*
X139003866Y-107155466D01*
X139003866Y-107255466D01*
X139037200Y-107388800D01*
X139070533Y-107455466D01*
X139137200Y-107522133D01*
X139237200Y-107555466D01*
X139403866Y-107555466D01*
X138337200Y-107555466D02*
X138737200Y-107555466D01*
X138537200Y-107555466D02*
X138537200Y-106855466D01*
X138603866Y-106955466D01*
X138670533Y-107022133D01*
X138737200Y-107055466D01*
%TO.C,L1*%
X135295466Y-108774666D02*
X135628800Y-108774666D01*
X135628800Y-108074666D01*
X134695466Y-108774666D02*
X135095466Y-108774666D01*
X134895466Y-108774666D02*
X134895466Y-108074666D01*
X134962133Y-108174666D01*
X135028800Y-108241333D01*
X135095466Y-108274666D01*
%TO.C,C25*%
X139946800Y-121154000D02*
X139980133Y-121187333D01*
X140080133Y-121220666D01*
X140146800Y-121220666D01*
X140246800Y-121187333D01*
X140313466Y-121120666D01*
X140346800Y-121054000D01*
X140380133Y-120920666D01*
X140380133Y-120820666D01*
X140346800Y-120687333D01*
X140313466Y-120620666D01*
X140246800Y-120554000D01*
X140146800Y-120520666D01*
X140080133Y-120520666D01*
X139980133Y-120554000D01*
X139946800Y-120587333D01*
X139680133Y-120587333D02*
X139646800Y-120554000D01*
X139580133Y-120520666D01*
X139413466Y-120520666D01*
X139346800Y-120554000D01*
X139313466Y-120587333D01*
X139280133Y-120654000D01*
X139280133Y-120720666D01*
X139313466Y-120820666D01*
X139713466Y-121220666D01*
X139280133Y-121220666D01*
X138646800Y-120520666D02*
X138980133Y-120520666D01*
X139013466Y-120854000D01*
X138980133Y-120820666D01*
X138913466Y-120787333D01*
X138746800Y-120787333D01*
X138680133Y-120820666D01*
X138646800Y-120854000D01*
X138613466Y-120920666D01*
X138613466Y-121087333D01*
X138646800Y-121154000D01*
X138680133Y-121187333D01*
X138746800Y-121220666D01*
X138913466Y-121220666D01*
X138980133Y-121187333D01*
X139013466Y-121154000D01*
%TO.C,C9*%
X125287866Y-105152000D02*
X125321200Y-105185333D01*
X125421200Y-105218666D01*
X125487866Y-105218666D01*
X125587866Y-105185333D01*
X125654533Y-105118666D01*
X125687866Y-105052000D01*
X125721200Y-104918666D01*
X125721200Y-104818666D01*
X125687866Y-104685333D01*
X125654533Y-104618666D01*
X125587866Y-104552000D01*
X125487866Y-104518666D01*
X125421200Y-104518666D01*
X125321200Y-104552000D01*
X125287866Y-104585333D01*
X124954533Y-105218666D02*
X124821200Y-105218666D01*
X124754533Y-105185333D01*
X124721200Y-105152000D01*
X124654533Y-105052000D01*
X124621200Y-104918666D01*
X124621200Y-104652000D01*
X124654533Y-104585333D01*
X124687866Y-104552000D01*
X124754533Y-104518666D01*
X124887866Y-104518666D01*
X124954533Y-104552000D01*
X124987866Y-104585333D01*
X125021200Y-104652000D01*
X125021200Y-104818666D01*
X124987866Y-104885333D01*
X124954533Y-104918666D01*
X124887866Y-104952000D01*
X124754533Y-104952000D01*
X124687866Y-104918666D01*
X124654533Y-104885333D01*
X124621200Y-104818666D01*
%TO.C,R27*%
X145886400Y-122693866D02*
X146119733Y-122360533D01*
X146286400Y-122693866D02*
X146286400Y-121993866D01*
X146019733Y-121993866D01*
X145953066Y-122027200D01*
X145919733Y-122060533D01*
X145886400Y-122127200D01*
X145886400Y-122227200D01*
X145919733Y-122293866D01*
X145953066Y-122327200D01*
X146019733Y-122360533D01*
X146286400Y-122360533D01*
X145619733Y-122060533D02*
X145586400Y-122027200D01*
X145519733Y-121993866D01*
X145353066Y-121993866D01*
X145286400Y-122027200D01*
X145253066Y-122060533D01*
X145219733Y-122127200D01*
X145219733Y-122193866D01*
X145253066Y-122293866D01*
X145653066Y-122693866D01*
X145219733Y-122693866D01*
X144986400Y-121993866D02*
X144519733Y-121993866D01*
X144819733Y-122693866D01*
%TO.C,C8*%
X125287866Y-106066400D02*
X125321200Y-106099733D01*
X125421200Y-106133066D01*
X125487866Y-106133066D01*
X125587866Y-106099733D01*
X125654533Y-106033066D01*
X125687866Y-105966400D01*
X125721200Y-105833066D01*
X125721200Y-105733066D01*
X125687866Y-105599733D01*
X125654533Y-105533066D01*
X125587866Y-105466400D01*
X125487866Y-105433066D01*
X125421200Y-105433066D01*
X125321200Y-105466400D01*
X125287866Y-105499733D01*
X124887866Y-105733066D02*
X124954533Y-105699733D01*
X124987866Y-105666400D01*
X125021200Y-105599733D01*
X125021200Y-105566400D01*
X124987866Y-105499733D01*
X124954533Y-105466400D01*
X124887866Y-105433066D01*
X124754533Y-105433066D01*
X124687866Y-105466400D01*
X124654533Y-105499733D01*
X124621200Y-105566400D01*
X124621200Y-105599733D01*
X124654533Y-105666400D01*
X124687866Y-105699733D01*
X124754533Y-105733066D01*
X124887866Y-105733066D01*
X124954533Y-105766400D01*
X124987866Y-105799733D01*
X125021200Y-105866400D01*
X125021200Y-105999733D01*
X124987866Y-106066400D01*
X124954533Y-106099733D01*
X124887866Y-106133066D01*
X124754533Y-106133066D01*
X124687866Y-106099733D01*
X124654533Y-106066400D01*
X124621200Y-105999733D01*
X124621200Y-105866400D01*
X124654533Y-105799733D01*
X124687866Y-105766400D01*
X124754533Y-105733066D01*
%TO.C,R16*%
X107942800Y-111060666D02*
X108176133Y-110727333D01*
X108342800Y-111060666D02*
X108342800Y-110360666D01*
X108076133Y-110360666D01*
X108009466Y-110394000D01*
X107976133Y-110427333D01*
X107942800Y-110494000D01*
X107942800Y-110594000D01*
X107976133Y-110660666D01*
X108009466Y-110694000D01*
X108076133Y-110727333D01*
X108342800Y-110727333D01*
X107276133Y-111060666D02*
X107676133Y-111060666D01*
X107476133Y-111060666D02*
X107476133Y-110360666D01*
X107542800Y-110460666D01*
X107609466Y-110527333D01*
X107676133Y-110560666D01*
X106676133Y-110360666D02*
X106809466Y-110360666D01*
X106876133Y-110394000D01*
X106909466Y-110427333D01*
X106976133Y-110527333D01*
X107009466Y-110660666D01*
X107009466Y-110927333D01*
X106976133Y-110994000D01*
X106942800Y-111027333D01*
X106876133Y-111060666D01*
X106742800Y-111060666D01*
X106676133Y-111027333D01*
X106642800Y-110994000D01*
X106609466Y-110927333D01*
X106609466Y-110760666D01*
X106642800Y-110694000D01*
X106676133Y-110660666D01*
X106742800Y-110627333D01*
X106876133Y-110627333D01*
X106942800Y-110660666D01*
X106976133Y-110694000D01*
X107009466Y-110760666D01*
%TO.C,U12*%
X134592266Y-121612133D02*
X135158933Y-121612133D01*
X135225600Y-121645466D01*
X135258933Y-121678800D01*
X135292266Y-121745466D01*
X135292266Y-121878800D01*
X135258933Y-121945466D01*
X135225600Y-121978800D01*
X135158933Y-122012133D01*
X134592266Y-122012133D01*
X135292266Y-122712133D02*
X135292266Y-122312133D01*
X135292266Y-122512133D02*
X134592266Y-122512133D01*
X134692266Y-122445466D01*
X134758933Y-122378800D01*
X134792266Y-122312133D01*
X134658933Y-122978800D02*
X134625600Y-123012133D01*
X134592266Y-123078800D01*
X134592266Y-123245466D01*
X134625600Y-123312133D01*
X134658933Y-123345466D01*
X134725600Y-123378800D01*
X134792266Y-123378800D01*
X134892266Y-123345466D01*
X135292266Y-122945466D01*
X135292266Y-123378800D01*
%TO.C,R22*%
X104031200Y-119747466D02*
X104264533Y-119414133D01*
X104431200Y-119747466D02*
X104431200Y-119047466D01*
X104164533Y-119047466D01*
X104097866Y-119080800D01*
X104064533Y-119114133D01*
X104031200Y-119180800D01*
X104031200Y-119280800D01*
X104064533Y-119347466D01*
X104097866Y-119380800D01*
X104164533Y-119414133D01*
X104431200Y-119414133D01*
X103764533Y-119114133D02*
X103731200Y-119080800D01*
X103664533Y-119047466D01*
X103497866Y-119047466D01*
X103431200Y-119080800D01*
X103397866Y-119114133D01*
X103364533Y-119180800D01*
X103364533Y-119247466D01*
X103397866Y-119347466D01*
X103797866Y-119747466D01*
X103364533Y-119747466D01*
X103097866Y-119114133D02*
X103064533Y-119080800D01*
X102997866Y-119047466D01*
X102831200Y-119047466D01*
X102764533Y-119080800D01*
X102731200Y-119114133D01*
X102697866Y-119180800D01*
X102697866Y-119247466D01*
X102731200Y-119347466D01*
X103131200Y-119747466D01*
X102697866Y-119747466D01*
%TO.C,U14*%
X124787866Y-115516133D02*
X125354533Y-115516133D01*
X125421200Y-115549466D01*
X125454533Y-115582800D01*
X125487866Y-115649466D01*
X125487866Y-115782800D01*
X125454533Y-115849466D01*
X125421200Y-115882800D01*
X125354533Y-115916133D01*
X124787866Y-115916133D01*
X125487866Y-116616133D02*
X125487866Y-116216133D01*
X125487866Y-116416133D02*
X124787866Y-116416133D01*
X124887866Y-116349466D01*
X124954533Y-116282800D01*
X124987866Y-116216133D01*
X125021200Y-117216133D02*
X125487866Y-117216133D01*
X124754533Y-117049466D02*
X125254533Y-116882800D01*
X125254533Y-117316133D01*
%TO.C,R3*%
X136333866Y-98868666D02*
X136567200Y-98535333D01*
X136733866Y-98868666D02*
X136733866Y-98168666D01*
X136467200Y-98168666D01*
X136400533Y-98202000D01*
X136367200Y-98235333D01*
X136333866Y-98302000D01*
X136333866Y-98402000D01*
X136367200Y-98468666D01*
X136400533Y-98502000D01*
X136467200Y-98535333D01*
X136733866Y-98535333D01*
X136100533Y-98168666D02*
X135667200Y-98168666D01*
X135900533Y-98435333D01*
X135800533Y-98435333D01*
X135733866Y-98468666D01*
X135700533Y-98502000D01*
X135667200Y-98568666D01*
X135667200Y-98735333D01*
X135700533Y-98802000D01*
X135733866Y-98835333D01*
X135800533Y-98868666D01*
X136000533Y-98868666D01*
X136067200Y-98835333D01*
X136100533Y-98802000D01*
%TO.C,D5*%
X106028266Y-101611866D02*
X106028266Y-100911866D01*
X105861600Y-100911866D01*
X105761600Y-100945200D01*
X105694933Y-101011866D01*
X105661600Y-101078533D01*
X105628266Y-101211866D01*
X105628266Y-101311866D01*
X105661600Y-101445200D01*
X105694933Y-101511866D01*
X105761600Y-101578533D01*
X105861600Y-101611866D01*
X106028266Y-101611866D01*
X104994933Y-100911866D02*
X105328266Y-100911866D01*
X105361600Y-101245200D01*
X105328266Y-101211866D01*
X105261600Y-101178533D01*
X105094933Y-101178533D01*
X105028266Y-101211866D01*
X104994933Y-101245200D01*
X104961600Y-101311866D01*
X104961600Y-101478533D01*
X104994933Y-101545200D01*
X105028266Y-101578533D01*
X105094933Y-101611866D01*
X105261600Y-101611866D01*
X105328266Y-101578533D01*
X105361600Y-101545200D01*
%TO.C,FB1*%
X128169200Y-110668666D02*
X128169200Y-110435333D01*
X128535866Y-110435333D02*
X127835866Y-110435333D01*
X127835866Y-110768666D01*
X128169200Y-111268666D02*
X128202533Y-111368666D01*
X128235866Y-111402000D01*
X128302533Y-111435333D01*
X128402533Y-111435333D01*
X128469200Y-111402000D01*
X128502533Y-111368666D01*
X128535866Y-111302000D01*
X128535866Y-111035333D01*
X127835866Y-111035333D01*
X127835866Y-111268666D01*
X127869200Y-111335333D01*
X127902533Y-111368666D01*
X127969200Y-111402000D01*
X128035866Y-111402000D01*
X128102533Y-111368666D01*
X128135866Y-111335333D01*
X128169200Y-111268666D01*
X128169200Y-111035333D01*
X128535866Y-112102000D02*
X128535866Y-111702000D01*
X128535866Y-111902000D02*
X127835866Y-111902000D01*
X127935866Y-111835333D01*
X128002533Y-111768666D01*
X128035866Y-111702000D01*
%TO.C,C1*%
X140070666Y-98344800D02*
X140104000Y-98378133D01*
X140204000Y-98411466D01*
X140270666Y-98411466D01*
X140370666Y-98378133D01*
X140437333Y-98311466D01*
X140470666Y-98244800D01*
X140504000Y-98111466D01*
X140504000Y-98011466D01*
X140470666Y-97878133D01*
X140437333Y-97811466D01*
X140370666Y-97744800D01*
X140270666Y-97711466D01*
X140204000Y-97711466D01*
X140104000Y-97744800D01*
X140070666Y-97778133D01*
X139404000Y-98411466D02*
X139804000Y-98411466D01*
X139604000Y-98411466D02*
X139604000Y-97711466D01*
X139670666Y-97811466D01*
X139737333Y-97878133D01*
X139804000Y-97911466D01*
%TO.C,R23*%
X104031200Y-118782266D02*
X104264533Y-118448933D01*
X104431200Y-118782266D02*
X104431200Y-118082266D01*
X104164533Y-118082266D01*
X104097866Y-118115600D01*
X104064533Y-118148933D01*
X104031200Y-118215600D01*
X104031200Y-118315600D01*
X104064533Y-118382266D01*
X104097866Y-118415600D01*
X104164533Y-118448933D01*
X104431200Y-118448933D01*
X103764533Y-118148933D02*
X103731200Y-118115600D01*
X103664533Y-118082266D01*
X103497866Y-118082266D01*
X103431200Y-118115600D01*
X103397866Y-118148933D01*
X103364533Y-118215600D01*
X103364533Y-118282266D01*
X103397866Y-118382266D01*
X103797866Y-118782266D01*
X103364533Y-118782266D01*
X103131200Y-118082266D02*
X102697866Y-118082266D01*
X102931200Y-118348933D01*
X102831200Y-118348933D01*
X102764533Y-118382266D01*
X102731200Y-118415600D01*
X102697866Y-118482266D01*
X102697866Y-118648933D01*
X102731200Y-118715600D01*
X102764533Y-118748933D01*
X102831200Y-118782266D01*
X103031200Y-118782266D01*
X103097866Y-118748933D01*
X103131200Y-118715600D01*
%TO.C,C30*%
X125519600Y-109571600D02*
X125552933Y-109604933D01*
X125652933Y-109638266D01*
X125719600Y-109638266D01*
X125819600Y-109604933D01*
X125886266Y-109538266D01*
X125919600Y-109471600D01*
X125952933Y-109338266D01*
X125952933Y-109238266D01*
X125919600Y-109104933D01*
X125886266Y-109038266D01*
X125819600Y-108971600D01*
X125719600Y-108938266D01*
X125652933Y-108938266D01*
X125552933Y-108971600D01*
X125519600Y-109004933D01*
X125286266Y-108938266D02*
X124852933Y-108938266D01*
X125086266Y-109204933D01*
X124986266Y-109204933D01*
X124919600Y-109238266D01*
X124886266Y-109271600D01*
X124852933Y-109338266D01*
X124852933Y-109504933D01*
X124886266Y-109571600D01*
X124919600Y-109604933D01*
X124986266Y-109638266D01*
X125186266Y-109638266D01*
X125252933Y-109604933D01*
X125286266Y-109571600D01*
X124419600Y-108938266D02*
X124352933Y-108938266D01*
X124286266Y-108971600D01*
X124252933Y-109004933D01*
X124219600Y-109071600D01*
X124186266Y-109204933D01*
X124186266Y-109371600D01*
X124219600Y-109504933D01*
X124252933Y-109571600D01*
X124286266Y-109604933D01*
X124352933Y-109638266D01*
X124419600Y-109638266D01*
X124486266Y-109604933D01*
X124519600Y-109571600D01*
X124552933Y-109504933D01*
X124586266Y-109371600D01*
X124586266Y-109204933D01*
X124552933Y-109071600D01*
X124519600Y-109004933D01*
X124486266Y-108971600D01*
X124419600Y-108938266D01*
%TO.C,R19*%
X134714400Y-116699466D02*
X134947733Y-116366133D01*
X135114400Y-116699466D02*
X135114400Y-115999466D01*
X134847733Y-115999466D01*
X134781066Y-116032800D01*
X134747733Y-116066133D01*
X134714400Y-116132800D01*
X134714400Y-116232800D01*
X134747733Y-116299466D01*
X134781066Y-116332800D01*
X134847733Y-116366133D01*
X135114400Y-116366133D01*
X134047733Y-116699466D02*
X134447733Y-116699466D01*
X134247733Y-116699466D02*
X134247733Y-115999466D01*
X134314400Y-116099466D01*
X134381066Y-116166133D01*
X134447733Y-116199466D01*
X133714400Y-116699466D02*
X133581066Y-116699466D01*
X133514400Y-116666133D01*
X133481066Y-116632800D01*
X133414400Y-116532800D01*
X133381066Y-116399466D01*
X133381066Y-116132800D01*
X133414400Y-116066133D01*
X133447733Y-116032800D01*
X133514400Y-115999466D01*
X133647733Y-115999466D01*
X133714400Y-116032800D01*
X133747733Y-116066133D01*
X133781066Y-116132800D01*
X133781066Y-116299466D01*
X133747733Y-116366133D01*
X133714400Y-116399466D01*
X133647733Y-116432800D01*
X133514400Y-116432800D01*
X133447733Y-116399466D01*
X133414400Y-116366133D01*
X133381066Y-116299466D01*
%TO.C,R26*%
X145888400Y-125437066D02*
X146121733Y-125103733D01*
X146288400Y-125437066D02*
X146288400Y-124737066D01*
X146021733Y-124737066D01*
X145955066Y-124770400D01*
X145921733Y-124803733D01*
X145888400Y-124870400D01*
X145888400Y-124970400D01*
X145921733Y-125037066D01*
X145955066Y-125070400D01*
X146021733Y-125103733D01*
X146288400Y-125103733D01*
X145621733Y-124803733D02*
X145588400Y-124770400D01*
X145521733Y-124737066D01*
X145355066Y-124737066D01*
X145288400Y-124770400D01*
X145255066Y-124803733D01*
X145221733Y-124870400D01*
X145221733Y-124937066D01*
X145255066Y-125037066D01*
X145655066Y-125437066D01*
X145221733Y-125437066D01*
X144621733Y-124737066D02*
X144755066Y-124737066D01*
X144821733Y-124770400D01*
X144855066Y-124803733D01*
X144921733Y-124903733D01*
X144955066Y-125037066D01*
X144955066Y-125303733D01*
X144921733Y-125370400D01*
X144888400Y-125403733D01*
X144821733Y-125437066D01*
X144688400Y-125437066D01*
X144621733Y-125403733D01*
X144588400Y-125370400D01*
X144555066Y-125303733D01*
X144555066Y-125137066D01*
X144588400Y-125070400D01*
X144621733Y-125037066D01*
X144688400Y-125003733D01*
X144821733Y-125003733D01*
X144888400Y-125037066D01*
X144921733Y-125070400D01*
X144955066Y-125137066D01*
%TO.C,U2*%
X129616133Y-106195066D02*
X129616133Y-106761733D01*
X129582800Y-106828400D01*
X129549466Y-106861733D01*
X129482800Y-106895066D01*
X129349466Y-106895066D01*
X129282800Y-106861733D01*
X129249466Y-106828400D01*
X129216133Y-106761733D01*
X129216133Y-106195066D01*
X128916133Y-106261733D02*
X128882800Y-106228400D01*
X128816133Y-106195066D01*
X128649466Y-106195066D01*
X128582800Y-106228400D01*
X128549466Y-106261733D01*
X128516133Y-106328400D01*
X128516133Y-106395066D01*
X128549466Y-106495066D01*
X128949466Y-106895066D01*
X128516133Y-106895066D01*
%TO.C,R18*%
X110330400Y-100545066D02*
X110563733Y-100211733D01*
X110730400Y-100545066D02*
X110730400Y-99845066D01*
X110463733Y-99845066D01*
X110397066Y-99878400D01*
X110363733Y-99911733D01*
X110330400Y-99978400D01*
X110330400Y-100078400D01*
X110363733Y-100145066D01*
X110397066Y-100178400D01*
X110463733Y-100211733D01*
X110730400Y-100211733D01*
X109663733Y-100545066D02*
X110063733Y-100545066D01*
X109863733Y-100545066D02*
X109863733Y-99845066D01*
X109930400Y-99945066D01*
X109997066Y-100011733D01*
X110063733Y-100045066D01*
X109263733Y-100145066D02*
X109330400Y-100111733D01*
X109363733Y-100078400D01*
X109397066Y-100011733D01*
X109397066Y-99978400D01*
X109363733Y-99911733D01*
X109330400Y-99878400D01*
X109263733Y-99845066D01*
X109130400Y-99845066D01*
X109063733Y-99878400D01*
X109030400Y-99911733D01*
X108997066Y-99978400D01*
X108997066Y-100011733D01*
X109030400Y-100078400D01*
X109063733Y-100111733D01*
X109130400Y-100145066D01*
X109263733Y-100145066D01*
X109330400Y-100178400D01*
X109363733Y-100211733D01*
X109397066Y-100278400D01*
X109397066Y-100411733D01*
X109363733Y-100478400D01*
X109330400Y-100511733D01*
X109263733Y-100545066D01*
X109130400Y-100545066D01*
X109063733Y-100511733D01*
X109030400Y-100478400D01*
X108997066Y-100411733D01*
X108997066Y-100278400D01*
X109030400Y-100211733D01*
X109063733Y-100178400D01*
X109130400Y-100145066D01*
%TO.C,U6*%
X111734533Y-102385066D02*
X111734533Y-102951733D01*
X111701200Y-103018400D01*
X111667866Y-103051733D01*
X111601200Y-103085066D01*
X111467866Y-103085066D01*
X111401200Y-103051733D01*
X111367866Y-103018400D01*
X111334533Y-102951733D01*
X111334533Y-102385066D01*
X110701200Y-102385066D02*
X110834533Y-102385066D01*
X110901200Y-102418400D01*
X110934533Y-102451733D01*
X111001200Y-102551733D01*
X111034533Y-102685066D01*
X111034533Y-102951733D01*
X111001200Y-103018400D01*
X110967866Y-103051733D01*
X110901200Y-103085066D01*
X110767866Y-103085066D01*
X110701200Y-103051733D01*
X110667866Y-103018400D01*
X110634533Y-102951733D01*
X110634533Y-102785066D01*
X110667866Y-102718400D01*
X110701200Y-102685066D01*
X110767866Y-102651733D01*
X110901200Y-102651733D01*
X110967866Y-102685066D01*
X111001200Y-102718400D01*
X111034533Y-102785066D01*
%TO.C,C36*%
X118966400Y-119274400D02*
X118999733Y-119307733D01*
X119099733Y-119341066D01*
X119166400Y-119341066D01*
X119266400Y-119307733D01*
X119333066Y-119241066D01*
X119366400Y-119174400D01*
X119399733Y-119041066D01*
X119399733Y-118941066D01*
X119366400Y-118807733D01*
X119333066Y-118741066D01*
X119266400Y-118674400D01*
X119166400Y-118641066D01*
X119099733Y-118641066D01*
X118999733Y-118674400D01*
X118966400Y-118707733D01*
X118733066Y-118641066D02*
X118299733Y-118641066D01*
X118533066Y-118907733D01*
X118433066Y-118907733D01*
X118366400Y-118941066D01*
X118333066Y-118974400D01*
X118299733Y-119041066D01*
X118299733Y-119207733D01*
X118333066Y-119274400D01*
X118366400Y-119307733D01*
X118433066Y-119341066D01*
X118633066Y-119341066D01*
X118699733Y-119307733D01*
X118733066Y-119274400D01*
X117699733Y-118641066D02*
X117833066Y-118641066D01*
X117899733Y-118674400D01*
X117933066Y-118707733D01*
X117999733Y-118807733D01*
X118033066Y-118941066D01*
X118033066Y-119207733D01*
X117999733Y-119274400D01*
X117966400Y-119307733D01*
X117899733Y-119341066D01*
X117766400Y-119341066D01*
X117699733Y-119307733D01*
X117666400Y-119274400D01*
X117633066Y-119207733D01*
X117633066Y-119041066D01*
X117666400Y-118974400D01*
X117699733Y-118941066D01*
X117766400Y-118907733D01*
X117899733Y-118907733D01*
X117966400Y-118941066D01*
X117999733Y-118974400D01*
X118033066Y-119041066D01*
%TO.C,D7*%
X146007866Y-131228266D02*
X146007866Y-130528266D01*
X145841200Y-130528266D01*
X145741200Y-130561600D01*
X145674533Y-130628266D01*
X145641200Y-130694933D01*
X145607866Y-130828266D01*
X145607866Y-130928266D01*
X145641200Y-131061600D01*
X145674533Y-131128266D01*
X145741200Y-131194933D01*
X145841200Y-131228266D01*
X146007866Y-131228266D01*
X145374533Y-130528266D02*
X144907866Y-130528266D01*
X145207866Y-131228266D01*
%TO.C,R24*%
X133698400Y-128535866D02*
X133931733Y-128202533D01*
X134098400Y-128535866D02*
X134098400Y-127835866D01*
X133831733Y-127835866D01*
X133765066Y-127869200D01*
X133731733Y-127902533D01*
X133698400Y-127969200D01*
X133698400Y-128069200D01*
X133731733Y-128135866D01*
X133765066Y-128169200D01*
X133831733Y-128202533D01*
X134098400Y-128202533D01*
X133431733Y-127902533D02*
X133398400Y-127869200D01*
X133331733Y-127835866D01*
X133165066Y-127835866D01*
X133098400Y-127869200D01*
X133065066Y-127902533D01*
X133031733Y-127969200D01*
X133031733Y-128035866D01*
X133065066Y-128135866D01*
X133465066Y-128535866D01*
X133031733Y-128535866D01*
X132431733Y-128069200D02*
X132431733Y-128535866D01*
X132598400Y-127802533D02*
X132765066Y-128302533D01*
X132331733Y-128302533D01*
%TO.C,R17*%
X136187600Y-120458666D02*
X136420933Y-120125333D01*
X136587600Y-120458666D02*
X136587600Y-119758666D01*
X136320933Y-119758666D01*
X136254266Y-119792000D01*
X136220933Y-119825333D01*
X136187600Y-119892000D01*
X136187600Y-119992000D01*
X136220933Y-120058666D01*
X136254266Y-120092000D01*
X136320933Y-120125333D01*
X136587600Y-120125333D01*
X135520933Y-120458666D02*
X135920933Y-120458666D01*
X135720933Y-120458666D02*
X135720933Y-119758666D01*
X135787600Y-119858666D01*
X135854266Y-119925333D01*
X135920933Y-119958666D01*
X135287600Y-119758666D02*
X134820933Y-119758666D01*
X135120933Y-120458666D01*
%TO.C,U8*%
X138404533Y-119606266D02*
X138404533Y-120172933D01*
X138371200Y-120239600D01*
X138337866Y-120272933D01*
X138271200Y-120306266D01*
X138137866Y-120306266D01*
X138071200Y-120272933D01*
X138037866Y-120239600D01*
X138004533Y-120172933D01*
X138004533Y-119606266D01*
X137571200Y-119906266D02*
X137637866Y-119872933D01*
X137671200Y-119839600D01*
X137704533Y-119772933D01*
X137704533Y-119739600D01*
X137671200Y-119672933D01*
X137637866Y-119639600D01*
X137571200Y-119606266D01*
X137437866Y-119606266D01*
X137371200Y-119639600D01*
X137337866Y-119672933D01*
X137304533Y-119739600D01*
X137304533Y-119772933D01*
X137337866Y-119839600D01*
X137371200Y-119872933D01*
X137437866Y-119906266D01*
X137571200Y-119906266D01*
X137637866Y-119939600D01*
X137671200Y-119972933D01*
X137704533Y-120039600D01*
X137704533Y-120172933D01*
X137671200Y-120239600D01*
X137637866Y-120272933D01*
X137571200Y-120306266D01*
X137437866Y-120306266D01*
X137371200Y-120272933D01*
X137337866Y-120239600D01*
X137304533Y-120172933D01*
X137304533Y-120039600D01*
X137337866Y-119972933D01*
X137371200Y-119939600D01*
X137437866Y-119906266D01*
%TO.C,C7*%
X133415866Y-101392800D02*
X133449200Y-101426133D01*
X133549200Y-101459466D01*
X133615866Y-101459466D01*
X133715866Y-101426133D01*
X133782533Y-101359466D01*
X133815866Y-101292800D01*
X133849200Y-101159466D01*
X133849200Y-101059466D01*
X133815866Y-100926133D01*
X133782533Y-100859466D01*
X133715866Y-100792800D01*
X133615866Y-100759466D01*
X133549200Y-100759466D01*
X133449200Y-100792800D01*
X133415866Y-100826133D01*
X133182533Y-100759466D02*
X132715866Y-100759466D01*
X133015866Y-101459466D01*
%TO.C,D4*%
X108009466Y-112229066D02*
X108009466Y-111529066D01*
X107842800Y-111529066D01*
X107742800Y-111562400D01*
X107676133Y-111629066D01*
X107642800Y-111695733D01*
X107609466Y-111829066D01*
X107609466Y-111929066D01*
X107642800Y-112062400D01*
X107676133Y-112129066D01*
X107742800Y-112195733D01*
X107842800Y-112229066D01*
X108009466Y-112229066D01*
X107009466Y-111762400D02*
X107009466Y-112229066D01*
X107176133Y-111495733D02*
X107342800Y-111995733D01*
X106909466Y-111995733D01*
%TO.C,kibuzzard-62F0BBF4*%
G36*
X118464330Y-97612200D02*
G01*
X119889270Y-97612200D01*
X119889270Y-98882200D01*
X118464330Y-98882200D01*
X118464330Y-98190050D01*
X118623080Y-98190050D01*
X118625064Y-98287403D01*
X118631017Y-98373724D01*
X118640939Y-98449011D01*
X118654830Y-98513265D01*
X118693724Y-98612960D01*
X118746905Y-98677095D01*
X118817549Y-98711861D01*
X118908830Y-98723450D01*
X118989793Y-98717100D01*
X119015722Y-98710750D01*
X119273320Y-98710750D01*
X119730520Y-98710750D01*
X119730520Y-98600260D01*
X119648981Y-98505477D01*
X119579986Y-98414892D01*
X119523536Y-98328506D01*
X119479630Y-98246319D01*
X119448269Y-98168330D01*
X119429452Y-98094541D01*
X119423180Y-98024950D01*
X119430006Y-97960180D01*
X119450485Y-97915730D01*
X119533670Y-97881440D01*
X119593360Y-97889766D01*
X119658977Y-97914742D01*
X119730520Y-97956370D01*
X119730520Y-97836990D01*
X119660247Y-97800301D01*
X119584893Y-97778288D01*
X119504460Y-97770950D01*
X119408099Y-97786666D01*
X119337455Y-97833815D01*
X119294116Y-97911444D01*
X119279670Y-98018600D01*
X119287643Y-98099033D01*
X119311561Y-98184547D01*
X119351425Y-98275140D01*
X119392819Y-98347689D01*
X119445246Y-98425635D01*
X119508707Y-98508979D01*
X119583200Y-98597720D01*
X119583200Y-98600260D01*
X119273320Y-98600260D01*
X119273320Y-98710750D01*
X119015722Y-98710750D01*
X119067580Y-98698050D01*
X119067580Y-98577400D01*
X118997730Y-98604070D01*
X118925340Y-98612960D01*
X118855331Y-98599308D01*
X118807865Y-98558350D01*
X118787051Y-98510796D01*
X118772869Y-98440946D01*
X118765320Y-98348800D01*
X118769130Y-98348800D01*
X118834218Y-98389758D01*
X118905020Y-98403410D01*
X119000746Y-98384836D01*
X119069485Y-98329115D01*
X119100177Y-98269072D01*
X119118592Y-98188004D01*
X119124730Y-98085910D01*
X119117886Y-97986497D01*
X119097354Y-97906699D01*
X119063135Y-97846515D01*
X119014804Y-97804534D01*
X118951939Y-97779346D01*
X118874540Y-97770950D01*
X118790720Y-97780687D01*
X118725527Y-97809897D01*
X118678960Y-97858580D01*
X118654512Y-97912158D01*
X118637050Y-97985262D01*
X118626572Y-98077893D01*
X118623080Y-98190050D01*
X118464330Y-98190050D01*
X118464330Y-97612200D01*
G37*
G36*
X118925657Y-97891124D02*
G01*
X118959630Y-97923985D01*
X118978680Y-97986374D01*
X118985030Y-98085910D01*
X118978839Y-98186558D01*
X118960265Y-98249740D01*
X118927721Y-98283078D01*
X118879620Y-98294190D01*
X118829614Y-98281490D01*
X118793895Y-98243390D01*
X118772464Y-98179890D01*
X118765320Y-98090990D01*
X118771987Y-97991613D01*
X118791990Y-97927160D01*
X118825962Y-97891918D01*
X118874540Y-97880170D01*
X118925657Y-97891124D01*
G37*
%TO.C,C12*%
X129893600Y-101194780D02*
X129893600Y-100913620D01*
X130913600Y-101194780D02*
X130913600Y-100913620D01*
%TO.C,kibuzzard-62BD8C64*%
G36*
X112580420Y-118618000D02*
G01*
X112815793Y-118264940D01*
X113056670Y-118264940D01*
X113245900Y-118264940D01*
X113245900Y-119081550D01*
X113388140Y-119081550D01*
X113388140Y-118840250D01*
X113698020Y-118840250D01*
X113708942Y-118931690D01*
X113741708Y-119002810D01*
X113796318Y-119053610D01*
X113872772Y-119084090D01*
X113971070Y-119094250D01*
X114049810Y-119087477D01*
X114070802Y-119081550D01*
X114298730Y-119081550D01*
X114444780Y-119081550D01*
X114518440Y-118814850D01*
X114539236Y-118757224D01*
X114563525Y-118721505D01*
X114640360Y-118696740D01*
X114689890Y-118696740D01*
X114689890Y-119081550D01*
X114832130Y-119081550D01*
X114832130Y-118167150D01*
X114761292Y-118153039D01*
X114689326Y-118144572D01*
X114616230Y-118141750D01*
X114524437Y-118149158D01*
X114450566Y-118171383D01*
X114394615Y-118208425D01*
X114355457Y-118261412D01*
X114331962Y-118331474D01*
X114324130Y-118418610D01*
X114333020Y-118501636D01*
X114359690Y-118569105D01*
X114404140Y-118621016D01*
X114466370Y-118657370D01*
X114466370Y-118659910D01*
X114418110Y-118722775D01*
X114377470Y-118822470D01*
X114298730Y-119081550D01*
X114070802Y-119081550D01*
X114121777Y-119067157D01*
X114186970Y-119033290D01*
X114186970Y-118901210D01*
X114119942Y-118947071D01*
X114049246Y-118974588D01*
X113974880Y-118983760D01*
X113918365Y-118975029D01*
X113875820Y-118948835D01*
X113849150Y-118905814D01*
X113840260Y-118846600D01*
X113847086Y-118790085D01*
X113867565Y-118745000D01*
X113903919Y-118707853D01*
X113958370Y-118675150D01*
X114036193Y-118634510D01*
X114096941Y-118592177D01*
X114140615Y-118548150D01*
X114180144Y-118473220D01*
X114193320Y-118383050D01*
X114176651Y-118281450D01*
X114126645Y-118205250D01*
X114075916Y-118169972D01*
X114012627Y-118148806D01*
X113936780Y-118141750D01*
X113862838Y-118145983D01*
X113791718Y-118158683D01*
X113723420Y-118179850D01*
X113723420Y-118306850D01*
X113821527Y-118265892D01*
X113920270Y-118252240D01*
X113975832Y-118260495D01*
X114018060Y-118285260D01*
X114044730Y-118324630D01*
X114053620Y-118376700D01*
X114042331Y-118441188D01*
X114008464Y-118492411D01*
X113952020Y-118530370D01*
X113865519Y-118573973D01*
X113799056Y-118618423D01*
X113752630Y-118663720D01*
X113711672Y-118742143D01*
X113698020Y-118840250D01*
X113388140Y-118840250D01*
X113388140Y-118264940D01*
X113577370Y-118264940D01*
X113577370Y-118154450D01*
X113056670Y-118154450D01*
X113056670Y-118264940D01*
X112815793Y-118264940D01*
X113003753Y-117983000D01*
X114885047Y-117983000D01*
X115308380Y-118618000D01*
X114885047Y-119253000D01*
X113003753Y-119253000D01*
X112580420Y-118618000D01*
G37*
G36*
X114689890Y-118262400D02*
G01*
X114689890Y-118586250D01*
X114640360Y-118586250D01*
X114557810Y-118576725D01*
X114503200Y-118548150D01*
X114472720Y-118496715D01*
X114462560Y-118418610D01*
X114472085Y-118343839D01*
X114500660Y-118292245D01*
X114548603Y-118262241D01*
X114616230Y-118252240D01*
X114689890Y-118262400D01*
G37*
%TO.C,C5*%
X129944400Y-107911020D02*
X129944400Y-108192180D01*
X130964400Y-107911020D02*
X130964400Y-108192180D01*
%TO.C,U1*%
X135969200Y-103007600D02*
X136769200Y-103007600D01*
X135969200Y-99887600D02*
X136769200Y-99887600D01*
X135969200Y-99887600D02*
X135169200Y-99887600D01*
X135969200Y-103007600D02*
X134169200Y-103007600D01*
%TO.C,kibuzzard-62BD8A5E*%
G36*
X108829971Y-115604925D02*
G01*
X110829229Y-115604925D01*
X110829229Y-117160675D01*
X108829971Y-117160675D01*
X108829971Y-116962237D01*
X109602588Y-116962237D01*
X109780388Y-116962237D01*
X109780388Y-115970050D01*
X109783563Y-115968462D01*
X110056613Y-116120862D01*
X110056613Y-115965287D01*
X109778800Y-115803363D01*
X109602588Y-115803363D01*
X109602588Y-116962237D01*
X108829971Y-116962237D01*
X108829971Y-115604925D01*
G37*
%TO.C,U13*%
X120006800Y-117265600D02*
X119106800Y-117265600D01*
X123426800Y-117265600D02*
X124326800Y-117265600D01*
X124326800Y-117265600D02*
X124326800Y-116365600D01*
X119106800Y-112045600D02*
X119106800Y-112945600D01*
X123426800Y-112045600D02*
X124326800Y-112045600D01*
X119106800Y-117265600D02*
X119106800Y-116365600D01*
X120006800Y-112045600D02*
X119106800Y-112045600D01*
%TO.C,R25*%
X143612841Y-124586000D02*
X143305559Y-124586000D01*
X143612841Y-123826000D02*
X143305559Y-123826000D01*
%TO.C,R13*%
X107821759Y-101497400D02*
X108129041Y-101497400D01*
X107821759Y-100737400D02*
X108129041Y-100737400D01*
%TO.C,C27*%
X143565036Y-123651600D02*
X143349364Y-123651600D01*
X143565036Y-122931600D02*
X143349364Y-122931600D01*
%TO.C,R28*%
X133094759Y-124687600D02*
X133402041Y-124687600D01*
X133094759Y-123927600D02*
X133402041Y-123927600D01*
%TO.C,kibuzzard-62BD8846*%
G36*
X125681105Y-99898200D02*
G01*
X127099695Y-99898200D01*
X127099695Y-101168200D01*
X125681105Y-101168200D01*
X125681105Y-100702110D01*
X125839855Y-100702110D01*
X125847193Y-100801734D01*
X125869206Y-100880474D01*
X125905895Y-100938330D01*
X125958529Y-100977841D01*
X126028379Y-101001548D01*
X126115445Y-101009450D01*
X126209742Y-100999925D01*
X126219443Y-100996750D01*
X126483745Y-100996750D01*
X126940945Y-100996750D01*
X126940945Y-100886260D01*
X126859406Y-100791477D01*
X126790411Y-100700892D01*
X126733961Y-100614506D01*
X126690055Y-100532319D01*
X126658694Y-100454330D01*
X126639877Y-100380541D01*
X126633605Y-100310950D01*
X126640431Y-100246180D01*
X126660910Y-100201730D01*
X126744095Y-100167440D01*
X126803785Y-100175766D01*
X126869402Y-100200742D01*
X126940945Y-100242370D01*
X126940945Y-100122990D01*
X126870672Y-100086301D01*
X126795318Y-100064288D01*
X126714885Y-100056950D01*
X126618524Y-100072666D01*
X126547880Y-100119815D01*
X126504541Y-100197444D01*
X126490095Y-100304600D01*
X126498068Y-100385033D01*
X126521986Y-100470547D01*
X126561850Y-100561140D01*
X126603244Y-100633689D01*
X126655671Y-100711635D01*
X126719132Y-100794979D01*
X126793625Y-100883720D01*
X126793625Y-100886260D01*
X126483745Y-100886260D01*
X126483745Y-100996750D01*
X126219443Y-100996750D01*
X126297055Y-100971350D01*
X126297055Y-100850700D01*
X126210377Y-100886895D01*
X126125605Y-100898960D01*
X126060835Y-100888006D01*
X126016385Y-100855145D01*
X125990668Y-100794979D01*
X125982095Y-100702110D01*
X125988127Y-100614004D01*
X126006225Y-100555425D01*
X126081155Y-100511610D01*
X126129732Y-100524310D01*
X126173865Y-100562410D01*
X126290705Y-100562410D01*
X126278005Y-100069650D01*
X125865255Y-100069650D01*
X125865255Y-100178870D01*
X126148465Y-100178870D01*
X126157355Y-100435410D01*
X126154815Y-100435410D01*
X126103380Y-100411598D01*
X126043055Y-100403660D01*
X125969903Y-100415598D01*
X125913007Y-100451412D01*
X125872367Y-100511102D01*
X125847983Y-100594668D01*
X125839855Y-100702110D01*
X125681105Y-100702110D01*
X125681105Y-99898200D01*
G37*
%TO.C,kibuzzard-62BD8C8D*%
G36*
X115766215Y-100785930D02*
G01*
X115766215Y-101053900D01*
X115729385Y-101053900D01*
X115654455Y-101045169D01*
X115602385Y-101018975D01*
X115571905Y-100973414D01*
X115561745Y-100906580D01*
X115577408Y-100833908D01*
X115624398Y-100790304D01*
X115702715Y-100775770D01*
X115766215Y-100785930D01*
G37*
G36*
X114465417Y-100796566D02*
G01*
X114510185Y-100855145D01*
X114529235Y-100921820D01*
X114540665Y-101017705D01*
X114544475Y-101142800D01*
X114540665Y-101267895D01*
X114529235Y-101363780D01*
X114510185Y-101430455D01*
X114465417Y-101489034D01*
X114399695Y-101508560D01*
X114333972Y-101489034D01*
X114289205Y-101430455D01*
X114270155Y-101363780D01*
X114258725Y-101267895D01*
X114254915Y-101142800D01*
X114258725Y-101017705D01*
X114270155Y-100921820D01*
X114289205Y-100855145D01*
X114333972Y-100796566D01*
X114399695Y-100777040D01*
X114465417Y-100796566D01*
G37*
G36*
X115766215Y-101499670D02*
G01*
X115695095Y-101509830D01*
X115626356Y-101499511D01*
X115577620Y-101468555D01*
X115548569Y-101415056D01*
X115538885Y-101337110D01*
X115549363Y-101258053D01*
X115580795Y-101203760D01*
X115634770Y-101172327D01*
X115712875Y-101161850D01*
X115766215Y-101161850D01*
X115766215Y-101499670D01*
G37*
G36*
X113028095Y-101142800D02*
G01*
X113263468Y-100789740D01*
X113504345Y-100789740D01*
X113693575Y-100789740D01*
X113693575Y-101606350D01*
X113835815Y-101606350D01*
X113835815Y-101142800D01*
X114120295Y-101142800D01*
X114123752Y-101253996D01*
X114134124Y-101348822D01*
X114151410Y-101427280D01*
X114189669Y-101517133D01*
X114242215Y-101575870D01*
X114311430Y-101608255D01*
X114399695Y-101619050D01*
X114487960Y-101608255D01*
X114557175Y-101575870D01*
X114609721Y-101517133D01*
X114647980Y-101427280D01*
X114665266Y-101348822D01*
X114675638Y-101253996D01*
X114679095Y-101142800D01*
X114755295Y-101142800D01*
X114758752Y-101253996D01*
X114769124Y-101348822D01*
X114786410Y-101427280D01*
X114824669Y-101517133D01*
X114877215Y-101575870D01*
X114946430Y-101608255D01*
X115034695Y-101619050D01*
X115122960Y-101608255D01*
X115192175Y-101575870D01*
X115244721Y-101517133D01*
X115282980Y-101427280D01*
X115300266Y-101348822D01*
X115301269Y-101339650D01*
X115400455Y-101339650D01*
X115408639Y-101425022D01*
X115433193Y-101494872D01*
X115474115Y-101549200D01*
X115531406Y-101588006D01*
X115605066Y-101611289D01*
X115695095Y-101619050D01*
X115767344Y-101616228D01*
X115838464Y-101607761D01*
X115908455Y-101593650D01*
X115908455Y-100691950D01*
X115807490Y-100672900D01*
X115702715Y-100666550D01*
X115603045Y-100675796D01*
X115525525Y-100703532D01*
X115470153Y-100749760D01*
X115436929Y-100814480D01*
X115425855Y-100897690D01*
X115435856Y-100969445D01*
X115465860Y-101029770D01*
X115512374Y-101074855D01*
X115571905Y-101100890D01*
X115571905Y-101102160D01*
X115504436Y-101129148D01*
X115449350Y-101182170D01*
X115412679Y-101254560D01*
X115400455Y-101339650D01*
X115301269Y-101339650D01*
X115310638Y-101253996D01*
X115314095Y-101142800D01*
X115310638Y-101031604D01*
X115300266Y-100936778D01*
X115282980Y-100858320D01*
X115244721Y-100768468D01*
X115192175Y-100709730D01*
X115122960Y-100677345D01*
X115034695Y-100666550D01*
X114946430Y-100677345D01*
X114877215Y-100709730D01*
X114824669Y-100768468D01*
X114786410Y-100858320D01*
X114769124Y-100936778D01*
X114758752Y-101031604D01*
X114755295Y-101142800D01*
X114679095Y-101142800D01*
X114675638Y-101031604D01*
X114665266Y-100936778D01*
X114647980Y-100858320D01*
X114609721Y-100768468D01*
X114557175Y-100709730D01*
X114487960Y-100677345D01*
X114399695Y-100666550D01*
X114311430Y-100677345D01*
X114242215Y-100709730D01*
X114189669Y-100768468D01*
X114151410Y-100858320D01*
X114134124Y-100936778D01*
X114123752Y-101031604D01*
X114120295Y-101142800D01*
X113835815Y-101142800D01*
X113835815Y-100789740D01*
X114025045Y-100789740D01*
X114025045Y-100679250D01*
X113504345Y-100679250D01*
X113504345Y-100789740D01*
X113263468Y-100789740D01*
X113451428Y-100507800D01*
X115961372Y-100507800D01*
X116384705Y-101142800D01*
X115961372Y-101777800D01*
X113451428Y-101777800D01*
X113028095Y-101142800D01*
G37*
G36*
X115100417Y-100796566D02*
G01*
X115145185Y-100855145D01*
X115164235Y-100921820D01*
X115175665Y-101017705D01*
X115179475Y-101142800D01*
X115175665Y-101267895D01*
X115164235Y-101363780D01*
X115145185Y-101430455D01*
X115100417Y-101489034D01*
X115034695Y-101508560D01*
X114968973Y-101489034D01*
X114924205Y-101430455D01*
X114905155Y-101363780D01*
X114893725Y-101267895D01*
X114889915Y-101142800D01*
X114893725Y-101017705D01*
X114905155Y-100921820D01*
X114924205Y-100855145D01*
X114968973Y-100796566D01*
X115034695Y-100777040D01*
X115100417Y-100796566D01*
G37*
%TO.C,C10*%
X131366800Y-101194780D02*
X131366800Y-100913620D01*
X132386800Y-101194780D02*
X132386800Y-100913620D01*
%TO.C,C6*%
X129944400Y-104331380D02*
X129944400Y-104050220D01*
X130964400Y-104331380D02*
X130964400Y-104050220D01*
%TO.C,kibuzzard-62BB2232*%
G36*
X120023255Y-98247200D02*
G01*
X120031722Y-98234500D01*
X120499505Y-98234500D01*
X120503668Y-98349506D01*
X120516156Y-98447296D01*
X120536970Y-98527870D01*
X120582849Y-98619786D01*
X120645555Y-98679635D01*
X120728105Y-98712496D01*
X120833515Y-98723450D01*
X120937337Y-98717100D01*
X120969193Y-98710750D01*
X121175145Y-98710750D01*
X121317385Y-98710750D01*
X121515505Y-98037650D01*
X121518045Y-98037650D01*
X121518045Y-98710750D01*
X121657745Y-98710750D01*
X121657745Y-98679000D01*
X121791095Y-98679000D01*
X121859111Y-98703694D01*
X121931077Y-98718511D01*
X122006995Y-98723450D01*
X122081409Y-98715909D01*
X122145901Y-98693287D01*
X122200472Y-98655584D01*
X122245120Y-98602800D01*
X122279847Y-98534934D01*
X122304651Y-98451988D01*
X122319534Y-98353959D01*
X122324495Y-98240850D01*
X122319137Y-98127106D01*
X122303064Y-98029713D01*
X122276275Y-97948671D01*
X122238770Y-97883980D01*
X122172095Y-97821186D01*
X122086370Y-97783509D01*
X121981595Y-97770950D01*
X121900632Y-97777935D01*
X121822845Y-97798890D01*
X121822845Y-97913190D01*
X121903808Y-97890330D01*
X121981595Y-97882710D01*
X122072083Y-97902871D01*
X122135265Y-97963355D01*
X122162782Y-98030030D01*
X122179292Y-98122528D01*
X122184795Y-98240850D01*
X122179574Y-98361923D01*
X122163911Y-98457597D01*
X122137805Y-98527870D01*
X122080655Y-98592640D01*
X122003185Y-98614230D01*
X121926985Y-98598990D01*
X121926985Y-98266250D01*
X122087005Y-98266250D01*
X122087005Y-98158300D01*
X121791095Y-98158300D01*
X121791095Y-98679000D01*
X121657745Y-98679000D01*
X121657745Y-97783650D01*
X121510425Y-97783650D01*
X121312305Y-98456750D01*
X121308495Y-98456750D01*
X121308495Y-97783650D01*
X121175145Y-97783650D01*
X121175145Y-98710750D01*
X120969193Y-98710750D01*
X121032905Y-98698050D01*
X121032905Y-97796350D01*
X120933528Y-97777300D01*
X120833515Y-97770950D01*
X120726059Y-97782451D01*
X120640757Y-97816952D01*
X120577610Y-97874455D01*
X120543439Y-97935772D01*
X120519031Y-98016219D01*
X120504387Y-98115795D01*
X120499505Y-98234500D01*
X120031722Y-98234500D01*
X120446588Y-97612200D01*
X122377412Y-97612200D01*
X122800745Y-98247200D01*
X122377412Y-98882200D01*
X120446588Y-98882200D01*
X120023255Y-98247200D01*
G37*
G36*
X120890665Y-97892870D02*
G01*
X120890665Y-98602800D01*
X120833515Y-98614230D01*
X120744774Y-98593910D01*
X120684290Y-98532950D01*
X120658537Y-98463664D01*
X120643086Y-98364181D01*
X120637935Y-98234500D01*
X120643156Y-98117096D01*
X120658819Y-98025656D01*
X120684925Y-97960180D01*
X120745568Y-97901125D01*
X120833515Y-97881440D01*
X120890665Y-97892870D01*
G37*
%TO.C,Q1*%
X107071600Y-115925600D02*
X107071600Y-115275600D01*
X107071600Y-115925600D02*
X107071600Y-116575600D01*
X103951600Y-115925600D02*
X103951600Y-114250600D01*
X103951600Y-115925600D02*
X103951600Y-116575600D01*
%TO.C,C34*%
X133356236Y-123753200D02*
X133140564Y-123753200D01*
X133356236Y-123033200D02*
X133140564Y-123033200D01*
%TO.C,U3*%
X127711200Y-105954000D02*
X128361200Y-105954000D01*
X127711200Y-102834000D02*
X127061200Y-102834000D01*
X127711200Y-105954000D02*
X126036200Y-105954000D01*
X127711200Y-102834000D02*
X128361200Y-102834000D01*
%TO.C,C31*%
X126090000Y-111918636D02*
X126090000Y-111702964D01*
X125370000Y-111918636D02*
X125370000Y-111702964D01*
%TO.C,kibuzzard-62BD8821*%
G36*
X118449725Y-101523800D02*
G01*
X119903875Y-101523800D01*
X119903875Y-102793800D01*
X118449725Y-102793800D01*
X118449725Y-102307390D01*
X118608475Y-102307390D01*
X118615319Y-102413858D01*
X118635851Y-102497890D01*
X118670070Y-102559485D01*
X118718542Y-102601466D01*
X118781830Y-102626654D01*
X118859935Y-102635050D01*
X118939786Y-102626160D01*
X119001540Y-102599490D01*
X119048054Y-102549643D01*
X119082185Y-102471220D01*
X119097707Y-102401652D01*
X119102742Y-102355650D01*
X119256175Y-102355650D01*
X119264113Y-102441022D01*
X119287925Y-102510872D01*
X119327613Y-102565200D01*
X119383175Y-102604006D01*
X119454613Y-102627289D01*
X119541925Y-102635050D01*
X119645430Y-102624890D01*
X119745125Y-102594410D01*
X119745125Y-102472490D01*
X119652733Y-102511543D01*
X119558435Y-102524560D01*
X119488426Y-102513606D01*
X119438420Y-102480745D01*
X119408416Y-102425976D01*
X119398415Y-102349300D01*
X119409845Y-102273894D01*
X119444135Y-102222935D01*
X119506365Y-102193884D01*
X119601615Y-102184200D01*
X119627015Y-102184200D01*
X119627015Y-102072440D01*
X119601615Y-102072440D01*
X119513033Y-102062915D01*
X119453025Y-102034340D01*
X119418735Y-101985127D01*
X119407305Y-101913690D01*
X119421981Y-101845957D01*
X119466007Y-101805317D01*
X119539385Y-101791770D01*
X119628920Y-101805105D01*
X119727345Y-101845110D01*
X119727345Y-101727000D01*
X119653967Y-101702306D01*
X119582847Y-101687489D01*
X119513985Y-101682550D01*
X119409527Y-101696679D01*
X119332375Y-101739065D01*
X119284750Y-101806534D01*
X119268875Y-101895910D01*
X119278400Y-101977269D01*
X119306975Y-102042278D01*
X119354600Y-102090934D01*
X119421275Y-102123240D01*
X119421275Y-102124510D01*
X119349044Y-102150863D01*
X119297450Y-102198170D01*
X119266494Y-102266433D01*
X119256175Y-102355650D01*
X119102742Y-102355650D01*
X119107021Y-102316562D01*
X119110125Y-102215950D01*
X119108141Y-102119668D01*
X119102187Y-102034023D01*
X119092266Y-101959013D01*
X119078375Y-101894640D01*
X119039323Y-101794310D01*
X118985665Y-101729540D01*
X118914862Y-101694298D01*
X118824375Y-101682550D01*
X118743412Y-101688900D01*
X118665625Y-101707950D01*
X118665625Y-101828600D01*
X118735792Y-101801930D01*
X118809135Y-101793040D01*
X118878826Y-101806692D01*
X118925340Y-101847650D01*
X118945448Y-101895204D01*
X118959207Y-101965054D01*
X118966615Y-102057200D01*
X118964075Y-102057200D01*
X118898670Y-102016243D01*
X118826915Y-102002590D01*
X118728173Y-102020053D01*
X118660545Y-102072440D01*
X118631617Y-102129590D01*
X118614261Y-102207907D01*
X118608475Y-102307390D01*
X118449725Y-102307390D01*
X118449725Y-101523800D01*
G37*
G36*
X118903274Y-102122764D02*
G01*
X118939310Y-102155625D01*
X118960741Y-102214204D01*
X118967885Y-102302310D01*
X118961376Y-102408831D01*
X118941850Y-102476935D01*
X118908354Y-102513606D01*
X118859935Y-102525830D01*
X118808659Y-102514559D01*
X118774210Y-102480745D01*
X118754684Y-102414864D01*
X118748175Y-102307390D01*
X118754049Y-102211505D01*
X118771670Y-102152450D01*
X118852315Y-102111810D01*
X118903274Y-102122764D01*
G37*
%TO.C,kibuzzard-62BB2232*%
G36*
X120941465Y-101804470D02*
G01*
X120941465Y-102514400D01*
X120884315Y-102525830D01*
X120795574Y-102505510D01*
X120735090Y-102444550D01*
X120709337Y-102375264D01*
X120693886Y-102275781D01*
X120688735Y-102146100D01*
X120693956Y-102028696D01*
X120709619Y-101937256D01*
X120735725Y-101871780D01*
X120796368Y-101812725D01*
X120884315Y-101793040D01*
X120941465Y-101804470D01*
G37*
G36*
X120074055Y-102158800D02*
G01*
X120082522Y-102146100D01*
X120550305Y-102146100D01*
X120554468Y-102261106D01*
X120566956Y-102358896D01*
X120587770Y-102439470D01*
X120633649Y-102531386D01*
X120696355Y-102591235D01*
X120778905Y-102624096D01*
X120884315Y-102635050D01*
X120988137Y-102628700D01*
X121019993Y-102622350D01*
X121225945Y-102622350D01*
X121368185Y-102622350D01*
X121566305Y-101949250D01*
X121568845Y-101949250D01*
X121568845Y-102622350D01*
X121708545Y-102622350D01*
X121708545Y-102590600D01*
X121841895Y-102590600D01*
X121909911Y-102615294D01*
X121981877Y-102630111D01*
X122057795Y-102635050D01*
X122132209Y-102627509D01*
X122196701Y-102604887D01*
X122251272Y-102567184D01*
X122295920Y-102514400D01*
X122330647Y-102446534D01*
X122355451Y-102363588D01*
X122370334Y-102265559D01*
X122375295Y-102152450D01*
X122369937Y-102038706D01*
X122353864Y-101941313D01*
X122327075Y-101860271D01*
X122289570Y-101795580D01*
X122222895Y-101732786D01*
X122137170Y-101695109D01*
X122032395Y-101682550D01*
X121951432Y-101689535D01*
X121873645Y-101710490D01*
X121873645Y-101824790D01*
X121954608Y-101801930D01*
X122032395Y-101794310D01*
X122122883Y-101814471D01*
X122186065Y-101874955D01*
X122213582Y-101941630D01*
X122230092Y-102034128D01*
X122235595Y-102152450D01*
X122230374Y-102273523D01*
X122214711Y-102369197D01*
X122188605Y-102439470D01*
X122131455Y-102504240D01*
X122053985Y-102525830D01*
X121977785Y-102510590D01*
X121977785Y-102177850D01*
X122137805Y-102177850D01*
X122137805Y-102069900D01*
X121841895Y-102069900D01*
X121841895Y-102590600D01*
X121708545Y-102590600D01*
X121708545Y-101695250D01*
X121561225Y-101695250D01*
X121363105Y-102368350D01*
X121359295Y-102368350D01*
X121359295Y-101695250D01*
X121225945Y-101695250D01*
X121225945Y-102622350D01*
X121019993Y-102622350D01*
X121083705Y-102609650D01*
X121083705Y-101707950D01*
X120984328Y-101688900D01*
X120884315Y-101682550D01*
X120776859Y-101694051D01*
X120691557Y-101728552D01*
X120628410Y-101786055D01*
X120594239Y-101847372D01*
X120569831Y-101927819D01*
X120555187Y-102027395D01*
X120550305Y-102146100D01*
X120082522Y-102146100D01*
X120497388Y-101523800D01*
X122428212Y-101523800D01*
X122851545Y-102158800D01*
X122428212Y-102793800D01*
X120497388Y-102793800D01*
X120074055Y-102158800D01*
G37*
%TO.C,C35*%
X129990964Y-120086800D02*
X130206636Y-120086800D01*
X129990964Y-120806800D02*
X130206636Y-120806800D01*
%TO.C,Q2*%
X103900800Y-107391200D02*
X103900800Y-105716200D01*
X107020800Y-107391200D02*
X107020800Y-108041200D01*
X107020800Y-107391200D02*
X107020800Y-106741200D01*
X103900800Y-107391200D02*
X103900800Y-108041200D01*
%TO.C,Q3*%
X140072400Y-112042400D02*
X136942400Y-112042400D01*
X139402400Y-115642400D02*
X136942400Y-115642400D01*
%TO.C,D3*%
X104811600Y-112709400D02*
X106661600Y-112709400D01*
X106661600Y-112709400D02*
X106661600Y-113909400D01*
X104811600Y-113909400D02*
X106661600Y-113909400D01*
%TO.C,D6*%
X104760800Y-103952600D02*
X106610800Y-103952600D01*
X104760800Y-102752600D02*
X106610800Y-102752600D01*
X106610800Y-102752600D02*
X106610800Y-103952600D01*
%TO.C,R31*%
X127176200Y-114530136D02*
X127176200Y-114984264D01*
X125706200Y-114530136D02*
X125706200Y-114984264D01*
%TO.C,R29*%
X140377142Y-127696700D02*
X140851658Y-127696700D01*
X140377142Y-128741700D02*
X140851658Y-128741700D01*
%TO.C,C33*%
X133356236Y-122584800D02*
X133140564Y-122584800D01*
X133356236Y-121864800D02*
X133140564Y-121864800D01*
%TO.C,R30*%
X136330458Y-127747500D02*
X135855942Y-127747500D01*
X136330458Y-128792500D02*
X135855942Y-128792500D01*
%TO.C,R20*%
X105614441Y-101804200D02*
X105307159Y-101804200D01*
X105614441Y-102564200D02*
X105307159Y-102564200D01*
%TO.C,R2*%
X134415559Y-99897200D02*
X134722841Y-99897200D01*
X134415559Y-99137200D02*
X134722841Y-99137200D01*
%TO.C,C28*%
X133140564Y-121670400D02*
X133356236Y-121670400D01*
X133140564Y-120950400D02*
X133356236Y-120950400D01*
%TO.C,kibuzzard-62BB2156*%
G36*
X116158962Y-115420775D02*
G01*
X118537038Y-115420775D01*
X118537038Y-116532025D01*
X116158962Y-116532025D01*
X116158962Y-115667473D01*
X116297869Y-115667473D01*
X116326583Y-115737317D01*
X116354446Y-115809548D01*
X116381459Y-115884166D01*
X116407622Y-115961172D01*
X116432934Y-116040564D01*
X116457395Y-116122344D01*
X116481005Y-116206511D01*
X116503766Y-116293065D01*
X116525675Y-116382006D01*
X116655691Y-116382006D01*
X116937949Y-116382006D01*
X117062409Y-116382006D01*
X117062409Y-116170869D01*
X117392450Y-116170869D01*
X117402007Y-116250879D01*
X117430677Y-116313109D01*
X117478461Y-116357559D01*
X117545358Y-116384229D01*
X117631369Y-116393119D01*
X117700266Y-116387192D01*
X117763237Y-116369412D01*
X117820281Y-116339779D01*
X117820281Y-116224209D01*
X117761632Y-116264337D01*
X117699772Y-116288414D01*
X117634702Y-116296440D01*
X117585252Y-116288800D01*
X117548025Y-116265881D01*
X117524689Y-116228237D01*
X117516910Y-116176425D01*
X117522883Y-116126974D01*
X117540802Y-116087525D01*
X117572611Y-116055021D01*
X117620256Y-116026406D01*
X117688351Y-115990846D01*
X117741506Y-115953805D01*
X117779721Y-115915281D01*
X117814308Y-115849718D01*
X117816419Y-115835271D01*
X117970300Y-115835271D01*
X118089204Y-115835271D01*
X118089204Y-115661916D01*
X118114762Y-115657471D01*
X118163997Y-115666022D01*
X118204280Y-115691673D01*
X118235611Y-115734425D01*
X118257990Y-115794278D01*
X118271418Y-115871233D01*
X118275894Y-115965288D01*
X118270955Y-116066813D01*
X118256138Y-116149878D01*
X118231444Y-116214485D01*
X118196872Y-116260633D01*
X118152422Y-116288322D01*
X118098094Y-116297551D01*
X118039197Y-116288939D01*
X117975856Y-116263103D01*
X117975856Y-116365338D01*
X118042809Y-116386173D01*
X118116985Y-116393119D01*
X118182879Y-116386434D01*
X118239986Y-116366379D01*
X118288308Y-116332955D01*
X118327845Y-116286161D01*
X118358595Y-116225997D01*
X118380560Y-116152464D01*
X118393738Y-116065560D01*
X118398131Y-115965288D01*
X118393790Y-115870224D01*
X118380768Y-115787835D01*
X118359064Y-115718121D01*
X118328678Y-115661083D01*
X118289611Y-115616720D01*
X118241862Y-115585032D01*
X118185431Y-115566019D01*
X118120319Y-115559681D01*
X118041142Y-115565793D01*
X117970300Y-115584129D01*
X117970300Y-115835271D01*
X117816419Y-115835271D01*
X117825837Y-115770819D01*
X117811252Y-115681919D01*
X117767497Y-115615244D01*
X117723109Y-115584376D01*
X117667731Y-115565855D01*
X117601365Y-115559681D01*
X117536666Y-115563385D01*
X117474436Y-115574498D01*
X117414675Y-115593019D01*
X117414675Y-115704144D01*
X117500519Y-115668306D01*
X117586919Y-115656360D01*
X117635536Y-115663583D01*
X117672485Y-115685253D01*
X117695821Y-115719701D01*
X117703600Y-115765263D01*
X117693722Y-115821689D01*
X117664089Y-115866510D01*
X117614700Y-115899724D01*
X117539012Y-115937877D01*
X117480856Y-115976770D01*
X117440234Y-116016405D01*
X117404396Y-116085025D01*
X117392450Y-116170869D01*
X117062409Y-116170869D01*
X117062409Y-115687475D01*
X117064631Y-115686364D01*
X117255766Y-115793044D01*
X117255766Y-115684141D01*
X117061297Y-115570794D01*
X116937949Y-115570794D01*
X116937949Y-116382006D01*
X116655691Y-116382006D01*
X116632849Y-116296385D01*
X116608772Y-116212383D01*
X116583460Y-116129999D01*
X116556913Y-116049235D01*
X116529132Y-115970089D01*
X116500116Y-115892562D01*
X116469866Y-115816654D01*
X116438380Y-115742365D01*
X116405660Y-115669695D01*
X116405660Y-115667473D01*
X116709031Y-115667473D01*
X116709031Y-115570794D01*
X116297869Y-115570794D01*
X116297869Y-115667473D01*
X116158962Y-115667473D01*
X116158962Y-115420775D01*
G37*
%TO.C,U11*%
X127726000Y-114350800D02*
X127726000Y-115150800D01*
X127726000Y-114350800D02*
X127726000Y-112550800D01*
X130846000Y-114350800D02*
X130846000Y-113550800D01*
X130846000Y-114350800D02*
X130846000Y-115150800D01*
%TO.C,kibuzzard-62BD8A50*%
G36*
X108829971Y-109747050D02*
G01*
X110829229Y-109747050D01*
X110829229Y-111334550D01*
X108829971Y-111334550D01*
X108829971Y-110786863D01*
X109524006Y-110786863D01*
X109533928Y-110893578D01*
X109563694Y-110980890D01*
X109613303Y-111048800D01*
X109682756Y-111097307D01*
X109772053Y-111126411D01*
X109881194Y-111136113D01*
X110010575Y-111123413D01*
X110135194Y-111085313D01*
X110135194Y-110932913D01*
X110019703Y-110981728D01*
X109901831Y-110998000D01*
X109814320Y-110984308D01*
X109751812Y-110943231D01*
X109714308Y-110874770D01*
X109701806Y-110778925D01*
X109716094Y-110684667D01*
X109758956Y-110620969D01*
X109836744Y-110584655D01*
X109955806Y-110572550D01*
X109987556Y-110572550D01*
X109987556Y-110432850D01*
X109955806Y-110432850D01*
X109845078Y-110420944D01*
X109770069Y-110385225D01*
X109727206Y-110323709D01*
X109712919Y-110234413D01*
X109731263Y-110149746D01*
X109786297Y-110098946D01*
X109878019Y-110082013D01*
X109989937Y-110098681D01*
X110112969Y-110148688D01*
X110112969Y-110001050D01*
X110021247Y-109970182D01*
X109932347Y-109951661D01*
X109846269Y-109945487D01*
X109715697Y-109963148D01*
X109619256Y-110016131D01*
X109559725Y-110100467D01*
X109539881Y-110212188D01*
X109551787Y-110313887D01*
X109587506Y-110395147D01*
X109647037Y-110455968D01*
X109730381Y-110496350D01*
X109730381Y-110497938D01*
X109640092Y-110530878D01*
X109575600Y-110590013D01*
X109536905Y-110675341D01*
X109524006Y-110786863D01*
X108829971Y-110786863D01*
X108829971Y-109747050D01*
G37*
%TO.C,D1*%
X136086800Y-103566400D02*
X136086800Y-107466400D01*
X138086800Y-103566400D02*
X138086800Y-107466400D01*
X136086800Y-103566400D02*
X138086800Y-103566400D01*
%TO.C,L1*%
X135581600Y-107814800D02*
X131581600Y-107814800D01*
X135581600Y-103614800D02*
X131581600Y-103614800D01*
%TO.C,C25*%
X139388964Y-120349600D02*
X139604636Y-120349600D01*
X139388964Y-119629600D02*
X139604636Y-119629600D01*
%TO.C,kibuzzard-62BB2169*%
G36*
X124564775Y-119815372D02*
G01*
X124564775Y-119454216D01*
X124703681Y-119454216D01*
X124712710Y-119523391D01*
X124739797Y-119577564D01*
X124790081Y-119619097D01*
X124868702Y-119650351D01*
X124937908Y-119664859D01*
X125021807Y-119673564D01*
X125120400Y-119676466D01*
X125218993Y-119673564D01*
X125302892Y-119664859D01*
X125372098Y-119650351D01*
X125450719Y-119619097D01*
X125501003Y-119577564D01*
X125528090Y-119523391D01*
X125537119Y-119454216D01*
X125528090Y-119385040D01*
X125501003Y-119330867D01*
X125450719Y-119289334D01*
X125372098Y-119258080D01*
X125302892Y-119243572D01*
X125218993Y-119234867D01*
X125120400Y-119231966D01*
X125021807Y-119234867D01*
X124937908Y-119243572D01*
X124868702Y-119258080D01*
X124790081Y-119289334D01*
X124739797Y-119330867D01*
X124712710Y-119385040D01*
X124703681Y-119454216D01*
X124564775Y-119454216D01*
X124564775Y-118896368D01*
X124703681Y-118896368D01*
X124717433Y-118980684D01*
X124758688Y-119042498D01*
X124826613Y-119080419D01*
X124920375Y-119093059D01*
X124990754Y-119086083D01*
X125065578Y-119065155D01*
X125144848Y-119030274D01*
X125208328Y-118994054D01*
X125276531Y-118948180D01*
X125349456Y-118892652D01*
X125427105Y-118827471D01*
X125429328Y-118827471D01*
X125429328Y-119098616D01*
X125526006Y-119098616D01*
X125526006Y-118698566D01*
X125429328Y-118698566D01*
X125346392Y-118769912D01*
X125267130Y-118830283D01*
X125191543Y-118879677D01*
X125119629Y-118918094D01*
X125051389Y-118945535D01*
X124986823Y-118962000D01*
X124925931Y-118967488D01*
X124869258Y-118961515D01*
X124830364Y-118943596D01*
X124800360Y-118870809D01*
X124807645Y-118818581D01*
X124829499Y-118761166D01*
X124865924Y-118698566D01*
X124761466Y-118698566D01*
X124729363Y-118760055D01*
X124710102Y-118825989D01*
X124703681Y-118896368D01*
X124564775Y-118896368D01*
X124564775Y-118356301D01*
X124703681Y-118356301D01*
X124707385Y-118421000D01*
X124718498Y-118483230D01*
X124737019Y-118542991D01*
X124848144Y-118542991D01*
X124812306Y-118457147D01*
X124800360Y-118370747D01*
X124807583Y-118322130D01*
X124829253Y-118285181D01*
X124863701Y-118261844D01*
X124909263Y-118254066D01*
X124965689Y-118263943D01*
X125010510Y-118293577D01*
X125043724Y-118342966D01*
X125081877Y-118418654D01*
X125120770Y-118476810D01*
X125160405Y-118517432D01*
X125229025Y-118553270D01*
X125314869Y-118565216D01*
X125394879Y-118555659D01*
X125457109Y-118526989D01*
X125501559Y-118479205D01*
X125528229Y-118412308D01*
X125537119Y-118326297D01*
X125531192Y-118257399D01*
X125513412Y-118194429D01*
X125483779Y-118137384D01*
X125368209Y-118137384D01*
X125408337Y-118196034D01*
X125432414Y-118257893D01*
X125440440Y-118322963D01*
X125432800Y-118372414D01*
X125409881Y-118409641D01*
X125372237Y-118432977D01*
X125320425Y-118440756D01*
X125270974Y-118434783D01*
X125231525Y-118416864D01*
X125199021Y-118385054D01*
X125170406Y-118337409D01*
X125134846Y-118269314D01*
X125097805Y-118216160D01*
X125059281Y-118177945D01*
X124993718Y-118143357D01*
X124914819Y-118131828D01*
X124825919Y-118146413D01*
X124759244Y-118190169D01*
X124728376Y-118234557D01*
X124709855Y-118289934D01*
X124703681Y-118356301D01*
X124564775Y-118356301D01*
X124564775Y-117837347D01*
X124703681Y-117837347D01*
X124709793Y-117916523D01*
X124728129Y-117987366D01*
X124979271Y-117987366D01*
X124979271Y-117868462D01*
X124805916Y-117868462D01*
X124801471Y-117842903D01*
X124810022Y-117793669D01*
X124835673Y-117753386D01*
X124878425Y-117722055D01*
X124938278Y-117699675D01*
X125015233Y-117686248D01*
X125109288Y-117681772D01*
X125210813Y-117686711D01*
X125293878Y-117701527D01*
X125358485Y-117726222D01*
X125404633Y-117760794D01*
X125432322Y-117805244D01*
X125441551Y-117859572D01*
X125432939Y-117918468D01*
X125407103Y-117981809D01*
X125509338Y-117981809D01*
X125530173Y-117914857D01*
X125537119Y-117840681D01*
X125530434Y-117774787D01*
X125510379Y-117717679D01*
X125476955Y-117669357D01*
X125430161Y-117629821D01*
X125369997Y-117599071D01*
X125296464Y-117577106D01*
X125209560Y-117563927D01*
X125109288Y-117559534D01*
X125014224Y-117563875D01*
X124931835Y-117576898D01*
X124862121Y-117598602D01*
X124805083Y-117628987D01*
X124760720Y-117668055D01*
X124729032Y-117715804D01*
X124710019Y-117772235D01*
X124703681Y-117837347D01*
X124564775Y-117837347D01*
X124564775Y-117420628D01*
X125676025Y-117420628D01*
X125676025Y-119815372D01*
X124564775Y-119815372D01*
G37*
G36*
X125212634Y-119349758D02*
G01*
X124882593Y-119539782D01*
X124816473Y-119506444D01*
X124797026Y-119454216D01*
X124822585Y-119395875D01*
X124859812Y-119376289D01*
X124920375Y-119360871D01*
X124974703Y-119353462D01*
X125041378Y-119349017D01*
X125120400Y-119347536D01*
X125212634Y-119349758D01*
G37*
G36*
X125420993Y-119398653D02*
G01*
X125443774Y-119454216D01*
X125418215Y-119512556D01*
X125380988Y-119532142D01*
X125320425Y-119547561D01*
X125266097Y-119554969D01*
X125199422Y-119559414D01*
X125120400Y-119560896D01*
X125060115Y-119560062D01*
X125008164Y-119557562D01*
X125342650Y-119364204D01*
X125420993Y-119398653D01*
G37*
%TO.C,C9*%
X125632800Y-103524164D02*
X125632800Y-103739836D01*
X124912800Y-103524164D02*
X124912800Y-103739836D01*
%TO.C,R27*%
X143610841Y-122757200D02*
X143303559Y-122757200D01*
X143610841Y-121997200D02*
X143303559Y-121997200D01*
%TO.C,C8*%
X125582000Y-106978564D02*
X125582000Y-107194236D01*
X124862000Y-106978564D02*
X124862000Y-107194236D01*
%TO.C,R16*%
X105665241Y-111124000D02*
X105357959Y-111124000D01*
X105665241Y-110364000D02*
X105357959Y-110364000D01*
%TO.C,JP2*%
X100863400Y-106705400D02*
X100863400Y-108889800D01*
X100863400Y-108889800D02*
X101930200Y-108889800D01*
X101930200Y-107010200D02*
X101930200Y-108889800D01*
X100863400Y-106705400D02*
X101574600Y-106705400D01*
%TO.C,kibuzzard-62BD8A5A*%
G36*
X108829971Y-113666587D02*
G01*
X110829229Y-113666587D01*
X110829229Y-115238213D01*
X108829971Y-115238213D01*
X108829971Y-115039775D01*
X109543850Y-115039775D01*
X110115350Y-115039775D01*
X110115350Y-114901663D01*
X110013426Y-114783183D01*
X109927183Y-114669952D01*
X109856620Y-114561970D01*
X109801738Y-114459236D01*
X109762536Y-114361751D01*
X109739015Y-114269514D01*
X109731175Y-114182525D01*
X109739708Y-114101563D01*
X109765306Y-114046000D01*
X109869287Y-114003137D01*
X109943900Y-114013544D01*
X110025921Y-114044765D01*
X110115350Y-114096800D01*
X110115350Y-113947575D01*
X110027508Y-113901714D01*
X109933317Y-113874197D01*
X109832775Y-113865025D01*
X109712323Y-113884670D01*
X109624019Y-113943606D01*
X109569845Y-114040642D01*
X109551787Y-114174588D01*
X109561753Y-114275129D01*
X109591651Y-114382021D01*
X109641481Y-114495263D01*
X109693224Y-114585948D01*
X109758758Y-114683381D01*
X109838083Y-114787561D01*
X109931200Y-114898488D01*
X109931200Y-114901663D01*
X109543850Y-114901663D01*
X109543850Y-115039775D01*
X108829971Y-115039775D01*
X108829971Y-113666587D01*
G37*
%TO.C,U12*%
X135699500Y-126885700D02*
X135699500Y-126216540D01*
X140288140Y-121627900D02*
X140957300Y-121627900D01*
X140957300Y-126885700D02*
X140288140Y-126885700D01*
X135699500Y-121627900D02*
X136368660Y-121627900D01*
X136368660Y-126885700D02*
X135699500Y-126885700D01*
X140957300Y-121627900D02*
X140957300Y-122297060D01*
X140957300Y-126216540D02*
X140957300Y-126885700D01*
X135699500Y-122297060D02*
X135699500Y-121627900D01*
D12*
X135382000Y-126517400D02*
G75*
G03*
X135382000Y-126517400I-76200J0D01*
G01*
%TO.C,kibuzzard-62BD8A57*%
G36*
X109912944Y-112096550D02*
G01*
X109940923Y-112149731D01*
X109962950Y-112236250D01*
X109973533Y-112313861D01*
X109979883Y-112409111D01*
X109982000Y-112522000D01*
X109978825Y-112653763D01*
X109707362Y-112182275D01*
X109754987Y-112087819D01*
X109829600Y-112060038D01*
X109912944Y-112096550D01*
G37*
G36*
X108829971Y-111728250D02*
G01*
X110829229Y-111728250D01*
X110829229Y-113315750D01*
X108829971Y-113315750D01*
X108829971Y-112522000D01*
X109512100Y-112522000D01*
X109516245Y-112662847D01*
X109528681Y-112782703D01*
X109549406Y-112881569D01*
X109594055Y-112993884D01*
X109653387Y-113065719D01*
X109730778Y-113104414D01*
X109829600Y-113117313D01*
X109928422Y-113104414D01*
X110005813Y-113065719D01*
X110065145Y-112993884D01*
X110109794Y-112881569D01*
X110130519Y-112782703D01*
X110142955Y-112662847D01*
X110147100Y-112522000D01*
X110142955Y-112381153D01*
X110130519Y-112261297D01*
X110109794Y-112162431D01*
X110065145Y-112050116D01*
X110005813Y-111978281D01*
X109928422Y-111939586D01*
X109829600Y-111926687D01*
X109730778Y-111939586D01*
X109653387Y-111978281D01*
X109594055Y-112050116D01*
X109549406Y-112162431D01*
X109528681Y-112261297D01*
X109516245Y-112381153D01*
X109512100Y-112522000D01*
X108829971Y-112522000D01*
X108829971Y-111728250D01*
G37*
G36*
X109958188Y-112839500D02*
G01*
X109908975Y-112951419D01*
X109829600Y-112983963D01*
X109746256Y-112947450D01*
X109718277Y-112894269D01*
X109696250Y-112807750D01*
X109685667Y-112730139D01*
X109679317Y-112634889D01*
X109677200Y-112522000D01*
X109678391Y-112435878D01*
X109681963Y-112361663D01*
X109958188Y-112839500D01*
G37*
D10*
%TO.C,R22*%
X105665241Y-119050800D02*
X105357959Y-119050800D01*
X105665241Y-119810800D02*
X105357959Y-119810800D01*
%TO.C,U14*%
X125863200Y-118670000D02*
X125863200Y-119720000D01*
X131083200Y-117550000D02*
X131083200Y-116500000D01*
X125863200Y-117550000D02*
X125863200Y-116500000D01*
%TO.C,R3*%
X134722841Y-98172000D02*
X134415559Y-98172000D01*
X134722841Y-98932000D02*
X134415559Y-98932000D01*
%TO.C,D5*%
X104760800Y-104149600D02*
X106610800Y-104149600D01*
X104760800Y-105349600D02*
X106610800Y-105349600D01*
X106610800Y-104149600D02*
X106610800Y-105349600D01*
%TO.C,JP5*%
X124434600Y-118491000D02*
X122250200Y-118491000D01*
X124129800Y-119557800D02*
X122250200Y-119557800D01*
X124434600Y-118491000D02*
X124434600Y-119202200D01*
X122250200Y-118491000D02*
X122250200Y-119557800D01*
%TO.C,JP1*%
X101904800Y-115671600D02*
X101904800Y-117551200D01*
X100838000Y-117551200D02*
X101904800Y-117551200D01*
X100838000Y-115366800D02*
X100838000Y-117551200D01*
X100838000Y-115366800D02*
X101549200Y-115366800D01*
%TO.C,FB1*%
X126591600Y-111089221D02*
X126591600Y-111414779D01*
X127611600Y-111089221D02*
X127611600Y-111414779D01*
%TO.C,C1*%
X139692748Y-100150600D02*
X140215252Y-100150600D01*
X139692748Y-98680600D02*
X140215252Y-98680600D01*
%TO.C,R23*%
X105665241Y-118085600D02*
X105357959Y-118085600D01*
X105665241Y-118845600D02*
X105357959Y-118845600D01*
%TO.C,C30*%
X125431436Y-110596000D02*
X125215764Y-110596000D01*
X125431436Y-109876000D02*
X125215764Y-109876000D01*
%TO.C,R19*%
X136117600Y-116737159D02*
X136117600Y-117044441D01*
X135357600Y-116737159D02*
X135357600Y-117044441D01*
%TO.C,kibuzzard-62BB2232*%
G36*
X124900055Y-101955600D02*
G01*
X124908522Y-101942900D01*
X125376305Y-101942900D01*
X125380468Y-102057906D01*
X125392956Y-102155696D01*
X125413770Y-102236270D01*
X125459649Y-102328186D01*
X125522355Y-102388035D01*
X125604905Y-102420896D01*
X125710315Y-102431850D01*
X125814137Y-102425500D01*
X125845993Y-102419150D01*
X126051945Y-102419150D01*
X126194185Y-102419150D01*
X126392305Y-101746050D01*
X126394845Y-101746050D01*
X126394845Y-102419150D01*
X126534545Y-102419150D01*
X126534545Y-102387400D01*
X126667895Y-102387400D01*
X126735911Y-102412094D01*
X126807877Y-102426911D01*
X126883795Y-102431850D01*
X126958209Y-102424309D01*
X127022701Y-102401687D01*
X127077272Y-102363984D01*
X127121920Y-102311200D01*
X127156647Y-102243334D01*
X127181451Y-102160388D01*
X127196334Y-102062359D01*
X127201295Y-101949250D01*
X127195937Y-101835506D01*
X127179864Y-101738113D01*
X127153075Y-101657071D01*
X127115570Y-101592380D01*
X127048895Y-101529586D01*
X126963170Y-101491909D01*
X126858395Y-101479350D01*
X126777432Y-101486335D01*
X126699645Y-101507290D01*
X126699645Y-101621590D01*
X126780608Y-101598730D01*
X126858395Y-101591110D01*
X126948883Y-101611271D01*
X127012065Y-101671755D01*
X127039582Y-101738430D01*
X127056092Y-101830928D01*
X127061595Y-101949250D01*
X127056374Y-102070323D01*
X127040711Y-102165997D01*
X127014605Y-102236270D01*
X126957455Y-102301040D01*
X126879985Y-102322630D01*
X126803785Y-102307390D01*
X126803785Y-101974650D01*
X126963805Y-101974650D01*
X126963805Y-101866700D01*
X126667895Y-101866700D01*
X126667895Y-102387400D01*
X126534545Y-102387400D01*
X126534545Y-101492050D01*
X126387225Y-101492050D01*
X126189105Y-102165150D01*
X126185295Y-102165150D01*
X126185295Y-101492050D01*
X126051945Y-101492050D01*
X126051945Y-102419150D01*
X125845993Y-102419150D01*
X125909705Y-102406450D01*
X125909705Y-101504750D01*
X125810328Y-101485700D01*
X125710315Y-101479350D01*
X125602859Y-101490851D01*
X125517557Y-101525352D01*
X125454410Y-101582855D01*
X125420239Y-101644172D01*
X125395831Y-101724619D01*
X125381187Y-101824195D01*
X125376305Y-101942900D01*
X124908522Y-101942900D01*
X125323388Y-101320600D01*
X127254212Y-101320600D01*
X127677545Y-101955600D01*
X127254212Y-102590600D01*
X125323388Y-102590600D01*
X124900055Y-101955600D01*
G37*
G36*
X125767465Y-101601270D02*
G01*
X125767465Y-102311200D01*
X125710315Y-102322630D01*
X125621574Y-102302310D01*
X125561090Y-102241350D01*
X125535337Y-102172064D01*
X125519886Y-102072581D01*
X125514735Y-101942900D01*
X125519956Y-101825496D01*
X125535619Y-101734056D01*
X125561725Y-101668580D01*
X125622368Y-101609525D01*
X125710315Y-101589840D01*
X125767465Y-101601270D01*
G37*
%TO.C,R26*%
X143612841Y-125500400D02*
X143305559Y-125500400D01*
X143612841Y-124740400D02*
X143305559Y-124740400D01*
%TO.C,U2*%
X127711200Y-106237600D02*
X128361200Y-106237600D01*
X127711200Y-109357600D02*
X126036200Y-109357600D01*
X127711200Y-106237600D02*
X127061200Y-106237600D01*
X127711200Y-109357600D02*
X128361200Y-109357600D01*
%TO.C,R18*%
X109983241Y-101497400D02*
X109675959Y-101497400D01*
X109983241Y-100737400D02*
X109675959Y-100737400D01*
%TO.C,U6*%
X110449800Y-103682800D02*
X110449800Y-104482800D01*
X110449800Y-103682800D02*
X110449800Y-102882800D01*
X107329800Y-103682800D02*
X107329800Y-104482800D01*
X107329800Y-103682800D02*
X107329800Y-101882800D01*
%TO.C,J12*%
X134284800Y-134846000D02*
X134284800Y-131346000D01*
X140734800Y-134846000D02*
X140734800Y-134346000D01*
X143794800Y-133346000D02*
X143184800Y-133346000D01*
X143794800Y-135456000D02*
X133674800Y-135456000D01*
X138634800Y-134346000D02*
X138634800Y-134846000D01*
X143794800Y-130736000D02*
X143794800Y-135456000D01*
X136834800Y-134846000D02*
X136834800Y-134346000D01*
X133674800Y-135456000D02*
X133674800Y-130736000D01*
X140634800Y-134346000D02*
X140634800Y-134846000D01*
X141234800Y-131346000D02*
X143184800Y-131346000D01*
X136234800Y-131346000D02*
X136234800Y-130736000D01*
X143184800Y-131346000D02*
X143184800Y-134846000D01*
X133674800Y-130736000D02*
X143794800Y-130736000D01*
X136834800Y-134346000D02*
X136634800Y-134346000D01*
X142034800Y-130536000D02*
X142334800Y-130536000D01*
X141234800Y-130736000D02*
X141234800Y-131346000D01*
X133674800Y-132046000D02*
X134284800Y-132046000D01*
X143794800Y-132046000D02*
X143184800Y-132046000D01*
X142844800Y-130436000D02*
X144094800Y-130436000D01*
X143184800Y-134846000D02*
X134284800Y-134846000D01*
X136634800Y-134346000D02*
X136634800Y-134846000D01*
X142334800Y-130536000D02*
X142334800Y-130736000D01*
X138834800Y-134346000D02*
X138634800Y-134346000D01*
X140834800Y-134346000D02*
X140634800Y-134346000D01*
X138834800Y-134846000D02*
X138834800Y-134346000D01*
X133674800Y-133346000D02*
X134284800Y-133346000D01*
X144094800Y-130436000D02*
X144094800Y-131686000D01*
X134284800Y-131346000D02*
X136234800Y-131346000D01*
X140834800Y-134846000D02*
X140834800Y-134346000D01*
X138734800Y-134846000D02*
X138734800Y-134346000D01*
X142034800Y-130736000D02*
X142034800Y-130536000D01*
X136734800Y-134846000D02*
X136734800Y-134346000D01*
X142034800Y-130636000D02*
X142334800Y-130636000D01*
%TO.C,C36*%
X120942980Y-118514400D02*
X120661820Y-118514400D01*
X120942980Y-119534400D02*
X120661820Y-119534400D01*
%TO.C,D7*%
X144491200Y-125816000D02*
X144491200Y-129666000D01*
X144491200Y-125816000D02*
X146491200Y-125816000D01*
X146491200Y-125816000D02*
X146491200Y-129666000D01*
%TO.C,R24*%
X133094759Y-124842000D02*
X133402041Y-124842000D01*
X133094759Y-125602000D02*
X133402041Y-125602000D01*
%TO.C,R17*%
X135357600Y-118924041D02*
X135357600Y-118616759D01*
X136117600Y-118924041D02*
X136117600Y-118616759D01*
%TO.C,kibuzzard-62BB1DD3*%
G36*
X117618510Y-117502305D02*
G01*
X117599813Y-117448048D01*
X117588594Y-117379256D01*
X117584855Y-117295930D01*
X117585430Y-117283230D01*
X117645815Y-117283230D01*
X117665500Y-117342285D01*
X117715665Y-117367050D01*
X117767735Y-117342285D01*
X117786785Y-117283230D01*
X117767735Y-117223540D01*
X117715665Y-117198140D01*
X117665500Y-117223540D01*
X117645815Y-117283230D01*
X117585430Y-117283230D01*
X117588594Y-117213309D01*
X117599813Y-117144941D01*
X117618510Y-117090825D01*
X117659944Y-117037961D01*
X117716935Y-117020340D01*
X117773132Y-117037961D01*
X117814725Y-117090825D01*
X117833775Y-117144941D01*
X117845205Y-117213309D01*
X117849015Y-117295930D01*
X117845205Y-117379256D01*
X117833775Y-117448048D01*
X117814725Y-117502305D01*
X117773132Y-117555169D01*
X117716935Y-117572790D01*
X117715665Y-117572397D01*
X117659944Y-117555169D01*
X117618510Y-117502305D01*
G37*
G36*
X116751741Y-117863420D02*
G01*
X116696511Y-117855228D01*
X116642349Y-117841661D01*
X116589778Y-117822850D01*
X116539303Y-117798978D01*
X116491412Y-117770273D01*
X116446565Y-117737012D01*
X116405194Y-117699515D01*
X116383573Y-117675660D01*
X116807615Y-117675660D01*
X116887625Y-117696615D01*
X116938742Y-117702806D01*
X116998115Y-117704870D01*
X117083046Y-117698838D01*
X117154960Y-117680740D01*
X117214491Y-117652165D01*
X117262275Y-117614700D01*
X117298629Y-117568980D01*
X117323870Y-117515640D01*
X117338634Y-117456268D01*
X117343555Y-117392450D01*
X117338475Y-117329585D01*
X117329790Y-117295930D01*
X117443885Y-117295930D01*
X117448251Y-117393403D01*
X117461347Y-117477540D01*
X117483176Y-117548342D01*
X117513735Y-117605810D01*
X117567357Y-117662254D01*
X117635091Y-117696121D01*
X117716935Y-117707410D01*
X117798779Y-117696121D01*
X117866513Y-117662254D01*
X117920135Y-117605810D01*
X117950694Y-117548342D01*
X117972522Y-117477540D01*
X117985619Y-117393403D01*
X117989985Y-117295930D01*
X117985540Y-117199569D01*
X117972205Y-117116225D01*
X117949980Y-117045899D01*
X117918865Y-116988590D01*
X117864819Y-116932146D01*
X117797509Y-116898279D01*
X117716935Y-116886990D01*
X117635091Y-116898208D01*
X117567357Y-116931863D01*
X117513735Y-116987955D01*
X117483176Y-117045065D01*
X117461347Y-117115431D01*
X117448251Y-117199053D01*
X117443885Y-117295930D01*
X117329790Y-117295930D01*
X117323235Y-117270530D01*
X117297517Y-117217031D01*
X117261005Y-117170835D01*
X117213539Y-117132735D01*
X117154960Y-117103525D01*
X117084634Y-117084951D01*
X117001925Y-117078760D01*
X116905405Y-117086380D01*
X116817775Y-117111780D01*
X116852065Y-117237510D01*
X116908580Y-117221635D01*
X116987955Y-117214650D01*
X117081300Y-117227985D01*
X117141625Y-117264815D01*
X117174645Y-117321330D01*
X117184805Y-117392450D01*
X117173216Y-117466110D01*
X117138450Y-117521990D01*
X117075744Y-117557232D01*
X116980335Y-117568980D01*
X116903500Y-117563900D01*
X116830475Y-117547390D01*
X116807615Y-117675660D01*
X116383573Y-117675660D01*
X116367697Y-117658144D01*
X116334436Y-117613297D01*
X116305731Y-117565406D01*
X116281859Y-117514932D01*
X116263048Y-117462360D01*
X116249482Y-117408199D01*
X116241289Y-117352968D01*
X116238549Y-117297200D01*
X116241289Y-117241432D01*
X116249482Y-117186201D01*
X116263048Y-117132040D01*
X116281859Y-117079468D01*
X116305731Y-117028994D01*
X116334436Y-116981103D01*
X116367697Y-116936256D01*
X116405194Y-116894885D01*
X116446565Y-116857388D01*
X116491412Y-116824127D01*
X116539303Y-116795422D01*
X116589778Y-116771550D01*
X116642349Y-116752739D01*
X116696511Y-116739172D01*
X116751741Y-116730980D01*
X116807509Y-116728240D01*
X117990091Y-116728240D01*
X118045859Y-116730980D01*
X118101089Y-116739172D01*
X118155251Y-116752739D01*
X118207822Y-116771550D01*
X118258297Y-116795422D01*
X118306188Y-116824127D01*
X118351035Y-116857388D01*
X118392406Y-116894885D01*
X118429903Y-116936256D01*
X118463164Y-116981103D01*
X118491869Y-117028994D01*
X118515741Y-117079468D01*
X118534552Y-117132040D01*
X118548118Y-117186201D01*
X118556311Y-117241432D01*
X118559051Y-117297200D01*
X118556311Y-117352968D01*
X118548118Y-117408199D01*
X118534552Y-117462360D01*
X118515741Y-117514932D01*
X118491869Y-117565406D01*
X118463164Y-117613297D01*
X118429903Y-117658144D01*
X118392406Y-117699515D01*
X118351035Y-117737012D01*
X118306188Y-117770273D01*
X118258297Y-117798978D01*
X118207822Y-117822850D01*
X118155251Y-117841661D01*
X118101089Y-117855228D01*
X118045859Y-117863420D01*
X117990091Y-117866160D01*
X116807509Y-117866160D01*
X116751741Y-117863420D01*
G37*
%TO.C,kibuzzard-62BB2226*%
G36*
X126486285Y-99261930D02*
G01*
X126486285Y-99265740D01*
X126283085Y-99265740D01*
X126283085Y-98850450D01*
X126285625Y-98850450D01*
X126486285Y-99261930D01*
G37*
G36*
X124923338Y-99110800D02*
G01*
X125228138Y-98653600D01*
X125395355Y-98653600D01*
X125602365Y-99580700D01*
X125767465Y-99580700D01*
X125813122Y-99374960D01*
X126039245Y-99374960D01*
X126143385Y-99374960D01*
X126143385Y-99580700D01*
X126283085Y-99580700D01*
X126725045Y-99580700D01*
X127182245Y-99580700D01*
X127182245Y-99470210D01*
X127100706Y-99375427D01*
X127031711Y-99284842D01*
X126975261Y-99198456D01*
X126931355Y-99116269D01*
X126899994Y-99038280D01*
X126881177Y-98964491D01*
X126874905Y-98894900D01*
X126881731Y-98830130D01*
X126902210Y-98785680D01*
X126985395Y-98751390D01*
X127045085Y-98759716D01*
X127110702Y-98784692D01*
X127182245Y-98826320D01*
X127182245Y-98706940D01*
X127111972Y-98670251D01*
X127036618Y-98648238D01*
X126956185Y-98640900D01*
X126859824Y-98656616D01*
X126789180Y-98703765D01*
X126745841Y-98781394D01*
X126731395Y-98888550D01*
X126739368Y-98968983D01*
X126763286Y-99054497D01*
X126803150Y-99145090D01*
X126844544Y-99217639D01*
X126896971Y-99295585D01*
X126960432Y-99378929D01*
X127034925Y-99467670D01*
X127034925Y-99470210D01*
X126725045Y-99470210D01*
X126725045Y-99580700D01*
X126283085Y-99580700D01*
X126283085Y-99374960D01*
X126598045Y-99374960D01*
X126598045Y-99265740D01*
X126297055Y-98653600D01*
X126143385Y-98653600D01*
X126143385Y-99265740D01*
X126039245Y-99265740D01*
X126039245Y-99374960D01*
X125813122Y-99374960D01*
X125973205Y-98653600D01*
X125827155Y-98653600D01*
X125682375Y-99453700D01*
X125681105Y-99453700D01*
X125536325Y-98653600D01*
X125395355Y-98653600D01*
X125228138Y-98653600D01*
X125342438Y-98482150D01*
X127235162Y-98482150D01*
X127654262Y-99110800D01*
X127235162Y-99739450D01*
X125342438Y-99739450D01*
X124923338Y-99110800D01*
G37*
%TO.C,U8*%
X138328400Y-119365200D02*
X139128400Y-119365200D01*
X138328400Y-119365200D02*
X136528400Y-119365200D01*
X138328400Y-116245200D02*
X137528400Y-116245200D01*
X138328400Y-116245200D02*
X139128400Y-116245200D01*
%TO.C,C7*%
X133659200Y-102520636D02*
X133659200Y-102304964D01*
X132939200Y-102520636D02*
X132939200Y-102304964D01*
%TO.C,D4*%
X106661600Y-111312400D02*
X106661600Y-112512400D01*
X104811600Y-112512400D02*
X106661600Y-112512400D01*
X104811600Y-111312400D02*
X106661600Y-111312400D01*
%TD*%
%LPC*%
D13*
G36*
X103590643Y-120141124D02*
G01*
X103591892Y-120141242D01*
X103593127Y-120141411D01*
X103594346Y-120141631D01*
X103595548Y-120141901D01*
X103596733Y-120142219D01*
X103597899Y-120142584D01*
X103599044Y-120142996D01*
X103600168Y-120143454D01*
X103601270Y-120143956D01*
X103602347Y-120144501D01*
X103603399Y-120145089D01*
X103604426Y-120145719D01*
X103605424Y-120146389D01*
X103606394Y-120147099D01*
X103607334Y-120147847D01*
X103608243Y-120148633D01*
X103609120Y-120149455D01*
X103609963Y-120150312D01*
X103610771Y-120151205D01*
X103611543Y-120152130D01*
X103612279Y-120153088D01*
X103612976Y-120154078D01*
X103613633Y-120155098D01*
X103614249Y-120156148D01*
X103614824Y-120157226D01*
X103615355Y-120158331D01*
X103615842Y-120159463D01*
X103616284Y-120160621D01*
X103616678Y-120161803D01*
X103617025Y-120163009D01*
X103617322Y-120164236D01*
X103717970Y-120702716D01*
X103718595Y-120705394D01*
X103719384Y-120708007D01*
X103720330Y-120710550D01*
X103721428Y-120713017D01*
X103722674Y-120715402D01*
X103724062Y-120717699D01*
X103725587Y-120719901D01*
X103727244Y-120722002D01*
X103729028Y-120723997D01*
X103730934Y-120725880D01*
X103732956Y-120727643D01*
X103735090Y-120729282D01*
X103737331Y-120730790D01*
X103739672Y-120732160D01*
X103742110Y-120733388D01*
X103744639Y-120734466D01*
X104107542Y-120882739D01*
X104110042Y-120883715D01*
X104112579Y-120884535D01*
X104115147Y-120885199D01*
X104117739Y-120885708D01*
X104120348Y-120886062D01*
X104122966Y-120886262D01*
X104125588Y-120886308D01*
X104128206Y-120886201D01*
X104130813Y-120885941D01*
X104133402Y-120885529D01*
X104135967Y-120884964D01*
X104138501Y-120884248D01*
X104140996Y-120883382D01*
X104143445Y-120882365D01*
X104145843Y-120881198D01*
X104148182Y-120879881D01*
X104596809Y-120568096D01*
X104597885Y-120567431D01*
X104598980Y-120566816D01*
X104600093Y-120566252D01*
X104601221Y-120565738D01*
X104602365Y-120565275D01*
X104603521Y-120564862D01*
X104604689Y-120564499D01*
X104605866Y-120564185D01*
X104607052Y-120563922D01*
X104608245Y-120563708D01*
X104610644Y-120563428D01*
X104613051Y-120563345D01*
X104615453Y-120563458D01*
X104617839Y-120563765D01*
X104620194Y-120564266D01*
X104622508Y-120564959D01*
X104623645Y-120565377D01*
X104624767Y-120565843D01*
X104625872Y-120566357D01*
X104626959Y-120566918D01*
X104628025Y-120567526D01*
X104629070Y-120568181D01*
X104630092Y-120568884D01*
X104631090Y-120569633D01*
X104632061Y-120570429D01*
X104633004Y-120571271D01*
X105014005Y-120952271D01*
X105014852Y-120953198D01*
X105015653Y-120954153D01*
X105017117Y-120956141D01*
X105018394Y-120958224D01*
X105019484Y-120960387D01*
X105020385Y-120962620D01*
X105021097Y-120964909D01*
X105021617Y-120967243D01*
X105021945Y-120969607D01*
X105022079Y-120971990D01*
X105022019Y-120974380D01*
X105021762Y-120976764D01*
X105021309Y-120979128D01*
X105020656Y-120981462D01*
X105019805Y-120983751D01*
X105018752Y-120985984D01*
X105018150Y-120987076D01*
X105017497Y-120988149D01*
X104713332Y-121432649D01*
X104712008Y-121434968D01*
X104710837Y-121437347D01*
X104709819Y-121439780D01*
X104708956Y-121442260D01*
X104708248Y-121444778D01*
X104707694Y-121447328D01*
X104707297Y-121449903D01*
X104707055Y-121452495D01*
X104706970Y-121455096D01*
X104707041Y-121457700D01*
X104707270Y-121460300D01*
X104707657Y-121462887D01*
X104708202Y-121465456D01*
X104708906Y-121467997D01*
X104709769Y-121470505D01*
X104710792Y-121472971D01*
X104869542Y-121846351D01*
X104870661Y-121848849D01*
X104871921Y-121851258D01*
X104873318Y-121853574D01*
X104874845Y-121855791D01*
X104876496Y-121857906D01*
X104878267Y-121859912D01*
X104880151Y-121861807D01*
X104882143Y-121863584D01*
X104884237Y-121865239D01*
X104886428Y-121866768D01*
X104888711Y-121868166D01*
X104891078Y-121869428D01*
X104893526Y-121870549D01*
X104896048Y-121871525D01*
X104898638Y-121872350D01*
X104901292Y-121873021D01*
X105423262Y-121969859D01*
X105423897Y-121969859D01*
X105425119Y-121970165D01*
X105426319Y-121970520D01*
X105427495Y-121970921D01*
X105428647Y-121971369D01*
X105429774Y-121971862D01*
X105430875Y-121972398D01*
X105432993Y-121973596D01*
X105434995Y-121974955D01*
X105436872Y-121976465D01*
X105438617Y-121978116D01*
X105440222Y-121979900D01*
X105441678Y-121981806D01*
X105442979Y-121983826D01*
X105444116Y-121985950D01*
X105445082Y-121988168D01*
X105445868Y-121990472D01*
X105446192Y-121991652D01*
X105446467Y-121992851D01*
X105446695Y-121994066D01*
X105446872Y-121995296D01*
X105446999Y-121996541D01*
X105447074Y-121997799D01*
X105447073Y-122533104D01*
X105447008Y-122534365D01*
X105446890Y-122535614D01*
X105446721Y-122536849D01*
X105446501Y-122538068D01*
X105446232Y-122539270D01*
X105445914Y-122540455D01*
X105445548Y-122541621D01*
X105445136Y-122542766D01*
X105444679Y-122543890D01*
X105444177Y-122544992D01*
X105443631Y-122546069D01*
X105443043Y-122547121D01*
X105442413Y-122548148D01*
X105441743Y-122549146D01*
X105441034Y-122550116D01*
X105440286Y-122551056D01*
X105439500Y-122551965D01*
X105438678Y-122552842D01*
X105437820Y-122553685D01*
X105436928Y-122554493D01*
X105436002Y-122555265D01*
X105435044Y-122556001D01*
X105434055Y-122556698D01*
X105433035Y-122557355D01*
X105431985Y-122557971D01*
X105430907Y-122558546D01*
X105429801Y-122559077D01*
X105428669Y-122559564D01*
X105427512Y-122560005D01*
X105426330Y-122560400D01*
X105425125Y-122560746D01*
X105423897Y-122561044D01*
X104915897Y-122656293D01*
X104913221Y-122656959D01*
X104910611Y-122657785D01*
X104908071Y-122658765D01*
X104905608Y-122659894D01*
X104903226Y-122661167D01*
X104900934Y-122662580D01*
X104898735Y-122664127D01*
X104896636Y-122665804D01*
X104894643Y-122667605D01*
X104892762Y-122669526D01*
X104890998Y-122671561D01*
X104889358Y-122673706D01*
X104887846Y-122675955D01*
X104886470Y-122678304D01*
X104885235Y-122680748D01*
X104884147Y-122683281D01*
X104725397Y-123080156D01*
X104724421Y-123082656D01*
X104723601Y-123085193D01*
X104722936Y-123087761D01*
X104722427Y-123090353D01*
X104722073Y-123092962D01*
X104721873Y-123095581D01*
X104721827Y-123098202D01*
X104721935Y-123100820D01*
X104722195Y-123103427D01*
X104722607Y-123106016D01*
X104723172Y-123108581D01*
X104723887Y-123111115D01*
X104724754Y-123113610D01*
X104725771Y-123116060D01*
X104726938Y-123118457D01*
X104728254Y-123120796D01*
X105017497Y-123542119D01*
X105018154Y-123543201D01*
X105018761Y-123544302D01*
X105019316Y-123545420D01*
X105019821Y-123546554D01*
X105020275Y-123547702D01*
X105020679Y-123548863D01*
X105021033Y-123550035D01*
X105021337Y-123551216D01*
X105021591Y-123552405D01*
X105021795Y-123553600D01*
X105022054Y-123556004D01*
X105022117Y-123558414D01*
X105021983Y-123560817D01*
X105021655Y-123563202D01*
X105021133Y-123565556D01*
X105020418Y-123567865D01*
X105019989Y-123569000D01*
X105019513Y-123570118D01*
X105018989Y-123571220D01*
X105018418Y-123572302D01*
X105017799Y-123573364D01*
X105017133Y-123574405D01*
X105016421Y-123575421D01*
X105015662Y-123576413D01*
X105014856Y-123577377D01*
X105014004Y-123578314D01*
X104633004Y-123959314D01*
X104632068Y-123960166D01*
X104631103Y-123960971D01*
X104629095Y-123962443D01*
X104626993Y-123963727D01*
X104624809Y-123964822D01*
X104622556Y-123965728D01*
X104620246Y-123966442D01*
X104617893Y-123966964D01*
X104615508Y-123967292D01*
X104613104Y-123967426D01*
X104610695Y-123967364D01*
X104608291Y-123967104D01*
X104605907Y-123966646D01*
X104603554Y-123965989D01*
X104601245Y-123965130D01*
X104598992Y-123964070D01*
X104597891Y-123963463D01*
X104596809Y-123962806D01*
X104184059Y-123677056D01*
X104181715Y-123675854D01*
X104179316Y-123674813D01*
X104176870Y-123673931D01*
X104174386Y-123673210D01*
X104171870Y-123672649D01*
X104169332Y-123672249D01*
X104166778Y-123672008D01*
X104164215Y-123671928D01*
X104161653Y-123672008D01*
X104159099Y-123672249D01*
X104156561Y-123672649D01*
X104154045Y-123673210D01*
X104151561Y-123673931D01*
X104149115Y-123674813D01*
X104146716Y-123675854D01*
X104144372Y-123677056D01*
X103961809Y-123774529D01*
X103960790Y-123775041D01*
X103959749Y-123775497D01*
X103958691Y-123775896D01*
X103957617Y-123776238D01*
X103956529Y-123776523D01*
X103955430Y-123776751D01*
X103954322Y-123776920D01*
X103953208Y-123777032D01*
X103952089Y-123777087D01*
X103950969Y-123777083D01*
X103949848Y-123777020D01*
X103948730Y-123776900D01*
X103947617Y-123776720D01*
X103946512Y-123776482D01*
X103945415Y-123776185D01*
X103944331Y-123775829D01*
X103943267Y-123775417D01*
X103942231Y-123774951D01*
X103941225Y-123774433D01*
X103940251Y-123773865D01*
X103939311Y-123773249D01*
X103938405Y-123772586D01*
X103937537Y-123771878D01*
X103936706Y-123771127D01*
X103935916Y-123770333D01*
X103935167Y-123769499D01*
X103934462Y-123768626D01*
X103933802Y-123767715D01*
X103933189Y-123766770D01*
X103932624Y-123765790D01*
X103932110Y-123764777D01*
X103931647Y-123763734D01*
X103554457Y-122854096D01*
X103554054Y-122852917D01*
X103553704Y-122851731D01*
X103553407Y-122850538D01*
X103553162Y-122849342D01*
X103552969Y-122848142D01*
X103552828Y-122846941D01*
X103552737Y-122845741D01*
X103552697Y-122844542D01*
X103552706Y-122843346D01*
X103552765Y-122842154D01*
X103552873Y-122840969D01*
X103553030Y-122839791D01*
X103553234Y-122838622D01*
X103553485Y-122837464D01*
X103553784Y-122836318D01*
X103554129Y-122835185D01*
X103554520Y-122834068D01*
X103554956Y-122832967D01*
X103555438Y-122831884D01*
X103555964Y-122830820D01*
X103556534Y-122829778D01*
X103557147Y-122828758D01*
X103557804Y-122827762D01*
X103558503Y-122826791D01*
X103559244Y-122825848D01*
X103560027Y-122824933D01*
X103560851Y-122824048D01*
X103561715Y-122823194D01*
X103562620Y-122822373D01*
X103563564Y-122821587D01*
X103564547Y-122820837D01*
X103565569Y-122820124D01*
X103611289Y-122792184D01*
X103615104Y-122789679D01*
X103618863Y-122787094D01*
X103622565Y-122784430D01*
X103626210Y-122781688D01*
X103629795Y-122778869D01*
X103633319Y-122775974D01*
X103636782Y-122773003D01*
X103640182Y-122769959D01*
X103680480Y-122741848D01*
X103717876Y-122710912D01*
X103752286Y-122677368D01*
X103783629Y-122641433D01*
X103811825Y-122603324D01*
X103836790Y-122563258D01*
X103858445Y-122521453D01*
X103876706Y-122478125D01*
X103891493Y-122433492D01*
X103902724Y-122387770D01*
X103910317Y-122341177D01*
X103914192Y-122293931D01*
X103914265Y-122246247D01*
X103910456Y-122198343D01*
X103902683Y-122150437D01*
X103890864Y-122102745D01*
X103883470Y-122079223D01*
X103875171Y-122056184D01*
X103855953Y-122011618D01*
X103833394Y-121969187D01*
X103807681Y-121929030D01*
X103778999Y-121891286D01*
X103747533Y-121856094D01*
X103713470Y-121823594D01*
X103676995Y-121793923D01*
X103638292Y-121767222D01*
X103597549Y-121743630D01*
X103554950Y-121723286D01*
X103510682Y-121706329D01*
X103464928Y-121692897D01*
X103417876Y-121683131D01*
X103369711Y-121677170D01*
X103345269Y-121675659D01*
X103320618Y-121675152D01*
X103295967Y-121675659D01*
X103271525Y-121677170D01*
X103247315Y-121679666D01*
X103223360Y-121683131D01*
X103199683Y-121687548D01*
X103176308Y-121692897D01*
X103153257Y-121699164D01*
X103130555Y-121706329D01*
X103108223Y-121714375D01*
X103086286Y-121723286D01*
X103064766Y-121733044D01*
X103043687Y-121743630D01*
X103023072Y-121755029D01*
X103002944Y-121767222D01*
X102983326Y-121780193D01*
X102964242Y-121793923D01*
X102945714Y-121808396D01*
X102927766Y-121823594D01*
X102910421Y-121839499D01*
X102893703Y-121856094D01*
X102877634Y-121873363D01*
X102862237Y-121891286D01*
X102847537Y-121909848D01*
X102833555Y-121929030D01*
X102820316Y-121948816D01*
X102807842Y-121969187D01*
X102796157Y-121990127D01*
X102785283Y-122011618D01*
X102775245Y-122033643D01*
X102766065Y-122056184D01*
X102757766Y-122079223D01*
X102750372Y-122102745D01*
X102743952Y-122126550D01*
X102738553Y-122150437D01*
X102734166Y-122174377D01*
X102730780Y-122198343D01*
X102728385Y-122222309D01*
X102726971Y-122246247D01*
X102726528Y-122270130D01*
X102727044Y-122293931D01*
X102728512Y-122317622D01*
X102730919Y-122341177D01*
X102734255Y-122364569D01*
X102738512Y-122387770D01*
X102743678Y-122410754D01*
X102749743Y-122433492D01*
X102756697Y-122455958D01*
X102764530Y-122478125D01*
X102773231Y-122499966D01*
X102782791Y-122521453D01*
X102793199Y-122542560D01*
X102804446Y-122563258D01*
X102816520Y-122583522D01*
X102829411Y-122603324D01*
X102843110Y-122622637D01*
X102857607Y-122641433D01*
X102872890Y-122659686D01*
X102888950Y-122677368D01*
X102905777Y-122694453D01*
X102923361Y-122710912D01*
X102941690Y-122726720D01*
X102960756Y-122741848D01*
X102980547Y-122756270D01*
X103001055Y-122769959D01*
X103004454Y-122773003D01*
X103007917Y-122775974D01*
X103011442Y-122778869D01*
X103015027Y-122781688D01*
X103018671Y-122784430D01*
X103022373Y-122787094D01*
X103026132Y-122789679D01*
X103029947Y-122792184D01*
X103075667Y-122820124D01*
X103076696Y-122820832D01*
X103077686Y-122821578D01*
X103078635Y-122822361D01*
X103079544Y-122823180D01*
X103081238Y-122824918D01*
X103082763Y-122826777D01*
X103084115Y-122828748D01*
X103085291Y-122830815D01*
X103086286Y-122832968D01*
X103087097Y-122835193D01*
X103087719Y-122837478D01*
X103088149Y-122839811D01*
X103088383Y-122842178D01*
X103088415Y-122844567D01*
X103088244Y-122846966D01*
X103087864Y-122849363D01*
X103087594Y-122850556D01*
X103087271Y-122851743D01*
X103086894Y-122852924D01*
X103086462Y-122854096D01*
X102710542Y-123765639D01*
X102710089Y-123766767D01*
X102709576Y-123767862D01*
X102709005Y-123768922D01*
X102708379Y-123769945D01*
X102707698Y-123770928D01*
X102706967Y-123771870D01*
X102706185Y-123772769D01*
X102705355Y-123773623D01*
X102704480Y-123774430D01*
X102703561Y-123775188D01*
X102702600Y-123775895D01*
X102701600Y-123776550D01*
X102700561Y-123777149D01*
X102699487Y-123777692D01*
X102698379Y-123778176D01*
X102697239Y-123778600D01*
X102696077Y-123778959D01*
X102694903Y-123779251D01*
X102693720Y-123779475D01*
X102692532Y-123779633D01*
X102691340Y-123779724D01*
X102690147Y-123779749D01*
X102688956Y-123779708D01*
X102687770Y-123779602D01*
X102686592Y-123779431D01*
X102685425Y-123779194D01*
X102684270Y-123778894D01*
X102683132Y-123778529D01*
X102682012Y-123778100D01*
X102680913Y-123777608D01*
X102679839Y-123777052D01*
X102678792Y-123776434D01*
X102496230Y-123678961D01*
X102493885Y-123677759D01*
X102491486Y-123676717D01*
X102489040Y-123675836D01*
X102486556Y-123675115D01*
X102484041Y-123674554D01*
X102481502Y-123674153D01*
X102478948Y-123673913D01*
X102476386Y-123673833D01*
X102473824Y-123673913D01*
X102471269Y-123674153D01*
X102468731Y-123674554D01*
X102466215Y-123675115D01*
X102463731Y-123675836D01*
X102461285Y-123676717D01*
X102458887Y-123677759D01*
X102456542Y-123678961D01*
X102043792Y-123964711D01*
X102042710Y-123965368D01*
X102041609Y-123965975D01*
X102040491Y-123966530D01*
X102039357Y-123967035D01*
X102038208Y-123967490D01*
X102037048Y-123967894D01*
X102035876Y-123968247D01*
X102034695Y-123968551D01*
X102033506Y-123968805D01*
X102032310Y-123969009D01*
X102029907Y-123969269D01*
X102027497Y-123969331D01*
X102025093Y-123969197D01*
X102022708Y-123968869D01*
X102020355Y-123968347D01*
X102018045Y-123967633D01*
X102016911Y-123967204D01*
X102015792Y-123966727D01*
X102014691Y-123966203D01*
X102013608Y-123965632D01*
X102012546Y-123965013D01*
X102011506Y-123964348D01*
X102010490Y-123963636D01*
X102009498Y-123962876D01*
X102008533Y-123962071D01*
X102007597Y-123961219D01*
X101626597Y-123580218D01*
X101625081Y-123578257D01*
X101623737Y-123576206D01*
X101622565Y-123574077D01*
X101621566Y-123571879D01*
X101620741Y-123569625D01*
X101620091Y-123567323D01*
X101619617Y-123564985D01*
X101619320Y-123562620D01*
X101619201Y-123560240D01*
X101619261Y-123557855D01*
X101619500Y-123555475D01*
X101619919Y-123553111D01*
X101620521Y-123550774D01*
X101621304Y-123548473D01*
X101622271Y-123546219D01*
X101623422Y-123544024D01*
X101912664Y-123122701D01*
X101913981Y-123120363D01*
X101915148Y-123117965D01*
X101916165Y-123115515D01*
X101917031Y-123113020D01*
X101917747Y-123110487D01*
X101918312Y-123107922D01*
X101918724Y-123105332D01*
X101918984Y-123102725D01*
X101919091Y-123100107D01*
X101919045Y-123097486D01*
X101918845Y-123094867D01*
X101918491Y-123092258D01*
X101917982Y-123089667D01*
X101917318Y-123087099D01*
X101916498Y-123084561D01*
X101915522Y-123082061D01*
X101756772Y-122685187D01*
X101755754Y-122682718D01*
X101754595Y-122680331D01*
X101753301Y-122678031D01*
X101751878Y-122675823D01*
X101750330Y-122673711D01*
X101748663Y-122671700D01*
X101746883Y-122669795D01*
X101744994Y-122668001D01*
X101743001Y-122666323D01*
X101740911Y-122664764D01*
X101738728Y-122663330D01*
X101736458Y-122662026D01*
X101734106Y-122660856D01*
X101731677Y-122659825D01*
X101729176Y-122658938D01*
X101726609Y-122658199D01*
X101218610Y-122562949D01*
X101217382Y-122562651D01*
X101216176Y-122562305D01*
X101214994Y-122561910D01*
X101213837Y-122561469D01*
X101212704Y-122560982D01*
X101211599Y-122560451D01*
X101210521Y-122559876D01*
X101209471Y-122559260D01*
X101207461Y-122557906D01*
X101205578Y-122556398D01*
X101203828Y-122554747D01*
X101202220Y-122552961D01*
X101200762Y-122551051D01*
X101199462Y-122549026D01*
X101198329Y-122546897D01*
X101197369Y-122544671D01*
X101196957Y-122543526D01*
X101196592Y-122542360D01*
X101196274Y-122541176D01*
X101196004Y-122539973D01*
X101195784Y-122538754D01*
X101195615Y-122537519D01*
X101195497Y-122536271D01*
X101195432Y-122535009D01*
X101195432Y-121997799D01*
X101195507Y-121996541D01*
X101195634Y-121995296D01*
X101195811Y-121994066D01*
X101196038Y-121992851D01*
X101196314Y-121991652D01*
X101196638Y-121990472D01*
X101197008Y-121989310D01*
X101197424Y-121988168D01*
X101197885Y-121987048D01*
X101198390Y-121985950D01*
X101198938Y-121984876D01*
X101199527Y-121983826D01*
X101200157Y-121982803D01*
X101200828Y-121981806D01*
X101201537Y-121980838D01*
X101202284Y-121979900D01*
X101203069Y-121978992D01*
X101203889Y-121978116D01*
X101204744Y-121977273D01*
X101205634Y-121976465D01*
X101206556Y-121975691D01*
X101207511Y-121974955D01*
X101208497Y-121974256D01*
X101209513Y-121973596D01*
X101210558Y-121972976D01*
X101211631Y-121972398D01*
X101212732Y-121971861D01*
X101213859Y-121971369D01*
X101215011Y-121970921D01*
X101216187Y-121970520D01*
X101217387Y-121970165D01*
X101218609Y-121969859D01*
X101740897Y-121874609D01*
X101743551Y-121873938D01*
X101746141Y-121873112D01*
X101748663Y-121872136D01*
X101751111Y-121871015D01*
X101753478Y-121869753D01*
X101755760Y-121868356D01*
X101757952Y-121866827D01*
X101760046Y-121865171D01*
X101762038Y-121863394D01*
X101763922Y-121861500D01*
X101765693Y-121859493D01*
X101767344Y-121857379D01*
X101768871Y-121855162D01*
X101770268Y-121852846D01*
X101771528Y-121850437D01*
X101772647Y-121847939D01*
X101931397Y-121474559D01*
X101932308Y-121472091D01*
X101933063Y-121469589D01*
X101933663Y-121467060D01*
X101934107Y-121464510D01*
X101934397Y-121461947D01*
X101934533Y-121459378D01*
X101934516Y-121456810D01*
X101934347Y-121454249D01*
X101934026Y-121451703D01*
X101933554Y-121449178D01*
X101932931Y-121446682D01*
X101932159Y-121444221D01*
X101931238Y-121441803D01*
X101930169Y-121439434D01*
X101928951Y-121437121D01*
X101927587Y-121434871D01*
X101623422Y-120990372D01*
X101622769Y-120989299D01*
X101622167Y-120988207D01*
X101621616Y-120987098D01*
X101621114Y-120985974D01*
X101620663Y-120984835D01*
X101620263Y-120983684D01*
X101619912Y-120982522D01*
X101619610Y-120981351D01*
X101619359Y-120980172D01*
X101619157Y-120978986D01*
X101619004Y-120977796D01*
X101618900Y-120976603D01*
X101618840Y-120974213D01*
X101618974Y-120971830D01*
X101619302Y-120969465D01*
X101619822Y-120967132D01*
X101620154Y-120965981D01*
X101620533Y-120964843D01*
X101620960Y-120963719D01*
X101621435Y-120962610D01*
X101621956Y-120961519D01*
X101622525Y-120960446D01*
X101623140Y-120959394D01*
X101623802Y-120958364D01*
X101624511Y-120957357D01*
X101625266Y-120956376D01*
X101626067Y-120955421D01*
X101626914Y-120954494D01*
X102007914Y-120573494D01*
X102008858Y-120572651D01*
X102009829Y-120571856D01*
X102011848Y-120570404D01*
X102013960Y-120569140D01*
X102016152Y-120568066D01*
X102018411Y-120567181D01*
X102020725Y-120566488D01*
X102023080Y-120565988D01*
X102025466Y-120565680D01*
X102027868Y-120565568D01*
X102030275Y-120565650D01*
X102032674Y-120565930D01*
X102035053Y-120566408D01*
X102037398Y-120567084D01*
X102039698Y-120567961D01*
X102041939Y-120569039D01*
X102043034Y-120569654D01*
X102044109Y-120570319D01*
X102494959Y-120879881D01*
X102497298Y-120881198D01*
X102499696Y-120882365D01*
X102502146Y-120883382D01*
X102504641Y-120884248D01*
X102507174Y-120884964D01*
X102509739Y-120885529D01*
X102512329Y-120885941D01*
X102514936Y-120886201D01*
X102517553Y-120886308D01*
X102520175Y-120886262D01*
X102522794Y-120886062D01*
X102525402Y-120885708D01*
X102527994Y-120885199D01*
X102530562Y-120884535D01*
X102533099Y-120883715D01*
X102535599Y-120882739D01*
X102897232Y-120735736D01*
X102899761Y-120734658D01*
X102902199Y-120733430D01*
X102904541Y-120732060D01*
X102906781Y-120730552D01*
X102908915Y-120728913D01*
X102910938Y-120727150D01*
X102912843Y-120725267D01*
X102914627Y-120723272D01*
X102916285Y-120721171D01*
X102917810Y-120718969D01*
X102919198Y-120716672D01*
X102920443Y-120714287D01*
X102921542Y-120711820D01*
X102922488Y-120709277D01*
X102923276Y-120706664D01*
X102923902Y-120703986D01*
X103024549Y-120164237D01*
X103024843Y-120163019D01*
X103025186Y-120161823D01*
X103025576Y-120160650D01*
X103026012Y-120159501D01*
X103026492Y-120158377D01*
X103027017Y-120157279D01*
X103027584Y-120156208D01*
X103028193Y-120155165D01*
X103029530Y-120153166D01*
X103031018Y-120151291D01*
X103032649Y-120149547D01*
X103034412Y-120147942D01*
X103036299Y-120146484D01*
X103038299Y-120145181D01*
X103040405Y-120144041D01*
X103042605Y-120143072D01*
X103043738Y-120142653D01*
X103044892Y-120142281D01*
X103046064Y-120141955D01*
X103047255Y-120141677D01*
X103048462Y-120141447D01*
X103049684Y-120141267D01*
X103050922Y-120141137D01*
X103052172Y-120141059D01*
X103589382Y-120141059D01*
X103590643Y-120141124D01*
G37*
X103590643Y-120141124D02*
X103591892Y-120141242D01*
X103593127Y-120141411D01*
X103594346Y-120141631D01*
X103595548Y-120141901D01*
X103596733Y-120142219D01*
X103597899Y-120142584D01*
X103599044Y-120142996D01*
X103600168Y-120143454D01*
X103601270Y-120143956D01*
X103602347Y-120144501D01*
X103603399Y-120145089D01*
X103604426Y-120145719D01*
X103605424Y-120146389D01*
X103606394Y-120147099D01*
X103607334Y-120147847D01*
X103608243Y-120148633D01*
X103609120Y-120149455D01*
X103609963Y-120150312D01*
X103610771Y-120151205D01*
X103611543Y-120152130D01*
X103612279Y-120153088D01*
X103612976Y-120154078D01*
X103613633Y-120155098D01*
X103614249Y-120156148D01*
X103614824Y-120157226D01*
X103615355Y-120158331D01*
X103615842Y-120159463D01*
X103616284Y-120160621D01*
X103616678Y-120161803D01*
X103617025Y-120163009D01*
X103617322Y-120164236D01*
X103717970Y-120702716D01*
X103718595Y-120705394D01*
X103719384Y-120708007D01*
X103720330Y-120710550D01*
X103721428Y-120713017D01*
X103722674Y-120715402D01*
X103724062Y-120717699D01*
X103725587Y-120719901D01*
X103727244Y-120722002D01*
X103729028Y-120723997D01*
X103730934Y-120725880D01*
X103732956Y-120727643D01*
X103735090Y-120729282D01*
X103737331Y-120730790D01*
X103739672Y-120732160D01*
X103742110Y-120733388D01*
X103744639Y-120734466D01*
X104107542Y-120882739D01*
X104110042Y-120883715D01*
X104112579Y-120884535D01*
X104115147Y-120885199D01*
X104117739Y-120885708D01*
X104120348Y-120886062D01*
X104122966Y-120886262D01*
X104125588Y-120886308D01*
X104128206Y-120886201D01*
X104130813Y-120885941D01*
X104133402Y-120885529D01*
X104135967Y-120884964D01*
X104138501Y-120884248D01*
X104140996Y-120883382D01*
X104143445Y-120882365D01*
X104145843Y-120881198D01*
X104148182Y-120879881D01*
X104596809Y-120568096D01*
X104597885Y-120567431D01*
X104598980Y-120566816D01*
X104600093Y-120566252D01*
X104601221Y-120565738D01*
X104602365Y-120565275D01*
X104603521Y-120564862D01*
X104604689Y-120564499D01*
X104605866Y-120564185D01*
X104607052Y-120563922D01*
X104608245Y-120563708D01*
X104610644Y-120563428D01*
X104613051Y-120563345D01*
X104615453Y-120563458D01*
X104617839Y-120563765D01*
X104620194Y-120564266D01*
X104622508Y-120564959D01*
X104623645Y-120565377D01*
X104624767Y-120565843D01*
X104625872Y-120566357D01*
X104626959Y-120566918D01*
X104628025Y-120567526D01*
X104629070Y-120568181D01*
X104630092Y-120568884D01*
X104631090Y-120569633D01*
X104632061Y-120570429D01*
X104633004Y-120571271D01*
X105014005Y-120952271D01*
X105014852Y-120953198D01*
X105015653Y-120954153D01*
X105017117Y-120956141D01*
X105018394Y-120958224D01*
X105019484Y-120960387D01*
X105020385Y-120962620D01*
X105021097Y-120964909D01*
X105021617Y-120967243D01*
X105021945Y-120969607D01*
X105022079Y-120971990D01*
X105022019Y-120974380D01*
X105021762Y-120976764D01*
X105021309Y-120979128D01*
X105020656Y-120981462D01*
X105019805Y-120983751D01*
X105018752Y-120985984D01*
X105018150Y-120987076D01*
X105017497Y-120988149D01*
X104713332Y-121432649D01*
X104712008Y-121434968D01*
X104710837Y-121437347D01*
X104709819Y-121439780D01*
X104708956Y-121442260D01*
X104708248Y-121444778D01*
X104707694Y-121447328D01*
X104707297Y-121449903D01*
X104707055Y-121452495D01*
X104706970Y-121455096D01*
X104707041Y-121457700D01*
X104707270Y-121460300D01*
X104707657Y-121462887D01*
X104708202Y-121465456D01*
X104708906Y-121467997D01*
X104709769Y-121470505D01*
X104710792Y-121472971D01*
X104869542Y-121846351D01*
X104870661Y-121848849D01*
X104871921Y-121851258D01*
X104873318Y-121853574D01*
X104874845Y-121855791D01*
X104876496Y-121857906D01*
X104878267Y-121859912D01*
X104880151Y-121861807D01*
X104882143Y-121863584D01*
X104884237Y-121865239D01*
X104886428Y-121866768D01*
X104888711Y-121868166D01*
X104891078Y-121869428D01*
X104893526Y-121870549D01*
X104896048Y-121871525D01*
X104898638Y-121872350D01*
X104901292Y-121873021D01*
X105423262Y-121969859D01*
X105423897Y-121969859D01*
X105425119Y-121970165D01*
X105426319Y-121970520D01*
X105427495Y-121970921D01*
X105428647Y-121971369D01*
X105429774Y-121971862D01*
X105430875Y-121972398D01*
X105432993Y-121973596D01*
X105434995Y-121974955D01*
X105436872Y-121976465D01*
X105438617Y-121978116D01*
X105440222Y-121979900D01*
X105441678Y-121981806D01*
X105442979Y-121983826D01*
X105444116Y-121985950D01*
X105445082Y-121988168D01*
X105445868Y-121990472D01*
X105446192Y-121991652D01*
X105446467Y-121992851D01*
X105446695Y-121994066D01*
X105446872Y-121995296D01*
X105446999Y-121996541D01*
X105447074Y-121997799D01*
X105447073Y-122533104D01*
X105447008Y-122534365D01*
X105446890Y-122535614D01*
X105446721Y-122536849D01*
X105446501Y-122538068D01*
X105446232Y-122539270D01*
X105445914Y-122540455D01*
X105445548Y-122541621D01*
X105445136Y-122542766D01*
X105444679Y-122543890D01*
X105444177Y-122544992D01*
X105443631Y-122546069D01*
X105443043Y-122547121D01*
X105442413Y-122548148D01*
X105441743Y-122549146D01*
X105441034Y-122550116D01*
X105440286Y-122551056D01*
X105439500Y-122551965D01*
X105438678Y-122552842D01*
X105437820Y-122553685D01*
X105436928Y-122554493D01*
X105436002Y-122555265D01*
X105435044Y-122556001D01*
X105434055Y-122556698D01*
X105433035Y-122557355D01*
X105431985Y-122557971D01*
X105430907Y-122558546D01*
X105429801Y-122559077D01*
X105428669Y-122559564D01*
X105427512Y-122560005D01*
X105426330Y-122560400D01*
X105425125Y-122560746D01*
X105423897Y-122561044D01*
X104915897Y-122656293D01*
X104913221Y-122656959D01*
X104910611Y-122657785D01*
X104908071Y-122658765D01*
X104905608Y-122659894D01*
X104903226Y-122661167D01*
X104900934Y-122662580D01*
X104898735Y-122664127D01*
X104896636Y-122665804D01*
X104894643Y-122667605D01*
X104892762Y-122669526D01*
X104890998Y-122671561D01*
X104889358Y-122673706D01*
X104887846Y-122675955D01*
X104886470Y-122678304D01*
X104885235Y-122680748D01*
X104884147Y-122683281D01*
X104725397Y-123080156D01*
X104724421Y-123082656D01*
X104723601Y-123085193D01*
X104722936Y-123087761D01*
X104722427Y-123090353D01*
X104722073Y-123092962D01*
X104721873Y-123095581D01*
X104721827Y-123098202D01*
X104721935Y-123100820D01*
X104722195Y-123103427D01*
X104722607Y-123106016D01*
X104723172Y-123108581D01*
X104723887Y-123111115D01*
X104724754Y-123113610D01*
X104725771Y-123116060D01*
X104726938Y-123118457D01*
X104728254Y-123120796D01*
X105017497Y-123542119D01*
X105018154Y-123543201D01*
X105018761Y-123544302D01*
X105019316Y-123545420D01*
X105019821Y-123546554D01*
X105020275Y-123547702D01*
X105020679Y-123548863D01*
X105021033Y-123550035D01*
X105021337Y-123551216D01*
X105021591Y-123552405D01*
X105021795Y-123553600D01*
X105022054Y-123556004D01*
X105022117Y-123558414D01*
X105021983Y-123560817D01*
X105021655Y-123563202D01*
X105021133Y-123565556D01*
X105020418Y-123567865D01*
X105019989Y-123569000D01*
X105019513Y-123570118D01*
X105018989Y-123571220D01*
X105018418Y-123572302D01*
X105017799Y-123573364D01*
X105017133Y-123574405D01*
X105016421Y-123575421D01*
X105015662Y-123576413D01*
X105014856Y-123577377D01*
X105014004Y-123578314D01*
X104633004Y-123959314D01*
X104632068Y-123960166D01*
X104631103Y-123960971D01*
X104629095Y-123962443D01*
X104626993Y-123963727D01*
X104624809Y-123964822D01*
X104622556Y-123965728D01*
X104620246Y-123966442D01*
X104617893Y-123966964D01*
X104615508Y-123967292D01*
X104613104Y-123967426D01*
X104610695Y-123967364D01*
X104608291Y-123967104D01*
X104605907Y-123966646D01*
X104603554Y-123965989D01*
X104601245Y-123965130D01*
X104598992Y-123964070D01*
X104597891Y-123963463D01*
X104596809Y-123962806D01*
X104184059Y-123677056D01*
X104181715Y-123675854D01*
X104179316Y-123674813D01*
X104176870Y-123673931D01*
X104174386Y-123673210D01*
X104171870Y-123672649D01*
X104169332Y-123672249D01*
X104166778Y-123672008D01*
X104164215Y-123671928D01*
X104161653Y-123672008D01*
X104159099Y-123672249D01*
X104156561Y-123672649D01*
X104154045Y-123673210D01*
X104151561Y-123673931D01*
X104149115Y-123674813D01*
X104146716Y-123675854D01*
X104144372Y-123677056D01*
X103961809Y-123774529D01*
X103960790Y-123775041D01*
X103959749Y-123775497D01*
X103958691Y-123775896D01*
X103957617Y-123776238D01*
X103956529Y-123776523D01*
X103955430Y-123776751D01*
X103954322Y-123776920D01*
X103953208Y-123777032D01*
X103952089Y-123777087D01*
X103950969Y-123777083D01*
X103949848Y-123777020D01*
X103948730Y-123776900D01*
X103947617Y-123776720D01*
X103946512Y-123776482D01*
X103945415Y-123776185D01*
X103944331Y-123775829D01*
X103943267Y-123775417D01*
X103942231Y-123774951D01*
X103941225Y-123774433D01*
X103940251Y-123773865D01*
X103939311Y-123773249D01*
X103938405Y-123772586D01*
X103937537Y-123771878D01*
X103936706Y-123771127D01*
X103935916Y-123770333D01*
X103935167Y-123769499D01*
X103934462Y-123768626D01*
X103933802Y-123767715D01*
X103933189Y-123766770D01*
X103932624Y-123765790D01*
X103932110Y-123764777D01*
X103931647Y-123763734D01*
X103554457Y-122854096D01*
X103554054Y-122852917D01*
X103553704Y-122851731D01*
X103553407Y-122850538D01*
X103553162Y-122849342D01*
X103552969Y-122848142D01*
X103552828Y-122846941D01*
X103552737Y-122845741D01*
X103552697Y-122844542D01*
X103552706Y-122843346D01*
X103552765Y-122842154D01*
X103552873Y-122840969D01*
X103553030Y-122839791D01*
X103553234Y-122838622D01*
X103553485Y-122837464D01*
X103553784Y-122836318D01*
X103554129Y-122835185D01*
X103554520Y-122834068D01*
X103554956Y-122832967D01*
X103555438Y-122831884D01*
X103555964Y-122830820D01*
X103556534Y-122829778D01*
X103557147Y-122828758D01*
X103557804Y-122827762D01*
X103558503Y-122826791D01*
X103559244Y-122825848D01*
X103560027Y-122824933D01*
X103560851Y-122824048D01*
X103561715Y-122823194D01*
X103562620Y-122822373D01*
X103563564Y-122821587D01*
X103564547Y-122820837D01*
X103565569Y-122820124D01*
X103611289Y-122792184D01*
X103615104Y-122789679D01*
X103618863Y-122787094D01*
X103622565Y-122784430D01*
X103626210Y-122781688D01*
X103629795Y-122778869D01*
X103633319Y-122775974D01*
X103636782Y-122773003D01*
X103640182Y-122769959D01*
X103680480Y-122741848D01*
X103717876Y-122710912D01*
X103752286Y-122677368D01*
X103783629Y-122641433D01*
X103811825Y-122603324D01*
X103836790Y-122563258D01*
X103858445Y-122521453D01*
X103876706Y-122478125D01*
X103891493Y-122433492D01*
X103902724Y-122387770D01*
X103910317Y-122341177D01*
X103914192Y-122293931D01*
X103914265Y-122246247D01*
X103910456Y-122198343D01*
X103902683Y-122150437D01*
X103890864Y-122102745D01*
X103883470Y-122079223D01*
X103875171Y-122056184D01*
X103855953Y-122011618D01*
X103833394Y-121969187D01*
X103807681Y-121929030D01*
X103778999Y-121891286D01*
X103747533Y-121856094D01*
X103713470Y-121823594D01*
X103676995Y-121793923D01*
X103638292Y-121767222D01*
X103597549Y-121743630D01*
X103554950Y-121723286D01*
X103510682Y-121706329D01*
X103464928Y-121692897D01*
X103417876Y-121683131D01*
X103369711Y-121677170D01*
X103345269Y-121675659D01*
X103320618Y-121675152D01*
X103295967Y-121675659D01*
X103271525Y-121677170D01*
X103247315Y-121679666D01*
X103223360Y-121683131D01*
X103199683Y-121687548D01*
X103176308Y-121692897D01*
X103153257Y-121699164D01*
X103130555Y-121706329D01*
X103108223Y-121714375D01*
X103086286Y-121723286D01*
X103064766Y-121733044D01*
X103043687Y-121743630D01*
X103023072Y-121755029D01*
X103002944Y-121767222D01*
X102983326Y-121780193D01*
X102964242Y-121793923D01*
X102945714Y-121808396D01*
X102927766Y-121823594D01*
X102910421Y-121839499D01*
X102893703Y-121856094D01*
X102877634Y-121873363D01*
X102862237Y-121891286D01*
X102847537Y-121909848D01*
X102833555Y-121929030D01*
X102820316Y-121948816D01*
X102807842Y-121969187D01*
X102796157Y-121990127D01*
X102785283Y-122011618D01*
X102775245Y-122033643D01*
X102766065Y-122056184D01*
X102757766Y-122079223D01*
X102750372Y-122102745D01*
X102743952Y-122126550D01*
X102738553Y-122150437D01*
X102734166Y-122174377D01*
X102730780Y-122198343D01*
X102728385Y-122222309D01*
X102726971Y-122246247D01*
X102726528Y-122270130D01*
X102727044Y-122293931D01*
X102728512Y-122317622D01*
X102730919Y-122341177D01*
X102734255Y-122364569D01*
X102738512Y-122387770D01*
X102743678Y-122410754D01*
X102749743Y-122433492D01*
X102756697Y-122455958D01*
X102764530Y-122478125D01*
X102773231Y-122499966D01*
X102782791Y-122521453D01*
X102793199Y-122542560D01*
X102804446Y-122563258D01*
X102816520Y-122583522D01*
X102829411Y-122603324D01*
X102843110Y-122622637D01*
X102857607Y-122641433D01*
X102872890Y-122659686D01*
X102888950Y-122677368D01*
X102905777Y-122694453D01*
X102923361Y-122710912D01*
X102941690Y-122726720D01*
X102960756Y-122741848D01*
X102980547Y-122756270D01*
X103001055Y-122769959D01*
X103004454Y-122773003D01*
X103007917Y-122775974D01*
X103011442Y-122778869D01*
X103015027Y-122781688D01*
X103018671Y-122784430D01*
X103022373Y-122787094D01*
X103026132Y-122789679D01*
X103029947Y-122792184D01*
X103075667Y-122820124D01*
X103076696Y-122820832D01*
X103077686Y-122821578D01*
X103078635Y-122822361D01*
X103079544Y-122823180D01*
X103081238Y-122824918D01*
X103082763Y-122826777D01*
X103084115Y-122828748D01*
X103085291Y-122830815D01*
X103086286Y-122832968D01*
X103087097Y-122835193D01*
X103087719Y-122837478D01*
X103088149Y-122839811D01*
X103088383Y-122842178D01*
X103088415Y-122844567D01*
X103088244Y-122846966D01*
X103087864Y-122849363D01*
X103087594Y-122850556D01*
X103087271Y-122851743D01*
X103086894Y-122852924D01*
X103086462Y-122854096D01*
X102710542Y-123765639D01*
X102710089Y-123766767D01*
X102709576Y-123767862D01*
X102709005Y-123768922D01*
X102708379Y-123769945D01*
X102707698Y-123770928D01*
X102706967Y-123771870D01*
X102706185Y-123772769D01*
X102705355Y-123773623D01*
X102704480Y-123774430D01*
X102703561Y-123775188D01*
X102702600Y-123775895D01*
X102701600Y-123776550D01*
X102700561Y-123777149D01*
X102699487Y-123777692D01*
X102698379Y-123778176D01*
X102697239Y-123778600D01*
X102696077Y-123778959D01*
X102694903Y-123779251D01*
X102693720Y-123779475D01*
X102692532Y-123779633D01*
X102691340Y-123779724D01*
X102690147Y-123779749D01*
X102688956Y-123779708D01*
X102687770Y-123779602D01*
X102686592Y-123779431D01*
X102685425Y-123779194D01*
X102684270Y-123778894D01*
X102683132Y-123778529D01*
X102682012Y-123778100D01*
X102680913Y-123777608D01*
X102679839Y-123777052D01*
X102678792Y-123776434D01*
X102496230Y-123678961D01*
X102493885Y-123677759D01*
X102491486Y-123676717D01*
X102489040Y-123675836D01*
X102486556Y-123675115D01*
X102484041Y-123674554D01*
X102481502Y-123674153D01*
X102478948Y-123673913D01*
X102476386Y-123673833D01*
X102473824Y-123673913D01*
X102471269Y-123674153D01*
X102468731Y-123674554D01*
X102466215Y-123675115D01*
X102463731Y-123675836D01*
X102461285Y-123676717D01*
X102458887Y-123677759D01*
X102456542Y-123678961D01*
X102043792Y-123964711D01*
X102042710Y-123965368D01*
X102041609Y-123965975D01*
X102040491Y-123966530D01*
X102039357Y-123967035D01*
X102038208Y-123967490D01*
X102037048Y-123967894D01*
X102035876Y-123968247D01*
X102034695Y-123968551D01*
X102033506Y-123968805D01*
X102032310Y-123969009D01*
X102029907Y-123969269D01*
X102027497Y-123969331D01*
X102025093Y-123969197D01*
X102022708Y-123968869D01*
X102020355Y-123968347D01*
X102018045Y-123967633D01*
X102016911Y-123967204D01*
X102015792Y-123966727D01*
X102014691Y-123966203D01*
X102013608Y-123965632D01*
X102012546Y-123965013D01*
X102011506Y-123964348D01*
X102010490Y-123963636D01*
X102009498Y-123962876D01*
X102008533Y-123962071D01*
X102007597Y-123961219D01*
X101626597Y-123580218D01*
X101625081Y-123578257D01*
X101623737Y-123576206D01*
X101622565Y-123574077D01*
X101621566Y-123571879D01*
X101620741Y-123569625D01*
X101620091Y-123567323D01*
X101619617Y-123564985D01*
X101619320Y-123562620D01*
X101619201Y-123560240D01*
X101619261Y-123557855D01*
X101619500Y-123555475D01*
X101619919Y-123553111D01*
X101620521Y-123550774D01*
X101621304Y-123548473D01*
X101622271Y-123546219D01*
X101623422Y-123544024D01*
X101912664Y-123122701D01*
X101913981Y-123120363D01*
X101915148Y-123117965D01*
X101916165Y-123115515D01*
X101917031Y-123113020D01*
X101917747Y-123110487D01*
X101918312Y-123107922D01*
X101918724Y-123105332D01*
X101918984Y-123102725D01*
X101919091Y-123100107D01*
X101919045Y-123097486D01*
X101918845Y-123094867D01*
X101918491Y-123092258D01*
X101917982Y-123089667D01*
X101917318Y-123087099D01*
X101916498Y-123084561D01*
X101915522Y-123082061D01*
X101756772Y-122685187D01*
X101755754Y-122682718D01*
X101754595Y-122680331D01*
X101753301Y-122678031D01*
X101751878Y-122675823D01*
X101750330Y-122673711D01*
X101748663Y-122671700D01*
X101746883Y-122669795D01*
X101744994Y-122668001D01*
X101743001Y-122666323D01*
X101740911Y-122664764D01*
X101738728Y-122663330D01*
X101736458Y-122662026D01*
X101734106Y-122660856D01*
X101731677Y-122659825D01*
X101729176Y-122658938D01*
X101726609Y-122658199D01*
X101218610Y-122562949D01*
X101217382Y-122562651D01*
X101216176Y-122562305D01*
X101214994Y-122561910D01*
X101213837Y-122561469D01*
X101212704Y-122560982D01*
X101211599Y-122560451D01*
X101210521Y-122559876D01*
X101209471Y-122559260D01*
X101207461Y-122557906D01*
X101205578Y-122556398D01*
X101203828Y-122554747D01*
X101202220Y-122552961D01*
X101200762Y-122551051D01*
X101199462Y-122549026D01*
X101198329Y-122546897D01*
X101197369Y-122544671D01*
X101196957Y-122543526D01*
X101196592Y-122542360D01*
X101196274Y-122541176D01*
X101196004Y-122539973D01*
X101195784Y-122538754D01*
X101195615Y-122537519D01*
X101195497Y-122536271D01*
X101195432Y-122535009D01*
X101195432Y-121997799D01*
X101195507Y-121996541D01*
X101195634Y-121995296D01*
X101195811Y-121994066D01*
X101196038Y-121992851D01*
X101196314Y-121991652D01*
X101196638Y-121990472D01*
X101197008Y-121989310D01*
X101197424Y-121988168D01*
X101197885Y-121987048D01*
X101198390Y-121985950D01*
X101198938Y-121984876D01*
X101199527Y-121983826D01*
X101200157Y-121982803D01*
X101200828Y-121981806D01*
X101201537Y-121980838D01*
X101202284Y-121979900D01*
X101203069Y-121978992D01*
X101203889Y-121978116D01*
X101204744Y-121977273D01*
X101205634Y-121976465D01*
X101206556Y-121975691D01*
X101207511Y-121974955D01*
X101208497Y-121974256D01*
X101209513Y-121973596D01*
X101210558Y-121972976D01*
X101211631Y-121972398D01*
X101212732Y-121971861D01*
X101213859Y-121971369D01*
X101215011Y-121970921D01*
X101216187Y-121970520D01*
X101217387Y-121970165D01*
X101218609Y-121969859D01*
X101740897Y-121874609D01*
X101743551Y-121873938D01*
X101746141Y-121873112D01*
X101748663Y-121872136D01*
X101751111Y-121871015D01*
X101753478Y-121869753D01*
X101755760Y-121868356D01*
X101757952Y-121866827D01*
X101760046Y-121865171D01*
X101762038Y-121863394D01*
X101763922Y-121861500D01*
X101765693Y-121859493D01*
X101767344Y-121857379D01*
X101768871Y-121855162D01*
X101770268Y-121852846D01*
X101771528Y-121850437D01*
X101772647Y-121847939D01*
X101931397Y-121474559D01*
X101932308Y-121472091D01*
X101933063Y-121469589D01*
X101933663Y-121467060D01*
X101934107Y-121464510D01*
X101934397Y-121461947D01*
X101934533Y-121459378D01*
X101934516Y-121456810D01*
X101934347Y-121454249D01*
X101934026Y-121451703D01*
X101933554Y-121449178D01*
X101932931Y-121446682D01*
X101932159Y-121444221D01*
X101931238Y-121441803D01*
X101930169Y-121439434D01*
X101928951Y-121437121D01*
X101927587Y-121434871D01*
X101623422Y-120990372D01*
X101622769Y-120989299D01*
X101622167Y-120988207D01*
X101621616Y-120987098D01*
X101621114Y-120985974D01*
X101620663Y-120984835D01*
X101620263Y-120983684D01*
X101619912Y-120982522D01*
X101619610Y-120981351D01*
X101619359Y-120980172D01*
X101619157Y-120978986D01*
X101619004Y-120977796D01*
X101618900Y-120976603D01*
X101618840Y-120974213D01*
X101618974Y-120971830D01*
X101619302Y-120969465D01*
X101619822Y-120967132D01*
X101620154Y-120965981D01*
X101620533Y-120964843D01*
X101620960Y-120963719D01*
X101621435Y-120962610D01*
X101621956Y-120961519D01*
X101622525Y-120960446D01*
X101623140Y-120959394D01*
X101623802Y-120958364D01*
X101624511Y-120957357D01*
X101625266Y-120956376D01*
X101626067Y-120955421D01*
X101626914Y-120954494D01*
X102007914Y-120573494D01*
X102008858Y-120572651D01*
X102009829Y-120571856D01*
X102011848Y-120570404D01*
X102013960Y-120569140D01*
X102016152Y-120568066D01*
X102018411Y-120567181D01*
X102020725Y-120566488D01*
X102023080Y-120565988D01*
X102025466Y-120565680D01*
X102027868Y-120565568D01*
X102030275Y-120565650D01*
X102032674Y-120565930D01*
X102035053Y-120566408D01*
X102037398Y-120567084D01*
X102039698Y-120567961D01*
X102041939Y-120569039D01*
X102043034Y-120569654D01*
X102044109Y-120570319D01*
X102494959Y-120879881D01*
X102497298Y-120881198D01*
X102499696Y-120882365D01*
X102502146Y-120883382D01*
X102504641Y-120884248D01*
X102507174Y-120884964D01*
X102509739Y-120885529D01*
X102512329Y-120885941D01*
X102514936Y-120886201D01*
X102517553Y-120886308D01*
X102520175Y-120886262D01*
X102522794Y-120886062D01*
X102525402Y-120885708D01*
X102527994Y-120885199D01*
X102530562Y-120884535D01*
X102533099Y-120883715D01*
X102535599Y-120882739D01*
X102897232Y-120735736D01*
X102899761Y-120734658D01*
X102902199Y-120733430D01*
X102904541Y-120732060D01*
X102906781Y-120730552D01*
X102908915Y-120728913D01*
X102910938Y-120727150D01*
X102912843Y-120725267D01*
X102914627Y-120723272D01*
X102916285Y-120721171D01*
X102917810Y-120718969D01*
X102919198Y-120716672D01*
X102920443Y-120714287D01*
X102921542Y-120711820D01*
X102922488Y-120709277D01*
X102923276Y-120706664D01*
X102923902Y-120703986D01*
X103024549Y-120164237D01*
X103024843Y-120163019D01*
X103025186Y-120161823D01*
X103025576Y-120160650D01*
X103026012Y-120159501D01*
X103026492Y-120158377D01*
X103027017Y-120157279D01*
X103027584Y-120156208D01*
X103028193Y-120155165D01*
X103029530Y-120153166D01*
X103031018Y-120151291D01*
X103032649Y-120149547D01*
X103034412Y-120147942D01*
X103036299Y-120146484D01*
X103038299Y-120145181D01*
X103040405Y-120144041D01*
X103042605Y-120143072D01*
X103043738Y-120142653D01*
X103044892Y-120142281D01*
X103046064Y-120141955D01*
X103047255Y-120141677D01*
X103048462Y-120141447D01*
X103049684Y-120141267D01*
X103050922Y-120141137D01*
X103052172Y-120141059D01*
X103589382Y-120141059D01*
X103590643Y-120141124D01*
D14*
%TO.C,J4*%
X119278400Y-103835200D03*
D15*
X120528400Y-103835200D03*
%TD*%
D16*
%TO.C,J9*%
X133451600Y-118561600D03*
D17*
X134951600Y-114241600D03*
D18*
X131951600Y-114241600D03*
%TD*%
D19*
%TO.C,J7*%
X102710400Y-116444400D03*
D20*
X102710400Y-115194400D03*
X102710400Y-113944400D03*
X102710400Y-112694400D03*
X102710400Y-111444400D03*
%TD*%
D21*
%TO.C,C32*%
X143611600Y-126630421D03*
D22*
X143611600Y-129130421D03*
%TD*%
D23*
%TO.C,J3*%
X112471200Y-101142800D03*
%TD*%
D24*
%TO.C,H2*%
X121564400Y-108661200D03*
%TD*%
D25*
%TO.C,J2*%
X123901200Y-99314000D03*
D20*
X123901200Y-100564000D03*
X123901200Y-101814000D03*
%TD*%
D19*
%TO.C,J8*%
X141572400Y-120528400D03*
D20*
X141572400Y-119278400D03*
X141572400Y-118028400D03*
%TD*%
D24*
%TO.C,H1*%
X109575600Y-121361200D03*
%TD*%
D23*
%TO.C,TP1*%
X111963200Y-118567200D03*
%TD*%
D19*
%TO.C,J10*%
X102717600Y-107797600D03*
D20*
X102717600Y-106547600D03*
X102717600Y-105297600D03*
X102717600Y-104047600D03*
X102717600Y-102797600D03*
%TD*%
D19*
%TO.C,J5*%
X145230000Y-113568800D03*
D20*
X145230000Y-112318800D03*
X145230000Y-111068800D03*
%TD*%
D16*
%TO.C,J1*%
X144215600Y-103581200D03*
D26*
X139895600Y-102081200D03*
D27*
X139895600Y-105081200D03*
%TD*%
D14*
%TO.C,J6*%
X119278400Y-99872800D03*
D15*
X120528400Y-99872800D03*
%TD*%
D28*
%TO.C,C12*%
X130403600Y-101829200D03*
X130403600Y-100279200D03*
%TD*%
D29*
%TO.C,C5*%
X130454400Y-107276600D03*
X130454400Y-108826600D03*
%TD*%
D30*
%TO.C,U1*%
X134831700Y-102397600D03*
X134831700Y-101447600D03*
X134831700Y-100497600D03*
X137106700Y-100497600D03*
X137106700Y-101447600D03*
X137106700Y-102397600D03*
%TD*%
D31*
%TO.C,U13*%
X124154300Y-113355600D03*
X124154300Y-114005600D03*
X124154300Y-114655600D03*
X124154300Y-115305600D03*
X124154300Y-115955600D03*
D32*
X123016800Y-117093100D03*
X122366800Y-117093100D03*
X121716800Y-117093100D03*
X121066800Y-117093100D03*
X120416800Y-117093100D03*
D31*
X119279300Y-115955600D03*
X119279300Y-115305600D03*
X119279300Y-114655600D03*
X119279300Y-114005600D03*
X119279300Y-113355600D03*
D32*
X120416800Y-112218100D03*
X121066800Y-112218100D03*
X121716800Y-112218100D03*
X122366800Y-112218100D03*
X123016800Y-112218100D03*
D33*
X121716800Y-114655600D03*
%TD*%
D34*
%TO.C,R25*%
X143969200Y-124206000D03*
X142949200Y-124206000D03*
%TD*%
D35*
%TO.C,R13*%
X107465400Y-101117400D03*
X108485400Y-101117400D03*
%TD*%
D36*
%TO.C,C27*%
X143937200Y-123291600D03*
X142977200Y-123291600D03*
%TD*%
D35*
%TO.C,R28*%
X132738400Y-124307600D03*
X133758400Y-124307600D03*
%TD*%
D28*
%TO.C,C10*%
X131876800Y-101829200D03*
X131876800Y-100279200D03*
%TD*%
%TO.C,C6*%
X130454400Y-104965800D03*
X130454400Y-103415800D03*
%TD*%
D37*
%TO.C,Q1*%
X104561600Y-114988100D03*
X106461600Y-114988100D03*
X105511600Y-116863100D03*
%TD*%
D36*
%TO.C,C34*%
X133728400Y-123393200D03*
X132768400Y-123393200D03*
%TD*%
D38*
%TO.C,U3*%
X126773700Y-105344000D03*
X126773700Y-103444000D03*
X128648700Y-104394000D03*
%TD*%
D39*
%TO.C,C31*%
X125730000Y-112290800D03*
X125730000Y-111330800D03*
%TD*%
D40*
%TO.C,C35*%
X129618800Y-120446800D03*
X130578800Y-120446800D03*
%TD*%
D37*
%TO.C,Q2*%
X104510800Y-106453700D03*
X106410800Y-106453700D03*
X105460800Y-108328700D03*
%TD*%
D41*
%TO.C,Q3*%
X139612400Y-112872400D03*
X139612400Y-113512400D03*
X139612400Y-114172400D03*
X139612400Y-114812400D03*
D42*
X137787400Y-113842400D03*
%TD*%
D43*
%TO.C,D3*%
X106211600Y-113309400D03*
X104811600Y-113309400D03*
%TD*%
%TO.C,D6*%
X106160800Y-103352600D03*
X104760800Y-103352600D03*
%TD*%
D44*
%TO.C,R31*%
X126441200Y-113844700D03*
X126441200Y-115669700D03*
%TD*%
D45*
%TO.C,R29*%
X139789400Y-128219200D03*
X141439400Y-128219200D03*
%TD*%
D36*
%TO.C,C33*%
X133728400Y-122224800D03*
X132768400Y-122224800D03*
%TD*%
D46*
%TO.C,R30*%
X136918200Y-128270000D03*
X135268200Y-128270000D03*
%TD*%
D34*
%TO.C,R20*%
X105970800Y-102184200D03*
X104950800Y-102184200D03*
%TD*%
D35*
%TO.C,R2*%
X134059200Y-99517200D03*
X135079200Y-99517200D03*
%TD*%
D40*
%TO.C,C28*%
X132768400Y-121310400D03*
X133728400Y-121310400D03*
%TD*%
D47*
%TO.C,U11*%
X128336000Y-113213300D03*
X129286000Y-113213300D03*
X130236000Y-113213300D03*
X130236000Y-115488300D03*
X128336000Y-115488300D03*
%TD*%
D48*
%TO.C,D1*%
X137086800Y-104166400D03*
X137086800Y-107466400D03*
%TD*%
D49*
%TO.C,L1*%
X134981600Y-105714800D03*
X132181600Y-105714800D03*
%TD*%
D40*
%TO.C,C25*%
X139016800Y-119989600D03*
X139976800Y-119989600D03*
%TD*%
D50*
%TO.C,C9*%
X125272800Y-103152000D03*
X125272800Y-104112000D03*
%TD*%
D34*
%TO.C,R27*%
X143967200Y-122377200D03*
X142947200Y-122377200D03*
%TD*%
D50*
%TO.C,C8*%
X125222000Y-106606400D03*
X125222000Y-107566400D03*
%TD*%
D34*
%TO.C,R16*%
X106021600Y-110744000D03*
X105001600Y-110744000D03*
%TD*%
D51*
%TO.C,JP2*%
X101396800Y-107086400D03*
X101396800Y-107797600D03*
X101371400Y-108508800D03*
%TD*%
D52*
%TO.C,U12*%
X135902700Y-125756800D03*
X135902700Y-125256801D03*
X135902700Y-124756799D03*
X135902700Y-124256800D03*
X135902700Y-123756801D03*
X135902700Y-123256799D03*
X135902700Y-122756800D03*
D53*
X136828400Y-121831100D03*
X137328399Y-121831100D03*
X137828401Y-121831100D03*
X138328400Y-121831100D03*
X138828399Y-121831100D03*
X139328401Y-121831100D03*
X139828400Y-121831100D03*
D52*
X140754100Y-122756800D03*
X140754100Y-123256799D03*
X140754100Y-123756801D03*
X140754100Y-124256800D03*
X140754100Y-124756799D03*
X140754100Y-125256801D03*
X140754100Y-125756800D03*
D53*
X139828400Y-126682500D03*
X139328401Y-126682500D03*
X138828399Y-126682500D03*
X138328400Y-126682500D03*
X137828401Y-126682500D03*
X137328399Y-126682500D03*
X136828400Y-126682500D03*
D54*
X138328400Y-124256800D03*
%TD*%
D34*
%TO.C,R22*%
X106021600Y-119430800D03*
X105001600Y-119430800D03*
%TD*%
D55*
%TO.C,U14*%
X130473200Y-119110000D03*
X129673200Y-119110000D03*
X128873200Y-119110000D03*
X128073200Y-119110000D03*
X127273200Y-119110000D03*
X126473200Y-119110000D03*
D56*
X126473200Y-118110000D03*
D55*
X126473200Y-117110000D03*
X127273200Y-117110000D03*
X128073200Y-117110000D03*
X128873200Y-117110000D03*
X129673200Y-117110000D03*
X130473200Y-117110000D03*
D56*
X130473200Y-118110000D03*
%TD*%
D34*
%TO.C,R3*%
X135079200Y-98552000D03*
X134059200Y-98552000D03*
%TD*%
D43*
%TO.C,D5*%
X106160800Y-104749600D03*
X104760800Y-104749600D03*
%TD*%
D57*
%TO.C,JP5*%
X124053600Y-119024400D03*
X123342400Y-119024400D03*
X122631200Y-118999000D03*
%TD*%
D51*
%TO.C,JP1*%
X101371400Y-115747800D03*
X101371400Y-116459000D03*
X101346000Y-117170200D03*
%TD*%
D58*
%TO.C,FB1*%
X127101600Y-110464500D03*
X127101600Y-112039500D03*
%TD*%
D59*
%TO.C,C1*%
X139004000Y-99415600D03*
X140904000Y-99415600D03*
%TD*%
D34*
%TO.C,R23*%
X106021600Y-118465600D03*
X105001600Y-118465600D03*
%TD*%
D36*
%TO.C,C30*%
X125803600Y-110236000D03*
X124843600Y-110236000D03*
%TD*%
D60*
%TO.C,R19*%
X135737600Y-116380800D03*
X135737600Y-117400800D03*
%TD*%
D34*
%TO.C,R26*%
X143969200Y-125120400D03*
X142949200Y-125120400D03*
%TD*%
D38*
%TO.C,U2*%
X126773700Y-108747600D03*
X126773700Y-106847600D03*
X128648700Y-107797600D03*
%TD*%
D34*
%TO.C,R18*%
X110339600Y-101117400D03*
X109319600Y-101117400D03*
%TD*%
D47*
%TO.C,U6*%
X107939800Y-102545300D03*
X108889800Y-102545300D03*
X109839800Y-102545300D03*
X109839800Y-104820300D03*
X108889800Y-104820300D03*
X107939800Y-104820300D03*
%TD*%
D61*
%TO.C,J12*%
X141734800Y-132546000D03*
D62*
X139734800Y-132546000D03*
X137734800Y-132546000D03*
X135734800Y-132546000D03*
%TD*%
D63*
%TO.C,C36*%
X121577400Y-119024400D03*
X120027400Y-119024400D03*
%TD*%
D64*
%TO.C,D7*%
X145491200Y-126616000D03*
X145491200Y-129416000D03*
%TD*%
D35*
%TO.C,R24*%
X132738400Y-125222000D03*
X133758400Y-125222000D03*
%TD*%
D65*
%TO.C,R17*%
X135737600Y-119280400D03*
X135737600Y-118260400D03*
%TD*%
D30*
%TO.C,U8*%
X137190900Y-118755200D03*
X137190900Y-117805200D03*
X137190900Y-116855200D03*
X139465900Y-116855200D03*
X139465900Y-117805200D03*
X139465900Y-118755200D03*
%TD*%
D39*
%TO.C,C7*%
X133299200Y-102892800D03*
X133299200Y-101932800D03*
%TD*%
D43*
%TO.C,D4*%
X106211600Y-111912400D03*
X104811600Y-111912400D03*
%TD*%
M02*
