%TF.GenerationSoftware,KiCad,Pcbnew,(6.0.6)*%
%TF.CreationDate,2022-09-22T21:47:15+08:00*%
%TF.ProjectId,Stealthburner_Toolhead_PCB,53746561-6c74-4686-9275-726e65725f54,rev?*%
%TF.SameCoordinates,Original*%
%TF.FileFunction,Paste,Bot*%
%TF.FilePolarity,Positive*%
%FSLAX46Y46*%
G04 Gerber Fmt 4.6, Leading zero omitted, Abs format (unit mm)*
G04 Created by KiCad (PCBNEW (6.0.6)) date 2022-09-22 21:47:15*
%MOMM*%
%LPD*%
G01*
G04 APERTURE LIST*
G04 Aperture macros list*
%AMRoundRect*
0 Rectangle with rounded corners*
0 $1 Rounding radius*
0 $2 $3 $4 $5 $6 $7 $8 $9 X,Y pos of 4 corners*
0 Add a 4 corners polygon primitive as box body*
4,1,4,$2,$3,$4,$5,$6,$7,$8,$9,$2,$3,0*
0 Add four circle primitives for the rounded corners*
1,1,$1+$1,$2,$3*
1,1,$1+$1,$4,$5*
1,1,$1+$1,$6,$7*
1,1,$1+$1,$8,$9*
0 Add four rect primitives between the rounded corners*
20,1,$1+$1,$2,$3,$4,$5,0*
20,1,$1+$1,$4,$5,$6,$7,0*
20,1,$1+$1,$6,$7,$8,$9,0*
20,1,$1+$1,$8,$9,$2,$3,0*%
G04 Aperture macros list end*
%ADD10RoundRect,0.225000X0.250000X-0.225000X0.250000X0.225000X-0.250000X0.225000X-0.250000X-0.225000X0*%
%ADD11RoundRect,0.225000X-0.250000X0.225000X-0.250000X-0.225000X0.250000X-0.225000X0.250000X0.225000X0*%
%ADD12RoundRect,0.150000X-0.512500X-0.150000X0.512500X-0.150000X0.512500X0.150000X-0.512500X0.150000X0*%
%ADD13RoundRect,0.250000X0.405000X0.405000X-0.405000X0.405000X-0.405000X-0.405000X0.405000X-0.405000X0*%
%ADD14RoundRect,0.075000X0.337500X0.075000X-0.337500X0.075000X-0.337500X-0.075000X0.337500X-0.075000X0*%
%ADD15RoundRect,0.075000X0.075000X0.337500X-0.075000X0.337500X-0.075000X-0.337500X0.075000X-0.337500X0*%
%ADD16RoundRect,0.135000X0.135000X0.185000X-0.135000X0.185000X-0.135000X-0.185000X0.135000X-0.185000X0*%
%ADD17RoundRect,0.140000X0.140000X0.170000X-0.140000X0.170000X-0.140000X-0.170000X0.140000X-0.170000X0*%
%ADD18RoundRect,0.135000X-0.135000X-0.185000X0.135000X-0.185000X0.135000X0.185000X-0.135000X0.185000X0*%
%ADD19RoundRect,0.150000X-0.150000X0.587500X-0.150000X-0.587500X0.150000X-0.587500X0.150000X0.587500X0*%
%ADD20RoundRect,0.150000X-0.587500X-0.150000X0.587500X-0.150000X0.587500X0.150000X-0.587500X0.150000X0*%
%ADD21RoundRect,0.140000X0.170000X-0.140000X0.170000X0.140000X-0.170000X0.140000X-0.170000X-0.140000X0*%
%ADD22RoundRect,0.140000X-0.140000X-0.170000X0.140000X-0.170000X0.140000X0.170000X-0.140000X0.170000X0*%
%ADD23RoundRect,0.150000X0.150000X-0.587500X0.150000X0.587500X-0.150000X0.587500X-0.150000X-0.587500X0*%
%ADD24R,0.570000X0.738000*%
%ADD25R,0.630000X0.500000*%
%ADD26R,0.630000X0.505000*%
%ADD27R,0.600000X0.700000*%
%ADD28R,0.700000X0.600000*%
%ADD29RoundRect,0.250000X-0.450000X0.262500X-0.450000X-0.262500X0.450000X-0.262500X0.450000X0.262500X0*%
%ADD30RoundRect,0.200000X-0.275000X0.200000X-0.275000X-0.200000X0.275000X-0.200000X0.275000X0.200000X0*%
%ADD31RoundRect,0.150000X-0.150000X0.512500X-0.150000X-0.512500X0.150000X-0.512500X0.150000X0.512500X0*%
%ADD32R,1.200000X0.900000*%
%ADD33R,1.200000X3.700000*%
%ADD34RoundRect,0.140000X-0.170000X0.140000X-0.170000X-0.140000X0.170000X-0.140000X0.170000X0.140000X0*%
%ADD35R,0.762000X0.254000*%
%ADD36R,0.254000X0.762000*%
%ADD37R,3.192000X3.192000*%
%ADD38RoundRect,0.150000X0.150000X-0.325000X0.150000X0.325000X-0.150000X0.325000X-0.150000X-0.325000X0*%
%ADD39RoundRect,0.150000X0.325000X-0.150000X0.325000X0.150000X-0.325000X0.150000X-0.325000X-0.150000X0*%
%ADD40RoundRect,0.218750X-0.256250X0.218750X-0.256250X-0.218750X0.256250X-0.218750X0.256250X0.218750X0*%
%ADD41RoundRect,0.250000X-0.250000X-0.475000X0.250000X-0.475000X0.250000X0.475000X-0.250000X0.475000X0*%
%ADD42RoundRect,0.135000X-0.185000X0.135000X-0.185000X-0.135000X0.185000X-0.135000X0.185000X0.135000X0*%
%ADD43RoundRect,0.150000X0.150000X-0.512500X0.150000X0.512500X-0.150000X0.512500X-0.150000X-0.512500X0*%
%ADD44RoundRect,0.225000X0.225000X0.250000X-0.225000X0.250000X-0.225000X-0.250000X0.225000X-0.250000X0*%
%ADD45R,1.100000X1.100000*%
%ADD46RoundRect,0.135000X0.185000X-0.135000X0.185000X0.135000X-0.185000X0.135000X-0.185000X-0.135000X0*%
G04 APERTURE END LIST*
D10*
%TO.C,C12*%
X130403600Y-101829200D03*
X130403600Y-100279200D03*
%TD*%
D11*
%TO.C,C5*%
X130454400Y-107276600D03*
X130454400Y-108826600D03*
%TD*%
D12*
%TO.C,U1*%
X134831700Y-102397600D03*
X134831700Y-101447600D03*
X134831700Y-100497600D03*
X137106700Y-100497600D03*
X137106700Y-101447600D03*
X137106700Y-102397600D03*
%TD*%
D13*
%TO.C,U13*%
X120906800Y-113845600D03*
X120906800Y-115465600D03*
X122526800Y-115465600D03*
X122526800Y-113845600D03*
D14*
X124154300Y-113355600D03*
X124154300Y-114005600D03*
X124154300Y-114655600D03*
X124154300Y-115305600D03*
X124154300Y-115955600D03*
D15*
X123016800Y-117093100D03*
X122366800Y-117093100D03*
X121716800Y-117093100D03*
X121066800Y-117093100D03*
X120416800Y-117093100D03*
D14*
X119279300Y-115955600D03*
X119279300Y-115305600D03*
X119279300Y-114655600D03*
X119279300Y-114005600D03*
X119279300Y-113355600D03*
D15*
X120416800Y-112218100D03*
X121066800Y-112218100D03*
X121716800Y-112218100D03*
X122366800Y-112218100D03*
X123016800Y-112218100D03*
%TD*%
D16*
%TO.C,R25*%
X143969200Y-124206000D03*
X142949200Y-124206000D03*
%TD*%
%TO.C,R13*%
X107037600Y-108254800D03*
X106017600Y-108254800D03*
%TD*%
D17*
%TO.C,C27*%
X143937200Y-123291600D03*
X142977200Y-123291600D03*
%TD*%
D18*
%TO.C,R28*%
X132738400Y-124307600D03*
X133758400Y-124307600D03*
%TD*%
D10*
%TO.C,C10*%
X131876800Y-101829200D03*
X131876800Y-100279200D03*
%TD*%
%TO.C,C6*%
X130454400Y-104965800D03*
X130454400Y-103415800D03*
%TD*%
D19*
%TO.C,Q1*%
X101259600Y-112549700D03*
X103159600Y-112549700D03*
X102209600Y-114424700D03*
%TD*%
D17*
%TO.C,C34*%
X133728400Y-123393200D03*
X132768400Y-123393200D03*
%TD*%
D20*
%TO.C,U3*%
X126773700Y-105344000D03*
X126773700Y-103444000D03*
X128648700Y-104394000D03*
%TD*%
D21*
%TO.C,C31*%
X125730000Y-112290800D03*
X125730000Y-111330800D03*
%TD*%
D22*
%TO.C,C35*%
X129618800Y-120446800D03*
X130578800Y-120446800D03*
%TD*%
D23*
%TO.C,Q2*%
X103159600Y-103858300D03*
X101259600Y-103858300D03*
X102209600Y-101983300D03*
%TD*%
D24*
%TO.C,Q3*%
X137312400Y-114452400D03*
X137312400Y-113232400D03*
D25*
X136732400Y-113512400D03*
D24*
X138262400Y-114452400D03*
X138262400Y-113232400D03*
D26*
X136732400Y-112869900D03*
X136732400Y-114814900D03*
D25*
X136732400Y-114172400D03*
X139612400Y-112872400D03*
X139612400Y-113512400D03*
X139612400Y-114172400D03*
X139612400Y-114812400D03*
%TD*%
D27*
%TO.C,D3*%
X101509600Y-110845600D03*
X102909600Y-110845600D03*
%TD*%
D28*
%TO.C,D6*%
X106070400Y-103112800D03*
X106070400Y-101712800D03*
%TD*%
D29*
%TO.C,R31*%
X126441200Y-113844700D03*
X126441200Y-115669700D03*
%TD*%
D30*
%TO.C,R29*%
X139801600Y-127749800D03*
X139801600Y-129399800D03*
%TD*%
D17*
%TO.C,C33*%
X133728400Y-122224800D03*
X132768400Y-122224800D03*
%TD*%
D30*
%TO.C,R30*%
X136906000Y-127749800D03*
X136906000Y-129399800D03*
%TD*%
D18*
%TO.C,R20*%
X107846400Y-107289600D03*
X108866400Y-107289600D03*
%TD*%
%TO.C,R2*%
X134059200Y-99364800D03*
X135079200Y-99364800D03*
%TD*%
D22*
%TO.C,C28*%
X132768400Y-121310400D03*
X133728400Y-121310400D03*
%TD*%
D31*
%TO.C,U11*%
X128336000Y-113213300D03*
X129286000Y-113213300D03*
X130236000Y-113213300D03*
X130236000Y-115488300D03*
X128336000Y-115488300D03*
%TD*%
D32*
%TO.C,D1*%
X137086800Y-104166400D03*
X137086800Y-107466400D03*
%TD*%
D33*
%TO.C,L1*%
X134981600Y-105714800D03*
X132181600Y-105714800D03*
%TD*%
D21*
%TO.C,C25*%
X140766800Y-118793200D03*
X140766800Y-117833200D03*
%TD*%
D34*
%TO.C,C9*%
X125272800Y-103406000D03*
X125272800Y-104366000D03*
%TD*%
D16*
%TO.C,R27*%
X143967200Y-122377200D03*
X142947200Y-122377200D03*
%TD*%
D34*
%TO.C,C8*%
X125222000Y-106606400D03*
X125222000Y-107566400D03*
%TD*%
D16*
%TO.C,R16*%
X108866400Y-108254800D03*
X107846400Y-108254800D03*
%TD*%
D35*
%TO.C,U12*%
X135902700Y-125756800D03*
X135902700Y-125256801D03*
X135902700Y-124756799D03*
X135902700Y-124256800D03*
X135902700Y-123756801D03*
X135902700Y-123256799D03*
X135902700Y-122756800D03*
D36*
X136828400Y-121831100D03*
X137328399Y-121831100D03*
X137828401Y-121831100D03*
X138328400Y-121831100D03*
X138828399Y-121831100D03*
X139328401Y-121831100D03*
X139828400Y-121831100D03*
D35*
X140754100Y-122756800D03*
X140754100Y-123256799D03*
X140754100Y-123756801D03*
X140754100Y-124256800D03*
X140754100Y-124756799D03*
X140754100Y-125256801D03*
X140754100Y-125756800D03*
D36*
X139828400Y-126682500D03*
X139328401Y-126682500D03*
X138828399Y-126682500D03*
X138328400Y-126682500D03*
X137828401Y-126682500D03*
X137328399Y-126682500D03*
X136828400Y-126682500D03*
D37*
X138328400Y-124256800D03*
%TD*%
D16*
%TO.C,R22*%
X106021600Y-119837200D03*
X105001600Y-119837200D03*
%TD*%
D38*
%TO.C,U14*%
X130473200Y-119110000D03*
X129673200Y-119110000D03*
X128873200Y-119110000D03*
X128073200Y-119110000D03*
X127273200Y-119110000D03*
X126473200Y-119110000D03*
D39*
X126473200Y-118110000D03*
D38*
X126473200Y-117110000D03*
X127273200Y-117110000D03*
X128073200Y-117110000D03*
X128873200Y-117110000D03*
X129673200Y-117110000D03*
X130473200Y-117110000D03*
D39*
X130473200Y-118110000D03*
%TD*%
D16*
%TO.C,R3*%
X135079200Y-98450400D03*
X134059200Y-98450400D03*
%TD*%
D28*
%TO.C,D5*%
X104648000Y-103112800D03*
X104648000Y-101712800D03*
%TD*%
D40*
%TO.C,FB1*%
X127101600Y-110464500D03*
X127101600Y-112039500D03*
%TD*%
D41*
%TO.C,C1*%
X139004000Y-99872800D03*
X140904000Y-99872800D03*
%TD*%
D16*
%TO.C,R23*%
X106021600Y-118872000D03*
X105001600Y-118872000D03*
%TD*%
D17*
%TO.C,C30*%
X125803600Y-110236000D03*
X124843600Y-110236000D03*
%TD*%
D42*
%TO.C,R19*%
X135737600Y-116380800D03*
X135737600Y-117400800D03*
%TD*%
D16*
%TO.C,R26*%
X143969200Y-125120400D03*
X142949200Y-125120400D03*
%TD*%
D20*
%TO.C,U2*%
X126773700Y-108747600D03*
X126773700Y-106847600D03*
X128648700Y-107797600D03*
%TD*%
D18*
%TO.C,R18*%
X104188800Y-108254800D03*
X105208800Y-108254800D03*
%TD*%
D43*
%TO.C,U6*%
X106563200Y-106953900D03*
X105613200Y-106953900D03*
X104663200Y-106953900D03*
X104663200Y-104678900D03*
X105613200Y-104678900D03*
X106563200Y-104678900D03*
%TD*%
D44*
%TO.C,C36*%
X121577400Y-119024400D03*
X120027400Y-119024400D03*
%TD*%
D45*
%TO.C,D7*%
X145389600Y-127733600D03*
X145389600Y-130533600D03*
%TD*%
D18*
%TO.C,R24*%
X132738400Y-125222000D03*
X133758400Y-125222000D03*
%TD*%
D46*
%TO.C,R17*%
X135737600Y-119280400D03*
X135737600Y-118260400D03*
%TD*%
D12*
%TO.C,U8*%
X137190900Y-118755200D03*
X137190900Y-117805200D03*
X137190900Y-116855200D03*
X139465900Y-116855200D03*
X139465900Y-117805200D03*
X139465900Y-118755200D03*
%TD*%
D21*
%TO.C,C7*%
X133299200Y-102892800D03*
X133299200Y-101932800D03*
%TD*%
D27*
%TO.C,D4*%
X101509600Y-109474000D03*
X102909600Y-109474000D03*
%TD*%
M02*
