%TF.GenerationSoftware,KiCad,Pcbnew,(6.0.6)*%
%TF.CreationDate,2022-09-25T21:31:05+08:00*%
%TF.ProjectId,Stealthburner_Toolhead_PCB,53746561-6c74-4686-9275-726e65725f54,rev?*%
%TF.SameCoordinates,Original*%
%TF.FileFunction,Paste,Top*%
%TF.FilePolarity,Positive*%
%FSLAX46Y46*%
G04 Gerber Fmt 4.6, Leading zero omitted, Abs format (unit mm)*
G04 Created by KiCad (PCBNEW (6.0.6)) date 2022-09-25 21:31:05*
%MOMM*%
%LPD*%
G01*
G04 APERTURE LIST*
G04 Aperture macros list*
%AMRoundRect*
0 Rectangle with rounded corners*
0 $1 Rounding radius*
0 $2 $3 $4 $5 $6 $7 $8 $9 X,Y pos of 4 corners*
0 Add a 4 corners polygon primitive as box body*
4,1,4,$2,$3,$4,$5,$6,$7,$8,$9,$2,$3,0*
0 Add four circle primitives for the rounded corners*
1,1,$1+$1,$2,$3*
1,1,$1+$1,$4,$5*
1,1,$1+$1,$6,$7*
1,1,$1+$1,$8,$9*
0 Add four rect primitives between the rounded corners*
20,1,$1+$1,$2,$3,$4,$5,0*
20,1,$1+$1,$4,$5,$6,$7,0*
20,1,$1+$1,$6,$7,$8,$9,0*
20,1,$1+$1,$8,$9,$2,$3,0*%
G04 Aperture macros list end*
%ADD10C,0.100000*%
%ADD11RoundRect,0.140000X-0.170000X0.140000X-0.170000X-0.140000X0.170000X-0.140000X0.170000X0.140000X0*%
%ADD12RoundRect,0.140000X0.170000X-0.140000X0.170000X0.140000X-0.170000X0.140000X-0.170000X-0.140000X0*%
%ADD13R,0.812800X0.177800*%
%ADD14R,0.177800X0.812800*%
%ADD15RoundRect,0.140000X-0.140000X-0.170000X0.140000X-0.170000X0.140000X0.170000X-0.140000X0.170000X0*%
%ADD16RoundRect,0.135000X0.135000X0.185000X-0.135000X0.185000X-0.135000X-0.185000X0.135000X-0.185000X0*%
%ADD17RoundRect,0.200000X-0.600000X0.200000X-0.600000X-0.200000X0.600000X-0.200000X0.600000X0.200000X0*%
%ADD18RoundRect,0.250001X-1.249999X0.799999X-1.249999X-0.799999X1.249999X-0.799999X1.249999X0.799999X0*%
%ADD19RoundRect,0.135000X-0.135000X-0.185000X0.135000X-0.185000X0.135000X0.185000X-0.135000X0.185000X0*%
%ADD20RoundRect,0.250000X-0.250000X-1.500000X0.250000X-1.500000X0.250000X1.500000X-0.250000X1.500000X0*%
%ADD21RoundRect,0.250001X-0.499999X-1.449999X0.499999X-1.449999X0.499999X1.449999X-0.499999X1.449999X0*%
%ADD22R,0.700000X0.600000*%
%ADD23RoundRect,0.140000X0.140000X0.170000X-0.140000X0.170000X-0.140000X-0.170000X0.140000X-0.170000X0*%
%ADD24RoundRect,0.135000X-0.185000X0.135000X-0.185000X-0.135000X0.185000X-0.135000X0.185000X0.135000X0*%
%ADD25R,0.400000X1.900000*%
%ADD26RoundRect,0.150000X-0.150000X-0.335000X0.150000X-0.335000X0.150000X0.335000X-0.150000X0.335000X0*%
%ADD27RoundRect,0.100000X-0.300000X-0.100000X0.300000X-0.100000X0.300000X0.100000X-0.300000X0.100000X0*%
%ADD28RoundRect,0.135000X0.185000X-0.135000X0.185000X0.135000X-0.185000X0.135000X-0.185000X-0.135000X0*%
%ADD29R,0.812800X0.254000*%
%ADD30R,0.203200X1.600200*%
%ADD31RoundRect,0.150000X-0.150000X0.512500X-0.150000X-0.512500X0.150000X-0.512500X0.150000X0.512500X0*%
%ADD32R,1.380000X0.450000*%
%ADD33R,1.550000X1.425000*%
%ADD34R,1.300000X1.650000*%
%ADD35R,1.900000X1.000000*%
%ADD36R,1.900000X1.800000*%
G04 APERTURE END LIST*
%TO.C,U7*%
G36*
X113207800Y-110769400D02*
G01*
X112064800Y-110769400D01*
X112064800Y-109626400D01*
X113207800Y-109626400D01*
X113207800Y-110769400D01*
G37*
D10*
X113207800Y-110769400D02*
X112064800Y-110769400D01*
X112064800Y-109626400D01*
X113207800Y-109626400D01*
X113207800Y-110769400D01*
G36*
X113207800Y-109118400D02*
G01*
X112064800Y-109118400D01*
X112064800Y-107975400D01*
X113207800Y-107975400D01*
X113207800Y-109118400D01*
G37*
X113207800Y-109118400D02*
X112064800Y-109118400D01*
X112064800Y-107975400D01*
X113207800Y-107975400D01*
X113207800Y-109118400D01*
G36*
X111556800Y-110769400D02*
G01*
X110413800Y-110769400D01*
X110413800Y-109626400D01*
X111556800Y-109626400D01*
X111556800Y-110769400D01*
G37*
X111556800Y-110769400D02*
X110413800Y-110769400D01*
X110413800Y-109626400D01*
X111556800Y-109626400D01*
X111556800Y-110769400D01*
G36*
X111556800Y-109118400D02*
G01*
X110413800Y-109118400D01*
X110413800Y-107975400D01*
X111556800Y-107975400D01*
X111556800Y-109118400D01*
G37*
X111556800Y-109118400D02*
X110413800Y-109118400D01*
X110413800Y-107975400D01*
X111556800Y-107975400D01*
X111556800Y-109118400D01*
%TD*%
D11*
%TO.C,C24*%
X113434800Y-115296400D03*
X113434800Y-116256400D03*
%TD*%
D12*
%TO.C,C16*%
X114554000Y-103400800D03*
X114554000Y-102440800D03*
%TD*%
D13*
%TO.C,U7*%
X108407200Y-106772075D03*
X108407200Y-107172125D03*
X108407200Y-107572175D03*
X108407200Y-107972225D03*
X108407200Y-108372275D03*
X108407200Y-108772325D03*
X108407200Y-109172375D03*
X108407200Y-109572425D03*
X108407200Y-109972475D03*
X108407200Y-110372525D03*
X108407200Y-110772575D03*
X108407200Y-111172625D03*
X108407200Y-111572675D03*
X108407200Y-111972725D03*
D14*
X109210475Y-112776000D03*
X109610525Y-112776000D03*
X110010575Y-112776000D03*
X110410625Y-112776000D03*
X110810675Y-112776000D03*
X111210725Y-112776000D03*
X111610775Y-112776000D03*
X112010825Y-112776000D03*
X112410875Y-112776000D03*
X112810925Y-112776000D03*
X113210975Y-112776000D03*
X113611025Y-112776000D03*
X114011075Y-112776000D03*
X114411125Y-112776000D03*
D13*
X115214400Y-111972725D03*
X115214400Y-111572675D03*
X115214400Y-111172625D03*
X115214400Y-110772575D03*
X115214400Y-110372525D03*
X115214400Y-109972475D03*
X115214400Y-109572425D03*
X115214400Y-109172375D03*
X115214400Y-108772325D03*
X115214400Y-108372275D03*
X115214400Y-107972225D03*
X115214400Y-107572175D03*
X115214400Y-107172125D03*
X115214400Y-106772075D03*
D14*
X114411125Y-105968800D03*
X114011075Y-105968800D03*
X113611025Y-105968800D03*
X113210975Y-105968800D03*
X112810925Y-105968800D03*
X112410875Y-105968800D03*
X112010825Y-105968800D03*
X111610775Y-105968800D03*
X111210725Y-105968800D03*
X110810675Y-105968800D03*
X110410625Y-105968800D03*
X110010575Y-105968800D03*
X109610525Y-105968800D03*
X109210475Y-105968800D03*
%TD*%
D15*
%TO.C,C19*%
X117477600Y-110896400D03*
X118437600Y-110896400D03*
%TD*%
D16*
%TO.C,R5*%
X108968000Y-100838000D03*
X107948000Y-100838000D03*
%TD*%
D17*
%TO.C,J7*%
X105168400Y-111342800D03*
X105168400Y-112592800D03*
X105168400Y-113842800D03*
X105168400Y-115092800D03*
X105168400Y-116342800D03*
D18*
X102268400Y-118892800D03*
X102268400Y-108792800D03*
%TD*%
D12*
%TO.C,C18*%
X115468400Y-103400800D03*
X115468400Y-102440800D03*
%TD*%
D19*
%TO.C,R14*%
X115618800Y-97891600D03*
X116638800Y-97891600D03*
%TD*%
D16*
%TO.C,R7*%
X129745200Y-96875600D03*
X128725200Y-96875600D03*
%TD*%
D20*
%TO.C,J11*%
X118716800Y-113685200D03*
X120716800Y-113685200D03*
X122716800Y-113685200D03*
X124716800Y-113685200D03*
D21*
X127066800Y-119435200D03*
X116366800Y-119435200D03*
%TD*%
D12*
%TO.C,C15*%
X112623600Y-103400800D03*
X112623600Y-102440800D03*
%TD*%
%TO.C,C23*%
X106426000Y-109852400D03*
X106426000Y-108892400D03*
%TD*%
D22*
%TO.C,D2*%
X129082800Y-101080800D03*
X129082800Y-99680800D03*
%TD*%
D19*
%TO.C,R12*%
X117447600Y-108204000D03*
X118467600Y-108204000D03*
%TD*%
D12*
%TO.C,C4*%
X113436400Y-118386800D03*
X113436400Y-117426800D03*
%TD*%
D11*
%TO.C,C29*%
X105511600Y-122252800D03*
X105511600Y-123212800D03*
%TD*%
D23*
%TO.C,C13*%
X118437600Y-107340400D03*
X117477600Y-107340400D03*
%TD*%
D16*
%TO.C,R4*%
X108968000Y-99923600D03*
X107948000Y-99923600D03*
%TD*%
D24*
%TO.C,R11*%
X112369600Y-115266400D03*
X112369600Y-116286400D03*
%TD*%
%TO.C,R8*%
X139192000Y-115314000D03*
X139192000Y-116334000D03*
%TD*%
D25*
%TO.C,Y1*%
X108780400Y-116081200D03*
X109980400Y-116081200D03*
X111180400Y-116081200D03*
%TD*%
D16*
%TO.C,R6*%
X129745200Y-98704400D03*
X128725200Y-98704400D03*
%TD*%
D23*
%TO.C,C17*%
X116608800Y-98806000D03*
X115648800Y-98806000D03*
%TD*%
D26*
%TO.C,U9*%
X102647400Y-122824800D03*
X103397400Y-121624800D03*
X103397400Y-122824800D03*
X102647400Y-121624800D03*
D27*
X101572400Y-121224800D03*
X101572400Y-122224800D03*
X101572400Y-123224800D03*
X104472400Y-123224800D03*
X104472400Y-122224800D03*
X104472400Y-121224800D03*
%TD*%
D17*
%TO.C,J10*%
X105168400Y-99760400D03*
X105168400Y-101010400D03*
X105168400Y-102260400D03*
X105168400Y-103510400D03*
X105168400Y-104760400D03*
D18*
X102268400Y-97210400D03*
X102268400Y-107310400D03*
%TD*%
D28*
%TO.C,R10*%
X140106400Y-116334000D03*
X140106400Y-115314000D03*
%TD*%
D12*
%TO.C,C21*%
X113538000Y-103400800D03*
X113538000Y-102440800D03*
%TD*%
%TO.C,C20*%
X116433600Y-105890000D03*
X116433600Y-104930000D03*
%TD*%
D29*
%TO.C,U4*%
X108126400Y-101967599D03*
X108126400Y-102467600D03*
X108126400Y-102967600D03*
X108126400Y-103467601D03*
X110923200Y-103467601D03*
X110923200Y-102967600D03*
X110923200Y-102467600D03*
X110923200Y-101967599D03*
D30*
X109524800Y-102717600D03*
%TD*%
D19*
%TO.C,R15*%
X115618800Y-99720400D03*
X116638800Y-99720400D03*
%TD*%
D23*
%TO.C,C3*%
X111071600Y-99923600D03*
X110111600Y-99923600D03*
%TD*%
D15*
%TO.C,C11*%
X128755200Y-97790000D03*
X129715200Y-97790000D03*
%TD*%
D12*
%TO.C,C22*%
X107137200Y-105940800D03*
X107137200Y-104980800D03*
%TD*%
D31*
%TO.C,U5*%
X141158000Y-111689300D03*
X140208000Y-111689300D03*
X139258000Y-111689300D03*
X139258000Y-113964300D03*
X140208000Y-113964300D03*
X141158000Y-113964300D03*
%TD*%
D24*
%TO.C,R1*%
X114350800Y-117396800D03*
X114350800Y-118416800D03*
%TD*%
D23*
%TO.C,C2*%
X111071600Y-100838000D03*
X110111600Y-100838000D03*
%TD*%
D11*
%TO.C,C14*%
X114452400Y-115293200D03*
X114452400Y-116253200D03*
%TD*%
D19*
%TO.C,R9*%
X117447600Y-106322400D03*
X118467600Y-106322400D03*
%TD*%
D32*
%TO.C,J5*%
X142710400Y-122254800D03*
X142710400Y-121604800D03*
X142710400Y-120954800D03*
X142710400Y-120304800D03*
X142710400Y-119654800D03*
D33*
X142795400Y-123442300D03*
X142795400Y-118467300D03*
D34*
X145370400Y-117579800D03*
D35*
X145370400Y-119404800D03*
D34*
X145370400Y-124329800D03*
D36*
X145370400Y-122104800D03*
%TD*%
M02*
