%TF.GenerationSoftware,KiCad,Pcbnew,(6.0.6)*%
%TF.CreationDate,2022-08-27T18:47:08+08:00*%
%TF.ProjectId,Stealthburner_Toolhead_PCB,53746561-6c74-4686-9275-726e65725f54,rev?*%
%TF.SameCoordinates,Original*%
%TF.FileFunction,Plated,1,4,PTH,Drill*%
%TF.FilePolarity,Positive*%
%FSLAX46Y46*%
G04 Gerber Fmt 4.6, Leading zero omitted, Abs format (unit mm)*
G04 Created by KiCad (PCBNEW (6.0.6)) date 2022-08-27 18:47:08*
%MOMM*%
%LPD*%
G01*
G04 APERTURE LIST*
%TA.AperFunction,ViaDrill*%
%ADD10C,0.200000*%
%TD*%
%TA.AperFunction,ComponentDrill*%
%ADD11C,0.500000*%
%TD*%
%TA.AperFunction,ComponentDrill*%
%ADD12C,0.750000*%
%TD*%
%TA.AperFunction,ComponentDrill*%
%ADD13C,0.800000*%
%TD*%
%TA.AperFunction,ComponentDrill*%
%ADD14C,1.020000*%
%TD*%
%TA.AperFunction,ComponentDrill*%
%ADD15C,3.000000*%
%TD*%
G04 APERTURE END LIST*
D10*
X100634800Y-119024400D03*
X100634800Y-119583200D03*
X100838000Y-122224800D03*
X101092000Y-117805200D03*
X101117400Y-108966000D03*
X101142800Y-115163600D03*
X101168200Y-106502200D03*
X101498400Y-112217200D03*
X101498400Y-112725200D03*
X101498400Y-113233200D03*
X101549200Y-102666800D03*
X101549200Y-103225600D03*
X101549200Y-103733600D03*
X101574600Y-117805200D03*
X101600000Y-108966000D03*
X101625400Y-115163600D03*
X101650800Y-106502200D03*
X104140000Y-118465600D03*
X104140000Y-119430800D03*
X105003600Y-109982000D03*
X105333800Y-103352600D03*
X105613200Y-106578400D03*
X105613200Y-107137200D03*
X105664000Y-114401600D03*
X105664000Y-114960400D03*
X105664000Y-115519200D03*
X106019600Y-121970800D03*
X106019600Y-123342400D03*
X106021600Y-118971600D03*
X106476800Y-102108000D03*
X106645075Y-110372525D03*
X107086400Y-99060000D03*
X107442000Y-108813600D03*
X107506800Y-106310400D03*
X107543600Y-109423200D03*
X107641673Y-107162600D03*
X107645200Y-99060000D03*
X108204000Y-99060000D03*
X108585000Y-106121200D03*
X108915200Y-114401600D03*
X109321600Y-107873800D03*
X109524800Y-114096800D03*
X109626400Y-100380800D03*
X110134400Y-113842800D03*
X110591600Y-108153200D03*
X110591600Y-108966000D03*
X110591600Y-109778800D03*
X110591600Y-110591600D03*
X110744000Y-113538000D03*
X110923200Y-101522400D03*
X111285427Y-106902277D03*
X111353600Y-96621600D03*
X111404400Y-108153200D03*
X111404400Y-108966000D03*
X111404400Y-109778800D03*
X111404400Y-110591600D03*
X111810800Y-102108000D03*
X112217200Y-108153200D03*
X112217200Y-108966000D03*
X112217200Y-109778800D03*
X112217200Y-110591600D03*
X112522000Y-112064800D03*
X112572800Y-99060000D03*
X112674400Y-106730800D03*
X112979200Y-99415600D03*
X113030000Y-108153200D03*
X113030000Y-108966000D03*
X113030000Y-109778800D03*
X113030000Y-110591600D03*
X113182400Y-115620800D03*
X113309400Y-104013000D03*
X113334800Y-106745381D03*
X113436400Y-116789200D03*
X113487200Y-101701600D03*
X113893600Y-120142000D03*
X114046000Y-101701600D03*
X114198400Y-109016800D03*
X114300000Y-119735600D03*
X114503200Y-116636800D03*
X114604800Y-101701600D03*
X114960400Y-99060000D03*
X115011200Y-112674400D03*
X115214400Y-103987600D03*
X115366800Y-105003600D03*
X115570000Y-101193600D03*
X116211661Y-109911035D03*
X116230400Y-106781600D03*
X116281200Y-108153200D03*
X116621374Y-111234152D03*
X116636800Y-112572800D03*
X116636800Y-113182400D03*
X116636800Y-113792000D03*
X116636800Y-114401600D03*
X116687600Y-109423200D03*
X118059200Y-102158800D03*
X118059200Y-102666800D03*
X118059200Y-103225600D03*
X121056400Y-117703600D03*
X121716800Y-117703600D03*
X122428000Y-117703600D03*
X123444000Y-111048800D03*
X123494800Y-106426000D03*
X123799600Y-116941600D03*
X123850400Y-106781600D03*
X123901200Y-111048800D03*
X125730000Y-105003600D03*
X125730000Y-105562400D03*
X125816400Y-106847600D03*
X126288800Y-111201200D03*
X126337997Y-103986478D03*
X126339600Y-107594400D03*
X126339600Y-108153200D03*
X126795197Y-103986478D03*
X127252397Y-103986478D03*
X127660400Y-114909600D03*
X128524000Y-114858800D03*
X128574800Y-98145600D03*
X128795431Y-121151326D03*
X128981200Y-118110000D03*
X129082800Y-115417600D03*
X129438400Y-96875600D03*
X129590800Y-117856000D03*
X130048000Y-96875600D03*
X130657600Y-96875600D03*
X131216400Y-117195600D03*
X131521200Y-102717600D03*
X131521200Y-103174800D03*
X131978400Y-102717600D03*
X131978400Y-103174800D03*
X132232400Y-122326400D03*
X132435600Y-102717600D03*
X132435600Y-103174800D03*
X132689600Y-125831600D03*
X133299200Y-100025200D03*
X133299200Y-100584000D03*
X133299200Y-101142800D03*
X133426200Y-127736600D03*
X133426200Y-128244600D03*
X133426200Y-128752600D03*
X133705600Y-99212400D03*
X133934200Y-127736600D03*
X133934200Y-128244600D03*
X133934200Y-128752600D03*
X134670800Y-125577600D03*
X134670800Y-126034800D03*
X134874000Y-110388400D03*
X134874000Y-111099600D03*
X135077200Y-116382800D03*
X135128000Y-125577600D03*
X135128000Y-126034800D03*
X135788400Y-110845600D03*
X135839200Y-126542800D03*
X135839200Y-127000000D03*
X136093200Y-120497600D03*
X136245600Y-117754400D03*
X136296400Y-126542800D03*
X136296400Y-127000000D03*
X136396000Y-119280400D03*
X136550400Y-98704400D03*
X136550400Y-99187000D03*
X136675951Y-120201243D03*
X137007600Y-98704400D03*
X137007600Y-99187000D03*
X137007600Y-119684800D03*
X137007600Y-122961400D03*
X137007600Y-123621800D03*
X137007600Y-124282200D03*
X137007600Y-124942600D03*
X137007600Y-125577600D03*
X137566400Y-121158000D03*
X137668000Y-122961400D03*
X137668000Y-123621800D03*
X137668000Y-124282200D03*
X137668000Y-124942600D03*
X137668000Y-125577600D03*
X138328400Y-122961400D03*
X138328400Y-123621800D03*
X138328400Y-124282200D03*
X138328400Y-124942600D03*
X138328400Y-125577600D03*
X138379200Y-119786400D03*
X138988800Y-122961400D03*
X138988800Y-123621800D03*
X138988800Y-124282200D03*
X138988800Y-124942600D03*
X138988800Y-125577600D03*
X139649200Y-122961400D03*
X139649200Y-123621800D03*
X139649200Y-124282200D03*
X139649200Y-124942600D03*
X139649200Y-125577600D03*
X140360400Y-126542800D03*
X140360400Y-127000000D03*
X140817600Y-126542800D03*
X140817600Y-127000000D03*
X141173200Y-109169200D03*
X141528800Y-125628400D03*
X141528800Y-126085600D03*
X141630400Y-109169200D03*
X141986000Y-122834400D03*
X141986000Y-125628400D03*
X141986000Y-126085600D03*
X142087600Y-121970800D03*
X142544800Y-99314000D03*
X142544800Y-99872800D03*
X142544800Y-100431600D03*
X142951200Y-106883200D03*
X143510000Y-106883200D03*
X144068800Y-106883200D03*
X144627600Y-106883200D03*
X144881600Y-114858800D03*
X144983200Y-133807200D03*
X145186400Y-106883200D03*
X145440400Y-114858800D03*
X145542000Y-133807200D03*
X145999200Y-114858800D03*
D11*
%TO.C,J7*%
X102710400Y-111444400D03*
X102710400Y-112694400D03*
X102710400Y-113944400D03*
X102710400Y-115194400D03*
X102710400Y-116444400D03*
%TO.C,J10*%
X102717600Y-102797600D03*
X102717600Y-104047600D03*
X102717600Y-105297600D03*
X102717600Y-106547600D03*
X102717600Y-107797600D03*
%TO.C,TP1*%
X111963200Y-118567200D03*
%TO.C,J3*%
X112471200Y-101142800D03*
%TO.C,J6*%
X119278400Y-99872800D03*
%TO.C,J4*%
X119278400Y-103835200D03*
%TO.C,J6*%
X120528400Y-99872800D03*
%TO.C,J4*%
X120528400Y-103835200D03*
%TO.C,J2*%
X123901200Y-99314000D03*
X123901200Y-100564000D03*
X123901200Y-101814000D03*
%TO.C,J8*%
X141572400Y-118028400D03*
X141572400Y-119278400D03*
X141572400Y-120528400D03*
%TO.C,J5*%
X145230000Y-111068800D03*
X145230000Y-112318800D03*
X145230000Y-113568800D03*
D12*
%TO.C,J12*%
X135582400Y-135492400D03*
X137582400Y-135492400D03*
X139582400Y-135492400D03*
X141582400Y-135492400D03*
D13*
%TO.C,C32*%
X143306800Y-129641600D03*
X143306800Y-132141600D03*
D14*
%TO.C,J9*%
X131951600Y-114241600D03*
X134951600Y-114241600D03*
%TO.C,J1*%
X139540000Y-102436800D03*
X139540000Y-105436800D03*
D15*
%TO.C,H1*%
X109575600Y-121361200D03*
%TO.C,H2*%
X121564400Y-108661200D03*
M02*
