M48
; DRILL file {KiCad (6.0.6)} date Sun Jul  3 12:41:09 2022
; FORMAT={-:-/ absolute / inch / decimal}
; #@! TF.CreationDate,2022-07-03T12:41:09+08:00
; #@! TF.GenerationSoftware,Kicad,Pcbnew,(6.0.6)
; #@! TF.FileFunction,Plated,1,4,PTH
FMAT,2
INCH
; #@! TA.AperFunction,Plated,PTH,ViaDrill
T1C0.0079
; #@! TA.AperFunction,Plated,PTH,ComponentDrill
T2C0.0197
; #@! TA.AperFunction,Plated,PTH,ComponentDrill
T3C0.0295
; #@! TA.AperFunction,Plated,PTH,ComponentDrill
T4C0.0315
; #@! TA.AperFunction,Plated,PTH,ComponentDrill
T5C0.0402
; #@! TA.AperFunction,Plated,PTH,ComponentDrill
T6C0.1181
%
G90
G05
T1
X3.98Y-4.638
X3.981Y-4.29
X3.982Y-4.534
X3.983Y-4.193
X3.996Y-4.418
X3.996Y-4.438
X3.996Y-4.458
X3.998Y-4.042
X3.998Y-4.064
X3.998Y-4.084
X3.999Y-4.638
X4.0Y-4.29
X4.001Y-4.534
X4.002Y-4.193
X4.134Y-4.33
X4.147Y-4.069
X4.158Y-4.196
X4.158Y-4.218
X4.16Y-4.504
X4.16Y-4.526
X4.16Y-4.548
X4.192Y-4.02
X4.1986Y-4.3454
X4.216Y-3.9
X4.232Y-4.44
X4.232Y-4.462
X4.232Y-4.484
X4.2326Y-4.1854
X4.2379Y-4.219
X4.238Y-3.9
X4.26Y-3.9
X4.275Y-4.178
X4.288Y-4.504
X4.304Y-4.247
X4.306Y-4.276
X4.306Y-4.304
X4.312Y-4.492
X4.316Y-3.952
X4.336Y-4.482
X4.354Y-4.258
X4.354Y-4.29
X4.354Y-4.322
X4.354Y-4.354
X4.36Y-4.47
X4.3671Y-3.9969
X4.3813Y-4.2088
X4.384Y-3.804
X4.386Y-4.258
X4.386Y-4.29
X4.386Y-4.322
X4.386Y-4.354
X4.402Y-4.02
X4.418Y-4.258
X4.418Y-4.29
X4.418Y-4.322
X4.418Y-4.354
X4.43Y-4.412
X4.432Y-3.9
X4.436Y-4.202
X4.448Y-3.914
X4.45Y-4.258
X4.45Y-4.29
X4.45Y-4.322
X4.45Y-4.354
X4.456Y-4.552
X4.461Y-4.095
X4.462Y-4.2026
X4.466Y-4.598
X4.468Y-4.004
X4.49Y-4.004
X4.496Y-4.292
X4.508Y-4.592
X4.512Y-4.004
X4.526Y-3.9
X4.528Y-4.436
X4.536Y-4.094
X4.542Y-4.134
X4.55Y-3.984
X4.5753Y-4.3272
X4.576Y-4.204
X4.578Y-4.258
X4.5914Y-4.3793
X4.592Y-4.432
X4.592Y-4.456
X4.592Y-4.48
X4.592Y-4.504
X4.594Y-4.308
X4.648Y-4.022
X4.648Y-4.042
X4.648Y-4.064
X4.74Y-4.466
X4.766Y-4.466
X4.766Y-4.634
X4.792Y-4.466
X4.792Y-4.634
X4.818Y-4.466
X4.82Y-4.634
X4.844Y-4.466
X4.86Y-4.372
X4.862Y-4.19
X4.874Y-4.604
X4.876Y-4.204
X4.878Y-4.372
X4.972Y-4.228
X4.972Y-4.378
X4.9739Y-4.094
X4.99Y-4.228
X4.9919Y-4.094
X5.008Y-4.228
X5.0099Y-4.094
X5.026Y-4.524
X5.042Y-4.396
X5.054Y-4.15
X5.054Y-4.284
X5.06Y-4.414
X5.06Y-4.522
X5.062Y-3.864
X5.0707Y-4.7697
X5.076Y-4.15
X5.076Y-4.284
X5.078Y-4.65
X5.082Y-4.544
X5.096Y-3.814
X5.098Y-4.284
X5.102Y-4.64
X5.12Y-3.814
X5.144Y-3.814
X5.166Y-4.614
X5.178Y-4.044
X5.178Y-4.062
X5.196Y-4.044
X5.196Y-4.062
X5.206Y-4.816
X5.214Y-4.044
X5.214Y-4.062
X5.224Y-4.954
X5.23Y-4.316
X5.248Y-3.938
X5.248Y-3.96
X5.248Y-3.982
X5.25Y-4.316
X5.253Y-5.029
X5.253Y-5.049
X5.253Y-5.069
X5.27Y-4.316
X5.273Y-5.029
X5.273Y-5.049
X5.273Y-5.069
X5.302Y-4.944
X5.302Y-4.962
X5.304Y-3.91
X5.31Y-4.346
X5.31Y-4.374
X5.318Y-4.582
X5.32Y-4.944
X5.32Y-4.962
X5.346Y-4.364
X5.348Y-4.982
X5.348Y-5.0
X5.358Y-4.744
X5.364Y-4.636
X5.366Y-4.982
X5.366Y-5.0
X5.3699Y-4.6961
X5.376Y-3.886
X5.376Y-3.905
X5.3809Y-4.7323
X5.394Y-3.886
X5.394Y-3.905
X5.394Y-4.712
X5.394Y-4.841
X5.394Y-4.867
X5.394Y-4.893
X5.394Y-4.919
X5.394Y-4.944
X5.412Y-3.886
X5.412Y-3.905
X5.416Y-4.77
X5.42Y-4.841
X5.42Y-4.867
X5.42Y-4.893
X5.42Y-4.919
X5.42Y-4.944
X5.43Y-3.886
X5.43Y-3.905
X5.446Y-4.841
X5.446Y-4.867
X5.446Y-4.893
X5.446Y-4.919
X5.446Y-4.944
X5.448Y-4.716
X5.472Y-4.841
X5.472Y-4.867
X5.472Y-4.893
X5.472Y-4.919
X5.472Y-4.944
X5.498Y-4.841
X5.498Y-4.867
X5.498Y-4.893
X5.498Y-4.919
X5.498Y-4.944
X5.526Y-4.982
X5.526Y-5.0
X5.544Y-4.982
X5.544Y-5.0
X5.572Y-4.946
X5.572Y-4.964
X5.59Y-4.946
X5.59Y-4.964
X5.603Y-4.837
X5.612Y-3.91
X5.612Y-3.932
X5.612Y-3.954
X5.628Y-4.208
X5.65Y-4.208
X5.652Y-4.834
X5.672Y-4.208
X5.694Y-4.208
X5.704Y-4.522
X5.704Y-5.06
X5.704Y-5.08
X5.704Y-5.1
X5.708Y-5.268
X5.716Y-4.208
X5.724Y-5.06
X5.724Y-5.08
X5.724Y-5.1
X5.726Y-4.522
X5.73Y-5.268
X5.748Y-4.522
T2
X4.0437Y-4.3876
X4.0437Y-4.4368
X4.0437Y-4.486
X4.0437Y-4.5352
X4.0437Y-4.5844
X4.044Y-4.0471
X4.044Y-4.0964
X4.044Y-4.1456
X4.044Y-4.1948
X4.044Y-4.244
X4.408Y-4.668
X4.428Y-3.982
X4.696Y-3.932
X4.696Y-4.088
X4.7452Y-3.932
X4.7452Y-4.088
X4.878Y-3.91
X4.878Y-3.9592
X4.878Y-4.0084
X5.5737Y-4.6468
X5.5737Y-4.696
X5.5737Y-4.7452
X5.7177Y-4.3728
X5.7177Y-4.422
X5.7177Y-4.4712
T3
X5.3439Y-5.2183
X5.4226Y-5.2183
X5.5014Y-5.2183
X5.5801Y-5.2183
T4
X5.642Y-4.9854
X5.642Y-5.0839
T5
X5.1949Y-4.4977
X5.3131Y-4.4977
X5.5077Y-4.0189
X5.5077Y-4.1371
T6
X4.314Y-4.778
X4.786Y-4.278
T0
M30
