%TF.GenerationSoftware,KiCad,Pcbnew,(6.0.6)*%
%TF.CreationDate,2022-07-03T12:41:07+08:00*%
%TF.ProjectId,Stealthburner_Toolhead_PCB,53746561-6c74-4686-9275-726e65725f54,rev?*%
%TF.SameCoordinates,Original*%
%TF.FileFunction,Legend,Top*%
%TF.FilePolarity,Positive*%
%FSLAX46Y46*%
G04 Gerber Fmt 4.6, Leading zero omitted, Abs format (unit mm)*
G04 Created by KiCad (PCBNEW (6.0.6)) date 2022-07-03 12:41:07*
%MOMM*%
%LPD*%
G01*
G04 APERTURE LIST*
%ADD10C,0.120000*%
%ADD11C,0.150000*%
%ADD12C,0.100000*%
G04 APERTURE END LIST*
D10*
X139668666Y-99375980D02*
X139668666Y-100090266D01*
X139621047Y-100233123D01*
X139525809Y-100328361D01*
X139382952Y-100375980D01*
X139287714Y-100375980D01*
X140621047Y-100375980D02*
X140144857Y-100375980D01*
X140144857Y-99375980D01*
X141525809Y-100280742D02*
X141478190Y-100328361D01*
X141335333Y-100375980D01*
X141240095Y-100375980D01*
X141097238Y-100328361D01*
X141002000Y-100233123D01*
X140954380Y-100137885D01*
X140906761Y-99947409D01*
X140906761Y-99804552D01*
X140954380Y-99614076D01*
X141002000Y-99518838D01*
X141097238Y-99423600D01*
X141240095Y-99375980D01*
X141335333Y-99375980D01*
X141478190Y-99423600D01*
X141525809Y-99471219D01*
X142240095Y-99375980D02*
X142240095Y-100090266D01*
X142192476Y-100233123D01*
X142097238Y-100328361D01*
X141954380Y-100375980D01*
X141859142Y-100375980D01*
X143192476Y-100375980D02*
X142716285Y-100375980D01*
X142716285Y-99375980D01*
X144097238Y-100280742D02*
X144049619Y-100328361D01*
X143906761Y-100375980D01*
X143811523Y-100375980D01*
X143668666Y-100328361D01*
X143573428Y-100233123D01*
X143525809Y-100137885D01*
X143478190Y-99947409D01*
X143478190Y-99804552D01*
X143525809Y-99614076D01*
X143573428Y-99518838D01*
X143668666Y-99423600D01*
X143811523Y-99375980D01*
X143906761Y-99375980D01*
X144049619Y-99423600D01*
X144097238Y-99471219D01*
X144811523Y-99375980D02*
X144811523Y-100090266D01*
X144763904Y-100233123D01*
X144668666Y-100328361D01*
X144525809Y-100375980D01*
X144430571Y-100375980D01*
X145763904Y-100375980D02*
X145287714Y-100375980D01*
X145287714Y-99375980D01*
X146668666Y-100280742D02*
X146621047Y-100328361D01*
X146478190Y-100375980D01*
X146382952Y-100375980D01*
X146240095Y-100328361D01*
X146144857Y-100233123D01*
X146097238Y-100137885D01*
X146049619Y-99947409D01*
X146049619Y-99804552D01*
X146097238Y-99614076D01*
X146144857Y-99518838D01*
X146240095Y-99423600D01*
X146382952Y-99375980D01*
X146478190Y-99375980D01*
X146621047Y-99423600D01*
X146668666Y-99471219D01*
D11*
X104283885Y-113038685D02*
X104412457Y-113081542D01*
X104626742Y-113081542D01*
X104712457Y-113038685D01*
X104755314Y-112995828D01*
X104798171Y-112910114D01*
X104798171Y-112824400D01*
X104755314Y-112738685D01*
X104712457Y-112695828D01*
X104626742Y-112652971D01*
X104455314Y-112610114D01*
X104369600Y-112567257D01*
X104326742Y-112524400D01*
X104283885Y-112438685D01*
X104283885Y-112352971D01*
X104326742Y-112267257D01*
X104369600Y-112224400D01*
X104455314Y-112181542D01*
X104669600Y-112181542D01*
X104798171Y-112224400D01*
X105183885Y-113081542D02*
X105183885Y-112181542D01*
X105526742Y-112181542D01*
X105612457Y-112224400D01*
X105655314Y-112267257D01*
X105698171Y-112352971D01*
X105698171Y-112481542D01*
X105655314Y-112567257D01*
X105612457Y-112610114D01*
X105526742Y-112652971D01*
X105183885Y-112652971D01*
X105998171Y-112181542D02*
X106212457Y-113081542D01*
X106383885Y-112438685D01*
X106555314Y-113081542D01*
X106769600Y-112181542D01*
X107112457Y-113081542D02*
X107112457Y-112181542D01*
X107412457Y-112824400D01*
X107712457Y-112181542D01*
X107712457Y-113081542D01*
X104305314Y-114351542D02*
X104305314Y-113451542D01*
X104648171Y-113451542D01*
X104733885Y-113494400D01*
X104776742Y-113537257D01*
X104819600Y-113622971D01*
X104819600Y-113751542D01*
X104776742Y-113837257D01*
X104733885Y-113880114D01*
X104648171Y-113922971D01*
X104305314Y-113922971D01*
X105205314Y-114351542D02*
X105205314Y-113451542D01*
X105548171Y-113451542D01*
X105633885Y-113494400D01*
X105676742Y-113537257D01*
X105719600Y-113622971D01*
X105719600Y-113751542D01*
X105676742Y-113837257D01*
X105633885Y-113880114D01*
X105548171Y-113922971D01*
X105205314Y-113922971D01*
X106019600Y-113451542D02*
X106233885Y-114351542D01*
X106405314Y-113708685D01*
X106576742Y-114351542D01*
X106791028Y-113451542D01*
X107133885Y-114351542D02*
X107133885Y-113451542D01*
X107433885Y-114094400D01*
X107733885Y-113451542D01*
X107733885Y-114351542D01*
X141089142Y-134516000D02*
X141517714Y-134516000D01*
X141003428Y-134773142D02*
X141303428Y-133873142D01*
X141603428Y-134773142D01*
X141860571Y-133958857D02*
X141903428Y-133916000D01*
X141989142Y-133873142D01*
X142203428Y-133873142D01*
X142289142Y-133916000D01*
X142332000Y-133958857D01*
X142374857Y-134044571D01*
X142374857Y-134130285D01*
X142332000Y-134258857D01*
X141817714Y-134773142D01*
X142374857Y-134773142D01*
X140594628Y-123597142D02*
X140166057Y-123597142D01*
X140166057Y-122697142D01*
X140894628Y-123125714D02*
X141194628Y-123125714D01*
X141323200Y-123597142D02*
X140894628Y-123597142D01*
X140894628Y-122697142D01*
X141323200Y-122697142D01*
X141708914Y-123597142D02*
X141708914Y-122697142D01*
X141923200Y-122697142D01*
X142051771Y-122740000D01*
X142137485Y-122825714D01*
X142180342Y-122911428D01*
X142223200Y-123082857D01*
X142223200Y-123211428D01*
X142180342Y-123382857D01*
X142137485Y-123468571D01*
X142051771Y-123554285D01*
X141923200Y-123597142D01*
X141708914Y-123597142D01*
X122414857Y-104583714D02*
X122714857Y-104583714D01*
X122843428Y-105055142D02*
X122414857Y-105055142D01*
X122414857Y-104155142D01*
X122843428Y-104155142D01*
X123229142Y-105055142D02*
X123229142Y-104155142D01*
X123743428Y-105055142D01*
X123743428Y-104155142D01*
X124172000Y-105055142D02*
X124172000Y-104155142D01*
X124386285Y-104155142D01*
X124514857Y-104198000D01*
X124600571Y-104283714D01*
X124643428Y-104369428D01*
X124686285Y-104540857D01*
X124686285Y-104669428D01*
X124643428Y-104840857D01*
X124600571Y-104926571D01*
X124514857Y-105012285D01*
X124386285Y-105055142D01*
X124172000Y-105055142D01*
X125029142Y-105012285D02*
X125157714Y-105055142D01*
X125372000Y-105055142D01*
X125457714Y-105012285D01*
X125500571Y-104969428D01*
X125543428Y-104883714D01*
X125543428Y-104798000D01*
X125500571Y-104712285D01*
X125457714Y-104669428D01*
X125372000Y-104626571D01*
X125200571Y-104583714D01*
X125114857Y-104540857D01*
X125072000Y-104498000D01*
X125029142Y-104412285D01*
X125029142Y-104326571D01*
X125072000Y-104240857D01*
X125114857Y-104198000D01*
X125200571Y-104155142D01*
X125414857Y-104155142D01*
X125543428Y-104198000D01*
X125800571Y-104155142D02*
X126314857Y-104155142D01*
X126057714Y-105055142D02*
X126057714Y-104155142D01*
X126786285Y-104155142D02*
X126957714Y-104155142D01*
X127043428Y-104198000D01*
X127129142Y-104283714D01*
X127172000Y-104455142D01*
X127172000Y-104755142D01*
X127129142Y-104926571D01*
X127043428Y-105012285D01*
X126957714Y-105055142D01*
X126786285Y-105055142D01*
X126700571Y-105012285D01*
X126614857Y-104926571D01*
X126572000Y-104755142D01*
X126572000Y-104455142D01*
X126614857Y-104283714D01*
X126700571Y-104198000D01*
X126786285Y-104155142D01*
X127557714Y-105055142D02*
X127557714Y-104155142D01*
X127900571Y-104155142D01*
X127986285Y-104198000D01*
X128029142Y-104240857D01*
X128072000Y-104326571D01*
X128072000Y-104455142D01*
X128029142Y-104540857D01*
X127986285Y-104583714D01*
X127900571Y-104626571D01*
X127557714Y-104626571D01*
X139107942Y-134516000D02*
X139536514Y-134516000D01*
X139022228Y-134773142D02*
X139322228Y-133873142D01*
X139622228Y-134773142D01*
X140393657Y-134773142D02*
X139879371Y-134773142D01*
X140136514Y-134773142D02*
X140136514Y-133873142D01*
X140050800Y-134001714D01*
X139965085Y-134087428D01*
X139879371Y-134130285D01*
X137354514Y-134301714D02*
X137483085Y-134344571D01*
X137525942Y-134387428D01*
X137568800Y-134473142D01*
X137568800Y-134601714D01*
X137525942Y-134687428D01*
X137483085Y-134730285D01*
X137397371Y-134773142D01*
X137054514Y-134773142D01*
X137054514Y-133873142D01*
X137354514Y-133873142D01*
X137440228Y-133916000D01*
X137483085Y-133958857D01*
X137525942Y-134044571D01*
X137525942Y-134130285D01*
X137483085Y-134216000D01*
X137440228Y-134258857D01*
X137354514Y-134301714D01*
X137054514Y-134301714D01*
X138425942Y-134773142D02*
X137911657Y-134773142D01*
X138168800Y-134773142D02*
X138168800Y-133873142D01*
X138083085Y-134001714D01*
X137997371Y-134087428D01*
X137911657Y-134130285D01*
D12*
X134061295Y-104170990D02*
X134227961Y-104670990D01*
X134394628Y-104170990D01*
X134823200Y-104670990D02*
X134537485Y-104670990D01*
X134680342Y-104670990D02*
X134680342Y-104170990D01*
X134632723Y-104242419D01*
X134585104Y-104290038D01*
X134537485Y-104313847D01*
X135037485Y-104623371D02*
X135061295Y-104647180D01*
X135037485Y-104670990D01*
X135013676Y-104647180D01*
X135037485Y-104623371D01*
X135037485Y-104670990D01*
X135370819Y-104170990D02*
X135418438Y-104170990D01*
X135466057Y-104194800D01*
X135489866Y-104218609D01*
X135513676Y-104266228D01*
X135537485Y-104361466D01*
X135537485Y-104480514D01*
X135513676Y-104575752D01*
X135489866Y-104623371D01*
X135466057Y-104647180D01*
X135418438Y-104670990D01*
X135370819Y-104670990D01*
X135323200Y-104647180D01*
X135299390Y-104623371D01*
X135275580Y-104575752D01*
X135251771Y-104480514D01*
X135251771Y-104361466D01*
X135275580Y-104266228D01*
X135299390Y-104218609D01*
X135323200Y-104194800D01*
X135370819Y-104170990D01*
D11*
X104311600Y-115991542D02*
X104611600Y-116891542D01*
X104911600Y-115991542D01*
X105725885Y-116805828D02*
X105683028Y-116848685D01*
X105554457Y-116891542D01*
X105468742Y-116891542D01*
X105340171Y-116848685D01*
X105254457Y-116762971D01*
X105211600Y-116677257D01*
X105168742Y-116505828D01*
X105168742Y-116377257D01*
X105211600Y-116205828D01*
X105254457Y-116120114D01*
X105340171Y-116034400D01*
X105468742Y-115991542D01*
X105554457Y-115991542D01*
X105683028Y-116034400D01*
X105725885Y-116077257D01*
X106625885Y-116805828D02*
X106583028Y-116848685D01*
X106454457Y-116891542D01*
X106368742Y-116891542D01*
X106240171Y-116848685D01*
X106154457Y-116762971D01*
X106111600Y-116677257D01*
X106068742Y-116505828D01*
X106068742Y-116377257D01*
X106111600Y-116205828D01*
X106154457Y-116120114D01*
X106240171Y-116034400D01*
X106368742Y-115991542D01*
X106454457Y-115991542D01*
X106583028Y-116034400D01*
X106625885Y-116077257D01*
X122344114Y-97231942D02*
X122344114Y-96331942D01*
X122686971Y-96331942D01*
X122772685Y-96374800D01*
X122815542Y-96417657D01*
X122858400Y-96503371D01*
X122858400Y-96631942D01*
X122815542Y-96717657D01*
X122772685Y-96760514D01*
X122686971Y-96803371D01*
X122344114Y-96803371D01*
X123758400Y-97231942D02*
X123458400Y-96803371D01*
X123244114Y-97231942D02*
X123244114Y-96331942D01*
X123586971Y-96331942D01*
X123672685Y-96374800D01*
X123715542Y-96417657D01*
X123758400Y-96503371D01*
X123758400Y-96631942D01*
X123715542Y-96717657D01*
X123672685Y-96760514D01*
X123586971Y-96803371D01*
X123244114Y-96803371D01*
X124315542Y-96331942D02*
X124486971Y-96331942D01*
X124572685Y-96374800D01*
X124658400Y-96460514D01*
X124701257Y-96631942D01*
X124701257Y-96931942D01*
X124658400Y-97103371D01*
X124572685Y-97189085D01*
X124486971Y-97231942D01*
X124315542Y-97231942D01*
X124229828Y-97189085D01*
X124144114Y-97103371D01*
X124101257Y-96931942D01*
X124101257Y-96631942D01*
X124144114Y-96460514D01*
X124229828Y-96374800D01*
X124315542Y-96331942D01*
X125386971Y-96760514D02*
X125515542Y-96803371D01*
X125558400Y-96846228D01*
X125601257Y-96931942D01*
X125601257Y-97060514D01*
X125558400Y-97146228D01*
X125515542Y-97189085D01*
X125429828Y-97231942D01*
X125086971Y-97231942D01*
X125086971Y-96331942D01*
X125386971Y-96331942D01*
X125472685Y-96374800D01*
X125515542Y-96417657D01*
X125558400Y-96503371D01*
X125558400Y-96589085D01*
X125515542Y-96674800D01*
X125472685Y-96717657D01*
X125386971Y-96760514D01*
X125086971Y-96760514D01*
X125986971Y-96760514D02*
X126286971Y-96760514D01*
X126415542Y-97231942D02*
X125986971Y-97231942D01*
X125986971Y-96331942D01*
X126415542Y-96331942D01*
X133773453Y-126401580D02*
X133773453Y-127211104D01*
X133821072Y-127306342D01*
X133868692Y-127353961D01*
X133963930Y-127401580D01*
X134154406Y-127401580D01*
X134249644Y-127353961D01*
X134297263Y-127306342D01*
X134344882Y-127211104D01*
X134344882Y-126401580D01*
X134773453Y-127115866D02*
X135249644Y-127115866D01*
X134678215Y-127401580D02*
X135011549Y-126401580D01*
X135344882Y-127401580D01*
X136249644Y-127401580D02*
X135916311Y-126925390D01*
X135678215Y-127401580D02*
X135678215Y-126401580D01*
X136059168Y-126401580D01*
X136154406Y-126449200D01*
X136202025Y-126496819D01*
X136249644Y-126592057D01*
X136249644Y-126734914D01*
X136202025Y-126830152D01*
X136154406Y-126877771D01*
X136059168Y-126925390D01*
X135678215Y-126925390D01*
X136535358Y-126401580D02*
X137106787Y-126401580D01*
X136821072Y-127401580D02*
X136821072Y-126401580D01*
X104775085Y-114764400D02*
X104689371Y-114721542D01*
X104560800Y-114721542D01*
X104432228Y-114764400D01*
X104346514Y-114850114D01*
X104303657Y-114935828D01*
X104260800Y-115107257D01*
X104260800Y-115235828D01*
X104303657Y-115407257D01*
X104346514Y-115492971D01*
X104432228Y-115578685D01*
X104560800Y-115621542D01*
X104646514Y-115621542D01*
X104775085Y-115578685D01*
X104817942Y-115535828D01*
X104817942Y-115235828D01*
X104646514Y-115235828D01*
X105203657Y-115621542D02*
X105203657Y-114721542D01*
X105717942Y-115621542D01*
X105717942Y-114721542D01*
X106146514Y-115621542D02*
X106146514Y-114721542D01*
X106360800Y-114721542D01*
X106489371Y-114764400D01*
X106575085Y-114850114D01*
X106617942Y-114935828D01*
X106660800Y-115107257D01*
X106660800Y-115235828D01*
X106617942Y-115407257D01*
X106575085Y-115492971D01*
X106489371Y-115578685D01*
X106360800Y-115621542D01*
X106146514Y-115621542D01*
X135029092Y-131109980D02*
X135029092Y-130109980D01*
X135267187Y-130109980D01*
X135410044Y-130157600D01*
X135505282Y-130252838D01*
X135552901Y-130348076D01*
X135600520Y-130538552D01*
X135600520Y-130681409D01*
X135552901Y-130871885D01*
X135505282Y-130967123D01*
X135410044Y-131062361D01*
X135267187Y-131109980D01*
X135029092Y-131109980D01*
X136029092Y-131109980D02*
X136029092Y-130109980D01*
X137076711Y-131109980D02*
X136743377Y-130633790D01*
X136505282Y-131109980D02*
X136505282Y-130109980D01*
X136886234Y-130109980D01*
X136981472Y-130157600D01*
X137029092Y-130205219D01*
X137076711Y-130300457D01*
X137076711Y-130443314D01*
X137029092Y-130538552D01*
X136981472Y-130586171D01*
X136886234Y-130633790D01*
X136505282Y-130633790D01*
D12*
X129760933Y-103858190D02*
X129760933Y-103358190D01*
X129879980Y-103358190D01*
X129951409Y-103382000D01*
X129999028Y-103429619D01*
X130022838Y-103477238D01*
X130046647Y-103572476D01*
X130046647Y-103643904D01*
X130022838Y-103739142D01*
X129999028Y-103786761D01*
X129951409Y-103834380D01*
X129879980Y-103858190D01*
X129760933Y-103858190D01*
X130451409Y-103834380D02*
X130403790Y-103858190D01*
X130308552Y-103858190D01*
X130260933Y-103834380D01*
X130237123Y-103786761D01*
X130237123Y-103596285D01*
X130260933Y-103548666D01*
X130308552Y-103524857D01*
X130403790Y-103524857D01*
X130451409Y-103548666D01*
X130475219Y-103596285D01*
X130475219Y-103643904D01*
X130237123Y-103691523D01*
X130665695Y-103834380D02*
X130713314Y-103858190D01*
X130808552Y-103858190D01*
X130856171Y-103834380D01*
X130879980Y-103786761D01*
X130879980Y-103762952D01*
X130856171Y-103715333D01*
X130808552Y-103691523D01*
X130737123Y-103691523D01*
X130689504Y-103667714D01*
X130665695Y-103620095D01*
X130665695Y-103596285D01*
X130689504Y-103548666D01*
X130737123Y-103524857D01*
X130808552Y-103524857D01*
X130856171Y-103548666D01*
X131094266Y-103858190D02*
X131094266Y-103524857D01*
X131094266Y-103358190D02*
X131070457Y-103382000D01*
X131094266Y-103405809D01*
X131118076Y-103382000D01*
X131094266Y-103358190D01*
X131094266Y-103405809D01*
X131546647Y-103524857D02*
X131546647Y-103929619D01*
X131522838Y-103977238D01*
X131499028Y-104001047D01*
X131451409Y-104024857D01*
X131379980Y-104024857D01*
X131332361Y-104001047D01*
X131546647Y-103834380D02*
X131499028Y-103858190D01*
X131403790Y-103858190D01*
X131356171Y-103834380D01*
X131332361Y-103810571D01*
X131308552Y-103762952D01*
X131308552Y-103620095D01*
X131332361Y-103572476D01*
X131356171Y-103548666D01*
X131403790Y-103524857D01*
X131499028Y-103524857D01*
X131546647Y-103548666D01*
X131784742Y-103524857D02*
X131784742Y-103858190D01*
X131784742Y-103572476D02*
X131808552Y-103548666D01*
X131856171Y-103524857D01*
X131927600Y-103524857D01*
X131975219Y-103548666D01*
X131999028Y-103596285D01*
X131999028Y-103858190D01*
X132427600Y-103834380D02*
X132379980Y-103858190D01*
X132284742Y-103858190D01*
X132237123Y-103834380D01*
X132213314Y-103786761D01*
X132213314Y-103596285D01*
X132237123Y-103548666D01*
X132284742Y-103524857D01*
X132379980Y-103524857D01*
X132427600Y-103548666D01*
X132451409Y-103596285D01*
X132451409Y-103643904D01*
X132213314Y-103691523D01*
X132879980Y-103858190D02*
X132879980Y-103358190D01*
X132879980Y-103834380D02*
X132832361Y-103858190D01*
X132737123Y-103858190D01*
X132689504Y-103834380D01*
X132665695Y-103810571D01*
X132641885Y-103762952D01*
X132641885Y-103620095D01*
X132665695Y-103572476D01*
X132689504Y-103548666D01*
X132737123Y-103524857D01*
X132832361Y-103524857D01*
X132879980Y-103548666D01*
X133499028Y-103858190D02*
X133499028Y-103358190D01*
X133499028Y-103548666D02*
X133546647Y-103524857D01*
X133641885Y-103524857D01*
X133689504Y-103548666D01*
X133713314Y-103572476D01*
X133737123Y-103620095D01*
X133737123Y-103762952D01*
X133713314Y-103810571D01*
X133689504Y-103834380D01*
X133641885Y-103858190D01*
X133546647Y-103858190D01*
X133499028Y-103834380D01*
X133903790Y-103524857D02*
X134022838Y-103858190D01*
X134141885Y-103524857D02*
X134022838Y-103858190D01*
X133975219Y-103977238D01*
X133951409Y-104001047D01*
X133903790Y-104024857D01*
D11*
X140989942Y-113183142D02*
X140989942Y-112283142D01*
X141204228Y-112283142D01*
X141332800Y-112326000D01*
X141418514Y-112411714D01*
X141461371Y-112497428D01*
X141504228Y-112668857D01*
X141504228Y-112797428D01*
X141461371Y-112968857D01*
X141418514Y-113054571D01*
X141332800Y-113140285D01*
X141204228Y-113183142D01*
X140989942Y-113183142D01*
X141889942Y-112840285D02*
X142575657Y-112840285D01*
X142232800Y-113183142D02*
X142232800Y-112497428D01*
X101204857Y-100367314D02*
X100904857Y-100367314D01*
X100904857Y-100838742D02*
X100904857Y-99938742D01*
X101333428Y-99938742D01*
X101633428Y-100581600D02*
X102062000Y-100581600D01*
X101547714Y-100838742D02*
X101847714Y-99938742D01*
X102147714Y-100838742D01*
X102447714Y-100838742D02*
X102447714Y-99938742D01*
X102962000Y-100838742D01*
X102962000Y-99938742D01*
X103347714Y-100024457D02*
X103390571Y-99981600D01*
X103476285Y-99938742D01*
X103690571Y-99938742D01*
X103776285Y-99981600D01*
X103819142Y-100024457D01*
X103862000Y-100110171D01*
X103862000Y-100195885D01*
X103819142Y-100324457D01*
X103304857Y-100838742D01*
X103862000Y-100838742D01*
X118838000Y-97384342D02*
X118838000Y-96484342D01*
X119352285Y-97384342D01*
X119352285Y-96484342D01*
X119652285Y-96484342D02*
X120166571Y-96484342D01*
X119909428Y-97384342D02*
X119909428Y-96484342D01*
X120980857Y-97298628D02*
X120938000Y-97341485D01*
X120809428Y-97384342D01*
X120723714Y-97384342D01*
X120595142Y-97341485D01*
X120509428Y-97255771D01*
X120466571Y-97170057D01*
X120423714Y-96998628D01*
X120423714Y-96870057D01*
X120466571Y-96698628D01*
X120509428Y-96612914D01*
X120595142Y-96527200D01*
X120723714Y-96484342D01*
X120809428Y-96484342D01*
X120938000Y-96527200D01*
X120980857Y-96570057D01*
X135595796Y-124998171D02*
X135929130Y-124998171D01*
X136071987Y-125521980D02*
X135595796Y-125521980D01*
X135595796Y-124521980D01*
X136071987Y-124521980D01*
X136500558Y-125521980D02*
X136500558Y-124521980D01*
X137071987Y-125521980D01*
X137071987Y-124521980D01*
X135373314Y-134301714D02*
X135501885Y-134344571D01*
X135544742Y-134387428D01*
X135587600Y-134473142D01*
X135587600Y-134601714D01*
X135544742Y-134687428D01*
X135501885Y-134730285D01*
X135416171Y-134773142D01*
X135073314Y-134773142D01*
X135073314Y-133873142D01*
X135373314Y-133873142D01*
X135459028Y-133916000D01*
X135501885Y-133958857D01*
X135544742Y-134044571D01*
X135544742Y-134130285D01*
X135501885Y-134216000D01*
X135459028Y-134258857D01*
X135373314Y-134301714D01*
X135073314Y-134301714D01*
X135930457Y-133958857D02*
X135973314Y-133916000D01*
X136059028Y-133873142D01*
X136273314Y-133873142D01*
X136359028Y-133916000D01*
X136401885Y-133958857D01*
X136444742Y-134044571D01*
X136444742Y-134130285D01*
X136401885Y-134258857D01*
X135887600Y-134773142D01*
X136444742Y-134773142D01*
X104271885Y-111811542D02*
X104271885Y-110911542D01*
X104486171Y-110911542D01*
X104614742Y-110954400D01*
X104700457Y-111040114D01*
X104743314Y-111125828D01*
X104786171Y-111297257D01*
X104786171Y-111425828D01*
X104743314Y-111597257D01*
X104700457Y-111682971D01*
X104614742Y-111768685D01*
X104486171Y-111811542D01*
X104271885Y-111811542D01*
X105171885Y-111340114D02*
X105471885Y-111340114D01*
X105600457Y-111811542D02*
X105171885Y-111811542D01*
X105171885Y-110911542D01*
X105600457Y-110911542D01*
X105857600Y-110911542D02*
X106371885Y-110911542D01*
X106114742Y-111811542D02*
X106114742Y-110911542D01*
X101255657Y-119010914D02*
X100955657Y-119010914D01*
X100955657Y-119482342D02*
X100955657Y-118582342D01*
X101384228Y-118582342D01*
X101684228Y-119225200D02*
X102112800Y-119225200D01*
X101598514Y-119482342D02*
X101898514Y-118582342D01*
X102198514Y-119482342D01*
X102498514Y-119482342D02*
X102498514Y-118582342D01*
X103012800Y-119482342D01*
X103012800Y-118582342D01*
X103912800Y-119482342D02*
X103398514Y-119482342D01*
X103655657Y-119482342D02*
X103655657Y-118582342D01*
X103569942Y-118710914D01*
X103484228Y-118796628D01*
X103398514Y-118839485D01*
X133851244Y-129233561D02*
X133994101Y-129281180D01*
X134232196Y-129281180D01*
X134327434Y-129233561D01*
X134375053Y-129185942D01*
X134422672Y-129090704D01*
X134422672Y-128995466D01*
X134375053Y-128900228D01*
X134327434Y-128852609D01*
X134232196Y-128804990D01*
X134041720Y-128757371D01*
X133946482Y-128709752D01*
X133898863Y-128662133D01*
X133851244Y-128566895D01*
X133851244Y-128471657D01*
X133898863Y-128376419D01*
X133946482Y-128328800D01*
X134041720Y-128281180D01*
X134279815Y-128281180D01*
X134422672Y-128328800D01*
X134708387Y-128281180D02*
X135279815Y-128281180D01*
X134994101Y-129281180D02*
X134994101Y-128281180D01*
X135613149Y-128757371D02*
X135946482Y-128757371D01*
X136089339Y-129281180D02*
X135613149Y-129281180D01*
X135613149Y-128281180D01*
X136089339Y-128281180D01*
X136517911Y-129281180D02*
X136517911Y-128281180D01*
X136898863Y-128281180D01*
X136994101Y-128328800D01*
X137041720Y-128376419D01*
X137089339Y-128471657D01*
X137089339Y-128614514D01*
X137041720Y-128709752D01*
X136994101Y-128757371D01*
X136898863Y-128804990D01*
X136517911Y-128804990D01*
X140741485Y-114815200D02*
X140655771Y-114772342D01*
X140527200Y-114772342D01*
X140398628Y-114815200D01*
X140312914Y-114900914D01*
X140270057Y-114986628D01*
X140227200Y-115158057D01*
X140227200Y-115286628D01*
X140270057Y-115458057D01*
X140312914Y-115543771D01*
X140398628Y-115629485D01*
X140527200Y-115672342D01*
X140612914Y-115672342D01*
X140741485Y-115629485D01*
X140784342Y-115586628D01*
X140784342Y-115286628D01*
X140612914Y-115286628D01*
X141170057Y-115672342D02*
X141170057Y-114772342D01*
X141684342Y-115672342D01*
X141684342Y-114772342D01*
X142112914Y-115672342D02*
X142112914Y-114772342D01*
X142327200Y-114772342D01*
X142455771Y-114815200D01*
X142541485Y-114900914D01*
X142584342Y-114986628D01*
X142627200Y-115158057D01*
X142627200Y-115286628D01*
X142584342Y-115458057D01*
X142541485Y-115543771D01*
X142455771Y-115629485D01*
X142327200Y-115672342D01*
X142112914Y-115672342D01*
X140989942Y-114402342D02*
X140989942Y-113502342D01*
X141204228Y-113502342D01*
X141332800Y-113545200D01*
X141418514Y-113630914D01*
X141461371Y-113716628D01*
X141504228Y-113888057D01*
X141504228Y-114016628D01*
X141461371Y-114188057D01*
X141418514Y-114273771D01*
X141332800Y-114359485D01*
X141204228Y-114402342D01*
X140989942Y-114402342D01*
X141889942Y-114059485D02*
X142575657Y-114059485D01*
D10*
%TO.C,C24*%
X113240400Y-114448400D02*
X113207066Y-114481733D01*
X113107066Y-114515066D01*
X113040400Y-114515066D01*
X112940400Y-114481733D01*
X112873733Y-114415066D01*
X112840400Y-114348400D01*
X112807066Y-114215066D01*
X112807066Y-114115066D01*
X112840400Y-113981733D01*
X112873733Y-113915066D01*
X112940400Y-113848400D01*
X113040400Y-113815066D01*
X113107066Y-113815066D01*
X113207066Y-113848400D01*
X113240400Y-113881733D01*
X113507066Y-113881733D02*
X113540400Y-113848400D01*
X113607066Y-113815066D01*
X113773733Y-113815066D01*
X113840400Y-113848400D01*
X113873733Y-113881733D01*
X113907066Y-113948400D01*
X113907066Y-114015066D01*
X113873733Y-114115066D01*
X113473733Y-114515066D01*
X113907066Y-114515066D01*
X114507066Y-114048400D02*
X114507066Y-114515066D01*
X114340400Y-113781733D02*
X114173733Y-114281733D01*
X114607066Y-114281733D01*
%TO.C,C16*%
X113951600Y-101799200D02*
X113918266Y-101832533D01*
X113818266Y-101865866D01*
X113751600Y-101865866D01*
X113651600Y-101832533D01*
X113584933Y-101765866D01*
X113551600Y-101699200D01*
X113518266Y-101565866D01*
X113518266Y-101465866D01*
X113551600Y-101332533D01*
X113584933Y-101265866D01*
X113651600Y-101199200D01*
X113751600Y-101165866D01*
X113818266Y-101165866D01*
X113918266Y-101199200D01*
X113951600Y-101232533D01*
X114618266Y-101865866D02*
X114218266Y-101865866D01*
X114418266Y-101865866D02*
X114418266Y-101165866D01*
X114351600Y-101265866D01*
X114284933Y-101332533D01*
X114218266Y-101365866D01*
X115218266Y-101165866D02*
X115084933Y-101165866D01*
X115018266Y-101199200D01*
X114984933Y-101232533D01*
X114918266Y-101332533D01*
X114884933Y-101465866D01*
X114884933Y-101732533D01*
X114918266Y-101799200D01*
X114951600Y-101832533D01*
X115018266Y-101865866D01*
X115151600Y-101865866D01*
X115218266Y-101832533D01*
X115251600Y-101799200D01*
X115284933Y-101732533D01*
X115284933Y-101565866D01*
X115251600Y-101499200D01*
X115218266Y-101465866D01*
X115151600Y-101432533D01*
X115018266Y-101432533D01*
X114951600Y-101465866D01*
X114918266Y-101499200D01*
X114884933Y-101565866D01*
%TO.C,U7*%
X115747866Y-112392666D02*
X115747866Y-112959333D01*
X115781200Y-113026000D01*
X115814533Y-113059333D01*
X115881200Y-113092666D01*
X116014533Y-113092666D01*
X116081200Y-113059333D01*
X116114533Y-113026000D01*
X116147866Y-112959333D01*
X116147866Y-112392666D01*
X116414533Y-112392666D02*
X116881200Y-112392666D01*
X116581200Y-113092666D01*
%TO.C,C19*%
X117558400Y-112162400D02*
X117525066Y-112195733D01*
X117425066Y-112229066D01*
X117358400Y-112229066D01*
X117258400Y-112195733D01*
X117191733Y-112129066D01*
X117158400Y-112062400D01*
X117125066Y-111929066D01*
X117125066Y-111829066D01*
X117158400Y-111695733D01*
X117191733Y-111629066D01*
X117258400Y-111562400D01*
X117358400Y-111529066D01*
X117425066Y-111529066D01*
X117525066Y-111562400D01*
X117558400Y-111595733D01*
X118225066Y-112229066D02*
X117825066Y-112229066D01*
X118025066Y-112229066D02*
X118025066Y-111529066D01*
X117958400Y-111629066D01*
X117891733Y-111695733D01*
X117825066Y-111729066D01*
X118558400Y-112229066D02*
X118691733Y-112229066D01*
X118758400Y-112195733D01*
X118791733Y-112162400D01*
X118858400Y-112062400D01*
X118891733Y-111929066D01*
X118891733Y-111662400D01*
X118858400Y-111595733D01*
X118825066Y-111562400D01*
X118758400Y-111529066D01*
X118625066Y-111529066D01*
X118558400Y-111562400D01*
X118525066Y-111595733D01*
X118491733Y-111662400D01*
X118491733Y-111829066D01*
X118525066Y-111895733D01*
X118558400Y-111929066D01*
X118625066Y-111962400D01*
X118758400Y-111962400D01*
X118825066Y-111929066D01*
X118858400Y-111895733D01*
X118891733Y-111829066D01*
%TO.C,U9*%
X128498666Y-109141466D02*
X128498666Y-109708133D01*
X128532000Y-109774800D01*
X128565333Y-109808133D01*
X128632000Y-109841466D01*
X128765333Y-109841466D01*
X128832000Y-109808133D01*
X128865333Y-109774800D01*
X128898666Y-109708133D01*
X128898666Y-109141466D01*
X129265333Y-109841466D02*
X129398666Y-109841466D01*
X129465333Y-109808133D01*
X129498666Y-109774800D01*
X129565333Y-109674800D01*
X129598666Y-109541466D01*
X129598666Y-109274800D01*
X129565333Y-109208133D01*
X129532000Y-109174800D01*
X129465333Y-109141466D01*
X129332000Y-109141466D01*
X129265333Y-109174800D01*
X129232000Y-109208133D01*
X129198666Y-109274800D01*
X129198666Y-109441466D01*
X129232000Y-109508133D01*
X129265333Y-109541466D01*
X129332000Y-109574800D01*
X129465333Y-109574800D01*
X129532000Y-109541466D01*
X129565333Y-109508133D01*
X129598666Y-109441466D01*
%TO.C,R5*%
X106614133Y-101154666D02*
X106380800Y-100821333D01*
X106214133Y-101154666D02*
X106214133Y-100454666D01*
X106480800Y-100454666D01*
X106547466Y-100488000D01*
X106580800Y-100521333D01*
X106614133Y-100588000D01*
X106614133Y-100688000D01*
X106580800Y-100754666D01*
X106547466Y-100788000D01*
X106480800Y-100821333D01*
X106214133Y-100821333D01*
X107247466Y-100454666D02*
X106914133Y-100454666D01*
X106880800Y-100788000D01*
X106914133Y-100754666D01*
X106980800Y-100721333D01*
X107147466Y-100721333D01*
X107214133Y-100754666D01*
X107247466Y-100788000D01*
X107280800Y-100854666D01*
X107280800Y-101021333D01*
X107247466Y-101088000D01*
X107214133Y-101121333D01*
X107147466Y-101154666D01*
X106980800Y-101154666D01*
X106914133Y-101121333D01*
X106880800Y-101088000D01*
%TO.C,C32*%
X145142800Y-131720400D02*
X145109466Y-131753733D01*
X145009466Y-131787066D01*
X144942800Y-131787066D01*
X144842800Y-131753733D01*
X144776133Y-131687066D01*
X144742800Y-131620400D01*
X144709466Y-131487066D01*
X144709466Y-131387066D01*
X144742800Y-131253733D01*
X144776133Y-131187066D01*
X144842800Y-131120400D01*
X144942800Y-131087066D01*
X145009466Y-131087066D01*
X145109466Y-131120400D01*
X145142800Y-131153733D01*
X145376133Y-131087066D02*
X145809466Y-131087066D01*
X145576133Y-131353733D01*
X145676133Y-131353733D01*
X145742800Y-131387066D01*
X145776133Y-131420400D01*
X145809466Y-131487066D01*
X145809466Y-131653733D01*
X145776133Y-131720400D01*
X145742800Y-131753733D01*
X145676133Y-131787066D01*
X145476133Y-131787066D01*
X145409466Y-131753733D01*
X145376133Y-131720400D01*
X146076133Y-131153733D02*
X146109466Y-131120400D01*
X146176133Y-131087066D01*
X146342800Y-131087066D01*
X146409466Y-131120400D01*
X146442800Y-131153733D01*
X146476133Y-131220400D01*
X146476133Y-131287066D01*
X146442800Y-131387066D01*
X146042800Y-131787066D01*
X146476133Y-131787066D01*
%TO.C,C18*%
X116734400Y-103320000D02*
X116767733Y-103353333D01*
X116801066Y-103453333D01*
X116801066Y-103520000D01*
X116767733Y-103620000D01*
X116701066Y-103686666D01*
X116634400Y-103720000D01*
X116501066Y-103753333D01*
X116401066Y-103753333D01*
X116267733Y-103720000D01*
X116201066Y-103686666D01*
X116134400Y-103620000D01*
X116101066Y-103520000D01*
X116101066Y-103453333D01*
X116134400Y-103353333D01*
X116167733Y-103320000D01*
X116801066Y-102653333D02*
X116801066Y-103053333D01*
X116801066Y-102853333D02*
X116101066Y-102853333D01*
X116201066Y-102920000D01*
X116267733Y-102986666D01*
X116301066Y-103053333D01*
X116401066Y-102253333D02*
X116367733Y-102320000D01*
X116334400Y-102353333D01*
X116267733Y-102386666D01*
X116234400Y-102386666D01*
X116167733Y-102353333D01*
X116134400Y-102320000D01*
X116101066Y-102253333D01*
X116101066Y-102120000D01*
X116134400Y-102053333D01*
X116167733Y-102020000D01*
X116234400Y-101986666D01*
X116267733Y-101986666D01*
X116334400Y-102020000D01*
X116367733Y-102053333D01*
X116401066Y-102120000D01*
X116401066Y-102253333D01*
X116434400Y-102320000D01*
X116467733Y-102353333D01*
X116534400Y-102386666D01*
X116667733Y-102386666D01*
X116734400Y-102353333D01*
X116767733Y-102320000D01*
X116801066Y-102253333D01*
X116801066Y-102120000D01*
X116767733Y-102053333D01*
X116734400Y-102020000D01*
X116667733Y-101986666D01*
X116534400Y-101986666D01*
X116467733Y-102020000D01*
X116434400Y-102053333D01*
X116401066Y-102120000D01*
%TO.C,R14*%
X115639600Y-97952666D02*
X115406266Y-97619333D01*
X115239600Y-97952666D02*
X115239600Y-97252666D01*
X115506266Y-97252666D01*
X115572933Y-97286000D01*
X115606266Y-97319333D01*
X115639600Y-97386000D01*
X115639600Y-97486000D01*
X115606266Y-97552666D01*
X115572933Y-97586000D01*
X115506266Y-97619333D01*
X115239600Y-97619333D01*
X116306266Y-97952666D02*
X115906266Y-97952666D01*
X116106266Y-97952666D02*
X116106266Y-97252666D01*
X116039600Y-97352666D01*
X115972933Y-97419333D01*
X115906266Y-97452666D01*
X116906266Y-97486000D02*
X116906266Y-97952666D01*
X116739600Y-97219333D02*
X116572933Y-97719333D01*
X117006266Y-97719333D01*
%TO.C,R7*%
X129067733Y-98462266D02*
X128834400Y-98128933D01*
X128667733Y-98462266D02*
X128667733Y-97762266D01*
X128934400Y-97762266D01*
X129001066Y-97795600D01*
X129034400Y-97828933D01*
X129067733Y-97895600D01*
X129067733Y-97995600D01*
X129034400Y-98062266D01*
X129001066Y-98095600D01*
X128934400Y-98128933D01*
X128667733Y-98128933D01*
X129301066Y-97762266D02*
X129767733Y-97762266D01*
X129467733Y-98462266D01*
%TO.C,C15*%
X111411600Y-104694800D02*
X111378266Y-104728133D01*
X111278266Y-104761466D01*
X111211600Y-104761466D01*
X111111600Y-104728133D01*
X111044933Y-104661466D01*
X111011600Y-104594800D01*
X110978266Y-104461466D01*
X110978266Y-104361466D01*
X111011600Y-104228133D01*
X111044933Y-104161466D01*
X111111600Y-104094800D01*
X111211600Y-104061466D01*
X111278266Y-104061466D01*
X111378266Y-104094800D01*
X111411600Y-104128133D01*
X112078266Y-104761466D02*
X111678266Y-104761466D01*
X111878266Y-104761466D02*
X111878266Y-104061466D01*
X111811600Y-104161466D01*
X111744933Y-104228133D01*
X111678266Y-104261466D01*
X112711600Y-104061466D02*
X112378266Y-104061466D01*
X112344933Y-104394800D01*
X112378266Y-104361466D01*
X112444933Y-104328133D01*
X112611600Y-104328133D01*
X112678266Y-104361466D01*
X112711600Y-104394800D01*
X112744933Y-104461466D01*
X112744933Y-104628133D01*
X112711600Y-104694800D01*
X112678266Y-104728133D01*
X112611600Y-104761466D01*
X112444933Y-104761466D01*
X112378266Y-104728133D01*
X112344933Y-104694800D01*
%TO.C,C23*%
X105874400Y-108149200D02*
X105841066Y-108182533D01*
X105741066Y-108215866D01*
X105674400Y-108215866D01*
X105574400Y-108182533D01*
X105507733Y-108115866D01*
X105474400Y-108049200D01*
X105441066Y-107915866D01*
X105441066Y-107815866D01*
X105474400Y-107682533D01*
X105507733Y-107615866D01*
X105574400Y-107549200D01*
X105674400Y-107515866D01*
X105741066Y-107515866D01*
X105841066Y-107549200D01*
X105874400Y-107582533D01*
X106141066Y-107582533D02*
X106174400Y-107549200D01*
X106241066Y-107515866D01*
X106407733Y-107515866D01*
X106474400Y-107549200D01*
X106507733Y-107582533D01*
X106541066Y-107649200D01*
X106541066Y-107715866D01*
X106507733Y-107815866D01*
X106107733Y-108215866D01*
X106541066Y-108215866D01*
X106774400Y-107515866D02*
X107207733Y-107515866D01*
X106974400Y-107782533D01*
X107074400Y-107782533D01*
X107141066Y-107815866D01*
X107174400Y-107849200D01*
X107207733Y-107915866D01*
X107207733Y-108082533D01*
X107174400Y-108149200D01*
X107141066Y-108182533D01*
X107074400Y-108215866D01*
X106874400Y-108215866D01*
X106807733Y-108182533D01*
X106774400Y-108149200D01*
%TO.C,D2*%
X128108933Y-101815066D02*
X128108933Y-101115066D01*
X128275600Y-101115066D01*
X128375600Y-101148400D01*
X128442266Y-101215066D01*
X128475600Y-101281733D01*
X128508933Y-101415066D01*
X128508933Y-101515066D01*
X128475600Y-101648400D01*
X128442266Y-101715066D01*
X128375600Y-101781733D01*
X128275600Y-101815066D01*
X128108933Y-101815066D01*
X128775600Y-101181733D02*
X128808933Y-101148400D01*
X128875600Y-101115066D01*
X129042266Y-101115066D01*
X129108933Y-101148400D01*
X129142266Y-101181733D01*
X129175600Y-101248400D01*
X129175600Y-101315066D01*
X129142266Y-101415066D01*
X128742266Y-101815066D01*
X129175600Y-101815066D01*
%TO.C,R12*%
X117507600Y-110247866D02*
X117274266Y-109914533D01*
X117107600Y-110247866D02*
X117107600Y-109547866D01*
X117374266Y-109547866D01*
X117440933Y-109581200D01*
X117474266Y-109614533D01*
X117507600Y-109681200D01*
X117507600Y-109781200D01*
X117474266Y-109847866D01*
X117440933Y-109881200D01*
X117374266Y-109914533D01*
X117107600Y-109914533D01*
X118174266Y-110247866D02*
X117774266Y-110247866D01*
X117974266Y-110247866D02*
X117974266Y-109547866D01*
X117907600Y-109647866D01*
X117840933Y-109714533D01*
X117774266Y-109747866D01*
X118440933Y-109614533D02*
X118474266Y-109581200D01*
X118540933Y-109547866D01*
X118707600Y-109547866D01*
X118774266Y-109581200D01*
X118807600Y-109614533D01*
X118840933Y-109681200D01*
X118840933Y-109747866D01*
X118807600Y-109847866D01*
X118407600Y-110247866D01*
X118840933Y-110247866D01*
%TO.C,C4*%
X113218133Y-119731600D02*
X113184800Y-119764933D01*
X113084800Y-119798266D01*
X113018133Y-119798266D01*
X112918133Y-119764933D01*
X112851466Y-119698266D01*
X112818133Y-119631600D01*
X112784800Y-119498266D01*
X112784800Y-119398266D01*
X112818133Y-119264933D01*
X112851466Y-119198266D01*
X112918133Y-119131600D01*
X113018133Y-119098266D01*
X113084800Y-119098266D01*
X113184800Y-119131600D01*
X113218133Y-119164933D01*
X113818133Y-119331600D02*
X113818133Y-119798266D01*
X113651466Y-119064933D02*
X113484800Y-119564933D01*
X113918133Y-119564933D01*
%TO.C,C29*%
X126956400Y-113788000D02*
X126923066Y-113821333D01*
X126823066Y-113854666D01*
X126756400Y-113854666D01*
X126656400Y-113821333D01*
X126589733Y-113754666D01*
X126556400Y-113688000D01*
X126523066Y-113554666D01*
X126523066Y-113454666D01*
X126556400Y-113321333D01*
X126589733Y-113254666D01*
X126656400Y-113188000D01*
X126756400Y-113154666D01*
X126823066Y-113154666D01*
X126923066Y-113188000D01*
X126956400Y-113221333D01*
X127223066Y-113221333D02*
X127256400Y-113188000D01*
X127323066Y-113154666D01*
X127489733Y-113154666D01*
X127556400Y-113188000D01*
X127589733Y-113221333D01*
X127623066Y-113288000D01*
X127623066Y-113354666D01*
X127589733Y-113454666D01*
X127189733Y-113854666D01*
X127623066Y-113854666D01*
X127956400Y-113854666D02*
X128089733Y-113854666D01*
X128156400Y-113821333D01*
X128189733Y-113788000D01*
X128256400Y-113688000D01*
X128289733Y-113554666D01*
X128289733Y-113288000D01*
X128256400Y-113221333D01*
X128223066Y-113188000D01*
X128156400Y-113154666D01*
X128023066Y-113154666D01*
X127956400Y-113188000D01*
X127923066Y-113221333D01*
X127889733Y-113288000D01*
X127889733Y-113454666D01*
X127923066Y-113521333D01*
X127956400Y-113554666D01*
X128023066Y-113588000D01*
X128156400Y-113588000D01*
X128223066Y-113554666D01*
X128256400Y-113521333D01*
X128289733Y-113454666D01*
%TO.C,C13*%
X117507600Y-109266800D02*
X117474266Y-109300133D01*
X117374266Y-109333466D01*
X117307600Y-109333466D01*
X117207600Y-109300133D01*
X117140933Y-109233466D01*
X117107600Y-109166800D01*
X117074266Y-109033466D01*
X117074266Y-108933466D01*
X117107600Y-108800133D01*
X117140933Y-108733466D01*
X117207600Y-108666800D01*
X117307600Y-108633466D01*
X117374266Y-108633466D01*
X117474266Y-108666800D01*
X117507600Y-108700133D01*
X118174266Y-109333466D02*
X117774266Y-109333466D01*
X117974266Y-109333466D02*
X117974266Y-108633466D01*
X117907600Y-108733466D01*
X117840933Y-108800133D01*
X117774266Y-108833466D01*
X118407600Y-108633466D02*
X118840933Y-108633466D01*
X118607600Y-108900133D01*
X118707600Y-108900133D01*
X118774266Y-108933466D01*
X118807600Y-108966800D01*
X118840933Y-109033466D01*
X118840933Y-109200133D01*
X118807600Y-109266800D01*
X118774266Y-109300133D01*
X118707600Y-109333466D01*
X118507600Y-109333466D01*
X118440933Y-109300133D01*
X118407600Y-109266800D01*
%TO.C,R4*%
X106614133Y-100240266D02*
X106380800Y-99906933D01*
X106214133Y-100240266D02*
X106214133Y-99540266D01*
X106480800Y-99540266D01*
X106547466Y-99573600D01*
X106580800Y-99606933D01*
X106614133Y-99673600D01*
X106614133Y-99773600D01*
X106580800Y-99840266D01*
X106547466Y-99873600D01*
X106480800Y-99906933D01*
X106214133Y-99906933D01*
X107214133Y-99773600D02*
X107214133Y-100240266D01*
X107047466Y-99506933D02*
X106880800Y-100006933D01*
X107314133Y-100006933D01*
%TO.C,R11*%
X111106800Y-114515066D02*
X110873466Y-114181733D01*
X110706800Y-114515066D02*
X110706800Y-113815066D01*
X110973466Y-113815066D01*
X111040133Y-113848400D01*
X111073466Y-113881733D01*
X111106800Y-113948400D01*
X111106800Y-114048400D01*
X111073466Y-114115066D01*
X111040133Y-114148400D01*
X110973466Y-114181733D01*
X110706800Y-114181733D01*
X111773466Y-114515066D02*
X111373466Y-114515066D01*
X111573466Y-114515066D02*
X111573466Y-113815066D01*
X111506800Y-113915066D01*
X111440133Y-113981733D01*
X111373466Y-114015066D01*
X112440133Y-114515066D02*
X112040133Y-114515066D01*
X112240133Y-114515066D02*
X112240133Y-113815066D01*
X112173466Y-113915066D01*
X112106800Y-113981733D01*
X112040133Y-114015066D01*
%TO.C,R8*%
X141513733Y-109638266D02*
X141280400Y-109304933D01*
X141113733Y-109638266D02*
X141113733Y-108938266D01*
X141380400Y-108938266D01*
X141447066Y-108971600D01*
X141480400Y-109004933D01*
X141513733Y-109071600D01*
X141513733Y-109171600D01*
X141480400Y-109238266D01*
X141447066Y-109271600D01*
X141380400Y-109304933D01*
X141113733Y-109304933D01*
X141913733Y-109238266D02*
X141847066Y-109204933D01*
X141813733Y-109171600D01*
X141780400Y-109104933D01*
X141780400Y-109071600D01*
X141813733Y-109004933D01*
X141847066Y-108971600D01*
X141913733Y-108938266D01*
X142047066Y-108938266D01*
X142113733Y-108971600D01*
X142147066Y-109004933D01*
X142180400Y-109071600D01*
X142180400Y-109104933D01*
X142147066Y-109171600D01*
X142113733Y-109204933D01*
X142047066Y-109238266D01*
X141913733Y-109238266D01*
X141847066Y-109271600D01*
X141813733Y-109304933D01*
X141780400Y-109371600D01*
X141780400Y-109504933D01*
X141813733Y-109571600D01*
X141847066Y-109604933D01*
X141913733Y-109638266D01*
X142047066Y-109638266D01*
X142113733Y-109604933D01*
X142147066Y-109571600D01*
X142180400Y-109504933D01*
X142180400Y-109371600D01*
X142147066Y-109304933D01*
X142113733Y-109271600D01*
X142047066Y-109238266D01*
%TO.C,Y1*%
X108277066Y-117890133D02*
X108277066Y-118223466D01*
X108043733Y-117523466D02*
X108277066Y-117890133D01*
X108510400Y-117523466D01*
X109110400Y-118223466D02*
X108710400Y-118223466D01*
X108910400Y-118223466D02*
X108910400Y-117523466D01*
X108843733Y-117623466D01*
X108777066Y-117690133D01*
X108710400Y-117723466D01*
%TO.C,R6*%
X129067733Y-100291066D02*
X128834400Y-99957733D01*
X128667733Y-100291066D02*
X128667733Y-99591066D01*
X128934400Y-99591066D01*
X129001066Y-99624400D01*
X129034400Y-99657733D01*
X129067733Y-99724400D01*
X129067733Y-99824400D01*
X129034400Y-99891066D01*
X129001066Y-99924400D01*
X128934400Y-99957733D01*
X128667733Y-99957733D01*
X129667733Y-99591066D02*
X129534400Y-99591066D01*
X129467733Y-99624400D01*
X129434400Y-99657733D01*
X129367733Y-99757733D01*
X129334400Y-99891066D01*
X129334400Y-100157733D01*
X129367733Y-100224400D01*
X129401066Y-100257733D01*
X129467733Y-100291066D01*
X129601066Y-100291066D01*
X129667733Y-100257733D01*
X129701066Y-100224400D01*
X129734400Y-100157733D01*
X129734400Y-99991066D01*
X129701066Y-99924400D01*
X129667733Y-99891066D01*
X129601066Y-99857733D01*
X129467733Y-99857733D01*
X129401066Y-99891066D01*
X129367733Y-99924400D01*
X129334400Y-99991066D01*
%TO.C,C17*%
X113850000Y-99564000D02*
X113816666Y-99597333D01*
X113716666Y-99630666D01*
X113650000Y-99630666D01*
X113550000Y-99597333D01*
X113483333Y-99530666D01*
X113450000Y-99464000D01*
X113416666Y-99330666D01*
X113416666Y-99230666D01*
X113450000Y-99097333D01*
X113483333Y-99030666D01*
X113550000Y-98964000D01*
X113650000Y-98930666D01*
X113716666Y-98930666D01*
X113816666Y-98964000D01*
X113850000Y-98997333D01*
X114516666Y-99630666D02*
X114116666Y-99630666D01*
X114316666Y-99630666D02*
X114316666Y-98930666D01*
X114250000Y-99030666D01*
X114183333Y-99097333D01*
X114116666Y-99130666D01*
X114750000Y-98930666D02*
X115216666Y-98930666D01*
X114916666Y-99630666D01*
%TO.C,R10*%
X139199200Y-113397466D02*
X138965866Y-113064133D01*
X138799200Y-113397466D02*
X138799200Y-112697466D01*
X139065866Y-112697466D01*
X139132533Y-112730800D01*
X139165866Y-112764133D01*
X139199200Y-112830800D01*
X139199200Y-112930800D01*
X139165866Y-112997466D01*
X139132533Y-113030800D01*
X139065866Y-113064133D01*
X138799200Y-113064133D01*
X139865866Y-113397466D02*
X139465866Y-113397466D01*
X139665866Y-113397466D02*
X139665866Y-112697466D01*
X139599200Y-112797466D01*
X139532533Y-112864133D01*
X139465866Y-112897466D01*
X140299200Y-112697466D02*
X140365866Y-112697466D01*
X140432533Y-112730800D01*
X140465866Y-112764133D01*
X140499200Y-112830800D01*
X140532533Y-112964133D01*
X140532533Y-113130800D01*
X140499200Y-113264133D01*
X140465866Y-113330800D01*
X140432533Y-113364133D01*
X140365866Y-113397466D01*
X140299200Y-113397466D01*
X140232533Y-113364133D01*
X140199200Y-113330800D01*
X140165866Y-113264133D01*
X140132533Y-113130800D01*
X140132533Y-112964133D01*
X140165866Y-112830800D01*
X140199200Y-112764133D01*
X140232533Y-112730800D01*
X140299200Y-112697466D01*
%TO.C,C21*%
X113494400Y-104694800D02*
X113461066Y-104728133D01*
X113361066Y-104761466D01*
X113294400Y-104761466D01*
X113194400Y-104728133D01*
X113127733Y-104661466D01*
X113094400Y-104594800D01*
X113061066Y-104461466D01*
X113061066Y-104361466D01*
X113094400Y-104228133D01*
X113127733Y-104161466D01*
X113194400Y-104094800D01*
X113294400Y-104061466D01*
X113361066Y-104061466D01*
X113461066Y-104094800D01*
X113494400Y-104128133D01*
X113761066Y-104128133D02*
X113794400Y-104094800D01*
X113861066Y-104061466D01*
X114027733Y-104061466D01*
X114094400Y-104094800D01*
X114127733Y-104128133D01*
X114161066Y-104194800D01*
X114161066Y-104261466D01*
X114127733Y-104361466D01*
X113727733Y-104761466D01*
X114161066Y-104761466D01*
X114827733Y-104761466D02*
X114427733Y-104761466D01*
X114627733Y-104761466D02*
X114627733Y-104061466D01*
X114561066Y-104161466D01*
X114494400Y-104228133D01*
X114427733Y-104261466D01*
%TO.C,C20*%
X116734400Y-107790400D02*
X116767733Y-107823733D01*
X116801066Y-107923733D01*
X116801066Y-107990400D01*
X116767733Y-108090400D01*
X116701066Y-108157066D01*
X116634400Y-108190400D01*
X116501066Y-108223733D01*
X116401066Y-108223733D01*
X116267733Y-108190400D01*
X116201066Y-108157066D01*
X116134400Y-108090400D01*
X116101066Y-107990400D01*
X116101066Y-107923733D01*
X116134400Y-107823733D01*
X116167733Y-107790400D01*
X116167733Y-107523733D02*
X116134400Y-107490400D01*
X116101066Y-107423733D01*
X116101066Y-107257066D01*
X116134400Y-107190400D01*
X116167733Y-107157066D01*
X116234400Y-107123733D01*
X116301066Y-107123733D01*
X116401066Y-107157066D01*
X116801066Y-107557066D01*
X116801066Y-107123733D01*
X116101066Y-106690400D02*
X116101066Y-106623733D01*
X116134400Y-106557066D01*
X116167733Y-106523733D01*
X116234400Y-106490400D01*
X116367733Y-106457066D01*
X116534400Y-106457066D01*
X116667733Y-106490400D01*
X116734400Y-106523733D01*
X116767733Y-106557066D01*
X116801066Y-106623733D01*
X116801066Y-106690400D01*
X116767733Y-106757066D01*
X116734400Y-106790400D01*
X116667733Y-106823733D01*
X116534400Y-106857066D01*
X116367733Y-106857066D01*
X116234400Y-106823733D01*
X116167733Y-106790400D01*
X116134400Y-106757066D01*
X116101066Y-106690400D01*
%TO.C,U4*%
X109550266Y-104061466D02*
X109550266Y-104628133D01*
X109583600Y-104694800D01*
X109616933Y-104728133D01*
X109683600Y-104761466D01*
X109816933Y-104761466D01*
X109883600Y-104728133D01*
X109916933Y-104694800D01*
X109950266Y-104628133D01*
X109950266Y-104061466D01*
X110583600Y-104294800D02*
X110583600Y-104761466D01*
X110416933Y-104028133D02*
X110250266Y-104528133D01*
X110683600Y-104528133D01*
%TO.C,R15*%
X113850000Y-100595866D02*
X113616666Y-100262533D01*
X113450000Y-100595866D02*
X113450000Y-99895866D01*
X113716666Y-99895866D01*
X113783333Y-99929200D01*
X113816666Y-99962533D01*
X113850000Y-100029200D01*
X113850000Y-100129200D01*
X113816666Y-100195866D01*
X113783333Y-100229200D01*
X113716666Y-100262533D01*
X113450000Y-100262533D01*
X114516666Y-100595866D02*
X114116666Y-100595866D01*
X114316666Y-100595866D02*
X114316666Y-99895866D01*
X114250000Y-99995866D01*
X114183333Y-100062533D01*
X114116666Y-100095866D01*
X115150000Y-99895866D02*
X114816666Y-99895866D01*
X114783333Y-100229200D01*
X114816666Y-100195866D01*
X114883333Y-100162533D01*
X115050000Y-100162533D01*
X115116666Y-100195866D01*
X115150000Y-100229200D01*
X115183333Y-100295866D01*
X115183333Y-100462533D01*
X115150000Y-100529200D01*
X115116666Y-100562533D01*
X115050000Y-100595866D01*
X114883333Y-100595866D01*
X114816666Y-100562533D01*
X114783333Y-100529200D01*
%TO.C,C3*%
X110474933Y-98294000D02*
X110441600Y-98327333D01*
X110341600Y-98360666D01*
X110274933Y-98360666D01*
X110174933Y-98327333D01*
X110108266Y-98260666D01*
X110074933Y-98194000D01*
X110041600Y-98060666D01*
X110041600Y-97960666D01*
X110074933Y-97827333D01*
X110108266Y-97760666D01*
X110174933Y-97694000D01*
X110274933Y-97660666D01*
X110341600Y-97660666D01*
X110441600Y-97694000D01*
X110474933Y-97727333D01*
X110708266Y-97660666D02*
X111141600Y-97660666D01*
X110908266Y-97927333D01*
X111008266Y-97927333D01*
X111074933Y-97960666D01*
X111108266Y-97994000D01*
X111141600Y-98060666D01*
X111141600Y-98227333D01*
X111108266Y-98294000D01*
X111074933Y-98327333D01*
X111008266Y-98360666D01*
X110808266Y-98360666D01*
X110741600Y-98327333D01*
X110708266Y-98294000D01*
%TO.C,C11*%
X129090000Y-99310000D02*
X129056666Y-99343333D01*
X128956666Y-99376666D01*
X128890000Y-99376666D01*
X128790000Y-99343333D01*
X128723333Y-99276666D01*
X128690000Y-99210000D01*
X128656666Y-99076666D01*
X128656666Y-98976666D01*
X128690000Y-98843333D01*
X128723333Y-98776666D01*
X128790000Y-98710000D01*
X128890000Y-98676666D01*
X128956666Y-98676666D01*
X129056666Y-98710000D01*
X129090000Y-98743333D01*
X129756666Y-99376666D02*
X129356666Y-99376666D01*
X129556666Y-99376666D02*
X129556666Y-98676666D01*
X129490000Y-98776666D01*
X129423333Y-98843333D01*
X129356666Y-98876666D01*
X130423333Y-99376666D02*
X130023333Y-99376666D01*
X130223333Y-99376666D02*
X130223333Y-98676666D01*
X130156666Y-98776666D01*
X130090000Y-98843333D01*
X130023333Y-98876666D01*
%TO.C,C22*%
X108058800Y-105253600D02*
X108025466Y-105286933D01*
X107925466Y-105320266D01*
X107858800Y-105320266D01*
X107758800Y-105286933D01*
X107692133Y-105220266D01*
X107658800Y-105153600D01*
X107625466Y-105020266D01*
X107625466Y-104920266D01*
X107658800Y-104786933D01*
X107692133Y-104720266D01*
X107758800Y-104653600D01*
X107858800Y-104620266D01*
X107925466Y-104620266D01*
X108025466Y-104653600D01*
X108058800Y-104686933D01*
X108325466Y-104686933D02*
X108358800Y-104653600D01*
X108425466Y-104620266D01*
X108592133Y-104620266D01*
X108658800Y-104653600D01*
X108692133Y-104686933D01*
X108725466Y-104753600D01*
X108725466Y-104820266D01*
X108692133Y-104920266D01*
X108292133Y-105320266D01*
X108725466Y-105320266D01*
X108992133Y-104686933D02*
X109025466Y-104653600D01*
X109092133Y-104620266D01*
X109258800Y-104620266D01*
X109325466Y-104653600D01*
X109358800Y-104686933D01*
X109392133Y-104753600D01*
X109392133Y-104820266D01*
X109358800Y-104920266D01*
X108958800Y-105320266D01*
X109392133Y-105320266D01*
%TO.C,U5*%
X136779066Y-108379466D02*
X136779066Y-108946133D01*
X136812400Y-109012800D01*
X136845733Y-109046133D01*
X136912400Y-109079466D01*
X137045733Y-109079466D01*
X137112400Y-109046133D01*
X137145733Y-109012800D01*
X137179066Y-108946133D01*
X137179066Y-108379466D01*
X137845733Y-108379466D02*
X137512400Y-108379466D01*
X137479066Y-108712800D01*
X137512400Y-108679466D01*
X137579066Y-108646133D01*
X137745733Y-108646133D01*
X137812400Y-108679466D01*
X137845733Y-108712800D01*
X137879066Y-108779466D01*
X137879066Y-108946133D01*
X137845733Y-109012800D01*
X137812400Y-109046133D01*
X137745733Y-109079466D01*
X137579066Y-109079466D01*
X137512400Y-109046133D01*
X137479066Y-109012800D01*
%TO.C,R1*%
X114640533Y-119798266D02*
X114407200Y-119464933D01*
X114240533Y-119798266D02*
X114240533Y-119098266D01*
X114507200Y-119098266D01*
X114573866Y-119131600D01*
X114607200Y-119164933D01*
X114640533Y-119231600D01*
X114640533Y-119331600D01*
X114607200Y-119398266D01*
X114573866Y-119431600D01*
X114507200Y-119464933D01*
X114240533Y-119464933D01*
X115307200Y-119798266D02*
X114907200Y-119798266D01*
X115107200Y-119798266D02*
X115107200Y-119098266D01*
X115040533Y-119198266D01*
X114973866Y-119264933D01*
X114907200Y-119298266D01*
%TO.C,C2*%
X110474933Y-99208400D02*
X110441600Y-99241733D01*
X110341600Y-99275066D01*
X110274933Y-99275066D01*
X110174933Y-99241733D01*
X110108266Y-99175066D01*
X110074933Y-99108400D01*
X110041600Y-98975066D01*
X110041600Y-98875066D01*
X110074933Y-98741733D01*
X110108266Y-98675066D01*
X110174933Y-98608400D01*
X110274933Y-98575066D01*
X110341600Y-98575066D01*
X110441600Y-98608400D01*
X110474933Y-98641733D01*
X110741600Y-98641733D02*
X110774933Y-98608400D01*
X110841600Y-98575066D01*
X111008266Y-98575066D01*
X111074933Y-98608400D01*
X111108266Y-98641733D01*
X111141600Y-98708400D01*
X111141600Y-98775066D01*
X111108266Y-98875066D01*
X110708266Y-99275066D01*
X111141600Y-99275066D01*
%TO.C,C14*%
X115528000Y-115562800D02*
X115494666Y-115596133D01*
X115394666Y-115629466D01*
X115328000Y-115629466D01*
X115228000Y-115596133D01*
X115161333Y-115529466D01*
X115128000Y-115462800D01*
X115094666Y-115329466D01*
X115094666Y-115229466D01*
X115128000Y-115096133D01*
X115161333Y-115029466D01*
X115228000Y-114962800D01*
X115328000Y-114929466D01*
X115394666Y-114929466D01*
X115494666Y-114962800D01*
X115528000Y-114996133D01*
X116194666Y-115629466D02*
X115794666Y-115629466D01*
X115994666Y-115629466D02*
X115994666Y-114929466D01*
X115928000Y-115029466D01*
X115861333Y-115096133D01*
X115794666Y-115129466D01*
X116794666Y-115162800D02*
X116794666Y-115629466D01*
X116628000Y-114896133D02*
X116461333Y-115396133D01*
X116894666Y-115396133D01*
%TO.C,R9*%
X119466533Y-106437866D02*
X119233200Y-106104533D01*
X119066533Y-106437866D02*
X119066533Y-105737866D01*
X119333200Y-105737866D01*
X119399866Y-105771200D01*
X119433200Y-105804533D01*
X119466533Y-105871200D01*
X119466533Y-105971200D01*
X119433200Y-106037866D01*
X119399866Y-106071200D01*
X119333200Y-106104533D01*
X119066533Y-106104533D01*
X119799866Y-106437866D02*
X119933200Y-106437866D01*
X119999866Y-106404533D01*
X120033200Y-106371200D01*
X120099866Y-106271200D01*
X120133200Y-106137866D01*
X120133200Y-105871200D01*
X120099866Y-105804533D01*
X120066533Y-105771200D01*
X119999866Y-105737866D01*
X119866533Y-105737866D01*
X119799866Y-105771200D01*
X119766533Y-105804533D01*
X119733200Y-105871200D01*
X119733200Y-106037866D01*
X119766533Y-106104533D01*
X119799866Y-106137866D01*
X119866533Y-106171200D01*
X119999866Y-106171200D01*
X120066533Y-106137866D01*
X120099866Y-106104533D01*
X120133200Y-106037866D01*
%TO.C,C24*%
X113794800Y-115668564D02*
X113794800Y-115884236D01*
X113074800Y-115668564D02*
X113074800Y-115884236D01*
%TO.C,C16*%
X114914000Y-103028636D02*
X114914000Y-102812964D01*
X114194000Y-103028636D02*
X114194000Y-102812964D01*
%TO.C,J4*%
X118178400Y-102185200D02*
X119903400Y-102185200D01*
X119903400Y-104585200D02*
X118178400Y-104585200D01*
X117978400Y-103835200D02*
X117978400Y-103035200D01*
X121828400Y-103035200D02*
X121628400Y-103035200D01*
X117668400Y-105095200D02*
X122138400Y-105095200D01*
X121828400Y-103835200D02*
X121828400Y-103035200D01*
X117978400Y-103035200D02*
X118178400Y-103035200D01*
X119903400Y-104585200D02*
X121628400Y-104585200D01*
X121628400Y-103835200D02*
X121828400Y-103835200D01*
X118178400Y-103035200D02*
X118178400Y-102185200D01*
X122138400Y-101675200D02*
X117668400Y-101675200D01*
X118178400Y-104585200D02*
X118178400Y-103835200D01*
X122138400Y-105095200D02*
X122138400Y-101675200D01*
X121628400Y-102185200D02*
X119903400Y-102185200D01*
X121628400Y-103035200D02*
X121628400Y-102185200D01*
X121628400Y-104585200D02*
X121628400Y-103835200D01*
X118178400Y-103835200D02*
X117978400Y-103835200D01*
X117668400Y-101675200D02*
X117668400Y-105095200D01*
%TO.C,U7*%
X108178600Y-112394365D02*
X108178600Y-113004600D01*
X115443000Y-113004600D02*
X115443000Y-112394365D01*
X108178600Y-105740200D02*
X108178600Y-106350435D01*
X115443000Y-105740200D02*
X114832765Y-105740200D01*
X114832765Y-113004600D02*
X115443000Y-113004600D01*
X115443000Y-106350435D02*
X115443000Y-105740200D01*
X108788835Y-105740200D02*
X108178600Y-105740200D01*
X108178600Y-113004600D02*
X108788835Y-113004600D01*
X107738084Y-106426000D02*
G75*
G03*
X107738084Y-106426000I-143684J0D01*
G01*
%TO.C,kibuzzard-62BB2280*%
G36*
X134212330Y-111633000D02*
G01*
X135637270Y-111633000D01*
X135637270Y-112903000D01*
X134212330Y-112903000D01*
X134212330Y-112731550D01*
X134371080Y-112731550D01*
X134828280Y-112731550D01*
X134828280Y-112703610D01*
X134989570Y-112703610D01*
X135089265Y-112734090D01*
X135192770Y-112744250D01*
X135280082Y-112736489D01*
X135351520Y-112713206D01*
X135407083Y-112674400D01*
X135446770Y-112620072D01*
X135470583Y-112550222D01*
X135478520Y-112464850D01*
X135468201Y-112375633D01*
X135437245Y-112307370D01*
X135385651Y-112260063D01*
X135313420Y-112233710D01*
X135313420Y-112232440D01*
X135380095Y-112200134D01*
X135427720Y-112151478D01*
X135456295Y-112086469D01*
X135465820Y-112005110D01*
X135449945Y-111915734D01*
X135402320Y-111848265D01*
X135325168Y-111805879D01*
X135220710Y-111791750D01*
X135151848Y-111796689D01*
X135080728Y-111811506D01*
X135007350Y-111836200D01*
X135007350Y-111954310D01*
X135105775Y-111914305D01*
X135195310Y-111900970D01*
X135268688Y-111914517D01*
X135312714Y-111955157D01*
X135327390Y-112022890D01*
X135315960Y-112094327D01*
X135281670Y-112143540D01*
X135221662Y-112172115D01*
X135133080Y-112181640D01*
X135107680Y-112181640D01*
X135107680Y-112293400D01*
X135133080Y-112293400D01*
X135228330Y-112303084D01*
X135290560Y-112332135D01*
X135324850Y-112383094D01*
X135336280Y-112458500D01*
X135326279Y-112535176D01*
X135296275Y-112589945D01*
X135246269Y-112622806D01*
X135176260Y-112633760D01*
X135081963Y-112620743D01*
X134989570Y-112581690D01*
X134989570Y-112703610D01*
X134828280Y-112703610D01*
X134828280Y-112621060D01*
X134518400Y-112621060D01*
X134518400Y-112618520D01*
X134592893Y-112529779D01*
X134656354Y-112446435D01*
X134708781Y-112368489D01*
X134750175Y-112295940D01*
X134790039Y-112205347D01*
X134813957Y-112119833D01*
X134821930Y-112039400D01*
X134807484Y-111932244D01*
X134764145Y-111854615D01*
X134693501Y-111807466D01*
X134597140Y-111791750D01*
X134516707Y-111799088D01*
X134441353Y-111821101D01*
X134371080Y-111857790D01*
X134371080Y-111977170D01*
X134442623Y-111935542D01*
X134508240Y-111910566D01*
X134567930Y-111902240D01*
X134651115Y-111936530D01*
X134671594Y-111980980D01*
X134678420Y-112045750D01*
X134672148Y-112115341D01*
X134653331Y-112189130D01*
X134621970Y-112267119D01*
X134578064Y-112349306D01*
X134521614Y-112435692D01*
X134452619Y-112526277D01*
X134371080Y-112621060D01*
X134371080Y-112731550D01*
X134212330Y-112731550D01*
X134212330Y-111633000D01*
G37*
%TO.C,kibuzzard-62BB2226*%
G36*
X137871200Y-103473462D02*
G01*
X137242550Y-103054362D01*
X137242550Y-102775385D01*
X137401300Y-102775385D01*
X137408638Y-102855818D01*
X137430651Y-102931172D01*
X137467340Y-103001445D01*
X137586720Y-103001445D01*
X137545092Y-102929902D01*
X137520116Y-102864285D01*
X137511790Y-102804595D01*
X137546080Y-102721410D01*
X137590530Y-102700931D01*
X137655300Y-102694105D01*
X137724891Y-102700377D01*
X137798680Y-102719194D01*
X137876669Y-102750555D01*
X137958856Y-102794461D01*
X138045242Y-102850911D01*
X138135827Y-102919906D01*
X138230610Y-103001445D01*
X138341100Y-103001445D01*
X138341100Y-102544245D01*
X138230610Y-102544245D01*
X138230610Y-102854125D01*
X138228070Y-102854125D01*
X138139329Y-102779632D01*
X138055985Y-102716171D01*
X137978039Y-102663744D01*
X137905490Y-102622350D01*
X137814897Y-102582486D01*
X137729383Y-102558568D01*
X137648950Y-102550595D01*
X137541794Y-102565041D01*
X137464165Y-102608380D01*
X137417016Y-102679024D01*
X137401300Y-102775385D01*
X137242550Y-102775385D01*
X137242550Y-102116255D01*
X137414000Y-102116255D01*
X138026140Y-102417245D01*
X138135360Y-102417245D01*
X138135360Y-102102285D01*
X138341100Y-102102285D01*
X138341100Y-101962585D01*
X138135360Y-101962585D01*
X138135360Y-101858445D01*
X138026140Y-101858445D01*
X138026140Y-101962585D01*
X137414000Y-101962585D01*
X137414000Y-102116255D01*
X137242550Y-102116255D01*
X137242550Y-101214555D01*
X137414000Y-101214555D01*
X137414000Y-101355525D01*
X138214100Y-101500305D01*
X138214100Y-101501575D01*
X137414000Y-101646355D01*
X137414000Y-101792405D01*
X138341100Y-101586665D01*
X138341100Y-101421565D01*
X137414000Y-101214555D01*
X137242550Y-101214555D01*
X137242550Y-101161638D01*
X137871200Y-100742538D01*
X138499850Y-101161638D01*
X138499850Y-103054362D01*
X137871200Y-103473462D01*
G37*
G36*
X138026140Y-102305485D02*
G01*
X138022330Y-102305485D01*
X137610850Y-102104825D01*
X137610850Y-102102285D01*
X138026140Y-102102285D01*
X138026140Y-102305485D01*
G37*
%TO.C,C19*%
X117849764Y-110536400D02*
X118065436Y-110536400D01*
X117849764Y-111256400D02*
X118065436Y-111256400D01*
%TO.C,U9*%
X124409200Y-109067600D02*
X124409200Y-112420400D01*
X127762000Y-112420400D02*
X127762000Y-109067600D01*
X127161800Y-108288200D02*
G75*
G03*
X127161800Y-108288200I-76200J0D01*
G01*
%TO.C,J9*%
X133941600Y-113151600D02*
X132603367Y-113151600D01*
X129516600Y-123271600D02*
X128516600Y-122271600D01*
X137386600Y-123271600D02*
X129516600Y-123271600D01*
X138386600Y-122271600D02*
X137386600Y-123271600D01*
X128516600Y-122271600D02*
X128516600Y-113151600D01*
X138386600Y-113151600D02*
X135961600Y-113151600D01*
X128516600Y-113151600D02*
X131299833Y-113151600D01*
X138386600Y-113151600D02*
X138386600Y-122271600D01*
%TO.C,kibuzzard-62BB1FEC*%
G36*
X137481171Y-129820988D02*
G01*
X139480429Y-129820988D01*
X139480429Y-131392612D01*
X137481171Y-131392612D01*
X137481171Y-130336925D01*
X137795000Y-130336925D01*
X138068050Y-130184525D01*
X138071225Y-130186112D01*
X138071225Y-131178300D01*
X138249025Y-131178300D01*
X138249025Y-131146550D01*
X138595100Y-131146550D01*
X138704241Y-131182269D01*
X138822113Y-131194175D01*
X138930944Y-131184297D01*
X139018257Y-131154664D01*
X139084050Y-131105275D01*
X139129911Y-131032956D01*
X139157428Y-130934531D01*
X139166600Y-130810000D01*
X139156440Y-130675697D01*
X139125960Y-130571240D01*
X139075160Y-130496628D01*
X139004040Y-130451860D01*
X138912600Y-130436938D01*
X138837194Y-130446859D01*
X138772900Y-130476625D01*
X138769725Y-130476625D01*
X138780837Y-130155950D01*
X139134850Y-130155950D01*
X139134850Y-130019425D01*
X138618912Y-130019425D01*
X138603037Y-130635375D01*
X138749088Y-130635375D01*
X138804253Y-130587750D01*
X138864975Y-130571875D01*
X138958638Y-130626644D01*
X138981259Y-130699867D01*
X138988800Y-130810000D01*
X138978084Y-130926086D01*
X138945938Y-131001294D01*
X138890375Y-131042370D01*
X138809413Y-131056063D01*
X138703447Y-131040981D01*
X138595100Y-130995737D01*
X138595100Y-131146550D01*
X138249025Y-131146550D01*
X138249025Y-130019425D01*
X138072812Y-130019425D01*
X137795000Y-130181350D01*
X137795000Y-130336925D01*
X137481171Y-130336925D01*
X137481171Y-129820988D01*
G37*
%TO.C,R5*%
X108611641Y-100458000D02*
X108304359Y-100458000D01*
X108611641Y-101218000D02*
X108304359Y-101218000D01*
%TO.C,kibuzzard-62BB2459*%
G36*
X143021191Y-120650000D02*
G01*
X143405013Y-120074267D01*
X145342187Y-120074267D01*
X145726009Y-120650000D01*
X145342187Y-121225733D01*
X143405013Y-121225733D01*
X143309058Y-121081800D01*
X144146270Y-121081800D01*
X144233583Y-121110375D01*
X144327880Y-121119900D01*
X144414946Y-121111998D01*
X144484796Y-121088291D01*
X144537430Y-121048780D01*
X144574119Y-120990924D01*
X144596132Y-120912184D01*
X144603470Y-120812560D01*
X144595342Y-120705118D01*
X144570958Y-120621552D01*
X144530318Y-120561862D01*
X144473422Y-120526048D01*
X144400270Y-120514110D01*
X144339945Y-120522048D01*
X144288510Y-120545860D01*
X144285970Y-120545860D01*
X144294860Y-120289320D01*
X144578070Y-120289320D01*
X144578070Y-120180100D01*
X144711420Y-120180100D01*
X144917160Y-121107200D01*
X145082260Y-121107200D01*
X145289270Y-120180100D01*
X145148300Y-120180100D01*
X145003520Y-120980200D01*
X145002250Y-120980200D01*
X144857470Y-120180100D01*
X144711420Y-120180100D01*
X144578070Y-120180100D01*
X144165320Y-120180100D01*
X144152620Y-120672860D01*
X144269460Y-120672860D01*
X144313593Y-120634760D01*
X144362170Y-120622060D01*
X144437100Y-120665875D01*
X144455198Y-120724454D01*
X144461230Y-120812560D01*
X144452658Y-120905429D01*
X144426940Y-120965595D01*
X144382490Y-120998456D01*
X144317720Y-121009410D01*
X144232948Y-120997345D01*
X144146270Y-120961150D01*
X144146270Y-121081800D01*
X143309058Y-121081800D01*
X143105858Y-120777000D01*
X143457930Y-120777000D01*
X143663670Y-120777000D01*
X143663670Y-121043700D01*
X143799560Y-121043700D01*
X143799560Y-120777000D01*
X144004030Y-120777000D01*
X144004030Y-120671590D01*
X143799560Y-120671590D01*
X143799560Y-120408700D01*
X143663670Y-120408700D01*
X143663670Y-120671590D01*
X143457930Y-120671590D01*
X143457930Y-120777000D01*
X143105858Y-120777000D01*
X143021191Y-120650000D01*
G37*
%TO.C,J7*%
X103460400Y-117544400D02*
X102710400Y-117544400D01*
X102710400Y-110144400D02*
X101910400Y-110144400D01*
X103970400Y-118054400D02*
X103970400Y-109834400D01*
X101910400Y-117744400D02*
X101910400Y-117544400D01*
X103460400Y-113944400D02*
X103460400Y-110344400D01*
X101060400Y-117544400D02*
X101060400Y-113944400D01*
X102710400Y-117544400D02*
X102710400Y-117744400D01*
X103970400Y-109834400D02*
X100550400Y-109834400D01*
X103460400Y-113944400D02*
X103460400Y-117544400D01*
X102710400Y-110344400D02*
X102710400Y-110144400D01*
X101910400Y-117544400D02*
X101060400Y-117544400D01*
X102710400Y-117744400D02*
X101910400Y-117744400D01*
X101910400Y-110144400D02*
X101910400Y-110344400D01*
X101060400Y-110344400D02*
X101060400Y-113944400D01*
X100550400Y-109834400D02*
X100550400Y-118054400D01*
X101910400Y-110344400D02*
X101060400Y-110344400D01*
X103460400Y-110344400D02*
X102710400Y-110344400D01*
X100550400Y-118054400D02*
X103970400Y-118054400D01*
%TO.C,C32*%
X145790800Y-129961421D02*
X144346800Y-129961421D01*
X144815800Y-130761421D02*
X141797800Y-130761421D01*
X144365800Y-130961421D02*
X142247800Y-130961421D01*
X142266800Y-128681421D02*
X140175800Y-128681421D01*
X145854800Y-129881421D02*
X144346800Y-129881421D01*
X142266800Y-128721421D02*
X140185800Y-128721421D01*
X142266800Y-130001421D02*
X140856800Y-130001421D01*
X142266800Y-129081421D02*
X140304800Y-129081421D01*
X146501800Y-128360421D02*
X144346800Y-128360421D01*
X142266800Y-128961421D02*
X140259800Y-128961421D01*
X142266800Y-129841421D02*
X140728800Y-129841421D01*
X146524800Y-128160421D02*
X144346800Y-128160421D01*
X146512800Y-128280421D02*
X144346800Y-128280421D01*
X144568800Y-130881421D02*
X142044800Y-130881421D01*
X142266800Y-129401421D02*
X140450800Y-129401421D01*
X143939800Y-131081421D02*
X142673800Y-131081421D01*
X146465800Y-128560421D02*
X144346800Y-128560421D01*
X142266800Y-128360421D02*
X140111800Y-128360421D01*
X145611800Y-130161421D02*
X144346800Y-130161421D01*
X142266800Y-129321421D02*
X140410800Y-129321421D01*
X146536800Y-127960421D02*
X140076800Y-127960421D01*
X146292800Y-129121421D02*
X144346800Y-129121421D01*
X146162800Y-129401421D02*
X144346800Y-129401421D01*
X142266800Y-128480421D02*
X140131800Y-128480421D01*
X145530800Y-130241421D02*
X141082800Y-130241421D01*
X142266800Y-129361421D02*
X140430800Y-129361421D01*
X144246800Y-131001421D02*
X142366800Y-131001421D01*
X145460800Y-124695180D02*
X144830800Y-124695180D01*
X142266800Y-129041421D02*
X140288800Y-129041421D01*
X145722800Y-130041421D02*
X144346800Y-130041421D01*
X142266800Y-128921421D02*
X140245800Y-128921421D01*
X146072800Y-129561421D02*
X144346800Y-129561421D01*
X146392800Y-128841421D02*
X144346800Y-128841421D01*
X142266800Y-129601421D02*
X140564800Y-129601421D01*
X145571800Y-130201421D02*
X141041800Y-130201421D01*
X142266800Y-129521421D02*
X140516800Y-129521421D01*
X146258800Y-129201421D02*
X144346800Y-129201421D01*
X145140800Y-130561421D02*
X141472800Y-130561421D01*
X146353800Y-128961421D02*
X144346800Y-128961421D01*
X146324800Y-129041421D02*
X144346800Y-129041421D01*
X146118800Y-129481421D02*
X144346800Y-129481421D01*
X142266800Y-129121421D02*
X140320800Y-129121421D01*
X142266800Y-129961421D02*
X140822800Y-129961421D01*
X146456800Y-128601421D02*
X144346800Y-128601421D01*
X145822800Y-129921421D02*
X144346800Y-129921421D01*
X142266800Y-128601421D02*
X140156800Y-128601421D01*
X145942800Y-129761421D02*
X144346800Y-129761421D01*
X146276800Y-129161421D02*
X144346800Y-129161421D01*
X145884800Y-129841421D02*
X144346800Y-129841421D01*
X146473800Y-128520421D02*
X144346800Y-128520421D01*
X146096800Y-129521421D02*
X144346800Y-129521421D01*
X146140800Y-129441421D02*
X144346800Y-129441421D01*
X146536800Y-127880421D02*
X140076800Y-127880421D01*
X144956800Y-130681421D02*
X141656800Y-130681421D01*
X146222800Y-129281421D02*
X144346800Y-129281421D01*
X146427800Y-128721421D02*
X144346800Y-128721421D01*
X142266800Y-129761421D02*
X140670800Y-129761421D01*
X146488800Y-128440421D02*
X144346800Y-128440421D01*
X146416800Y-128761421D02*
X144346800Y-128761421D01*
X142266800Y-129001421D02*
X140273800Y-129001421D01*
X146404800Y-128801421D02*
X144346800Y-128801421D01*
X146528800Y-128120421D02*
X144346800Y-128120421D01*
X146240800Y-129241421D02*
X144346800Y-129241421D01*
X145250800Y-130481421D02*
X141362800Y-130481421D01*
X145443800Y-130321421D02*
X141169800Y-130321421D01*
X142266800Y-129441421D02*
X140472800Y-129441421D01*
X145196800Y-130521421D02*
X141416800Y-130521421D01*
X145020800Y-130641421D02*
X141592800Y-130641421D01*
X144108800Y-131041421D02*
X142504800Y-131041421D01*
X144471800Y-130921421D02*
X142141800Y-130921421D01*
X146437800Y-128681421D02*
X144346800Y-128681421D01*
X143708800Y-131121421D02*
X142904800Y-131121421D01*
X145996800Y-129681421D02*
X144346800Y-129681421D01*
X142266800Y-128200421D02*
X140091800Y-128200421D01*
X142266800Y-129161421D02*
X140336800Y-129161421D01*
X142266800Y-128761421D02*
X140196800Y-128761421D01*
X146534800Y-128000421D02*
X140078800Y-128000421D01*
X142266800Y-129281421D02*
X140390800Y-129281421D01*
X142266800Y-128400421D02*
X140117800Y-128400421D01*
X142266800Y-130121421D02*
X140963800Y-130121421D01*
X142266800Y-129201421D02*
X140354800Y-129201421D01*
X146507800Y-128320421D02*
X144346800Y-128320421D01*
X142266800Y-128120421D02*
X140084800Y-128120421D01*
X145301800Y-130441421D02*
X141311800Y-130441421D01*
X142266800Y-130041421D02*
X140890800Y-130041421D01*
X146308800Y-129081421D02*
X144346800Y-129081421D01*
X146048800Y-129601421D02*
X144346800Y-129601421D01*
X142266800Y-128841421D02*
X140220800Y-128841421D01*
X146447800Y-128641421D02*
X144346800Y-128641421D01*
X145488800Y-130281421D02*
X141124800Y-130281421D01*
X146022800Y-129641421D02*
X144346800Y-129641421D01*
X144656800Y-130841421D02*
X141956800Y-130841421D01*
X146521800Y-128200421D02*
X144346800Y-128200421D01*
X142266800Y-129681421D02*
X140616800Y-129681421D01*
X142266800Y-129641421D02*
X140590800Y-129641421D01*
X144738800Y-130801421D02*
X141874800Y-130801421D01*
X146202800Y-129321421D02*
X144346800Y-129321421D01*
X142266800Y-129241421D02*
X140372800Y-129241421D01*
X142266800Y-129481421D02*
X140494800Y-129481421D01*
X142266800Y-128881421D02*
X140232800Y-128881421D01*
X145686800Y-130081421D02*
X144346800Y-130081421D01*
X146530800Y-128080421D02*
X140082800Y-128080421D01*
X142266800Y-129921421D02*
X140790800Y-129921421D01*
X145756800Y-130001421D02*
X144346800Y-130001421D01*
X142266800Y-128320421D02*
X140105800Y-128320421D01*
X142266800Y-130161421D02*
X141001800Y-130161421D01*
X145350800Y-130401421D02*
X141262800Y-130401421D01*
X142266800Y-128560421D02*
X140147800Y-128560421D01*
X142266800Y-128280421D02*
X140100800Y-128280421D01*
X142266800Y-129561421D02*
X140540800Y-129561421D01*
X145649800Y-130121421D02*
X144346800Y-130121421D01*
X146339800Y-129001421D02*
X144346800Y-129001421D01*
X146536800Y-127920421D02*
X140076800Y-127920421D01*
X146495800Y-128400421D02*
X144346800Y-128400421D01*
X142266800Y-129881421D02*
X140758800Y-129881421D01*
X146367800Y-128921421D02*
X144346800Y-128921421D01*
X144887800Y-130721421D02*
X141725800Y-130721421D01*
X142266800Y-128240421D02*
X140095800Y-128240421D01*
X146182800Y-129361421D02*
X144346800Y-129361421D01*
X146380800Y-128881421D02*
X144346800Y-128881421D01*
X145913800Y-129801421D02*
X144346800Y-129801421D01*
X145398800Y-130361421D02*
X141214800Y-130361421D01*
X146533800Y-128040421D02*
X140079800Y-128040421D01*
X146481800Y-128480421D02*
X144346800Y-128480421D01*
X145145800Y-124380180D02*
X145145800Y-125010180D01*
X142266800Y-129801421D02*
X140699800Y-129801421D01*
X145082800Y-130601421D02*
X141530800Y-130601421D01*
X142266800Y-129721421D02*
X140642800Y-129721421D01*
X142266800Y-128641421D02*
X140165800Y-128641421D01*
X142266800Y-130081421D02*
X140926800Y-130081421D01*
X142266800Y-128440421D02*
X140124800Y-128440421D01*
X142266800Y-128160421D02*
X140088800Y-128160421D01*
X145970800Y-129721421D02*
X144346800Y-129721421D01*
X142266800Y-128801421D02*
X140208800Y-128801421D01*
X142266800Y-128520421D02*
X140139800Y-128520421D01*
X146517800Y-128240421D02*
X144346800Y-128240421D01*
X146576800Y-127880421D02*
G75*
G03*
X146576800Y-127880421I-3270000J0D01*
G01*
%TO.C,J3*%
X113171200Y-101142800D02*
G75*
G03*
X113171200Y-101142800I-700000J0D01*
G01*
%TO.C,C18*%
X115108400Y-103028636D02*
X115108400Y-102812964D01*
X115828400Y-103028636D02*
X115828400Y-102812964D01*
%TO.C,R14*%
X115935959Y-98426000D02*
X116243241Y-98426000D01*
X115935959Y-99186000D02*
X116243241Y-99186000D01*
%TO.C,R7*%
X127661641Y-98525600D02*
X127354359Y-98525600D01*
X127661641Y-97765600D02*
X127354359Y-97765600D01*
%TO.C,J11*%
X119232600Y-115841200D02*
X119232600Y-114351200D01*
X125252600Y-115841200D02*
X124302600Y-115841200D01*
X118282600Y-119811200D02*
X118282600Y-120261200D01*
X118282600Y-115841200D02*
X119232600Y-115841200D01*
X118282600Y-120261200D02*
X125252600Y-120261200D01*
X118282600Y-116291200D02*
X118282600Y-115841200D01*
X125252600Y-116291200D02*
X125252600Y-115841200D01*
X125252600Y-120261200D02*
X125252600Y-119811200D01*
%TO.C,C15*%
X112263600Y-103028636D02*
X112263600Y-102812964D01*
X112983600Y-103028636D02*
X112983600Y-102812964D01*
%TO.C,C23*%
X106066000Y-109480236D02*
X106066000Y-109264564D01*
X106786000Y-109480236D02*
X106786000Y-109264564D01*
%TO.C,D2*%
X126704800Y-101103200D02*
X126704800Y-102953200D01*
X127904800Y-101103200D02*
X127904800Y-102953200D01*
X126704800Y-102953200D02*
X127904800Y-102953200D01*
%TO.C,R12*%
X117803959Y-108431600D02*
X118111241Y-108431600D01*
X117803959Y-107671600D02*
X118111241Y-107671600D01*
%TO.C,J2*%
X122641200Y-97704000D02*
X122641200Y-103424000D01*
X124701200Y-98014000D02*
X124701200Y-98214000D01*
X126061200Y-97704000D02*
X122641200Y-97704000D01*
X123151200Y-102914000D02*
X123901200Y-102914000D01*
X123151200Y-100564000D02*
X123151200Y-98214000D01*
X124701200Y-103114000D02*
X124701200Y-102914000D01*
X123901200Y-98014000D02*
X124701200Y-98014000D01*
X123151200Y-98214000D02*
X123901200Y-98214000D01*
X123901200Y-102914000D02*
X123901200Y-103114000D01*
X125551200Y-102914000D02*
X125551200Y-100564000D01*
X122641200Y-103424000D02*
X126061200Y-103424000D01*
X124701200Y-98214000D02*
X125551200Y-98214000D01*
X123901200Y-98214000D02*
X123901200Y-98014000D01*
X126061200Y-103424000D02*
X126061200Y-97704000D01*
X124701200Y-102914000D02*
X125551200Y-102914000D01*
X125551200Y-98214000D02*
X125551200Y-100564000D01*
X123901200Y-103114000D02*
X124701200Y-103114000D01*
X123151200Y-100564000D02*
X123151200Y-102914000D01*
%TO.C,kibuzzard-62BB238A*%
G36*
X119786400Y-114184672D02*
G01*
X119181430Y-113781359D01*
X119181430Y-113680121D01*
X119293878Y-113680121D01*
X120278922Y-113680121D01*
X120278922Y-113528991D01*
X119806641Y-113528991D01*
X119806641Y-113234827D01*
X119691944Y-113234827D01*
X119691944Y-113528991D01*
X119411274Y-113528991D01*
X119411274Y-113221333D01*
X119293878Y-113221333D01*
X119293878Y-113680121D01*
X119181430Y-113680121D01*
X119181430Y-112987892D01*
X119824182Y-112987892D01*
X119936181Y-112987892D01*
X119936181Y-112583079D01*
X119824182Y-112583079D01*
X119824182Y-112987892D01*
X119181430Y-112987892D01*
X119181430Y-112481841D01*
X119786400Y-112078528D01*
X120391370Y-112481841D01*
X120391370Y-113781359D01*
X119786400Y-114184672D01*
G37*
%TO.C,C4*%
X113076400Y-118014636D02*
X113076400Y-117798964D01*
X113796400Y-118014636D02*
X113796400Y-117798964D01*
%TO.C,J8*%
X142322400Y-119278400D02*
X142322400Y-116928400D01*
X141572400Y-116928400D02*
X141572400Y-116728400D01*
X140772400Y-121828400D02*
X140772400Y-121628400D01*
X142322400Y-116928400D02*
X141572400Y-116928400D01*
X142322400Y-119278400D02*
X142322400Y-121628400D01*
X142832400Y-116418400D02*
X139412400Y-116418400D01*
X139922400Y-116928400D02*
X139922400Y-119278400D01*
X141572400Y-121828400D02*
X140772400Y-121828400D01*
X141572400Y-116728400D02*
X140772400Y-116728400D01*
X139412400Y-122138400D02*
X142832400Y-122138400D01*
X142322400Y-121628400D02*
X141572400Y-121628400D01*
X140772400Y-121628400D02*
X139922400Y-121628400D01*
X140772400Y-116728400D02*
X140772400Y-116928400D01*
X140772400Y-116928400D02*
X139922400Y-116928400D01*
X141572400Y-121628400D02*
X141572400Y-121828400D01*
X142832400Y-122138400D02*
X142832400Y-116418400D01*
X139412400Y-116418400D02*
X139412400Y-122138400D01*
X139922400Y-121628400D02*
X139922400Y-119278400D01*
%TO.C,kibuzzard-62BB2393*%
G36*
X122305882Y-113367746D02*
G01*
X122360531Y-113400131D01*
X122390892Y-113458154D01*
X122401013Y-113545864D01*
X122401013Y-113598489D01*
X122056922Y-113598489D01*
X122046127Y-113520226D01*
X122056753Y-113448371D01*
X122088632Y-113397432D01*
X122143451Y-113367071D01*
X122222895Y-113356951D01*
X122305882Y-113367746D01*
G37*
G36*
X122428000Y-114213654D02*
G01*
X121816283Y-113805843D01*
X121816283Y-113520226D01*
X121928731Y-113520226D01*
X121931730Y-113597890D01*
X121940726Y-113674354D01*
X121955719Y-113749619D01*
X122927269Y-113749619D01*
X122927269Y-113598489D01*
X122518408Y-113598489D01*
X122518408Y-113545864D01*
X122544721Y-113464226D01*
X122582672Y-113438420D01*
X122643900Y-113416324D01*
X122927269Y-113338060D01*
X122927269Y-113182882D01*
X122651996Y-113266543D01*
X122546070Y-113309723D01*
X122479276Y-113360999D01*
X122476578Y-113360999D01*
X122437952Y-113294880D01*
X122382796Y-113247652D01*
X122311110Y-113219315D01*
X122222895Y-113209869D01*
X122130313Y-113218190D01*
X122055872Y-113243154D01*
X121999573Y-113284760D01*
X121960217Y-113344207D01*
X121936603Y-113422696D01*
X121928731Y-113520226D01*
X121816283Y-113520226D01*
X121816283Y-112886019D01*
X122185112Y-112886019D01*
X122464433Y-112886019D01*
X122464433Y-113104618D01*
X122576431Y-113104618D01*
X122576431Y-112886019D01*
X122859800Y-112886019D01*
X122859800Y-112741636D01*
X122576431Y-112741636D01*
X122576431Y-112524387D01*
X122464433Y-112524387D01*
X122464433Y-112741636D01*
X122185112Y-112741636D01*
X122185112Y-112886019D01*
X121816283Y-112886019D01*
X121816283Y-112468163D01*
X122428000Y-112060352D01*
X123039717Y-112468163D01*
X123039717Y-113805843D01*
X122428000Y-114213654D01*
G37*
%TO.C,C29*%
X125685436Y-113178000D02*
X125469764Y-113178000D01*
X125685436Y-113898000D02*
X125469764Y-113898000D01*
%TO.C,kibuzzard-62BB238F*%
G36*
X121107200Y-114189170D02*
G01*
X120495483Y-113781359D01*
X120495483Y-113470968D01*
X120607931Y-113470968D01*
X120610930Y-113548632D01*
X120619926Y-113625096D01*
X120634919Y-113700362D01*
X121606469Y-113700362D01*
X121606469Y-113549232D01*
X121197608Y-113549232D01*
X121197608Y-113496606D01*
X121223921Y-113414969D01*
X121261872Y-113389162D01*
X121323100Y-113367066D01*
X121606469Y-113288802D01*
X121606469Y-113133624D01*
X121331196Y-113217285D01*
X121225270Y-113260465D01*
X121158476Y-113311742D01*
X121155778Y-113311742D01*
X121117152Y-113245622D01*
X121061996Y-113198394D01*
X120990310Y-113170057D01*
X120902095Y-113160612D01*
X120809513Y-113168933D01*
X120735072Y-113193896D01*
X120678773Y-113235502D01*
X120639417Y-113294949D01*
X120615803Y-113373438D01*
X120607931Y-113470968D01*
X120495483Y-113470968D01*
X120495483Y-112967651D01*
X121151729Y-112967651D01*
X121263728Y-112967651D01*
X121263728Y-112562838D01*
X121151729Y-112562838D01*
X121151729Y-112967651D01*
X120495483Y-112967651D01*
X120495483Y-112481841D01*
X121107200Y-112074030D01*
X121718917Y-112481841D01*
X121718917Y-113781359D01*
X121107200Y-114189170D01*
G37*
G36*
X120985082Y-113318488D02*
G01*
X121039731Y-113350873D01*
X121070092Y-113408897D01*
X121080213Y-113496606D01*
X121080213Y-113549232D01*
X120736122Y-113549232D01*
X120725327Y-113470968D01*
X120735953Y-113399114D01*
X120767832Y-113348175D01*
X120822651Y-113317814D01*
X120902095Y-113307693D01*
X120985082Y-113318488D01*
G37*
%TO.C,C13*%
X118065436Y-107497200D02*
X117849764Y-107497200D01*
X118065436Y-106777200D02*
X117849764Y-106777200D01*
%TO.C,TP1*%
X112663200Y-118567200D02*
G75*
G03*
X112663200Y-118567200I-700000J0D01*
G01*
%TO.C,R4*%
X108611641Y-99543600D02*
X108304359Y-99543600D01*
X108611641Y-100303600D02*
X108304359Y-100303600D01*
%TO.C,R11*%
X111989600Y-115622759D02*
X111989600Y-115930041D01*
X112749600Y-115622759D02*
X112749600Y-115930041D01*
%TO.C,R8*%
X141476759Y-110717600D02*
X141784041Y-110717600D01*
X141476759Y-109957600D02*
X141784041Y-109957600D01*
%TO.C,kibuzzard-62BB1C3A*%
G36*
X129358569Y-110516730D02*
G01*
X129388711Y-110552151D01*
X129406630Y-110616186D01*
X129412603Y-110713837D01*
X129405380Y-110814128D01*
X129383711Y-110879414D01*
X129347317Y-110915252D01*
X129295922Y-110927198D01*
X129223691Y-110912751D01*
X129223691Y-110542705D01*
X129263973Y-110514368D01*
X129315924Y-110504923D01*
X129358569Y-110516730D01*
G37*
G36*
X128803638Y-110293229D02*
G01*
X128836976Y-110359349D01*
X128646952Y-110689390D01*
X128644729Y-110597156D01*
X128646211Y-110518134D01*
X128650656Y-110451459D01*
X128658064Y-110397131D01*
X128673483Y-110336568D01*
X128693069Y-110299341D01*
X128751409Y-110273782D01*
X128803638Y-110293229D01*
G37*
G36*
X128857256Y-110536871D02*
G01*
X128858089Y-110597156D01*
X128856608Y-110676178D01*
X128852163Y-110742853D01*
X128844754Y-110797181D01*
X128829336Y-110857744D01*
X128809750Y-110894971D01*
X128751409Y-110920530D01*
X128695847Y-110897749D01*
X128661398Y-110819406D01*
X128854756Y-110484920D01*
X128857256Y-110536871D01*
G37*
G36*
X128474061Y-111150079D02*
G01*
X128419586Y-111141998D01*
X128366164Y-111128617D01*
X128314312Y-111110064D01*
X128264528Y-111086518D01*
X128217291Y-111058205D01*
X128173057Y-111025399D01*
X128132252Y-110988415D01*
X128095268Y-110947610D01*
X128062462Y-110903376D01*
X128034149Y-110856139D01*
X128010603Y-110806355D01*
X127992050Y-110754502D01*
X127978668Y-110701081D01*
X127970588Y-110646605D01*
X127968159Y-110597156D01*
X128529159Y-110597156D01*
X128532061Y-110695749D01*
X128540766Y-110779648D01*
X128555274Y-110848854D01*
X128586528Y-110927475D01*
X128628061Y-110977759D01*
X128682234Y-111004846D01*
X128751409Y-111013875D01*
X128820585Y-111004846D01*
X128873646Y-110978315D01*
X129101453Y-110978315D01*
X129158497Y-110998071D01*
X129221468Y-111009924D01*
X129290366Y-111013875D01*
X129367289Y-111006281D01*
X129429148Y-110983501D01*
X129475944Y-110945533D01*
X129508665Y-110889415D01*
X129528297Y-110812183D01*
X129534841Y-110713837D01*
X129529223Y-110617159D01*
X129512369Y-110540483D01*
X129484279Y-110483809D01*
X129444582Y-110444915D01*
X129392909Y-110421579D01*
X129329259Y-110413800D01*
X129275086Y-110419912D01*
X129223691Y-110438248D01*
X129223691Y-110169325D01*
X129101453Y-110169325D01*
X129101453Y-110978315D01*
X128873646Y-110978315D01*
X128874758Y-110977759D01*
X128916291Y-110927475D01*
X128947545Y-110848854D01*
X128962053Y-110779648D01*
X128970758Y-110695749D01*
X128973659Y-110597156D01*
X128970758Y-110498564D01*
X128962053Y-110414664D01*
X128947545Y-110345458D01*
X128916291Y-110266837D01*
X128874758Y-110216553D01*
X128820585Y-110189466D01*
X128751409Y-110180437D01*
X128682234Y-110189466D01*
X128628061Y-110216553D01*
X128586528Y-110266837D01*
X128555274Y-110345458D01*
X128540766Y-110414664D01*
X128532061Y-110498564D01*
X128529159Y-110597156D01*
X127968159Y-110597156D01*
X127967886Y-110591600D01*
X127970588Y-110536595D01*
X127978668Y-110482119D01*
X127992050Y-110428698D01*
X128010603Y-110376845D01*
X128034149Y-110327061D01*
X128062462Y-110279824D01*
X128095268Y-110235590D01*
X128132252Y-110194785D01*
X128173057Y-110157801D01*
X128217291Y-110124995D01*
X128264528Y-110096682D01*
X128314312Y-110073136D01*
X128366164Y-110054583D01*
X128419586Y-110041202D01*
X128474061Y-110033121D01*
X128529067Y-110030419D01*
X129534933Y-110030419D01*
X129589939Y-110033121D01*
X129644414Y-110041202D01*
X129697836Y-110054583D01*
X129749688Y-110073136D01*
X129799472Y-110096682D01*
X129846709Y-110124995D01*
X129890943Y-110157801D01*
X129931748Y-110194785D01*
X129968732Y-110235590D01*
X130001538Y-110279824D01*
X130029851Y-110327061D01*
X130053397Y-110376845D01*
X130071950Y-110428698D01*
X130085332Y-110482119D01*
X130093412Y-110536595D01*
X130096114Y-110591600D01*
X130093412Y-110646605D01*
X130085332Y-110701081D01*
X130071950Y-110754502D01*
X130053397Y-110806355D01*
X130029851Y-110856139D01*
X130001538Y-110903376D01*
X129968732Y-110947610D01*
X129931748Y-110988415D01*
X129890943Y-111025399D01*
X129846709Y-111058205D01*
X129799472Y-111086518D01*
X129749688Y-111110064D01*
X129697836Y-111128617D01*
X129644414Y-111141998D01*
X129589939Y-111150079D01*
X129534933Y-111152781D01*
X128529067Y-111152781D01*
X128474061Y-111150079D01*
G37*
%TO.C,kibuzzard-62BB2432*%
G36*
X145040032Y-117560725D02*
G01*
X145100675Y-117619780D01*
X145126781Y-117685256D01*
X145142444Y-117776696D01*
X145147665Y-117894100D01*
X145142514Y-118023781D01*
X145127063Y-118123264D01*
X145101310Y-118192550D01*
X145040826Y-118253510D01*
X144952085Y-118273830D01*
X144894935Y-118262400D01*
X144894935Y-117552470D01*
X144952085Y-117541040D01*
X145040032Y-117560725D01*
G37*
G36*
X143020133Y-117906800D02*
G01*
X143024366Y-117900450D01*
X143461105Y-117900450D01*
X143466066Y-118013559D01*
X143480949Y-118111588D01*
X143505753Y-118194534D01*
X143540480Y-118262400D01*
X143585128Y-118315184D01*
X143639699Y-118352887D01*
X143704191Y-118375509D01*
X143778605Y-118383050D01*
X143854523Y-118378111D01*
X143892218Y-118370350D01*
X144127855Y-118370350D01*
X144267555Y-118370350D01*
X144267555Y-117697250D01*
X144270095Y-117697250D01*
X144468215Y-118370350D01*
X144610455Y-118370350D01*
X144610455Y-118357650D01*
X144752695Y-118357650D01*
X144848262Y-118376700D01*
X144952085Y-118383050D01*
X145057495Y-118372096D01*
X145140045Y-118339235D01*
X145202751Y-118279386D01*
X145248630Y-118187470D01*
X145269444Y-118106896D01*
X145281932Y-118009106D01*
X145286095Y-117894100D01*
X145281213Y-117775395D01*
X145266569Y-117675819D01*
X145242161Y-117595372D01*
X145207990Y-117534055D01*
X145144843Y-117476552D01*
X145059541Y-117442051D01*
X144952085Y-117430550D01*
X144852072Y-117436900D01*
X144752695Y-117455950D01*
X144752695Y-118357650D01*
X144610455Y-118357650D01*
X144610455Y-117443250D01*
X144477105Y-117443250D01*
X144477105Y-118116350D01*
X144473295Y-118116350D01*
X144275175Y-117443250D01*
X144127855Y-117443250D01*
X144127855Y-118370350D01*
X143892218Y-118370350D01*
X143926489Y-118363294D01*
X143994505Y-118338600D01*
X143994505Y-117817900D01*
X143698595Y-117817900D01*
X143698595Y-117925850D01*
X143858615Y-117925850D01*
X143858615Y-118258590D01*
X143782415Y-118273830D01*
X143704945Y-118252240D01*
X143647795Y-118187470D01*
X143621689Y-118117197D01*
X143606026Y-118021523D01*
X143600805Y-117900450D01*
X143606308Y-117782128D01*
X143622818Y-117689630D01*
X143650335Y-117622955D01*
X143713517Y-117562471D01*
X143804005Y-117542310D01*
X143881792Y-117549930D01*
X143962755Y-117572790D01*
X143962755Y-117458490D01*
X143884967Y-117437535D01*
X143804005Y-117430550D01*
X143699230Y-117443109D01*
X143613505Y-117480786D01*
X143546830Y-117543580D01*
X143509325Y-117608271D01*
X143482536Y-117689313D01*
X143466463Y-117786706D01*
X143461105Y-117900450D01*
X143024366Y-117900450D01*
X143408188Y-117324717D01*
X145339012Y-117324717D01*
X145727067Y-117906800D01*
X145339012Y-118488883D01*
X143408188Y-118488883D01*
X143020133Y-117906800D01*
G37*
%TO.C,kibuzzard-62BB1FE0*%
G36*
X137481171Y-124232987D02*
G01*
X139480429Y-124232987D01*
X139480429Y-125804613D01*
X137481171Y-125804613D01*
X137481171Y-124764800D01*
X137800556Y-124764800D01*
X138073606Y-124612400D01*
X138076781Y-124613988D01*
X138076781Y-125606175D01*
X138254581Y-125606175D01*
X138589544Y-125606175D01*
X139161044Y-125606175D01*
X139161044Y-125468063D01*
X138773694Y-125468063D01*
X138773694Y-125464888D01*
X138866811Y-125353961D01*
X138946136Y-125249781D01*
X139011670Y-125152348D01*
X139063413Y-125061663D01*
X139113242Y-124948421D01*
X139143140Y-124841529D01*
X139153106Y-124740988D01*
X139135048Y-124607042D01*
X139080875Y-124510006D01*
X138992570Y-124451070D01*
X138872119Y-124431425D01*
X138771577Y-124440597D01*
X138677385Y-124468114D01*
X138589544Y-124513975D01*
X138589544Y-124663200D01*
X138678973Y-124611165D01*
X138760994Y-124579944D01*
X138835606Y-124569537D01*
X138939588Y-124612400D01*
X138965186Y-124667963D01*
X138973719Y-124748925D01*
X138965878Y-124835914D01*
X138942358Y-124928151D01*
X138903156Y-125025636D01*
X138848274Y-125128370D01*
X138777711Y-125236352D01*
X138691468Y-125349583D01*
X138589544Y-125468063D01*
X138589544Y-125606175D01*
X138254581Y-125606175D01*
X138254581Y-124447300D01*
X138078369Y-124447300D01*
X137800556Y-124609225D01*
X137800556Y-124764800D01*
X137481171Y-124764800D01*
X137481171Y-124232987D01*
G37*
%TO.C,Y1*%
X109180400Y-117281200D02*
X108180400Y-117281200D01*
X107980400Y-116881200D02*
X107980400Y-117281200D01*
X111780400Y-114881200D02*
X111780400Y-116881200D01*
X108180400Y-116881200D02*
X108180400Y-117281200D01*
X111780400Y-116881200D02*
X111780400Y-117281200D01*
X107980400Y-114881200D02*
X107980400Y-116881200D01*
X109180400Y-117281200D02*
X109180400Y-117681200D01*
X110980400Y-114881200D02*
X111780400Y-114881200D01*
X111780400Y-117281200D02*
X110980400Y-117281200D01*
X108180400Y-114881200D02*
X109180400Y-114881200D01*
X108180400Y-116881200D02*
X108180400Y-114881200D01*
%TO.C,R6*%
X127661641Y-100354400D02*
X127354359Y-100354400D01*
X127661641Y-99594400D02*
X127354359Y-99594400D01*
%TO.C,C17*%
X116185836Y-99360400D02*
X115970164Y-99360400D01*
X116185836Y-100080400D02*
X115970164Y-100080400D01*
%TO.C,kibuzzard-62BB2232*%
G36*
X137988181Y-104336286D02*
G01*
X138087664Y-104351737D01*
X138156950Y-104377490D01*
X138217910Y-104437974D01*
X138238230Y-104526715D01*
X138226800Y-104583865D01*
X137516870Y-104583865D01*
X137505440Y-104526715D01*
X137525125Y-104438768D01*
X137584180Y-104378125D01*
X137649656Y-104352019D01*
X137741096Y-104336356D01*
X137858500Y-104331135D01*
X137988181Y-104336286D01*
G37*
G36*
X137871200Y-106493945D02*
G01*
X137236200Y-106070612D01*
X137236200Y-105674795D01*
X137394950Y-105674795D01*
X137407509Y-105779570D01*
X137445186Y-105865295D01*
X137507980Y-105931970D01*
X137572671Y-105969475D01*
X137653713Y-105996264D01*
X137751106Y-106012337D01*
X137864850Y-106017695D01*
X137977959Y-106012734D01*
X138075988Y-105997851D01*
X138158934Y-105973047D01*
X138226800Y-105938320D01*
X138279584Y-105893672D01*
X138317287Y-105839101D01*
X138339909Y-105774609D01*
X138347450Y-105700195D01*
X138342511Y-105624277D01*
X138327694Y-105552311D01*
X138303000Y-105484295D01*
X137782300Y-105484295D01*
X137782300Y-105780205D01*
X137890250Y-105780205D01*
X137890250Y-105620185D01*
X138222990Y-105620185D01*
X138238230Y-105696385D01*
X138216640Y-105773855D01*
X138151870Y-105831005D01*
X138081597Y-105857111D01*
X137985923Y-105872774D01*
X137864850Y-105877995D01*
X137746528Y-105872492D01*
X137654030Y-105855982D01*
X137587355Y-105828465D01*
X137526871Y-105765283D01*
X137506710Y-105674795D01*
X137514330Y-105597008D01*
X137537190Y-105516045D01*
X137422890Y-105516045D01*
X137401935Y-105593832D01*
X137394950Y-105674795D01*
X137236200Y-105674795D01*
X137236200Y-105350945D01*
X137407650Y-105350945D01*
X138334750Y-105350945D01*
X138334750Y-105211245D01*
X137661650Y-105211245D01*
X137661650Y-105208705D01*
X138334750Y-105010585D01*
X138334750Y-104868345D01*
X137407650Y-104868345D01*
X137407650Y-105001695D01*
X138080750Y-105001695D01*
X138080750Y-105005505D01*
X137407650Y-105203625D01*
X137407650Y-105350945D01*
X137236200Y-105350945D01*
X137236200Y-104526715D01*
X137394950Y-104526715D01*
X137401300Y-104626728D01*
X137420350Y-104726105D01*
X138322050Y-104726105D01*
X138341100Y-104630537D01*
X138347450Y-104526715D01*
X138336496Y-104421305D01*
X138303635Y-104338755D01*
X138243786Y-104276049D01*
X138151870Y-104230170D01*
X138071296Y-104209356D01*
X137973506Y-104196868D01*
X137858500Y-104192705D01*
X137739795Y-104197587D01*
X137640219Y-104212231D01*
X137559772Y-104236639D01*
X137498455Y-104270810D01*
X137440952Y-104333957D01*
X137406451Y-104419259D01*
X137394950Y-104526715D01*
X137236200Y-104526715D01*
X137236200Y-104139788D01*
X137871200Y-103716455D01*
X138506200Y-104139788D01*
X138506200Y-106070612D01*
X137871200Y-106493945D01*
G37*
%TO.C,J10*%
X102717600Y-108897600D02*
X102717600Y-109097600D01*
X103977600Y-101187600D02*
X100557600Y-101187600D01*
X100557600Y-101187600D02*
X100557600Y-109407600D01*
X101067600Y-101697600D02*
X101067600Y-105297600D01*
X103467600Y-108897600D02*
X102717600Y-108897600D01*
X102717600Y-109097600D02*
X101917600Y-109097600D01*
X101917600Y-109097600D02*
X101917600Y-108897600D01*
X101917600Y-101697600D02*
X101067600Y-101697600D01*
X103467600Y-105297600D02*
X103467600Y-101697600D01*
X102717600Y-101697600D02*
X102717600Y-101497600D01*
X101917600Y-101497600D02*
X101917600Y-101697600D01*
X101917600Y-108897600D02*
X101067600Y-108897600D01*
X101067600Y-108897600D02*
X101067600Y-105297600D01*
X103467600Y-101697600D02*
X102717600Y-101697600D01*
X103467600Y-105297600D02*
X103467600Y-108897600D01*
X100557600Y-109407600D02*
X103977600Y-109407600D01*
X103977600Y-109407600D02*
X103977600Y-101187600D01*
X102717600Y-101497600D02*
X101917600Y-101497600D01*
%TO.C,J5*%
X145980000Y-109968800D02*
X145230000Y-109968800D01*
X145980000Y-112318800D02*
X145980000Y-109968800D01*
X143070000Y-109458800D02*
X143070000Y-115178800D01*
X145980000Y-114668800D02*
X145230000Y-114668800D01*
X145230000Y-114868800D02*
X144430000Y-114868800D01*
X145980000Y-112318800D02*
X145980000Y-114668800D01*
X145230000Y-109768800D02*
X144430000Y-109768800D01*
X145230000Y-114668800D02*
X145230000Y-114868800D01*
X143070000Y-115178800D02*
X146490000Y-115178800D01*
X145230000Y-109968800D02*
X145230000Y-109768800D01*
X143580000Y-109968800D02*
X143580000Y-112318800D01*
X144430000Y-109768800D02*
X144430000Y-109968800D01*
X146490000Y-115178800D02*
X146490000Y-109458800D01*
X146490000Y-109458800D02*
X143070000Y-109458800D01*
X144430000Y-114668800D02*
X143580000Y-114668800D01*
X144430000Y-109968800D02*
X143580000Y-109968800D01*
X143580000Y-114668800D02*
X143580000Y-112318800D01*
X144430000Y-114868800D02*
X144430000Y-114668800D01*
%TO.C,R10*%
X141784041Y-111733600D02*
X141476759Y-111733600D01*
X141784041Y-110973600D02*
X141476759Y-110973600D01*
%TO.C,kibuzzard-62BB1FE5*%
G36*
X137481171Y-126104650D02*
G01*
X139480429Y-126104650D01*
X139480429Y-127692150D01*
X137481171Y-127692150D01*
X137481171Y-126636463D01*
X137791031Y-126636463D01*
X138064081Y-126484063D01*
X138067256Y-126485650D01*
X138067256Y-127477838D01*
X138245056Y-127477838D01*
X138245056Y-127442913D01*
X138559381Y-127442913D01*
X138684000Y-127481013D01*
X138813381Y-127493713D01*
X138922522Y-127484011D01*
X139011819Y-127454907D01*
X139081272Y-127406400D01*
X139130881Y-127338490D01*
X139160647Y-127251178D01*
X139170569Y-127144463D01*
X139157670Y-127032941D01*
X139118975Y-126947613D01*
X139054483Y-126888478D01*
X138964194Y-126855538D01*
X138964194Y-126853950D01*
X139047537Y-126813568D01*
X139107069Y-126752747D01*
X139142788Y-126671487D01*
X139154694Y-126569788D01*
X139134850Y-126458067D01*
X139075319Y-126373731D01*
X138978878Y-126320748D01*
X138848306Y-126303087D01*
X138762228Y-126309261D01*
X138673328Y-126327782D01*
X138581606Y-126358650D01*
X138581606Y-126506288D01*
X138704638Y-126456281D01*
X138816556Y-126439613D01*
X138908278Y-126456546D01*
X138963312Y-126507346D01*
X138981656Y-126592013D01*
X138967369Y-126681309D01*
X138924506Y-126742825D01*
X138849497Y-126778544D01*
X138738769Y-126790450D01*
X138707019Y-126790450D01*
X138707019Y-126930150D01*
X138738769Y-126930150D01*
X138857831Y-126942255D01*
X138935619Y-126978569D01*
X138978481Y-127042267D01*
X138992769Y-127136525D01*
X138980267Y-127232370D01*
X138942763Y-127300831D01*
X138880255Y-127341908D01*
X138792744Y-127355600D01*
X138674872Y-127339328D01*
X138559381Y-127290513D01*
X138559381Y-127442913D01*
X138245056Y-127442913D01*
X138245056Y-126318963D01*
X138068844Y-126318963D01*
X137791031Y-126480888D01*
X137791031Y-126636463D01*
X137481171Y-126636463D01*
X137481171Y-126104650D01*
G37*
%TO.C,J1*%
X138805600Y-98646200D02*
X138805600Y-101071200D01*
X138805600Y-103091200D02*
X138805600Y-104429433D01*
X138805600Y-98646200D02*
X147925600Y-98646200D01*
X147925600Y-108516200D02*
X138805600Y-108516200D01*
X148925600Y-99646200D02*
X148925600Y-107516200D01*
X148925600Y-107516200D02*
X147925600Y-108516200D01*
X138805600Y-108516200D02*
X138805600Y-105732967D01*
X147925600Y-98646200D02*
X148925600Y-99646200D01*
%TO.C,kibuzzard-62BB2448*%
G36*
X143373971Y-118649750D02*
G01*
X145373229Y-118649750D01*
X145373229Y-119907050D01*
X143373971Y-119907050D01*
X143373971Y-119748300D01*
X143827500Y-119748300D01*
X144284700Y-119748300D01*
X144462500Y-119748300D01*
X144919700Y-119748300D01*
X144919700Y-119637810D01*
X144609820Y-119637810D01*
X144609820Y-119635270D01*
X144684313Y-119546529D01*
X144747774Y-119463185D01*
X144800201Y-119385239D01*
X144841595Y-119312690D01*
X144881459Y-119222097D01*
X144905377Y-119136583D01*
X144913350Y-119056150D01*
X144898904Y-118948994D01*
X144855565Y-118871365D01*
X144784921Y-118824216D01*
X144688560Y-118808500D01*
X144608127Y-118815838D01*
X144532773Y-118837851D01*
X144462500Y-118874540D01*
X144462500Y-118993920D01*
X144534043Y-118952292D01*
X144599660Y-118927316D01*
X144659350Y-118918990D01*
X144742535Y-118953280D01*
X144763014Y-118997730D01*
X144769840Y-119062500D01*
X144763568Y-119132091D01*
X144744751Y-119205880D01*
X144713390Y-119283869D01*
X144669484Y-119366056D01*
X144613034Y-119452442D01*
X144544039Y-119543027D01*
X144462500Y-119637810D01*
X144462500Y-119748300D01*
X144284700Y-119748300D01*
X144284700Y-119637810D01*
X143974820Y-119637810D01*
X143974820Y-119635270D01*
X144049313Y-119546529D01*
X144112774Y-119463185D01*
X144165201Y-119385239D01*
X144206595Y-119312690D01*
X144246459Y-119222097D01*
X144270377Y-119136583D01*
X144278350Y-119056150D01*
X144263904Y-118948994D01*
X144220565Y-118871365D01*
X144149921Y-118824216D01*
X144053560Y-118808500D01*
X143973127Y-118815838D01*
X143897773Y-118837851D01*
X143827500Y-118874540D01*
X143827500Y-118993920D01*
X143899043Y-118952292D01*
X143964660Y-118927316D01*
X144024350Y-118918990D01*
X144107535Y-118953280D01*
X144128014Y-118997730D01*
X144134840Y-119062500D01*
X144128568Y-119132091D01*
X144109751Y-119205880D01*
X144078390Y-119283869D01*
X144034484Y-119366056D01*
X143978034Y-119452442D01*
X143909039Y-119543027D01*
X143827500Y-119637810D01*
X143827500Y-119748300D01*
X143373971Y-119748300D01*
X143373971Y-118649750D01*
G37*
%TO.C,C21*%
X113178000Y-103028636D02*
X113178000Y-102812964D01*
X113898000Y-103028636D02*
X113898000Y-102812964D01*
%TO.C,kibuzzard-62BB1FE8*%
G36*
X137481171Y-128000125D02*
G01*
X139480429Y-128000125D01*
X139480429Y-129555875D01*
X137481171Y-129555875D01*
X137481171Y-128516062D01*
X137768806Y-128516062D01*
X138041856Y-128363662D01*
X138045031Y-128365250D01*
X138045031Y-129357437D01*
X138222831Y-129357437D01*
X138222831Y-129100263D01*
X138494294Y-129100263D01*
X138887994Y-129100263D01*
X138887994Y-129357437D01*
X139062619Y-129357437D01*
X139062619Y-129100263D01*
X139192794Y-129100263D01*
X139192794Y-128963738D01*
X139062619Y-128963738D01*
X139062619Y-128198563D01*
X138870531Y-128198563D01*
X138494294Y-128963738D01*
X138494294Y-129100263D01*
X138222831Y-129100263D01*
X138222831Y-128198563D01*
X138046619Y-128198563D01*
X137768806Y-128360487D01*
X137768806Y-128516062D01*
X137481171Y-128516062D01*
X137481171Y-128000125D01*
G37*
G36*
X138887994Y-128963738D02*
G01*
X138633994Y-128963738D01*
X138633994Y-128958975D01*
X138884819Y-128444625D01*
X138887994Y-128444625D01*
X138887994Y-128963738D01*
G37*
%TO.C,C20*%
X116073600Y-105517836D02*
X116073600Y-105302164D01*
X116793600Y-105517836D02*
X116793600Y-105302164D01*
%TO.C,U4*%
X108748568Y-103847900D02*
X109382165Y-103847900D01*
X110301032Y-101587300D02*
X109667435Y-101587300D01*
X109667435Y-103847900D02*
X110301032Y-103847900D01*
X109382165Y-101587300D02*
X108748568Y-101587300D01*
X107387260Y-101893771D02*
G75*
G03*
X107387260Y-102041429I-18860J-73829D01*
G01*
%TO.C,R15*%
X115947159Y-101014800D02*
X116254441Y-101014800D01*
X115947159Y-100254800D02*
X116254441Y-100254800D01*
%TO.C,kibuzzard-62BB2226*%
G36*
X130612938Y-112268000D02*
G01*
X131032038Y-111639350D01*
X132924762Y-111639350D01*
X133343862Y-112268000D01*
X132924762Y-112896650D01*
X131032038Y-112896650D01*
X130926205Y-112737900D01*
X131084955Y-112737900D01*
X131542155Y-112737900D01*
X131542155Y-112627410D01*
X131232275Y-112627410D01*
X131232275Y-112624870D01*
X131306768Y-112536129D01*
X131309790Y-112532160D01*
X131669155Y-112532160D01*
X131984115Y-112532160D01*
X131984115Y-112737900D01*
X132123815Y-112737900D01*
X132123815Y-112532160D01*
X132227955Y-112532160D01*
X132227955Y-112422940D01*
X132123815Y-112422940D01*
X132123815Y-111810800D01*
X132293995Y-111810800D01*
X132499735Y-112737900D01*
X132664835Y-112737900D01*
X132871845Y-111810800D01*
X132730875Y-111810800D01*
X132586095Y-112610900D01*
X132584825Y-112610900D01*
X132440045Y-111810800D01*
X132293995Y-111810800D01*
X132123815Y-111810800D01*
X131970145Y-111810800D01*
X131669155Y-112422940D01*
X131669155Y-112532160D01*
X131309790Y-112532160D01*
X131370229Y-112452785D01*
X131422656Y-112374839D01*
X131464050Y-112302290D01*
X131503914Y-112211697D01*
X131527832Y-112126183D01*
X131535805Y-112045750D01*
X131521359Y-111938594D01*
X131478020Y-111860965D01*
X131407376Y-111813816D01*
X131311015Y-111798100D01*
X131230582Y-111805438D01*
X131155228Y-111827451D01*
X131084955Y-111864140D01*
X131084955Y-111983520D01*
X131156498Y-111941892D01*
X131222115Y-111916916D01*
X131281805Y-111908590D01*
X131364990Y-111942880D01*
X131385469Y-111987330D01*
X131392295Y-112052100D01*
X131386023Y-112121691D01*
X131367206Y-112195480D01*
X131335845Y-112273469D01*
X131291939Y-112355656D01*
X131235489Y-112442042D01*
X131166494Y-112532627D01*
X131084955Y-112627410D01*
X131084955Y-112737900D01*
X130926205Y-112737900D01*
X130612938Y-112268000D01*
G37*
G36*
X131984115Y-112422940D02*
G01*
X131780915Y-112422940D01*
X131780915Y-112419130D01*
X131981575Y-112007650D01*
X131984115Y-112007650D01*
X131984115Y-112422940D01*
G37*
%TO.C,C3*%
X110699436Y-99563600D02*
X110483764Y-99563600D01*
X110699436Y-100283600D02*
X110483764Y-100283600D01*
%TO.C,C11*%
X127400164Y-99420000D02*
X127615836Y-99420000D01*
X127400164Y-98700000D02*
X127615836Y-98700000D01*
%TO.C,C22*%
X106777200Y-105568636D02*
X106777200Y-105352964D01*
X107497200Y-105568636D02*
X107497200Y-105352964D01*
%TO.C,U5*%
X138582400Y-112456400D02*
X137782400Y-112456400D01*
X138582400Y-109336400D02*
X139382400Y-109336400D01*
X138582400Y-112456400D02*
X139382400Y-112456400D01*
X138582400Y-109336400D02*
X136782400Y-109336400D01*
%TO.C,R1*%
X113970800Y-117753159D02*
X113970800Y-118060441D01*
X114730800Y-117753159D02*
X114730800Y-118060441D01*
%TO.C,C2*%
X110699436Y-101198000D02*
X110483764Y-101198000D01*
X110699436Y-100478000D02*
X110483764Y-100478000D01*
%TO.C,C14*%
X114092400Y-115665364D02*
X114092400Y-115881036D01*
X114812400Y-115665364D02*
X114812400Y-115881036D01*
%TO.C,J6*%
X117668400Y-97712800D02*
X117668400Y-101132800D01*
X118178400Y-100622800D02*
X118178400Y-99872800D01*
X122138400Y-97712800D02*
X117668400Y-97712800D01*
X121628400Y-99072800D02*
X121628400Y-98222800D01*
X121628400Y-100622800D02*
X121628400Y-99872800D01*
X118178400Y-99072800D02*
X118178400Y-98222800D01*
X119903400Y-100622800D02*
X118178400Y-100622800D01*
X117668400Y-101132800D02*
X122138400Y-101132800D01*
X118178400Y-98222800D02*
X119903400Y-98222800D01*
X121828400Y-99872800D02*
X121828400Y-99072800D01*
X121828400Y-99072800D02*
X121628400Y-99072800D01*
X117978400Y-99072800D02*
X118178400Y-99072800D01*
X119903400Y-100622800D02*
X121628400Y-100622800D01*
X121628400Y-99872800D02*
X121828400Y-99872800D01*
X121628400Y-98222800D02*
X119903400Y-98222800D01*
X122138400Y-101132800D02*
X122138400Y-97712800D01*
X118178400Y-99872800D02*
X117978400Y-99872800D01*
X117978400Y-99872800D02*
X117978400Y-99072800D01*
%TO.C,R9*%
X117803959Y-105840800D02*
X118111241Y-105840800D01*
X117803959Y-106600800D02*
X118111241Y-106600800D01*
%TO.C,kibuzzard-62BB2397*%
G36*
X123748800Y-114190075D02*
G01*
X123143830Y-113786762D01*
X123143830Y-113729379D01*
X123256278Y-113729379D01*
X124241322Y-113729379D01*
X124241322Y-113578249D01*
X123769041Y-113578249D01*
X123769041Y-113284085D01*
X123654344Y-113284085D01*
X123654344Y-113578249D01*
X123373674Y-113578249D01*
X123373674Y-113270591D01*
X123256278Y-113270591D01*
X123256278Y-113729379D01*
X123143830Y-113729379D01*
X123143830Y-112906260D01*
X123499166Y-112906260D01*
X123778486Y-112906260D01*
X123778486Y-113124859D01*
X123890484Y-113124859D01*
X123890484Y-112906260D01*
X124173853Y-112906260D01*
X124173853Y-112761877D01*
X123890484Y-112761877D01*
X123890484Y-112544627D01*
X123778486Y-112544627D01*
X123778486Y-112761877D01*
X123499166Y-112761877D01*
X123499166Y-112906260D01*
X123143830Y-112906260D01*
X123143830Y-112487244D01*
X123748800Y-112083931D01*
X124353770Y-112487244D01*
X124353770Y-113786762D01*
X123748800Y-114190075D01*
G37*
%TD*%
M02*
