%TF.GenerationSoftware,KiCad,Pcbnew,(6.0.6)*%
%TF.CreationDate,2022-07-03T12:41:07+08:00*%
%TF.ProjectId,Stealthburner_Toolhead_PCB,53746561-6c74-4686-9275-726e65725f54,rev?*%
%TF.SameCoordinates,Original*%
%TF.FileFunction,Soldermask,Bot*%
%TF.FilePolarity,Negative*%
%FSLAX46Y46*%
G04 Gerber Fmt 4.6, Leading zero omitted, Abs format (unit mm)*
G04 Created by KiCad (PCBNEW (6.0.6)) date 2022-07-03 12:41:07*
%MOMM*%
%LPD*%
G01*
G04 APERTURE LIST*
G04 Aperture macros list*
%AMRoundRect*
0 Rectangle with rounded corners*
0 $1 Rounding radius*
0 $2 $3 $4 $5 $6 $7 $8 $9 X,Y pos of 4 corners*
0 Add a 4 corners polygon primitive as box body*
4,1,4,$2,$3,$4,$5,$6,$7,$8,$9,$2,$3,0*
0 Add four circle primitives for the rounded corners*
1,1,$1+$1,$2,$3*
1,1,$1+$1,$4,$5*
1,1,$1+$1,$6,$7*
1,1,$1+$1,$8,$9*
0 Add four rect primitives between the rounded corners*
20,1,$1+$1,$2,$3,$4,$5,0*
20,1,$1+$1,$4,$5,$6,$7,0*
20,1,$1+$1,$6,$7,$8,$9,0*
20,1,$1+$1,$8,$9,$2,$3,0*%
%AMFreePoly0*
4,1,17,1.370000,0.720000,0.950000,0.720000,0.950000,0.580000,1.370000,0.580000,1.370000,0.080000,0.950000,0.080000,0.950000,-0.080000,1.370000,-0.080000,1.370000,-0.580000,0.950000,-0.580000,0.950000,-0.720000,1.371000,-0.720000,1.371000,-1.225000,-0.950000,-1.225000,-0.950000,1.225000,1.370000,1.225000,1.370000,0.720000,1.370000,0.720000,$1*%
G04 Aperture macros list end*
%ADD10C,0.024000*%
%ADD11RoundRect,0.200000X-0.200000X-0.450000X0.200000X-0.450000X0.200000X0.450000X-0.200000X0.450000X0*%
%ADD12O,0.800000X1.300000*%
%ADD13C,3.000000*%
%ADD14RoundRect,0.250001X0.499999X0.759999X-0.499999X0.759999X-0.499999X-0.759999X0.499999X-0.759999X0*%
%ADD15O,1.500000X2.020000*%
%ADD16RoundRect,0.200000X0.450000X-0.200000X0.450000X0.200000X-0.450000X0.200000X-0.450000X-0.200000X0*%
%ADD17O,1.300000X0.800000*%
%ADD18R,1.600000X1.600000*%
%ADD19C,1.600000*%
%ADD20C,1.000000*%
%ADD21C,5.000000*%
%ADD22RoundRect,0.200000X-0.450000X0.200000X-0.450000X-0.200000X0.450000X-0.200000X0.450000X0.200000X0*%
%ADD23RoundRect,0.250001X-0.759999X0.499999X-0.759999X-0.499999X0.759999X-0.499999X0.759999X0.499999X0*%
%ADD24O,2.020000X1.500000*%
%ADD25RoundRect,0.225000X0.250000X-0.225000X0.250000X0.225000X-0.250000X0.225000X-0.250000X-0.225000X0*%
%ADD26RoundRect,0.225000X-0.250000X0.225000X-0.250000X-0.225000X0.250000X-0.225000X0.250000X0.225000X0*%
%ADD27RoundRect,0.150000X-0.512500X-0.150000X0.512500X-0.150000X0.512500X0.150000X-0.512500X0.150000X0*%
%ADD28RoundRect,0.075000X0.337500X0.075000X-0.337500X0.075000X-0.337500X-0.075000X0.337500X-0.075000X0*%
%ADD29RoundRect,0.075000X0.075000X0.337500X-0.075000X0.337500X-0.075000X-0.337500X0.075000X-0.337500X0*%
%ADD30R,3.250000X3.250000*%
%ADD31RoundRect,0.135000X0.135000X0.185000X-0.135000X0.185000X-0.135000X-0.185000X0.135000X-0.185000X0*%
%ADD32RoundRect,0.135000X-0.135000X-0.185000X0.135000X-0.185000X0.135000X0.185000X-0.135000X0.185000X0*%
%ADD33RoundRect,0.140000X0.140000X0.170000X-0.140000X0.170000X-0.140000X-0.170000X0.140000X-0.170000X0*%
%ADD34RoundRect,0.150000X-0.150000X0.587500X-0.150000X-0.587500X0.150000X-0.587500X0.150000X0.587500X0*%
%ADD35RoundRect,0.150000X-0.587500X-0.150000X0.587500X-0.150000X0.587500X0.150000X-0.587500X0.150000X0*%
%ADD36RoundRect,0.140000X0.170000X-0.140000X0.170000X0.140000X-0.170000X0.140000X-0.170000X-0.140000X0*%
%ADD37RoundRect,0.140000X-0.140000X-0.170000X0.140000X-0.170000X0.140000X0.170000X-0.140000X0.170000X0*%
%ADD38R,0.630000X0.500000*%
%ADD39FreePoly0,180.000000*%
%ADD40R,0.600000X0.700000*%
%ADD41RoundRect,0.250000X-0.450000X0.262500X-0.450000X-0.262500X0.450000X-0.262500X0.450000X0.262500X0*%
%ADD42RoundRect,0.200000X-0.200000X-0.275000X0.200000X-0.275000X0.200000X0.275000X-0.200000X0.275000X0*%
%ADD43RoundRect,0.200000X0.200000X0.275000X-0.200000X0.275000X-0.200000X-0.275000X0.200000X-0.275000X0*%
%ADD44RoundRect,0.150000X-0.150000X0.512500X-0.150000X-0.512500X0.150000X-0.512500X0.150000X0.512500X0*%
%ADD45R,1.200000X0.900000*%
%ADD46R,1.200000X3.700000*%
%ADD47RoundRect,0.140000X-0.170000X0.140000X-0.170000X-0.140000X0.170000X-0.140000X0.170000X0.140000X0*%
%ADD48R,0.800000X0.500000*%
%ADD49R,0.762000X0.254000*%
%ADD50R,0.254000X0.762000*%
%ADD51R,3.800000X3.800000*%
%ADD52RoundRect,0.150000X0.150000X-0.325000X0.150000X0.325000X-0.150000X0.325000X-0.150000X-0.325000X0*%
%ADD53RoundRect,0.150000X0.325000X-0.150000X0.325000X0.150000X-0.325000X0.150000X-0.325000X-0.150000X0*%
%ADD54R,0.500000X0.800000*%
%ADD55RoundRect,0.218750X-0.256250X0.218750X-0.256250X-0.218750X0.256250X-0.218750X0.256250X0.218750X0*%
%ADD56RoundRect,0.250000X-0.250000X-0.475000X0.250000X-0.475000X0.250000X0.475000X-0.250000X0.475000X0*%
%ADD57RoundRect,0.135000X-0.185000X0.135000X-0.185000X-0.135000X0.185000X-0.135000X0.185000X0.135000X0*%
%ADD58RoundRect,0.250000X0.350000X0.625000X-0.350000X0.625000X-0.350000X-0.625000X0.350000X-0.625000X0*%
%ADD59O,1.200000X1.750000*%
%ADD60RoundRect,0.225000X0.225000X0.250000X-0.225000X0.250000X-0.225000X-0.250000X0.225000X-0.250000X0*%
%ADD61RoundRect,0.135000X0.185000X-0.135000X0.185000X0.135000X-0.185000X0.135000X-0.185000X-0.135000X0*%
G04 APERTURE END LIST*
D10*
G36*
X103952190Y-119040729D02*
G01*
X103953439Y-119040847D01*
X103954674Y-119041016D01*
X103955893Y-119041236D01*
X103957095Y-119041506D01*
X103958280Y-119041824D01*
X103959446Y-119042189D01*
X103960591Y-119042601D01*
X103961715Y-119043059D01*
X103962817Y-119043561D01*
X103963894Y-119044106D01*
X103964946Y-119044694D01*
X103965973Y-119045324D01*
X103966971Y-119045994D01*
X103967941Y-119046704D01*
X103968881Y-119047452D01*
X103969790Y-119048238D01*
X103970667Y-119049060D01*
X103971510Y-119049917D01*
X103972318Y-119050810D01*
X103973090Y-119051735D01*
X103973826Y-119052693D01*
X103974523Y-119053683D01*
X103975180Y-119054703D01*
X103975796Y-119055753D01*
X103976371Y-119056831D01*
X103976902Y-119057936D01*
X103977389Y-119059068D01*
X103977831Y-119060226D01*
X103978225Y-119061408D01*
X103978572Y-119062614D01*
X103978869Y-119063841D01*
X104079517Y-119602321D01*
X104080142Y-119604999D01*
X104080931Y-119607612D01*
X104081877Y-119610155D01*
X104082975Y-119612622D01*
X104084221Y-119615007D01*
X104085609Y-119617304D01*
X104087134Y-119619506D01*
X104088791Y-119621607D01*
X104090575Y-119623602D01*
X104092481Y-119625485D01*
X104094503Y-119627248D01*
X104096637Y-119628887D01*
X104098878Y-119630395D01*
X104101219Y-119631765D01*
X104103657Y-119632993D01*
X104106186Y-119634071D01*
X104469089Y-119782344D01*
X104471589Y-119783320D01*
X104474126Y-119784140D01*
X104476694Y-119784804D01*
X104479286Y-119785313D01*
X104481895Y-119785667D01*
X104484513Y-119785867D01*
X104487135Y-119785913D01*
X104489753Y-119785806D01*
X104492360Y-119785546D01*
X104494949Y-119785134D01*
X104497514Y-119784569D01*
X104500048Y-119783853D01*
X104502543Y-119782987D01*
X104504992Y-119781970D01*
X104507390Y-119780803D01*
X104509729Y-119779486D01*
X104958356Y-119467701D01*
X104959432Y-119467036D01*
X104960527Y-119466421D01*
X104961640Y-119465857D01*
X104962768Y-119465343D01*
X104963912Y-119464880D01*
X104965068Y-119464467D01*
X104966236Y-119464104D01*
X104967413Y-119463790D01*
X104968599Y-119463527D01*
X104969792Y-119463313D01*
X104972191Y-119463033D01*
X104974598Y-119462950D01*
X104977000Y-119463063D01*
X104979386Y-119463370D01*
X104981741Y-119463871D01*
X104984055Y-119464564D01*
X104985192Y-119464982D01*
X104986314Y-119465448D01*
X104987419Y-119465962D01*
X104988506Y-119466523D01*
X104989572Y-119467131D01*
X104990617Y-119467786D01*
X104991639Y-119468489D01*
X104992637Y-119469238D01*
X104993608Y-119470034D01*
X104994551Y-119470876D01*
X105375552Y-119851876D01*
X105376399Y-119852803D01*
X105377200Y-119853758D01*
X105378664Y-119855746D01*
X105379941Y-119857829D01*
X105381031Y-119859992D01*
X105381932Y-119862225D01*
X105382644Y-119864514D01*
X105383164Y-119866848D01*
X105383492Y-119869212D01*
X105383626Y-119871595D01*
X105383566Y-119873985D01*
X105383309Y-119876369D01*
X105382856Y-119878733D01*
X105382203Y-119881067D01*
X105381352Y-119883356D01*
X105380299Y-119885589D01*
X105379697Y-119886681D01*
X105379044Y-119887754D01*
X105074879Y-120332254D01*
X105073555Y-120334573D01*
X105072384Y-120336952D01*
X105071366Y-120339385D01*
X105070503Y-120341865D01*
X105069795Y-120344383D01*
X105069241Y-120346933D01*
X105068844Y-120349508D01*
X105068602Y-120352100D01*
X105068517Y-120354701D01*
X105068588Y-120357305D01*
X105068817Y-120359905D01*
X105069204Y-120362492D01*
X105069749Y-120365061D01*
X105070453Y-120367602D01*
X105071316Y-120370110D01*
X105072339Y-120372576D01*
X105231089Y-120745956D01*
X105232208Y-120748454D01*
X105233468Y-120750863D01*
X105234865Y-120753179D01*
X105236392Y-120755396D01*
X105238043Y-120757511D01*
X105239814Y-120759517D01*
X105241698Y-120761412D01*
X105243690Y-120763189D01*
X105245784Y-120764844D01*
X105247975Y-120766373D01*
X105250258Y-120767771D01*
X105252625Y-120769033D01*
X105255073Y-120770154D01*
X105257595Y-120771130D01*
X105260185Y-120771955D01*
X105262839Y-120772626D01*
X105784809Y-120869464D01*
X105785444Y-120869464D01*
X105786666Y-120869770D01*
X105787866Y-120870125D01*
X105789042Y-120870526D01*
X105790194Y-120870974D01*
X105791321Y-120871467D01*
X105792422Y-120872003D01*
X105794540Y-120873201D01*
X105796542Y-120874560D01*
X105798419Y-120876070D01*
X105800164Y-120877721D01*
X105801769Y-120879505D01*
X105803225Y-120881411D01*
X105804526Y-120883431D01*
X105805663Y-120885555D01*
X105806629Y-120887773D01*
X105807415Y-120890077D01*
X105807739Y-120891257D01*
X105808014Y-120892456D01*
X105808242Y-120893671D01*
X105808419Y-120894901D01*
X105808546Y-120896146D01*
X105808621Y-120897404D01*
X105808620Y-121432709D01*
X105808555Y-121433970D01*
X105808437Y-121435219D01*
X105808268Y-121436454D01*
X105808048Y-121437673D01*
X105807779Y-121438875D01*
X105807461Y-121440060D01*
X105807095Y-121441226D01*
X105806683Y-121442371D01*
X105806226Y-121443495D01*
X105805724Y-121444597D01*
X105805178Y-121445674D01*
X105804590Y-121446726D01*
X105803960Y-121447753D01*
X105803290Y-121448751D01*
X105802581Y-121449721D01*
X105801833Y-121450661D01*
X105801047Y-121451570D01*
X105800225Y-121452447D01*
X105799367Y-121453290D01*
X105798475Y-121454098D01*
X105797549Y-121454870D01*
X105796591Y-121455606D01*
X105795602Y-121456303D01*
X105794582Y-121456960D01*
X105793532Y-121457576D01*
X105792454Y-121458151D01*
X105791348Y-121458682D01*
X105790216Y-121459169D01*
X105789059Y-121459610D01*
X105787877Y-121460005D01*
X105786672Y-121460351D01*
X105785444Y-121460649D01*
X105277444Y-121555898D01*
X105274768Y-121556564D01*
X105272158Y-121557390D01*
X105269618Y-121558370D01*
X105267155Y-121559499D01*
X105264773Y-121560772D01*
X105262481Y-121562185D01*
X105260282Y-121563732D01*
X105258183Y-121565409D01*
X105256190Y-121567210D01*
X105254309Y-121569131D01*
X105252545Y-121571166D01*
X105250905Y-121573311D01*
X105249393Y-121575560D01*
X105248017Y-121577909D01*
X105246782Y-121580353D01*
X105245694Y-121582886D01*
X105086944Y-121979761D01*
X105085968Y-121982261D01*
X105085148Y-121984798D01*
X105084483Y-121987366D01*
X105083974Y-121989958D01*
X105083620Y-121992567D01*
X105083420Y-121995186D01*
X105083374Y-121997807D01*
X105083482Y-122000425D01*
X105083742Y-122003032D01*
X105084154Y-122005621D01*
X105084719Y-122008186D01*
X105085434Y-122010720D01*
X105086301Y-122013215D01*
X105087318Y-122015665D01*
X105088485Y-122018062D01*
X105089801Y-122020401D01*
X105379044Y-122441724D01*
X105379701Y-122442806D01*
X105380308Y-122443907D01*
X105380863Y-122445025D01*
X105381368Y-122446159D01*
X105381822Y-122447307D01*
X105382226Y-122448468D01*
X105382580Y-122449640D01*
X105382884Y-122450821D01*
X105383138Y-122452010D01*
X105383342Y-122453205D01*
X105383601Y-122455609D01*
X105383664Y-122458019D01*
X105383530Y-122460422D01*
X105383202Y-122462807D01*
X105382680Y-122465161D01*
X105381965Y-122467470D01*
X105381536Y-122468605D01*
X105381060Y-122469723D01*
X105380536Y-122470825D01*
X105379965Y-122471907D01*
X105379346Y-122472969D01*
X105378680Y-122474010D01*
X105377968Y-122475026D01*
X105377209Y-122476018D01*
X105376403Y-122476982D01*
X105375551Y-122477919D01*
X104994551Y-122858919D01*
X104993615Y-122859771D01*
X104992650Y-122860576D01*
X104990642Y-122862048D01*
X104988540Y-122863332D01*
X104986356Y-122864427D01*
X104984103Y-122865333D01*
X104981793Y-122866047D01*
X104979440Y-122866569D01*
X104977055Y-122866897D01*
X104974651Y-122867031D01*
X104972242Y-122866969D01*
X104969838Y-122866709D01*
X104967454Y-122866251D01*
X104965101Y-122865594D01*
X104962792Y-122864735D01*
X104960539Y-122863675D01*
X104959438Y-122863068D01*
X104958356Y-122862411D01*
X104545606Y-122576661D01*
X104543262Y-122575459D01*
X104540863Y-122574418D01*
X104538417Y-122573536D01*
X104535933Y-122572815D01*
X104533417Y-122572254D01*
X104530879Y-122571854D01*
X104528325Y-122571613D01*
X104525762Y-122571533D01*
X104523200Y-122571613D01*
X104520646Y-122571854D01*
X104518108Y-122572254D01*
X104515592Y-122572815D01*
X104513108Y-122573536D01*
X104510662Y-122574418D01*
X104508263Y-122575459D01*
X104505919Y-122576661D01*
X104323356Y-122674134D01*
X104322337Y-122674646D01*
X104321296Y-122675102D01*
X104320238Y-122675501D01*
X104319164Y-122675843D01*
X104318076Y-122676128D01*
X104316977Y-122676356D01*
X104315869Y-122676525D01*
X104314755Y-122676637D01*
X104313636Y-122676692D01*
X104312516Y-122676688D01*
X104311395Y-122676625D01*
X104310277Y-122676505D01*
X104309164Y-122676325D01*
X104308059Y-122676087D01*
X104306962Y-122675790D01*
X104305878Y-122675434D01*
X104304814Y-122675022D01*
X104303778Y-122674556D01*
X104302772Y-122674038D01*
X104301798Y-122673470D01*
X104300858Y-122672854D01*
X104299952Y-122672191D01*
X104299084Y-122671483D01*
X104298253Y-122670732D01*
X104297463Y-122669938D01*
X104296714Y-122669104D01*
X104296009Y-122668231D01*
X104295349Y-122667320D01*
X104294736Y-122666375D01*
X104294171Y-122665395D01*
X104293657Y-122664382D01*
X104293194Y-122663339D01*
X103916004Y-121753701D01*
X103915601Y-121752522D01*
X103915251Y-121751336D01*
X103914954Y-121750143D01*
X103914709Y-121748947D01*
X103914516Y-121747747D01*
X103914375Y-121746546D01*
X103914284Y-121745346D01*
X103914244Y-121744147D01*
X103914253Y-121742951D01*
X103914312Y-121741759D01*
X103914420Y-121740574D01*
X103914577Y-121739396D01*
X103914781Y-121738227D01*
X103915032Y-121737069D01*
X103915331Y-121735923D01*
X103915676Y-121734790D01*
X103916067Y-121733673D01*
X103916503Y-121732572D01*
X103916985Y-121731489D01*
X103917511Y-121730425D01*
X103918081Y-121729383D01*
X103918694Y-121728363D01*
X103919351Y-121727367D01*
X103920050Y-121726396D01*
X103920791Y-121725453D01*
X103921574Y-121724538D01*
X103922398Y-121723653D01*
X103923262Y-121722799D01*
X103924167Y-121721978D01*
X103925111Y-121721192D01*
X103926094Y-121720442D01*
X103927116Y-121719729D01*
X103972836Y-121691789D01*
X103976651Y-121689284D01*
X103980410Y-121686699D01*
X103984112Y-121684035D01*
X103987757Y-121681293D01*
X103991342Y-121678474D01*
X103994866Y-121675579D01*
X103998329Y-121672608D01*
X104001729Y-121669564D01*
X104042027Y-121641453D01*
X104079423Y-121610517D01*
X104113833Y-121576973D01*
X104145176Y-121541038D01*
X104173372Y-121502929D01*
X104198337Y-121462863D01*
X104219992Y-121421058D01*
X104238253Y-121377730D01*
X104253040Y-121333097D01*
X104264271Y-121287375D01*
X104271864Y-121240782D01*
X104275739Y-121193536D01*
X104275812Y-121145852D01*
X104272003Y-121097948D01*
X104264230Y-121050042D01*
X104252411Y-121002350D01*
X104245017Y-120978828D01*
X104236718Y-120955789D01*
X104217500Y-120911223D01*
X104194941Y-120868792D01*
X104169228Y-120828635D01*
X104140546Y-120790891D01*
X104109080Y-120755699D01*
X104075017Y-120723199D01*
X104038542Y-120693528D01*
X103999839Y-120666827D01*
X103959096Y-120643235D01*
X103916497Y-120622891D01*
X103872229Y-120605934D01*
X103826475Y-120592502D01*
X103779423Y-120582736D01*
X103731258Y-120576775D01*
X103706816Y-120575264D01*
X103682165Y-120574757D01*
X103657514Y-120575264D01*
X103633072Y-120576775D01*
X103608862Y-120579271D01*
X103584907Y-120582736D01*
X103561230Y-120587153D01*
X103537855Y-120592502D01*
X103514804Y-120598769D01*
X103492102Y-120605934D01*
X103469770Y-120613980D01*
X103447833Y-120622891D01*
X103426313Y-120632649D01*
X103405234Y-120643235D01*
X103384619Y-120654634D01*
X103364491Y-120666827D01*
X103344873Y-120679798D01*
X103325789Y-120693528D01*
X103307261Y-120708001D01*
X103289313Y-120723199D01*
X103271968Y-120739104D01*
X103255250Y-120755699D01*
X103239181Y-120772968D01*
X103223784Y-120790891D01*
X103209084Y-120809453D01*
X103195102Y-120828635D01*
X103181863Y-120848421D01*
X103169389Y-120868792D01*
X103157704Y-120889732D01*
X103146830Y-120911223D01*
X103136792Y-120933248D01*
X103127612Y-120955789D01*
X103119313Y-120978828D01*
X103111919Y-121002350D01*
X103105499Y-121026155D01*
X103100100Y-121050042D01*
X103095713Y-121073982D01*
X103092327Y-121097948D01*
X103089932Y-121121914D01*
X103088518Y-121145852D01*
X103088075Y-121169735D01*
X103088591Y-121193536D01*
X103090059Y-121217227D01*
X103092466Y-121240782D01*
X103095802Y-121264174D01*
X103100059Y-121287375D01*
X103105225Y-121310359D01*
X103111290Y-121333097D01*
X103118244Y-121355563D01*
X103126077Y-121377730D01*
X103134778Y-121399571D01*
X103144338Y-121421058D01*
X103154746Y-121442165D01*
X103165993Y-121462863D01*
X103178067Y-121483127D01*
X103190958Y-121502929D01*
X103204657Y-121522242D01*
X103219154Y-121541038D01*
X103234437Y-121559291D01*
X103250497Y-121576973D01*
X103267324Y-121594058D01*
X103284908Y-121610517D01*
X103303237Y-121626325D01*
X103322303Y-121641453D01*
X103342094Y-121655875D01*
X103362602Y-121669564D01*
X103366001Y-121672608D01*
X103369464Y-121675579D01*
X103372989Y-121678474D01*
X103376574Y-121681293D01*
X103380218Y-121684035D01*
X103383920Y-121686699D01*
X103387679Y-121689284D01*
X103391494Y-121691789D01*
X103437214Y-121719729D01*
X103438243Y-121720437D01*
X103439233Y-121721183D01*
X103440182Y-121721966D01*
X103441091Y-121722785D01*
X103442785Y-121724523D01*
X103444310Y-121726382D01*
X103445662Y-121728353D01*
X103446838Y-121730420D01*
X103447833Y-121732573D01*
X103448644Y-121734798D01*
X103449266Y-121737083D01*
X103449696Y-121739416D01*
X103449930Y-121741783D01*
X103449962Y-121744172D01*
X103449791Y-121746571D01*
X103449411Y-121748968D01*
X103449141Y-121750161D01*
X103448818Y-121751348D01*
X103448441Y-121752529D01*
X103448009Y-121753701D01*
X103072089Y-122665244D01*
X103071636Y-122666372D01*
X103071123Y-122667467D01*
X103070552Y-122668527D01*
X103069926Y-122669550D01*
X103069245Y-122670533D01*
X103068514Y-122671475D01*
X103067732Y-122672374D01*
X103066902Y-122673228D01*
X103066027Y-122674035D01*
X103065108Y-122674793D01*
X103064147Y-122675500D01*
X103063147Y-122676155D01*
X103062108Y-122676754D01*
X103061034Y-122677297D01*
X103059926Y-122677781D01*
X103058786Y-122678205D01*
X103057624Y-122678564D01*
X103056450Y-122678856D01*
X103055267Y-122679080D01*
X103054079Y-122679238D01*
X103052887Y-122679329D01*
X103051694Y-122679354D01*
X103050503Y-122679313D01*
X103049317Y-122679207D01*
X103048139Y-122679036D01*
X103046972Y-122678799D01*
X103045817Y-122678499D01*
X103044679Y-122678134D01*
X103043559Y-122677705D01*
X103042460Y-122677213D01*
X103041386Y-122676657D01*
X103040339Y-122676039D01*
X102857777Y-122578566D01*
X102855432Y-122577364D01*
X102853033Y-122576322D01*
X102850587Y-122575441D01*
X102848103Y-122574720D01*
X102845588Y-122574159D01*
X102843049Y-122573758D01*
X102840495Y-122573518D01*
X102837933Y-122573438D01*
X102835371Y-122573518D01*
X102832816Y-122573758D01*
X102830278Y-122574159D01*
X102827762Y-122574720D01*
X102825278Y-122575441D01*
X102822832Y-122576322D01*
X102820434Y-122577364D01*
X102818089Y-122578566D01*
X102405339Y-122864316D01*
X102404257Y-122864973D01*
X102403156Y-122865580D01*
X102402038Y-122866135D01*
X102400904Y-122866640D01*
X102399755Y-122867095D01*
X102398595Y-122867499D01*
X102397423Y-122867852D01*
X102396242Y-122868156D01*
X102395053Y-122868410D01*
X102393857Y-122868614D01*
X102391454Y-122868874D01*
X102389044Y-122868936D01*
X102386640Y-122868802D01*
X102384255Y-122868474D01*
X102381902Y-122867952D01*
X102379592Y-122867238D01*
X102378458Y-122866809D01*
X102377339Y-122866332D01*
X102376238Y-122865808D01*
X102375155Y-122865237D01*
X102374093Y-122864618D01*
X102373053Y-122863953D01*
X102372037Y-122863241D01*
X102371045Y-122862481D01*
X102370080Y-122861676D01*
X102369144Y-122860824D01*
X101988144Y-122479823D01*
X101986628Y-122477862D01*
X101985284Y-122475811D01*
X101984112Y-122473682D01*
X101983113Y-122471484D01*
X101982288Y-122469230D01*
X101981638Y-122466928D01*
X101981164Y-122464590D01*
X101980867Y-122462225D01*
X101980748Y-122459845D01*
X101980808Y-122457460D01*
X101981047Y-122455080D01*
X101981466Y-122452716D01*
X101982068Y-122450379D01*
X101982851Y-122448078D01*
X101983818Y-122445824D01*
X101984969Y-122443629D01*
X102274211Y-122022306D01*
X102275528Y-122019968D01*
X102276695Y-122017570D01*
X102277712Y-122015120D01*
X102278578Y-122012625D01*
X102279294Y-122010092D01*
X102279859Y-122007527D01*
X102280271Y-122004937D01*
X102280531Y-122002330D01*
X102280638Y-121999712D01*
X102280592Y-121997091D01*
X102280392Y-121994472D01*
X102280038Y-121991863D01*
X102279529Y-121989272D01*
X102278865Y-121986704D01*
X102278045Y-121984166D01*
X102277069Y-121981666D01*
X102118319Y-121584792D01*
X102117301Y-121582323D01*
X102116142Y-121579936D01*
X102114848Y-121577636D01*
X102113425Y-121575428D01*
X102111877Y-121573316D01*
X102110210Y-121571305D01*
X102108430Y-121569400D01*
X102106541Y-121567606D01*
X102104548Y-121565928D01*
X102102458Y-121564369D01*
X102100275Y-121562935D01*
X102098005Y-121561631D01*
X102095653Y-121560461D01*
X102093224Y-121559430D01*
X102090723Y-121558543D01*
X102088156Y-121557804D01*
X101580157Y-121462554D01*
X101578929Y-121462256D01*
X101577723Y-121461910D01*
X101576541Y-121461515D01*
X101575384Y-121461074D01*
X101574251Y-121460587D01*
X101573146Y-121460056D01*
X101572068Y-121459481D01*
X101571018Y-121458865D01*
X101569008Y-121457511D01*
X101567125Y-121456003D01*
X101565375Y-121454352D01*
X101563767Y-121452566D01*
X101562309Y-121450656D01*
X101561009Y-121448631D01*
X101559876Y-121446502D01*
X101558916Y-121444276D01*
X101558504Y-121443131D01*
X101558139Y-121441965D01*
X101557821Y-121440781D01*
X101557551Y-121439578D01*
X101557331Y-121438359D01*
X101557162Y-121437124D01*
X101557044Y-121435876D01*
X101556979Y-121434614D01*
X101556979Y-120897404D01*
X101557054Y-120896146D01*
X101557181Y-120894901D01*
X101557358Y-120893671D01*
X101557585Y-120892456D01*
X101557861Y-120891257D01*
X101558185Y-120890077D01*
X101558555Y-120888915D01*
X101558971Y-120887773D01*
X101559432Y-120886653D01*
X101559937Y-120885555D01*
X101560485Y-120884481D01*
X101561074Y-120883431D01*
X101561704Y-120882408D01*
X101562375Y-120881411D01*
X101563084Y-120880443D01*
X101563831Y-120879505D01*
X101564616Y-120878597D01*
X101565436Y-120877721D01*
X101566291Y-120876878D01*
X101567181Y-120876070D01*
X101568103Y-120875296D01*
X101569058Y-120874560D01*
X101570044Y-120873861D01*
X101571060Y-120873201D01*
X101572105Y-120872581D01*
X101573178Y-120872003D01*
X101574279Y-120871466D01*
X101575406Y-120870974D01*
X101576558Y-120870526D01*
X101577734Y-120870125D01*
X101578934Y-120869770D01*
X101580156Y-120869464D01*
X102102444Y-120774214D01*
X102105098Y-120773543D01*
X102107688Y-120772717D01*
X102110210Y-120771741D01*
X102112658Y-120770620D01*
X102115025Y-120769358D01*
X102117307Y-120767961D01*
X102119499Y-120766432D01*
X102121593Y-120764776D01*
X102123585Y-120762999D01*
X102125469Y-120761105D01*
X102127240Y-120759098D01*
X102128891Y-120756984D01*
X102130418Y-120754767D01*
X102131815Y-120752451D01*
X102133075Y-120750042D01*
X102134194Y-120747544D01*
X102292944Y-120374164D01*
X102293855Y-120371696D01*
X102294610Y-120369194D01*
X102295210Y-120366665D01*
X102295654Y-120364115D01*
X102295944Y-120361552D01*
X102296080Y-120358983D01*
X102296063Y-120356415D01*
X102295894Y-120353854D01*
X102295573Y-120351308D01*
X102295101Y-120348783D01*
X102294478Y-120346287D01*
X102293706Y-120343826D01*
X102292785Y-120341408D01*
X102291716Y-120339039D01*
X102290498Y-120336726D01*
X102289134Y-120334476D01*
X101984969Y-119889977D01*
X101984316Y-119888904D01*
X101983714Y-119887812D01*
X101983163Y-119886703D01*
X101982661Y-119885579D01*
X101982210Y-119884440D01*
X101981810Y-119883289D01*
X101981459Y-119882127D01*
X101981157Y-119880956D01*
X101980906Y-119879777D01*
X101980704Y-119878591D01*
X101980551Y-119877401D01*
X101980447Y-119876208D01*
X101980387Y-119873818D01*
X101980521Y-119871435D01*
X101980849Y-119869070D01*
X101981369Y-119866737D01*
X101981701Y-119865586D01*
X101982080Y-119864448D01*
X101982507Y-119863324D01*
X101982982Y-119862215D01*
X101983503Y-119861124D01*
X101984072Y-119860051D01*
X101984687Y-119858999D01*
X101985349Y-119857969D01*
X101986058Y-119856962D01*
X101986813Y-119855981D01*
X101987614Y-119855026D01*
X101988461Y-119854099D01*
X102369461Y-119473099D01*
X102370405Y-119472256D01*
X102371376Y-119471461D01*
X102373395Y-119470009D01*
X102375507Y-119468745D01*
X102377699Y-119467671D01*
X102379958Y-119466786D01*
X102382272Y-119466093D01*
X102384627Y-119465593D01*
X102387013Y-119465285D01*
X102389415Y-119465173D01*
X102391822Y-119465255D01*
X102394221Y-119465535D01*
X102396600Y-119466013D01*
X102398945Y-119466689D01*
X102401245Y-119467566D01*
X102403486Y-119468644D01*
X102404581Y-119469259D01*
X102405656Y-119469924D01*
X102856506Y-119779486D01*
X102858845Y-119780803D01*
X102861243Y-119781970D01*
X102863693Y-119782987D01*
X102866188Y-119783853D01*
X102868721Y-119784569D01*
X102871286Y-119785134D01*
X102873876Y-119785546D01*
X102876483Y-119785806D01*
X102879100Y-119785913D01*
X102881722Y-119785867D01*
X102884341Y-119785667D01*
X102886949Y-119785313D01*
X102889541Y-119784804D01*
X102892109Y-119784140D01*
X102894646Y-119783320D01*
X102897146Y-119782344D01*
X103258779Y-119635341D01*
X103261308Y-119634263D01*
X103263746Y-119633035D01*
X103266088Y-119631665D01*
X103268328Y-119630157D01*
X103270462Y-119628518D01*
X103272485Y-119626755D01*
X103274390Y-119624872D01*
X103276174Y-119622877D01*
X103277832Y-119620776D01*
X103279357Y-119618574D01*
X103280745Y-119616277D01*
X103281990Y-119613892D01*
X103283089Y-119611425D01*
X103284035Y-119608882D01*
X103284823Y-119606269D01*
X103285449Y-119603591D01*
X103386096Y-119063842D01*
X103386390Y-119062624D01*
X103386733Y-119061428D01*
X103387123Y-119060255D01*
X103387559Y-119059106D01*
X103388039Y-119057982D01*
X103388564Y-119056884D01*
X103389131Y-119055813D01*
X103389740Y-119054770D01*
X103391077Y-119052771D01*
X103392565Y-119050896D01*
X103394196Y-119049152D01*
X103395959Y-119047547D01*
X103397846Y-119046089D01*
X103399846Y-119044786D01*
X103401952Y-119043646D01*
X103404152Y-119042677D01*
X103405285Y-119042258D01*
X103406439Y-119041886D01*
X103407611Y-119041560D01*
X103408802Y-119041282D01*
X103410009Y-119041052D01*
X103411231Y-119040872D01*
X103412469Y-119040742D01*
X103413719Y-119040664D01*
X103950929Y-119040664D01*
X103952190Y-119040729D01*
G37*
X103952190Y-119040729D02*
X103953439Y-119040847D01*
X103954674Y-119041016D01*
X103955893Y-119041236D01*
X103957095Y-119041506D01*
X103958280Y-119041824D01*
X103959446Y-119042189D01*
X103960591Y-119042601D01*
X103961715Y-119043059D01*
X103962817Y-119043561D01*
X103963894Y-119044106D01*
X103964946Y-119044694D01*
X103965973Y-119045324D01*
X103966971Y-119045994D01*
X103967941Y-119046704D01*
X103968881Y-119047452D01*
X103969790Y-119048238D01*
X103970667Y-119049060D01*
X103971510Y-119049917D01*
X103972318Y-119050810D01*
X103973090Y-119051735D01*
X103973826Y-119052693D01*
X103974523Y-119053683D01*
X103975180Y-119054703D01*
X103975796Y-119055753D01*
X103976371Y-119056831D01*
X103976902Y-119057936D01*
X103977389Y-119059068D01*
X103977831Y-119060226D01*
X103978225Y-119061408D01*
X103978572Y-119062614D01*
X103978869Y-119063841D01*
X104079517Y-119602321D01*
X104080142Y-119604999D01*
X104080931Y-119607612D01*
X104081877Y-119610155D01*
X104082975Y-119612622D01*
X104084221Y-119615007D01*
X104085609Y-119617304D01*
X104087134Y-119619506D01*
X104088791Y-119621607D01*
X104090575Y-119623602D01*
X104092481Y-119625485D01*
X104094503Y-119627248D01*
X104096637Y-119628887D01*
X104098878Y-119630395D01*
X104101219Y-119631765D01*
X104103657Y-119632993D01*
X104106186Y-119634071D01*
X104469089Y-119782344D01*
X104471589Y-119783320D01*
X104474126Y-119784140D01*
X104476694Y-119784804D01*
X104479286Y-119785313D01*
X104481895Y-119785667D01*
X104484513Y-119785867D01*
X104487135Y-119785913D01*
X104489753Y-119785806D01*
X104492360Y-119785546D01*
X104494949Y-119785134D01*
X104497514Y-119784569D01*
X104500048Y-119783853D01*
X104502543Y-119782987D01*
X104504992Y-119781970D01*
X104507390Y-119780803D01*
X104509729Y-119779486D01*
X104958356Y-119467701D01*
X104959432Y-119467036D01*
X104960527Y-119466421D01*
X104961640Y-119465857D01*
X104962768Y-119465343D01*
X104963912Y-119464880D01*
X104965068Y-119464467D01*
X104966236Y-119464104D01*
X104967413Y-119463790D01*
X104968599Y-119463527D01*
X104969792Y-119463313D01*
X104972191Y-119463033D01*
X104974598Y-119462950D01*
X104977000Y-119463063D01*
X104979386Y-119463370D01*
X104981741Y-119463871D01*
X104984055Y-119464564D01*
X104985192Y-119464982D01*
X104986314Y-119465448D01*
X104987419Y-119465962D01*
X104988506Y-119466523D01*
X104989572Y-119467131D01*
X104990617Y-119467786D01*
X104991639Y-119468489D01*
X104992637Y-119469238D01*
X104993608Y-119470034D01*
X104994551Y-119470876D01*
X105375552Y-119851876D01*
X105376399Y-119852803D01*
X105377200Y-119853758D01*
X105378664Y-119855746D01*
X105379941Y-119857829D01*
X105381031Y-119859992D01*
X105381932Y-119862225D01*
X105382644Y-119864514D01*
X105383164Y-119866848D01*
X105383492Y-119869212D01*
X105383626Y-119871595D01*
X105383566Y-119873985D01*
X105383309Y-119876369D01*
X105382856Y-119878733D01*
X105382203Y-119881067D01*
X105381352Y-119883356D01*
X105380299Y-119885589D01*
X105379697Y-119886681D01*
X105379044Y-119887754D01*
X105074879Y-120332254D01*
X105073555Y-120334573D01*
X105072384Y-120336952D01*
X105071366Y-120339385D01*
X105070503Y-120341865D01*
X105069795Y-120344383D01*
X105069241Y-120346933D01*
X105068844Y-120349508D01*
X105068602Y-120352100D01*
X105068517Y-120354701D01*
X105068588Y-120357305D01*
X105068817Y-120359905D01*
X105069204Y-120362492D01*
X105069749Y-120365061D01*
X105070453Y-120367602D01*
X105071316Y-120370110D01*
X105072339Y-120372576D01*
X105231089Y-120745956D01*
X105232208Y-120748454D01*
X105233468Y-120750863D01*
X105234865Y-120753179D01*
X105236392Y-120755396D01*
X105238043Y-120757511D01*
X105239814Y-120759517D01*
X105241698Y-120761412D01*
X105243690Y-120763189D01*
X105245784Y-120764844D01*
X105247975Y-120766373D01*
X105250258Y-120767771D01*
X105252625Y-120769033D01*
X105255073Y-120770154D01*
X105257595Y-120771130D01*
X105260185Y-120771955D01*
X105262839Y-120772626D01*
X105784809Y-120869464D01*
X105785444Y-120869464D01*
X105786666Y-120869770D01*
X105787866Y-120870125D01*
X105789042Y-120870526D01*
X105790194Y-120870974D01*
X105791321Y-120871467D01*
X105792422Y-120872003D01*
X105794540Y-120873201D01*
X105796542Y-120874560D01*
X105798419Y-120876070D01*
X105800164Y-120877721D01*
X105801769Y-120879505D01*
X105803225Y-120881411D01*
X105804526Y-120883431D01*
X105805663Y-120885555D01*
X105806629Y-120887773D01*
X105807415Y-120890077D01*
X105807739Y-120891257D01*
X105808014Y-120892456D01*
X105808242Y-120893671D01*
X105808419Y-120894901D01*
X105808546Y-120896146D01*
X105808621Y-120897404D01*
X105808620Y-121432709D01*
X105808555Y-121433970D01*
X105808437Y-121435219D01*
X105808268Y-121436454D01*
X105808048Y-121437673D01*
X105807779Y-121438875D01*
X105807461Y-121440060D01*
X105807095Y-121441226D01*
X105806683Y-121442371D01*
X105806226Y-121443495D01*
X105805724Y-121444597D01*
X105805178Y-121445674D01*
X105804590Y-121446726D01*
X105803960Y-121447753D01*
X105803290Y-121448751D01*
X105802581Y-121449721D01*
X105801833Y-121450661D01*
X105801047Y-121451570D01*
X105800225Y-121452447D01*
X105799367Y-121453290D01*
X105798475Y-121454098D01*
X105797549Y-121454870D01*
X105796591Y-121455606D01*
X105795602Y-121456303D01*
X105794582Y-121456960D01*
X105793532Y-121457576D01*
X105792454Y-121458151D01*
X105791348Y-121458682D01*
X105790216Y-121459169D01*
X105789059Y-121459610D01*
X105787877Y-121460005D01*
X105786672Y-121460351D01*
X105785444Y-121460649D01*
X105277444Y-121555898D01*
X105274768Y-121556564D01*
X105272158Y-121557390D01*
X105269618Y-121558370D01*
X105267155Y-121559499D01*
X105264773Y-121560772D01*
X105262481Y-121562185D01*
X105260282Y-121563732D01*
X105258183Y-121565409D01*
X105256190Y-121567210D01*
X105254309Y-121569131D01*
X105252545Y-121571166D01*
X105250905Y-121573311D01*
X105249393Y-121575560D01*
X105248017Y-121577909D01*
X105246782Y-121580353D01*
X105245694Y-121582886D01*
X105086944Y-121979761D01*
X105085968Y-121982261D01*
X105085148Y-121984798D01*
X105084483Y-121987366D01*
X105083974Y-121989958D01*
X105083620Y-121992567D01*
X105083420Y-121995186D01*
X105083374Y-121997807D01*
X105083482Y-122000425D01*
X105083742Y-122003032D01*
X105084154Y-122005621D01*
X105084719Y-122008186D01*
X105085434Y-122010720D01*
X105086301Y-122013215D01*
X105087318Y-122015665D01*
X105088485Y-122018062D01*
X105089801Y-122020401D01*
X105379044Y-122441724D01*
X105379701Y-122442806D01*
X105380308Y-122443907D01*
X105380863Y-122445025D01*
X105381368Y-122446159D01*
X105381822Y-122447307D01*
X105382226Y-122448468D01*
X105382580Y-122449640D01*
X105382884Y-122450821D01*
X105383138Y-122452010D01*
X105383342Y-122453205D01*
X105383601Y-122455609D01*
X105383664Y-122458019D01*
X105383530Y-122460422D01*
X105383202Y-122462807D01*
X105382680Y-122465161D01*
X105381965Y-122467470D01*
X105381536Y-122468605D01*
X105381060Y-122469723D01*
X105380536Y-122470825D01*
X105379965Y-122471907D01*
X105379346Y-122472969D01*
X105378680Y-122474010D01*
X105377968Y-122475026D01*
X105377209Y-122476018D01*
X105376403Y-122476982D01*
X105375551Y-122477919D01*
X104994551Y-122858919D01*
X104993615Y-122859771D01*
X104992650Y-122860576D01*
X104990642Y-122862048D01*
X104988540Y-122863332D01*
X104986356Y-122864427D01*
X104984103Y-122865333D01*
X104981793Y-122866047D01*
X104979440Y-122866569D01*
X104977055Y-122866897D01*
X104974651Y-122867031D01*
X104972242Y-122866969D01*
X104969838Y-122866709D01*
X104967454Y-122866251D01*
X104965101Y-122865594D01*
X104962792Y-122864735D01*
X104960539Y-122863675D01*
X104959438Y-122863068D01*
X104958356Y-122862411D01*
X104545606Y-122576661D01*
X104543262Y-122575459D01*
X104540863Y-122574418D01*
X104538417Y-122573536D01*
X104535933Y-122572815D01*
X104533417Y-122572254D01*
X104530879Y-122571854D01*
X104528325Y-122571613D01*
X104525762Y-122571533D01*
X104523200Y-122571613D01*
X104520646Y-122571854D01*
X104518108Y-122572254D01*
X104515592Y-122572815D01*
X104513108Y-122573536D01*
X104510662Y-122574418D01*
X104508263Y-122575459D01*
X104505919Y-122576661D01*
X104323356Y-122674134D01*
X104322337Y-122674646D01*
X104321296Y-122675102D01*
X104320238Y-122675501D01*
X104319164Y-122675843D01*
X104318076Y-122676128D01*
X104316977Y-122676356D01*
X104315869Y-122676525D01*
X104314755Y-122676637D01*
X104313636Y-122676692D01*
X104312516Y-122676688D01*
X104311395Y-122676625D01*
X104310277Y-122676505D01*
X104309164Y-122676325D01*
X104308059Y-122676087D01*
X104306962Y-122675790D01*
X104305878Y-122675434D01*
X104304814Y-122675022D01*
X104303778Y-122674556D01*
X104302772Y-122674038D01*
X104301798Y-122673470D01*
X104300858Y-122672854D01*
X104299952Y-122672191D01*
X104299084Y-122671483D01*
X104298253Y-122670732D01*
X104297463Y-122669938D01*
X104296714Y-122669104D01*
X104296009Y-122668231D01*
X104295349Y-122667320D01*
X104294736Y-122666375D01*
X104294171Y-122665395D01*
X104293657Y-122664382D01*
X104293194Y-122663339D01*
X103916004Y-121753701D01*
X103915601Y-121752522D01*
X103915251Y-121751336D01*
X103914954Y-121750143D01*
X103914709Y-121748947D01*
X103914516Y-121747747D01*
X103914375Y-121746546D01*
X103914284Y-121745346D01*
X103914244Y-121744147D01*
X103914253Y-121742951D01*
X103914312Y-121741759D01*
X103914420Y-121740574D01*
X103914577Y-121739396D01*
X103914781Y-121738227D01*
X103915032Y-121737069D01*
X103915331Y-121735923D01*
X103915676Y-121734790D01*
X103916067Y-121733673D01*
X103916503Y-121732572D01*
X103916985Y-121731489D01*
X103917511Y-121730425D01*
X103918081Y-121729383D01*
X103918694Y-121728363D01*
X103919351Y-121727367D01*
X103920050Y-121726396D01*
X103920791Y-121725453D01*
X103921574Y-121724538D01*
X103922398Y-121723653D01*
X103923262Y-121722799D01*
X103924167Y-121721978D01*
X103925111Y-121721192D01*
X103926094Y-121720442D01*
X103927116Y-121719729D01*
X103972836Y-121691789D01*
X103976651Y-121689284D01*
X103980410Y-121686699D01*
X103984112Y-121684035D01*
X103987757Y-121681293D01*
X103991342Y-121678474D01*
X103994866Y-121675579D01*
X103998329Y-121672608D01*
X104001729Y-121669564D01*
X104042027Y-121641453D01*
X104079423Y-121610517D01*
X104113833Y-121576973D01*
X104145176Y-121541038D01*
X104173372Y-121502929D01*
X104198337Y-121462863D01*
X104219992Y-121421058D01*
X104238253Y-121377730D01*
X104253040Y-121333097D01*
X104264271Y-121287375D01*
X104271864Y-121240782D01*
X104275739Y-121193536D01*
X104275812Y-121145852D01*
X104272003Y-121097948D01*
X104264230Y-121050042D01*
X104252411Y-121002350D01*
X104245017Y-120978828D01*
X104236718Y-120955789D01*
X104217500Y-120911223D01*
X104194941Y-120868792D01*
X104169228Y-120828635D01*
X104140546Y-120790891D01*
X104109080Y-120755699D01*
X104075017Y-120723199D01*
X104038542Y-120693528D01*
X103999839Y-120666827D01*
X103959096Y-120643235D01*
X103916497Y-120622891D01*
X103872229Y-120605934D01*
X103826475Y-120592502D01*
X103779423Y-120582736D01*
X103731258Y-120576775D01*
X103706816Y-120575264D01*
X103682165Y-120574757D01*
X103657514Y-120575264D01*
X103633072Y-120576775D01*
X103608862Y-120579271D01*
X103584907Y-120582736D01*
X103561230Y-120587153D01*
X103537855Y-120592502D01*
X103514804Y-120598769D01*
X103492102Y-120605934D01*
X103469770Y-120613980D01*
X103447833Y-120622891D01*
X103426313Y-120632649D01*
X103405234Y-120643235D01*
X103384619Y-120654634D01*
X103364491Y-120666827D01*
X103344873Y-120679798D01*
X103325789Y-120693528D01*
X103307261Y-120708001D01*
X103289313Y-120723199D01*
X103271968Y-120739104D01*
X103255250Y-120755699D01*
X103239181Y-120772968D01*
X103223784Y-120790891D01*
X103209084Y-120809453D01*
X103195102Y-120828635D01*
X103181863Y-120848421D01*
X103169389Y-120868792D01*
X103157704Y-120889732D01*
X103146830Y-120911223D01*
X103136792Y-120933248D01*
X103127612Y-120955789D01*
X103119313Y-120978828D01*
X103111919Y-121002350D01*
X103105499Y-121026155D01*
X103100100Y-121050042D01*
X103095713Y-121073982D01*
X103092327Y-121097948D01*
X103089932Y-121121914D01*
X103088518Y-121145852D01*
X103088075Y-121169735D01*
X103088591Y-121193536D01*
X103090059Y-121217227D01*
X103092466Y-121240782D01*
X103095802Y-121264174D01*
X103100059Y-121287375D01*
X103105225Y-121310359D01*
X103111290Y-121333097D01*
X103118244Y-121355563D01*
X103126077Y-121377730D01*
X103134778Y-121399571D01*
X103144338Y-121421058D01*
X103154746Y-121442165D01*
X103165993Y-121462863D01*
X103178067Y-121483127D01*
X103190958Y-121502929D01*
X103204657Y-121522242D01*
X103219154Y-121541038D01*
X103234437Y-121559291D01*
X103250497Y-121576973D01*
X103267324Y-121594058D01*
X103284908Y-121610517D01*
X103303237Y-121626325D01*
X103322303Y-121641453D01*
X103342094Y-121655875D01*
X103362602Y-121669564D01*
X103366001Y-121672608D01*
X103369464Y-121675579D01*
X103372989Y-121678474D01*
X103376574Y-121681293D01*
X103380218Y-121684035D01*
X103383920Y-121686699D01*
X103387679Y-121689284D01*
X103391494Y-121691789D01*
X103437214Y-121719729D01*
X103438243Y-121720437D01*
X103439233Y-121721183D01*
X103440182Y-121721966D01*
X103441091Y-121722785D01*
X103442785Y-121724523D01*
X103444310Y-121726382D01*
X103445662Y-121728353D01*
X103446838Y-121730420D01*
X103447833Y-121732573D01*
X103448644Y-121734798D01*
X103449266Y-121737083D01*
X103449696Y-121739416D01*
X103449930Y-121741783D01*
X103449962Y-121744172D01*
X103449791Y-121746571D01*
X103449411Y-121748968D01*
X103449141Y-121750161D01*
X103448818Y-121751348D01*
X103448441Y-121752529D01*
X103448009Y-121753701D01*
X103072089Y-122665244D01*
X103071636Y-122666372D01*
X103071123Y-122667467D01*
X103070552Y-122668527D01*
X103069926Y-122669550D01*
X103069245Y-122670533D01*
X103068514Y-122671475D01*
X103067732Y-122672374D01*
X103066902Y-122673228D01*
X103066027Y-122674035D01*
X103065108Y-122674793D01*
X103064147Y-122675500D01*
X103063147Y-122676155D01*
X103062108Y-122676754D01*
X103061034Y-122677297D01*
X103059926Y-122677781D01*
X103058786Y-122678205D01*
X103057624Y-122678564D01*
X103056450Y-122678856D01*
X103055267Y-122679080D01*
X103054079Y-122679238D01*
X103052887Y-122679329D01*
X103051694Y-122679354D01*
X103050503Y-122679313D01*
X103049317Y-122679207D01*
X103048139Y-122679036D01*
X103046972Y-122678799D01*
X103045817Y-122678499D01*
X103044679Y-122678134D01*
X103043559Y-122677705D01*
X103042460Y-122677213D01*
X103041386Y-122676657D01*
X103040339Y-122676039D01*
X102857777Y-122578566D01*
X102855432Y-122577364D01*
X102853033Y-122576322D01*
X102850587Y-122575441D01*
X102848103Y-122574720D01*
X102845588Y-122574159D01*
X102843049Y-122573758D01*
X102840495Y-122573518D01*
X102837933Y-122573438D01*
X102835371Y-122573518D01*
X102832816Y-122573758D01*
X102830278Y-122574159D01*
X102827762Y-122574720D01*
X102825278Y-122575441D01*
X102822832Y-122576322D01*
X102820434Y-122577364D01*
X102818089Y-122578566D01*
X102405339Y-122864316D01*
X102404257Y-122864973D01*
X102403156Y-122865580D01*
X102402038Y-122866135D01*
X102400904Y-122866640D01*
X102399755Y-122867095D01*
X102398595Y-122867499D01*
X102397423Y-122867852D01*
X102396242Y-122868156D01*
X102395053Y-122868410D01*
X102393857Y-122868614D01*
X102391454Y-122868874D01*
X102389044Y-122868936D01*
X102386640Y-122868802D01*
X102384255Y-122868474D01*
X102381902Y-122867952D01*
X102379592Y-122867238D01*
X102378458Y-122866809D01*
X102377339Y-122866332D01*
X102376238Y-122865808D01*
X102375155Y-122865237D01*
X102374093Y-122864618D01*
X102373053Y-122863953D01*
X102372037Y-122863241D01*
X102371045Y-122862481D01*
X102370080Y-122861676D01*
X102369144Y-122860824D01*
X101988144Y-122479823D01*
X101986628Y-122477862D01*
X101985284Y-122475811D01*
X101984112Y-122473682D01*
X101983113Y-122471484D01*
X101982288Y-122469230D01*
X101981638Y-122466928D01*
X101981164Y-122464590D01*
X101980867Y-122462225D01*
X101980748Y-122459845D01*
X101980808Y-122457460D01*
X101981047Y-122455080D01*
X101981466Y-122452716D01*
X101982068Y-122450379D01*
X101982851Y-122448078D01*
X101983818Y-122445824D01*
X101984969Y-122443629D01*
X102274211Y-122022306D01*
X102275528Y-122019968D01*
X102276695Y-122017570D01*
X102277712Y-122015120D01*
X102278578Y-122012625D01*
X102279294Y-122010092D01*
X102279859Y-122007527D01*
X102280271Y-122004937D01*
X102280531Y-122002330D01*
X102280638Y-121999712D01*
X102280592Y-121997091D01*
X102280392Y-121994472D01*
X102280038Y-121991863D01*
X102279529Y-121989272D01*
X102278865Y-121986704D01*
X102278045Y-121984166D01*
X102277069Y-121981666D01*
X102118319Y-121584792D01*
X102117301Y-121582323D01*
X102116142Y-121579936D01*
X102114848Y-121577636D01*
X102113425Y-121575428D01*
X102111877Y-121573316D01*
X102110210Y-121571305D01*
X102108430Y-121569400D01*
X102106541Y-121567606D01*
X102104548Y-121565928D01*
X102102458Y-121564369D01*
X102100275Y-121562935D01*
X102098005Y-121561631D01*
X102095653Y-121560461D01*
X102093224Y-121559430D01*
X102090723Y-121558543D01*
X102088156Y-121557804D01*
X101580157Y-121462554D01*
X101578929Y-121462256D01*
X101577723Y-121461910D01*
X101576541Y-121461515D01*
X101575384Y-121461074D01*
X101574251Y-121460587D01*
X101573146Y-121460056D01*
X101572068Y-121459481D01*
X101571018Y-121458865D01*
X101569008Y-121457511D01*
X101567125Y-121456003D01*
X101565375Y-121454352D01*
X101563767Y-121452566D01*
X101562309Y-121450656D01*
X101561009Y-121448631D01*
X101559876Y-121446502D01*
X101558916Y-121444276D01*
X101558504Y-121443131D01*
X101558139Y-121441965D01*
X101557821Y-121440781D01*
X101557551Y-121439578D01*
X101557331Y-121438359D01*
X101557162Y-121437124D01*
X101557044Y-121435876D01*
X101556979Y-121434614D01*
X101556979Y-120897404D01*
X101557054Y-120896146D01*
X101557181Y-120894901D01*
X101557358Y-120893671D01*
X101557585Y-120892456D01*
X101557861Y-120891257D01*
X101558185Y-120890077D01*
X101558555Y-120888915D01*
X101558971Y-120887773D01*
X101559432Y-120886653D01*
X101559937Y-120885555D01*
X101560485Y-120884481D01*
X101561074Y-120883431D01*
X101561704Y-120882408D01*
X101562375Y-120881411D01*
X101563084Y-120880443D01*
X101563831Y-120879505D01*
X101564616Y-120878597D01*
X101565436Y-120877721D01*
X101566291Y-120876878D01*
X101567181Y-120876070D01*
X101568103Y-120875296D01*
X101569058Y-120874560D01*
X101570044Y-120873861D01*
X101571060Y-120873201D01*
X101572105Y-120872581D01*
X101573178Y-120872003D01*
X101574279Y-120871466D01*
X101575406Y-120870974D01*
X101576558Y-120870526D01*
X101577734Y-120870125D01*
X101578934Y-120869770D01*
X101580156Y-120869464D01*
X102102444Y-120774214D01*
X102105098Y-120773543D01*
X102107688Y-120772717D01*
X102110210Y-120771741D01*
X102112658Y-120770620D01*
X102115025Y-120769358D01*
X102117307Y-120767961D01*
X102119499Y-120766432D01*
X102121593Y-120764776D01*
X102123585Y-120762999D01*
X102125469Y-120761105D01*
X102127240Y-120759098D01*
X102128891Y-120756984D01*
X102130418Y-120754767D01*
X102131815Y-120752451D01*
X102133075Y-120750042D01*
X102134194Y-120747544D01*
X102292944Y-120374164D01*
X102293855Y-120371696D01*
X102294610Y-120369194D01*
X102295210Y-120366665D01*
X102295654Y-120364115D01*
X102295944Y-120361552D01*
X102296080Y-120358983D01*
X102296063Y-120356415D01*
X102295894Y-120353854D01*
X102295573Y-120351308D01*
X102295101Y-120348783D01*
X102294478Y-120346287D01*
X102293706Y-120343826D01*
X102292785Y-120341408D01*
X102291716Y-120339039D01*
X102290498Y-120336726D01*
X102289134Y-120334476D01*
X101984969Y-119889977D01*
X101984316Y-119888904D01*
X101983714Y-119887812D01*
X101983163Y-119886703D01*
X101982661Y-119885579D01*
X101982210Y-119884440D01*
X101981810Y-119883289D01*
X101981459Y-119882127D01*
X101981157Y-119880956D01*
X101980906Y-119879777D01*
X101980704Y-119878591D01*
X101980551Y-119877401D01*
X101980447Y-119876208D01*
X101980387Y-119873818D01*
X101980521Y-119871435D01*
X101980849Y-119869070D01*
X101981369Y-119866737D01*
X101981701Y-119865586D01*
X101982080Y-119864448D01*
X101982507Y-119863324D01*
X101982982Y-119862215D01*
X101983503Y-119861124D01*
X101984072Y-119860051D01*
X101984687Y-119858999D01*
X101985349Y-119857969D01*
X101986058Y-119856962D01*
X101986813Y-119855981D01*
X101987614Y-119855026D01*
X101988461Y-119854099D01*
X102369461Y-119473099D01*
X102370405Y-119472256D01*
X102371376Y-119471461D01*
X102373395Y-119470009D01*
X102375507Y-119468745D01*
X102377699Y-119467671D01*
X102379958Y-119466786D01*
X102382272Y-119466093D01*
X102384627Y-119465593D01*
X102387013Y-119465285D01*
X102389415Y-119465173D01*
X102391822Y-119465255D01*
X102394221Y-119465535D01*
X102396600Y-119466013D01*
X102398945Y-119466689D01*
X102401245Y-119467566D01*
X102403486Y-119468644D01*
X102404581Y-119469259D01*
X102405656Y-119469924D01*
X102856506Y-119779486D01*
X102858845Y-119780803D01*
X102861243Y-119781970D01*
X102863693Y-119782987D01*
X102866188Y-119783853D01*
X102868721Y-119784569D01*
X102871286Y-119785134D01*
X102873876Y-119785546D01*
X102876483Y-119785806D01*
X102879100Y-119785913D01*
X102881722Y-119785867D01*
X102884341Y-119785667D01*
X102886949Y-119785313D01*
X102889541Y-119784804D01*
X102892109Y-119784140D01*
X102894646Y-119783320D01*
X102897146Y-119782344D01*
X103258779Y-119635341D01*
X103261308Y-119634263D01*
X103263746Y-119633035D01*
X103266088Y-119631665D01*
X103268328Y-119630157D01*
X103270462Y-119628518D01*
X103272485Y-119626755D01*
X103274390Y-119624872D01*
X103276174Y-119622877D01*
X103277832Y-119620776D01*
X103279357Y-119618574D01*
X103280745Y-119616277D01*
X103281990Y-119613892D01*
X103283089Y-119611425D01*
X103284035Y-119608882D01*
X103284823Y-119606269D01*
X103285449Y-119603591D01*
X103386096Y-119063842D01*
X103386390Y-119062624D01*
X103386733Y-119061428D01*
X103387123Y-119060255D01*
X103387559Y-119059106D01*
X103388039Y-119057982D01*
X103388564Y-119056884D01*
X103389131Y-119055813D01*
X103389740Y-119054770D01*
X103391077Y-119052771D01*
X103392565Y-119050896D01*
X103394196Y-119049152D01*
X103395959Y-119047547D01*
X103397846Y-119046089D01*
X103399846Y-119044786D01*
X103401952Y-119043646D01*
X103404152Y-119042677D01*
X103405285Y-119042258D01*
X103406439Y-119041886D01*
X103407611Y-119041560D01*
X103408802Y-119041282D01*
X103410009Y-119041052D01*
X103411231Y-119040872D01*
X103412469Y-119040742D01*
X103413719Y-119040664D01*
X103950929Y-119040664D01*
X103952190Y-119040729D01*
D11*
%TO.C,J4*%
X119278400Y-103835200D03*
D12*
X120528400Y-103835200D03*
%TD*%
D13*
%TO.C,J9*%
X133451600Y-118561600D03*
D14*
X134951600Y-114241600D03*
D15*
X131951600Y-114241600D03*
%TD*%
D16*
%TO.C,J7*%
X102710400Y-116444400D03*
D17*
X102710400Y-115194400D03*
X102710400Y-113944400D03*
X102710400Y-112694400D03*
X102710400Y-111444400D03*
%TD*%
D18*
%TO.C,C32*%
X143306800Y-126630421D03*
D19*
X143306800Y-129130421D03*
%TD*%
D20*
%TO.C,J3*%
X112471200Y-101142800D03*
%TD*%
D21*
%TO.C,H2*%
X121564400Y-108661200D03*
%TD*%
D22*
%TO.C,J2*%
X123901200Y-99314000D03*
D17*
X123901200Y-100564000D03*
X123901200Y-101814000D03*
%TD*%
D16*
%TO.C,J8*%
X141572400Y-120528400D03*
D17*
X141572400Y-119278400D03*
X141572400Y-118028400D03*
%TD*%
D21*
%TO.C,H1*%
X109575600Y-121361200D03*
%TD*%
D20*
%TO.C,TP1*%
X111963200Y-118567200D03*
%TD*%
D16*
%TO.C,J10*%
X102717600Y-107797600D03*
D17*
X102717600Y-106547600D03*
X102717600Y-105297600D03*
X102717600Y-104047600D03*
X102717600Y-102797600D03*
%TD*%
D16*
%TO.C,J5*%
X145230000Y-113568800D03*
D17*
X145230000Y-112318800D03*
X145230000Y-111068800D03*
%TD*%
D13*
%TO.C,J1*%
X144215600Y-103581200D03*
D23*
X139895600Y-102081200D03*
D24*
X139895600Y-105081200D03*
%TD*%
D11*
%TO.C,J6*%
X119278400Y-99872800D03*
D12*
X120528400Y-99872800D03*
%TD*%
D25*
%TO.C,C12*%
X130403600Y-101829200D03*
X130403600Y-100279200D03*
%TD*%
D26*
%TO.C,C5*%
X130454400Y-107276600D03*
X130454400Y-108826600D03*
%TD*%
D27*
%TO.C,U1*%
X134831700Y-102397600D03*
X134831700Y-101447600D03*
X134831700Y-100497600D03*
X137106700Y-100497600D03*
X137106700Y-101447600D03*
X137106700Y-102397600D03*
%TD*%
D28*
%TO.C,U13*%
X124154300Y-113355600D03*
X124154300Y-114005600D03*
X124154300Y-114655600D03*
X124154300Y-115305600D03*
X124154300Y-115955600D03*
D29*
X123016800Y-117093100D03*
X122366800Y-117093100D03*
X121716800Y-117093100D03*
X121066800Y-117093100D03*
X120416800Y-117093100D03*
D28*
X119279300Y-115955600D03*
X119279300Y-115305600D03*
X119279300Y-114655600D03*
X119279300Y-114005600D03*
X119279300Y-113355600D03*
D29*
X120416800Y-112218100D03*
X121066800Y-112218100D03*
X121716800Y-112218100D03*
X122366800Y-112218100D03*
X123016800Y-112218100D03*
D30*
X121716800Y-114655600D03*
%TD*%
D31*
%TO.C,R25*%
X143969200Y-124206000D03*
X142949200Y-124206000D03*
%TD*%
D32*
%TO.C,R13*%
X107465400Y-101117400D03*
X108485400Y-101117400D03*
%TD*%
D33*
%TO.C,C27*%
X143937200Y-123291600D03*
X142977200Y-123291600D03*
%TD*%
D32*
%TO.C,R28*%
X132738400Y-124307600D03*
X133758400Y-124307600D03*
%TD*%
D25*
%TO.C,C10*%
X131876800Y-101829200D03*
X131876800Y-100279200D03*
%TD*%
%TO.C,C6*%
X130454400Y-104965800D03*
X130454400Y-103415800D03*
%TD*%
D34*
%TO.C,Q1*%
X104561600Y-114988100D03*
X106461600Y-114988100D03*
X105511600Y-116863100D03*
%TD*%
D33*
%TO.C,C34*%
X133728400Y-123393200D03*
X132768400Y-123393200D03*
%TD*%
D35*
%TO.C,U3*%
X126773700Y-105344000D03*
X126773700Y-103444000D03*
X128648700Y-104394000D03*
%TD*%
D36*
%TO.C,C31*%
X125730000Y-112290800D03*
X125730000Y-111330800D03*
%TD*%
D37*
%TO.C,C35*%
X129618800Y-120446800D03*
X130578800Y-120446800D03*
%TD*%
D34*
%TO.C,Q2*%
X104510800Y-106453700D03*
X106410800Y-106453700D03*
X105460800Y-108328700D03*
%TD*%
D38*
%TO.C,Q3*%
X139612400Y-112872400D03*
X139612400Y-113512400D03*
X139612400Y-114172400D03*
X139612400Y-114812400D03*
D39*
X137787400Y-113842400D03*
%TD*%
D40*
%TO.C,D3*%
X106211600Y-113309400D03*
X104811600Y-113309400D03*
%TD*%
%TO.C,D6*%
X106160800Y-103352600D03*
X104760800Y-103352600D03*
%TD*%
D41*
%TO.C,R31*%
X126441200Y-113844700D03*
X126441200Y-115669700D03*
%TD*%
D42*
%TO.C,R29*%
X139789400Y-128219200D03*
X141439400Y-128219200D03*
%TD*%
D33*
%TO.C,C33*%
X133728400Y-122224800D03*
X132768400Y-122224800D03*
%TD*%
D43*
%TO.C,R30*%
X136918200Y-128270000D03*
X135268200Y-128270000D03*
%TD*%
D31*
%TO.C,R20*%
X105970800Y-102184200D03*
X104950800Y-102184200D03*
%TD*%
D32*
%TO.C,R2*%
X134341600Y-99009200D03*
X135361600Y-99009200D03*
%TD*%
D37*
%TO.C,C28*%
X132768400Y-121310400D03*
X133728400Y-121310400D03*
%TD*%
D44*
%TO.C,U11*%
X128336000Y-113213300D03*
X129286000Y-113213300D03*
X130236000Y-113213300D03*
X130236000Y-115488300D03*
X128336000Y-115488300D03*
%TD*%
D45*
%TO.C,D1*%
X137086800Y-104166400D03*
X137086800Y-107466400D03*
%TD*%
D46*
%TO.C,L1*%
X134981600Y-105714800D03*
X132181600Y-105714800D03*
%TD*%
D37*
%TO.C,C25*%
X139016800Y-119989600D03*
X139976800Y-119989600D03*
%TD*%
D47*
%TO.C,C9*%
X125272800Y-103152000D03*
X125272800Y-104112000D03*
%TD*%
D31*
%TO.C,R27*%
X143967200Y-122377200D03*
X142947200Y-122377200D03*
%TD*%
D47*
%TO.C,C8*%
X125222000Y-106606400D03*
X125222000Y-107566400D03*
%TD*%
D31*
%TO.C,R16*%
X106021600Y-110744000D03*
X105001600Y-110744000D03*
%TD*%
D48*
%TO.C,JP2*%
X101396800Y-107086400D03*
X101396800Y-107797600D03*
X101371400Y-108508800D03*
%TD*%
D49*
%TO.C,U12*%
X135902700Y-125756800D03*
X135902700Y-125256801D03*
X135902700Y-124756799D03*
X135902700Y-124256800D03*
X135902700Y-123756801D03*
X135902700Y-123256799D03*
X135902700Y-122756800D03*
D50*
X136828400Y-121831100D03*
X137328399Y-121831100D03*
X137828401Y-121831100D03*
X138328400Y-121831100D03*
X138828399Y-121831100D03*
X139328401Y-121831100D03*
X139828400Y-121831100D03*
D49*
X140754100Y-122756800D03*
X140754100Y-123256799D03*
X140754100Y-123756801D03*
X140754100Y-124256800D03*
X140754100Y-124756799D03*
X140754100Y-125256801D03*
X140754100Y-125756800D03*
D50*
X139828400Y-126682500D03*
X139328401Y-126682500D03*
X138828399Y-126682500D03*
X138328400Y-126682500D03*
X137828401Y-126682500D03*
X137328399Y-126682500D03*
X136828400Y-126682500D03*
D51*
X138328400Y-124256800D03*
%TD*%
D31*
%TO.C,R22*%
X130253200Y-110693200D03*
X129233200Y-110693200D03*
%TD*%
D52*
%TO.C,U14*%
X130473200Y-119110000D03*
X129673200Y-119110000D03*
X128873200Y-119110000D03*
X128073200Y-119110000D03*
X127273200Y-119110000D03*
X126473200Y-119110000D03*
D53*
X126473200Y-118110000D03*
D52*
X126473200Y-117110000D03*
X127273200Y-117110000D03*
X128073200Y-117110000D03*
X128873200Y-117110000D03*
X129673200Y-117110000D03*
X130473200Y-117110000D03*
D53*
X130473200Y-118110000D03*
%TD*%
D31*
%TO.C,R3*%
X135361600Y-98044000D03*
X134341600Y-98044000D03*
%TD*%
D40*
%TO.C,D5*%
X106160800Y-104749600D03*
X104760800Y-104749600D03*
%TD*%
D54*
%TO.C,JP3*%
X124053600Y-119024400D03*
X123342400Y-119024400D03*
X122631200Y-118999000D03*
%TD*%
D48*
%TO.C,JP1*%
X101371400Y-115747800D03*
X101371400Y-116459000D03*
X101346000Y-117170200D03*
%TD*%
D55*
%TO.C,FB1*%
X127101600Y-110464500D03*
X127101600Y-112039500D03*
%TD*%
D56*
%TO.C,C1*%
X139004000Y-99415600D03*
X140904000Y-99415600D03*
%TD*%
D31*
%TO.C,R23*%
X130253200Y-111658400D03*
X129233200Y-111658400D03*
%TD*%
D33*
%TO.C,C30*%
X125803600Y-110236000D03*
X124843600Y-110236000D03*
%TD*%
D57*
%TO.C,R19*%
X135737600Y-116380800D03*
X135737600Y-117400800D03*
%TD*%
D31*
%TO.C,R26*%
X143969200Y-125120400D03*
X142949200Y-125120400D03*
%TD*%
D35*
%TO.C,U2*%
X126773700Y-108747600D03*
X126773700Y-106847600D03*
X128648700Y-107797600D03*
%TD*%
D31*
%TO.C,R18*%
X110339600Y-101117400D03*
X109319600Y-101117400D03*
%TD*%
D44*
%TO.C,U6*%
X107939800Y-102545300D03*
X108889800Y-102545300D03*
X109839800Y-102545300D03*
X109839800Y-104820300D03*
X108889800Y-104820300D03*
X107939800Y-104820300D03*
%TD*%
D58*
%TO.C,J12*%
X141734800Y-132546000D03*
D59*
X139734800Y-132546000D03*
X137734800Y-132546000D03*
X135734800Y-132546000D03*
%TD*%
D60*
%TO.C,C36*%
X121577400Y-119024400D03*
X120027400Y-119024400D03*
%TD*%
D32*
%TO.C,R24*%
X132738400Y-125222000D03*
X133758400Y-125222000D03*
%TD*%
D61*
%TO.C,R17*%
X135737600Y-119280400D03*
X135737600Y-118260400D03*
%TD*%
D27*
%TO.C,U8*%
X137190900Y-118755200D03*
X137190900Y-117805200D03*
X137190900Y-116855200D03*
X139465900Y-116855200D03*
X139465900Y-117805200D03*
X139465900Y-118755200D03*
%TD*%
D36*
%TO.C,C7*%
X133299200Y-102892800D03*
X133299200Y-101932800D03*
%TD*%
D40*
%TO.C,D4*%
X106211600Y-111912400D03*
X104811600Y-111912400D03*
%TD*%
M02*
