%TF.GenerationSoftware,KiCad,Pcbnew,(6.0.6)*%
%TF.CreationDate,2022-07-03T12:41:07+08:00*%
%TF.ProjectId,Stealthburner_Toolhead_PCB,53746561-6c74-4686-9275-726e65725f54,rev?*%
%TF.SameCoordinates,Original*%
%TF.FileFunction,Legend,Bot*%
%TF.FilePolarity,Positive*%
%FSLAX46Y46*%
G04 Gerber Fmt 4.6, Leading zero omitted, Abs format (unit mm)*
G04 Created by KiCad (PCBNEW (6.0.6)) date 2022-07-03 12:41:07*
%MOMM*%
%LPD*%
G01*
G04 APERTURE LIST*
%ADD10C,0.120000*%
%ADD11C,0.150000*%
%ADD12C,0.200000*%
G04 APERTURE END LIST*
D10*
X101530133Y-109841466D02*
X101930133Y-109841466D01*
X101730133Y-109841466D02*
X101730133Y-109141466D01*
X101796800Y-109241466D01*
X101863466Y-109308133D01*
X101930133Y-109341466D01*
X101263466Y-109208133D02*
X101230133Y-109174800D01*
X101163466Y-109141466D01*
X100996800Y-109141466D01*
X100930133Y-109174800D01*
X100896800Y-109208133D01*
X100863466Y-109274800D01*
X100863466Y-109341466D01*
X100896800Y-109441466D01*
X101296800Y-109841466D01*
X100863466Y-109841466D01*
X101930133Y-105702933D02*
X101896800Y-105669600D01*
X101830133Y-105636266D01*
X101663466Y-105636266D01*
X101596800Y-105669600D01*
X101563466Y-105702933D01*
X101530133Y-105769600D01*
X101530133Y-105836266D01*
X101563466Y-105936266D01*
X101963466Y-106336266D01*
X101530133Y-106336266D01*
X100930133Y-105869600D02*
X100930133Y-106336266D01*
X101096800Y-105602933D02*
X101263466Y-106102933D01*
X100830133Y-106102933D01*
D11*
X114601428Y-110993180D02*
X114601428Y-109993180D01*
X114363333Y-109993180D01*
X114220476Y-110040800D01*
X114125238Y-110136038D01*
X114077619Y-110231276D01*
X114030000Y-110421752D01*
X114030000Y-110564609D01*
X114077619Y-110755085D01*
X114125238Y-110850323D01*
X114220476Y-110945561D01*
X114363333Y-110993180D01*
X114601428Y-110993180D01*
X113601428Y-110469371D02*
X113268095Y-110469371D01*
X113125238Y-110993180D02*
X113601428Y-110993180D01*
X113601428Y-109993180D01*
X113125238Y-109993180D01*
X112839523Y-109993180D02*
X112268095Y-109993180D01*
X112553809Y-110993180D02*
X112553809Y-109993180D01*
X111410952Y-110993180D02*
X111982380Y-110993180D01*
X111696666Y-110993180D02*
X111696666Y-109993180D01*
X111791904Y-110136038D01*
X111887142Y-110231276D01*
X111982380Y-110278895D01*
D10*
X101879333Y-114338933D02*
X101846000Y-114305600D01*
X101779333Y-114272266D01*
X101612666Y-114272266D01*
X101546000Y-114305600D01*
X101512666Y-114338933D01*
X101479333Y-114405600D01*
X101479333Y-114472266D01*
X101512666Y-114572266D01*
X101912666Y-114972266D01*
X101479333Y-114972266D01*
X100879333Y-114505600D02*
X100879333Y-114972266D01*
X101046000Y-114238933D02*
X101212666Y-114738933D01*
X100779333Y-114738933D01*
D11*
X115215752Y-116885980D02*
X115215752Y-115885980D01*
X114834800Y-115885980D01*
X114739561Y-115933600D01*
X114691942Y-115981219D01*
X114644323Y-116076457D01*
X114644323Y-116219314D01*
X114691942Y-116314552D01*
X114739561Y-116362171D01*
X114834800Y-116409790D01*
X115215752Y-116409790D01*
X114310990Y-115885980D02*
X114072895Y-116885980D01*
X113882419Y-116171695D01*
X113691942Y-116885980D01*
X113453847Y-115885980D01*
X113072895Y-116885980D02*
X113072895Y-115885980D01*
X112739561Y-116600266D01*
X112406228Y-115885980D01*
X112406228Y-116885980D01*
X111977657Y-115981219D02*
X111930038Y-115933600D01*
X111834800Y-115885980D01*
X111596704Y-115885980D01*
X111501466Y-115933600D01*
X111453847Y-115981219D01*
X111406228Y-116076457D01*
X111406228Y-116171695D01*
X111453847Y-116314552D01*
X112025276Y-116885980D01*
X111406228Y-116885980D01*
X115215752Y-112974380D02*
X115215752Y-111974380D01*
X114834800Y-111974380D01*
X114739561Y-112022000D01*
X114691942Y-112069619D01*
X114644323Y-112164857D01*
X114644323Y-112307714D01*
X114691942Y-112402952D01*
X114739561Y-112450571D01*
X114834800Y-112498190D01*
X115215752Y-112498190D01*
X114310990Y-111974380D02*
X114072895Y-112974380D01*
X113882419Y-112260095D01*
X113691942Y-112974380D01*
X113453847Y-111974380D01*
X113072895Y-112974380D02*
X113072895Y-111974380D01*
X112739561Y-112688666D01*
X112406228Y-111974380D01*
X112406228Y-112974380D01*
X111406228Y-112974380D02*
X111977657Y-112974380D01*
X111691942Y-112974380D02*
X111691942Y-111974380D01*
X111787180Y-112117238D01*
X111882419Y-112212476D01*
X111977657Y-112260095D01*
D10*
X101479333Y-118680666D02*
X101879333Y-118680666D01*
X101679333Y-118680666D02*
X101679333Y-117980666D01*
X101746000Y-118080666D01*
X101812666Y-118147333D01*
X101879333Y-118180666D01*
X101212666Y-118047333D02*
X101179333Y-118014000D01*
X101112666Y-117980666D01*
X100946000Y-117980666D01*
X100879333Y-118014000D01*
X100846000Y-118047333D01*
X100812666Y-118114000D01*
X100812666Y-118180666D01*
X100846000Y-118280666D01*
X101246000Y-118680666D01*
X100812666Y-118680666D01*
D11*
X114601428Y-114955580D02*
X114601428Y-113955580D01*
X114363333Y-113955580D01*
X114220476Y-114003200D01*
X114125238Y-114098438D01*
X114077619Y-114193676D01*
X114030000Y-114384152D01*
X114030000Y-114527009D01*
X114077619Y-114717485D01*
X114125238Y-114812723D01*
X114220476Y-114907961D01*
X114363333Y-114955580D01*
X114601428Y-114955580D01*
X113601428Y-114431771D02*
X113268095Y-114431771D01*
X113125238Y-114955580D02*
X113601428Y-114955580D01*
X113601428Y-113955580D01*
X113125238Y-113955580D01*
X112839523Y-113955580D02*
X112268095Y-113955580D01*
X112553809Y-114955580D02*
X112553809Y-113955580D01*
X111982380Y-114050819D02*
X111934761Y-114003200D01*
X111839523Y-113955580D01*
X111601428Y-113955580D01*
X111506190Y-114003200D01*
X111458571Y-114050819D01*
X111410952Y-114146057D01*
X111410952Y-114241295D01*
X111458571Y-114384152D01*
X112030000Y-114955580D01*
X111410952Y-114955580D01*
D10*
%TO.C,C12*%
X130548800Y-99513200D02*
X130582133Y-99546533D01*
X130682133Y-99579866D01*
X130748800Y-99579866D01*
X130848800Y-99546533D01*
X130915466Y-99479866D01*
X130948800Y-99413200D01*
X130982133Y-99279866D01*
X130982133Y-99179866D01*
X130948800Y-99046533D01*
X130915466Y-98979866D01*
X130848800Y-98913200D01*
X130748800Y-98879866D01*
X130682133Y-98879866D01*
X130582133Y-98913200D01*
X130548800Y-98946533D01*
X129882133Y-99579866D02*
X130282133Y-99579866D01*
X130082133Y-99579866D02*
X130082133Y-98879866D01*
X130148800Y-98979866D01*
X130215466Y-99046533D01*
X130282133Y-99079866D01*
X129615466Y-98946533D02*
X129582133Y-98913200D01*
X129515466Y-98879866D01*
X129348800Y-98879866D01*
X129282133Y-98913200D01*
X129248800Y-98946533D01*
X129215466Y-99013200D01*
X129215466Y-99079866D01*
X129248800Y-99179866D01*
X129648800Y-99579866D01*
X129215466Y-99579866D01*
%TO.C,C5*%
X130571066Y-110079600D02*
X130604400Y-110112933D01*
X130704400Y-110146266D01*
X130771066Y-110146266D01*
X130871066Y-110112933D01*
X130937733Y-110046266D01*
X130971066Y-109979600D01*
X131004400Y-109846266D01*
X131004400Y-109746266D01*
X130971066Y-109612933D01*
X130937733Y-109546266D01*
X130871066Y-109479600D01*
X130771066Y-109446266D01*
X130704400Y-109446266D01*
X130604400Y-109479600D01*
X130571066Y-109512933D01*
X129937733Y-109446266D02*
X130271066Y-109446266D01*
X130304400Y-109779600D01*
X130271066Y-109746266D01*
X130204400Y-109712933D01*
X130037733Y-109712933D01*
X129971066Y-109746266D01*
X129937733Y-109779600D01*
X129904400Y-109846266D01*
X129904400Y-110012933D01*
X129937733Y-110079600D01*
X129971066Y-110112933D01*
X130037733Y-110146266D01*
X130204400Y-110146266D01*
X130271066Y-110112933D01*
X130304400Y-110079600D01*
%TO.C,U1*%
X138201333Y-99235466D02*
X138201333Y-99802133D01*
X138168000Y-99868800D01*
X138134666Y-99902133D01*
X138068000Y-99935466D01*
X137934666Y-99935466D01*
X137868000Y-99902133D01*
X137834666Y-99868800D01*
X137801333Y-99802133D01*
X137801333Y-99235466D01*
X137101333Y-99935466D02*
X137501333Y-99935466D01*
X137301333Y-99935466D02*
X137301333Y-99235466D01*
X137368000Y-99335466D01*
X137434666Y-99402133D01*
X137501333Y-99435466D01*
%TO.C,U13*%
X118265466Y-114475466D02*
X118265466Y-115042133D01*
X118232133Y-115108800D01*
X118198800Y-115142133D01*
X118132133Y-115175466D01*
X117998800Y-115175466D01*
X117932133Y-115142133D01*
X117898800Y-115108800D01*
X117865466Y-115042133D01*
X117865466Y-114475466D01*
X117165466Y-115175466D02*
X117565466Y-115175466D01*
X117365466Y-115175466D02*
X117365466Y-114475466D01*
X117432133Y-114575466D01*
X117498800Y-114642133D01*
X117565466Y-114675466D01*
X116932133Y-114475466D02*
X116498800Y-114475466D01*
X116732133Y-114742133D01*
X116632133Y-114742133D01*
X116565466Y-114775466D01*
X116532133Y-114808800D01*
X116498800Y-114875466D01*
X116498800Y-115042133D01*
X116532133Y-115108800D01*
X116565466Y-115142133D01*
X116632133Y-115175466D01*
X116832133Y-115175466D01*
X116898800Y-115142133D01*
X116932133Y-115108800D01*
%TO.C,R25*%
X145837600Y-124522666D02*
X146070933Y-124189333D01*
X146237600Y-124522666D02*
X146237600Y-123822666D01*
X145970933Y-123822666D01*
X145904266Y-123856000D01*
X145870933Y-123889333D01*
X145837600Y-123956000D01*
X145837600Y-124056000D01*
X145870933Y-124122666D01*
X145904266Y-124156000D01*
X145970933Y-124189333D01*
X146237600Y-124189333D01*
X145570933Y-123889333D02*
X145537600Y-123856000D01*
X145470933Y-123822666D01*
X145304266Y-123822666D01*
X145237600Y-123856000D01*
X145204266Y-123889333D01*
X145170933Y-123956000D01*
X145170933Y-124022666D01*
X145204266Y-124122666D01*
X145604266Y-124522666D01*
X145170933Y-124522666D01*
X144537600Y-123822666D02*
X144870933Y-123822666D01*
X144904266Y-124156000D01*
X144870933Y-124122666D01*
X144804266Y-124089333D01*
X144637600Y-124089333D01*
X144570933Y-124122666D01*
X144537600Y-124156000D01*
X144504266Y-124222666D01*
X144504266Y-124389333D01*
X144537600Y-124456000D01*
X144570933Y-124489333D01*
X144637600Y-124522666D01*
X144804266Y-124522666D01*
X144870933Y-124489333D01*
X144904266Y-124456000D01*
%TO.C,R13*%
X108349200Y-100545066D02*
X108582533Y-100211733D01*
X108749200Y-100545066D02*
X108749200Y-99845066D01*
X108482533Y-99845066D01*
X108415866Y-99878400D01*
X108382533Y-99911733D01*
X108349200Y-99978400D01*
X108349200Y-100078400D01*
X108382533Y-100145066D01*
X108415866Y-100178400D01*
X108482533Y-100211733D01*
X108749200Y-100211733D01*
X107682533Y-100545066D02*
X108082533Y-100545066D01*
X107882533Y-100545066D02*
X107882533Y-99845066D01*
X107949200Y-99945066D01*
X108015866Y-100011733D01*
X108082533Y-100045066D01*
X107449200Y-99845066D02*
X107015866Y-99845066D01*
X107249200Y-100111733D01*
X107149200Y-100111733D01*
X107082533Y-100145066D01*
X107049200Y-100178400D01*
X107015866Y-100245066D01*
X107015866Y-100411733D01*
X107049200Y-100478400D01*
X107082533Y-100511733D01*
X107149200Y-100545066D01*
X107349200Y-100545066D01*
X107415866Y-100511733D01*
X107449200Y-100478400D01*
%TO.C,C27*%
X145886400Y-123541600D02*
X145919733Y-123574933D01*
X146019733Y-123608266D01*
X146086400Y-123608266D01*
X146186400Y-123574933D01*
X146253066Y-123508266D01*
X146286400Y-123441600D01*
X146319733Y-123308266D01*
X146319733Y-123208266D01*
X146286400Y-123074933D01*
X146253066Y-123008266D01*
X146186400Y-122941600D01*
X146086400Y-122908266D01*
X146019733Y-122908266D01*
X145919733Y-122941600D01*
X145886400Y-122974933D01*
X145619733Y-122974933D02*
X145586400Y-122941600D01*
X145519733Y-122908266D01*
X145353066Y-122908266D01*
X145286400Y-122941600D01*
X145253066Y-122974933D01*
X145219733Y-123041600D01*
X145219733Y-123108266D01*
X145253066Y-123208266D01*
X145653066Y-123608266D01*
X145219733Y-123608266D01*
X144986400Y-122908266D02*
X144519733Y-122908266D01*
X144819733Y-123608266D01*
%TO.C,R28*%
X134987466Y-123857600D02*
X134654133Y-123624266D01*
X134987466Y-123457600D02*
X134287466Y-123457600D01*
X134287466Y-123724266D01*
X134320800Y-123790933D01*
X134354133Y-123824266D01*
X134420800Y-123857600D01*
X134520800Y-123857600D01*
X134587466Y-123824266D01*
X134620800Y-123790933D01*
X134654133Y-123724266D01*
X134654133Y-123457600D01*
X134354133Y-124124266D02*
X134320800Y-124157600D01*
X134287466Y-124224266D01*
X134287466Y-124390933D01*
X134320800Y-124457600D01*
X134354133Y-124490933D01*
X134420800Y-124524266D01*
X134487466Y-124524266D01*
X134587466Y-124490933D01*
X134987466Y-124090933D01*
X134987466Y-124524266D01*
X134587466Y-124924266D02*
X134554133Y-124857600D01*
X134520800Y-124824266D01*
X134454133Y-124790933D01*
X134420800Y-124790933D01*
X134354133Y-124824266D01*
X134320800Y-124857600D01*
X134287466Y-124924266D01*
X134287466Y-125057600D01*
X134320800Y-125124266D01*
X134354133Y-125157600D01*
X134420800Y-125190933D01*
X134454133Y-125190933D01*
X134520800Y-125157600D01*
X134554133Y-125124266D01*
X134587466Y-125057600D01*
X134587466Y-124924266D01*
X134620800Y-124857600D01*
X134654133Y-124824266D01*
X134720800Y-124790933D01*
X134854133Y-124790933D01*
X134920800Y-124824266D01*
X134954133Y-124857600D01*
X134987466Y-124924266D01*
X134987466Y-125057600D01*
X134954133Y-125124266D01*
X134920800Y-125157600D01*
X134854133Y-125190933D01*
X134720800Y-125190933D01*
X134654133Y-125157600D01*
X134620800Y-125124266D01*
X134587466Y-125057600D01*
%TO.C,C10*%
X132580800Y-99513200D02*
X132614133Y-99546533D01*
X132714133Y-99579866D01*
X132780800Y-99579866D01*
X132880800Y-99546533D01*
X132947466Y-99479866D01*
X132980800Y-99413200D01*
X133014133Y-99279866D01*
X133014133Y-99179866D01*
X132980800Y-99046533D01*
X132947466Y-98979866D01*
X132880800Y-98913200D01*
X132780800Y-98879866D01*
X132714133Y-98879866D01*
X132614133Y-98913200D01*
X132580800Y-98946533D01*
X131914133Y-99579866D02*
X132314133Y-99579866D01*
X132114133Y-99579866D02*
X132114133Y-98879866D01*
X132180800Y-98979866D01*
X132247466Y-99046533D01*
X132314133Y-99079866D01*
X131480800Y-98879866D02*
X131414133Y-98879866D01*
X131347466Y-98913200D01*
X131314133Y-98946533D01*
X131280800Y-99013200D01*
X131247466Y-99146533D01*
X131247466Y-99313200D01*
X131280800Y-99446533D01*
X131314133Y-99513200D01*
X131347466Y-99546533D01*
X131414133Y-99579866D01*
X131480800Y-99579866D01*
X131547466Y-99546533D01*
X131580800Y-99513200D01*
X131614133Y-99446533D01*
X131647466Y-99313200D01*
X131647466Y-99146533D01*
X131614133Y-99013200D01*
X131580800Y-98946533D01*
X131547466Y-98913200D01*
X131480800Y-98879866D01*
%TO.C,C6*%
X130571066Y-106218800D02*
X130604400Y-106252133D01*
X130704400Y-106285466D01*
X130771066Y-106285466D01*
X130871066Y-106252133D01*
X130937733Y-106185466D01*
X130971066Y-106118800D01*
X131004400Y-105985466D01*
X131004400Y-105885466D01*
X130971066Y-105752133D01*
X130937733Y-105685466D01*
X130871066Y-105618800D01*
X130771066Y-105585466D01*
X130704400Y-105585466D01*
X130604400Y-105618800D01*
X130571066Y-105652133D01*
X129971066Y-105585466D02*
X130104400Y-105585466D01*
X130171066Y-105618800D01*
X130204400Y-105652133D01*
X130271066Y-105752133D01*
X130304400Y-105885466D01*
X130304400Y-106152133D01*
X130271066Y-106218800D01*
X130237733Y-106252133D01*
X130171066Y-106285466D01*
X130037733Y-106285466D01*
X129971066Y-106252133D01*
X129937733Y-106218800D01*
X129904400Y-106152133D01*
X129904400Y-105985466D01*
X129937733Y-105918800D01*
X129971066Y-105885466D01*
X130037733Y-105852133D01*
X130171066Y-105852133D01*
X130237733Y-105885466D01*
X130271066Y-105918800D01*
X130304400Y-105985466D01*
%TO.C,Q1*%
X106746666Y-117832933D02*
X106813333Y-117799600D01*
X106880000Y-117732933D01*
X106980000Y-117632933D01*
X107046666Y-117599600D01*
X107113333Y-117599600D01*
X107080000Y-117766266D02*
X107146666Y-117732933D01*
X107213333Y-117666266D01*
X107246666Y-117532933D01*
X107246666Y-117299600D01*
X107213333Y-117166266D01*
X107146666Y-117099600D01*
X107080000Y-117066266D01*
X106946666Y-117066266D01*
X106880000Y-117099600D01*
X106813333Y-117166266D01*
X106780000Y-117299600D01*
X106780000Y-117532933D01*
X106813333Y-117666266D01*
X106880000Y-117732933D01*
X106946666Y-117766266D01*
X107080000Y-117766266D01*
X106113333Y-117766266D02*
X106513333Y-117766266D01*
X106313333Y-117766266D02*
X106313333Y-117066266D01*
X106380000Y-117166266D01*
X106446666Y-117232933D01*
X106513333Y-117266266D01*
%TO.C,C34*%
X131920400Y-123440000D02*
X131953733Y-123473333D01*
X132053733Y-123506666D01*
X132120400Y-123506666D01*
X132220400Y-123473333D01*
X132287066Y-123406666D01*
X132320400Y-123340000D01*
X132353733Y-123206666D01*
X132353733Y-123106666D01*
X132320400Y-122973333D01*
X132287066Y-122906666D01*
X132220400Y-122840000D01*
X132120400Y-122806666D01*
X132053733Y-122806666D01*
X131953733Y-122840000D01*
X131920400Y-122873333D01*
X131687066Y-122806666D02*
X131253733Y-122806666D01*
X131487066Y-123073333D01*
X131387066Y-123073333D01*
X131320400Y-123106666D01*
X131287066Y-123140000D01*
X131253733Y-123206666D01*
X131253733Y-123373333D01*
X131287066Y-123440000D01*
X131320400Y-123473333D01*
X131387066Y-123506666D01*
X131587066Y-123506666D01*
X131653733Y-123473333D01*
X131687066Y-123440000D01*
X130653733Y-123040000D02*
X130653733Y-123506666D01*
X130820400Y-122773333D02*
X130987066Y-123273333D01*
X130553733Y-123273333D01*
%TO.C,U3*%
X129616133Y-102842266D02*
X129616133Y-103408933D01*
X129582800Y-103475600D01*
X129549466Y-103508933D01*
X129482800Y-103542266D01*
X129349466Y-103542266D01*
X129282800Y-103508933D01*
X129249466Y-103475600D01*
X129216133Y-103408933D01*
X129216133Y-102842266D01*
X128949466Y-102842266D02*
X128516133Y-102842266D01*
X128749466Y-103108933D01*
X128649466Y-103108933D01*
X128582800Y-103142266D01*
X128549466Y-103175600D01*
X128516133Y-103242266D01*
X128516133Y-103408933D01*
X128549466Y-103475600D01*
X128582800Y-103508933D01*
X128649466Y-103542266D01*
X128849466Y-103542266D01*
X128916133Y-103508933D01*
X128949466Y-103475600D01*
%TO.C,C31*%
X124808400Y-111552800D02*
X124841733Y-111586133D01*
X124941733Y-111619466D01*
X125008400Y-111619466D01*
X125108400Y-111586133D01*
X125175066Y-111519466D01*
X125208400Y-111452800D01*
X125241733Y-111319466D01*
X125241733Y-111219466D01*
X125208400Y-111086133D01*
X125175066Y-111019466D01*
X125108400Y-110952800D01*
X125008400Y-110919466D01*
X124941733Y-110919466D01*
X124841733Y-110952800D01*
X124808400Y-110986133D01*
X124575066Y-110919466D02*
X124141733Y-110919466D01*
X124375066Y-111186133D01*
X124275066Y-111186133D01*
X124208400Y-111219466D01*
X124175066Y-111252800D01*
X124141733Y-111319466D01*
X124141733Y-111486133D01*
X124175066Y-111552800D01*
X124208400Y-111586133D01*
X124275066Y-111619466D01*
X124475066Y-111619466D01*
X124541733Y-111586133D01*
X124575066Y-111552800D01*
X123475066Y-111619466D02*
X123875066Y-111619466D01*
X123675066Y-111619466D02*
X123675066Y-110919466D01*
X123741733Y-111019466D01*
X123808400Y-111086133D01*
X123875066Y-111119466D01*
%TO.C,C35*%
X131006000Y-121560400D02*
X131039333Y-121593733D01*
X131139333Y-121627066D01*
X131206000Y-121627066D01*
X131306000Y-121593733D01*
X131372666Y-121527066D01*
X131406000Y-121460400D01*
X131439333Y-121327066D01*
X131439333Y-121227066D01*
X131406000Y-121093733D01*
X131372666Y-121027066D01*
X131306000Y-120960400D01*
X131206000Y-120927066D01*
X131139333Y-120927066D01*
X131039333Y-120960400D01*
X131006000Y-120993733D01*
X130772666Y-120927066D02*
X130339333Y-120927066D01*
X130572666Y-121193733D01*
X130472666Y-121193733D01*
X130406000Y-121227066D01*
X130372666Y-121260400D01*
X130339333Y-121327066D01*
X130339333Y-121493733D01*
X130372666Y-121560400D01*
X130406000Y-121593733D01*
X130472666Y-121627066D01*
X130672666Y-121627066D01*
X130739333Y-121593733D01*
X130772666Y-121560400D01*
X129706000Y-120927066D02*
X130039333Y-120927066D01*
X130072666Y-121260400D01*
X130039333Y-121227066D01*
X129972666Y-121193733D01*
X129806000Y-121193733D01*
X129739333Y-121227066D01*
X129706000Y-121260400D01*
X129672666Y-121327066D01*
X129672666Y-121493733D01*
X129706000Y-121560400D01*
X129739333Y-121593733D01*
X129806000Y-121627066D01*
X129972666Y-121627066D01*
X130039333Y-121593733D01*
X130072666Y-121560400D01*
%TO.C,Q2*%
X106695866Y-109247733D02*
X106762533Y-109214400D01*
X106829200Y-109147733D01*
X106929200Y-109047733D01*
X106995866Y-109014400D01*
X107062533Y-109014400D01*
X107029200Y-109181066D02*
X107095866Y-109147733D01*
X107162533Y-109081066D01*
X107195866Y-108947733D01*
X107195866Y-108714400D01*
X107162533Y-108581066D01*
X107095866Y-108514400D01*
X107029200Y-108481066D01*
X106895866Y-108481066D01*
X106829200Y-108514400D01*
X106762533Y-108581066D01*
X106729200Y-108714400D01*
X106729200Y-108947733D01*
X106762533Y-109081066D01*
X106829200Y-109147733D01*
X106895866Y-109181066D01*
X107029200Y-109181066D01*
X106462533Y-108547733D02*
X106429200Y-108514400D01*
X106362533Y-108481066D01*
X106195866Y-108481066D01*
X106129200Y-108514400D01*
X106095866Y-108547733D01*
X106062533Y-108614400D01*
X106062533Y-108681066D01*
X106095866Y-108781066D01*
X106495866Y-109181066D01*
X106062533Y-109181066D01*
%TO.C,Q3*%
X139563466Y-111889333D02*
X139630133Y-111856000D01*
X139696800Y-111789333D01*
X139796800Y-111689333D01*
X139863466Y-111656000D01*
X139930133Y-111656000D01*
X139896800Y-111822666D02*
X139963466Y-111789333D01*
X140030133Y-111722666D01*
X140063466Y-111589333D01*
X140063466Y-111356000D01*
X140030133Y-111222666D01*
X139963466Y-111156000D01*
X139896800Y-111122666D01*
X139763466Y-111122666D01*
X139696800Y-111156000D01*
X139630133Y-111222666D01*
X139596800Y-111356000D01*
X139596800Y-111589333D01*
X139630133Y-111722666D01*
X139696800Y-111789333D01*
X139763466Y-111822666D01*
X139896800Y-111822666D01*
X139363466Y-111122666D02*
X138930133Y-111122666D01*
X139163466Y-111389333D01*
X139063466Y-111389333D01*
X138996800Y-111422666D01*
X138963466Y-111456000D01*
X138930133Y-111522666D01*
X138930133Y-111689333D01*
X138963466Y-111756000D01*
X138996800Y-111789333D01*
X139063466Y-111822666D01*
X139263466Y-111822666D01*
X139330133Y-111789333D01*
X139363466Y-111756000D01*
%TO.C,D3*%
X108009466Y-113651466D02*
X108009466Y-112951466D01*
X107842800Y-112951466D01*
X107742800Y-112984800D01*
X107676133Y-113051466D01*
X107642800Y-113118133D01*
X107609466Y-113251466D01*
X107609466Y-113351466D01*
X107642800Y-113484800D01*
X107676133Y-113551466D01*
X107742800Y-113618133D01*
X107842800Y-113651466D01*
X108009466Y-113651466D01*
X107376133Y-112951466D02*
X106942800Y-112951466D01*
X107176133Y-113218133D01*
X107076133Y-113218133D01*
X107009466Y-113251466D01*
X106976133Y-113284800D01*
X106942800Y-113351466D01*
X106942800Y-113518133D01*
X106976133Y-113584800D01*
X107009466Y-113618133D01*
X107076133Y-113651466D01*
X107276133Y-113651466D01*
X107342800Y-113618133D01*
X107376133Y-113584800D01*
%TO.C,D6*%
X106028266Y-100748266D02*
X106028266Y-100048266D01*
X105861600Y-100048266D01*
X105761600Y-100081600D01*
X105694933Y-100148266D01*
X105661600Y-100214933D01*
X105628266Y-100348266D01*
X105628266Y-100448266D01*
X105661600Y-100581600D01*
X105694933Y-100648266D01*
X105761600Y-100714933D01*
X105861600Y-100748266D01*
X106028266Y-100748266D01*
X105028266Y-100048266D02*
X105161600Y-100048266D01*
X105228266Y-100081600D01*
X105261600Y-100114933D01*
X105328266Y-100214933D01*
X105361600Y-100348266D01*
X105361600Y-100614933D01*
X105328266Y-100681600D01*
X105294933Y-100714933D01*
X105228266Y-100748266D01*
X105094933Y-100748266D01*
X105028266Y-100714933D01*
X104994933Y-100681600D01*
X104961600Y-100614933D01*
X104961600Y-100448266D01*
X104994933Y-100381600D01*
X105028266Y-100348266D01*
X105094933Y-100314933D01*
X105228266Y-100314933D01*
X105294933Y-100348266D01*
X105328266Y-100381600D01*
X105361600Y-100448266D01*
%TO.C,R31*%
X125538666Y-113494400D02*
X125205333Y-113261066D01*
X125538666Y-113094400D02*
X124838666Y-113094400D01*
X124838666Y-113361066D01*
X124872000Y-113427733D01*
X124905333Y-113461066D01*
X124972000Y-113494400D01*
X125072000Y-113494400D01*
X125138666Y-113461066D01*
X125172000Y-113427733D01*
X125205333Y-113361066D01*
X125205333Y-113094400D01*
X124838666Y-113727733D02*
X124838666Y-114161066D01*
X125105333Y-113927733D01*
X125105333Y-114027733D01*
X125138666Y-114094400D01*
X125172000Y-114127733D01*
X125238666Y-114161066D01*
X125405333Y-114161066D01*
X125472000Y-114127733D01*
X125505333Y-114094400D01*
X125538666Y-114027733D01*
X125538666Y-113827733D01*
X125505333Y-113761066D01*
X125472000Y-113727733D01*
X125538666Y-114827733D02*
X125538666Y-114427733D01*
X125538666Y-114627733D02*
X124838666Y-114627733D01*
X124938666Y-114561066D01*
X125005333Y-114494400D01*
X125038666Y-114427733D01*
%TO.C,R29*%
X141623200Y-129805866D02*
X141856533Y-129472533D01*
X142023200Y-129805866D02*
X142023200Y-129105866D01*
X141756533Y-129105866D01*
X141689866Y-129139200D01*
X141656533Y-129172533D01*
X141623200Y-129239200D01*
X141623200Y-129339200D01*
X141656533Y-129405866D01*
X141689866Y-129439200D01*
X141756533Y-129472533D01*
X142023200Y-129472533D01*
X141356533Y-129172533D02*
X141323200Y-129139200D01*
X141256533Y-129105866D01*
X141089866Y-129105866D01*
X141023200Y-129139200D01*
X140989866Y-129172533D01*
X140956533Y-129239200D01*
X140956533Y-129305866D01*
X140989866Y-129405866D01*
X141389866Y-129805866D01*
X140956533Y-129805866D01*
X140623200Y-129805866D02*
X140489866Y-129805866D01*
X140423200Y-129772533D01*
X140389866Y-129739200D01*
X140323200Y-129639200D01*
X140289866Y-129505866D01*
X140289866Y-129239200D01*
X140323200Y-129172533D01*
X140356533Y-129139200D01*
X140423200Y-129105866D01*
X140556533Y-129105866D01*
X140623200Y-129139200D01*
X140656533Y-129172533D01*
X140689866Y-129239200D01*
X140689866Y-129405866D01*
X140656533Y-129472533D01*
X140623200Y-129505866D01*
X140556533Y-129539200D01*
X140423200Y-129539200D01*
X140356533Y-129505866D01*
X140323200Y-129472533D01*
X140289866Y-129405866D01*
%TO.C,C33*%
X131920400Y-122474800D02*
X131953733Y-122508133D01*
X132053733Y-122541466D01*
X132120400Y-122541466D01*
X132220400Y-122508133D01*
X132287066Y-122441466D01*
X132320400Y-122374800D01*
X132353733Y-122241466D01*
X132353733Y-122141466D01*
X132320400Y-122008133D01*
X132287066Y-121941466D01*
X132220400Y-121874800D01*
X132120400Y-121841466D01*
X132053733Y-121841466D01*
X131953733Y-121874800D01*
X131920400Y-121908133D01*
X131687066Y-121841466D02*
X131253733Y-121841466D01*
X131487066Y-122108133D01*
X131387066Y-122108133D01*
X131320400Y-122141466D01*
X131287066Y-122174800D01*
X131253733Y-122241466D01*
X131253733Y-122408133D01*
X131287066Y-122474800D01*
X131320400Y-122508133D01*
X131387066Y-122541466D01*
X131587066Y-122541466D01*
X131653733Y-122508133D01*
X131687066Y-122474800D01*
X131020400Y-121841466D02*
X130587066Y-121841466D01*
X130820400Y-122108133D01*
X130720400Y-122108133D01*
X130653733Y-122141466D01*
X130620400Y-122174800D01*
X130587066Y-122241466D01*
X130587066Y-122408133D01*
X130620400Y-122474800D01*
X130653733Y-122508133D01*
X130720400Y-122541466D01*
X130920400Y-122541466D01*
X130987066Y-122508133D01*
X131020400Y-122474800D01*
%TO.C,R30*%
X137152800Y-129856666D02*
X137386133Y-129523333D01*
X137552800Y-129856666D02*
X137552800Y-129156666D01*
X137286133Y-129156666D01*
X137219466Y-129190000D01*
X137186133Y-129223333D01*
X137152800Y-129290000D01*
X137152800Y-129390000D01*
X137186133Y-129456666D01*
X137219466Y-129490000D01*
X137286133Y-129523333D01*
X137552800Y-129523333D01*
X136919466Y-129156666D02*
X136486133Y-129156666D01*
X136719466Y-129423333D01*
X136619466Y-129423333D01*
X136552800Y-129456666D01*
X136519466Y-129490000D01*
X136486133Y-129556666D01*
X136486133Y-129723333D01*
X136519466Y-129790000D01*
X136552800Y-129823333D01*
X136619466Y-129856666D01*
X136819466Y-129856666D01*
X136886133Y-129823333D01*
X136919466Y-129790000D01*
X136052800Y-129156666D02*
X135986133Y-129156666D01*
X135919466Y-129190000D01*
X135886133Y-129223333D01*
X135852800Y-129290000D01*
X135819466Y-129423333D01*
X135819466Y-129590000D01*
X135852800Y-129723333D01*
X135886133Y-129790000D01*
X135919466Y-129823333D01*
X135986133Y-129856666D01*
X136052800Y-129856666D01*
X136119466Y-129823333D01*
X136152800Y-129790000D01*
X136186133Y-129723333D01*
X136219466Y-129590000D01*
X136219466Y-129423333D01*
X136186133Y-129290000D01*
X136152800Y-129223333D01*
X136119466Y-129190000D01*
X136052800Y-129156666D01*
%TO.C,R20*%
X105910800Y-99884666D02*
X106144133Y-99551333D01*
X106310800Y-99884666D02*
X106310800Y-99184666D01*
X106044133Y-99184666D01*
X105977466Y-99218000D01*
X105944133Y-99251333D01*
X105910800Y-99318000D01*
X105910800Y-99418000D01*
X105944133Y-99484666D01*
X105977466Y-99518000D01*
X106044133Y-99551333D01*
X106310800Y-99551333D01*
X105644133Y-99251333D02*
X105610800Y-99218000D01*
X105544133Y-99184666D01*
X105377466Y-99184666D01*
X105310800Y-99218000D01*
X105277466Y-99251333D01*
X105244133Y-99318000D01*
X105244133Y-99384666D01*
X105277466Y-99484666D01*
X105677466Y-99884666D01*
X105244133Y-99884666D01*
X104810800Y-99184666D02*
X104744133Y-99184666D01*
X104677466Y-99218000D01*
X104644133Y-99251333D01*
X104610800Y-99318000D01*
X104577466Y-99451333D01*
X104577466Y-99618000D01*
X104610800Y-99751333D01*
X104644133Y-99818000D01*
X104677466Y-99851333D01*
X104744133Y-99884666D01*
X104810800Y-99884666D01*
X104877466Y-99851333D01*
X104910800Y-99818000D01*
X104944133Y-99751333D01*
X104977466Y-99618000D01*
X104977466Y-99451333D01*
X104944133Y-99318000D01*
X104910800Y-99251333D01*
X104877466Y-99218000D01*
X104810800Y-99184666D01*
%TO.C,R2*%
X136616266Y-99325866D02*
X136849600Y-98992533D01*
X137016266Y-99325866D02*
X137016266Y-98625866D01*
X136749600Y-98625866D01*
X136682933Y-98659200D01*
X136649600Y-98692533D01*
X136616266Y-98759200D01*
X136616266Y-98859200D01*
X136649600Y-98925866D01*
X136682933Y-98959200D01*
X136749600Y-98992533D01*
X137016266Y-98992533D01*
X136349600Y-98692533D02*
X136316266Y-98659200D01*
X136249600Y-98625866D01*
X136082933Y-98625866D01*
X136016266Y-98659200D01*
X135982933Y-98692533D01*
X135949600Y-98759200D01*
X135949600Y-98825866D01*
X135982933Y-98925866D01*
X136382933Y-99325866D01*
X135949600Y-99325866D01*
%TO.C,C28*%
X133698400Y-120747600D02*
X133731733Y-120780933D01*
X133831733Y-120814266D01*
X133898400Y-120814266D01*
X133998400Y-120780933D01*
X134065066Y-120714266D01*
X134098400Y-120647600D01*
X134131733Y-120514266D01*
X134131733Y-120414266D01*
X134098400Y-120280933D01*
X134065066Y-120214266D01*
X133998400Y-120147600D01*
X133898400Y-120114266D01*
X133831733Y-120114266D01*
X133731733Y-120147600D01*
X133698400Y-120180933D01*
X133431733Y-120180933D02*
X133398400Y-120147600D01*
X133331733Y-120114266D01*
X133165066Y-120114266D01*
X133098400Y-120147600D01*
X133065066Y-120180933D01*
X133031733Y-120247600D01*
X133031733Y-120314266D01*
X133065066Y-120414266D01*
X133465066Y-120814266D01*
X133031733Y-120814266D01*
X132631733Y-120414266D02*
X132698400Y-120380933D01*
X132731733Y-120347600D01*
X132765066Y-120280933D01*
X132765066Y-120247600D01*
X132731733Y-120180933D01*
X132698400Y-120147600D01*
X132631733Y-120114266D01*
X132498400Y-120114266D01*
X132431733Y-120147600D01*
X132398400Y-120180933D01*
X132365066Y-120247600D01*
X132365066Y-120280933D01*
X132398400Y-120347600D01*
X132431733Y-120380933D01*
X132498400Y-120414266D01*
X132631733Y-120414266D01*
X132698400Y-120447600D01*
X132731733Y-120480933D01*
X132765066Y-120547600D01*
X132765066Y-120680933D01*
X132731733Y-120747600D01*
X132698400Y-120780933D01*
X132631733Y-120814266D01*
X132498400Y-120814266D01*
X132431733Y-120780933D01*
X132398400Y-120747600D01*
X132365066Y-120680933D01*
X132365066Y-120547600D01*
X132398400Y-120480933D01*
X132431733Y-120447600D01*
X132498400Y-120414266D01*
%TO.C,U11*%
X132540266Y-112240266D02*
X132540266Y-112806933D01*
X132506933Y-112873600D01*
X132473600Y-112906933D01*
X132406933Y-112940266D01*
X132273600Y-112940266D01*
X132206933Y-112906933D01*
X132173600Y-112873600D01*
X132140266Y-112806933D01*
X132140266Y-112240266D01*
X131440266Y-112940266D02*
X131840266Y-112940266D01*
X131640266Y-112940266D02*
X131640266Y-112240266D01*
X131706933Y-112340266D01*
X131773600Y-112406933D01*
X131840266Y-112440266D01*
X130773600Y-112940266D02*
X131173600Y-112940266D01*
X130973600Y-112940266D02*
X130973600Y-112240266D01*
X131040266Y-112340266D01*
X131106933Y-112406933D01*
X131173600Y-112440266D01*
%TO.C,D1*%
X139403866Y-107555466D02*
X139403866Y-106855466D01*
X139237200Y-106855466D01*
X139137200Y-106888800D01*
X139070533Y-106955466D01*
X139037200Y-107022133D01*
X139003866Y-107155466D01*
X139003866Y-107255466D01*
X139037200Y-107388800D01*
X139070533Y-107455466D01*
X139137200Y-107522133D01*
X139237200Y-107555466D01*
X139403866Y-107555466D01*
X138337200Y-107555466D02*
X138737200Y-107555466D01*
X138537200Y-107555466D02*
X138537200Y-106855466D01*
X138603866Y-106955466D01*
X138670533Y-107022133D01*
X138737200Y-107055466D01*
%TO.C,L1*%
X135295466Y-108774666D02*
X135628800Y-108774666D01*
X135628800Y-108074666D01*
X134695466Y-108774666D02*
X135095466Y-108774666D01*
X134895466Y-108774666D02*
X134895466Y-108074666D01*
X134962133Y-108174666D01*
X135028800Y-108241333D01*
X135095466Y-108274666D01*
%TO.C,C25*%
X139946800Y-121154000D02*
X139980133Y-121187333D01*
X140080133Y-121220666D01*
X140146800Y-121220666D01*
X140246800Y-121187333D01*
X140313466Y-121120666D01*
X140346800Y-121054000D01*
X140380133Y-120920666D01*
X140380133Y-120820666D01*
X140346800Y-120687333D01*
X140313466Y-120620666D01*
X140246800Y-120554000D01*
X140146800Y-120520666D01*
X140080133Y-120520666D01*
X139980133Y-120554000D01*
X139946800Y-120587333D01*
X139680133Y-120587333D02*
X139646800Y-120554000D01*
X139580133Y-120520666D01*
X139413466Y-120520666D01*
X139346800Y-120554000D01*
X139313466Y-120587333D01*
X139280133Y-120654000D01*
X139280133Y-120720666D01*
X139313466Y-120820666D01*
X139713466Y-121220666D01*
X139280133Y-121220666D01*
X138646800Y-120520666D02*
X138980133Y-120520666D01*
X139013466Y-120854000D01*
X138980133Y-120820666D01*
X138913466Y-120787333D01*
X138746800Y-120787333D01*
X138680133Y-120820666D01*
X138646800Y-120854000D01*
X138613466Y-120920666D01*
X138613466Y-121087333D01*
X138646800Y-121154000D01*
X138680133Y-121187333D01*
X138746800Y-121220666D01*
X138913466Y-121220666D01*
X138980133Y-121187333D01*
X139013466Y-121154000D01*
%TO.C,C9*%
X125287866Y-105152000D02*
X125321200Y-105185333D01*
X125421200Y-105218666D01*
X125487866Y-105218666D01*
X125587866Y-105185333D01*
X125654533Y-105118666D01*
X125687866Y-105052000D01*
X125721200Y-104918666D01*
X125721200Y-104818666D01*
X125687866Y-104685333D01*
X125654533Y-104618666D01*
X125587866Y-104552000D01*
X125487866Y-104518666D01*
X125421200Y-104518666D01*
X125321200Y-104552000D01*
X125287866Y-104585333D01*
X124954533Y-105218666D02*
X124821200Y-105218666D01*
X124754533Y-105185333D01*
X124721200Y-105152000D01*
X124654533Y-105052000D01*
X124621200Y-104918666D01*
X124621200Y-104652000D01*
X124654533Y-104585333D01*
X124687866Y-104552000D01*
X124754533Y-104518666D01*
X124887866Y-104518666D01*
X124954533Y-104552000D01*
X124987866Y-104585333D01*
X125021200Y-104652000D01*
X125021200Y-104818666D01*
X124987866Y-104885333D01*
X124954533Y-104918666D01*
X124887866Y-104952000D01*
X124754533Y-104952000D01*
X124687866Y-104918666D01*
X124654533Y-104885333D01*
X124621200Y-104818666D01*
%TO.C,R27*%
X145886400Y-122693866D02*
X146119733Y-122360533D01*
X146286400Y-122693866D02*
X146286400Y-121993866D01*
X146019733Y-121993866D01*
X145953066Y-122027200D01*
X145919733Y-122060533D01*
X145886400Y-122127200D01*
X145886400Y-122227200D01*
X145919733Y-122293866D01*
X145953066Y-122327200D01*
X146019733Y-122360533D01*
X146286400Y-122360533D01*
X145619733Y-122060533D02*
X145586400Y-122027200D01*
X145519733Y-121993866D01*
X145353066Y-121993866D01*
X145286400Y-122027200D01*
X145253066Y-122060533D01*
X145219733Y-122127200D01*
X145219733Y-122193866D01*
X145253066Y-122293866D01*
X145653066Y-122693866D01*
X145219733Y-122693866D01*
X144986400Y-121993866D02*
X144519733Y-121993866D01*
X144819733Y-122693866D01*
%TO.C,C8*%
X125287866Y-106066400D02*
X125321200Y-106099733D01*
X125421200Y-106133066D01*
X125487866Y-106133066D01*
X125587866Y-106099733D01*
X125654533Y-106033066D01*
X125687866Y-105966400D01*
X125721200Y-105833066D01*
X125721200Y-105733066D01*
X125687866Y-105599733D01*
X125654533Y-105533066D01*
X125587866Y-105466400D01*
X125487866Y-105433066D01*
X125421200Y-105433066D01*
X125321200Y-105466400D01*
X125287866Y-105499733D01*
X124887866Y-105733066D02*
X124954533Y-105699733D01*
X124987866Y-105666400D01*
X125021200Y-105599733D01*
X125021200Y-105566400D01*
X124987866Y-105499733D01*
X124954533Y-105466400D01*
X124887866Y-105433066D01*
X124754533Y-105433066D01*
X124687866Y-105466400D01*
X124654533Y-105499733D01*
X124621200Y-105566400D01*
X124621200Y-105599733D01*
X124654533Y-105666400D01*
X124687866Y-105699733D01*
X124754533Y-105733066D01*
X124887866Y-105733066D01*
X124954533Y-105766400D01*
X124987866Y-105799733D01*
X125021200Y-105866400D01*
X125021200Y-105999733D01*
X124987866Y-106066400D01*
X124954533Y-106099733D01*
X124887866Y-106133066D01*
X124754533Y-106133066D01*
X124687866Y-106099733D01*
X124654533Y-106066400D01*
X124621200Y-105999733D01*
X124621200Y-105866400D01*
X124654533Y-105799733D01*
X124687866Y-105766400D01*
X124754533Y-105733066D01*
%TO.C,R16*%
X107942800Y-111060666D02*
X108176133Y-110727333D01*
X108342800Y-111060666D02*
X108342800Y-110360666D01*
X108076133Y-110360666D01*
X108009466Y-110394000D01*
X107976133Y-110427333D01*
X107942800Y-110494000D01*
X107942800Y-110594000D01*
X107976133Y-110660666D01*
X108009466Y-110694000D01*
X108076133Y-110727333D01*
X108342800Y-110727333D01*
X107276133Y-111060666D02*
X107676133Y-111060666D01*
X107476133Y-111060666D02*
X107476133Y-110360666D01*
X107542800Y-110460666D01*
X107609466Y-110527333D01*
X107676133Y-110560666D01*
X106676133Y-110360666D02*
X106809466Y-110360666D01*
X106876133Y-110394000D01*
X106909466Y-110427333D01*
X106976133Y-110527333D01*
X107009466Y-110660666D01*
X107009466Y-110927333D01*
X106976133Y-110994000D01*
X106942800Y-111027333D01*
X106876133Y-111060666D01*
X106742800Y-111060666D01*
X106676133Y-111027333D01*
X106642800Y-110994000D01*
X106609466Y-110927333D01*
X106609466Y-110760666D01*
X106642800Y-110694000D01*
X106676133Y-110660666D01*
X106742800Y-110627333D01*
X106876133Y-110627333D01*
X106942800Y-110660666D01*
X106976133Y-110694000D01*
X107009466Y-110760666D01*
%TO.C,U12*%
X136350266Y-120673066D02*
X136350266Y-121239733D01*
X136316933Y-121306400D01*
X136283600Y-121339733D01*
X136216933Y-121373066D01*
X136083600Y-121373066D01*
X136016933Y-121339733D01*
X135983600Y-121306400D01*
X135950266Y-121239733D01*
X135950266Y-120673066D01*
X135250266Y-121373066D02*
X135650266Y-121373066D01*
X135450266Y-121373066D02*
X135450266Y-120673066D01*
X135516933Y-120773066D01*
X135583600Y-120839733D01*
X135650266Y-120873066D01*
X134983600Y-120739733D02*
X134950266Y-120706400D01*
X134883600Y-120673066D01*
X134716933Y-120673066D01*
X134650266Y-120706400D01*
X134616933Y-120739733D01*
X134583600Y-120806400D01*
X134583600Y-120873066D01*
X134616933Y-120973066D01*
X135016933Y-121373066D01*
X134583600Y-121373066D01*
%TO.C,R22*%
X132174400Y-111009866D02*
X132407733Y-110676533D01*
X132574400Y-111009866D02*
X132574400Y-110309866D01*
X132307733Y-110309866D01*
X132241066Y-110343200D01*
X132207733Y-110376533D01*
X132174400Y-110443200D01*
X132174400Y-110543200D01*
X132207733Y-110609866D01*
X132241066Y-110643200D01*
X132307733Y-110676533D01*
X132574400Y-110676533D01*
X131907733Y-110376533D02*
X131874400Y-110343200D01*
X131807733Y-110309866D01*
X131641066Y-110309866D01*
X131574400Y-110343200D01*
X131541066Y-110376533D01*
X131507733Y-110443200D01*
X131507733Y-110509866D01*
X131541066Y-110609866D01*
X131941066Y-111009866D01*
X131507733Y-111009866D01*
X131241066Y-110376533D02*
X131207733Y-110343200D01*
X131141066Y-110309866D01*
X130974400Y-110309866D01*
X130907733Y-110343200D01*
X130874400Y-110376533D01*
X130841066Y-110443200D01*
X130841066Y-110509866D01*
X130874400Y-110609866D01*
X131274400Y-111009866D01*
X130841066Y-111009866D01*
%TO.C,U14*%
X124787866Y-115516133D02*
X125354533Y-115516133D01*
X125421200Y-115549466D01*
X125454533Y-115582800D01*
X125487866Y-115649466D01*
X125487866Y-115782800D01*
X125454533Y-115849466D01*
X125421200Y-115882800D01*
X125354533Y-115916133D01*
X124787866Y-115916133D01*
X125487866Y-116616133D02*
X125487866Y-116216133D01*
X125487866Y-116416133D02*
X124787866Y-116416133D01*
X124887866Y-116349466D01*
X124954533Y-116282800D01*
X124987866Y-116216133D01*
X125021200Y-117216133D02*
X125487866Y-117216133D01*
X124754533Y-117049466D02*
X125254533Y-116882800D01*
X125254533Y-117316133D01*
%TO.C,R3*%
X136616266Y-98360666D02*
X136849600Y-98027333D01*
X137016266Y-98360666D02*
X137016266Y-97660666D01*
X136749600Y-97660666D01*
X136682933Y-97694000D01*
X136649600Y-97727333D01*
X136616266Y-97794000D01*
X136616266Y-97894000D01*
X136649600Y-97960666D01*
X136682933Y-97994000D01*
X136749600Y-98027333D01*
X137016266Y-98027333D01*
X136382933Y-97660666D02*
X135949600Y-97660666D01*
X136182933Y-97927333D01*
X136082933Y-97927333D01*
X136016266Y-97960666D01*
X135982933Y-97994000D01*
X135949600Y-98060666D01*
X135949600Y-98227333D01*
X135982933Y-98294000D01*
X136016266Y-98327333D01*
X136082933Y-98360666D01*
X136282933Y-98360666D01*
X136349600Y-98327333D01*
X136382933Y-98294000D01*
%TO.C,D5*%
X106028266Y-101611866D02*
X106028266Y-100911866D01*
X105861600Y-100911866D01*
X105761600Y-100945200D01*
X105694933Y-101011866D01*
X105661600Y-101078533D01*
X105628266Y-101211866D01*
X105628266Y-101311866D01*
X105661600Y-101445200D01*
X105694933Y-101511866D01*
X105761600Y-101578533D01*
X105861600Y-101611866D01*
X106028266Y-101611866D01*
X104994933Y-100911866D02*
X105328266Y-100911866D01*
X105361600Y-101245200D01*
X105328266Y-101211866D01*
X105261600Y-101178533D01*
X105094933Y-101178533D01*
X105028266Y-101211866D01*
X104994933Y-101245200D01*
X104961600Y-101311866D01*
X104961600Y-101478533D01*
X104994933Y-101545200D01*
X105028266Y-101578533D01*
X105094933Y-101611866D01*
X105261600Y-101611866D01*
X105328266Y-101578533D01*
X105361600Y-101545200D01*
%TO.C,FB1*%
X128118400Y-110668666D02*
X128118400Y-110435333D01*
X128485066Y-110435333D02*
X127785066Y-110435333D01*
X127785066Y-110768666D01*
X128118400Y-111268666D02*
X128151733Y-111368666D01*
X128185066Y-111402000D01*
X128251733Y-111435333D01*
X128351733Y-111435333D01*
X128418400Y-111402000D01*
X128451733Y-111368666D01*
X128485066Y-111302000D01*
X128485066Y-111035333D01*
X127785066Y-111035333D01*
X127785066Y-111268666D01*
X127818400Y-111335333D01*
X127851733Y-111368666D01*
X127918400Y-111402000D01*
X127985066Y-111402000D01*
X128051733Y-111368666D01*
X128085066Y-111335333D01*
X128118400Y-111268666D01*
X128118400Y-111035333D01*
X128485066Y-112102000D02*
X128485066Y-111702000D01*
X128485066Y-111902000D02*
X127785066Y-111902000D01*
X127885066Y-111835333D01*
X127951733Y-111768666D01*
X127985066Y-111702000D01*
%TO.C,C1*%
X140070666Y-98344800D02*
X140104000Y-98378133D01*
X140204000Y-98411466D01*
X140270666Y-98411466D01*
X140370666Y-98378133D01*
X140437333Y-98311466D01*
X140470666Y-98244800D01*
X140504000Y-98111466D01*
X140504000Y-98011466D01*
X140470666Y-97878133D01*
X140437333Y-97811466D01*
X140370666Y-97744800D01*
X140270666Y-97711466D01*
X140204000Y-97711466D01*
X140104000Y-97744800D01*
X140070666Y-97778133D01*
X139404000Y-98411466D02*
X139804000Y-98411466D01*
X139604000Y-98411466D02*
X139604000Y-97711466D01*
X139670666Y-97811466D01*
X139737333Y-97878133D01*
X139804000Y-97911466D01*
%TO.C,R23*%
X132174400Y-111975066D02*
X132407733Y-111641733D01*
X132574400Y-111975066D02*
X132574400Y-111275066D01*
X132307733Y-111275066D01*
X132241066Y-111308400D01*
X132207733Y-111341733D01*
X132174400Y-111408400D01*
X132174400Y-111508400D01*
X132207733Y-111575066D01*
X132241066Y-111608400D01*
X132307733Y-111641733D01*
X132574400Y-111641733D01*
X131907733Y-111341733D02*
X131874400Y-111308400D01*
X131807733Y-111275066D01*
X131641066Y-111275066D01*
X131574400Y-111308400D01*
X131541066Y-111341733D01*
X131507733Y-111408400D01*
X131507733Y-111475066D01*
X131541066Y-111575066D01*
X131941066Y-111975066D01*
X131507733Y-111975066D01*
X131274400Y-111275066D02*
X130841066Y-111275066D01*
X131074400Y-111541733D01*
X130974400Y-111541733D01*
X130907733Y-111575066D01*
X130874400Y-111608400D01*
X130841066Y-111675066D01*
X130841066Y-111841733D01*
X130874400Y-111908400D01*
X130907733Y-111941733D01*
X130974400Y-111975066D01*
X131174400Y-111975066D01*
X131241066Y-111941733D01*
X131274400Y-111908400D01*
%TO.C,C30*%
X125519600Y-109571600D02*
X125552933Y-109604933D01*
X125652933Y-109638266D01*
X125719600Y-109638266D01*
X125819600Y-109604933D01*
X125886266Y-109538266D01*
X125919600Y-109471600D01*
X125952933Y-109338266D01*
X125952933Y-109238266D01*
X125919600Y-109104933D01*
X125886266Y-109038266D01*
X125819600Y-108971600D01*
X125719600Y-108938266D01*
X125652933Y-108938266D01*
X125552933Y-108971600D01*
X125519600Y-109004933D01*
X125286266Y-108938266D02*
X124852933Y-108938266D01*
X125086266Y-109204933D01*
X124986266Y-109204933D01*
X124919600Y-109238266D01*
X124886266Y-109271600D01*
X124852933Y-109338266D01*
X124852933Y-109504933D01*
X124886266Y-109571600D01*
X124919600Y-109604933D01*
X124986266Y-109638266D01*
X125186266Y-109638266D01*
X125252933Y-109604933D01*
X125286266Y-109571600D01*
X124419600Y-108938266D02*
X124352933Y-108938266D01*
X124286266Y-108971600D01*
X124252933Y-109004933D01*
X124219600Y-109071600D01*
X124186266Y-109204933D01*
X124186266Y-109371600D01*
X124219600Y-109504933D01*
X124252933Y-109571600D01*
X124286266Y-109604933D01*
X124352933Y-109638266D01*
X124419600Y-109638266D01*
X124486266Y-109604933D01*
X124519600Y-109571600D01*
X124552933Y-109504933D01*
X124586266Y-109371600D01*
X124586266Y-109204933D01*
X124552933Y-109071600D01*
X124519600Y-109004933D01*
X124486266Y-108971600D01*
X124419600Y-108938266D01*
%TO.C,R19*%
X134714400Y-116699466D02*
X134947733Y-116366133D01*
X135114400Y-116699466D02*
X135114400Y-115999466D01*
X134847733Y-115999466D01*
X134781066Y-116032800D01*
X134747733Y-116066133D01*
X134714400Y-116132800D01*
X134714400Y-116232800D01*
X134747733Y-116299466D01*
X134781066Y-116332800D01*
X134847733Y-116366133D01*
X135114400Y-116366133D01*
X134047733Y-116699466D02*
X134447733Y-116699466D01*
X134247733Y-116699466D02*
X134247733Y-115999466D01*
X134314400Y-116099466D01*
X134381066Y-116166133D01*
X134447733Y-116199466D01*
X133714400Y-116699466D02*
X133581066Y-116699466D01*
X133514400Y-116666133D01*
X133481066Y-116632800D01*
X133414400Y-116532800D01*
X133381066Y-116399466D01*
X133381066Y-116132800D01*
X133414400Y-116066133D01*
X133447733Y-116032800D01*
X133514400Y-115999466D01*
X133647733Y-115999466D01*
X133714400Y-116032800D01*
X133747733Y-116066133D01*
X133781066Y-116132800D01*
X133781066Y-116299466D01*
X133747733Y-116366133D01*
X133714400Y-116399466D01*
X133647733Y-116432800D01*
X133514400Y-116432800D01*
X133447733Y-116399466D01*
X133414400Y-116366133D01*
X133381066Y-116299466D01*
%TO.C,R26*%
X145888400Y-125437066D02*
X146121733Y-125103733D01*
X146288400Y-125437066D02*
X146288400Y-124737066D01*
X146021733Y-124737066D01*
X145955066Y-124770400D01*
X145921733Y-124803733D01*
X145888400Y-124870400D01*
X145888400Y-124970400D01*
X145921733Y-125037066D01*
X145955066Y-125070400D01*
X146021733Y-125103733D01*
X146288400Y-125103733D01*
X145621733Y-124803733D02*
X145588400Y-124770400D01*
X145521733Y-124737066D01*
X145355066Y-124737066D01*
X145288400Y-124770400D01*
X145255066Y-124803733D01*
X145221733Y-124870400D01*
X145221733Y-124937066D01*
X145255066Y-125037066D01*
X145655066Y-125437066D01*
X145221733Y-125437066D01*
X144621733Y-124737066D02*
X144755066Y-124737066D01*
X144821733Y-124770400D01*
X144855066Y-124803733D01*
X144921733Y-124903733D01*
X144955066Y-125037066D01*
X144955066Y-125303733D01*
X144921733Y-125370400D01*
X144888400Y-125403733D01*
X144821733Y-125437066D01*
X144688400Y-125437066D01*
X144621733Y-125403733D01*
X144588400Y-125370400D01*
X144555066Y-125303733D01*
X144555066Y-125137066D01*
X144588400Y-125070400D01*
X144621733Y-125037066D01*
X144688400Y-125003733D01*
X144821733Y-125003733D01*
X144888400Y-125037066D01*
X144921733Y-125070400D01*
X144955066Y-125137066D01*
%TO.C,U2*%
X129616133Y-106195066D02*
X129616133Y-106761733D01*
X129582800Y-106828400D01*
X129549466Y-106861733D01*
X129482800Y-106895066D01*
X129349466Y-106895066D01*
X129282800Y-106861733D01*
X129249466Y-106828400D01*
X129216133Y-106761733D01*
X129216133Y-106195066D01*
X128916133Y-106261733D02*
X128882800Y-106228400D01*
X128816133Y-106195066D01*
X128649466Y-106195066D01*
X128582800Y-106228400D01*
X128549466Y-106261733D01*
X128516133Y-106328400D01*
X128516133Y-106395066D01*
X128549466Y-106495066D01*
X128949466Y-106895066D01*
X128516133Y-106895066D01*
%TO.C,R18*%
X110330400Y-100545066D02*
X110563733Y-100211733D01*
X110730400Y-100545066D02*
X110730400Y-99845066D01*
X110463733Y-99845066D01*
X110397066Y-99878400D01*
X110363733Y-99911733D01*
X110330400Y-99978400D01*
X110330400Y-100078400D01*
X110363733Y-100145066D01*
X110397066Y-100178400D01*
X110463733Y-100211733D01*
X110730400Y-100211733D01*
X109663733Y-100545066D02*
X110063733Y-100545066D01*
X109863733Y-100545066D02*
X109863733Y-99845066D01*
X109930400Y-99945066D01*
X109997066Y-100011733D01*
X110063733Y-100045066D01*
X109263733Y-100145066D02*
X109330400Y-100111733D01*
X109363733Y-100078400D01*
X109397066Y-100011733D01*
X109397066Y-99978400D01*
X109363733Y-99911733D01*
X109330400Y-99878400D01*
X109263733Y-99845066D01*
X109130400Y-99845066D01*
X109063733Y-99878400D01*
X109030400Y-99911733D01*
X108997066Y-99978400D01*
X108997066Y-100011733D01*
X109030400Y-100078400D01*
X109063733Y-100111733D01*
X109130400Y-100145066D01*
X109263733Y-100145066D01*
X109330400Y-100178400D01*
X109363733Y-100211733D01*
X109397066Y-100278400D01*
X109397066Y-100411733D01*
X109363733Y-100478400D01*
X109330400Y-100511733D01*
X109263733Y-100545066D01*
X109130400Y-100545066D01*
X109063733Y-100511733D01*
X109030400Y-100478400D01*
X108997066Y-100411733D01*
X108997066Y-100278400D01*
X109030400Y-100211733D01*
X109063733Y-100178400D01*
X109130400Y-100145066D01*
%TO.C,U6*%
X111734533Y-102385066D02*
X111734533Y-102951733D01*
X111701200Y-103018400D01*
X111667866Y-103051733D01*
X111601200Y-103085066D01*
X111467866Y-103085066D01*
X111401200Y-103051733D01*
X111367866Y-103018400D01*
X111334533Y-102951733D01*
X111334533Y-102385066D01*
X110701200Y-102385066D02*
X110834533Y-102385066D01*
X110901200Y-102418400D01*
X110934533Y-102451733D01*
X111001200Y-102551733D01*
X111034533Y-102685066D01*
X111034533Y-102951733D01*
X111001200Y-103018400D01*
X110967866Y-103051733D01*
X110901200Y-103085066D01*
X110767866Y-103085066D01*
X110701200Y-103051733D01*
X110667866Y-103018400D01*
X110634533Y-102951733D01*
X110634533Y-102785066D01*
X110667866Y-102718400D01*
X110701200Y-102685066D01*
X110767866Y-102651733D01*
X110901200Y-102651733D01*
X110967866Y-102685066D01*
X111001200Y-102718400D01*
X111034533Y-102785066D01*
%TO.C,C36*%
X118966400Y-119274400D02*
X118999733Y-119307733D01*
X119099733Y-119341066D01*
X119166400Y-119341066D01*
X119266400Y-119307733D01*
X119333066Y-119241066D01*
X119366400Y-119174400D01*
X119399733Y-119041066D01*
X119399733Y-118941066D01*
X119366400Y-118807733D01*
X119333066Y-118741066D01*
X119266400Y-118674400D01*
X119166400Y-118641066D01*
X119099733Y-118641066D01*
X118999733Y-118674400D01*
X118966400Y-118707733D01*
X118733066Y-118641066D02*
X118299733Y-118641066D01*
X118533066Y-118907733D01*
X118433066Y-118907733D01*
X118366400Y-118941066D01*
X118333066Y-118974400D01*
X118299733Y-119041066D01*
X118299733Y-119207733D01*
X118333066Y-119274400D01*
X118366400Y-119307733D01*
X118433066Y-119341066D01*
X118633066Y-119341066D01*
X118699733Y-119307733D01*
X118733066Y-119274400D01*
X117699733Y-118641066D02*
X117833066Y-118641066D01*
X117899733Y-118674400D01*
X117933066Y-118707733D01*
X117999733Y-118807733D01*
X118033066Y-118941066D01*
X118033066Y-119207733D01*
X117999733Y-119274400D01*
X117966400Y-119307733D01*
X117899733Y-119341066D01*
X117766400Y-119341066D01*
X117699733Y-119307733D01*
X117666400Y-119274400D01*
X117633066Y-119207733D01*
X117633066Y-119041066D01*
X117666400Y-118974400D01*
X117699733Y-118941066D01*
X117766400Y-118907733D01*
X117899733Y-118907733D01*
X117966400Y-118941066D01*
X117999733Y-118974400D01*
X118033066Y-119041066D01*
%TO.C,R24*%
X133698400Y-126453066D02*
X133931733Y-126119733D01*
X134098400Y-126453066D02*
X134098400Y-125753066D01*
X133831733Y-125753066D01*
X133765066Y-125786400D01*
X133731733Y-125819733D01*
X133698400Y-125886400D01*
X133698400Y-125986400D01*
X133731733Y-126053066D01*
X133765066Y-126086400D01*
X133831733Y-126119733D01*
X134098400Y-126119733D01*
X133431733Y-125819733D02*
X133398400Y-125786400D01*
X133331733Y-125753066D01*
X133165066Y-125753066D01*
X133098400Y-125786400D01*
X133065066Y-125819733D01*
X133031733Y-125886400D01*
X133031733Y-125953066D01*
X133065066Y-126053066D01*
X133465066Y-126453066D01*
X133031733Y-126453066D01*
X132431733Y-125986400D02*
X132431733Y-126453066D01*
X132598400Y-125719733D02*
X132765066Y-126219733D01*
X132331733Y-126219733D01*
%TO.C,R17*%
X135933600Y-120458666D02*
X136166933Y-120125333D01*
X136333600Y-120458666D02*
X136333600Y-119758666D01*
X136066933Y-119758666D01*
X136000266Y-119792000D01*
X135966933Y-119825333D01*
X135933600Y-119892000D01*
X135933600Y-119992000D01*
X135966933Y-120058666D01*
X136000266Y-120092000D01*
X136066933Y-120125333D01*
X136333600Y-120125333D01*
X135266933Y-120458666D02*
X135666933Y-120458666D01*
X135466933Y-120458666D02*
X135466933Y-119758666D01*
X135533600Y-119858666D01*
X135600266Y-119925333D01*
X135666933Y-119958666D01*
X135033600Y-119758666D02*
X134566933Y-119758666D01*
X134866933Y-120458666D01*
%TO.C,U8*%
X138404533Y-119606266D02*
X138404533Y-120172933D01*
X138371200Y-120239600D01*
X138337866Y-120272933D01*
X138271200Y-120306266D01*
X138137866Y-120306266D01*
X138071200Y-120272933D01*
X138037866Y-120239600D01*
X138004533Y-120172933D01*
X138004533Y-119606266D01*
X137571200Y-119906266D02*
X137637866Y-119872933D01*
X137671200Y-119839600D01*
X137704533Y-119772933D01*
X137704533Y-119739600D01*
X137671200Y-119672933D01*
X137637866Y-119639600D01*
X137571200Y-119606266D01*
X137437866Y-119606266D01*
X137371200Y-119639600D01*
X137337866Y-119672933D01*
X137304533Y-119739600D01*
X137304533Y-119772933D01*
X137337866Y-119839600D01*
X137371200Y-119872933D01*
X137437866Y-119906266D01*
X137571200Y-119906266D01*
X137637866Y-119939600D01*
X137671200Y-119972933D01*
X137704533Y-120039600D01*
X137704533Y-120172933D01*
X137671200Y-120239600D01*
X137637866Y-120272933D01*
X137571200Y-120306266D01*
X137437866Y-120306266D01*
X137371200Y-120272933D01*
X137337866Y-120239600D01*
X137304533Y-120172933D01*
X137304533Y-120039600D01*
X137337866Y-119972933D01*
X137371200Y-119939600D01*
X137437866Y-119906266D01*
%TO.C,C7*%
X133415866Y-101392800D02*
X133449200Y-101426133D01*
X133549200Y-101459466D01*
X133615866Y-101459466D01*
X133715866Y-101426133D01*
X133782533Y-101359466D01*
X133815866Y-101292800D01*
X133849200Y-101159466D01*
X133849200Y-101059466D01*
X133815866Y-100926133D01*
X133782533Y-100859466D01*
X133715866Y-100792800D01*
X133615866Y-100759466D01*
X133549200Y-100759466D01*
X133449200Y-100792800D01*
X133415866Y-100826133D01*
X133182533Y-100759466D02*
X132715866Y-100759466D01*
X133015866Y-101459466D01*
%TO.C,D4*%
X108009466Y-112229066D02*
X108009466Y-111529066D01*
X107842800Y-111529066D01*
X107742800Y-111562400D01*
X107676133Y-111629066D01*
X107642800Y-111695733D01*
X107609466Y-111829066D01*
X107609466Y-111929066D01*
X107642800Y-112062400D01*
X107676133Y-112129066D01*
X107742800Y-112195733D01*
X107842800Y-112229066D01*
X108009466Y-112229066D01*
X107009466Y-111762400D02*
X107009466Y-112229066D01*
X107176133Y-111495733D02*
X107342800Y-111995733D01*
X106909466Y-111995733D01*
%TO.C,C12*%
X129893600Y-101194780D02*
X129893600Y-100913620D01*
X130913600Y-101194780D02*
X130913600Y-100913620D01*
%TO.C,kibuzzard-62BD8C64*%
G36*
X112580420Y-118618000D02*
G01*
X112815793Y-118264940D01*
X113056670Y-118264940D01*
X113245900Y-118264940D01*
X113245900Y-119081550D01*
X113388140Y-119081550D01*
X113388140Y-118840250D01*
X113698020Y-118840250D01*
X113708942Y-118931690D01*
X113741708Y-119002810D01*
X113796318Y-119053610D01*
X113872772Y-119084090D01*
X113971070Y-119094250D01*
X114049810Y-119087477D01*
X114070802Y-119081550D01*
X114298730Y-119081550D01*
X114444780Y-119081550D01*
X114518440Y-118814850D01*
X114539236Y-118757224D01*
X114563525Y-118721505D01*
X114640360Y-118696740D01*
X114689890Y-118696740D01*
X114689890Y-119081550D01*
X114832130Y-119081550D01*
X114832130Y-118167150D01*
X114761292Y-118153039D01*
X114689326Y-118144572D01*
X114616230Y-118141750D01*
X114524437Y-118149158D01*
X114450566Y-118171383D01*
X114394615Y-118208425D01*
X114355457Y-118261412D01*
X114331962Y-118331474D01*
X114324130Y-118418610D01*
X114333020Y-118501636D01*
X114359690Y-118569105D01*
X114404140Y-118621016D01*
X114466370Y-118657370D01*
X114466370Y-118659910D01*
X114418110Y-118722775D01*
X114377470Y-118822470D01*
X114298730Y-119081550D01*
X114070802Y-119081550D01*
X114121777Y-119067157D01*
X114186970Y-119033290D01*
X114186970Y-118901210D01*
X114119942Y-118947071D01*
X114049246Y-118974588D01*
X113974880Y-118983760D01*
X113918365Y-118975029D01*
X113875820Y-118948835D01*
X113849150Y-118905814D01*
X113840260Y-118846600D01*
X113847086Y-118790085D01*
X113867565Y-118745000D01*
X113903919Y-118707853D01*
X113958370Y-118675150D01*
X114036193Y-118634510D01*
X114096941Y-118592177D01*
X114140615Y-118548150D01*
X114180144Y-118473220D01*
X114193320Y-118383050D01*
X114176651Y-118281450D01*
X114126645Y-118205250D01*
X114075916Y-118169972D01*
X114012627Y-118148806D01*
X113936780Y-118141750D01*
X113862838Y-118145983D01*
X113791718Y-118158683D01*
X113723420Y-118179850D01*
X113723420Y-118306850D01*
X113821527Y-118265892D01*
X113920270Y-118252240D01*
X113975832Y-118260495D01*
X114018060Y-118285260D01*
X114044730Y-118324630D01*
X114053620Y-118376700D01*
X114042331Y-118441188D01*
X114008464Y-118492411D01*
X113952020Y-118530370D01*
X113865519Y-118573973D01*
X113799056Y-118618423D01*
X113752630Y-118663720D01*
X113711672Y-118742143D01*
X113698020Y-118840250D01*
X113388140Y-118840250D01*
X113388140Y-118264940D01*
X113577370Y-118264940D01*
X113577370Y-118154450D01*
X113056670Y-118154450D01*
X113056670Y-118264940D01*
X112815793Y-118264940D01*
X113003753Y-117983000D01*
X114885047Y-117983000D01*
X115308380Y-118618000D01*
X114885047Y-119253000D01*
X113003753Y-119253000D01*
X112580420Y-118618000D01*
G37*
G36*
X114689890Y-118262400D02*
G01*
X114689890Y-118586250D01*
X114640360Y-118586250D01*
X114557810Y-118576725D01*
X114503200Y-118548150D01*
X114472720Y-118496715D01*
X114462560Y-118418610D01*
X114472085Y-118343839D01*
X114500660Y-118292245D01*
X114548603Y-118262241D01*
X114616230Y-118252240D01*
X114689890Y-118262400D01*
G37*
%TO.C,C5*%
X129944400Y-107911020D02*
X129944400Y-108192180D01*
X130964400Y-107911020D02*
X130964400Y-108192180D01*
%TO.C,U1*%
X135969200Y-103007600D02*
X136769200Y-103007600D01*
X135969200Y-99887600D02*
X136769200Y-99887600D01*
X135969200Y-99887600D02*
X135169200Y-99887600D01*
X135969200Y-103007600D02*
X134169200Y-103007600D01*
%TO.C,kibuzzard-62BD8A5E*%
G36*
X108829971Y-115604925D02*
G01*
X110829229Y-115604925D01*
X110829229Y-117160675D01*
X108829971Y-117160675D01*
X108829971Y-116962237D01*
X109602588Y-116962237D01*
X109780388Y-116962237D01*
X109780388Y-115970050D01*
X109783563Y-115968462D01*
X110056613Y-116120862D01*
X110056613Y-115965287D01*
X109778800Y-115803363D01*
X109602588Y-115803363D01*
X109602588Y-116962237D01*
X108829971Y-116962237D01*
X108829971Y-115604925D01*
G37*
%TO.C,U13*%
X120006800Y-117265600D02*
X119106800Y-117265600D01*
X123426800Y-117265600D02*
X124326800Y-117265600D01*
X124326800Y-117265600D02*
X124326800Y-116365600D01*
X119106800Y-112045600D02*
X119106800Y-112945600D01*
X123426800Y-112045600D02*
X124326800Y-112045600D01*
X119106800Y-117265600D02*
X119106800Y-116365600D01*
X120006800Y-112045600D02*
X119106800Y-112045600D01*
%TO.C,R25*%
X143612841Y-124586000D02*
X143305559Y-124586000D01*
X143612841Y-123826000D02*
X143305559Y-123826000D01*
%TO.C,R13*%
X107821759Y-101497400D02*
X108129041Y-101497400D01*
X107821759Y-100737400D02*
X108129041Y-100737400D01*
%TO.C,C27*%
X143565036Y-123651600D02*
X143349364Y-123651600D01*
X143565036Y-122931600D02*
X143349364Y-122931600D01*
%TO.C,R28*%
X133094759Y-124687600D02*
X133402041Y-124687600D01*
X133094759Y-123927600D02*
X133402041Y-123927600D01*
%TO.C,kibuzzard-62BD8846*%
G36*
X125681105Y-99898200D02*
G01*
X127099695Y-99898200D01*
X127099695Y-101168200D01*
X125681105Y-101168200D01*
X125681105Y-100702110D01*
X125839855Y-100702110D01*
X125847193Y-100801734D01*
X125869206Y-100880474D01*
X125905895Y-100938330D01*
X125958529Y-100977841D01*
X126028379Y-101001548D01*
X126115445Y-101009450D01*
X126209742Y-100999925D01*
X126219443Y-100996750D01*
X126483745Y-100996750D01*
X126940945Y-100996750D01*
X126940945Y-100886260D01*
X126859406Y-100791477D01*
X126790411Y-100700892D01*
X126733961Y-100614506D01*
X126690055Y-100532319D01*
X126658694Y-100454330D01*
X126639877Y-100380541D01*
X126633605Y-100310950D01*
X126640431Y-100246180D01*
X126660910Y-100201730D01*
X126744095Y-100167440D01*
X126803785Y-100175766D01*
X126869402Y-100200742D01*
X126940945Y-100242370D01*
X126940945Y-100122990D01*
X126870672Y-100086301D01*
X126795318Y-100064288D01*
X126714885Y-100056950D01*
X126618524Y-100072666D01*
X126547880Y-100119815D01*
X126504541Y-100197444D01*
X126490095Y-100304600D01*
X126498068Y-100385033D01*
X126521986Y-100470547D01*
X126561850Y-100561140D01*
X126603244Y-100633689D01*
X126655671Y-100711635D01*
X126719132Y-100794979D01*
X126793625Y-100883720D01*
X126793625Y-100886260D01*
X126483745Y-100886260D01*
X126483745Y-100996750D01*
X126219443Y-100996750D01*
X126297055Y-100971350D01*
X126297055Y-100850700D01*
X126210377Y-100886895D01*
X126125605Y-100898960D01*
X126060835Y-100888006D01*
X126016385Y-100855145D01*
X125990668Y-100794979D01*
X125982095Y-100702110D01*
X125988127Y-100614004D01*
X126006225Y-100555425D01*
X126081155Y-100511610D01*
X126129732Y-100524310D01*
X126173865Y-100562410D01*
X126290705Y-100562410D01*
X126278005Y-100069650D01*
X125865255Y-100069650D01*
X125865255Y-100178870D01*
X126148465Y-100178870D01*
X126157355Y-100435410D01*
X126154815Y-100435410D01*
X126103380Y-100411598D01*
X126043055Y-100403660D01*
X125969903Y-100415598D01*
X125913007Y-100451412D01*
X125872367Y-100511102D01*
X125847983Y-100594668D01*
X125839855Y-100702110D01*
X125681105Y-100702110D01*
X125681105Y-99898200D01*
G37*
%TO.C,kibuzzard-62BD8C8D*%
G36*
X115766215Y-100785930D02*
G01*
X115766215Y-101053900D01*
X115729385Y-101053900D01*
X115654455Y-101045169D01*
X115602385Y-101018975D01*
X115571905Y-100973414D01*
X115561745Y-100906580D01*
X115577408Y-100833908D01*
X115624398Y-100790304D01*
X115702715Y-100775770D01*
X115766215Y-100785930D01*
G37*
G36*
X114465417Y-100796566D02*
G01*
X114510185Y-100855145D01*
X114529235Y-100921820D01*
X114540665Y-101017705D01*
X114544475Y-101142800D01*
X114540665Y-101267895D01*
X114529235Y-101363780D01*
X114510185Y-101430455D01*
X114465417Y-101489034D01*
X114399695Y-101508560D01*
X114333972Y-101489034D01*
X114289205Y-101430455D01*
X114270155Y-101363780D01*
X114258725Y-101267895D01*
X114254915Y-101142800D01*
X114258725Y-101017705D01*
X114270155Y-100921820D01*
X114289205Y-100855145D01*
X114333972Y-100796566D01*
X114399695Y-100777040D01*
X114465417Y-100796566D01*
G37*
G36*
X115766215Y-101499670D02*
G01*
X115695095Y-101509830D01*
X115626356Y-101499511D01*
X115577620Y-101468555D01*
X115548569Y-101415056D01*
X115538885Y-101337110D01*
X115549363Y-101258053D01*
X115580795Y-101203760D01*
X115634770Y-101172327D01*
X115712875Y-101161850D01*
X115766215Y-101161850D01*
X115766215Y-101499670D01*
G37*
G36*
X113028095Y-101142800D02*
G01*
X113263468Y-100789740D01*
X113504345Y-100789740D01*
X113693575Y-100789740D01*
X113693575Y-101606350D01*
X113835815Y-101606350D01*
X113835815Y-101142800D01*
X114120295Y-101142800D01*
X114123752Y-101253996D01*
X114134124Y-101348822D01*
X114151410Y-101427280D01*
X114189669Y-101517133D01*
X114242215Y-101575870D01*
X114311430Y-101608255D01*
X114399695Y-101619050D01*
X114487960Y-101608255D01*
X114557175Y-101575870D01*
X114609721Y-101517133D01*
X114647980Y-101427280D01*
X114665266Y-101348822D01*
X114675638Y-101253996D01*
X114679095Y-101142800D01*
X114755295Y-101142800D01*
X114758752Y-101253996D01*
X114769124Y-101348822D01*
X114786410Y-101427280D01*
X114824669Y-101517133D01*
X114877215Y-101575870D01*
X114946430Y-101608255D01*
X115034695Y-101619050D01*
X115122960Y-101608255D01*
X115192175Y-101575870D01*
X115244721Y-101517133D01*
X115282980Y-101427280D01*
X115300266Y-101348822D01*
X115301269Y-101339650D01*
X115400455Y-101339650D01*
X115408639Y-101425022D01*
X115433193Y-101494872D01*
X115474115Y-101549200D01*
X115531406Y-101588006D01*
X115605066Y-101611289D01*
X115695095Y-101619050D01*
X115767344Y-101616228D01*
X115838464Y-101607761D01*
X115908455Y-101593650D01*
X115908455Y-100691950D01*
X115807490Y-100672900D01*
X115702715Y-100666550D01*
X115603045Y-100675796D01*
X115525525Y-100703532D01*
X115470153Y-100749760D01*
X115436929Y-100814480D01*
X115425855Y-100897690D01*
X115435856Y-100969445D01*
X115465860Y-101029770D01*
X115512374Y-101074855D01*
X115571905Y-101100890D01*
X115571905Y-101102160D01*
X115504436Y-101129148D01*
X115449350Y-101182170D01*
X115412679Y-101254560D01*
X115400455Y-101339650D01*
X115301269Y-101339650D01*
X115310638Y-101253996D01*
X115314095Y-101142800D01*
X115310638Y-101031604D01*
X115300266Y-100936778D01*
X115282980Y-100858320D01*
X115244721Y-100768468D01*
X115192175Y-100709730D01*
X115122960Y-100677345D01*
X115034695Y-100666550D01*
X114946430Y-100677345D01*
X114877215Y-100709730D01*
X114824669Y-100768468D01*
X114786410Y-100858320D01*
X114769124Y-100936778D01*
X114758752Y-101031604D01*
X114755295Y-101142800D01*
X114679095Y-101142800D01*
X114675638Y-101031604D01*
X114665266Y-100936778D01*
X114647980Y-100858320D01*
X114609721Y-100768468D01*
X114557175Y-100709730D01*
X114487960Y-100677345D01*
X114399695Y-100666550D01*
X114311430Y-100677345D01*
X114242215Y-100709730D01*
X114189669Y-100768468D01*
X114151410Y-100858320D01*
X114134124Y-100936778D01*
X114123752Y-101031604D01*
X114120295Y-101142800D01*
X113835815Y-101142800D01*
X113835815Y-100789740D01*
X114025045Y-100789740D01*
X114025045Y-100679250D01*
X113504345Y-100679250D01*
X113504345Y-100789740D01*
X113263468Y-100789740D01*
X113451428Y-100507800D01*
X115961372Y-100507800D01*
X116384705Y-101142800D01*
X115961372Y-101777800D01*
X113451428Y-101777800D01*
X113028095Y-101142800D01*
G37*
G36*
X115100417Y-100796566D02*
G01*
X115145185Y-100855145D01*
X115164235Y-100921820D01*
X115175665Y-101017705D01*
X115179475Y-101142800D01*
X115175665Y-101267895D01*
X115164235Y-101363780D01*
X115145185Y-101430455D01*
X115100417Y-101489034D01*
X115034695Y-101508560D01*
X114968973Y-101489034D01*
X114924205Y-101430455D01*
X114905155Y-101363780D01*
X114893725Y-101267895D01*
X114889915Y-101142800D01*
X114893725Y-101017705D01*
X114905155Y-100921820D01*
X114924205Y-100855145D01*
X114968973Y-100796566D01*
X115034695Y-100777040D01*
X115100417Y-100796566D01*
G37*
%TO.C,C10*%
X131366800Y-101194780D02*
X131366800Y-100913620D01*
X132386800Y-101194780D02*
X132386800Y-100913620D01*
%TO.C,C6*%
X129944400Y-104331380D02*
X129944400Y-104050220D01*
X130964400Y-104331380D02*
X130964400Y-104050220D01*
%TO.C,kibuzzard-62BB2232*%
G36*
X120023255Y-98247200D02*
G01*
X120031722Y-98234500D01*
X120499505Y-98234500D01*
X120503668Y-98349506D01*
X120516156Y-98447296D01*
X120536970Y-98527870D01*
X120582849Y-98619786D01*
X120645555Y-98679635D01*
X120728105Y-98712496D01*
X120833515Y-98723450D01*
X120937337Y-98717100D01*
X120969193Y-98710750D01*
X121175145Y-98710750D01*
X121317385Y-98710750D01*
X121515505Y-98037650D01*
X121518045Y-98037650D01*
X121518045Y-98710750D01*
X121657745Y-98710750D01*
X121657745Y-98679000D01*
X121791095Y-98679000D01*
X121859111Y-98703694D01*
X121931077Y-98718511D01*
X122006995Y-98723450D01*
X122081409Y-98715909D01*
X122145901Y-98693287D01*
X122200472Y-98655584D01*
X122245120Y-98602800D01*
X122279847Y-98534934D01*
X122304651Y-98451988D01*
X122319534Y-98353959D01*
X122324495Y-98240850D01*
X122319137Y-98127106D01*
X122303064Y-98029713D01*
X122276275Y-97948671D01*
X122238770Y-97883980D01*
X122172095Y-97821186D01*
X122086370Y-97783509D01*
X121981595Y-97770950D01*
X121900632Y-97777935D01*
X121822845Y-97798890D01*
X121822845Y-97913190D01*
X121903808Y-97890330D01*
X121981595Y-97882710D01*
X122072083Y-97902871D01*
X122135265Y-97963355D01*
X122162782Y-98030030D01*
X122179292Y-98122528D01*
X122184795Y-98240850D01*
X122179574Y-98361923D01*
X122163911Y-98457597D01*
X122137805Y-98527870D01*
X122080655Y-98592640D01*
X122003185Y-98614230D01*
X121926985Y-98598990D01*
X121926985Y-98266250D01*
X122087005Y-98266250D01*
X122087005Y-98158300D01*
X121791095Y-98158300D01*
X121791095Y-98679000D01*
X121657745Y-98679000D01*
X121657745Y-97783650D01*
X121510425Y-97783650D01*
X121312305Y-98456750D01*
X121308495Y-98456750D01*
X121308495Y-97783650D01*
X121175145Y-97783650D01*
X121175145Y-98710750D01*
X120969193Y-98710750D01*
X121032905Y-98698050D01*
X121032905Y-97796350D01*
X120933528Y-97777300D01*
X120833515Y-97770950D01*
X120726059Y-97782451D01*
X120640757Y-97816952D01*
X120577610Y-97874455D01*
X120543439Y-97935772D01*
X120519031Y-98016219D01*
X120504387Y-98115795D01*
X120499505Y-98234500D01*
X120031722Y-98234500D01*
X120446588Y-97612200D01*
X122377412Y-97612200D01*
X122800745Y-98247200D01*
X122377412Y-98882200D01*
X120446588Y-98882200D01*
X120023255Y-98247200D01*
G37*
G36*
X120890665Y-97892870D02*
G01*
X120890665Y-98602800D01*
X120833515Y-98614230D01*
X120744774Y-98593910D01*
X120684290Y-98532950D01*
X120658537Y-98463664D01*
X120643086Y-98364181D01*
X120637935Y-98234500D01*
X120643156Y-98117096D01*
X120658819Y-98025656D01*
X120684925Y-97960180D01*
X120745568Y-97901125D01*
X120833515Y-97881440D01*
X120890665Y-97892870D01*
G37*
%TO.C,Q1*%
X107071600Y-115925600D02*
X107071600Y-115275600D01*
X107071600Y-115925600D02*
X107071600Y-116575600D01*
X103951600Y-115925600D02*
X103951600Y-114250600D01*
X103951600Y-115925600D02*
X103951600Y-116575600D01*
%TO.C,C34*%
X133356236Y-123753200D02*
X133140564Y-123753200D01*
X133356236Y-123033200D02*
X133140564Y-123033200D01*
%TO.C,U3*%
X127711200Y-105954000D02*
X128361200Y-105954000D01*
X127711200Y-102834000D02*
X127061200Y-102834000D01*
X127711200Y-105954000D02*
X126036200Y-105954000D01*
X127711200Y-102834000D02*
X128361200Y-102834000D01*
%TO.C,C31*%
X126090000Y-111918636D02*
X126090000Y-111702964D01*
X125370000Y-111918636D02*
X125370000Y-111702964D01*
%TO.C,kibuzzard-62BD8821*%
G36*
X118449725Y-101523800D02*
G01*
X119903875Y-101523800D01*
X119903875Y-102793800D01*
X118449725Y-102793800D01*
X118449725Y-102307390D01*
X118608475Y-102307390D01*
X118615319Y-102413858D01*
X118635851Y-102497890D01*
X118670070Y-102559485D01*
X118718542Y-102601466D01*
X118781830Y-102626654D01*
X118859935Y-102635050D01*
X118939786Y-102626160D01*
X119001540Y-102599490D01*
X119048054Y-102549643D01*
X119082185Y-102471220D01*
X119097707Y-102401652D01*
X119102742Y-102355650D01*
X119256175Y-102355650D01*
X119264113Y-102441022D01*
X119287925Y-102510872D01*
X119327613Y-102565200D01*
X119383175Y-102604006D01*
X119454613Y-102627289D01*
X119541925Y-102635050D01*
X119645430Y-102624890D01*
X119745125Y-102594410D01*
X119745125Y-102472490D01*
X119652733Y-102511543D01*
X119558435Y-102524560D01*
X119488426Y-102513606D01*
X119438420Y-102480745D01*
X119408416Y-102425976D01*
X119398415Y-102349300D01*
X119409845Y-102273894D01*
X119444135Y-102222935D01*
X119506365Y-102193884D01*
X119601615Y-102184200D01*
X119627015Y-102184200D01*
X119627015Y-102072440D01*
X119601615Y-102072440D01*
X119513033Y-102062915D01*
X119453025Y-102034340D01*
X119418735Y-101985127D01*
X119407305Y-101913690D01*
X119421981Y-101845957D01*
X119466007Y-101805317D01*
X119539385Y-101791770D01*
X119628920Y-101805105D01*
X119727345Y-101845110D01*
X119727345Y-101727000D01*
X119653967Y-101702306D01*
X119582847Y-101687489D01*
X119513985Y-101682550D01*
X119409527Y-101696679D01*
X119332375Y-101739065D01*
X119284750Y-101806534D01*
X119268875Y-101895910D01*
X119278400Y-101977269D01*
X119306975Y-102042278D01*
X119354600Y-102090934D01*
X119421275Y-102123240D01*
X119421275Y-102124510D01*
X119349044Y-102150863D01*
X119297450Y-102198170D01*
X119266494Y-102266433D01*
X119256175Y-102355650D01*
X119102742Y-102355650D01*
X119107021Y-102316562D01*
X119110125Y-102215950D01*
X119108141Y-102119668D01*
X119102187Y-102034023D01*
X119092266Y-101959013D01*
X119078375Y-101894640D01*
X119039323Y-101794310D01*
X118985665Y-101729540D01*
X118914862Y-101694298D01*
X118824375Y-101682550D01*
X118743412Y-101688900D01*
X118665625Y-101707950D01*
X118665625Y-101828600D01*
X118735792Y-101801930D01*
X118809135Y-101793040D01*
X118878826Y-101806692D01*
X118925340Y-101847650D01*
X118945448Y-101895204D01*
X118959207Y-101965054D01*
X118966615Y-102057200D01*
X118964075Y-102057200D01*
X118898670Y-102016243D01*
X118826915Y-102002590D01*
X118728173Y-102020053D01*
X118660545Y-102072440D01*
X118631617Y-102129590D01*
X118614261Y-102207907D01*
X118608475Y-102307390D01*
X118449725Y-102307390D01*
X118449725Y-101523800D01*
G37*
G36*
X118903274Y-102122764D02*
G01*
X118939310Y-102155625D01*
X118960741Y-102214204D01*
X118967885Y-102302310D01*
X118961376Y-102408831D01*
X118941850Y-102476935D01*
X118908354Y-102513606D01*
X118859935Y-102525830D01*
X118808659Y-102514559D01*
X118774210Y-102480745D01*
X118754684Y-102414864D01*
X118748175Y-102307390D01*
X118754049Y-102211505D01*
X118771670Y-102152450D01*
X118852315Y-102111810D01*
X118903274Y-102122764D01*
G37*
%TO.C,kibuzzard-62BB2232*%
G36*
X120941465Y-101804470D02*
G01*
X120941465Y-102514400D01*
X120884315Y-102525830D01*
X120795574Y-102505510D01*
X120735090Y-102444550D01*
X120709337Y-102375264D01*
X120693886Y-102275781D01*
X120688735Y-102146100D01*
X120693956Y-102028696D01*
X120709619Y-101937256D01*
X120735725Y-101871780D01*
X120796368Y-101812725D01*
X120884315Y-101793040D01*
X120941465Y-101804470D01*
G37*
G36*
X120074055Y-102158800D02*
G01*
X120082522Y-102146100D01*
X120550305Y-102146100D01*
X120554468Y-102261106D01*
X120566956Y-102358896D01*
X120587770Y-102439470D01*
X120633649Y-102531386D01*
X120696355Y-102591235D01*
X120778905Y-102624096D01*
X120884315Y-102635050D01*
X120988137Y-102628700D01*
X121019993Y-102622350D01*
X121225945Y-102622350D01*
X121368185Y-102622350D01*
X121566305Y-101949250D01*
X121568845Y-101949250D01*
X121568845Y-102622350D01*
X121708545Y-102622350D01*
X121708545Y-102590600D01*
X121841895Y-102590600D01*
X121909911Y-102615294D01*
X121981877Y-102630111D01*
X122057795Y-102635050D01*
X122132209Y-102627509D01*
X122196701Y-102604887D01*
X122251272Y-102567184D01*
X122295920Y-102514400D01*
X122330647Y-102446534D01*
X122355451Y-102363588D01*
X122370334Y-102265559D01*
X122375295Y-102152450D01*
X122369937Y-102038706D01*
X122353864Y-101941313D01*
X122327075Y-101860271D01*
X122289570Y-101795580D01*
X122222895Y-101732786D01*
X122137170Y-101695109D01*
X122032395Y-101682550D01*
X121951432Y-101689535D01*
X121873645Y-101710490D01*
X121873645Y-101824790D01*
X121954608Y-101801930D01*
X122032395Y-101794310D01*
X122122883Y-101814471D01*
X122186065Y-101874955D01*
X122213582Y-101941630D01*
X122230092Y-102034128D01*
X122235595Y-102152450D01*
X122230374Y-102273523D01*
X122214711Y-102369197D01*
X122188605Y-102439470D01*
X122131455Y-102504240D01*
X122053985Y-102525830D01*
X121977785Y-102510590D01*
X121977785Y-102177850D01*
X122137805Y-102177850D01*
X122137805Y-102069900D01*
X121841895Y-102069900D01*
X121841895Y-102590600D01*
X121708545Y-102590600D01*
X121708545Y-101695250D01*
X121561225Y-101695250D01*
X121363105Y-102368350D01*
X121359295Y-102368350D01*
X121359295Y-101695250D01*
X121225945Y-101695250D01*
X121225945Y-102622350D01*
X121019993Y-102622350D01*
X121083705Y-102609650D01*
X121083705Y-101707950D01*
X120984328Y-101688900D01*
X120884315Y-101682550D01*
X120776859Y-101694051D01*
X120691557Y-101728552D01*
X120628410Y-101786055D01*
X120594239Y-101847372D01*
X120569831Y-101927819D01*
X120555187Y-102027395D01*
X120550305Y-102146100D01*
X120082522Y-102146100D01*
X120497388Y-101523800D01*
X122428212Y-101523800D01*
X122851545Y-102158800D01*
X122428212Y-102793800D01*
X120497388Y-102793800D01*
X120074055Y-102158800D01*
G37*
%TO.C,C35*%
X129990964Y-120086800D02*
X130206636Y-120086800D01*
X129990964Y-120806800D02*
X130206636Y-120806800D01*
%TO.C,Q2*%
X103900800Y-107391200D02*
X103900800Y-105716200D01*
X107020800Y-107391200D02*
X107020800Y-108041200D01*
X107020800Y-107391200D02*
X107020800Y-106741200D01*
X103900800Y-107391200D02*
X103900800Y-108041200D01*
%TO.C,Q3*%
X140072400Y-112042400D02*
X136942400Y-112042400D01*
X139402400Y-115642400D02*
X136942400Y-115642400D01*
%TO.C,D3*%
X104811600Y-112709400D02*
X106661600Y-112709400D01*
X106661600Y-112709400D02*
X106661600Y-113909400D01*
X104811600Y-113909400D02*
X106661600Y-113909400D01*
%TO.C,D6*%
X104760800Y-103952600D02*
X106610800Y-103952600D01*
X104760800Y-102752600D02*
X106610800Y-102752600D01*
X106610800Y-102752600D02*
X106610800Y-103952600D01*
%TO.C,R31*%
X127176200Y-114530136D02*
X127176200Y-114984264D01*
X125706200Y-114530136D02*
X125706200Y-114984264D01*
%TO.C,R29*%
X140377142Y-127696700D02*
X140851658Y-127696700D01*
X140377142Y-128741700D02*
X140851658Y-128741700D01*
%TO.C,C33*%
X133356236Y-122584800D02*
X133140564Y-122584800D01*
X133356236Y-121864800D02*
X133140564Y-121864800D01*
%TO.C,R30*%
X136330458Y-127747500D02*
X135855942Y-127747500D01*
X136330458Y-128792500D02*
X135855942Y-128792500D01*
%TO.C,R20*%
X105614441Y-101804200D02*
X105307159Y-101804200D01*
X105614441Y-102564200D02*
X105307159Y-102564200D01*
%TO.C,R2*%
X134697959Y-99389200D02*
X135005241Y-99389200D01*
X134697959Y-98629200D02*
X135005241Y-98629200D01*
%TO.C,C28*%
X133140564Y-121670400D02*
X133356236Y-121670400D01*
X133140564Y-120950400D02*
X133356236Y-120950400D01*
%TO.C,kibuzzard-62BB2156*%
G36*
X116158962Y-115420775D02*
G01*
X118537038Y-115420775D01*
X118537038Y-116532025D01*
X116158962Y-116532025D01*
X116158962Y-115667473D01*
X116297869Y-115667473D01*
X116326583Y-115737317D01*
X116354446Y-115809548D01*
X116381459Y-115884166D01*
X116407622Y-115961172D01*
X116432934Y-116040564D01*
X116457395Y-116122344D01*
X116481005Y-116206511D01*
X116503766Y-116293065D01*
X116525675Y-116382006D01*
X116655691Y-116382006D01*
X116937949Y-116382006D01*
X117062409Y-116382006D01*
X117062409Y-116170869D01*
X117392450Y-116170869D01*
X117402007Y-116250879D01*
X117430677Y-116313109D01*
X117478461Y-116357559D01*
X117545358Y-116384229D01*
X117631369Y-116393119D01*
X117700266Y-116387192D01*
X117763237Y-116369412D01*
X117820281Y-116339779D01*
X117820281Y-116224209D01*
X117761632Y-116264337D01*
X117699772Y-116288414D01*
X117634702Y-116296440D01*
X117585252Y-116288800D01*
X117548025Y-116265881D01*
X117524689Y-116228237D01*
X117516910Y-116176425D01*
X117522883Y-116126974D01*
X117540802Y-116087525D01*
X117572611Y-116055021D01*
X117620256Y-116026406D01*
X117688351Y-115990846D01*
X117741506Y-115953805D01*
X117779721Y-115915281D01*
X117814308Y-115849718D01*
X117816419Y-115835271D01*
X117970300Y-115835271D01*
X118089204Y-115835271D01*
X118089204Y-115661916D01*
X118114762Y-115657471D01*
X118163997Y-115666022D01*
X118204280Y-115691673D01*
X118235611Y-115734425D01*
X118257990Y-115794278D01*
X118271418Y-115871233D01*
X118275894Y-115965288D01*
X118270955Y-116066813D01*
X118256138Y-116149878D01*
X118231444Y-116214485D01*
X118196872Y-116260633D01*
X118152422Y-116288322D01*
X118098094Y-116297551D01*
X118039197Y-116288939D01*
X117975856Y-116263103D01*
X117975856Y-116365338D01*
X118042809Y-116386173D01*
X118116985Y-116393119D01*
X118182879Y-116386434D01*
X118239986Y-116366379D01*
X118288308Y-116332955D01*
X118327845Y-116286161D01*
X118358595Y-116225997D01*
X118380560Y-116152464D01*
X118393738Y-116065560D01*
X118398131Y-115965288D01*
X118393790Y-115870224D01*
X118380768Y-115787835D01*
X118359064Y-115718121D01*
X118328678Y-115661083D01*
X118289611Y-115616720D01*
X118241862Y-115585032D01*
X118185431Y-115566019D01*
X118120319Y-115559681D01*
X118041142Y-115565793D01*
X117970300Y-115584129D01*
X117970300Y-115835271D01*
X117816419Y-115835271D01*
X117825837Y-115770819D01*
X117811252Y-115681919D01*
X117767497Y-115615244D01*
X117723109Y-115584376D01*
X117667731Y-115565855D01*
X117601365Y-115559681D01*
X117536666Y-115563385D01*
X117474436Y-115574498D01*
X117414675Y-115593019D01*
X117414675Y-115704144D01*
X117500519Y-115668306D01*
X117586919Y-115656360D01*
X117635536Y-115663583D01*
X117672485Y-115685253D01*
X117695821Y-115719701D01*
X117703600Y-115765263D01*
X117693722Y-115821689D01*
X117664089Y-115866510D01*
X117614700Y-115899724D01*
X117539012Y-115937877D01*
X117480856Y-115976770D01*
X117440234Y-116016405D01*
X117404396Y-116085025D01*
X117392450Y-116170869D01*
X117062409Y-116170869D01*
X117062409Y-115687475D01*
X117064631Y-115686364D01*
X117255766Y-115793044D01*
X117255766Y-115684141D01*
X117061297Y-115570794D01*
X116937949Y-115570794D01*
X116937949Y-116382006D01*
X116655691Y-116382006D01*
X116632849Y-116296385D01*
X116608772Y-116212383D01*
X116583460Y-116129999D01*
X116556913Y-116049235D01*
X116529132Y-115970089D01*
X116500116Y-115892562D01*
X116469866Y-115816654D01*
X116438380Y-115742365D01*
X116405660Y-115669695D01*
X116405660Y-115667473D01*
X116709031Y-115667473D01*
X116709031Y-115570794D01*
X116297869Y-115570794D01*
X116297869Y-115667473D01*
X116158962Y-115667473D01*
X116158962Y-115420775D01*
G37*
%TO.C,U11*%
X127726000Y-114350800D02*
X127726000Y-115150800D01*
X127726000Y-114350800D02*
X127726000Y-112550800D01*
X130846000Y-114350800D02*
X130846000Y-113550800D01*
X130846000Y-114350800D02*
X130846000Y-115150800D01*
%TO.C,kibuzzard-62BD8A50*%
G36*
X108829971Y-109747050D02*
G01*
X110829229Y-109747050D01*
X110829229Y-111334550D01*
X108829971Y-111334550D01*
X108829971Y-110786863D01*
X109524006Y-110786863D01*
X109533928Y-110893578D01*
X109563694Y-110980890D01*
X109613303Y-111048800D01*
X109682756Y-111097307D01*
X109772053Y-111126411D01*
X109881194Y-111136113D01*
X110010575Y-111123413D01*
X110135194Y-111085313D01*
X110135194Y-110932913D01*
X110019703Y-110981728D01*
X109901831Y-110998000D01*
X109814320Y-110984308D01*
X109751812Y-110943231D01*
X109714308Y-110874770D01*
X109701806Y-110778925D01*
X109716094Y-110684667D01*
X109758956Y-110620969D01*
X109836744Y-110584655D01*
X109955806Y-110572550D01*
X109987556Y-110572550D01*
X109987556Y-110432850D01*
X109955806Y-110432850D01*
X109845078Y-110420944D01*
X109770069Y-110385225D01*
X109727206Y-110323709D01*
X109712919Y-110234413D01*
X109731263Y-110149746D01*
X109786297Y-110098946D01*
X109878019Y-110082013D01*
X109989937Y-110098681D01*
X110112969Y-110148688D01*
X110112969Y-110001050D01*
X110021247Y-109970182D01*
X109932347Y-109951661D01*
X109846269Y-109945487D01*
X109715697Y-109963148D01*
X109619256Y-110016131D01*
X109559725Y-110100467D01*
X109539881Y-110212188D01*
X109551787Y-110313887D01*
X109587506Y-110395147D01*
X109647037Y-110455968D01*
X109730381Y-110496350D01*
X109730381Y-110497938D01*
X109640092Y-110530878D01*
X109575600Y-110590013D01*
X109536905Y-110675341D01*
X109524006Y-110786863D01*
X108829971Y-110786863D01*
X108829971Y-109747050D01*
G37*
%TO.C,D1*%
X136086800Y-103566400D02*
X136086800Y-107466400D01*
X138086800Y-103566400D02*
X138086800Y-107466400D01*
X136086800Y-103566400D02*
X138086800Y-103566400D01*
%TO.C,L1*%
X135581600Y-107814800D02*
X131581600Y-107814800D01*
X135581600Y-103614800D02*
X131581600Y-103614800D01*
%TO.C,C25*%
X139388964Y-120349600D02*
X139604636Y-120349600D01*
X139388964Y-119629600D02*
X139604636Y-119629600D01*
%TO.C,kibuzzard-62BB2169*%
G36*
X124564775Y-119815372D02*
G01*
X124564775Y-119454216D01*
X124703681Y-119454216D01*
X124712710Y-119523391D01*
X124739797Y-119577564D01*
X124790081Y-119619097D01*
X124868702Y-119650351D01*
X124937908Y-119664859D01*
X125021807Y-119673564D01*
X125120400Y-119676466D01*
X125218993Y-119673564D01*
X125302892Y-119664859D01*
X125372098Y-119650351D01*
X125450719Y-119619097D01*
X125501003Y-119577564D01*
X125528090Y-119523391D01*
X125537119Y-119454216D01*
X125528090Y-119385040D01*
X125501003Y-119330867D01*
X125450719Y-119289334D01*
X125372098Y-119258080D01*
X125302892Y-119243572D01*
X125218993Y-119234867D01*
X125120400Y-119231966D01*
X125021807Y-119234867D01*
X124937908Y-119243572D01*
X124868702Y-119258080D01*
X124790081Y-119289334D01*
X124739797Y-119330867D01*
X124712710Y-119385040D01*
X124703681Y-119454216D01*
X124564775Y-119454216D01*
X124564775Y-118896368D01*
X124703681Y-118896368D01*
X124717433Y-118980684D01*
X124758688Y-119042498D01*
X124826613Y-119080419D01*
X124920375Y-119093059D01*
X124990754Y-119086083D01*
X125065578Y-119065155D01*
X125144848Y-119030274D01*
X125208328Y-118994054D01*
X125276531Y-118948180D01*
X125349456Y-118892652D01*
X125427105Y-118827471D01*
X125429328Y-118827471D01*
X125429328Y-119098616D01*
X125526006Y-119098616D01*
X125526006Y-118698566D01*
X125429328Y-118698566D01*
X125346392Y-118769912D01*
X125267130Y-118830283D01*
X125191543Y-118879677D01*
X125119629Y-118918094D01*
X125051389Y-118945535D01*
X124986823Y-118962000D01*
X124925931Y-118967488D01*
X124869258Y-118961515D01*
X124830364Y-118943596D01*
X124800360Y-118870809D01*
X124807645Y-118818581D01*
X124829499Y-118761166D01*
X124865924Y-118698566D01*
X124761466Y-118698566D01*
X124729363Y-118760055D01*
X124710102Y-118825989D01*
X124703681Y-118896368D01*
X124564775Y-118896368D01*
X124564775Y-118356301D01*
X124703681Y-118356301D01*
X124707385Y-118421000D01*
X124718498Y-118483230D01*
X124737019Y-118542991D01*
X124848144Y-118542991D01*
X124812306Y-118457147D01*
X124800360Y-118370747D01*
X124807583Y-118322130D01*
X124829253Y-118285181D01*
X124863701Y-118261844D01*
X124909263Y-118254066D01*
X124965689Y-118263943D01*
X125010510Y-118293577D01*
X125043724Y-118342966D01*
X125081877Y-118418654D01*
X125120770Y-118476810D01*
X125160405Y-118517432D01*
X125229025Y-118553270D01*
X125314869Y-118565216D01*
X125394879Y-118555659D01*
X125457109Y-118526989D01*
X125501559Y-118479205D01*
X125528229Y-118412308D01*
X125537119Y-118326297D01*
X125531192Y-118257399D01*
X125513412Y-118194429D01*
X125483779Y-118137384D01*
X125368209Y-118137384D01*
X125408337Y-118196034D01*
X125432414Y-118257893D01*
X125440440Y-118322963D01*
X125432800Y-118372414D01*
X125409881Y-118409641D01*
X125372237Y-118432977D01*
X125320425Y-118440756D01*
X125270974Y-118434783D01*
X125231525Y-118416864D01*
X125199021Y-118385054D01*
X125170406Y-118337409D01*
X125134846Y-118269314D01*
X125097805Y-118216160D01*
X125059281Y-118177945D01*
X124993718Y-118143357D01*
X124914819Y-118131828D01*
X124825919Y-118146413D01*
X124759244Y-118190169D01*
X124728376Y-118234557D01*
X124709855Y-118289934D01*
X124703681Y-118356301D01*
X124564775Y-118356301D01*
X124564775Y-117837347D01*
X124703681Y-117837347D01*
X124709793Y-117916523D01*
X124728129Y-117987366D01*
X124979271Y-117987366D01*
X124979271Y-117868462D01*
X124805916Y-117868462D01*
X124801471Y-117842903D01*
X124810022Y-117793669D01*
X124835673Y-117753386D01*
X124878425Y-117722055D01*
X124938278Y-117699675D01*
X125015233Y-117686248D01*
X125109288Y-117681772D01*
X125210813Y-117686711D01*
X125293878Y-117701527D01*
X125358485Y-117726222D01*
X125404633Y-117760794D01*
X125432322Y-117805244D01*
X125441551Y-117859572D01*
X125432939Y-117918468D01*
X125407103Y-117981809D01*
X125509338Y-117981809D01*
X125530173Y-117914857D01*
X125537119Y-117840681D01*
X125530434Y-117774787D01*
X125510379Y-117717679D01*
X125476955Y-117669357D01*
X125430161Y-117629821D01*
X125369997Y-117599071D01*
X125296464Y-117577106D01*
X125209560Y-117563927D01*
X125109288Y-117559534D01*
X125014224Y-117563875D01*
X124931835Y-117576898D01*
X124862121Y-117598602D01*
X124805083Y-117628987D01*
X124760720Y-117668055D01*
X124729032Y-117715804D01*
X124710019Y-117772235D01*
X124703681Y-117837347D01*
X124564775Y-117837347D01*
X124564775Y-117420628D01*
X125676025Y-117420628D01*
X125676025Y-119815372D01*
X124564775Y-119815372D01*
G37*
G36*
X125212634Y-119349758D02*
G01*
X124882593Y-119539782D01*
X124816473Y-119506444D01*
X124797026Y-119454216D01*
X124822585Y-119395875D01*
X124859812Y-119376289D01*
X124920375Y-119360871D01*
X124974703Y-119353462D01*
X125041378Y-119349017D01*
X125120400Y-119347536D01*
X125212634Y-119349758D01*
G37*
G36*
X125420993Y-119398653D02*
G01*
X125443774Y-119454216D01*
X125418215Y-119512556D01*
X125380988Y-119532142D01*
X125320425Y-119547561D01*
X125266097Y-119554969D01*
X125199422Y-119559414D01*
X125120400Y-119560896D01*
X125060115Y-119560062D01*
X125008164Y-119557562D01*
X125342650Y-119364204D01*
X125420993Y-119398653D01*
G37*
%TO.C,C9*%
X125632800Y-103524164D02*
X125632800Y-103739836D01*
X124912800Y-103524164D02*
X124912800Y-103739836D01*
%TO.C,R27*%
X143610841Y-122757200D02*
X143303559Y-122757200D01*
X143610841Y-121997200D02*
X143303559Y-121997200D01*
%TO.C,C8*%
X125582000Y-106978564D02*
X125582000Y-107194236D01*
X124862000Y-106978564D02*
X124862000Y-107194236D01*
%TO.C,R16*%
X105665241Y-111124000D02*
X105357959Y-111124000D01*
X105665241Y-110364000D02*
X105357959Y-110364000D01*
%TO.C,JP2*%
X100863400Y-106705400D02*
X100863400Y-108889800D01*
X100863400Y-108889800D02*
X101930200Y-108889800D01*
X101930200Y-107010200D02*
X101930200Y-108889800D01*
X100863400Y-106705400D02*
X101574600Y-106705400D01*
%TO.C,kibuzzard-62BD8A5A*%
G36*
X108829971Y-113666587D02*
G01*
X110829229Y-113666587D01*
X110829229Y-115238213D01*
X108829971Y-115238213D01*
X108829971Y-115039775D01*
X109543850Y-115039775D01*
X110115350Y-115039775D01*
X110115350Y-114901663D01*
X110013426Y-114783183D01*
X109927183Y-114669952D01*
X109856620Y-114561970D01*
X109801738Y-114459236D01*
X109762536Y-114361751D01*
X109739015Y-114269514D01*
X109731175Y-114182525D01*
X109739708Y-114101563D01*
X109765306Y-114046000D01*
X109869287Y-114003137D01*
X109943900Y-114013544D01*
X110025921Y-114044765D01*
X110115350Y-114096800D01*
X110115350Y-113947575D01*
X110027508Y-113901714D01*
X109933317Y-113874197D01*
X109832775Y-113865025D01*
X109712323Y-113884670D01*
X109624019Y-113943606D01*
X109569845Y-114040642D01*
X109551787Y-114174588D01*
X109561753Y-114275129D01*
X109591651Y-114382021D01*
X109641481Y-114495263D01*
X109693224Y-114585948D01*
X109758758Y-114683381D01*
X109838083Y-114787561D01*
X109931200Y-114898488D01*
X109931200Y-114901663D01*
X109543850Y-114901663D01*
X109543850Y-115039775D01*
X108829971Y-115039775D01*
X108829971Y-113666587D01*
G37*
%TO.C,kibuzzard-62BD8832*%
G36*
X118491635Y-97624900D02*
G01*
X119861965Y-97624900D01*
X119861965Y-98869500D01*
X118491635Y-98869500D01*
X118491635Y-98710750D01*
X118650385Y-98710750D01*
X118792625Y-98710750D01*
X118792625Y-98505010D01*
X119144415Y-98505010D01*
X119248555Y-98505010D01*
X119248555Y-98710750D01*
X119388255Y-98710750D01*
X119388255Y-98505010D01*
X119703215Y-98505010D01*
X119703215Y-98395790D01*
X119402225Y-97783650D01*
X119248555Y-97783650D01*
X119248555Y-98395790D01*
X119144415Y-98395790D01*
X119144415Y-98505010D01*
X118792625Y-98505010D01*
X118792625Y-97917000D01*
X118795165Y-97915730D01*
X119013605Y-98037650D01*
X119013605Y-97913190D01*
X118791355Y-97783650D01*
X118650385Y-97783650D01*
X118650385Y-98710750D01*
X118491635Y-98710750D01*
X118491635Y-97624900D01*
G37*
G36*
X119591455Y-98391980D02*
G01*
X119591455Y-98395790D01*
X119388255Y-98395790D01*
X119388255Y-97980500D01*
X119390795Y-97980500D01*
X119591455Y-98391980D01*
G37*
%TO.C,U12*%
X135699500Y-126885700D02*
X135699500Y-126216540D01*
X140288140Y-121627900D02*
X140957300Y-121627900D01*
X140957300Y-126885700D02*
X140288140Y-126885700D01*
X135699500Y-121627900D02*
X136368660Y-121627900D01*
X136368660Y-126885700D02*
X135699500Y-126885700D01*
X140957300Y-121627900D02*
X140957300Y-122297060D01*
X140957300Y-126216540D02*
X140957300Y-126885700D01*
X135699500Y-122297060D02*
X135699500Y-121627900D01*
D12*
X135382000Y-126517400D02*
G75*
G03*
X135382000Y-126517400I-76200J0D01*
G01*
%TO.C,kibuzzard-62BD8A57*%
G36*
X109912944Y-112096550D02*
G01*
X109940923Y-112149731D01*
X109962950Y-112236250D01*
X109973533Y-112313861D01*
X109979883Y-112409111D01*
X109982000Y-112522000D01*
X109978825Y-112653763D01*
X109707362Y-112182275D01*
X109754987Y-112087819D01*
X109829600Y-112060038D01*
X109912944Y-112096550D01*
G37*
G36*
X108829971Y-111728250D02*
G01*
X110829229Y-111728250D01*
X110829229Y-113315750D01*
X108829971Y-113315750D01*
X108829971Y-112522000D01*
X109512100Y-112522000D01*
X109516245Y-112662847D01*
X109528681Y-112782703D01*
X109549406Y-112881569D01*
X109594055Y-112993884D01*
X109653387Y-113065719D01*
X109730778Y-113104414D01*
X109829600Y-113117313D01*
X109928422Y-113104414D01*
X110005813Y-113065719D01*
X110065145Y-112993884D01*
X110109794Y-112881569D01*
X110130519Y-112782703D01*
X110142955Y-112662847D01*
X110147100Y-112522000D01*
X110142955Y-112381153D01*
X110130519Y-112261297D01*
X110109794Y-112162431D01*
X110065145Y-112050116D01*
X110005813Y-111978281D01*
X109928422Y-111939586D01*
X109829600Y-111926687D01*
X109730778Y-111939586D01*
X109653387Y-111978281D01*
X109594055Y-112050116D01*
X109549406Y-112162431D01*
X109528681Y-112261297D01*
X109516245Y-112381153D01*
X109512100Y-112522000D01*
X108829971Y-112522000D01*
X108829971Y-111728250D01*
G37*
G36*
X109958188Y-112839500D02*
G01*
X109908975Y-112951419D01*
X109829600Y-112983963D01*
X109746256Y-112947450D01*
X109718277Y-112894269D01*
X109696250Y-112807750D01*
X109685667Y-112730139D01*
X109679317Y-112634889D01*
X109677200Y-112522000D01*
X109678391Y-112435878D01*
X109681963Y-112361663D01*
X109958188Y-112839500D01*
G37*
D10*
%TO.C,R22*%
X129896841Y-110313200D02*
X129589559Y-110313200D01*
X129896841Y-111073200D02*
X129589559Y-111073200D01*
%TO.C,U14*%
X125863200Y-118670000D02*
X125863200Y-119720000D01*
X131083200Y-117550000D02*
X131083200Y-116500000D01*
X125863200Y-117550000D02*
X125863200Y-116500000D01*
%TO.C,R3*%
X135005241Y-97664000D02*
X134697959Y-97664000D01*
X135005241Y-98424000D02*
X134697959Y-98424000D01*
%TO.C,D5*%
X104760800Y-104149600D02*
X106610800Y-104149600D01*
X104760800Y-105349600D02*
X106610800Y-105349600D01*
X106610800Y-104149600D02*
X106610800Y-105349600D01*
%TO.C,JP3*%
X124434600Y-118491000D02*
X122250200Y-118491000D01*
X124129800Y-119557800D02*
X122250200Y-119557800D01*
X124434600Y-118491000D02*
X124434600Y-119202200D01*
X122250200Y-118491000D02*
X122250200Y-119557800D01*
%TO.C,JP1*%
X101904800Y-115671600D02*
X101904800Y-117551200D01*
X100838000Y-117551200D02*
X101904800Y-117551200D01*
X100838000Y-115366800D02*
X100838000Y-117551200D01*
X100838000Y-115366800D02*
X101549200Y-115366800D01*
%TO.C,FB1*%
X126591600Y-111089221D02*
X126591600Y-111414779D01*
X127611600Y-111089221D02*
X127611600Y-111414779D01*
%TO.C,C1*%
X139692748Y-100150600D02*
X140215252Y-100150600D01*
X139692748Y-98680600D02*
X140215252Y-98680600D01*
%TO.C,R23*%
X129896841Y-111278400D02*
X129589559Y-111278400D01*
X129896841Y-112038400D02*
X129589559Y-112038400D01*
%TO.C,C30*%
X125431436Y-110596000D02*
X125215764Y-110596000D01*
X125431436Y-109876000D02*
X125215764Y-109876000D01*
%TO.C,R19*%
X136117600Y-116737159D02*
X136117600Y-117044441D01*
X135357600Y-116737159D02*
X135357600Y-117044441D01*
%TO.C,kibuzzard-62BB2232*%
G36*
X124900055Y-101955600D02*
G01*
X124908522Y-101942900D01*
X125376305Y-101942900D01*
X125380468Y-102057906D01*
X125392956Y-102155696D01*
X125413770Y-102236270D01*
X125459649Y-102328186D01*
X125522355Y-102388035D01*
X125604905Y-102420896D01*
X125710315Y-102431850D01*
X125814137Y-102425500D01*
X125845993Y-102419150D01*
X126051945Y-102419150D01*
X126194185Y-102419150D01*
X126392305Y-101746050D01*
X126394845Y-101746050D01*
X126394845Y-102419150D01*
X126534545Y-102419150D01*
X126534545Y-102387400D01*
X126667895Y-102387400D01*
X126735911Y-102412094D01*
X126807877Y-102426911D01*
X126883795Y-102431850D01*
X126958209Y-102424309D01*
X127022701Y-102401687D01*
X127077272Y-102363984D01*
X127121920Y-102311200D01*
X127156647Y-102243334D01*
X127181451Y-102160388D01*
X127196334Y-102062359D01*
X127201295Y-101949250D01*
X127195937Y-101835506D01*
X127179864Y-101738113D01*
X127153075Y-101657071D01*
X127115570Y-101592380D01*
X127048895Y-101529586D01*
X126963170Y-101491909D01*
X126858395Y-101479350D01*
X126777432Y-101486335D01*
X126699645Y-101507290D01*
X126699645Y-101621590D01*
X126780608Y-101598730D01*
X126858395Y-101591110D01*
X126948883Y-101611271D01*
X127012065Y-101671755D01*
X127039582Y-101738430D01*
X127056092Y-101830928D01*
X127061595Y-101949250D01*
X127056374Y-102070323D01*
X127040711Y-102165997D01*
X127014605Y-102236270D01*
X126957455Y-102301040D01*
X126879985Y-102322630D01*
X126803785Y-102307390D01*
X126803785Y-101974650D01*
X126963805Y-101974650D01*
X126963805Y-101866700D01*
X126667895Y-101866700D01*
X126667895Y-102387400D01*
X126534545Y-102387400D01*
X126534545Y-101492050D01*
X126387225Y-101492050D01*
X126189105Y-102165150D01*
X126185295Y-102165150D01*
X126185295Y-101492050D01*
X126051945Y-101492050D01*
X126051945Y-102419150D01*
X125845993Y-102419150D01*
X125909705Y-102406450D01*
X125909705Y-101504750D01*
X125810328Y-101485700D01*
X125710315Y-101479350D01*
X125602859Y-101490851D01*
X125517557Y-101525352D01*
X125454410Y-101582855D01*
X125420239Y-101644172D01*
X125395831Y-101724619D01*
X125381187Y-101824195D01*
X125376305Y-101942900D01*
X124908522Y-101942900D01*
X125323388Y-101320600D01*
X127254212Y-101320600D01*
X127677545Y-101955600D01*
X127254212Y-102590600D01*
X125323388Y-102590600D01*
X124900055Y-101955600D01*
G37*
G36*
X125767465Y-101601270D02*
G01*
X125767465Y-102311200D01*
X125710315Y-102322630D01*
X125621574Y-102302310D01*
X125561090Y-102241350D01*
X125535337Y-102172064D01*
X125519886Y-102072581D01*
X125514735Y-101942900D01*
X125519956Y-101825496D01*
X125535619Y-101734056D01*
X125561725Y-101668580D01*
X125622368Y-101609525D01*
X125710315Y-101589840D01*
X125767465Y-101601270D01*
G37*
%TO.C,R26*%
X143612841Y-125500400D02*
X143305559Y-125500400D01*
X143612841Y-124740400D02*
X143305559Y-124740400D01*
%TO.C,U2*%
X127711200Y-106237600D02*
X128361200Y-106237600D01*
X127711200Y-109357600D02*
X126036200Y-109357600D01*
X127711200Y-106237600D02*
X127061200Y-106237600D01*
X127711200Y-109357600D02*
X128361200Y-109357600D01*
%TO.C,R18*%
X109983241Y-101497400D02*
X109675959Y-101497400D01*
X109983241Y-100737400D02*
X109675959Y-100737400D01*
%TO.C,U6*%
X110449800Y-103682800D02*
X110449800Y-104482800D01*
X110449800Y-103682800D02*
X110449800Y-102882800D01*
X107329800Y-103682800D02*
X107329800Y-104482800D01*
X107329800Y-103682800D02*
X107329800Y-101882800D01*
%TO.C,J12*%
X134284800Y-134846000D02*
X134284800Y-131346000D01*
X140734800Y-134846000D02*
X140734800Y-134346000D01*
X143794800Y-133346000D02*
X143184800Y-133346000D01*
X143794800Y-135456000D02*
X133674800Y-135456000D01*
X138634800Y-134346000D02*
X138634800Y-134846000D01*
X143794800Y-130736000D02*
X143794800Y-135456000D01*
X136834800Y-134846000D02*
X136834800Y-134346000D01*
X133674800Y-135456000D02*
X133674800Y-130736000D01*
X140634800Y-134346000D02*
X140634800Y-134846000D01*
X141234800Y-131346000D02*
X143184800Y-131346000D01*
X136234800Y-131346000D02*
X136234800Y-130736000D01*
X143184800Y-131346000D02*
X143184800Y-134846000D01*
X133674800Y-130736000D02*
X143794800Y-130736000D01*
X136834800Y-134346000D02*
X136634800Y-134346000D01*
X142034800Y-130536000D02*
X142334800Y-130536000D01*
X141234800Y-130736000D02*
X141234800Y-131346000D01*
X133674800Y-132046000D02*
X134284800Y-132046000D01*
X143794800Y-132046000D02*
X143184800Y-132046000D01*
X142844800Y-130436000D02*
X144094800Y-130436000D01*
X143184800Y-134846000D02*
X134284800Y-134846000D01*
X136634800Y-134346000D02*
X136634800Y-134846000D01*
X142334800Y-130536000D02*
X142334800Y-130736000D01*
X138834800Y-134346000D02*
X138634800Y-134346000D01*
X140834800Y-134346000D02*
X140634800Y-134346000D01*
X138834800Y-134846000D02*
X138834800Y-134346000D01*
X133674800Y-133346000D02*
X134284800Y-133346000D01*
X144094800Y-130436000D02*
X144094800Y-131686000D01*
X134284800Y-131346000D02*
X136234800Y-131346000D01*
X140834800Y-134846000D02*
X140834800Y-134346000D01*
X138734800Y-134846000D02*
X138734800Y-134346000D01*
X142034800Y-130736000D02*
X142034800Y-130536000D01*
X136734800Y-134846000D02*
X136734800Y-134346000D01*
X142034800Y-130636000D02*
X142334800Y-130636000D01*
%TO.C,C36*%
X120942980Y-118514400D02*
X120661820Y-118514400D01*
X120942980Y-119534400D02*
X120661820Y-119534400D01*
%TO.C,R24*%
X133094759Y-124842000D02*
X133402041Y-124842000D01*
X133094759Y-125602000D02*
X133402041Y-125602000D01*
%TO.C,R17*%
X135357600Y-118924041D02*
X135357600Y-118616759D01*
X136117600Y-118924041D02*
X136117600Y-118616759D01*
%TO.C,kibuzzard-62BB1DD3*%
G36*
X117618510Y-117502305D02*
G01*
X117599813Y-117448048D01*
X117588594Y-117379256D01*
X117584855Y-117295930D01*
X117585430Y-117283230D01*
X117645815Y-117283230D01*
X117665500Y-117342285D01*
X117715665Y-117367050D01*
X117767735Y-117342285D01*
X117786785Y-117283230D01*
X117767735Y-117223540D01*
X117715665Y-117198140D01*
X117665500Y-117223540D01*
X117645815Y-117283230D01*
X117585430Y-117283230D01*
X117588594Y-117213309D01*
X117599813Y-117144941D01*
X117618510Y-117090825D01*
X117659944Y-117037961D01*
X117716935Y-117020340D01*
X117773132Y-117037961D01*
X117814725Y-117090825D01*
X117833775Y-117144941D01*
X117845205Y-117213309D01*
X117849015Y-117295930D01*
X117845205Y-117379256D01*
X117833775Y-117448048D01*
X117814725Y-117502305D01*
X117773132Y-117555169D01*
X117716935Y-117572790D01*
X117715665Y-117572397D01*
X117659944Y-117555169D01*
X117618510Y-117502305D01*
G37*
G36*
X116751741Y-117863420D02*
G01*
X116696511Y-117855228D01*
X116642349Y-117841661D01*
X116589778Y-117822850D01*
X116539303Y-117798978D01*
X116491412Y-117770273D01*
X116446565Y-117737012D01*
X116405194Y-117699515D01*
X116383573Y-117675660D01*
X116807615Y-117675660D01*
X116887625Y-117696615D01*
X116938742Y-117702806D01*
X116998115Y-117704870D01*
X117083046Y-117698838D01*
X117154960Y-117680740D01*
X117214491Y-117652165D01*
X117262275Y-117614700D01*
X117298629Y-117568980D01*
X117323870Y-117515640D01*
X117338634Y-117456268D01*
X117343555Y-117392450D01*
X117338475Y-117329585D01*
X117329790Y-117295930D01*
X117443885Y-117295930D01*
X117448251Y-117393403D01*
X117461347Y-117477540D01*
X117483176Y-117548342D01*
X117513735Y-117605810D01*
X117567357Y-117662254D01*
X117635091Y-117696121D01*
X117716935Y-117707410D01*
X117798779Y-117696121D01*
X117866513Y-117662254D01*
X117920135Y-117605810D01*
X117950694Y-117548342D01*
X117972522Y-117477540D01*
X117985619Y-117393403D01*
X117989985Y-117295930D01*
X117985540Y-117199569D01*
X117972205Y-117116225D01*
X117949980Y-117045899D01*
X117918865Y-116988590D01*
X117864819Y-116932146D01*
X117797509Y-116898279D01*
X117716935Y-116886990D01*
X117635091Y-116898208D01*
X117567357Y-116931863D01*
X117513735Y-116987955D01*
X117483176Y-117045065D01*
X117461347Y-117115431D01*
X117448251Y-117199053D01*
X117443885Y-117295930D01*
X117329790Y-117295930D01*
X117323235Y-117270530D01*
X117297517Y-117217031D01*
X117261005Y-117170835D01*
X117213539Y-117132735D01*
X117154960Y-117103525D01*
X117084634Y-117084951D01*
X117001925Y-117078760D01*
X116905405Y-117086380D01*
X116817775Y-117111780D01*
X116852065Y-117237510D01*
X116908580Y-117221635D01*
X116987955Y-117214650D01*
X117081300Y-117227985D01*
X117141625Y-117264815D01*
X117174645Y-117321330D01*
X117184805Y-117392450D01*
X117173216Y-117466110D01*
X117138450Y-117521990D01*
X117075744Y-117557232D01*
X116980335Y-117568980D01*
X116903500Y-117563900D01*
X116830475Y-117547390D01*
X116807615Y-117675660D01*
X116383573Y-117675660D01*
X116367697Y-117658144D01*
X116334436Y-117613297D01*
X116305731Y-117565406D01*
X116281859Y-117514932D01*
X116263048Y-117462360D01*
X116249482Y-117408199D01*
X116241289Y-117352968D01*
X116238549Y-117297200D01*
X116241289Y-117241432D01*
X116249482Y-117186201D01*
X116263048Y-117132040D01*
X116281859Y-117079468D01*
X116305731Y-117028994D01*
X116334436Y-116981103D01*
X116367697Y-116936256D01*
X116405194Y-116894885D01*
X116446565Y-116857388D01*
X116491412Y-116824127D01*
X116539303Y-116795422D01*
X116589778Y-116771550D01*
X116642349Y-116752739D01*
X116696511Y-116739172D01*
X116751741Y-116730980D01*
X116807509Y-116728240D01*
X117990091Y-116728240D01*
X118045859Y-116730980D01*
X118101089Y-116739172D01*
X118155251Y-116752739D01*
X118207822Y-116771550D01*
X118258297Y-116795422D01*
X118306188Y-116824127D01*
X118351035Y-116857388D01*
X118392406Y-116894885D01*
X118429903Y-116936256D01*
X118463164Y-116981103D01*
X118491869Y-117028994D01*
X118515741Y-117079468D01*
X118534552Y-117132040D01*
X118548118Y-117186201D01*
X118556311Y-117241432D01*
X118559051Y-117297200D01*
X118556311Y-117352968D01*
X118548118Y-117408199D01*
X118534552Y-117462360D01*
X118515741Y-117514932D01*
X118491869Y-117565406D01*
X118463164Y-117613297D01*
X118429903Y-117658144D01*
X118392406Y-117699515D01*
X118351035Y-117737012D01*
X118306188Y-117770273D01*
X118258297Y-117798978D01*
X118207822Y-117822850D01*
X118155251Y-117841661D01*
X118101089Y-117855228D01*
X118045859Y-117863420D01*
X117990091Y-117866160D01*
X116807509Y-117866160D01*
X116751741Y-117863420D01*
G37*
%TO.C,kibuzzard-62BB2226*%
G36*
X126486285Y-99261930D02*
G01*
X126486285Y-99265740D01*
X126283085Y-99265740D01*
X126283085Y-98850450D01*
X126285625Y-98850450D01*
X126486285Y-99261930D01*
G37*
G36*
X124923338Y-99110800D02*
G01*
X125228138Y-98653600D01*
X125395355Y-98653600D01*
X125602365Y-99580700D01*
X125767465Y-99580700D01*
X125813122Y-99374960D01*
X126039245Y-99374960D01*
X126143385Y-99374960D01*
X126143385Y-99580700D01*
X126283085Y-99580700D01*
X126725045Y-99580700D01*
X127182245Y-99580700D01*
X127182245Y-99470210D01*
X127100706Y-99375427D01*
X127031711Y-99284842D01*
X126975261Y-99198456D01*
X126931355Y-99116269D01*
X126899994Y-99038280D01*
X126881177Y-98964491D01*
X126874905Y-98894900D01*
X126881731Y-98830130D01*
X126902210Y-98785680D01*
X126985395Y-98751390D01*
X127045085Y-98759716D01*
X127110702Y-98784692D01*
X127182245Y-98826320D01*
X127182245Y-98706940D01*
X127111972Y-98670251D01*
X127036618Y-98648238D01*
X126956185Y-98640900D01*
X126859824Y-98656616D01*
X126789180Y-98703765D01*
X126745841Y-98781394D01*
X126731395Y-98888550D01*
X126739368Y-98968983D01*
X126763286Y-99054497D01*
X126803150Y-99145090D01*
X126844544Y-99217639D01*
X126896971Y-99295585D01*
X126960432Y-99378929D01*
X127034925Y-99467670D01*
X127034925Y-99470210D01*
X126725045Y-99470210D01*
X126725045Y-99580700D01*
X126283085Y-99580700D01*
X126283085Y-99374960D01*
X126598045Y-99374960D01*
X126598045Y-99265740D01*
X126297055Y-98653600D01*
X126143385Y-98653600D01*
X126143385Y-99265740D01*
X126039245Y-99265740D01*
X126039245Y-99374960D01*
X125813122Y-99374960D01*
X125973205Y-98653600D01*
X125827155Y-98653600D01*
X125682375Y-99453700D01*
X125681105Y-99453700D01*
X125536325Y-98653600D01*
X125395355Y-98653600D01*
X125228138Y-98653600D01*
X125342438Y-98482150D01*
X127235162Y-98482150D01*
X127654262Y-99110800D01*
X127235162Y-99739450D01*
X125342438Y-99739450D01*
X124923338Y-99110800D01*
G37*
%TO.C,U8*%
X138328400Y-119365200D02*
X139128400Y-119365200D01*
X138328400Y-119365200D02*
X136528400Y-119365200D01*
X138328400Y-116245200D02*
X137528400Y-116245200D01*
X138328400Y-116245200D02*
X139128400Y-116245200D01*
%TO.C,C7*%
X133659200Y-102520636D02*
X133659200Y-102304964D01*
X132939200Y-102520636D02*
X132939200Y-102304964D01*
%TO.C,D4*%
X106661600Y-111312400D02*
X106661600Y-112512400D01*
X104811600Y-112512400D02*
X106661600Y-112512400D01*
X104811600Y-111312400D02*
X106661600Y-111312400D01*
%TD*%
M02*
