%TF.GenerationSoftware,KiCad,Pcbnew,(6.0.6)*%
%TF.CreationDate,2022-07-03T12:41:07+08:00*%
%TF.ProjectId,Stealthburner_Toolhead_PCB,53746561-6c74-4686-9275-726e65725f54,rev?*%
%TF.SameCoordinates,Original*%
%TF.FileFunction,Soldermask,Top*%
%TF.FilePolarity,Negative*%
%FSLAX46Y46*%
G04 Gerber Fmt 4.6, Leading zero omitted, Abs format (unit mm)*
G04 Created by KiCad (PCBNEW (6.0.6)) date 2022-07-03 12:41:07*
%MOMM*%
%LPD*%
G01*
G04 APERTURE LIST*
G04 Aperture macros list*
%AMRoundRect*
0 Rectangle with rounded corners*
0 $1 Rounding radius*
0 $2 $3 $4 $5 $6 $7 $8 $9 X,Y pos of 4 corners*
0 Add a 4 corners polygon primitive as box body*
4,1,4,$2,$3,$4,$5,$6,$7,$8,$9,$2,$3,0*
0 Add four circle primitives for the rounded corners*
1,1,$1+$1,$2,$3*
1,1,$1+$1,$4,$5*
1,1,$1+$1,$6,$7*
1,1,$1+$1,$8,$9*
0 Add four rect primitives between the rounded corners*
20,1,$1+$1,$2,$3,$4,$5,0*
20,1,$1+$1,$4,$5,$6,$7,0*
20,1,$1+$1,$6,$7,$8,$9,0*
20,1,$1+$1,$8,$9,$2,$3,0*%
G04 Aperture macros list end*
%ADD10C,0.024000*%
%ADD11RoundRect,0.140000X-0.170000X0.140000X-0.170000X-0.140000X0.170000X-0.140000X0.170000X0.140000X0*%
%ADD12RoundRect,0.140000X0.170000X-0.140000X0.170000X0.140000X-0.170000X0.140000X-0.170000X-0.140000X0*%
%ADD13RoundRect,0.200000X-0.200000X-0.450000X0.200000X-0.450000X0.200000X0.450000X-0.200000X0.450000X0*%
%ADD14O,0.800000X1.300000*%
%ADD15R,0.812800X0.177800*%
%ADD16R,0.177800X0.812800*%
%ADD17R,3.200400X3.200400*%
%ADD18RoundRect,0.140000X-0.140000X-0.170000X0.140000X-0.170000X0.140000X0.170000X-0.140000X0.170000X0*%
%ADD19R,0.457200X0.812800*%
%ADD20R,2.489200X1.600200*%
%ADD21C,3.000000*%
%ADD22RoundRect,0.250001X0.499999X0.759999X-0.499999X0.759999X-0.499999X-0.759999X0.499999X-0.759999X0*%
%ADD23O,1.500000X2.020000*%
%ADD24RoundRect,0.135000X0.135000X0.185000X-0.135000X0.185000X-0.135000X-0.185000X0.135000X-0.185000X0*%
%ADD25RoundRect,0.200000X0.450000X-0.200000X0.450000X0.200000X-0.450000X0.200000X-0.450000X-0.200000X0*%
%ADD26O,1.300000X0.800000*%
%ADD27R,1.600000X1.600000*%
%ADD28C,1.600000*%
%ADD29C,1.000000*%
%ADD30RoundRect,0.135000X-0.135000X-0.185000X0.135000X-0.185000X0.135000X0.185000X-0.135000X0.185000X0*%
%ADD31RoundRect,0.200000X-0.200000X-0.600000X0.200000X-0.600000X0.200000X0.600000X-0.200000X0.600000X0*%
%ADD32RoundRect,0.250001X-0.799999X-1.249999X0.799999X-1.249999X0.799999X1.249999X-0.799999X1.249999X0*%
%ADD33C,5.000000*%
%ADD34R,0.700000X0.600000*%
%ADD35RoundRect,0.200000X-0.450000X0.200000X-0.450000X-0.200000X0.450000X-0.200000X0.450000X0.200000X0*%
%ADD36RoundRect,0.140000X0.140000X0.170000X-0.140000X0.170000X-0.140000X-0.170000X0.140000X-0.170000X0*%
%ADD37RoundRect,0.135000X-0.185000X0.135000X-0.185000X-0.135000X0.185000X-0.135000X0.185000X0.135000X0*%
%ADD38R,0.400000X1.900000*%
%ADD39RoundRect,0.250001X-0.759999X0.499999X-0.759999X-0.499999X0.759999X-0.499999X0.759999X0.499999X0*%
%ADD40O,2.020000X1.500000*%
%ADD41R,0.812800X0.254000*%
%ADD42R,0.203200X1.600200*%
%ADD43RoundRect,0.150000X-0.512500X-0.150000X0.512500X-0.150000X0.512500X0.150000X-0.512500X0.150000X0*%
%ADD44RoundRect,0.250000X0.350000X0.625000X-0.350000X0.625000X-0.350000X-0.625000X0.350000X-0.625000X0*%
%ADD45O,1.200000X1.750000*%
G04 APERTURE END LIST*
D10*
G36*
X134400417Y-105888459D02*
G01*
X134413507Y-105837190D01*
X134429358Y-105786331D01*
X134447913Y-105735984D01*
X134469119Y-105686250D01*
X134492919Y-105637231D01*
X134519260Y-105589030D01*
X134548086Y-105541747D01*
X134579343Y-105495486D01*
X134612976Y-105450347D01*
X134648929Y-105406433D01*
X134687148Y-105363845D01*
X134727579Y-105322685D01*
X134770165Y-105283056D01*
X134814853Y-105245058D01*
X134827078Y-105235263D01*
X134839595Y-105225862D01*
X134852393Y-105216860D01*
X134865462Y-105208265D01*
X134878793Y-105200081D01*
X134892377Y-105192316D01*
X134906203Y-105184976D01*
X134920263Y-105178066D01*
X134944614Y-105167678D01*
X134969903Y-105158496D01*
X134995922Y-105150632D01*
X135022463Y-105144198D01*
X135049319Y-105139306D01*
X135076281Y-105136068D01*
X135103142Y-105134597D01*
X135129694Y-105135005D01*
X135155728Y-105137403D01*
X135181038Y-105141904D01*
X135193355Y-105144978D01*
X135205414Y-105148619D01*
X135217187Y-105152843D01*
X135228649Y-105157662D01*
X135239774Y-105163090D01*
X135250536Y-105169143D01*
X135260909Y-105175833D01*
X135270866Y-105183175D01*
X135280383Y-105191183D01*
X135289432Y-105199870D01*
X135297988Y-105209252D01*
X135306025Y-105219341D01*
X135316467Y-105234824D01*
X135325109Y-105250646D01*
X135332032Y-105266768D01*
X135337322Y-105283150D01*
X135341061Y-105299752D01*
X135343334Y-105316534D01*
X135344223Y-105333456D01*
X135343813Y-105350478D01*
X135342186Y-105367561D01*
X135339427Y-105384665D01*
X135335618Y-105401749D01*
X135330844Y-105418774D01*
X135325188Y-105435700D01*
X135318734Y-105452487D01*
X135303763Y-105485485D01*
X135286601Y-105517449D01*
X135267916Y-105548059D01*
X135248376Y-105576996D01*
X135228650Y-105603943D01*
X135191311Y-105650584D01*
X135161246Y-105685431D01*
X135151640Y-105696905D01*
X135142191Y-105708506D01*
X135132900Y-105720232D01*
X135123768Y-105732081D01*
X135114796Y-105744052D01*
X135105986Y-105756143D01*
X135097339Y-105768353D01*
X135088855Y-105780680D01*
X135070232Y-105807023D01*
X135060828Y-105820094D01*
X135051311Y-105833068D01*
X135041646Y-105845923D01*
X135031795Y-105858637D01*
X135021720Y-105871187D01*
X135011385Y-105883551D01*
X135000836Y-105895731D01*
X134990152Y-105907765D01*
X134979350Y-105919688D01*
X134968443Y-105931533D01*
X134924073Y-105978801D01*
X134903279Y-105999624D01*
X134882099Y-106020042D01*
X134860538Y-106040049D01*
X134838601Y-106059640D01*
X134816296Y-106078810D01*
X134793627Y-106097554D01*
X134770602Y-106115866D01*
X134747225Y-106133741D01*
X134756533Y-106132542D01*
X134765799Y-106131116D01*
X134775019Y-106129464D01*
X134784188Y-106127588D01*
X134793303Y-106125488D01*
X134802360Y-106123166D01*
X134811354Y-106120623D01*
X134820282Y-106117861D01*
X134829139Y-106114881D01*
X134837922Y-106111684D01*
X134846627Y-106108271D01*
X134855249Y-106104644D01*
X134863784Y-106100805D01*
X134872229Y-106096753D01*
X134880579Y-106092492D01*
X134888831Y-106088021D01*
X134904722Y-106078470D01*
X134920321Y-106068471D01*
X134935618Y-106058029D01*
X134950605Y-106047153D01*
X134965272Y-106035849D01*
X134979609Y-106024124D01*
X134993608Y-106011985D01*
X135007258Y-105999438D01*
X135029910Y-105978683D01*
X135052117Y-105957485D01*
X135073874Y-105935852D01*
X135095174Y-105913791D01*
X135116012Y-105891311D01*
X135136382Y-105868418D01*
X135156278Y-105845120D01*
X135175693Y-105821425D01*
X135194622Y-105797339D01*
X135213059Y-105772870D01*
X135230998Y-105748026D01*
X135248433Y-105722815D01*
X135265357Y-105697243D01*
X135281766Y-105671318D01*
X135297652Y-105645047D01*
X135313010Y-105618438D01*
X135316232Y-105613079D01*
X135319740Y-105607950D01*
X135323521Y-105603058D01*
X135327564Y-105598414D01*
X135331855Y-105594024D01*
X135336381Y-105589900D01*
X135341129Y-105586048D01*
X135346087Y-105582477D01*
X135351241Y-105579197D01*
X135356579Y-105576216D01*
X135362089Y-105573543D01*
X135367756Y-105571187D01*
X135373569Y-105569155D01*
X135379514Y-105567457D01*
X135385579Y-105566102D01*
X135391751Y-105565098D01*
X135397834Y-105564397D01*
X135403913Y-105564043D01*
X135409974Y-105564029D01*
X135416003Y-105564354D01*
X135421986Y-105565011D01*
X135427911Y-105565998D01*
X135433764Y-105567310D01*
X135439531Y-105568942D01*
X135445199Y-105570891D01*
X135450754Y-105573152D01*
X135456183Y-105575721D01*
X135461473Y-105578594D01*
X135466610Y-105581766D01*
X135471581Y-105585234D01*
X135476371Y-105588993D01*
X135480968Y-105593038D01*
X135484393Y-105596470D01*
X135487663Y-105600010D01*
X135490779Y-105603654D01*
X135493738Y-105607395D01*
X135499185Y-105615154D01*
X135503997Y-105623247D01*
X135508164Y-105631636D01*
X135511680Y-105640280D01*
X135514536Y-105649140D01*
X135516724Y-105658176D01*
X135518236Y-105667350D01*
X135519065Y-105676622D01*
X135519201Y-105685953D01*
X135518638Y-105695303D01*
X135517367Y-105704632D01*
X135515380Y-105713901D01*
X135514115Y-105718501D01*
X135512669Y-105723072D01*
X135511039Y-105727607D01*
X135509226Y-105732103D01*
X135504684Y-105748965D01*
X135500595Y-105765920D01*
X135496958Y-105782959D01*
X135493774Y-105800073D01*
X135491044Y-105817253D01*
X135488769Y-105834490D01*
X135486948Y-105851775D01*
X135485582Y-105869100D01*
X135484673Y-105886454D01*
X135484220Y-105903829D01*
X135484225Y-105921216D01*
X135484687Y-105938605D01*
X135485608Y-105955989D01*
X135486988Y-105973357D01*
X135488828Y-105990700D01*
X135491128Y-106008011D01*
X135492406Y-106009303D01*
X135493716Y-106010561D01*
X135495057Y-106011783D01*
X135496427Y-106012969D01*
X135497827Y-106014118D01*
X135499256Y-106015230D01*
X135500712Y-106016305D01*
X135502195Y-106017342D01*
X135503704Y-106018340D01*
X135505239Y-106019299D01*
X135506798Y-106020218D01*
X135508382Y-106021098D01*
X135509988Y-106021936D01*
X135511618Y-106022734D01*
X135513268Y-106023490D01*
X135514940Y-106024203D01*
X135521201Y-106027368D01*
X135527640Y-106030712D01*
X135534318Y-106034294D01*
X135541293Y-106038173D01*
X135546692Y-106041230D01*
X135552152Y-106044175D01*
X135557669Y-106047006D01*
X135563242Y-106049725D01*
X135568869Y-106052329D01*
X135574549Y-106054817D01*
X135580280Y-106057190D01*
X135586060Y-106059446D01*
X135611629Y-106069458D01*
X135637443Y-106078700D01*
X135663482Y-106087170D01*
X135689731Y-106094866D01*
X135716171Y-106101784D01*
X135742786Y-106107922D01*
X135769557Y-106113278D01*
X135796468Y-106117847D01*
X135823501Y-106121629D01*
X135850638Y-106124619D01*
X135877863Y-106126816D01*
X135905157Y-106128217D01*
X135932504Y-106128819D01*
X135959886Y-106128619D01*
X135987286Y-106127615D01*
X136014686Y-106125803D01*
X136021793Y-106125457D01*
X136028851Y-106125582D01*
X136035840Y-106126168D01*
X136042740Y-106127207D01*
X136049529Y-106128687D01*
X136056189Y-106130601D01*
X136062698Y-106132937D01*
X136069036Y-106135687D01*
X136075184Y-106138841D01*
X136081120Y-106142390D01*
X136086825Y-106146323D01*
X136092278Y-106150631D01*
X136097458Y-106155305D01*
X136102346Y-106160334D01*
X136106922Y-106165710D01*
X136111164Y-106171423D01*
X136115017Y-106177405D01*
X136118438Y-106183580D01*
X136121425Y-106189926D01*
X136123975Y-106196420D01*
X136126088Y-106203041D01*
X136127760Y-106209765D01*
X136128991Y-106216570D01*
X136129779Y-106223434D01*
X136130121Y-106230335D01*
X136130016Y-106237250D01*
X136129463Y-106244157D01*
X136128458Y-106251033D01*
X136127001Y-106257857D01*
X136125089Y-106264605D01*
X136122721Y-106271255D01*
X136119895Y-106277785D01*
X136118317Y-106280983D01*
X136116641Y-106284113D01*
X136114869Y-106287174D01*
X136113004Y-106290164D01*
X136111047Y-106293080D01*
X136109001Y-106295923D01*
X136104652Y-106301379D01*
X136099975Y-106306519D01*
X136094988Y-106311329D01*
X136089710Y-106315798D01*
X136084159Y-106319912D01*
X136078354Y-106323659D01*
X136072313Y-106327026D01*
X136066055Y-106330000D01*
X136059597Y-106332568D01*
X136052960Y-106334718D01*
X136049579Y-106335632D01*
X136046160Y-106336436D01*
X136042705Y-106337130D01*
X136039216Y-106337710D01*
X136035697Y-106338177D01*
X136032148Y-106338528D01*
X135998386Y-106340828D01*
X135964622Y-106342131D01*
X135930878Y-106342440D01*
X135897176Y-106341759D01*
X135863537Y-106340092D01*
X135829983Y-106337441D01*
X135796534Y-106333810D01*
X135763214Y-106329202D01*
X135730042Y-106323621D01*
X135697042Y-106317069D01*
X135664233Y-106309550D01*
X135631638Y-106301067D01*
X135599279Y-106291624D01*
X135567176Y-106281224D01*
X135535352Y-106269870D01*
X135503828Y-106257566D01*
X135494543Y-106253790D01*
X135485333Y-106249843D01*
X135476199Y-106245727D01*
X135467143Y-106241442D01*
X135458169Y-106236990D01*
X135449278Y-106232372D01*
X135440473Y-106227588D01*
X135431756Y-106222641D01*
X135416516Y-106214703D01*
X135409232Y-106211139D01*
X135402069Y-106207365D01*
X135395031Y-106203384D01*
X135388123Y-106199200D01*
X135381348Y-106194817D01*
X135374710Y-106190237D01*
X135368214Y-106185464D01*
X135361865Y-106180501D01*
X135355665Y-106175352D01*
X135349619Y-106170020D01*
X135343732Y-106164509D01*
X135338008Y-106158821D01*
X135332450Y-106152961D01*
X135327064Y-106146931D01*
X135321852Y-106140735D01*
X135316820Y-106134376D01*
X135312922Y-106128586D01*
X135309207Y-106122691D01*
X135305678Y-106116693D01*
X135302336Y-106110599D01*
X135299183Y-106104411D01*
X135296220Y-106098136D01*
X135293450Y-106091776D01*
X135290874Y-106085337D01*
X135288493Y-106078824D01*
X135286309Y-106072239D01*
X135284325Y-106065589D01*
X135282542Y-106058878D01*
X135280961Y-106052109D01*
X135279584Y-106045288D01*
X135278413Y-106038419D01*
X135277450Y-106031506D01*
X135262333Y-106048123D01*
X135246994Y-106064532D01*
X135231437Y-106080732D01*
X135215664Y-106096719D01*
X135199677Y-106112493D01*
X135183477Y-106128050D01*
X135167068Y-106143388D01*
X135150451Y-106158506D01*
X135132123Y-106175046D01*
X135113337Y-106191039D01*
X135094106Y-106206478D01*
X135074442Y-106221353D01*
X135054356Y-106235654D01*
X135033863Y-106249373D01*
X135012973Y-106262501D01*
X134991700Y-106275029D01*
X134969639Y-106286651D01*
X134947184Y-106297320D01*
X134924367Y-106307032D01*
X134901219Y-106315780D01*
X134877770Y-106323559D01*
X134854051Y-106330364D01*
X134830093Y-106336190D01*
X134805928Y-106341029D01*
X134781584Y-106344878D01*
X134757094Y-106347730D01*
X134732488Y-106349580D01*
X134707797Y-106350423D01*
X134683051Y-106350253D01*
X134658282Y-106349064D01*
X134633520Y-106346851D01*
X134608796Y-106343609D01*
X134602230Y-106342623D01*
X134595692Y-106341501D01*
X134589182Y-106340243D01*
X134582704Y-106338850D01*
X134569849Y-106335663D01*
X134557144Y-106331945D01*
X134544605Y-106327700D01*
X134532248Y-106322934D01*
X134526143Y-106320357D01*
X134520091Y-106317652D01*
X134514092Y-106314819D01*
X134508149Y-106311859D01*
X134498331Y-106318718D01*
X134488424Y-106325444D01*
X134478429Y-106332038D01*
X134468348Y-106338497D01*
X134458182Y-106344821D01*
X134447932Y-106351010D01*
X134437599Y-106357062D01*
X134427186Y-106362976D01*
X134420740Y-106366581D01*
X134414215Y-106370031D01*
X134407611Y-106373326D01*
X134400933Y-106376465D01*
X134394183Y-106379445D01*
X134387364Y-106382265D01*
X134380478Y-106384925D01*
X134373529Y-106387423D01*
X134366968Y-106389291D01*
X134360373Y-106391023D01*
X134353745Y-106392619D01*
X134347087Y-106394077D01*
X134340400Y-106395399D01*
X134333686Y-106396583D01*
X134326948Y-106397629D01*
X134320188Y-106398536D01*
X134304168Y-106401237D01*
X134288099Y-106403368D01*
X134271994Y-106404929D01*
X134255868Y-106405923D01*
X134239738Y-106406350D01*
X134223617Y-106406213D01*
X134207520Y-106405512D01*
X134191462Y-106404249D01*
X134175458Y-106402426D01*
X134159523Y-106400044D01*
X134143672Y-106397104D01*
X134127919Y-106393608D01*
X134112279Y-106389557D01*
X134096768Y-106384952D01*
X134081399Y-106379796D01*
X134066188Y-106374089D01*
X134054761Y-106367895D01*
X134043724Y-106361148D01*
X134033092Y-106353870D01*
X134022883Y-106346079D01*
X134013112Y-106337796D01*
X134003795Y-106329039D01*
X133994949Y-106319829D01*
X133986590Y-106310186D01*
X133978734Y-106300128D01*
X133971397Y-106289676D01*
X133964596Y-106278849D01*
X133958346Y-106267667D01*
X133952664Y-106256150D01*
X133947567Y-106244317D01*
X133943069Y-106232189D01*
X133939188Y-106219784D01*
X133931910Y-106197425D01*
X133925629Y-106174922D01*
X133920275Y-106152339D01*
X133915783Y-106129738D01*
X133912082Y-106107183D01*
X133909106Y-106084739D01*
X133906787Y-106062468D01*
X133905057Y-106040436D01*
X133903091Y-105997338D01*
X133902666Y-105955956D01*
X133903238Y-105916799D01*
X133904263Y-105880376D01*
X133906540Y-105799344D01*
X133907954Y-105718134D01*
X133908030Y-105677666D01*
X133907523Y-105637399D01*
X133906308Y-105597415D01*
X133904263Y-105557796D01*
X133904263Y-105534936D01*
X133904420Y-105525132D01*
X133904338Y-105515338D01*
X133904019Y-105505557D01*
X133903462Y-105495794D01*
X133902669Y-105486053D01*
X133901640Y-105476339D01*
X133900377Y-105466655D01*
X133898879Y-105457006D01*
X133897147Y-105447396D01*
X133895183Y-105437830D01*
X133892986Y-105428311D01*
X133890558Y-105418845D01*
X133887899Y-105409434D01*
X133885010Y-105400084D01*
X133881893Y-105390799D01*
X133878546Y-105381583D01*
X133870761Y-105382448D01*
X133863021Y-105383591D01*
X133855331Y-105385010D01*
X133847699Y-105386704D01*
X133840133Y-105388670D01*
X133832640Y-105390908D01*
X133825228Y-105393414D01*
X133817903Y-105396188D01*
X133812746Y-105398389D01*
X133807651Y-105400724D01*
X133802621Y-105403190D01*
X133797658Y-105405788D01*
X133792766Y-105408515D01*
X133787946Y-105411371D01*
X133783201Y-105414353D01*
X133778533Y-105417461D01*
X133772748Y-105421909D01*
X133767039Y-105426449D01*
X133761407Y-105431079D01*
X133755852Y-105435799D01*
X133750377Y-105440608D01*
X133744982Y-105445504D01*
X133739668Y-105450487D01*
X133734437Y-105455555D01*
X133729288Y-105460708D01*
X133724224Y-105465944D01*
X133719245Y-105471263D01*
X133714352Y-105476663D01*
X133709547Y-105482144D01*
X133704830Y-105487704D01*
X133700203Y-105493343D01*
X133695666Y-105499058D01*
X133674620Y-105526144D01*
X133654023Y-105553565D01*
X133633879Y-105581315D01*
X133614191Y-105609388D01*
X133594965Y-105637779D01*
X133576204Y-105666482D01*
X133557911Y-105695490D01*
X133540092Y-105724800D01*
X133479766Y-105820051D01*
X133473589Y-105829819D01*
X133467502Y-105839617D01*
X133464520Y-105844536D01*
X133461594Y-105849474D01*
X133458734Y-105854435D01*
X133455953Y-105859421D01*
X133453090Y-105864800D01*
X133450015Y-105870841D01*
X133446784Y-105877403D01*
X133443452Y-105884345D01*
X133436710Y-105898801D01*
X133430236Y-105913078D01*
X133426535Y-105921299D01*
X133423013Y-105929311D01*
X133416266Y-105944828D01*
X133410238Y-105959399D01*
X133404002Y-105973999D01*
X133400778Y-105981282D01*
X133397469Y-105988539D01*
X133394063Y-105995759D01*
X133390548Y-106002931D01*
X133342531Y-106096723D01*
X133293830Y-106190335D01*
X133244593Y-106283591D01*
X133194968Y-106376311D01*
X133182268Y-106399806D01*
X133180205Y-106404150D01*
X133177992Y-106408390D01*
X133175634Y-106412522D01*
X133173135Y-106416545D01*
X133170498Y-106420456D01*
X133167729Y-106424251D01*
X133164830Y-106427930D01*
X133161806Y-106431489D01*
X133158661Y-106434926D01*
X133155399Y-106438238D01*
X133152024Y-106441422D01*
X133148540Y-106444477D01*
X133144951Y-106447399D01*
X133141262Y-106450187D01*
X133137476Y-106452837D01*
X133133597Y-106455347D01*
X133129630Y-106457714D01*
X133125578Y-106459937D01*
X133121446Y-106462012D01*
X133117237Y-106463937D01*
X133112956Y-106465710D01*
X133108607Y-106467327D01*
X133104194Y-106468787D01*
X133099720Y-106470087D01*
X133095191Y-106471224D01*
X133090609Y-106472196D01*
X133085979Y-106473001D01*
X133081306Y-106473635D01*
X133076592Y-106474096D01*
X133071843Y-106474382D01*
X133067062Y-106474490D01*
X133062253Y-106474419D01*
X133053074Y-106473644D01*
X133044064Y-106472213D01*
X133035252Y-106470145D01*
X133026668Y-106467462D01*
X133018340Y-106464183D01*
X133010295Y-106460330D01*
X133002563Y-106455922D01*
X132995173Y-106450981D01*
X132988152Y-106445528D01*
X132981530Y-106439582D01*
X132975335Y-106433165D01*
X132969595Y-106426297D01*
X132964340Y-106418998D01*
X132959597Y-106411290D01*
X132955395Y-106403192D01*
X132951763Y-106394726D01*
X132950463Y-106391015D01*
X132949254Y-106387278D01*
X132948134Y-106383517D01*
X132947105Y-106379732D01*
X132946167Y-106375926D01*
X132945320Y-106372101D01*
X132944565Y-106368258D01*
X132943901Y-106364398D01*
X132943329Y-106360524D01*
X132942849Y-106356637D01*
X132942462Y-106352738D01*
X132942167Y-106348829D01*
X132941965Y-106344913D01*
X132941857Y-106340990D01*
X132941842Y-106337062D01*
X132941921Y-106333131D01*
X132941891Y-106308792D01*
X132941683Y-106283680D01*
X132941117Y-106258211D01*
X132940645Y-106245472D01*
X132940016Y-106232801D01*
X132938544Y-106204359D01*
X132937720Y-106175903D01*
X132937543Y-106147443D01*
X132938014Y-106118990D01*
X132939132Y-106090556D01*
X132940897Y-106062150D01*
X132943308Y-106033785D01*
X132946366Y-106005470D01*
X132951277Y-105970035D01*
X132955653Y-105934390D01*
X132963511Y-105863548D01*
X132966090Y-105833651D01*
X132969067Y-105803795D01*
X132972442Y-105773984D01*
X132976214Y-105744222D01*
X132980382Y-105714513D01*
X132984946Y-105684861D01*
X132989906Y-105655269D01*
X132995260Y-105625743D01*
X133019549Y-105511600D01*
X133032230Y-105454916D01*
X133045743Y-105398411D01*
X133059078Y-105345388D01*
X133037282Y-105385677D01*
X133014833Y-105425594D01*
X132991734Y-105465132D01*
X132967991Y-105504282D01*
X132943609Y-105543038D01*
X132918592Y-105581390D01*
X132892945Y-105619332D01*
X132866673Y-105656856D01*
X132862421Y-105663107D01*
X132858249Y-105669411D01*
X132854158Y-105675766D01*
X132850147Y-105682172D01*
X132846218Y-105688628D01*
X132842371Y-105695134D01*
X132838605Y-105701688D01*
X132834923Y-105708291D01*
X132829715Y-105717741D01*
X132824372Y-105727113D01*
X132818895Y-105736407D01*
X132813284Y-105745619D01*
X132807540Y-105754750D01*
X132801664Y-105763796D01*
X132795657Y-105772758D01*
X132789521Y-105781633D01*
X132751214Y-105833699D01*
X132711311Y-105886810D01*
X132669467Y-105940286D01*
X132625334Y-105993445D01*
X132602301Y-106019694D01*
X132578566Y-106045608D01*
X132554087Y-106071102D01*
X132528819Y-106096092D01*
X132502719Y-106120492D01*
X132475745Y-106144218D01*
X132447852Y-106167183D01*
X132418998Y-106189303D01*
X132405115Y-106199309D01*
X132391098Y-106209107D01*
X132376962Y-106218726D01*
X132362721Y-106228197D01*
X132333988Y-106246810D01*
X132305016Y-106265186D01*
X132265880Y-106290653D01*
X132225765Y-106315633D01*
X132205295Y-106327723D01*
X132184526Y-106339430D01*
X132163441Y-106350668D01*
X132142019Y-106361349D01*
X132120245Y-106371386D01*
X132098098Y-106380692D01*
X132075562Y-106389181D01*
X132052618Y-106396765D01*
X132029248Y-106403357D01*
X132005434Y-106408871D01*
X131981158Y-106413220D01*
X131956401Y-106416316D01*
X131939213Y-106417728D01*
X131922009Y-106418872D01*
X131904791Y-106419749D01*
X131887563Y-106420359D01*
X131870327Y-106420702D01*
X131853087Y-106420778D01*
X131835846Y-106420585D01*
X131818607Y-106420126D01*
X131805906Y-106420126D01*
X131791714Y-106420277D01*
X131773689Y-106420027D01*
X131763587Y-106419421D01*
X131752942Y-106418318D01*
X131741893Y-106416586D01*
X131730579Y-106414093D01*
X131719139Y-106410708D01*
X131713414Y-106408639D01*
X131707710Y-106406297D01*
X131702044Y-106403666D01*
X131696433Y-106400730D01*
X131690894Y-106397471D01*
X131685444Y-106393873D01*
X131680102Y-106389919D01*
X131674884Y-106385594D01*
X131669807Y-106380881D01*
X131664890Y-106375763D01*
X131660149Y-106370223D01*
X131655601Y-106364246D01*
X131651264Y-106357814D01*
X131647156Y-106350911D01*
X131642759Y-106342415D01*
X131638701Y-106333780D01*
X131634984Y-106325015D01*
X131631610Y-106316131D01*
X131628581Y-106307137D01*
X131625898Y-106298045D01*
X131623565Y-106288864D01*
X131621582Y-106279604D01*
X131619951Y-106270275D01*
X131618676Y-106260888D01*
X131617757Y-106251453D01*
X131617196Y-106241979D01*
X131616997Y-106232478D01*
X131617159Y-106222959D01*
X131617687Y-106213432D01*
X131618581Y-106203908D01*
X131617364Y-106205460D01*
X131616122Y-106206991D01*
X131613568Y-106209991D01*
X131610921Y-106212906D01*
X131608182Y-106215735D01*
X131605354Y-106218473D01*
X131602439Y-106221121D01*
X131599439Y-106223675D01*
X131597908Y-106224916D01*
X131596356Y-106226133D01*
X131588727Y-106231573D01*
X131580801Y-106236405D01*
X131572613Y-106240626D01*
X131564198Y-106244233D01*
X131555588Y-106247223D01*
X131546820Y-106249593D01*
X131537926Y-106251340D01*
X131528942Y-106252461D01*
X131519901Y-106252953D01*
X131510839Y-106252812D01*
X131501789Y-106252035D01*
X131492786Y-106250621D01*
X131483863Y-106248565D01*
X131475056Y-106245864D01*
X131466399Y-106242515D01*
X131457926Y-106238516D01*
X131442368Y-106231556D01*
X131427049Y-106224506D01*
X131396648Y-106210258D01*
X131296001Y-106162316D01*
X131266042Y-106148971D01*
X131235797Y-106136323D01*
X131205277Y-106124377D01*
X131174494Y-106113136D01*
X131143462Y-106102606D01*
X131112191Y-106092791D01*
X131080695Y-106083694D01*
X131048986Y-106075320D01*
X131016154Y-106068700D01*
X130983178Y-106062936D01*
X130950075Y-106058030D01*
X130916862Y-106053983D01*
X130883555Y-106050797D01*
X130850171Y-106048475D01*
X130816726Y-106047018D01*
X130783239Y-106046429D01*
X130728946Y-106046428D01*
X130702911Y-106046428D01*
X130674965Y-106046186D01*
X130647105Y-106045501D01*
X130619357Y-106044436D01*
X130591746Y-106043055D01*
X130537042Y-106039597D01*
X130483201Y-106035633D01*
X130475288Y-106034772D01*
X130467420Y-106033620D01*
X130459605Y-106032179D01*
X130451851Y-106030451D01*
X130444167Y-106028439D01*
X130436559Y-106026143D01*
X130429036Y-106023567D01*
X130421606Y-106020711D01*
X130419459Y-106019890D01*
X130417331Y-106019025D01*
X130415223Y-106018118D01*
X130413134Y-106017169D01*
X130411067Y-106016178D01*
X130409020Y-106015146D01*
X130406995Y-106014072D01*
X130404993Y-106012957D01*
X130403013Y-106011802D01*
X130401058Y-106010607D01*
X130399126Y-106009372D01*
X130397220Y-106008098D01*
X130395339Y-106006785D01*
X130393484Y-106005432D01*
X130391656Y-106004042D01*
X130389856Y-106002613D01*
X130368901Y-106066113D01*
X130348660Y-106129852D01*
X130329491Y-106193709D01*
X130320420Y-106225645D01*
X130311751Y-106257566D01*
X130304584Y-106281816D01*
X130298189Y-106306262D01*
X130292567Y-106330884D01*
X130287723Y-106355665D01*
X130283661Y-106380586D01*
X130280382Y-106405628D01*
X130277891Y-106430774D01*
X130276191Y-106456004D01*
X130276607Y-106474957D01*
X130277405Y-106493893D01*
X130278583Y-106512805D01*
X130280141Y-106531688D01*
X130282078Y-106550537D01*
X130284394Y-106569344D01*
X130287088Y-106588105D01*
X130290160Y-106606813D01*
X130284218Y-106617155D01*
X130278124Y-106626645D01*
X130271890Y-106635308D01*
X130265527Y-106643170D01*
X130259045Y-106650254D01*
X130252456Y-106656587D01*
X130245770Y-106662192D01*
X130238999Y-106667095D01*
X130232152Y-106671320D01*
X130225242Y-106674893D01*
X130218278Y-106677837D01*
X130211273Y-106680178D01*
X130204236Y-106681941D01*
X130197178Y-106683150D01*
X130190110Y-106683831D01*
X130183044Y-106684008D01*
X130175990Y-106683705D01*
X130168959Y-106682949D01*
X130161962Y-106681763D01*
X130155010Y-106680173D01*
X130148113Y-106678202D01*
X130141282Y-106675877D01*
X130134529Y-106673222D01*
X130127864Y-106670261D01*
X130114842Y-106663524D01*
X130102303Y-106655863D01*
X130090335Y-106647477D01*
X130079023Y-106638566D01*
X130075192Y-106615651D01*
X130071842Y-106592668D01*
X130068973Y-106569626D01*
X130066587Y-106546532D01*
X130064684Y-106523392D01*
X130063264Y-106500216D01*
X130062329Y-106477009D01*
X130061879Y-106453781D01*
X130063627Y-106421580D01*
X130066427Y-106389480D01*
X130070274Y-106357505D01*
X130075163Y-106325682D01*
X130081090Y-106294036D01*
X130088052Y-106262593D01*
X130096043Y-106231377D01*
X130105059Y-106200415D01*
X130117373Y-106155607D01*
X130130414Y-106110970D01*
X130144042Y-106066526D01*
X130158121Y-106022298D01*
X130187078Y-105934579D01*
X130216183Y-105847991D01*
X130217246Y-105844816D01*
X130958498Y-105844816D01*
X130976455Y-105846814D01*
X130994369Y-105849127D01*
X131012237Y-105851755D01*
X131030054Y-105854696D01*
X131047817Y-105857950D01*
X131065522Y-105861516D01*
X131083163Y-105865393D01*
X131100738Y-105869581D01*
X131132924Y-105878046D01*
X131164924Y-105887149D01*
X131196730Y-105896887D01*
X131228333Y-105907257D01*
X131259722Y-105918255D01*
X131290888Y-105929879D01*
X131321823Y-105942124D01*
X131352516Y-105954988D01*
X131330450Y-105900180D01*
X131309653Y-105845927D01*
X131290127Y-105792230D01*
X131271871Y-105739088D01*
X131192814Y-105764885D01*
X131113121Y-105791476D01*
X131074406Y-105804454D01*
X131035810Y-105817670D01*
X130958498Y-105844816D01*
X130217246Y-105844816D01*
X130230427Y-105805446D01*
X130455896Y-105805446D01*
X130602040Y-105747859D01*
X130749226Y-105692416D01*
X130798764Y-105674636D01*
X131475388Y-105674636D01*
X131476023Y-105675906D01*
X131495808Y-105732441D01*
X131517060Y-105789650D01*
X131539781Y-105847535D01*
X131563971Y-105906093D01*
X131567471Y-105914617D01*
X131570842Y-105923263D01*
X131574101Y-105932006D01*
X131577266Y-105940820D01*
X131583393Y-105958555D01*
X131589371Y-105976261D01*
X131596038Y-105996581D01*
X131597160Y-106000219D01*
X131598336Y-106003840D01*
X131599565Y-106007442D01*
X131600849Y-106011025D01*
X131602186Y-106014589D01*
X131603576Y-106018132D01*
X131605020Y-106021655D01*
X131606516Y-106025156D01*
X131613818Y-106038491D01*
X131615457Y-106041229D01*
X131617043Y-106043968D01*
X131618585Y-106046706D01*
X131620089Y-106049445D01*
X131623016Y-106054921D01*
X131625883Y-106060398D01*
X131627936Y-106064595D01*
X131629868Y-106068846D01*
X131631681Y-106073147D01*
X131633371Y-106077496D01*
X131634940Y-106081891D01*
X131636385Y-106086329D01*
X131637706Y-106090807D01*
X131638901Y-106095323D01*
X131638857Y-106094729D01*
X131638825Y-106094133D01*
X131638806Y-106093538D01*
X131638799Y-106092942D01*
X131638806Y-106092346D01*
X131638825Y-106091751D01*
X131638856Y-106091155D01*
X131638901Y-106090561D01*
X131641568Y-106083605D01*
X131644370Y-106076704D01*
X131647307Y-106069862D01*
X131650379Y-106063079D01*
X131653583Y-106056358D01*
X131656919Y-106049701D01*
X131660386Y-106043110D01*
X131663983Y-106036586D01*
X131672781Y-106022171D01*
X131681836Y-106007922D01*
X131691147Y-105993842D01*
X131700711Y-105979934D01*
X131710527Y-105966202D01*
X131720590Y-105952649D01*
X131730900Y-105939280D01*
X131741453Y-105926096D01*
X131763678Y-105897521D01*
X131811303Y-105834973D01*
X131835116Y-105803134D01*
X131858928Y-105770521D01*
X131874862Y-105749628D01*
X131891392Y-105729226D01*
X131908506Y-105709327D01*
X131926193Y-105689943D01*
X131944442Y-105671086D01*
X131963240Y-105652768D01*
X131982576Y-105635004D01*
X132002438Y-105617803D01*
X132013099Y-105608224D01*
X132023671Y-105598555D01*
X132044666Y-105579068D01*
X132050281Y-105573753D01*
X132056547Y-105567683D01*
X132070423Y-105553946D01*
X132085073Y-105539197D01*
X132099276Y-105524776D01*
X132131026Y-105493026D01*
X132134519Y-105489851D01*
X132110388Y-105495883D01*
X131955716Y-105535824D01*
X131798603Y-105578949D01*
X131638633Y-105625230D01*
X131475388Y-105674636D01*
X130798764Y-105674636D01*
X130897067Y-105639354D01*
X131045176Y-105588911D01*
X131211863Y-105533983D01*
X131198532Y-105479253D01*
X131186575Y-105424233D01*
X131175997Y-105368950D01*
X131166800Y-105313429D01*
X131158991Y-105257695D01*
X131152571Y-105201776D01*
X131147546Y-105145697D01*
X131143918Y-105089484D01*
X131131774Y-104867233D01*
X131117566Y-104644983D01*
X131117439Y-104637258D01*
X131117090Y-104629555D01*
X131116561Y-104621867D01*
X131115899Y-104614186D01*
X131112803Y-104583388D01*
X131109628Y-104546876D01*
X131106573Y-104514173D01*
X131103278Y-104481471D01*
X131103278Y-104482106D01*
X131089896Y-104501056D01*
X131076762Y-104520176D01*
X131063878Y-104539463D01*
X131051246Y-104558915D01*
X131038867Y-104578528D01*
X131026743Y-104598301D01*
X131014875Y-104618232D01*
X131003265Y-104638317D01*
X130957079Y-104716278D01*
X130911429Y-104795280D01*
X130889270Y-104835126D01*
X130867803Y-104875176D01*
X130847213Y-104915412D01*
X130827688Y-104955816D01*
X130822101Y-104967722D01*
X130816328Y-104979628D01*
X130804432Y-105003441D01*
X130792416Y-105027253D01*
X130780698Y-105051066D01*
X130766451Y-105078748D01*
X130752441Y-105106549D01*
X130738908Y-105134469D01*
X130732394Y-105148474D01*
X130726088Y-105162508D01*
X130706240Y-105207167D01*
X130685885Y-105251647D01*
X130644491Y-105340308D01*
X130622983Y-105384247D01*
X130602138Y-105428493D01*
X130581957Y-105473041D01*
X130562444Y-105517882D01*
X130543603Y-105563010D01*
X130525436Y-105608416D01*
X130507947Y-105654093D01*
X130491139Y-105700035D01*
X130455896Y-105805446D01*
X130230427Y-105805446D01*
X130288891Y-105630821D01*
X130306687Y-105581899D01*
X130325199Y-105533252D01*
X130344425Y-105484889D01*
X130364360Y-105436818D01*
X130385002Y-105389045D01*
X130406347Y-105341580D01*
X130428391Y-105294429D01*
X130451133Y-105247600D01*
X130491694Y-105161516D01*
X130511498Y-105118430D01*
X130530826Y-105075196D01*
X130537740Y-105059732D01*
X130544885Y-105044294D01*
X130559718Y-105013482D01*
X130575028Y-104982729D01*
X130590516Y-104952006D01*
X130601872Y-104930049D01*
X130613019Y-104908032D01*
X130623868Y-104886015D01*
X130634331Y-104864058D01*
X130655596Y-104820961D01*
X130677413Y-104778146D01*
X130699779Y-104735621D01*
X130722692Y-104693389D01*
X130746149Y-104651457D01*
X130770146Y-104609830D01*
X130794681Y-104568512D01*
X130819750Y-104527510D01*
X130837973Y-104495497D01*
X130857009Y-104463982D01*
X130876848Y-104432980D01*
X130897478Y-104402508D01*
X130918890Y-104372579D01*
X130941073Y-104343210D01*
X130964016Y-104314414D01*
X130987708Y-104286209D01*
X130992022Y-104281507D01*
X130996446Y-104276919D01*
X131000978Y-104272445D01*
X131005616Y-104268089D01*
X131010357Y-104263851D01*
X131015200Y-104259734D01*
X131020141Y-104255739D01*
X131025179Y-104251867D01*
X131030310Y-104248122D01*
X131035534Y-104244503D01*
X131040847Y-104241014D01*
X131046247Y-104237656D01*
X131051732Y-104234430D01*
X131057299Y-104231339D01*
X131062946Y-104228383D01*
X131068671Y-104225566D01*
X131075985Y-104222036D01*
X131083442Y-104218931D01*
X131091024Y-104216252D01*
X131098712Y-104213999D01*
X131106490Y-104212173D01*
X131114339Y-104210775D01*
X131122241Y-104209806D01*
X131130179Y-104209266D01*
X131138134Y-104209156D01*
X131146090Y-104209476D01*
X131154026Y-104210228D01*
X131161927Y-104211412D01*
X131169774Y-104213030D01*
X131177550Y-104215080D01*
X131185235Y-104217566D01*
X131192813Y-104220486D01*
X131197897Y-104222924D01*
X131202875Y-104225542D01*
X131207745Y-104228335D01*
X131212500Y-104231300D01*
X131217138Y-104234432D01*
X131221654Y-104237729D01*
X131226044Y-104241186D01*
X131230303Y-104244800D01*
X131234427Y-104248567D01*
X131238413Y-104252483D01*
X131242255Y-104256545D01*
X131245950Y-104260748D01*
X131249493Y-104265090D01*
X131252881Y-104269566D01*
X131256108Y-104274172D01*
X131259171Y-104278906D01*
X131262513Y-104284203D01*
X131265749Y-104289561D01*
X131268878Y-104294978D01*
X131271899Y-104300453D01*
X131274812Y-104305983D01*
X131277616Y-104311567D01*
X131280310Y-104317204D01*
X131282893Y-104322891D01*
X131285365Y-104328628D01*
X131287725Y-104334413D01*
X131289973Y-104340243D01*
X131292107Y-104346118D01*
X131294126Y-104352036D01*
X131296031Y-104357994D01*
X131297821Y-104363992D01*
X131299493Y-104370028D01*
X131303866Y-104389870D01*
X131307808Y-104409794D01*
X131311318Y-104429793D01*
X131314395Y-104449862D01*
X131317038Y-104469992D01*
X131319246Y-104490177D01*
X131321018Y-104510410D01*
X131322353Y-104530683D01*
X131325528Y-104565291D01*
X131326903Y-104581960D01*
X131328188Y-104598628D01*
X131330608Y-104631966D01*
X131344896Y-104855883D01*
X131357278Y-105079958D01*
X131360516Y-105129151D01*
X131364921Y-105178232D01*
X131370490Y-105227180D01*
X131377221Y-105275976D01*
X131385111Y-105324598D01*
X131394155Y-105373025D01*
X131404352Y-105421237D01*
X131415698Y-105469212D01*
X131580620Y-105419579D01*
X131742326Y-105373130D01*
X131901295Y-105329241D01*
X132058001Y-105287286D01*
X132143101Y-105266395D01*
X132228498Y-105246844D01*
X132313658Y-105228305D01*
X132398043Y-105210451D01*
X132423443Y-105205053D01*
X132430109Y-105203646D01*
X132436807Y-105202582D01*
X132443525Y-105201858D01*
X132450249Y-105201474D01*
X132456968Y-105201426D01*
X132463669Y-105201712D01*
X132470340Y-105202331D01*
X132476968Y-105203281D01*
X132483541Y-105204558D01*
X132490045Y-105206162D01*
X132496470Y-105208090D01*
X132502801Y-105210340D01*
X132509027Y-105212909D01*
X132515135Y-105215797D01*
X132521113Y-105219000D01*
X132526949Y-105222516D01*
X132531597Y-105226067D01*
X132536064Y-105229812D01*
X132540344Y-105233742D01*
X132544432Y-105237851D01*
X132548324Y-105242131D01*
X132552015Y-105246574D01*
X132555500Y-105251174D01*
X132558774Y-105255923D01*
X132561833Y-105260814D01*
X132564671Y-105265839D01*
X132567283Y-105270991D01*
X132569665Y-105276263D01*
X132571813Y-105281647D01*
X132573720Y-105287135D01*
X132575383Y-105292722D01*
X132576796Y-105298398D01*
X132577677Y-105304082D01*
X132578287Y-105309779D01*
X132578627Y-105315479D01*
X132578699Y-105321174D01*
X132578504Y-105326853D01*
X132578046Y-105332509D01*
X132577325Y-105338131D01*
X132576344Y-105343710D01*
X132575104Y-105349238D01*
X132573607Y-105354705D01*
X132571855Y-105360102D01*
X132569849Y-105365419D01*
X132567593Y-105370648D01*
X132565087Y-105375779D01*
X132562333Y-105380803D01*
X132559333Y-105385711D01*
X132554854Y-105392385D01*
X132550223Y-105398945D01*
X132545442Y-105405388D01*
X132540514Y-105411713D01*
X132535442Y-105417917D01*
X132530227Y-105423997D01*
X132524872Y-105429950D01*
X132519379Y-105435776D01*
X132513750Y-105441471D01*
X132507988Y-105447032D01*
X132502096Y-105452458D01*
X132496075Y-105457746D01*
X132489927Y-105462893D01*
X132483656Y-105467897D01*
X132477263Y-105472757D01*
X132470751Y-105477468D01*
X132446119Y-105496954D01*
X132421781Y-105516798D01*
X132397741Y-105536997D01*
X132374004Y-105557548D01*
X132350573Y-105578448D01*
X132327453Y-105599692D01*
X132304646Y-105621278D01*
X132282157Y-105643202D01*
X132250406Y-105674954D01*
X132220958Y-105704560D01*
X132206114Y-105719245D01*
X132198611Y-105726505D01*
X132191033Y-105733691D01*
X132185357Y-105739034D01*
X132179554Y-105744352D01*
X132167776Y-105754924D01*
X132156118Y-105765436D01*
X132150464Y-105770679D01*
X132144996Y-105775918D01*
X132129725Y-105789068D01*
X132114832Y-105802627D01*
X132100326Y-105816588D01*
X132086214Y-105830942D01*
X132072505Y-105845681D01*
X132059206Y-105860797D01*
X132046325Y-105876280D01*
X132033871Y-105892123D01*
X132021850Y-105909407D01*
X132009617Y-105926513D01*
X131997198Y-105943469D01*
X131984619Y-105960307D01*
X131959085Y-105993743D01*
X131933223Y-106027061D01*
X131910363Y-106056271D01*
X131902285Y-106066448D01*
X131894369Y-106076750D01*
X131886616Y-106087172D01*
X131879029Y-106097715D01*
X131871608Y-106108375D01*
X131864354Y-106119151D01*
X131857270Y-106130041D01*
X131850356Y-106141043D01*
X131848938Y-106143529D01*
X131847572Y-106146044D01*
X131846260Y-106148586D01*
X131845001Y-106151155D01*
X131843797Y-106153750D01*
X131842647Y-106156370D01*
X131841553Y-106159014D01*
X131840513Y-106161681D01*
X131839271Y-106165575D01*
X131838111Y-106169494D01*
X131837033Y-106173434D01*
X131836038Y-106177396D01*
X131835127Y-106181378D01*
X131834298Y-106185379D01*
X131833554Y-106189397D01*
X131832893Y-106193431D01*
X131832890Y-106194859D01*
X131832868Y-106196284D01*
X131832810Y-106197701D01*
X131832760Y-106198405D01*
X131832695Y-106199106D01*
X131832611Y-106199804D01*
X131832506Y-106200497D01*
X131832377Y-106201186D01*
X131832224Y-106201870D01*
X131832042Y-106202548D01*
X131831830Y-106203220D01*
X131831585Y-106203885D01*
X131831306Y-106204544D01*
X131844535Y-106204823D01*
X131857764Y-106204910D01*
X131870992Y-106204802D01*
X131884216Y-106204502D01*
X131897434Y-106204008D01*
X131910644Y-106203321D01*
X131923844Y-106202441D01*
X131937033Y-106201368D01*
X131952550Y-106199496D01*
X131968032Y-106196656D01*
X131983489Y-106192910D01*
X131998931Y-106188316D01*
X132014367Y-106182936D01*
X132029807Y-106176829D01*
X132045261Y-106170054D01*
X132060739Y-106162673D01*
X132076250Y-106154745D01*
X132091805Y-106146330D01*
X132123083Y-106128279D01*
X132154652Y-106109000D01*
X132186588Y-106088974D01*
X132215347Y-106070911D01*
X132242349Y-106053533D01*
X132255313Y-106044942D01*
X132267982Y-106036333D01*
X132280406Y-106027642D01*
X132292633Y-106018806D01*
X132316788Y-106000412D01*
X132340331Y-105981010D01*
X132363285Y-105960697D01*
X132385671Y-105939565D01*
X132407509Y-105917709D01*
X132428822Y-105895225D01*
X132449631Y-105872205D01*
X132469957Y-105848745D01*
X132489822Y-105824939D01*
X132509246Y-105800881D01*
X132546861Y-105752389D01*
X132582973Y-105704023D01*
X132617753Y-105656538D01*
X132622100Y-105650308D01*
X132626340Y-105644007D01*
X132630474Y-105637636D01*
X132634499Y-105631197D01*
X132638415Y-105624691D01*
X132642222Y-105618119D01*
X132645918Y-105611484D01*
X132649503Y-105604786D01*
X132654526Y-105595687D01*
X132659669Y-105586656D01*
X132664931Y-105577696D01*
X132670311Y-105568807D01*
X132675809Y-105559989D01*
X132681423Y-105551246D01*
X132687154Y-105542577D01*
X132693001Y-105533983D01*
X132728133Y-105481937D01*
X132762315Y-105429279D01*
X132795537Y-105376023D01*
X132827793Y-105322183D01*
X132859075Y-105267770D01*
X132889376Y-105212799D01*
X132918686Y-105157283D01*
X132946999Y-105101233D01*
X132948520Y-105098451D01*
X132949992Y-105095591D01*
X132951426Y-105092665D01*
X132952835Y-105089682D01*
X132958431Y-105077418D01*
X132963675Y-105066202D01*
X132968948Y-105055074D01*
X132971605Y-105049609D01*
X132974281Y-105044245D01*
X132976979Y-105039006D01*
X132979703Y-105033921D01*
X133009758Y-104979072D01*
X133038581Y-104923592D01*
X133066163Y-104867501D01*
X133092494Y-104810822D01*
X133117565Y-104753573D01*
X133141367Y-104695778D01*
X133163890Y-104637455D01*
X133185125Y-104578627D01*
X133187331Y-104572035D01*
X133189432Y-104565366D01*
X133191444Y-104558629D01*
X133193381Y-104551837D01*
X133197092Y-104538130D01*
X133200683Y-104524334D01*
X133209256Y-104492584D01*
X133221420Y-104452254D01*
X133232813Y-104411711D01*
X133243431Y-104370967D01*
X133253273Y-104330032D01*
X133262335Y-104288917D01*
X133270616Y-104247635D01*
X133278111Y-104206194D01*
X133284820Y-104164608D01*
X133285616Y-104159285D01*
X133286665Y-104154062D01*
X133287958Y-104148944D01*
X133289488Y-104143936D01*
X133291250Y-104139044D01*
X133293236Y-104134273D01*
X133295438Y-104129630D01*
X133297851Y-104125120D01*
X133300467Y-104120748D01*
X133303279Y-104116520D01*
X133306280Y-104112442D01*
X133309463Y-104108518D01*
X133312822Y-104104756D01*
X133316349Y-104101160D01*
X133320038Y-104097736D01*
X133323881Y-104094489D01*
X133327871Y-104091426D01*
X133332002Y-104088552D01*
X133336267Y-104085871D01*
X133340658Y-104083391D01*
X133345170Y-104081116D01*
X133349794Y-104079053D01*
X133354523Y-104077206D01*
X133359352Y-104075581D01*
X133364273Y-104074185D01*
X133369278Y-104073022D01*
X133374362Y-104072098D01*
X133379517Y-104071419D01*
X133384736Y-104070990D01*
X133390012Y-104070817D01*
X133395339Y-104070905D01*
X133400708Y-104071261D01*
X133409461Y-104072436D01*
X133418020Y-104074232D01*
X133426358Y-104076630D01*
X133434449Y-104079608D01*
X133442265Y-104083144D01*
X133449782Y-104087218D01*
X133456973Y-104091808D01*
X133463810Y-104096893D01*
X133470268Y-104102452D01*
X133476320Y-104108464D01*
X133481939Y-104114908D01*
X133487100Y-104121762D01*
X133491775Y-104129005D01*
X133495939Y-104136616D01*
X133499565Y-104144575D01*
X133502626Y-104152858D01*
X133503669Y-104156249D01*
X133504627Y-104159661D01*
X133505499Y-104163092D01*
X133506285Y-104166541D01*
X133506986Y-104170006D01*
X133507601Y-104173486D01*
X133508129Y-104176979D01*
X133508571Y-104180484D01*
X133508927Y-104183998D01*
X133509195Y-104187521D01*
X133509377Y-104191050D01*
X133509472Y-104194584D01*
X133509479Y-104198121D01*
X133509399Y-104201661D01*
X133509231Y-104205200D01*
X133508976Y-104208738D01*
X133504213Y-104278588D01*
X133496702Y-104384971D01*
X133491879Y-104438586D01*
X133485798Y-104492425D01*
X133478050Y-104546442D01*
X133468227Y-104600593D01*
X133462408Y-104627705D01*
X133455917Y-104654833D01*
X133448703Y-104681973D01*
X133440713Y-104709118D01*
X133423146Y-104766700D01*
X133406557Y-104825026D01*
X133390824Y-104883917D01*
X133375824Y-104943195D01*
X133347532Y-105062198D01*
X133320698Y-105180606D01*
X133309635Y-105228970D01*
X133298394Y-105276054D01*
X133287033Y-105322008D01*
X133275613Y-105366978D01*
X133254658Y-105451751D01*
X133241929Y-105506440D01*
X133229973Y-105561368D01*
X133218136Y-105616414D01*
X133205763Y-105671461D01*
X133200600Y-105698342D01*
X133195778Y-105725282D01*
X133191296Y-105752278D01*
X133187155Y-105779328D01*
X133183356Y-105806428D01*
X133179899Y-105833574D01*
X133176785Y-105860765D01*
X133174013Y-105887996D01*
X133171811Y-105910087D01*
X133169489Y-105932089D01*
X133167048Y-105954031D01*
X133164488Y-105975943D01*
X133198778Y-105908316D01*
X133201356Y-105902930D01*
X133203858Y-105897491D01*
X133208700Y-105886488D01*
X133218146Y-105864183D01*
X133234338Y-105826083D01*
X133242588Y-105808353D01*
X133250809Y-105790920D01*
X133254973Y-105782334D01*
X133259208Y-105773845D01*
X133263539Y-105765459D01*
X133267993Y-105757186D01*
X133272323Y-105749418D01*
X133276318Y-105742432D01*
X133280060Y-105736056D01*
X133283630Y-105730119D01*
X133290585Y-105718877D01*
X133297838Y-105707338D01*
X133358481Y-105612088D01*
X133378166Y-105579783D01*
X133398382Y-105547816D01*
X133419124Y-105516195D01*
X133440387Y-105484924D01*
X133462167Y-105454011D01*
X133484460Y-105423463D01*
X133507261Y-105393286D01*
X133530565Y-105363486D01*
X133537497Y-105354914D01*
X133544571Y-105346466D01*
X133551786Y-105338145D01*
X133559139Y-105329951D01*
X133566630Y-105321887D01*
X133574255Y-105313953D01*
X133582015Y-105306153D01*
X133589905Y-105298487D01*
X133597926Y-105290957D01*
X133606076Y-105283565D01*
X133614351Y-105276313D01*
X133622752Y-105269201D01*
X133631275Y-105262233D01*
X133639920Y-105255409D01*
X133648684Y-105248731D01*
X133657566Y-105242201D01*
X133666931Y-105235967D01*
X133676455Y-105229989D01*
X133686131Y-105224269D01*
X133695955Y-105218812D01*
X133705922Y-105213619D01*
X133716026Y-105208693D01*
X133726261Y-105204038D01*
X133736623Y-105199656D01*
X133752817Y-105193324D01*
X133769233Y-105187657D01*
X133785851Y-105182660D01*
X133802650Y-105178339D01*
X133819609Y-105174699D01*
X133836708Y-105171743D01*
X133853927Y-105169477D01*
X133871243Y-105167906D01*
X133881703Y-105166842D01*
X133892143Y-105166390D01*
X133902540Y-105166541D01*
X133912869Y-105167288D01*
X133923106Y-105168621D01*
X133933227Y-105170534D01*
X133943207Y-105173017D01*
X133953022Y-105176061D01*
X133962648Y-105179660D01*
X133972061Y-105183804D01*
X133981235Y-105188485D01*
X133990148Y-105193695D01*
X133998774Y-105199426D01*
X134007089Y-105205669D01*
X134015069Y-105212416D01*
X134022690Y-105219658D01*
X134030266Y-105228137D01*
X134037406Y-105236779D01*
X134050432Y-105254514D01*
X134061881Y-105272786D01*
X134071863Y-105291517D01*
X134080492Y-105310630D01*
X134087877Y-105330046D01*
X134094132Y-105349688D01*
X134099367Y-105369479D01*
X134103694Y-105389340D01*
X134107225Y-105409194D01*
X134110071Y-105428964D01*
X134112345Y-105448571D01*
X134115619Y-105486988D01*
X134117941Y-105523823D01*
X134117941Y-105545413D01*
X134119985Y-105588479D01*
X134121200Y-105631451D01*
X134121708Y-105674297D01*
X134121632Y-105716982D01*
X134120218Y-105801740D01*
X134117941Y-105885456D01*
X134116931Y-105922682D01*
X134116467Y-105958833D01*
X134116830Y-105993845D01*
X134118298Y-106027656D01*
X134119533Y-106044091D01*
X134121150Y-106060202D01*
X134123182Y-106075980D01*
X134125665Y-106091419D01*
X134128633Y-106106510D01*
X134132122Y-106121245D01*
X134136166Y-106135616D01*
X134140801Y-106149616D01*
X134141411Y-106151794D01*
X134142080Y-106153952D01*
X134142807Y-106156088D01*
X134143593Y-106158201D01*
X134144435Y-106160291D01*
X134145334Y-106162355D01*
X134146289Y-106164393D01*
X134147300Y-106166403D01*
X134148366Y-106168386D01*
X134149485Y-106170338D01*
X134150659Y-106172260D01*
X134151885Y-106174149D01*
X134153164Y-106176006D01*
X134154495Y-106177828D01*
X134155877Y-106179615D01*
X134157310Y-106181366D01*
X134165603Y-106183641D01*
X134173947Y-106185659D01*
X134182337Y-106187420D01*
X134190767Y-106188923D01*
X134199231Y-106190167D01*
X134207723Y-106191154D01*
X134216237Y-106191882D01*
X134224768Y-106192351D01*
X134233308Y-106192561D01*
X134241853Y-106192513D01*
X134250397Y-106192204D01*
X134258933Y-106191636D01*
X134267456Y-106190809D01*
X134275959Y-106189721D01*
X134284437Y-106188372D01*
X134292884Y-106186763D01*
X134294813Y-106186607D01*
X134296736Y-106186404D01*
X134298654Y-106186155D01*
X134300565Y-106185860D01*
X134302468Y-106185520D01*
X134304362Y-106185133D01*
X134306248Y-106184701D01*
X134308123Y-106184223D01*
X134310227Y-106183400D01*
X134312309Y-106182529D01*
X134314370Y-106181608D01*
X134316407Y-106180639D01*
X134318422Y-106179621D01*
X134320412Y-106178556D01*
X134322377Y-106177445D01*
X134324315Y-106176286D01*
X134332026Y-106171926D01*
X134339689Y-106167425D01*
X134347315Y-106162791D01*
X134354914Y-106158030D01*
X134362499Y-106153149D01*
X134370080Y-106148157D01*
X134385275Y-106137868D01*
X134385275Y-106132471D01*
X134382751Y-106114989D01*
X134380857Y-106097444D01*
X134379593Y-106079854D01*
X134378960Y-106062236D01*
X134378957Y-106044606D01*
X134379585Y-106026982D01*
X134380844Y-106009380D01*
X134382735Y-105991818D01*
X134384597Y-105978801D01*
X134599271Y-105978801D01*
X134621879Y-105961887D01*
X134644140Y-105944533D01*
X134666050Y-105926744D01*
X134687600Y-105908527D01*
X134708785Y-105889887D01*
X134729599Y-105870829D01*
X134750035Y-105851358D01*
X134770087Y-105831481D01*
X134790436Y-105810213D01*
X134810488Y-105788737D01*
X134820384Y-105777893D01*
X134830183Y-105766964D01*
X134839878Y-105755938D01*
X134849461Y-105744803D01*
X134858705Y-105733721D01*
X134867450Y-105722821D01*
X134875793Y-105712048D01*
X134883831Y-105701346D01*
X134891660Y-105690658D01*
X134899378Y-105679929D01*
X134914866Y-105658126D01*
X134924952Y-105643360D01*
X134935256Y-105628749D01*
X134945775Y-105614295D01*
X134956508Y-105600000D01*
X134967453Y-105585867D01*
X134978608Y-105571898D01*
X134989972Y-105558095D01*
X135001542Y-105544461D01*
X135019021Y-105524277D01*
X135034842Y-105505261D01*
X135049087Y-105487391D01*
X135061838Y-105470647D01*
X135073180Y-105455006D01*
X135083194Y-105440447D01*
X135091964Y-105426947D01*
X135099572Y-105414484D01*
X135106100Y-105403038D01*
X135111633Y-105392585D01*
X135116252Y-105383104D01*
X135120040Y-105374574D01*
X135125457Y-105360276D01*
X135128543Y-105349516D01*
X135120923Y-105348921D01*
X135118869Y-105348781D01*
X135116756Y-105348668D01*
X135114583Y-105348591D01*
X135112350Y-105348563D01*
X135105648Y-105348823D01*
X135098963Y-105349253D01*
X135092297Y-105349851D01*
X135085653Y-105350618D01*
X135079036Y-105351553D01*
X135072447Y-105352655D01*
X135065890Y-105353923D01*
X135059369Y-105355356D01*
X135052886Y-105356955D01*
X135046445Y-105358717D01*
X135040048Y-105360642D01*
X135033700Y-105362730D01*
X135027402Y-105364980D01*
X135021158Y-105367391D01*
X135014972Y-105369962D01*
X135008846Y-105372693D01*
X135000803Y-105376758D01*
X134992892Y-105381063D01*
X134985120Y-105385604D01*
X134977492Y-105390379D01*
X134970013Y-105395384D01*
X134962688Y-105400616D01*
X134955522Y-105406071D01*
X134948521Y-105411746D01*
X134913579Y-105441202D01*
X134880213Y-105471780D01*
X134848462Y-105503410D01*
X134818361Y-105536022D01*
X134789947Y-105569548D01*
X134763258Y-105603918D01*
X134738329Y-105639063D01*
X134715198Y-105674914D01*
X134693902Y-105711400D01*
X134674476Y-105748454D01*
X134656958Y-105786005D01*
X134641384Y-105823985D01*
X134627792Y-105862323D01*
X134616218Y-105900952D01*
X134606699Y-105939801D01*
X134599271Y-105978801D01*
X134384597Y-105978801D01*
X134390141Y-105940036D01*
X134400417Y-105888459D01*
G37*
X134400417Y-105888459D02*
X134413507Y-105837190D01*
X134429358Y-105786331D01*
X134447913Y-105735984D01*
X134469119Y-105686250D01*
X134492919Y-105637231D01*
X134519260Y-105589030D01*
X134548086Y-105541747D01*
X134579343Y-105495486D01*
X134612976Y-105450347D01*
X134648929Y-105406433D01*
X134687148Y-105363845D01*
X134727579Y-105322685D01*
X134770165Y-105283056D01*
X134814853Y-105245058D01*
X134827078Y-105235263D01*
X134839595Y-105225862D01*
X134852393Y-105216860D01*
X134865462Y-105208265D01*
X134878793Y-105200081D01*
X134892377Y-105192316D01*
X134906203Y-105184976D01*
X134920263Y-105178066D01*
X134944614Y-105167678D01*
X134969903Y-105158496D01*
X134995922Y-105150632D01*
X135022463Y-105144198D01*
X135049319Y-105139306D01*
X135076281Y-105136068D01*
X135103142Y-105134597D01*
X135129694Y-105135005D01*
X135155728Y-105137403D01*
X135181038Y-105141904D01*
X135193355Y-105144978D01*
X135205414Y-105148619D01*
X135217187Y-105152843D01*
X135228649Y-105157662D01*
X135239774Y-105163090D01*
X135250536Y-105169143D01*
X135260909Y-105175833D01*
X135270866Y-105183175D01*
X135280383Y-105191183D01*
X135289432Y-105199870D01*
X135297988Y-105209252D01*
X135306025Y-105219341D01*
X135316467Y-105234824D01*
X135325109Y-105250646D01*
X135332032Y-105266768D01*
X135337322Y-105283150D01*
X135341061Y-105299752D01*
X135343334Y-105316534D01*
X135344223Y-105333456D01*
X135343813Y-105350478D01*
X135342186Y-105367561D01*
X135339427Y-105384665D01*
X135335618Y-105401749D01*
X135330844Y-105418774D01*
X135325188Y-105435700D01*
X135318734Y-105452487D01*
X135303763Y-105485485D01*
X135286601Y-105517449D01*
X135267916Y-105548059D01*
X135248376Y-105576996D01*
X135228650Y-105603943D01*
X135191311Y-105650584D01*
X135161246Y-105685431D01*
X135151640Y-105696905D01*
X135142191Y-105708506D01*
X135132900Y-105720232D01*
X135123768Y-105732081D01*
X135114796Y-105744052D01*
X135105986Y-105756143D01*
X135097339Y-105768353D01*
X135088855Y-105780680D01*
X135070232Y-105807023D01*
X135060828Y-105820094D01*
X135051311Y-105833068D01*
X135041646Y-105845923D01*
X135031795Y-105858637D01*
X135021720Y-105871187D01*
X135011385Y-105883551D01*
X135000836Y-105895731D01*
X134990152Y-105907765D01*
X134979350Y-105919688D01*
X134968443Y-105931533D01*
X134924073Y-105978801D01*
X134903279Y-105999624D01*
X134882099Y-106020042D01*
X134860538Y-106040049D01*
X134838601Y-106059640D01*
X134816296Y-106078810D01*
X134793627Y-106097554D01*
X134770602Y-106115866D01*
X134747225Y-106133741D01*
X134756533Y-106132542D01*
X134765799Y-106131116D01*
X134775019Y-106129464D01*
X134784188Y-106127588D01*
X134793303Y-106125488D01*
X134802360Y-106123166D01*
X134811354Y-106120623D01*
X134820282Y-106117861D01*
X134829139Y-106114881D01*
X134837922Y-106111684D01*
X134846627Y-106108271D01*
X134855249Y-106104644D01*
X134863784Y-106100805D01*
X134872229Y-106096753D01*
X134880579Y-106092492D01*
X134888831Y-106088021D01*
X134904722Y-106078470D01*
X134920321Y-106068471D01*
X134935618Y-106058029D01*
X134950605Y-106047153D01*
X134965272Y-106035849D01*
X134979609Y-106024124D01*
X134993608Y-106011985D01*
X135007258Y-105999438D01*
X135029910Y-105978683D01*
X135052117Y-105957485D01*
X135073874Y-105935852D01*
X135095174Y-105913791D01*
X135116012Y-105891311D01*
X135136382Y-105868418D01*
X135156278Y-105845120D01*
X135175693Y-105821425D01*
X135194622Y-105797339D01*
X135213059Y-105772870D01*
X135230998Y-105748026D01*
X135248433Y-105722815D01*
X135265357Y-105697243D01*
X135281766Y-105671318D01*
X135297652Y-105645047D01*
X135313010Y-105618438D01*
X135316232Y-105613079D01*
X135319740Y-105607950D01*
X135323521Y-105603058D01*
X135327564Y-105598414D01*
X135331855Y-105594024D01*
X135336381Y-105589900D01*
X135341129Y-105586048D01*
X135346087Y-105582477D01*
X135351241Y-105579197D01*
X135356579Y-105576216D01*
X135362089Y-105573543D01*
X135367756Y-105571187D01*
X135373569Y-105569155D01*
X135379514Y-105567457D01*
X135385579Y-105566102D01*
X135391751Y-105565098D01*
X135397834Y-105564397D01*
X135403913Y-105564043D01*
X135409974Y-105564029D01*
X135416003Y-105564354D01*
X135421986Y-105565011D01*
X135427911Y-105565998D01*
X135433764Y-105567310D01*
X135439531Y-105568942D01*
X135445199Y-105570891D01*
X135450754Y-105573152D01*
X135456183Y-105575721D01*
X135461473Y-105578594D01*
X135466610Y-105581766D01*
X135471581Y-105585234D01*
X135476371Y-105588993D01*
X135480968Y-105593038D01*
X135484393Y-105596470D01*
X135487663Y-105600010D01*
X135490779Y-105603654D01*
X135493738Y-105607395D01*
X135499185Y-105615154D01*
X135503997Y-105623247D01*
X135508164Y-105631636D01*
X135511680Y-105640280D01*
X135514536Y-105649140D01*
X135516724Y-105658176D01*
X135518236Y-105667350D01*
X135519065Y-105676622D01*
X135519201Y-105685953D01*
X135518638Y-105695303D01*
X135517367Y-105704632D01*
X135515380Y-105713901D01*
X135514115Y-105718501D01*
X135512669Y-105723072D01*
X135511039Y-105727607D01*
X135509226Y-105732103D01*
X135504684Y-105748965D01*
X135500595Y-105765920D01*
X135496958Y-105782959D01*
X135493774Y-105800073D01*
X135491044Y-105817253D01*
X135488769Y-105834490D01*
X135486948Y-105851775D01*
X135485582Y-105869100D01*
X135484673Y-105886454D01*
X135484220Y-105903829D01*
X135484225Y-105921216D01*
X135484687Y-105938605D01*
X135485608Y-105955989D01*
X135486988Y-105973357D01*
X135488828Y-105990700D01*
X135491128Y-106008011D01*
X135492406Y-106009303D01*
X135493716Y-106010561D01*
X135495057Y-106011783D01*
X135496427Y-106012969D01*
X135497827Y-106014118D01*
X135499256Y-106015230D01*
X135500712Y-106016305D01*
X135502195Y-106017342D01*
X135503704Y-106018340D01*
X135505239Y-106019299D01*
X135506798Y-106020218D01*
X135508382Y-106021098D01*
X135509988Y-106021936D01*
X135511618Y-106022734D01*
X135513268Y-106023490D01*
X135514940Y-106024203D01*
X135521201Y-106027368D01*
X135527640Y-106030712D01*
X135534318Y-106034294D01*
X135541293Y-106038173D01*
X135546692Y-106041230D01*
X135552152Y-106044175D01*
X135557669Y-106047006D01*
X135563242Y-106049725D01*
X135568869Y-106052329D01*
X135574549Y-106054817D01*
X135580280Y-106057190D01*
X135586060Y-106059446D01*
X135611629Y-106069458D01*
X135637443Y-106078700D01*
X135663482Y-106087170D01*
X135689731Y-106094866D01*
X135716171Y-106101784D01*
X135742786Y-106107922D01*
X135769557Y-106113278D01*
X135796468Y-106117847D01*
X135823501Y-106121629D01*
X135850638Y-106124619D01*
X135877863Y-106126816D01*
X135905157Y-106128217D01*
X135932504Y-106128819D01*
X135959886Y-106128619D01*
X135987286Y-106127615D01*
X136014686Y-106125803D01*
X136021793Y-106125457D01*
X136028851Y-106125582D01*
X136035840Y-106126168D01*
X136042740Y-106127207D01*
X136049529Y-106128687D01*
X136056189Y-106130601D01*
X136062698Y-106132937D01*
X136069036Y-106135687D01*
X136075184Y-106138841D01*
X136081120Y-106142390D01*
X136086825Y-106146323D01*
X136092278Y-106150631D01*
X136097458Y-106155305D01*
X136102346Y-106160334D01*
X136106922Y-106165710D01*
X136111164Y-106171423D01*
X136115017Y-106177405D01*
X136118438Y-106183580D01*
X136121425Y-106189926D01*
X136123975Y-106196420D01*
X136126088Y-106203041D01*
X136127760Y-106209765D01*
X136128991Y-106216570D01*
X136129779Y-106223434D01*
X136130121Y-106230335D01*
X136130016Y-106237250D01*
X136129463Y-106244157D01*
X136128458Y-106251033D01*
X136127001Y-106257857D01*
X136125089Y-106264605D01*
X136122721Y-106271255D01*
X136119895Y-106277785D01*
X136118317Y-106280983D01*
X136116641Y-106284113D01*
X136114869Y-106287174D01*
X136113004Y-106290164D01*
X136111047Y-106293080D01*
X136109001Y-106295923D01*
X136104652Y-106301379D01*
X136099975Y-106306519D01*
X136094988Y-106311329D01*
X136089710Y-106315798D01*
X136084159Y-106319912D01*
X136078354Y-106323659D01*
X136072313Y-106327026D01*
X136066055Y-106330000D01*
X136059597Y-106332568D01*
X136052960Y-106334718D01*
X136049579Y-106335632D01*
X136046160Y-106336436D01*
X136042705Y-106337130D01*
X136039216Y-106337710D01*
X136035697Y-106338177D01*
X136032148Y-106338528D01*
X135998386Y-106340828D01*
X135964622Y-106342131D01*
X135930878Y-106342440D01*
X135897176Y-106341759D01*
X135863537Y-106340092D01*
X135829983Y-106337441D01*
X135796534Y-106333810D01*
X135763214Y-106329202D01*
X135730042Y-106323621D01*
X135697042Y-106317069D01*
X135664233Y-106309550D01*
X135631638Y-106301067D01*
X135599279Y-106291624D01*
X135567176Y-106281224D01*
X135535352Y-106269870D01*
X135503828Y-106257566D01*
X135494543Y-106253790D01*
X135485333Y-106249843D01*
X135476199Y-106245727D01*
X135467143Y-106241442D01*
X135458169Y-106236990D01*
X135449278Y-106232372D01*
X135440473Y-106227588D01*
X135431756Y-106222641D01*
X135416516Y-106214703D01*
X135409232Y-106211139D01*
X135402069Y-106207365D01*
X135395031Y-106203384D01*
X135388123Y-106199200D01*
X135381348Y-106194817D01*
X135374710Y-106190237D01*
X135368214Y-106185464D01*
X135361865Y-106180501D01*
X135355665Y-106175352D01*
X135349619Y-106170020D01*
X135343732Y-106164509D01*
X135338008Y-106158821D01*
X135332450Y-106152961D01*
X135327064Y-106146931D01*
X135321852Y-106140735D01*
X135316820Y-106134376D01*
X135312922Y-106128586D01*
X135309207Y-106122691D01*
X135305678Y-106116693D01*
X135302336Y-106110599D01*
X135299183Y-106104411D01*
X135296220Y-106098136D01*
X135293450Y-106091776D01*
X135290874Y-106085337D01*
X135288493Y-106078824D01*
X135286309Y-106072239D01*
X135284325Y-106065589D01*
X135282542Y-106058878D01*
X135280961Y-106052109D01*
X135279584Y-106045288D01*
X135278413Y-106038419D01*
X135277450Y-106031506D01*
X135262333Y-106048123D01*
X135246994Y-106064532D01*
X135231437Y-106080732D01*
X135215664Y-106096719D01*
X135199677Y-106112493D01*
X135183477Y-106128050D01*
X135167068Y-106143388D01*
X135150451Y-106158506D01*
X135132123Y-106175046D01*
X135113337Y-106191039D01*
X135094106Y-106206478D01*
X135074442Y-106221353D01*
X135054356Y-106235654D01*
X135033863Y-106249373D01*
X135012973Y-106262501D01*
X134991700Y-106275029D01*
X134969639Y-106286651D01*
X134947184Y-106297320D01*
X134924367Y-106307032D01*
X134901219Y-106315780D01*
X134877770Y-106323559D01*
X134854051Y-106330364D01*
X134830093Y-106336190D01*
X134805928Y-106341029D01*
X134781584Y-106344878D01*
X134757094Y-106347730D01*
X134732488Y-106349580D01*
X134707797Y-106350423D01*
X134683051Y-106350253D01*
X134658282Y-106349064D01*
X134633520Y-106346851D01*
X134608796Y-106343609D01*
X134602230Y-106342623D01*
X134595692Y-106341501D01*
X134589182Y-106340243D01*
X134582704Y-106338850D01*
X134569849Y-106335663D01*
X134557144Y-106331945D01*
X134544605Y-106327700D01*
X134532248Y-106322934D01*
X134526143Y-106320357D01*
X134520091Y-106317652D01*
X134514092Y-106314819D01*
X134508149Y-106311859D01*
X134498331Y-106318718D01*
X134488424Y-106325444D01*
X134478429Y-106332038D01*
X134468348Y-106338497D01*
X134458182Y-106344821D01*
X134447932Y-106351010D01*
X134437599Y-106357062D01*
X134427186Y-106362976D01*
X134420740Y-106366581D01*
X134414215Y-106370031D01*
X134407611Y-106373326D01*
X134400933Y-106376465D01*
X134394183Y-106379445D01*
X134387364Y-106382265D01*
X134380478Y-106384925D01*
X134373529Y-106387423D01*
X134366968Y-106389291D01*
X134360373Y-106391023D01*
X134353745Y-106392619D01*
X134347087Y-106394077D01*
X134340400Y-106395399D01*
X134333686Y-106396583D01*
X134326948Y-106397629D01*
X134320188Y-106398536D01*
X134304168Y-106401237D01*
X134288099Y-106403368D01*
X134271994Y-106404929D01*
X134255868Y-106405923D01*
X134239738Y-106406350D01*
X134223617Y-106406213D01*
X134207520Y-106405512D01*
X134191462Y-106404249D01*
X134175458Y-106402426D01*
X134159523Y-106400044D01*
X134143672Y-106397104D01*
X134127919Y-106393608D01*
X134112279Y-106389557D01*
X134096768Y-106384952D01*
X134081399Y-106379796D01*
X134066188Y-106374089D01*
X134054761Y-106367895D01*
X134043724Y-106361148D01*
X134033092Y-106353870D01*
X134022883Y-106346079D01*
X134013112Y-106337796D01*
X134003795Y-106329039D01*
X133994949Y-106319829D01*
X133986590Y-106310186D01*
X133978734Y-106300128D01*
X133971397Y-106289676D01*
X133964596Y-106278849D01*
X133958346Y-106267667D01*
X133952664Y-106256150D01*
X133947567Y-106244317D01*
X133943069Y-106232189D01*
X133939188Y-106219784D01*
X133931910Y-106197425D01*
X133925629Y-106174922D01*
X133920275Y-106152339D01*
X133915783Y-106129738D01*
X133912082Y-106107183D01*
X133909106Y-106084739D01*
X133906787Y-106062468D01*
X133905057Y-106040436D01*
X133903091Y-105997338D01*
X133902666Y-105955956D01*
X133903238Y-105916799D01*
X133904263Y-105880376D01*
X133906540Y-105799344D01*
X133907954Y-105718134D01*
X133908030Y-105677666D01*
X133907523Y-105637399D01*
X133906308Y-105597415D01*
X133904263Y-105557796D01*
X133904263Y-105534936D01*
X133904420Y-105525132D01*
X133904338Y-105515338D01*
X133904019Y-105505557D01*
X133903462Y-105495794D01*
X133902669Y-105486053D01*
X133901640Y-105476339D01*
X133900377Y-105466655D01*
X133898879Y-105457006D01*
X133897147Y-105447396D01*
X133895183Y-105437830D01*
X133892986Y-105428311D01*
X133890558Y-105418845D01*
X133887899Y-105409434D01*
X133885010Y-105400084D01*
X133881893Y-105390799D01*
X133878546Y-105381583D01*
X133870761Y-105382448D01*
X133863021Y-105383591D01*
X133855331Y-105385010D01*
X133847699Y-105386704D01*
X133840133Y-105388670D01*
X133832640Y-105390908D01*
X133825228Y-105393414D01*
X133817903Y-105396188D01*
X133812746Y-105398389D01*
X133807651Y-105400724D01*
X133802621Y-105403190D01*
X133797658Y-105405788D01*
X133792766Y-105408515D01*
X133787946Y-105411371D01*
X133783201Y-105414353D01*
X133778533Y-105417461D01*
X133772748Y-105421909D01*
X133767039Y-105426449D01*
X133761407Y-105431079D01*
X133755852Y-105435799D01*
X133750377Y-105440608D01*
X133744982Y-105445504D01*
X133739668Y-105450487D01*
X133734437Y-105455555D01*
X133729288Y-105460708D01*
X133724224Y-105465944D01*
X133719245Y-105471263D01*
X133714352Y-105476663D01*
X133709547Y-105482144D01*
X133704830Y-105487704D01*
X133700203Y-105493343D01*
X133695666Y-105499058D01*
X133674620Y-105526144D01*
X133654023Y-105553565D01*
X133633879Y-105581315D01*
X133614191Y-105609388D01*
X133594965Y-105637779D01*
X133576204Y-105666482D01*
X133557911Y-105695490D01*
X133540092Y-105724800D01*
X133479766Y-105820051D01*
X133473589Y-105829819D01*
X133467502Y-105839617D01*
X133464520Y-105844536D01*
X133461594Y-105849474D01*
X133458734Y-105854435D01*
X133455953Y-105859421D01*
X133453090Y-105864800D01*
X133450015Y-105870841D01*
X133446784Y-105877403D01*
X133443452Y-105884345D01*
X133436710Y-105898801D01*
X133430236Y-105913078D01*
X133426535Y-105921299D01*
X133423013Y-105929311D01*
X133416266Y-105944828D01*
X133410238Y-105959399D01*
X133404002Y-105973999D01*
X133400778Y-105981282D01*
X133397469Y-105988539D01*
X133394063Y-105995759D01*
X133390548Y-106002931D01*
X133342531Y-106096723D01*
X133293830Y-106190335D01*
X133244593Y-106283591D01*
X133194968Y-106376311D01*
X133182268Y-106399806D01*
X133180205Y-106404150D01*
X133177992Y-106408390D01*
X133175634Y-106412522D01*
X133173135Y-106416545D01*
X133170498Y-106420456D01*
X133167729Y-106424251D01*
X133164830Y-106427930D01*
X133161806Y-106431489D01*
X133158661Y-106434926D01*
X133155399Y-106438238D01*
X133152024Y-106441422D01*
X133148540Y-106444477D01*
X133144951Y-106447399D01*
X133141262Y-106450187D01*
X133137476Y-106452837D01*
X133133597Y-106455347D01*
X133129630Y-106457714D01*
X133125578Y-106459937D01*
X133121446Y-106462012D01*
X133117237Y-106463937D01*
X133112956Y-106465710D01*
X133108607Y-106467327D01*
X133104194Y-106468787D01*
X133099720Y-106470087D01*
X133095191Y-106471224D01*
X133090609Y-106472196D01*
X133085979Y-106473001D01*
X133081306Y-106473635D01*
X133076592Y-106474096D01*
X133071843Y-106474382D01*
X133067062Y-106474490D01*
X133062253Y-106474419D01*
X133053074Y-106473644D01*
X133044064Y-106472213D01*
X133035252Y-106470145D01*
X133026668Y-106467462D01*
X133018340Y-106464183D01*
X133010295Y-106460330D01*
X133002563Y-106455922D01*
X132995173Y-106450981D01*
X132988152Y-106445528D01*
X132981530Y-106439582D01*
X132975335Y-106433165D01*
X132969595Y-106426297D01*
X132964340Y-106418998D01*
X132959597Y-106411290D01*
X132955395Y-106403192D01*
X132951763Y-106394726D01*
X132950463Y-106391015D01*
X132949254Y-106387278D01*
X132948134Y-106383517D01*
X132947105Y-106379732D01*
X132946167Y-106375926D01*
X132945320Y-106372101D01*
X132944565Y-106368258D01*
X132943901Y-106364398D01*
X132943329Y-106360524D01*
X132942849Y-106356637D01*
X132942462Y-106352738D01*
X132942167Y-106348829D01*
X132941965Y-106344913D01*
X132941857Y-106340990D01*
X132941842Y-106337062D01*
X132941921Y-106333131D01*
X132941891Y-106308792D01*
X132941683Y-106283680D01*
X132941117Y-106258211D01*
X132940645Y-106245472D01*
X132940016Y-106232801D01*
X132938544Y-106204359D01*
X132937720Y-106175903D01*
X132937543Y-106147443D01*
X132938014Y-106118990D01*
X132939132Y-106090556D01*
X132940897Y-106062150D01*
X132943308Y-106033785D01*
X132946366Y-106005470D01*
X132951277Y-105970035D01*
X132955653Y-105934390D01*
X132963511Y-105863548D01*
X132966090Y-105833651D01*
X132969067Y-105803795D01*
X132972442Y-105773984D01*
X132976214Y-105744222D01*
X132980382Y-105714513D01*
X132984946Y-105684861D01*
X132989906Y-105655269D01*
X132995260Y-105625743D01*
X133019549Y-105511600D01*
X133032230Y-105454916D01*
X133045743Y-105398411D01*
X133059078Y-105345388D01*
X133037282Y-105385677D01*
X133014833Y-105425594D01*
X132991734Y-105465132D01*
X132967991Y-105504282D01*
X132943609Y-105543038D01*
X132918592Y-105581390D01*
X132892945Y-105619332D01*
X132866673Y-105656856D01*
X132862421Y-105663107D01*
X132858249Y-105669411D01*
X132854158Y-105675766D01*
X132850147Y-105682172D01*
X132846218Y-105688628D01*
X132842371Y-105695134D01*
X132838605Y-105701688D01*
X132834923Y-105708291D01*
X132829715Y-105717741D01*
X132824372Y-105727113D01*
X132818895Y-105736407D01*
X132813284Y-105745619D01*
X132807540Y-105754750D01*
X132801664Y-105763796D01*
X132795657Y-105772758D01*
X132789521Y-105781633D01*
X132751214Y-105833699D01*
X132711311Y-105886810D01*
X132669467Y-105940286D01*
X132625334Y-105993445D01*
X132602301Y-106019694D01*
X132578566Y-106045608D01*
X132554087Y-106071102D01*
X132528819Y-106096092D01*
X132502719Y-106120492D01*
X132475745Y-106144218D01*
X132447852Y-106167183D01*
X132418998Y-106189303D01*
X132405115Y-106199309D01*
X132391098Y-106209107D01*
X132376962Y-106218726D01*
X132362721Y-106228197D01*
X132333988Y-106246810D01*
X132305016Y-106265186D01*
X132265880Y-106290653D01*
X132225765Y-106315633D01*
X132205295Y-106327723D01*
X132184526Y-106339430D01*
X132163441Y-106350668D01*
X132142019Y-106361349D01*
X132120245Y-106371386D01*
X132098098Y-106380692D01*
X132075562Y-106389181D01*
X132052618Y-106396765D01*
X132029248Y-106403357D01*
X132005434Y-106408871D01*
X131981158Y-106413220D01*
X131956401Y-106416316D01*
X131939213Y-106417728D01*
X131922009Y-106418872D01*
X131904791Y-106419749D01*
X131887563Y-106420359D01*
X131870327Y-106420702D01*
X131853087Y-106420778D01*
X131835846Y-106420585D01*
X131818607Y-106420126D01*
X131805906Y-106420126D01*
X131791714Y-106420277D01*
X131773689Y-106420027D01*
X131763587Y-106419421D01*
X131752942Y-106418318D01*
X131741893Y-106416586D01*
X131730579Y-106414093D01*
X131719139Y-106410708D01*
X131713414Y-106408639D01*
X131707710Y-106406297D01*
X131702044Y-106403666D01*
X131696433Y-106400730D01*
X131690894Y-106397471D01*
X131685444Y-106393873D01*
X131680102Y-106389919D01*
X131674884Y-106385594D01*
X131669807Y-106380881D01*
X131664890Y-106375763D01*
X131660149Y-106370223D01*
X131655601Y-106364246D01*
X131651264Y-106357814D01*
X131647156Y-106350911D01*
X131642759Y-106342415D01*
X131638701Y-106333780D01*
X131634984Y-106325015D01*
X131631610Y-106316131D01*
X131628581Y-106307137D01*
X131625898Y-106298045D01*
X131623565Y-106288864D01*
X131621582Y-106279604D01*
X131619951Y-106270275D01*
X131618676Y-106260888D01*
X131617757Y-106251453D01*
X131617196Y-106241979D01*
X131616997Y-106232478D01*
X131617159Y-106222959D01*
X131617687Y-106213432D01*
X131618581Y-106203908D01*
X131617364Y-106205460D01*
X131616122Y-106206991D01*
X131613568Y-106209991D01*
X131610921Y-106212906D01*
X131608182Y-106215735D01*
X131605354Y-106218473D01*
X131602439Y-106221121D01*
X131599439Y-106223675D01*
X131597908Y-106224916D01*
X131596356Y-106226133D01*
X131588727Y-106231573D01*
X131580801Y-106236405D01*
X131572613Y-106240626D01*
X131564198Y-106244233D01*
X131555588Y-106247223D01*
X131546820Y-106249593D01*
X131537926Y-106251340D01*
X131528942Y-106252461D01*
X131519901Y-106252953D01*
X131510839Y-106252812D01*
X131501789Y-106252035D01*
X131492786Y-106250621D01*
X131483863Y-106248565D01*
X131475056Y-106245864D01*
X131466399Y-106242515D01*
X131457926Y-106238516D01*
X131442368Y-106231556D01*
X131427049Y-106224506D01*
X131396648Y-106210258D01*
X131296001Y-106162316D01*
X131266042Y-106148971D01*
X131235797Y-106136323D01*
X131205277Y-106124377D01*
X131174494Y-106113136D01*
X131143462Y-106102606D01*
X131112191Y-106092791D01*
X131080695Y-106083694D01*
X131048986Y-106075320D01*
X131016154Y-106068700D01*
X130983178Y-106062936D01*
X130950075Y-106058030D01*
X130916862Y-106053983D01*
X130883555Y-106050797D01*
X130850171Y-106048475D01*
X130816726Y-106047018D01*
X130783239Y-106046429D01*
X130728946Y-106046428D01*
X130702911Y-106046428D01*
X130674965Y-106046186D01*
X130647105Y-106045501D01*
X130619357Y-106044436D01*
X130591746Y-106043055D01*
X130537042Y-106039597D01*
X130483201Y-106035633D01*
X130475288Y-106034772D01*
X130467420Y-106033620D01*
X130459605Y-106032179D01*
X130451851Y-106030451D01*
X130444167Y-106028439D01*
X130436559Y-106026143D01*
X130429036Y-106023567D01*
X130421606Y-106020711D01*
X130419459Y-106019890D01*
X130417331Y-106019025D01*
X130415223Y-106018118D01*
X130413134Y-106017169D01*
X130411067Y-106016178D01*
X130409020Y-106015146D01*
X130406995Y-106014072D01*
X130404993Y-106012957D01*
X130403013Y-106011802D01*
X130401058Y-106010607D01*
X130399126Y-106009372D01*
X130397220Y-106008098D01*
X130395339Y-106006785D01*
X130393484Y-106005432D01*
X130391656Y-106004042D01*
X130389856Y-106002613D01*
X130368901Y-106066113D01*
X130348660Y-106129852D01*
X130329491Y-106193709D01*
X130320420Y-106225645D01*
X130311751Y-106257566D01*
X130304584Y-106281816D01*
X130298189Y-106306262D01*
X130292567Y-106330884D01*
X130287723Y-106355665D01*
X130283661Y-106380586D01*
X130280382Y-106405628D01*
X130277891Y-106430774D01*
X130276191Y-106456004D01*
X130276607Y-106474957D01*
X130277405Y-106493893D01*
X130278583Y-106512805D01*
X130280141Y-106531688D01*
X130282078Y-106550537D01*
X130284394Y-106569344D01*
X130287088Y-106588105D01*
X130290160Y-106606813D01*
X130284218Y-106617155D01*
X130278124Y-106626645D01*
X130271890Y-106635308D01*
X130265527Y-106643170D01*
X130259045Y-106650254D01*
X130252456Y-106656587D01*
X130245770Y-106662192D01*
X130238999Y-106667095D01*
X130232152Y-106671320D01*
X130225242Y-106674893D01*
X130218278Y-106677837D01*
X130211273Y-106680178D01*
X130204236Y-106681941D01*
X130197178Y-106683150D01*
X130190110Y-106683831D01*
X130183044Y-106684008D01*
X130175990Y-106683705D01*
X130168959Y-106682949D01*
X130161962Y-106681763D01*
X130155010Y-106680173D01*
X130148113Y-106678202D01*
X130141282Y-106675877D01*
X130134529Y-106673222D01*
X130127864Y-106670261D01*
X130114842Y-106663524D01*
X130102303Y-106655863D01*
X130090335Y-106647477D01*
X130079023Y-106638566D01*
X130075192Y-106615651D01*
X130071842Y-106592668D01*
X130068973Y-106569626D01*
X130066587Y-106546532D01*
X130064684Y-106523392D01*
X130063264Y-106500216D01*
X130062329Y-106477009D01*
X130061879Y-106453781D01*
X130063627Y-106421580D01*
X130066427Y-106389480D01*
X130070274Y-106357505D01*
X130075163Y-106325682D01*
X130081090Y-106294036D01*
X130088052Y-106262593D01*
X130096043Y-106231377D01*
X130105059Y-106200415D01*
X130117373Y-106155607D01*
X130130414Y-106110970D01*
X130144042Y-106066526D01*
X130158121Y-106022298D01*
X130187078Y-105934579D01*
X130216183Y-105847991D01*
X130217246Y-105844816D01*
X130958498Y-105844816D01*
X130976455Y-105846814D01*
X130994369Y-105849127D01*
X131012237Y-105851755D01*
X131030054Y-105854696D01*
X131047817Y-105857950D01*
X131065522Y-105861516D01*
X131083163Y-105865393D01*
X131100738Y-105869581D01*
X131132924Y-105878046D01*
X131164924Y-105887149D01*
X131196730Y-105896887D01*
X131228333Y-105907257D01*
X131259722Y-105918255D01*
X131290888Y-105929879D01*
X131321823Y-105942124D01*
X131352516Y-105954988D01*
X131330450Y-105900180D01*
X131309653Y-105845927D01*
X131290127Y-105792230D01*
X131271871Y-105739088D01*
X131192814Y-105764885D01*
X131113121Y-105791476D01*
X131074406Y-105804454D01*
X131035810Y-105817670D01*
X130958498Y-105844816D01*
X130217246Y-105844816D01*
X130230427Y-105805446D01*
X130455896Y-105805446D01*
X130602040Y-105747859D01*
X130749226Y-105692416D01*
X130798764Y-105674636D01*
X131475388Y-105674636D01*
X131476023Y-105675906D01*
X131495808Y-105732441D01*
X131517060Y-105789650D01*
X131539781Y-105847535D01*
X131563971Y-105906093D01*
X131567471Y-105914617D01*
X131570842Y-105923263D01*
X131574101Y-105932006D01*
X131577266Y-105940820D01*
X131583393Y-105958555D01*
X131589371Y-105976261D01*
X131596038Y-105996581D01*
X131597160Y-106000219D01*
X131598336Y-106003840D01*
X131599565Y-106007442D01*
X131600849Y-106011025D01*
X131602186Y-106014589D01*
X131603576Y-106018132D01*
X131605020Y-106021655D01*
X131606516Y-106025156D01*
X131613818Y-106038491D01*
X131615457Y-106041229D01*
X131617043Y-106043968D01*
X131618585Y-106046706D01*
X131620089Y-106049445D01*
X131623016Y-106054921D01*
X131625883Y-106060398D01*
X131627936Y-106064595D01*
X131629868Y-106068846D01*
X131631681Y-106073147D01*
X131633371Y-106077496D01*
X131634940Y-106081891D01*
X131636385Y-106086329D01*
X131637706Y-106090807D01*
X131638901Y-106095323D01*
X131638857Y-106094729D01*
X131638825Y-106094133D01*
X131638806Y-106093538D01*
X131638799Y-106092942D01*
X131638806Y-106092346D01*
X131638825Y-106091751D01*
X131638856Y-106091155D01*
X131638901Y-106090561D01*
X131641568Y-106083605D01*
X131644370Y-106076704D01*
X131647307Y-106069862D01*
X131650379Y-106063079D01*
X131653583Y-106056358D01*
X131656919Y-106049701D01*
X131660386Y-106043110D01*
X131663983Y-106036586D01*
X131672781Y-106022171D01*
X131681836Y-106007922D01*
X131691147Y-105993842D01*
X131700711Y-105979934D01*
X131710527Y-105966202D01*
X131720590Y-105952649D01*
X131730900Y-105939280D01*
X131741453Y-105926096D01*
X131763678Y-105897521D01*
X131811303Y-105834973D01*
X131835116Y-105803134D01*
X131858928Y-105770521D01*
X131874862Y-105749628D01*
X131891392Y-105729226D01*
X131908506Y-105709327D01*
X131926193Y-105689943D01*
X131944442Y-105671086D01*
X131963240Y-105652768D01*
X131982576Y-105635004D01*
X132002438Y-105617803D01*
X132013099Y-105608224D01*
X132023671Y-105598555D01*
X132044666Y-105579068D01*
X132050281Y-105573753D01*
X132056547Y-105567683D01*
X132070423Y-105553946D01*
X132085073Y-105539197D01*
X132099276Y-105524776D01*
X132131026Y-105493026D01*
X132134519Y-105489851D01*
X132110388Y-105495883D01*
X131955716Y-105535824D01*
X131798603Y-105578949D01*
X131638633Y-105625230D01*
X131475388Y-105674636D01*
X130798764Y-105674636D01*
X130897067Y-105639354D01*
X131045176Y-105588911D01*
X131211863Y-105533983D01*
X131198532Y-105479253D01*
X131186575Y-105424233D01*
X131175997Y-105368950D01*
X131166800Y-105313429D01*
X131158991Y-105257695D01*
X131152571Y-105201776D01*
X131147546Y-105145697D01*
X131143918Y-105089484D01*
X131131774Y-104867233D01*
X131117566Y-104644983D01*
X131117439Y-104637258D01*
X131117090Y-104629555D01*
X131116561Y-104621867D01*
X131115899Y-104614186D01*
X131112803Y-104583388D01*
X131109628Y-104546876D01*
X131106573Y-104514173D01*
X131103278Y-104481471D01*
X131103278Y-104482106D01*
X131089896Y-104501056D01*
X131076762Y-104520176D01*
X131063878Y-104539463D01*
X131051246Y-104558915D01*
X131038867Y-104578528D01*
X131026743Y-104598301D01*
X131014875Y-104618232D01*
X131003265Y-104638317D01*
X130957079Y-104716278D01*
X130911429Y-104795280D01*
X130889270Y-104835126D01*
X130867803Y-104875176D01*
X130847213Y-104915412D01*
X130827688Y-104955816D01*
X130822101Y-104967722D01*
X130816328Y-104979628D01*
X130804432Y-105003441D01*
X130792416Y-105027253D01*
X130780698Y-105051066D01*
X130766451Y-105078748D01*
X130752441Y-105106549D01*
X130738908Y-105134469D01*
X130732394Y-105148474D01*
X130726088Y-105162508D01*
X130706240Y-105207167D01*
X130685885Y-105251647D01*
X130644491Y-105340308D01*
X130622983Y-105384247D01*
X130602138Y-105428493D01*
X130581957Y-105473041D01*
X130562444Y-105517882D01*
X130543603Y-105563010D01*
X130525436Y-105608416D01*
X130507947Y-105654093D01*
X130491139Y-105700035D01*
X130455896Y-105805446D01*
X130230427Y-105805446D01*
X130288891Y-105630821D01*
X130306687Y-105581899D01*
X130325199Y-105533252D01*
X130344425Y-105484889D01*
X130364360Y-105436818D01*
X130385002Y-105389045D01*
X130406347Y-105341580D01*
X130428391Y-105294429D01*
X130451133Y-105247600D01*
X130491694Y-105161516D01*
X130511498Y-105118430D01*
X130530826Y-105075196D01*
X130537740Y-105059732D01*
X130544885Y-105044294D01*
X130559718Y-105013482D01*
X130575028Y-104982729D01*
X130590516Y-104952006D01*
X130601872Y-104930049D01*
X130613019Y-104908032D01*
X130623868Y-104886015D01*
X130634331Y-104864058D01*
X130655596Y-104820961D01*
X130677413Y-104778146D01*
X130699779Y-104735621D01*
X130722692Y-104693389D01*
X130746149Y-104651457D01*
X130770146Y-104609830D01*
X130794681Y-104568512D01*
X130819750Y-104527510D01*
X130837973Y-104495497D01*
X130857009Y-104463982D01*
X130876848Y-104432980D01*
X130897478Y-104402508D01*
X130918890Y-104372579D01*
X130941073Y-104343210D01*
X130964016Y-104314414D01*
X130987708Y-104286209D01*
X130992022Y-104281507D01*
X130996446Y-104276919D01*
X131000978Y-104272445D01*
X131005616Y-104268089D01*
X131010357Y-104263851D01*
X131015200Y-104259734D01*
X131020141Y-104255739D01*
X131025179Y-104251867D01*
X131030310Y-104248122D01*
X131035534Y-104244503D01*
X131040847Y-104241014D01*
X131046247Y-104237656D01*
X131051732Y-104234430D01*
X131057299Y-104231339D01*
X131062946Y-104228383D01*
X131068671Y-104225566D01*
X131075985Y-104222036D01*
X131083442Y-104218931D01*
X131091024Y-104216252D01*
X131098712Y-104213999D01*
X131106490Y-104212173D01*
X131114339Y-104210775D01*
X131122241Y-104209806D01*
X131130179Y-104209266D01*
X131138134Y-104209156D01*
X131146090Y-104209476D01*
X131154026Y-104210228D01*
X131161927Y-104211412D01*
X131169774Y-104213030D01*
X131177550Y-104215080D01*
X131185235Y-104217566D01*
X131192813Y-104220486D01*
X131197897Y-104222924D01*
X131202875Y-104225542D01*
X131207745Y-104228335D01*
X131212500Y-104231300D01*
X131217138Y-104234432D01*
X131221654Y-104237729D01*
X131226044Y-104241186D01*
X131230303Y-104244800D01*
X131234427Y-104248567D01*
X131238413Y-104252483D01*
X131242255Y-104256545D01*
X131245950Y-104260748D01*
X131249493Y-104265090D01*
X131252881Y-104269566D01*
X131256108Y-104274172D01*
X131259171Y-104278906D01*
X131262513Y-104284203D01*
X131265749Y-104289561D01*
X131268878Y-104294978D01*
X131271899Y-104300453D01*
X131274812Y-104305983D01*
X131277616Y-104311567D01*
X131280310Y-104317204D01*
X131282893Y-104322891D01*
X131285365Y-104328628D01*
X131287725Y-104334413D01*
X131289973Y-104340243D01*
X131292107Y-104346118D01*
X131294126Y-104352036D01*
X131296031Y-104357994D01*
X131297821Y-104363992D01*
X131299493Y-104370028D01*
X131303866Y-104389870D01*
X131307808Y-104409794D01*
X131311318Y-104429793D01*
X131314395Y-104449862D01*
X131317038Y-104469992D01*
X131319246Y-104490177D01*
X131321018Y-104510410D01*
X131322353Y-104530683D01*
X131325528Y-104565291D01*
X131326903Y-104581960D01*
X131328188Y-104598628D01*
X131330608Y-104631966D01*
X131344896Y-104855883D01*
X131357278Y-105079958D01*
X131360516Y-105129151D01*
X131364921Y-105178232D01*
X131370490Y-105227180D01*
X131377221Y-105275976D01*
X131385111Y-105324598D01*
X131394155Y-105373025D01*
X131404352Y-105421237D01*
X131415698Y-105469212D01*
X131580620Y-105419579D01*
X131742326Y-105373130D01*
X131901295Y-105329241D01*
X132058001Y-105287286D01*
X132143101Y-105266395D01*
X132228498Y-105246844D01*
X132313658Y-105228305D01*
X132398043Y-105210451D01*
X132423443Y-105205053D01*
X132430109Y-105203646D01*
X132436807Y-105202582D01*
X132443525Y-105201858D01*
X132450249Y-105201474D01*
X132456968Y-105201426D01*
X132463669Y-105201712D01*
X132470340Y-105202331D01*
X132476968Y-105203281D01*
X132483541Y-105204558D01*
X132490045Y-105206162D01*
X132496470Y-105208090D01*
X132502801Y-105210340D01*
X132509027Y-105212909D01*
X132515135Y-105215797D01*
X132521113Y-105219000D01*
X132526949Y-105222516D01*
X132531597Y-105226067D01*
X132536064Y-105229812D01*
X132540344Y-105233742D01*
X132544432Y-105237851D01*
X132548324Y-105242131D01*
X132552015Y-105246574D01*
X132555500Y-105251174D01*
X132558774Y-105255923D01*
X132561833Y-105260814D01*
X132564671Y-105265839D01*
X132567283Y-105270991D01*
X132569665Y-105276263D01*
X132571813Y-105281647D01*
X132573720Y-105287135D01*
X132575383Y-105292722D01*
X132576796Y-105298398D01*
X132577677Y-105304082D01*
X132578287Y-105309779D01*
X132578627Y-105315479D01*
X132578699Y-105321174D01*
X132578504Y-105326853D01*
X132578046Y-105332509D01*
X132577325Y-105338131D01*
X132576344Y-105343710D01*
X132575104Y-105349238D01*
X132573607Y-105354705D01*
X132571855Y-105360102D01*
X132569849Y-105365419D01*
X132567593Y-105370648D01*
X132565087Y-105375779D01*
X132562333Y-105380803D01*
X132559333Y-105385711D01*
X132554854Y-105392385D01*
X132550223Y-105398945D01*
X132545442Y-105405388D01*
X132540514Y-105411713D01*
X132535442Y-105417917D01*
X132530227Y-105423997D01*
X132524872Y-105429950D01*
X132519379Y-105435776D01*
X132513750Y-105441471D01*
X132507988Y-105447032D01*
X132502096Y-105452458D01*
X132496075Y-105457746D01*
X132489927Y-105462893D01*
X132483656Y-105467897D01*
X132477263Y-105472757D01*
X132470751Y-105477468D01*
X132446119Y-105496954D01*
X132421781Y-105516798D01*
X132397741Y-105536997D01*
X132374004Y-105557548D01*
X132350573Y-105578448D01*
X132327453Y-105599692D01*
X132304646Y-105621278D01*
X132282157Y-105643202D01*
X132250406Y-105674954D01*
X132220958Y-105704560D01*
X132206114Y-105719245D01*
X132198611Y-105726505D01*
X132191033Y-105733691D01*
X132185357Y-105739034D01*
X132179554Y-105744352D01*
X132167776Y-105754924D01*
X132156118Y-105765436D01*
X132150464Y-105770679D01*
X132144996Y-105775918D01*
X132129725Y-105789068D01*
X132114832Y-105802627D01*
X132100326Y-105816588D01*
X132086214Y-105830942D01*
X132072505Y-105845681D01*
X132059206Y-105860797D01*
X132046325Y-105876280D01*
X132033871Y-105892123D01*
X132021850Y-105909407D01*
X132009617Y-105926513D01*
X131997198Y-105943469D01*
X131984619Y-105960307D01*
X131959085Y-105993743D01*
X131933223Y-106027061D01*
X131910363Y-106056271D01*
X131902285Y-106066448D01*
X131894369Y-106076750D01*
X131886616Y-106087172D01*
X131879029Y-106097715D01*
X131871608Y-106108375D01*
X131864354Y-106119151D01*
X131857270Y-106130041D01*
X131850356Y-106141043D01*
X131848938Y-106143529D01*
X131847572Y-106146044D01*
X131846260Y-106148586D01*
X131845001Y-106151155D01*
X131843797Y-106153750D01*
X131842647Y-106156370D01*
X131841553Y-106159014D01*
X131840513Y-106161681D01*
X131839271Y-106165575D01*
X131838111Y-106169494D01*
X131837033Y-106173434D01*
X131836038Y-106177396D01*
X131835127Y-106181378D01*
X131834298Y-106185379D01*
X131833554Y-106189397D01*
X131832893Y-106193431D01*
X131832890Y-106194859D01*
X131832868Y-106196284D01*
X131832810Y-106197701D01*
X131832760Y-106198405D01*
X131832695Y-106199106D01*
X131832611Y-106199804D01*
X131832506Y-106200497D01*
X131832377Y-106201186D01*
X131832224Y-106201870D01*
X131832042Y-106202548D01*
X131831830Y-106203220D01*
X131831585Y-106203885D01*
X131831306Y-106204544D01*
X131844535Y-106204823D01*
X131857764Y-106204910D01*
X131870992Y-106204802D01*
X131884216Y-106204502D01*
X131897434Y-106204008D01*
X131910644Y-106203321D01*
X131923844Y-106202441D01*
X131937033Y-106201368D01*
X131952550Y-106199496D01*
X131968032Y-106196656D01*
X131983489Y-106192910D01*
X131998931Y-106188316D01*
X132014367Y-106182936D01*
X132029807Y-106176829D01*
X132045261Y-106170054D01*
X132060739Y-106162673D01*
X132076250Y-106154745D01*
X132091805Y-106146330D01*
X132123083Y-106128279D01*
X132154652Y-106109000D01*
X132186588Y-106088974D01*
X132215347Y-106070911D01*
X132242349Y-106053533D01*
X132255313Y-106044942D01*
X132267982Y-106036333D01*
X132280406Y-106027642D01*
X132292633Y-106018806D01*
X132316788Y-106000412D01*
X132340331Y-105981010D01*
X132363285Y-105960697D01*
X132385671Y-105939565D01*
X132407509Y-105917709D01*
X132428822Y-105895225D01*
X132449631Y-105872205D01*
X132469957Y-105848745D01*
X132489822Y-105824939D01*
X132509246Y-105800881D01*
X132546861Y-105752389D01*
X132582973Y-105704023D01*
X132617753Y-105656538D01*
X132622100Y-105650308D01*
X132626340Y-105644007D01*
X132630474Y-105637636D01*
X132634499Y-105631197D01*
X132638415Y-105624691D01*
X132642222Y-105618119D01*
X132645918Y-105611484D01*
X132649503Y-105604786D01*
X132654526Y-105595687D01*
X132659669Y-105586656D01*
X132664931Y-105577696D01*
X132670311Y-105568807D01*
X132675809Y-105559989D01*
X132681423Y-105551246D01*
X132687154Y-105542577D01*
X132693001Y-105533983D01*
X132728133Y-105481937D01*
X132762315Y-105429279D01*
X132795537Y-105376023D01*
X132827793Y-105322183D01*
X132859075Y-105267770D01*
X132889376Y-105212799D01*
X132918686Y-105157283D01*
X132946999Y-105101233D01*
X132948520Y-105098451D01*
X132949992Y-105095591D01*
X132951426Y-105092665D01*
X132952835Y-105089682D01*
X132958431Y-105077418D01*
X132963675Y-105066202D01*
X132968948Y-105055074D01*
X132971605Y-105049609D01*
X132974281Y-105044245D01*
X132976979Y-105039006D01*
X132979703Y-105033921D01*
X133009758Y-104979072D01*
X133038581Y-104923592D01*
X133066163Y-104867501D01*
X133092494Y-104810822D01*
X133117565Y-104753573D01*
X133141367Y-104695778D01*
X133163890Y-104637455D01*
X133185125Y-104578627D01*
X133187331Y-104572035D01*
X133189432Y-104565366D01*
X133191444Y-104558629D01*
X133193381Y-104551837D01*
X133197092Y-104538130D01*
X133200683Y-104524334D01*
X133209256Y-104492584D01*
X133221420Y-104452254D01*
X133232813Y-104411711D01*
X133243431Y-104370967D01*
X133253273Y-104330032D01*
X133262335Y-104288917D01*
X133270616Y-104247635D01*
X133278111Y-104206194D01*
X133284820Y-104164608D01*
X133285616Y-104159285D01*
X133286665Y-104154062D01*
X133287958Y-104148944D01*
X133289488Y-104143936D01*
X133291250Y-104139044D01*
X133293236Y-104134273D01*
X133295438Y-104129630D01*
X133297851Y-104125120D01*
X133300467Y-104120748D01*
X133303279Y-104116520D01*
X133306280Y-104112442D01*
X133309463Y-104108518D01*
X133312822Y-104104756D01*
X133316349Y-104101160D01*
X133320038Y-104097736D01*
X133323881Y-104094489D01*
X133327871Y-104091426D01*
X133332002Y-104088552D01*
X133336267Y-104085871D01*
X133340658Y-104083391D01*
X133345170Y-104081116D01*
X133349794Y-104079053D01*
X133354523Y-104077206D01*
X133359352Y-104075581D01*
X133364273Y-104074185D01*
X133369278Y-104073022D01*
X133374362Y-104072098D01*
X133379517Y-104071419D01*
X133384736Y-104070990D01*
X133390012Y-104070817D01*
X133395339Y-104070905D01*
X133400708Y-104071261D01*
X133409461Y-104072436D01*
X133418020Y-104074232D01*
X133426358Y-104076630D01*
X133434449Y-104079608D01*
X133442265Y-104083144D01*
X133449782Y-104087218D01*
X133456973Y-104091808D01*
X133463810Y-104096893D01*
X133470268Y-104102452D01*
X133476320Y-104108464D01*
X133481939Y-104114908D01*
X133487100Y-104121762D01*
X133491775Y-104129005D01*
X133495939Y-104136616D01*
X133499565Y-104144575D01*
X133502626Y-104152858D01*
X133503669Y-104156249D01*
X133504627Y-104159661D01*
X133505499Y-104163092D01*
X133506285Y-104166541D01*
X133506986Y-104170006D01*
X133507601Y-104173486D01*
X133508129Y-104176979D01*
X133508571Y-104180484D01*
X133508927Y-104183998D01*
X133509195Y-104187521D01*
X133509377Y-104191050D01*
X133509472Y-104194584D01*
X133509479Y-104198121D01*
X133509399Y-104201661D01*
X133509231Y-104205200D01*
X133508976Y-104208738D01*
X133504213Y-104278588D01*
X133496702Y-104384971D01*
X133491879Y-104438586D01*
X133485798Y-104492425D01*
X133478050Y-104546442D01*
X133468227Y-104600593D01*
X133462408Y-104627705D01*
X133455917Y-104654833D01*
X133448703Y-104681973D01*
X133440713Y-104709118D01*
X133423146Y-104766700D01*
X133406557Y-104825026D01*
X133390824Y-104883917D01*
X133375824Y-104943195D01*
X133347532Y-105062198D01*
X133320698Y-105180606D01*
X133309635Y-105228970D01*
X133298394Y-105276054D01*
X133287033Y-105322008D01*
X133275613Y-105366978D01*
X133254658Y-105451751D01*
X133241929Y-105506440D01*
X133229973Y-105561368D01*
X133218136Y-105616414D01*
X133205763Y-105671461D01*
X133200600Y-105698342D01*
X133195778Y-105725282D01*
X133191296Y-105752278D01*
X133187155Y-105779328D01*
X133183356Y-105806428D01*
X133179899Y-105833574D01*
X133176785Y-105860765D01*
X133174013Y-105887996D01*
X133171811Y-105910087D01*
X133169489Y-105932089D01*
X133167048Y-105954031D01*
X133164488Y-105975943D01*
X133198778Y-105908316D01*
X133201356Y-105902930D01*
X133203858Y-105897491D01*
X133208700Y-105886488D01*
X133218146Y-105864183D01*
X133234338Y-105826083D01*
X133242588Y-105808353D01*
X133250809Y-105790920D01*
X133254973Y-105782334D01*
X133259208Y-105773845D01*
X133263539Y-105765459D01*
X133267993Y-105757186D01*
X133272323Y-105749418D01*
X133276318Y-105742432D01*
X133280060Y-105736056D01*
X133283630Y-105730119D01*
X133290585Y-105718877D01*
X133297838Y-105707338D01*
X133358481Y-105612088D01*
X133378166Y-105579783D01*
X133398382Y-105547816D01*
X133419124Y-105516195D01*
X133440387Y-105484924D01*
X133462167Y-105454011D01*
X133484460Y-105423463D01*
X133507261Y-105393286D01*
X133530565Y-105363486D01*
X133537497Y-105354914D01*
X133544571Y-105346466D01*
X133551786Y-105338145D01*
X133559139Y-105329951D01*
X133566630Y-105321887D01*
X133574255Y-105313953D01*
X133582015Y-105306153D01*
X133589905Y-105298487D01*
X133597926Y-105290957D01*
X133606076Y-105283565D01*
X133614351Y-105276313D01*
X133622752Y-105269201D01*
X133631275Y-105262233D01*
X133639920Y-105255409D01*
X133648684Y-105248731D01*
X133657566Y-105242201D01*
X133666931Y-105235967D01*
X133676455Y-105229989D01*
X133686131Y-105224269D01*
X133695955Y-105218812D01*
X133705922Y-105213619D01*
X133716026Y-105208693D01*
X133726261Y-105204038D01*
X133736623Y-105199656D01*
X133752817Y-105193324D01*
X133769233Y-105187657D01*
X133785851Y-105182660D01*
X133802650Y-105178339D01*
X133819609Y-105174699D01*
X133836708Y-105171743D01*
X133853927Y-105169477D01*
X133871243Y-105167906D01*
X133881703Y-105166842D01*
X133892143Y-105166390D01*
X133902540Y-105166541D01*
X133912869Y-105167288D01*
X133923106Y-105168621D01*
X133933227Y-105170534D01*
X133943207Y-105173017D01*
X133953022Y-105176061D01*
X133962648Y-105179660D01*
X133972061Y-105183804D01*
X133981235Y-105188485D01*
X133990148Y-105193695D01*
X133998774Y-105199426D01*
X134007089Y-105205669D01*
X134015069Y-105212416D01*
X134022690Y-105219658D01*
X134030266Y-105228137D01*
X134037406Y-105236779D01*
X134050432Y-105254514D01*
X134061881Y-105272786D01*
X134071863Y-105291517D01*
X134080492Y-105310630D01*
X134087877Y-105330046D01*
X134094132Y-105349688D01*
X134099367Y-105369479D01*
X134103694Y-105389340D01*
X134107225Y-105409194D01*
X134110071Y-105428964D01*
X134112345Y-105448571D01*
X134115619Y-105486988D01*
X134117941Y-105523823D01*
X134117941Y-105545413D01*
X134119985Y-105588479D01*
X134121200Y-105631451D01*
X134121708Y-105674297D01*
X134121632Y-105716982D01*
X134120218Y-105801740D01*
X134117941Y-105885456D01*
X134116931Y-105922682D01*
X134116467Y-105958833D01*
X134116830Y-105993845D01*
X134118298Y-106027656D01*
X134119533Y-106044091D01*
X134121150Y-106060202D01*
X134123182Y-106075980D01*
X134125665Y-106091419D01*
X134128633Y-106106510D01*
X134132122Y-106121245D01*
X134136166Y-106135616D01*
X134140801Y-106149616D01*
X134141411Y-106151794D01*
X134142080Y-106153952D01*
X134142807Y-106156088D01*
X134143593Y-106158201D01*
X134144435Y-106160291D01*
X134145334Y-106162355D01*
X134146289Y-106164393D01*
X134147300Y-106166403D01*
X134148366Y-106168386D01*
X134149485Y-106170338D01*
X134150659Y-106172260D01*
X134151885Y-106174149D01*
X134153164Y-106176006D01*
X134154495Y-106177828D01*
X134155877Y-106179615D01*
X134157310Y-106181366D01*
X134165603Y-106183641D01*
X134173947Y-106185659D01*
X134182337Y-106187420D01*
X134190767Y-106188923D01*
X134199231Y-106190167D01*
X134207723Y-106191154D01*
X134216237Y-106191882D01*
X134224768Y-106192351D01*
X134233308Y-106192561D01*
X134241853Y-106192513D01*
X134250397Y-106192204D01*
X134258933Y-106191636D01*
X134267456Y-106190809D01*
X134275959Y-106189721D01*
X134284437Y-106188372D01*
X134292884Y-106186763D01*
X134294813Y-106186607D01*
X134296736Y-106186404D01*
X134298654Y-106186155D01*
X134300565Y-106185860D01*
X134302468Y-106185520D01*
X134304362Y-106185133D01*
X134306248Y-106184701D01*
X134308123Y-106184223D01*
X134310227Y-106183400D01*
X134312309Y-106182529D01*
X134314370Y-106181608D01*
X134316407Y-106180639D01*
X134318422Y-106179621D01*
X134320412Y-106178556D01*
X134322377Y-106177445D01*
X134324315Y-106176286D01*
X134332026Y-106171926D01*
X134339689Y-106167425D01*
X134347315Y-106162791D01*
X134354914Y-106158030D01*
X134362499Y-106153149D01*
X134370080Y-106148157D01*
X134385275Y-106137868D01*
X134385275Y-106132471D01*
X134382751Y-106114989D01*
X134380857Y-106097444D01*
X134379593Y-106079854D01*
X134378960Y-106062236D01*
X134378957Y-106044606D01*
X134379585Y-106026982D01*
X134380844Y-106009380D01*
X134382735Y-105991818D01*
X134384597Y-105978801D01*
X134599271Y-105978801D01*
X134621879Y-105961887D01*
X134644140Y-105944533D01*
X134666050Y-105926744D01*
X134687600Y-105908527D01*
X134708785Y-105889887D01*
X134729599Y-105870829D01*
X134750035Y-105851358D01*
X134770087Y-105831481D01*
X134790436Y-105810213D01*
X134810488Y-105788737D01*
X134820384Y-105777893D01*
X134830183Y-105766964D01*
X134839878Y-105755938D01*
X134849461Y-105744803D01*
X134858705Y-105733721D01*
X134867450Y-105722821D01*
X134875793Y-105712048D01*
X134883831Y-105701346D01*
X134891660Y-105690658D01*
X134899378Y-105679929D01*
X134914866Y-105658126D01*
X134924952Y-105643360D01*
X134935256Y-105628749D01*
X134945775Y-105614295D01*
X134956508Y-105600000D01*
X134967453Y-105585867D01*
X134978608Y-105571898D01*
X134989972Y-105558095D01*
X135001542Y-105544461D01*
X135019021Y-105524277D01*
X135034842Y-105505261D01*
X135049087Y-105487391D01*
X135061838Y-105470647D01*
X135073180Y-105455006D01*
X135083194Y-105440447D01*
X135091964Y-105426947D01*
X135099572Y-105414484D01*
X135106100Y-105403038D01*
X135111633Y-105392585D01*
X135116252Y-105383104D01*
X135120040Y-105374574D01*
X135125457Y-105360276D01*
X135128543Y-105349516D01*
X135120923Y-105348921D01*
X135118869Y-105348781D01*
X135116756Y-105348668D01*
X135114583Y-105348591D01*
X135112350Y-105348563D01*
X135105648Y-105348823D01*
X135098963Y-105349253D01*
X135092297Y-105349851D01*
X135085653Y-105350618D01*
X135079036Y-105351553D01*
X135072447Y-105352655D01*
X135065890Y-105353923D01*
X135059369Y-105355356D01*
X135052886Y-105356955D01*
X135046445Y-105358717D01*
X135040048Y-105360642D01*
X135033700Y-105362730D01*
X135027402Y-105364980D01*
X135021158Y-105367391D01*
X135014972Y-105369962D01*
X135008846Y-105372693D01*
X135000803Y-105376758D01*
X134992892Y-105381063D01*
X134985120Y-105385604D01*
X134977492Y-105390379D01*
X134970013Y-105395384D01*
X134962688Y-105400616D01*
X134955522Y-105406071D01*
X134948521Y-105411746D01*
X134913579Y-105441202D01*
X134880213Y-105471780D01*
X134848462Y-105503410D01*
X134818361Y-105536022D01*
X134789947Y-105569548D01*
X134763258Y-105603918D01*
X134738329Y-105639063D01*
X134715198Y-105674914D01*
X134693902Y-105711400D01*
X134674476Y-105748454D01*
X134656958Y-105786005D01*
X134641384Y-105823985D01*
X134627792Y-105862323D01*
X134616218Y-105900952D01*
X134606699Y-105939801D01*
X134599271Y-105978801D01*
X134384597Y-105978801D01*
X134390141Y-105940036D01*
X134400417Y-105888459D01*
D11*
%TO.C,C24*%
X113434800Y-115296400D03*
X113434800Y-116256400D03*
%TD*%
D12*
%TO.C,C16*%
X114554000Y-103400800D03*
X114554000Y-102440800D03*
%TD*%
D13*
%TO.C,J4*%
X119278400Y-103835200D03*
D14*
X120528400Y-103835200D03*
%TD*%
D15*
%TO.C,U7*%
X108407200Y-106772075D03*
X108407200Y-107172125D03*
X108407200Y-107572175D03*
X108407200Y-107972225D03*
X108407200Y-108372275D03*
X108407200Y-108772325D03*
X108407200Y-109172375D03*
X108407200Y-109572425D03*
X108407200Y-109972475D03*
X108407200Y-110372525D03*
X108407200Y-110772575D03*
X108407200Y-111172625D03*
X108407200Y-111572675D03*
X108407200Y-111972725D03*
D16*
X109210475Y-112776000D03*
X109610525Y-112776000D03*
X110010575Y-112776000D03*
X110410625Y-112776000D03*
X110810675Y-112776000D03*
X111210725Y-112776000D03*
X111610775Y-112776000D03*
X112010825Y-112776000D03*
X112410875Y-112776000D03*
X112810925Y-112776000D03*
X113210975Y-112776000D03*
X113611025Y-112776000D03*
X114011075Y-112776000D03*
X114411125Y-112776000D03*
D15*
X115214400Y-111972725D03*
X115214400Y-111572675D03*
X115214400Y-111172625D03*
X115214400Y-110772575D03*
X115214400Y-110372525D03*
X115214400Y-109972475D03*
X115214400Y-109572425D03*
X115214400Y-109172375D03*
X115214400Y-108772325D03*
X115214400Y-108372275D03*
X115214400Y-107972225D03*
X115214400Y-107572175D03*
X115214400Y-107172125D03*
X115214400Y-106772075D03*
D16*
X114411125Y-105968800D03*
X114011075Y-105968800D03*
X113611025Y-105968800D03*
X113210975Y-105968800D03*
X112810925Y-105968800D03*
X112410875Y-105968800D03*
X112010825Y-105968800D03*
X111610775Y-105968800D03*
X111210725Y-105968800D03*
X110810675Y-105968800D03*
X110410625Y-105968800D03*
X110010575Y-105968800D03*
X109610525Y-105968800D03*
X109210475Y-105968800D03*
D17*
X111810800Y-109372400D03*
%TD*%
D18*
%TO.C,C19*%
X117477600Y-110896400D03*
X118437600Y-110896400D03*
%TD*%
D19*
%TO.C,U9*%
X127085601Y-109296200D03*
X126085600Y-109296200D03*
X125085599Y-109296200D03*
X125085599Y-112191800D03*
X126085600Y-112191800D03*
X127085601Y-112191800D03*
D20*
X126085600Y-110744000D03*
%TD*%
D21*
%TO.C,J9*%
X133451600Y-118561600D03*
D22*
X134951600Y-114241600D03*
D23*
X131951600Y-114241600D03*
%TD*%
D24*
%TO.C,R5*%
X108968000Y-100838000D03*
X107948000Y-100838000D03*
%TD*%
D25*
%TO.C,J7*%
X102710400Y-116444400D03*
D26*
X102710400Y-115194400D03*
X102710400Y-113944400D03*
X102710400Y-112694400D03*
X102710400Y-111444400D03*
%TD*%
D27*
%TO.C,C32*%
X143306800Y-126630421D03*
D28*
X143306800Y-129130421D03*
%TD*%
D29*
%TO.C,J3*%
X112471200Y-101142800D03*
%TD*%
D12*
%TO.C,C18*%
X115468400Y-103400800D03*
X115468400Y-102440800D03*
%TD*%
D30*
%TO.C,R14*%
X115579600Y-98806000D03*
X116599600Y-98806000D03*
%TD*%
D24*
%TO.C,R7*%
X128018000Y-98145600D03*
X126998000Y-98145600D03*
%TD*%
D31*
%TO.C,J11*%
X119892600Y-115151200D03*
X121142600Y-115151200D03*
X122392600Y-115151200D03*
X123642600Y-115151200D03*
D32*
X126192600Y-118051200D03*
X117342600Y-118051200D03*
%TD*%
D12*
%TO.C,C15*%
X112623600Y-103400800D03*
X112623600Y-102440800D03*
%TD*%
%TO.C,C23*%
X106426000Y-109852400D03*
X106426000Y-108892400D03*
%TD*%
D33*
%TO.C,H2*%
X121564400Y-108661200D03*
%TD*%
D34*
%TO.C,D2*%
X127304800Y-102503200D03*
X127304800Y-101103200D03*
%TD*%
D30*
%TO.C,R12*%
X117447600Y-108051600D03*
X118467600Y-108051600D03*
%TD*%
D35*
%TO.C,J2*%
X123901200Y-99314000D03*
D26*
X123901200Y-100564000D03*
X123901200Y-101814000D03*
%TD*%
D12*
%TO.C,C4*%
X113436400Y-118386800D03*
X113436400Y-117426800D03*
%TD*%
D25*
%TO.C,J8*%
X141572400Y-120528400D03*
D26*
X141572400Y-119278400D03*
X141572400Y-118028400D03*
%TD*%
D33*
%TO.C,H1*%
X109575600Y-121361200D03*
%TD*%
D36*
%TO.C,C29*%
X126057600Y-113538000D03*
X125097600Y-113538000D03*
%TD*%
%TO.C,C13*%
X118437600Y-107137200D03*
X117477600Y-107137200D03*
%TD*%
D29*
%TO.C,TP1*%
X111963200Y-118567200D03*
%TD*%
D24*
%TO.C,R4*%
X108968000Y-99923600D03*
X107948000Y-99923600D03*
%TD*%
D37*
%TO.C,R11*%
X112369600Y-115266400D03*
X112369600Y-116286400D03*
%TD*%
D30*
%TO.C,R8*%
X141120400Y-110337600D03*
X142140400Y-110337600D03*
%TD*%
D38*
%TO.C,Y1*%
X108780400Y-116081200D03*
X109980400Y-116081200D03*
X111180400Y-116081200D03*
%TD*%
D24*
%TO.C,R6*%
X128018000Y-99974400D03*
X126998000Y-99974400D03*
%TD*%
D36*
%TO.C,C17*%
X116558000Y-99720400D03*
X115598000Y-99720400D03*
%TD*%
D25*
%TO.C,J10*%
X102717600Y-107797600D03*
D26*
X102717600Y-106547600D03*
X102717600Y-105297600D03*
X102717600Y-104047600D03*
X102717600Y-102797600D03*
%TD*%
D25*
%TO.C,J5*%
X145230000Y-113568800D03*
D26*
X145230000Y-112318800D03*
X145230000Y-111068800D03*
%TD*%
D24*
%TO.C,R10*%
X142140400Y-111353600D03*
X141120400Y-111353600D03*
%TD*%
D21*
%TO.C,J1*%
X144215600Y-103581200D03*
D39*
X139895600Y-102081200D03*
D40*
X139895600Y-105081200D03*
%TD*%
D12*
%TO.C,C21*%
X113538000Y-103400800D03*
X113538000Y-102440800D03*
%TD*%
%TO.C,C20*%
X116433600Y-105890000D03*
X116433600Y-104930000D03*
%TD*%
D41*
%TO.C,U4*%
X108126400Y-101967599D03*
X108126400Y-102467600D03*
X108126400Y-102967600D03*
X108126400Y-103467601D03*
X110923200Y-103467601D03*
X110923200Y-102967600D03*
X110923200Y-102467600D03*
X110923200Y-101967599D03*
D42*
X109524800Y-102717600D03*
%TD*%
D30*
%TO.C,R15*%
X115590800Y-100634800D03*
X116610800Y-100634800D03*
%TD*%
D36*
%TO.C,C3*%
X111071600Y-99923600D03*
X110111600Y-99923600D03*
%TD*%
D18*
%TO.C,C11*%
X127028000Y-99060000D03*
X127988000Y-99060000D03*
%TD*%
D12*
%TO.C,C22*%
X107137200Y-105940800D03*
X107137200Y-104980800D03*
%TD*%
D43*
%TO.C,U5*%
X137444900Y-109946400D03*
X137444900Y-110896400D03*
X137444900Y-111846400D03*
X139719900Y-111846400D03*
X139719900Y-110896400D03*
X139719900Y-109946400D03*
%TD*%
D37*
%TO.C,R1*%
X114350800Y-117396800D03*
X114350800Y-118416800D03*
%TD*%
D36*
%TO.C,C2*%
X111071600Y-100838000D03*
X110111600Y-100838000D03*
%TD*%
D11*
%TO.C,C14*%
X114452400Y-115293200D03*
X114452400Y-116253200D03*
%TD*%
D13*
%TO.C,J6*%
X119278400Y-99872800D03*
D14*
X120528400Y-99872800D03*
%TD*%
D30*
%TO.C,R9*%
X117447600Y-106220800D03*
X118467600Y-106220800D03*
%TD*%
D44*
%TO.C,J12*%
X141734800Y-132546000D03*
D45*
X139734800Y-132546000D03*
X137734800Y-132546000D03*
X135734800Y-132546000D03*
%TD*%
M02*
