G04 Layer: TopLayer*
G04 EasyEDA v6.5.9, 2022-08-01 21:18:00*
G04 ac5e******************************************aa,10*
G04 Gerber Generator version 0.2*
G04 Scale: 100 percent, Rotated: No, Reflected: No *
G04 Dimensions in millimeters *
G04 leading zeros omitted , absolute positions ,4 integer and 5 decimal *
%TF.GenerationSoftware,KiCad,Pcbnew,(6.0.6)*%
%TF.CreationDate,2022-09-22T21:47:15+08:00*%
%TF.ProjectId,Stealthburner_Toolhead_PCB,53746561-6c74-4686-9275-726e65725f54,rev?*%
%TF.SameCoordinates,Original*%
%TF.FileFunction,Soldermask,Bot*%
%TF.FilePolarity,Negative*%
%FSLAX46Y46*%
G04 Gerber Fmt 4.6, Leading zero omitted, Abs format (unit mm)*
G04 Created by KiCad (PCBNEW (6.0.6)) date 2022-09-22 21:47:15*
%MOMM*%
%LPD*%
G01*
G04 APERTURE LIST*
G04 Aperture macros list*
%AMRoundRect*
0 Rectangle with rounded corners*
0 $1 Rounding radius*
0 $2 $3 $4 $5 $6 $7 $8 $9 X,Y pos of 4 corners*
0 Add a 4 corners polygon primitive as box body*
4,1,4,$2,$3,$4,$5,$6,$7,$8,$9,$2,$3,0*
0 Add four circle primitives for the rounded corners*
1,1,$1+$1,$2,$3*
1,1,$1+$1,$4,$5*
1,1,$1+$1,$6,$7*
1,1,$1+$1,$8,$9*
0 Add four rect primitives between the rounded corners*
20,1,$1+$1,$2,$3,$4,$5,0*
20,1,$1+$1,$4,$5,$6,$7,0*
20,1,$1+$1,$6,$7,$8,$9,0*
20,1,$1+$1,$8,$9,$2,$3,0*%
%AMFreePoly0*
4,1,17,1.370000,0.720000,0.950000,0.720000,0.950000,0.580000,1.370000,0.580000,1.370000,0.080000,0.950000,0.080000,0.950000,-0.080000,1.370000,-0.080000,1.370000,-0.580000,0.950000,-0.580000,0.950000,-0.720000,1.371000,-0.720000,1.371000,-1.225000,-0.950000,-1.225000,-0.950000,1.225000,1.370000,1.225000,1.370000,0.720000,1.370000,0.720000,$1*%
G04 Aperture macros list end*
%ADD10C,0.024000*%
%ADD11RoundRect,0.250000X-0.350000X-0.625000X0.350000X-0.625000X0.350000X0.625000X-0.350000X0.625000X0*%
%ADD12O,1.200000X1.750000*%
%ADD13C,3.000000*%
%ADD14RoundRect,0.250001X0.499999X0.759999X-0.499999X0.759999X-0.499999X-0.759999X0.499999X-0.759999X0*%
%ADD15O,1.500000X2.020000*%
%ADD16R,1.600000X1.600000*%
%ADD17C,1.600000*%
%ADD18C,1.000000*%
%ADD19C,5.000000*%
%ADD20RoundRect,0.250000X0.625000X-0.350000X0.625000X0.350000X-0.625000X0.350000X-0.625000X-0.350000X0*%
%ADD21O,1.750000X1.200000*%
%ADD22RoundRect,0.250000X0.350000X0.625000X-0.350000X0.625000X-0.350000X-0.625000X0.350000X-0.625000X0*%
%ADD23RoundRect,0.250001X-0.759999X0.499999X-0.759999X-0.499999X0.759999X-0.499999X0.759999X0.499999X0*%
%ADD24O,2.020000X1.500000*%
%ADD25RoundRect,0.225000X0.250000X-0.225000X0.250000X0.225000X-0.250000X0.225000X-0.250000X-0.225000X0*%
%ADD26RoundRect,0.225000X-0.250000X0.225000X-0.250000X-0.225000X0.250000X-0.225000X0.250000X0.225000X0*%
%ADD27RoundRect,0.150000X-0.512500X-0.150000X0.512500X-0.150000X0.512500X0.150000X-0.512500X0.150000X0*%
%ADD28RoundRect,0.075000X0.337500X0.075000X-0.337500X0.075000X-0.337500X-0.075000X0.337500X-0.075000X0*%
%ADD29RoundRect,0.075000X0.075000X0.337500X-0.075000X0.337500X-0.075000X-0.337500X0.075000X-0.337500X0*%
%ADD30R,3.250000X3.250000*%
%ADD31RoundRect,0.135000X0.135000X0.185000X-0.135000X0.185000X-0.135000X-0.185000X0.135000X-0.185000X0*%
%ADD32RoundRect,0.140000X0.140000X0.170000X-0.140000X0.170000X-0.140000X-0.170000X0.140000X-0.170000X0*%
%ADD33RoundRect,0.135000X-0.135000X-0.185000X0.135000X-0.185000X0.135000X0.185000X-0.135000X0.185000X0*%
%ADD34RoundRect,0.150000X-0.150000X0.587500X-0.150000X-0.587500X0.150000X-0.587500X0.150000X0.587500X0*%
%ADD35RoundRect,0.150000X-0.587500X-0.150000X0.587500X-0.150000X0.587500X0.150000X-0.587500X0.150000X0*%
%ADD36RoundRect,0.140000X0.170000X-0.140000X0.170000X0.140000X-0.170000X0.140000X-0.170000X-0.140000X0*%
%ADD37RoundRect,0.140000X-0.140000X-0.170000X0.140000X-0.170000X0.140000X0.170000X-0.140000X0.170000X0*%
%ADD38RoundRect,0.150000X0.150000X-0.587500X0.150000X0.587500X-0.150000X0.587500X-0.150000X-0.587500X0*%
%ADD39R,0.630000X0.500000*%
%ADD40FreePoly0,180.000000*%
%ADD41R,0.600000X0.700000*%
%ADD42R,0.700000X0.600000*%
%ADD43RoundRect,0.250000X-0.450000X0.262500X-0.450000X-0.262500X0.450000X-0.262500X0.450000X0.262500X0*%
%ADD44RoundRect,0.200000X-0.275000X0.200000X-0.275000X-0.200000X0.275000X-0.200000X0.275000X0.200000X0*%
%ADD45RoundRect,0.150000X-0.150000X0.512500X-0.150000X-0.512500X0.150000X-0.512500X0.150000X0.512500X0*%
%ADD46R,1.200000X0.900000*%
%ADD47R,1.200000X3.700000*%
%ADD48RoundRect,0.140000X-0.170000X0.140000X-0.170000X-0.140000X0.170000X-0.140000X0.170000X0.140000X0*%
%ADD49R,0.500000X0.800000*%
%ADD50R,0.762000X0.254000*%
%ADD51R,0.254000X0.762000*%
%ADD52R,3.800000X3.800000*%
%ADD53RoundRect,0.150000X0.150000X-0.325000X0.150000X0.325000X-0.150000X0.325000X-0.150000X-0.325000X0*%
%ADD54RoundRect,0.150000X0.325000X-0.150000X0.325000X0.150000X-0.325000X0.150000X-0.325000X-0.150000X0*%
%ADD55RoundRect,0.218750X-0.256250X0.218750X-0.256250X-0.218750X0.256250X-0.218750X0.256250X0.218750X0*%
%ADD56RoundRect,0.250000X-0.250000X-0.475000X0.250000X-0.475000X0.250000X0.475000X-0.250000X0.475000X0*%
%ADD57RoundRect,0.135000X-0.185000X0.135000X-0.185000X-0.135000X0.185000X-0.135000X0.185000X0.135000X0*%
%ADD58RoundRect,0.150000X0.150000X-0.512500X0.150000X0.512500X-0.150000X0.512500X-0.150000X-0.512500X0*%
%ADD59RoundRect,0.225000X0.225000X0.250000X-0.225000X0.250000X-0.225000X-0.250000X0.225000X-0.250000X0*%
%ADD60R,1.100000X1.100000*%
%ADD61RoundRect,0.135000X0.185000X-0.135000X0.185000X0.135000X-0.185000X0.135000X-0.185000X-0.135000X0*%
G04 APERTURE END LIST*
D10*
G36*
X103609861Y-120348072D02*
G01*
X103611110Y-120348190D01*
X103612345Y-120348359D01*
X103613564Y-120348579D01*
X103614766Y-120348849D01*
X103615951Y-120349167D01*
X103617117Y-120349532D01*
X103618262Y-120349944D01*
X103619386Y-120350402D01*
X103620488Y-120350904D01*
X103621565Y-120351449D01*
X103622617Y-120352037D01*
X103623644Y-120352667D01*
X103624642Y-120353337D01*
X103625612Y-120354047D01*
X103626552Y-120354795D01*
X103627461Y-120355581D01*
X103628338Y-120356403D01*
X103629181Y-120357260D01*
X103629989Y-120358153D01*
X103630761Y-120359078D01*
X103631497Y-120360036D01*
X103632194Y-120361026D01*
X103632851Y-120362046D01*
X103633467Y-120363096D01*
X103634042Y-120364174D01*
X103634573Y-120365279D01*
X103635060Y-120366411D01*
X103635502Y-120367569D01*
X103635896Y-120368751D01*
X103636243Y-120369957D01*
X103636540Y-120371184D01*
X103737188Y-120909664D01*
X103737813Y-120912342D01*
X103738602Y-120914955D01*
X103739548Y-120917498D01*
X103740646Y-120919965D01*
X103741892Y-120922350D01*
X103743280Y-120924647D01*
X103744805Y-120926849D01*
X103746462Y-120928950D01*
X103748246Y-120930945D01*
X103750152Y-120932828D01*
X103752174Y-120934591D01*
X103754308Y-120936230D01*
X103756549Y-120937738D01*
X103758890Y-120939108D01*
X103761328Y-120940336D01*
X103763857Y-120941414D01*
X104126760Y-121089687D01*
X104129260Y-121090663D01*
X104131797Y-121091483D01*
X104134365Y-121092147D01*
X104136957Y-121092656D01*
X104139566Y-121093010D01*
X104142184Y-121093210D01*
X104144806Y-121093256D01*
X104147424Y-121093149D01*
X104150031Y-121092889D01*
X104152620Y-121092477D01*
X104155185Y-121091912D01*
X104157719Y-121091196D01*
X104160214Y-121090330D01*
X104162663Y-121089313D01*
X104165061Y-121088146D01*
X104167400Y-121086829D01*
X104616027Y-120775044D01*
X104617103Y-120774379D01*
X104618198Y-120773764D01*
X104619311Y-120773200D01*
X104620439Y-120772686D01*
X104621583Y-120772223D01*
X104622739Y-120771810D01*
X104623907Y-120771447D01*
X104625084Y-120771133D01*
X104626270Y-120770870D01*
X104627463Y-120770656D01*
X104629862Y-120770376D01*
X104632269Y-120770293D01*
X104634671Y-120770406D01*
X104637057Y-120770713D01*
X104639412Y-120771214D01*
X104641726Y-120771907D01*
X104642863Y-120772325D01*
X104643985Y-120772791D01*
X104645090Y-120773305D01*
X104646177Y-120773866D01*
X104647243Y-120774474D01*
X104648288Y-120775129D01*
X104649310Y-120775832D01*
X104650308Y-120776581D01*
X104651279Y-120777377D01*
X104652222Y-120778219D01*
X105033223Y-121159219D01*
X105034070Y-121160146D01*
X105034871Y-121161101D01*
X105036335Y-121163089D01*
X105037612Y-121165172D01*
X105038702Y-121167335D01*
X105039603Y-121169568D01*
X105040315Y-121171857D01*
X105040835Y-121174191D01*
X105041163Y-121176555D01*
X105041297Y-121178938D01*
X105041237Y-121181328D01*
X105040980Y-121183712D01*
X105040527Y-121186076D01*
X105039874Y-121188410D01*
X105039023Y-121190699D01*
X105037970Y-121192932D01*
X105037368Y-121194024D01*
X105036715Y-121195097D01*
X104732550Y-121639597D01*
X104731226Y-121641916D01*
X104730055Y-121644295D01*
X104729037Y-121646728D01*
X104728174Y-121649208D01*
X104727466Y-121651726D01*
X104726912Y-121654276D01*
X104726515Y-121656851D01*
X104726273Y-121659443D01*
X104726188Y-121662044D01*
X104726259Y-121664648D01*
X104726488Y-121667248D01*
X104726875Y-121669835D01*
X104727420Y-121672404D01*
X104728124Y-121674945D01*
X104728987Y-121677453D01*
X104730010Y-121679919D01*
X104888760Y-122053299D01*
X104889879Y-122055797D01*
X104891139Y-122058206D01*
X104892536Y-122060522D01*
X104894063Y-122062739D01*
X104895714Y-122064854D01*
X104897485Y-122066860D01*
X104899369Y-122068755D01*
X104901361Y-122070532D01*
X104903455Y-122072187D01*
X104905646Y-122073716D01*
X104907929Y-122075114D01*
X104910296Y-122076376D01*
X104912744Y-122077497D01*
X104915266Y-122078473D01*
X104917856Y-122079298D01*
X104920510Y-122079969D01*
X105442480Y-122176807D01*
X105443115Y-122176807D01*
X105444337Y-122177113D01*
X105445537Y-122177468D01*
X105446713Y-122177869D01*
X105447865Y-122178317D01*
X105448992Y-122178810D01*
X105450093Y-122179346D01*
X105452211Y-122180544D01*
X105454213Y-122181903D01*
X105456090Y-122183413D01*
X105457835Y-122185064D01*
X105459440Y-122186848D01*
X105460896Y-122188754D01*
X105462197Y-122190774D01*
X105463334Y-122192898D01*
X105464300Y-122195116D01*
X105465086Y-122197420D01*
X105465410Y-122198600D01*
X105465685Y-122199799D01*
X105465913Y-122201014D01*
X105466090Y-122202244D01*
X105466217Y-122203489D01*
X105466292Y-122204747D01*
X105466291Y-122740052D01*
X105466226Y-122741313D01*
X105466108Y-122742562D01*
X105465939Y-122743797D01*
X105465719Y-122745016D01*
X105465450Y-122746218D01*
X105465132Y-122747403D01*
X105464766Y-122748569D01*
X105464354Y-122749714D01*
X105463897Y-122750838D01*
X105463395Y-122751940D01*
X105462849Y-122753017D01*
X105462261Y-122754069D01*
X105461631Y-122755096D01*
X105460961Y-122756094D01*
X105460252Y-122757064D01*
X105459504Y-122758004D01*
X105458718Y-122758913D01*
X105457896Y-122759790D01*
X105457038Y-122760633D01*
X105456146Y-122761441D01*
X105455220Y-122762213D01*
X105454262Y-122762949D01*
X105453273Y-122763646D01*
X105452253Y-122764303D01*
X105451203Y-122764919D01*
X105450125Y-122765494D01*
X105449019Y-122766025D01*
X105447887Y-122766512D01*
X105446730Y-122766953D01*
X105445548Y-122767348D01*
X105444343Y-122767694D01*
X105443115Y-122767992D01*
X104935115Y-122863241D01*
X104932439Y-122863907D01*
X104929829Y-122864733D01*
X104927289Y-122865713D01*
X104924826Y-122866842D01*
X104922444Y-122868115D01*
X104920152Y-122869528D01*
X104917953Y-122871075D01*
X104915854Y-122872752D01*
X104913861Y-122874553D01*
X104911980Y-122876474D01*
X104910216Y-122878509D01*
X104908576Y-122880654D01*
X104907064Y-122882903D01*
X104905688Y-122885252D01*
X104904453Y-122887696D01*
X104903365Y-122890229D01*
X104744615Y-123287104D01*
X104743639Y-123289604D01*
X104742819Y-123292141D01*
X104742154Y-123294709D01*
X104741645Y-123297301D01*
X104741291Y-123299910D01*
X104741091Y-123302529D01*
X104741045Y-123305150D01*
X104741153Y-123307768D01*
X104741413Y-123310375D01*
X104741825Y-123312964D01*
X104742390Y-123315529D01*
X104743105Y-123318063D01*
X104743972Y-123320558D01*
X104744989Y-123323008D01*
X104746156Y-123325405D01*
X104747472Y-123327744D01*
X105036715Y-123749067D01*
X105037372Y-123750149D01*
X105037979Y-123751250D01*
X105038534Y-123752368D01*
X105039039Y-123753502D01*
X105039493Y-123754650D01*
X105039897Y-123755811D01*
X105040251Y-123756983D01*
X105040555Y-123758164D01*
X105040809Y-123759353D01*
X105041013Y-123760548D01*
X105041272Y-123762952D01*
X105041335Y-123765362D01*
X105041201Y-123767765D01*
X105040873Y-123770150D01*
X105040351Y-123772504D01*
X105039636Y-123774813D01*
X105039207Y-123775948D01*
X105038731Y-123777066D01*
X105038207Y-123778168D01*
X105037636Y-123779250D01*
X105037017Y-123780312D01*
X105036351Y-123781353D01*
X105035639Y-123782369D01*
X105034880Y-123783361D01*
X105034074Y-123784325D01*
X105033222Y-123785262D01*
X104652222Y-124166262D01*
X104651286Y-124167114D01*
X104650321Y-124167919D01*
X104648313Y-124169391D01*
X104646211Y-124170675D01*
X104644027Y-124171770D01*
X104641774Y-124172676D01*
X104639464Y-124173390D01*
X104637111Y-124173912D01*
X104634726Y-124174240D01*
X104632322Y-124174374D01*
X104629913Y-124174312D01*
X104627509Y-124174052D01*
X104625125Y-124173594D01*
X104622772Y-124172937D01*
X104620463Y-124172078D01*
X104618210Y-124171018D01*
X104617109Y-124170411D01*
X104616027Y-124169754D01*
X104203277Y-123884004D01*
X104200933Y-123882802D01*
X104198534Y-123881761D01*
X104196088Y-123880879D01*
X104193604Y-123880158D01*
X104191088Y-123879597D01*
X104188550Y-123879197D01*
X104185996Y-123878956D01*
X104183433Y-123878876D01*
X104180871Y-123878956D01*
X104178317Y-123879197D01*
X104175779Y-123879597D01*
X104173263Y-123880158D01*
X104170779Y-123880879D01*
X104168333Y-123881761D01*
X104165934Y-123882802D01*
X104163590Y-123884004D01*
X103981027Y-123981477D01*
X103980008Y-123981989D01*
X103978967Y-123982445D01*
X103977909Y-123982844D01*
X103976835Y-123983186D01*
X103975747Y-123983471D01*
X103974648Y-123983699D01*
X103973540Y-123983868D01*
X103972426Y-123983980D01*
X103971307Y-123984035D01*
X103970187Y-123984031D01*
X103969066Y-123983968D01*
X103967948Y-123983848D01*
X103966835Y-123983668D01*
X103965730Y-123983430D01*
X103964633Y-123983133D01*
X103963549Y-123982777D01*
X103962485Y-123982365D01*
X103961449Y-123981899D01*
X103960443Y-123981381D01*
X103959469Y-123980813D01*
X103958529Y-123980197D01*
X103957623Y-123979534D01*
X103956755Y-123978826D01*
X103955924Y-123978075D01*
X103955134Y-123977281D01*
X103954385Y-123976447D01*
X103953680Y-123975574D01*
X103953020Y-123974663D01*
X103952407Y-123973718D01*
X103951842Y-123972738D01*
X103951328Y-123971725D01*
X103950865Y-123970682D01*
X103573675Y-123061044D01*
X103573272Y-123059865D01*
X103572922Y-123058679D01*
X103572625Y-123057486D01*
X103572380Y-123056290D01*
X103572187Y-123055090D01*
X103572046Y-123053889D01*
X103571955Y-123052689D01*
X103571915Y-123051490D01*
X103571924Y-123050294D01*
X103571983Y-123049102D01*
X103572091Y-123047917D01*
X103572248Y-123046739D01*
X103572452Y-123045570D01*
X103572703Y-123044412D01*
X103573002Y-123043266D01*
X103573347Y-123042133D01*
X103573738Y-123041016D01*
X103574174Y-123039915D01*
X103574656Y-123038832D01*
X103575182Y-123037768D01*
X103575752Y-123036726D01*
X103576365Y-123035706D01*
X103577022Y-123034710D01*
X103577721Y-123033739D01*
X103578462Y-123032796D01*
X103579245Y-123031881D01*
X103580069Y-123030996D01*
X103580933Y-123030142D01*
X103581838Y-123029321D01*
X103582782Y-123028535D01*
X103583765Y-123027785D01*
X103584787Y-123027072D01*
X103630507Y-122999132D01*
X103634322Y-122996627D01*
X103638081Y-122994042D01*
X103641783Y-122991378D01*
X103645428Y-122988636D01*
X103649013Y-122985817D01*
X103652537Y-122982922D01*
X103656000Y-122979951D01*
X103659400Y-122976907D01*
X103699698Y-122948796D01*
X103737094Y-122917860D01*
X103771504Y-122884316D01*
X103802847Y-122848381D01*
X103831043Y-122810272D01*
X103856008Y-122770206D01*
X103877663Y-122728401D01*
X103895924Y-122685073D01*
X103910711Y-122640440D01*
X103921942Y-122594718D01*
X103929535Y-122548125D01*
X103933410Y-122500879D01*
X103933483Y-122453195D01*
X103929674Y-122405291D01*
X103921901Y-122357385D01*
X103910082Y-122309693D01*
X103902688Y-122286171D01*
X103894389Y-122263132D01*
X103875171Y-122218566D01*
X103852612Y-122176135D01*
X103826899Y-122135978D01*
X103798217Y-122098234D01*
X103766751Y-122063042D01*
X103732688Y-122030542D01*
X103696213Y-122000871D01*
X103657510Y-121974170D01*
X103616767Y-121950578D01*
X103574168Y-121930234D01*
X103529900Y-121913277D01*
X103484146Y-121899845D01*
X103437094Y-121890079D01*
X103388929Y-121884118D01*
X103364487Y-121882607D01*
X103339836Y-121882100D01*
X103315185Y-121882607D01*
X103290743Y-121884118D01*
X103266533Y-121886614D01*
X103242578Y-121890079D01*
X103218901Y-121894496D01*
X103195526Y-121899845D01*
X103172475Y-121906112D01*
X103149773Y-121913277D01*
X103127441Y-121921323D01*
X103105504Y-121930234D01*
X103083984Y-121939992D01*
X103062905Y-121950578D01*
X103042290Y-121961977D01*
X103022162Y-121974170D01*
X103002544Y-121987141D01*
X102983460Y-122000871D01*
X102964932Y-122015344D01*
X102946984Y-122030542D01*
X102929639Y-122046447D01*
X102912921Y-122063042D01*
X102896852Y-122080311D01*
X102881455Y-122098234D01*
X102866755Y-122116796D01*
X102852773Y-122135978D01*
X102839534Y-122155764D01*
X102827060Y-122176135D01*
X102815375Y-122197075D01*
X102804501Y-122218566D01*
X102794463Y-122240591D01*
X102785283Y-122263132D01*
X102776984Y-122286171D01*
X102769590Y-122309693D01*
X102763170Y-122333498D01*
X102757771Y-122357385D01*
X102753384Y-122381325D01*
X102749998Y-122405291D01*
X102747603Y-122429257D01*
X102746189Y-122453195D01*
X102745746Y-122477078D01*
X102746262Y-122500879D01*
X102747730Y-122524570D01*
X102750137Y-122548125D01*
X102753473Y-122571517D01*
X102757730Y-122594718D01*
X102762896Y-122617702D01*
X102768961Y-122640440D01*
X102775915Y-122662906D01*
X102783748Y-122685073D01*
X102792449Y-122706914D01*
X102802009Y-122728401D01*
X102812417Y-122749508D01*
X102823664Y-122770206D01*
X102835738Y-122790470D01*
X102848629Y-122810272D01*
X102862328Y-122829585D01*
X102876825Y-122848381D01*
X102892108Y-122866634D01*
X102908168Y-122884316D01*
X102924995Y-122901401D01*
X102942579Y-122917860D01*
X102960908Y-122933668D01*
X102979974Y-122948796D01*
X102999765Y-122963218D01*
X103020273Y-122976907D01*
X103023672Y-122979951D01*
X103027135Y-122982922D01*
X103030660Y-122985817D01*
X103034245Y-122988636D01*
X103037889Y-122991378D01*
X103041591Y-122994042D01*
X103045350Y-122996627D01*
X103049165Y-122999132D01*
X103094885Y-123027072D01*
X103095914Y-123027780D01*
X103096904Y-123028526D01*
X103097853Y-123029309D01*
X103098762Y-123030128D01*
X103100456Y-123031866D01*
X103101981Y-123033725D01*
X103103333Y-123035696D01*
X103104509Y-123037763D01*
X103105504Y-123039916D01*
X103106315Y-123042141D01*
X103106937Y-123044426D01*
X103107367Y-123046759D01*
X103107601Y-123049126D01*
X103107633Y-123051515D01*
X103107462Y-123053914D01*
X103107082Y-123056311D01*
X103106812Y-123057504D01*
X103106489Y-123058691D01*
X103106112Y-123059872D01*
X103105680Y-123061044D01*
X102729760Y-123972587D01*
X102729307Y-123973715D01*
X102728794Y-123974810D01*
X102728223Y-123975870D01*
X102727597Y-123976893D01*
X102726916Y-123977876D01*
X102726185Y-123978818D01*
X102725403Y-123979717D01*
X102724573Y-123980571D01*
X102723698Y-123981378D01*
X102722779Y-123982136D01*
X102721818Y-123982843D01*
X102720818Y-123983498D01*
X102719779Y-123984097D01*
X102718705Y-123984640D01*
X102717597Y-123985124D01*
X102716457Y-123985548D01*
X102715295Y-123985907D01*
X102714121Y-123986199D01*
X102712938Y-123986423D01*
X102711750Y-123986581D01*
X102710558Y-123986672D01*
X102709365Y-123986697D01*
X102708174Y-123986656D01*
X102706988Y-123986550D01*
X102705810Y-123986379D01*
X102704643Y-123986142D01*
X102703488Y-123985842D01*
X102702350Y-123985477D01*
X102701230Y-123985048D01*
X102700131Y-123984556D01*
X102699057Y-123984000D01*
X102698010Y-123983382D01*
X102515448Y-123885909D01*
X102513103Y-123884707D01*
X102510704Y-123883665D01*
X102508258Y-123882784D01*
X102505774Y-123882063D01*
X102503259Y-123881502D01*
X102500720Y-123881101D01*
X102498166Y-123880861D01*
X102495604Y-123880781D01*
X102493042Y-123880861D01*
X102490487Y-123881101D01*
X102487949Y-123881502D01*
X102485433Y-123882063D01*
X102482949Y-123882784D01*
X102480503Y-123883665D01*
X102478105Y-123884707D01*
X102475760Y-123885909D01*
X102063010Y-124171659D01*
X102061928Y-124172316D01*
X102060827Y-124172923D01*
X102059709Y-124173478D01*
X102058575Y-124173983D01*
X102057426Y-124174438D01*
X102056266Y-124174842D01*
X102055094Y-124175195D01*
X102053913Y-124175499D01*
X102052724Y-124175753D01*
X102051528Y-124175957D01*
X102049125Y-124176217D01*
X102046715Y-124176279D01*
X102044311Y-124176145D01*
X102041926Y-124175817D01*
X102039573Y-124175295D01*
X102037263Y-124174581D01*
X102036129Y-124174152D01*
X102035010Y-124173675D01*
X102033909Y-124173151D01*
X102032826Y-124172580D01*
X102031764Y-124171961D01*
X102030724Y-124171296D01*
X102029708Y-124170584D01*
X102028716Y-124169824D01*
X102027751Y-124169019D01*
X102026815Y-124168167D01*
X101645815Y-123787166D01*
X101644299Y-123785205D01*
X101642955Y-123783154D01*
X101641783Y-123781025D01*
X101640784Y-123778827D01*
X101639959Y-123776573D01*
X101639309Y-123774271D01*
X101638835Y-123771933D01*
X101638538Y-123769568D01*
X101638419Y-123767188D01*
X101638479Y-123764803D01*
X101638718Y-123762423D01*
X101639137Y-123760059D01*
X101639739Y-123757722D01*
X101640522Y-123755421D01*
X101641489Y-123753167D01*
X101642640Y-123750972D01*
X101931882Y-123329649D01*
X101933199Y-123327311D01*
X101934366Y-123324913D01*
X101935383Y-123322463D01*
X101936249Y-123319968D01*
X101936965Y-123317435D01*
X101937530Y-123314870D01*
X101937942Y-123312280D01*
X101938202Y-123309673D01*
X101938309Y-123307055D01*
X101938263Y-123304434D01*
X101938063Y-123301815D01*
X101937709Y-123299206D01*
X101937200Y-123296615D01*
X101936536Y-123294047D01*
X101935716Y-123291509D01*
X101934740Y-123289009D01*
X101775990Y-122892135D01*
X101774972Y-122889666D01*
X101773813Y-122887279D01*
X101772519Y-122884979D01*
X101771096Y-122882771D01*
X101769548Y-122880659D01*
X101767881Y-122878648D01*
X101766101Y-122876743D01*
X101764212Y-122874949D01*
X101762219Y-122873271D01*
X101760129Y-122871712D01*
X101757946Y-122870278D01*
X101755676Y-122868974D01*
X101753324Y-122867804D01*
X101750895Y-122866773D01*
X101748394Y-122865886D01*
X101745827Y-122865147D01*
X101237828Y-122769897D01*
X101236600Y-122769599D01*
X101235394Y-122769253D01*
X101234212Y-122768858D01*
X101233055Y-122768417D01*
X101231922Y-122767930D01*
X101230817Y-122767399D01*
X101229739Y-122766824D01*
X101228689Y-122766208D01*
X101226679Y-122764854D01*
X101224796Y-122763346D01*
X101223046Y-122761695D01*
X101221438Y-122759909D01*
X101219980Y-122757999D01*
X101218680Y-122755974D01*
X101217547Y-122753845D01*
X101216587Y-122751619D01*
X101216175Y-122750474D01*
X101215810Y-122749308D01*
X101215492Y-122748124D01*
X101215222Y-122746921D01*
X101215002Y-122745702D01*
X101214833Y-122744467D01*
X101214715Y-122743219D01*
X101214650Y-122741957D01*
X101214650Y-122204747D01*
X101214725Y-122203489D01*
X101214852Y-122202244D01*
X101215029Y-122201014D01*
X101215256Y-122199799D01*
X101215532Y-122198600D01*
X101215856Y-122197420D01*
X101216226Y-122196258D01*
X101216642Y-122195116D01*
X101217103Y-122193996D01*
X101217608Y-122192898D01*
X101218156Y-122191824D01*
X101218745Y-122190774D01*
X101219375Y-122189751D01*
X101220046Y-122188754D01*
X101220755Y-122187786D01*
X101221502Y-122186848D01*
X101222287Y-122185940D01*
X101223107Y-122185064D01*
X101223962Y-122184221D01*
X101224852Y-122183413D01*
X101225774Y-122182639D01*
X101226729Y-122181903D01*
X101227715Y-122181204D01*
X101228731Y-122180544D01*
X101229776Y-122179924D01*
X101230849Y-122179346D01*
X101231950Y-122178809D01*
X101233077Y-122178317D01*
X101234229Y-122177869D01*
X101235405Y-122177468D01*
X101236605Y-122177113D01*
X101237827Y-122176807D01*
X101760115Y-122081557D01*
X101762769Y-122080886D01*
X101765359Y-122080060D01*
X101767881Y-122079084D01*
X101770329Y-122077963D01*
X101772696Y-122076701D01*
X101774978Y-122075304D01*
X101777170Y-122073775D01*
X101779264Y-122072119D01*
X101781256Y-122070342D01*
X101783140Y-122068448D01*
X101784911Y-122066441D01*
X101786562Y-122064327D01*
X101788089Y-122062110D01*
X101789486Y-122059794D01*
X101790746Y-122057385D01*
X101791865Y-122054887D01*
X101950615Y-121681507D01*
X101951526Y-121679039D01*
X101952281Y-121676537D01*
X101952881Y-121674008D01*
X101953325Y-121671458D01*
X101953615Y-121668895D01*
X101953751Y-121666326D01*
X101953734Y-121663758D01*
X101953565Y-121661197D01*
X101953244Y-121658651D01*
X101952772Y-121656126D01*
X101952149Y-121653630D01*
X101951377Y-121651169D01*
X101950456Y-121648751D01*
X101949387Y-121646382D01*
X101948169Y-121644069D01*
X101946805Y-121641819D01*
X101642640Y-121197320D01*
X101641987Y-121196247D01*
X101641385Y-121195155D01*
X101640834Y-121194046D01*
X101640332Y-121192922D01*
X101639881Y-121191783D01*
X101639481Y-121190632D01*
X101639130Y-121189470D01*
X101638828Y-121188299D01*
X101638577Y-121187120D01*
X101638375Y-121185934D01*
X101638222Y-121184744D01*
X101638118Y-121183551D01*
X101638058Y-121181161D01*
X101638192Y-121178778D01*
X101638520Y-121176413D01*
X101639040Y-121174080D01*
X101639372Y-121172929D01*
X101639751Y-121171791D01*
X101640178Y-121170667D01*
X101640653Y-121169558D01*
X101641174Y-121168467D01*
X101641743Y-121167394D01*
X101642358Y-121166342D01*
X101643020Y-121165312D01*
X101643729Y-121164305D01*
X101644484Y-121163324D01*
X101645285Y-121162369D01*
X101646132Y-121161442D01*
X102027132Y-120780442D01*
X102028076Y-120779599D01*
X102029047Y-120778804D01*
X102031066Y-120777352D01*
X102033178Y-120776088D01*
X102035370Y-120775014D01*
X102037629Y-120774129D01*
X102039943Y-120773436D01*
X102042298Y-120772936D01*
X102044684Y-120772628D01*
X102047086Y-120772516D01*
X102049493Y-120772598D01*
X102051892Y-120772878D01*
X102054271Y-120773356D01*
X102056616Y-120774032D01*
X102058916Y-120774909D01*
X102061157Y-120775987D01*
X102062252Y-120776602D01*
X102063327Y-120777267D01*
X102514177Y-121086829D01*
X102516516Y-121088146D01*
X102518914Y-121089313D01*
X102521364Y-121090330D01*
X102523859Y-121091196D01*
X102526392Y-121091912D01*
X102528957Y-121092477D01*
X102531547Y-121092889D01*
X102534154Y-121093149D01*
X102536771Y-121093256D01*
X102539393Y-121093210D01*
X102542012Y-121093010D01*
X102544620Y-121092656D01*
X102547212Y-121092147D01*
X102549780Y-121091483D01*
X102552317Y-121090663D01*
X102554817Y-121089687D01*
X102916450Y-120942684D01*
X102918979Y-120941606D01*
X102921417Y-120940378D01*
X102923759Y-120939008D01*
X102925999Y-120937500D01*
X102928133Y-120935861D01*
X102930156Y-120934098D01*
X102932061Y-120932215D01*
X102933845Y-120930220D01*
X102935503Y-120928119D01*
X102937028Y-120925917D01*
X102938416Y-120923620D01*
X102939661Y-120921235D01*
X102940760Y-120918768D01*
X102941706Y-120916225D01*
X102942494Y-120913612D01*
X102943120Y-120910934D01*
X103043767Y-120371185D01*
X103044061Y-120369967D01*
X103044404Y-120368771D01*
X103044794Y-120367598D01*
X103045230Y-120366449D01*
X103045710Y-120365325D01*
X103046235Y-120364227D01*
X103046802Y-120363156D01*
X103047411Y-120362113D01*
X103048748Y-120360114D01*
X103050236Y-120358239D01*
X103051867Y-120356495D01*
X103053630Y-120354890D01*
X103055517Y-120353432D01*
X103057517Y-120352129D01*
X103059623Y-120350989D01*
X103061823Y-120350020D01*
X103062956Y-120349601D01*
X103064110Y-120349229D01*
X103065282Y-120348903D01*
X103066473Y-120348625D01*
X103067680Y-120348395D01*
X103068902Y-120348215D01*
X103070140Y-120348085D01*
X103071390Y-120348007D01*
X103608600Y-120348007D01*
X103609861Y-120348072D01*
G37*
X103609861Y-120348072D02*
X103611110Y-120348190D01*
X103612345Y-120348359D01*
X103613564Y-120348579D01*
X103614766Y-120348849D01*
X103615951Y-120349167D01*
X103617117Y-120349532D01*
X103618262Y-120349944D01*
X103619386Y-120350402D01*
X103620488Y-120350904D01*
X103621565Y-120351449D01*
X103622617Y-120352037D01*
X103623644Y-120352667D01*
X103624642Y-120353337D01*
X103625612Y-120354047D01*
X103626552Y-120354795D01*
X103627461Y-120355581D01*
X103628338Y-120356403D01*
X103629181Y-120357260D01*
X103629989Y-120358153D01*
X103630761Y-120359078D01*
X103631497Y-120360036D01*
X103632194Y-120361026D01*
X103632851Y-120362046D01*
X103633467Y-120363096D01*
X103634042Y-120364174D01*
X103634573Y-120365279D01*
X103635060Y-120366411D01*
X103635502Y-120367569D01*
X103635896Y-120368751D01*
X103636243Y-120369957D01*
X103636540Y-120371184D01*
X103737188Y-120909664D01*
X103737813Y-120912342D01*
X103738602Y-120914955D01*
X103739548Y-120917498D01*
X103740646Y-120919965D01*
X103741892Y-120922350D01*
X103743280Y-120924647D01*
X103744805Y-120926849D01*
X103746462Y-120928950D01*
X103748246Y-120930945D01*
X103750152Y-120932828D01*
X103752174Y-120934591D01*
X103754308Y-120936230D01*
X103756549Y-120937738D01*
X103758890Y-120939108D01*
X103761328Y-120940336D01*
X103763857Y-120941414D01*
X104126760Y-121089687D01*
X104129260Y-121090663D01*
X104131797Y-121091483D01*
X104134365Y-121092147D01*
X104136957Y-121092656D01*
X104139566Y-121093010D01*
X104142184Y-121093210D01*
X104144806Y-121093256D01*
X104147424Y-121093149D01*
X104150031Y-121092889D01*
X104152620Y-121092477D01*
X104155185Y-121091912D01*
X104157719Y-121091196D01*
X104160214Y-121090330D01*
X104162663Y-121089313D01*
X104165061Y-121088146D01*
X104167400Y-121086829D01*
X104616027Y-120775044D01*
X104617103Y-120774379D01*
X104618198Y-120773764D01*
X104619311Y-120773200D01*
X104620439Y-120772686D01*
X104621583Y-120772223D01*
X104622739Y-120771810D01*
X104623907Y-120771447D01*
X104625084Y-120771133D01*
X104626270Y-120770870D01*
X104627463Y-120770656D01*
X104629862Y-120770376D01*
X104632269Y-120770293D01*
X104634671Y-120770406D01*
X104637057Y-120770713D01*
X104639412Y-120771214D01*
X104641726Y-120771907D01*
X104642863Y-120772325D01*
X104643985Y-120772791D01*
X104645090Y-120773305D01*
X104646177Y-120773866D01*
X104647243Y-120774474D01*
X104648288Y-120775129D01*
X104649310Y-120775832D01*
X104650308Y-120776581D01*
X104651279Y-120777377D01*
X104652222Y-120778219D01*
X105033223Y-121159219D01*
X105034070Y-121160146D01*
X105034871Y-121161101D01*
X105036335Y-121163089D01*
X105037612Y-121165172D01*
X105038702Y-121167335D01*
X105039603Y-121169568D01*
X105040315Y-121171857D01*
X105040835Y-121174191D01*
X105041163Y-121176555D01*
X105041297Y-121178938D01*
X105041237Y-121181328D01*
X105040980Y-121183712D01*
X105040527Y-121186076D01*
X105039874Y-121188410D01*
X105039023Y-121190699D01*
X105037970Y-121192932D01*
X105037368Y-121194024D01*
X105036715Y-121195097D01*
X104732550Y-121639597D01*
X104731226Y-121641916D01*
X104730055Y-121644295D01*
X104729037Y-121646728D01*
X104728174Y-121649208D01*
X104727466Y-121651726D01*
X104726912Y-121654276D01*
X104726515Y-121656851D01*
X104726273Y-121659443D01*
X104726188Y-121662044D01*
X104726259Y-121664648D01*
X104726488Y-121667248D01*
X104726875Y-121669835D01*
X104727420Y-121672404D01*
X104728124Y-121674945D01*
X104728987Y-121677453D01*
X104730010Y-121679919D01*
X104888760Y-122053299D01*
X104889879Y-122055797D01*
X104891139Y-122058206D01*
X104892536Y-122060522D01*
X104894063Y-122062739D01*
X104895714Y-122064854D01*
X104897485Y-122066860D01*
X104899369Y-122068755D01*
X104901361Y-122070532D01*
X104903455Y-122072187D01*
X104905646Y-122073716D01*
X104907929Y-122075114D01*
X104910296Y-122076376D01*
X104912744Y-122077497D01*
X104915266Y-122078473D01*
X104917856Y-122079298D01*
X104920510Y-122079969D01*
X105442480Y-122176807D01*
X105443115Y-122176807D01*
X105444337Y-122177113D01*
X105445537Y-122177468D01*
X105446713Y-122177869D01*
X105447865Y-122178317D01*
X105448992Y-122178810D01*
X105450093Y-122179346D01*
X105452211Y-122180544D01*
X105454213Y-122181903D01*
X105456090Y-122183413D01*
X105457835Y-122185064D01*
X105459440Y-122186848D01*
X105460896Y-122188754D01*
X105462197Y-122190774D01*
X105463334Y-122192898D01*
X105464300Y-122195116D01*
X105465086Y-122197420D01*
X105465410Y-122198600D01*
X105465685Y-122199799D01*
X105465913Y-122201014D01*
X105466090Y-122202244D01*
X105466217Y-122203489D01*
X105466292Y-122204747D01*
X105466291Y-122740052D01*
X105466226Y-122741313D01*
X105466108Y-122742562D01*
X105465939Y-122743797D01*
X105465719Y-122745016D01*
X105465450Y-122746218D01*
X105465132Y-122747403D01*
X105464766Y-122748569D01*
X105464354Y-122749714D01*
X105463897Y-122750838D01*
X105463395Y-122751940D01*
X105462849Y-122753017D01*
X105462261Y-122754069D01*
X105461631Y-122755096D01*
X105460961Y-122756094D01*
X105460252Y-122757064D01*
X105459504Y-122758004D01*
X105458718Y-122758913D01*
X105457896Y-122759790D01*
X105457038Y-122760633D01*
X105456146Y-122761441D01*
X105455220Y-122762213D01*
X105454262Y-122762949D01*
X105453273Y-122763646D01*
X105452253Y-122764303D01*
X105451203Y-122764919D01*
X105450125Y-122765494D01*
X105449019Y-122766025D01*
X105447887Y-122766512D01*
X105446730Y-122766953D01*
X105445548Y-122767348D01*
X105444343Y-122767694D01*
X105443115Y-122767992D01*
X104935115Y-122863241D01*
X104932439Y-122863907D01*
X104929829Y-122864733D01*
X104927289Y-122865713D01*
X104924826Y-122866842D01*
X104922444Y-122868115D01*
X104920152Y-122869528D01*
X104917953Y-122871075D01*
X104915854Y-122872752D01*
X104913861Y-122874553D01*
X104911980Y-122876474D01*
X104910216Y-122878509D01*
X104908576Y-122880654D01*
X104907064Y-122882903D01*
X104905688Y-122885252D01*
X104904453Y-122887696D01*
X104903365Y-122890229D01*
X104744615Y-123287104D01*
X104743639Y-123289604D01*
X104742819Y-123292141D01*
X104742154Y-123294709D01*
X104741645Y-123297301D01*
X104741291Y-123299910D01*
X104741091Y-123302529D01*
X104741045Y-123305150D01*
X104741153Y-123307768D01*
X104741413Y-123310375D01*
X104741825Y-123312964D01*
X104742390Y-123315529D01*
X104743105Y-123318063D01*
X104743972Y-123320558D01*
X104744989Y-123323008D01*
X104746156Y-123325405D01*
X104747472Y-123327744D01*
X105036715Y-123749067D01*
X105037372Y-123750149D01*
X105037979Y-123751250D01*
X105038534Y-123752368D01*
X105039039Y-123753502D01*
X105039493Y-123754650D01*
X105039897Y-123755811D01*
X105040251Y-123756983D01*
X105040555Y-123758164D01*
X105040809Y-123759353D01*
X105041013Y-123760548D01*
X105041272Y-123762952D01*
X105041335Y-123765362D01*
X105041201Y-123767765D01*
X105040873Y-123770150D01*
X105040351Y-123772504D01*
X105039636Y-123774813D01*
X105039207Y-123775948D01*
X105038731Y-123777066D01*
X105038207Y-123778168D01*
X105037636Y-123779250D01*
X105037017Y-123780312D01*
X105036351Y-123781353D01*
X105035639Y-123782369D01*
X105034880Y-123783361D01*
X105034074Y-123784325D01*
X105033222Y-123785262D01*
X104652222Y-124166262D01*
X104651286Y-124167114D01*
X104650321Y-124167919D01*
X104648313Y-124169391D01*
X104646211Y-124170675D01*
X104644027Y-124171770D01*
X104641774Y-124172676D01*
X104639464Y-124173390D01*
X104637111Y-124173912D01*
X104634726Y-124174240D01*
X104632322Y-124174374D01*
X104629913Y-124174312D01*
X104627509Y-124174052D01*
X104625125Y-124173594D01*
X104622772Y-124172937D01*
X104620463Y-124172078D01*
X104618210Y-124171018D01*
X104617109Y-124170411D01*
X104616027Y-124169754D01*
X104203277Y-123884004D01*
X104200933Y-123882802D01*
X104198534Y-123881761D01*
X104196088Y-123880879D01*
X104193604Y-123880158D01*
X104191088Y-123879597D01*
X104188550Y-123879197D01*
X104185996Y-123878956D01*
X104183433Y-123878876D01*
X104180871Y-123878956D01*
X104178317Y-123879197D01*
X104175779Y-123879597D01*
X104173263Y-123880158D01*
X104170779Y-123880879D01*
X104168333Y-123881761D01*
X104165934Y-123882802D01*
X104163590Y-123884004D01*
X103981027Y-123981477D01*
X103980008Y-123981989D01*
X103978967Y-123982445D01*
X103977909Y-123982844D01*
X103976835Y-123983186D01*
X103975747Y-123983471D01*
X103974648Y-123983699D01*
X103973540Y-123983868D01*
X103972426Y-123983980D01*
X103971307Y-123984035D01*
X103970187Y-123984031D01*
X103969066Y-123983968D01*
X103967948Y-123983848D01*
X103966835Y-123983668D01*
X103965730Y-123983430D01*
X103964633Y-123983133D01*
X103963549Y-123982777D01*
X103962485Y-123982365D01*
X103961449Y-123981899D01*
X103960443Y-123981381D01*
X103959469Y-123980813D01*
X103958529Y-123980197D01*
X103957623Y-123979534D01*
X103956755Y-123978826D01*
X103955924Y-123978075D01*
X103955134Y-123977281D01*
X103954385Y-123976447D01*
X103953680Y-123975574D01*
X103953020Y-123974663D01*
X103952407Y-123973718D01*
X103951842Y-123972738D01*
X103951328Y-123971725D01*
X103950865Y-123970682D01*
X103573675Y-123061044D01*
X103573272Y-123059865D01*
X103572922Y-123058679D01*
X103572625Y-123057486D01*
X103572380Y-123056290D01*
X103572187Y-123055090D01*
X103572046Y-123053889D01*
X103571955Y-123052689D01*
X103571915Y-123051490D01*
X103571924Y-123050294D01*
X103571983Y-123049102D01*
X103572091Y-123047917D01*
X103572248Y-123046739D01*
X103572452Y-123045570D01*
X103572703Y-123044412D01*
X103573002Y-123043266D01*
X103573347Y-123042133D01*
X103573738Y-123041016D01*
X103574174Y-123039915D01*
X103574656Y-123038832D01*
X103575182Y-123037768D01*
X103575752Y-123036726D01*
X103576365Y-123035706D01*
X103577022Y-123034710D01*
X103577721Y-123033739D01*
X103578462Y-123032796D01*
X103579245Y-123031881D01*
X103580069Y-123030996D01*
X103580933Y-123030142D01*
X103581838Y-123029321D01*
X103582782Y-123028535D01*
X103583765Y-123027785D01*
X103584787Y-123027072D01*
X103630507Y-122999132D01*
X103634322Y-122996627D01*
X103638081Y-122994042D01*
X103641783Y-122991378D01*
X103645428Y-122988636D01*
X103649013Y-122985817D01*
X103652537Y-122982922D01*
X103656000Y-122979951D01*
X103659400Y-122976907D01*
X103699698Y-122948796D01*
X103737094Y-122917860D01*
X103771504Y-122884316D01*
X103802847Y-122848381D01*
X103831043Y-122810272D01*
X103856008Y-122770206D01*
X103877663Y-122728401D01*
X103895924Y-122685073D01*
X103910711Y-122640440D01*
X103921942Y-122594718D01*
X103929535Y-122548125D01*
X103933410Y-122500879D01*
X103933483Y-122453195D01*
X103929674Y-122405291D01*
X103921901Y-122357385D01*
X103910082Y-122309693D01*
X103902688Y-122286171D01*
X103894389Y-122263132D01*
X103875171Y-122218566D01*
X103852612Y-122176135D01*
X103826899Y-122135978D01*
X103798217Y-122098234D01*
X103766751Y-122063042D01*
X103732688Y-122030542D01*
X103696213Y-122000871D01*
X103657510Y-121974170D01*
X103616767Y-121950578D01*
X103574168Y-121930234D01*
X103529900Y-121913277D01*
X103484146Y-121899845D01*
X103437094Y-121890079D01*
X103388929Y-121884118D01*
X103364487Y-121882607D01*
X103339836Y-121882100D01*
X103315185Y-121882607D01*
X103290743Y-121884118D01*
X103266533Y-121886614D01*
X103242578Y-121890079D01*
X103218901Y-121894496D01*
X103195526Y-121899845D01*
X103172475Y-121906112D01*
X103149773Y-121913277D01*
X103127441Y-121921323D01*
X103105504Y-121930234D01*
X103083984Y-121939992D01*
X103062905Y-121950578D01*
X103042290Y-121961977D01*
X103022162Y-121974170D01*
X103002544Y-121987141D01*
X102983460Y-122000871D01*
X102964932Y-122015344D01*
X102946984Y-122030542D01*
X102929639Y-122046447D01*
X102912921Y-122063042D01*
X102896852Y-122080311D01*
X102881455Y-122098234D01*
X102866755Y-122116796D01*
X102852773Y-122135978D01*
X102839534Y-122155764D01*
X102827060Y-122176135D01*
X102815375Y-122197075D01*
X102804501Y-122218566D01*
X102794463Y-122240591D01*
X102785283Y-122263132D01*
X102776984Y-122286171D01*
X102769590Y-122309693D01*
X102763170Y-122333498D01*
X102757771Y-122357385D01*
X102753384Y-122381325D01*
X102749998Y-122405291D01*
X102747603Y-122429257D01*
X102746189Y-122453195D01*
X102745746Y-122477078D01*
X102746262Y-122500879D01*
X102747730Y-122524570D01*
X102750137Y-122548125D01*
X102753473Y-122571517D01*
X102757730Y-122594718D01*
X102762896Y-122617702D01*
X102768961Y-122640440D01*
X102775915Y-122662906D01*
X102783748Y-122685073D01*
X102792449Y-122706914D01*
X102802009Y-122728401D01*
X102812417Y-122749508D01*
X102823664Y-122770206D01*
X102835738Y-122790470D01*
X102848629Y-122810272D01*
X102862328Y-122829585D01*
X102876825Y-122848381D01*
X102892108Y-122866634D01*
X102908168Y-122884316D01*
X102924995Y-122901401D01*
X102942579Y-122917860D01*
X102960908Y-122933668D01*
X102979974Y-122948796D01*
X102999765Y-122963218D01*
X103020273Y-122976907D01*
X103023672Y-122979951D01*
X103027135Y-122982922D01*
X103030660Y-122985817D01*
X103034245Y-122988636D01*
X103037889Y-122991378D01*
X103041591Y-122994042D01*
X103045350Y-122996627D01*
X103049165Y-122999132D01*
X103094885Y-123027072D01*
X103095914Y-123027780D01*
X103096904Y-123028526D01*
X103097853Y-123029309D01*
X103098762Y-123030128D01*
X103100456Y-123031866D01*
X103101981Y-123033725D01*
X103103333Y-123035696D01*
X103104509Y-123037763D01*
X103105504Y-123039916D01*
X103106315Y-123042141D01*
X103106937Y-123044426D01*
X103107367Y-123046759D01*
X103107601Y-123049126D01*
X103107633Y-123051515D01*
X103107462Y-123053914D01*
X103107082Y-123056311D01*
X103106812Y-123057504D01*
X103106489Y-123058691D01*
X103106112Y-123059872D01*
X103105680Y-123061044D01*
X102729760Y-123972587D01*
X102729307Y-123973715D01*
X102728794Y-123974810D01*
X102728223Y-123975870D01*
X102727597Y-123976893D01*
X102726916Y-123977876D01*
X102726185Y-123978818D01*
X102725403Y-123979717D01*
X102724573Y-123980571D01*
X102723698Y-123981378D01*
X102722779Y-123982136D01*
X102721818Y-123982843D01*
X102720818Y-123983498D01*
X102719779Y-123984097D01*
X102718705Y-123984640D01*
X102717597Y-123985124D01*
X102716457Y-123985548D01*
X102715295Y-123985907D01*
X102714121Y-123986199D01*
X102712938Y-123986423D01*
X102711750Y-123986581D01*
X102710558Y-123986672D01*
X102709365Y-123986697D01*
X102708174Y-123986656D01*
X102706988Y-123986550D01*
X102705810Y-123986379D01*
X102704643Y-123986142D01*
X102703488Y-123985842D01*
X102702350Y-123985477D01*
X102701230Y-123985048D01*
X102700131Y-123984556D01*
X102699057Y-123984000D01*
X102698010Y-123983382D01*
X102515448Y-123885909D01*
X102513103Y-123884707D01*
X102510704Y-123883665D01*
X102508258Y-123882784D01*
X102505774Y-123882063D01*
X102503259Y-123881502D01*
X102500720Y-123881101D01*
X102498166Y-123880861D01*
X102495604Y-123880781D01*
X102493042Y-123880861D01*
X102490487Y-123881101D01*
X102487949Y-123881502D01*
X102485433Y-123882063D01*
X102482949Y-123882784D01*
X102480503Y-123883665D01*
X102478105Y-123884707D01*
X102475760Y-123885909D01*
X102063010Y-124171659D01*
X102061928Y-124172316D01*
X102060827Y-124172923D01*
X102059709Y-124173478D01*
X102058575Y-124173983D01*
X102057426Y-124174438D01*
X102056266Y-124174842D01*
X102055094Y-124175195D01*
X102053913Y-124175499D01*
X102052724Y-124175753D01*
X102051528Y-124175957D01*
X102049125Y-124176217D01*
X102046715Y-124176279D01*
X102044311Y-124176145D01*
X102041926Y-124175817D01*
X102039573Y-124175295D01*
X102037263Y-124174581D01*
X102036129Y-124174152D01*
X102035010Y-124173675D01*
X102033909Y-124173151D01*
X102032826Y-124172580D01*
X102031764Y-124171961D01*
X102030724Y-124171296D01*
X102029708Y-124170584D01*
X102028716Y-124169824D01*
X102027751Y-124169019D01*
X102026815Y-124168167D01*
X101645815Y-123787166D01*
X101644299Y-123785205D01*
X101642955Y-123783154D01*
X101641783Y-123781025D01*
X101640784Y-123778827D01*
X101639959Y-123776573D01*
X101639309Y-123774271D01*
X101638835Y-123771933D01*
X101638538Y-123769568D01*
X101638419Y-123767188D01*
X101638479Y-123764803D01*
X101638718Y-123762423D01*
X101639137Y-123760059D01*
X101639739Y-123757722D01*
X101640522Y-123755421D01*
X101641489Y-123753167D01*
X101642640Y-123750972D01*
X101931882Y-123329649D01*
X101933199Y-123327311D01*
X101934366Y-123324913D01*
X101935383Y-123322463D01*
X101936249Y-123319968D01*
X101936965Y-123317435D01*
X101937530Y-123314870D01*
X101937942Y-123312280D01*
X101938202Y-123309673D01*
X101938309Y-123307055D01*
X101938263Y-123304434D01*
X101938063Y-123301815D01*
X101937709Y-123299206D01*
X101937200Y-123296615D01*
X101936536Y-123294047D01*
X101935716Y-123291509D01*
X101934740Y-123289009D01*
X101775990Y-122892135D01*
X101774972Y-122889666D01*
X101773813Y-122887279D01*
X101772519Y-122884979D01*
X101771096Y-122882771D01*
X101769548Y-122880659D01*
X101767881Y-122878648D01*
X101766101Y-122876743D01*
X101764212Y-122874949D01*
X101762219Y-122873271D01*
X101760129Y-122871712D01*
X101757946Y-122870278D01*
X101755676Y-122868974D01*
X101753324Y-122867804D01*
X101750895Y-122866773D01*
X101748394Y-122865886D01*
X101745827Y-122865147D01*
X101237828Y-122769897D01*
X101236600Y-122769599D01*
X101235394Y-122769253D01*
X101234212Y-122768858D01*
X101233055Y-122768417D01*
X101231922Y-122767930D01*
X101230817Y-122767399D01*
X101229739Y-122766824D01*
X101228689Y-122766208D01*
X101226679Y-122764854D01*
X101224796Y-122763346D01*
X101223046Y-122761695D01*
X101221438Y-122759909D01*
X101219980Y-122757999D01*
X101218680Y-122755974D01*
X101217547Y-122753845D01*
X101216587Y-122751619D01*
X101216175Y-122750474D01*
X101215810Y-122749308D01*
X101215492Y-122748124D01*
X101215222Y-122746921D01*
X101215002Y-122745702D01*
X101214833Y-122744467D01*
X101214715Y-122743219D01*
X101214650Y-122741957D01*
X101214650Y-122204747D01*
X101214725Y-122203489D01*
X101214852Y-122202244D01*
X101215029Y-122201014D01*
X101215256Y-122199799D01*
X101215532Y-122198600D01*
X101215856Y-122197420D01*
X101216226Y-122196258D01*
X101216642Y-122195116D01*
X101217103Y-122193996D01*
X101217608Y-122192898D01*
X101218156Y-122191824D01*
X101218745Y-122190774D01*
X101219375Y-122189751D01*
X101220046Y-122188754D01*
X101220755Y-122187786D01*
X101221502Y-122186848D01*
X101222287Y-122185940D01*
X101223107Y-122185064D01*
X101223962Y-122184221D01*
X101224852Y-122183413D01*
X101225774Y-122182639D01*
X101226729Y-122181903D01*
X101227715Y-122181204D01*
X101228731Y-122180544D01*
X101229776Y-122179924D01*
X101230849Y-122179346D01*
X101231950Y-122178809D01*
X101233077Y-122178317D01*
X101234229Y-122177869D01*
X101235405Y-122177468D01*
X101236605Y-122177113D01*
X101237827Y-122176807D01*
X101760115Y-122081557D01*
X101762769Y-122080886D01*
X101765359Y-122080060D01*
X101767881Y-122079084D01*
X101770329Y-122077963D01*
X101772696Y-122076701D01*
X101774978Y-122075304D01*
X101777170Y-122073775D01*
X101779264Y-122072119D01*
X101781256Y-122070342D01*
X101783140Y-122068448D01*
X101784911Y-122066441D01*
X101786562Y-122064327D01*
X101788089Y-122062110D01*
X101789486Y-122059794D01*
X101790746Y-122057385D01*
X101791865Y-122054887D01*
X101950615Y-121681507D01*
X101951526Y-121679039D01*
X101952281Y-121676537D01*
X101952881Y-121674008D01*
X101953325Y-121671458D01*
X101953615Y-121668895D01*
X101953751Y-121666326D01*
X101953734Y-121663758D01*
X101953565Y-121661197D01*
X101953244Y-121658651D01*
X101952772Y-121656126D01*
X101952149Y-121653630D01*
X101951377Y-121651169D01*
X101950456Y-121648751D01*
X101949387Y-121646382D01*
X101948169Y-121644069D01*
X101946805Y-121641819D01*
X101642640Y-121197320D01*
X101641987Y-121196247D01*
X101641385Y-121195155D01*
X101640834Y-121194046D01*
X101640332Y-121192922D01*
X101639881Y-121191783D01*
X101639481Y-121190632D01*
X101639130Y-121189470D01*
X101638828Y-121188299D01*
X101638577Y-121187120D01*
X101638375Y-121185934D01*
X101638222Y-121184744D01*
X101638118Y-121183551D01*
X101638058Y-121181161D01*
X101638192Y-121178778D01*
X101638520Y-121176413D01*
X101639040Y-121174080D01*
X101639372Y-121172929D01*
X101639751Y-121171791D01*
X101640178Y-121170667D01*
X101640653Y-121169558D01*
X101641174Y-121168467D01*
X101641743Y-121167394D01*
X101642358Y-121166342D01*
X101643020Y-121165312D01*
X101643729Y-121164305D01*
X101644484Y-121163324D01*
X101645285Y-121162369D01*
X101646132Y-121161442D01*
X102027132Y-120780442D01*
X102028076Y-120779599D01*
X102029047Y-120778804D01*
X102031066Y-120777352D01*
X102033178Y-120776088D01*
X102035370Y-120775014D01*
X102037629Y-120774129D01*
X102039943Y-120773436D01*
X102042298Y-120772936D01*
X102044684Y-120772628D01*
X102047086Y-120772516D01*
X102049493Y-120772598D01*
X102051892Y-120772878D01*
X102054271Y-120773356D01*
X102056616Y-120774032D01*
X102058916Y-120774909D01*
X102061157Y-120775987D01*
X102062252Y-120776602D01*
X102063327Y-120777267D01*
X102514177Y-121086829D01*
X102516516Y-121088146D01*
X102518914Y-121089313D01*
X102521364Y-121090330D01*
X102523859Y-121091196D01*
X102526392Y-121091912D01*
X102528957Y-121092477D01*
X102531547Y-121092889D01*
X102534154Y-121093149D01*
X102536771Y-121093256D01*
X102539393Y-121093210D01*
X102542012Y-121093010D01*
X102544620Y-121092656D01*
X102547212Y-121092147D01*
X102549780Y-121091483D01*
X102552317Y-121090663D01*
X102554817Y-121089687D01*
X102916450Y-120942684D01*
X102918979Y-120941606D01*
X102921417Y-120940378D01*
X102923759Y-120939008D01*
X102925999Y-120937500D01*
X102928133Y-120935861D01*
X102930156Y-120934098D01*
X102932061Y-120932215D01*
X102933845Y-120930220D01*
X102935503Y-120928119D01*
X102937028Y-120925917D01*
X102938416Y-120923620D01*
X102939661Y-120921235D01*
X102940760Y-120918768D01*
X102941706Y-120916225D01*
X102942494Y-120913612D01*
X102943120Y-120910934D01*
X103043767Y-120371185D01*
X103044061Y-120369967D01*
X103044404Y-120368771D01*
X103044794Y-120367598D01*
X103045230Y-120366449D01*
X103045710Y-120365325D01*
X103046235Y-120364227D01*
X103046802Y-120363156D01*
X103047411Y-120362113D01*
X103048748Y-120360114D01*
X103050236Y-120358239D01*
X103051867Y-120356495D01*
X103053630Y-120354890D01*
X103055517Y-120353432D01*
X103057517Y-120352129D01*
X103059623Y-120350989D01*
X103061823Y-120350020D01*
X103062956Y-120349601D01*
X103064110Y-120349229D01*
X103065282Y-120348903D01*
X103066473Y-120348625D01*
X103067680Y-120348395D01*
X103068902Y-120348215D01*
X103070140Y-120348085D01*
X103071390Y-120348007D01*
X103608600Y-120348007D01*
X103609861Y-120348072D01*
%TO.C,G\u002A\u002A\u002A*%
G36*
X143969743Y-110372113D02*
G01*
X144127880Y-110322193D01*
X144266522Y-110280745D01*
X144388199Y-110247271D01*
X144495440Y-110221272D01*
X144590775Y-110202248D01*
X144676734Y-110189701D01*
X144755848Y-110183131D01*
X144830645Y-110182040D01*
X144903656Y-110185928D01*
X144977411Y-110194297D01*
X145001976Y-110198062D01*
X145061282Y-110212519D01*
X145102092Y-110234664D01*
X145130029Y-110268511D01*
X145150716Y-110318077D01*
X145160263Y-110353191D01*
X145165145Y-110381960D01*
X145165051Y-110391445D01*
X145153017Y-110436813D01*
X145126192Y-110484636D01*
X145089873Y-110524858D01*
X145048840Y-110559384D01*
X144869696Y-110552015D01*
X144855475Y-110551443D01*
X144780478Y-110549240D01*
X144722491Y-110549728D01*
X144673774Y-110553450D01*
X144626590Y-110560947D01*
X144573201Y-110572760D01*
X144551144Y-110578280D01*
X144500349Y-110591881D01*
X144437876Y-110609352D01*
X144368322Y-110629326D01*
X144296285Y-110650438D01*
X144226363Y-110671322D01*
X144163155Y-110690612D01*
X144111257Y-110706943D01*
X144075269Y-110718949D01*
X144059788Y-110725263D01*
X144059336Y-110728988D01*
X144064747Y-110750656D01*
X144076887Y-110784215D01*
X144081881Y-110798906D01*
X144088264Y-110827323D01*
X144093706Y-110866515D01*
X144098463Y-110919540D01*
X144102794Y-110989460D01*
X144106955Y-111079335D01*
X144111203Y-111192225D01*
X144114445Y-111277185D01*
X144118814Y-111374574D01*
X144123532Y-111464922D01*
X144128330Y-111543473D01*
X144132936Y-111605469D01*
X144137079Y-111646153D01*
X144138583Y-111657100D01*
X144155606Y-111756351D01*
X144179390Y-111856098D01*
X144211376Y-111960648D01*
X144253001Y-112074308D01*
X144305705Y-112201384D01*
X144370926Y-112346183D01*
X144375246Y-112355501D01*
X144405761Y-112422275D01*
X144426717Y-112471428D01*
X144439702Y-112508201D01*
X144446299Y-112537841D01*
X144448096Y-112565591D01*
X144446677Y-112596695D01*
X144444639Y-112617324D01*
X144434438Y-112665997D01*
X144419196Y-112696505D01*
X144404938Y-112713922D01*
X144397174Y-112727780D01*
X144405531Y-112731666D01*
X144433583Y-112736963D01*
X144474555Y-112741738D01*
X144492547Y-112743761D01*
X144576758Y-112765904D01*
X144644223Y-112806993D01*
X144693623Y-112866278D01*
X144701144Y-112879387D01*
X144711548Y-112900597D01*
X144718568Y-112923193D01*
X144722794Y-112952113D01*
X144724813Y-112992296D01*
X144725214Y-113048677D01*
X144724585Y-113126195D01*
X144724326Y-113146726D01*
X144720946Y-113253841D01*
X144713385Y-113342563D01*
X144700255Y-113419348D01*
X144680169Y-113490655D01*
X144651738Y-113562944D01*
X144613573Y-113642671D01*
X144548934Y-113762735D01*
X144430015Y-113953224D01*
X144300643Y-114126112D01*
X144163670Y-114277381D01*
X144137483Y-114302809D01*
X144074424Y-114360665D01*
X144001978Y-114423692D01*
X143924230Y-114488629D01*
X143845263Y-114552219D01*
X143769163Y-114611203D01*
X143700015Y-114662322D01*
X143641902Y-114702317D01*
X143598911Y-114727930D01*
X143595152Y-114729916D01*
X143564870Y-114747755D01*
X143519619Y-114776140D01*
X143464867Y-114811589D01*
X143406085Y-114850622D01*
X143341218Y-114893476D01*
X143267458Y-114940829D01*
X143196947Y-114984871D01*
X143138786Y-115019842D01*
X143100374Y-115042934D01*
X143067600Y-115064750D01*
X143053685Y-115077279D01*
X143060675Y-115078973D01*
X143129859Y-115063018D01*
X143242602Y-115038267D01*
X143350893Y-115016398D01*
X143459084Y-114996724D01*
X143571526Y-114978562D01*
X143692570Y-114961224D01*
X143826568Y-114944028D01*
X143977871Y-114926286D01*
X144150830Y-114907315D01*
X144175212Y-114905715D01*
X144227617Y-114904616D01*
X144295639Y-114904835D01*
X144373181Y-114906337D01*
X144454148Y-114909085D01*
X144493025Y-114910785D01*
X144579158Y-114915756D01*
X144644617Y-114922551D01*
X144693320Y-114932584D01*
X144729186Y-114947265D01*
X144756132Y-114968006D01*
X144778076Y-114996219D01*
X144798938Y-115033315D01*
X144803328Y-115042232D01*
X144822540Y-115108751D01*
X144816248Y-115174036D01*
X144784282Y-115240460D01*
X144775228Y-115252546D01*
X144758873Y-115269040D01*
X144735091Y-115287627D01*
X144701243Y-115309925D01*
X144654692Y-115337552D01*
X144592801Y-115372126D01*
X144512930Y-115415267D01*
X144412442Y-115468591D01*
X144408615Y-115470611D01*
X144314573Y-115519823D01*
X144221178Y-115567964D01*
X144132899Y-115612785D01*
X144054202Y-115652034D01*
X143989554Y-115683463D01*
X143943424Y-115704820D01*
X143889501Y-115730903D01*
X143816432Y-115770129D01*
X143731711Y-115818381D01*
X143640342Y-115872632D01*
X143547326Y-115929855D01*
X143457666Y-115987024D01*
X143376362Y-116041111D01*
X143308417Y-116089090D01*
X143237599Y-116144178D01*
X143157188Y-116216389D01*
X143096932Y-116283589D01*
X143058934Y-116343631D01*
X143047280Y-116370068D01*
X143033593Y-116406945D01*
X143028205Y-116430369D01*
X143029593Y-116440815D01*
X143036134Y-116451332D01*
X143049963Y-116460145D01*
X143073169Y-116467459D01*
X143107838Y-116473480D01*
X143156060Y-116478413D01*
X143219920Y-116482465D01*
X143301508Y-116485840D01*
X143402910Y-116488746D01*
X143526215Y-116491386D01*
X143673509Y-116493969D01*
X143744772Y-116495159D01*
X143880882Y-116497688D01*
X143994881Y-116500408D01*
X144089479Y-116503623D01*
X144167385Y-116507638D01*
X144231312Y-116512756D01*
X144283968Y-116519282D01*
X144328065Y-116527520D01*
X144366313Y-116537774D01*
X144401422Y-116550347D01*
X144436102Y-116565544D01*
X144473065Y-116583669D01*
X144556040Y-116637733D01*
X144623415Y-116710785D01*
X144671744Y-116801550D01*
X144684091Y-116836251D01*
X144693059Y-116872439D01*
X144698359Y-116914087D01*
X144700837Y-116968058D01*
X144701343Y-117041218D01*
X144700944Y-117083200D01*
X144697147Y-117164035D01*
X144687772Y-117229816D01*
X144670896Y-117288112D01*
X144644595Y-117346488D01*
X144606945Y-117412512D01*
X144602446Y-117419939D01*
X144579332Y-117460257D01*
X144568297Y-117487252D01*
X144567314Y-117508270D01*
X144574358Y-117530659D01*
X144588655Y-117577174D01*
X144602001Y-117647364D01*
X144611121Y-117727005D01*
X144615040Y-117807267D01*
X144612785Y-117879319D01*
X144611798Y-117890112D01*
X144591723Y-118020360D01*
X144556197Y-118143140D01*
X144503456Y-118261850D01*
X144431735Y-118379889D01*
X144339269Y-118500656D01*
X144224292Y-118627552D01*
X144215111Y-118637059D01*
X144169916Y-118684777D01*
X144141028Y-118717714D01*
X144126371Y-118738756D01*
X144123870Y-118750794D01*
X144131448Y-118756716D01*
X144191633Y-118780093D01*
X144260625Y-118821442D01*
X144320573Y-118877901D01*
X144375140Y-118953101D01*
X144427990Y-119050674D01*
X144494811Y-119209812D01*
X144551534Y-119405044D01*
X144585730Y-119611905D01*
X144597654Y-119831567D01*
X144597702Y-119848202D01*
X144597243Y-119922194D01*
X144595246Y-119975884D01*
X144591247Y-120014116D01*
X144584779Y-120041736D01*
X144575379Y-120063586D01*
X144541359Y-120108108D01*
X144490093Y-120141666D01*
X144431349Y-120156281D01*
X144371050Y-120151584D01*
X144315117Y-120127202D01*
X144269474Y-120082765D01*
X144261658Y-120069937D01*
X144253749Y-120049277D01*
X144247939Y-120020169D01*
X144243649Y-119978206D01*
X144240298Y-119918981D01*
X144237309Y-119838087D01*
X144231143Y-119721488D01*
X144213871Y-119570792D01*
X144185650Y-119435854D01*
X144145320Y-119311525D01*
X144091718Y-119192655D01*
X144048122Y-119107902D01*
X143873854Y-119107957D01*
X143793188Y-119109026D01*
X143721834Y-119113059D01*
X143663712Y-119120695D01*
X143612103Y-119132567D01*
X143589591Y-119138425D01*
X143506952Y-119149829D01*
X143438928Y-119140563D01*
X143383948Y-119110195D01*
X143340440Y-119058297D01*
X143335947Y-119050358D01*
X143317870Y-118991575D01*
X143319183Y-118928317D01*
X143339919Y-118871506D01*
X143343547Y-118866218D01*
X143372619Y-118836733D01*
X143418593Y-118801064D01*
X143476102Y-118763468D01*
X143625122Y-118664493D01*
X143786325Y-118537781D01*
X143938300Y-118397670D01*
X143999969Y-118333860D01*
X144090912Y-118228438D01*
X144159615Y-118131167D01*
X144207102Y-118040511D01*
X144234400Y-117954936D01*
X144236058Y-117946326D01*
X144236491Y-117933724D01*
X144230093Y-117933531D01*
X144214460Y-117947704D01*
X144187187Y-117978201D01*
X144145871Y-118026977D01*
X144095093Y-118084363D01*
X144002978Y-118178162D01*
X143899500Y-118273722D01*
X143791682Y-118364657D01*
X143686548Y-118444581D01*
X143668207Y-118457819D01*
X143604767Y-118505308D01*
X143537404Y-118557704D01*
X143477924Y-118605880D01*
X143424669Y-118649303D01*
X143321371Y-118726525D01*
X143228526Y-118784926D01*
X143142959Y-118826154D01*
X143061498Y-118851854D01*
X142980966Y-118863674D01*
X142950186Y-118864879D01*
X142855959Y-118855444D01*
X142776480Y-118824765D01*
X142710806Y-118772358D01*
X142657992Y-118697738D01*
X142643056Y-118668058D01*
X142628199Y-118626999D01*
X142619400Y-118579675D01*
X142614277Y-118516197D01*
X142614247Y-118477159D01*
X142970752Y-118477159D01*
X142973079Y-118494399D01*
X142976560Y-118495800D01*
X142998932Y-118489998D01*
X143036239Y-118471382D01*
X143084395Y-118442502D01*
X143139314Y-118405906D01*
X143196909Y-118364142D01*
X143253094Y-118319760D01*
X143289272Y-118290247D01*
X143357715Y-118236110D01*
X143427477Y-118182630D01*
X143488006Y-118137973D01*
X143520912Y-118113550D01*
X143586953Y-118061134D01*
X143654909Y-118003757D01*
X143714352Y-117950076D01*
X143736399Y-117928903D01*
X143790561Y-117874461D01*
X143841697Y-117819946D01*
X143887234Y-117768436D01*
X143924596Y-117723013D01*
X143951207Y-117686754D01*
X143964493Y-117662741D01*
X143961878Y-117654052D01*
X143954784Y-117654542D01*
X143918429Y-117662209D01*
X143866372Y-117677486D01*
X143804863Y-117698196D01*
X143740152Y-117722159D01*
X143678489Y-117747195D01*
X143626124Y-117771125D01*
X143527148Y-117824700D01*
X143399451Y-117909030D01*
X143271261Y-118012177D01*
X143251952Y-118029401D01*
X143188752Y-118090706D01*
X143128451Y-118155993D01*
X143075368Y-118220134D01*
X143033823Y-118278003D01*
X143008133Y-118324475D01*
X142996957Y-118355115D01*
X142984304Y-118399701D01*
X142975031Y-118442988D01*
X142970752Y-118477159D01*
X142614247Y-118477159D01*
X142614204Y-118421490D01*
X142628505Y-118315298D01*
X142659755Y-118212980D01*
X142709366Y-118111734D01*
X142778756Y-118008753D01*
X142869338Y-117901235D01*
X142982527Y-117786373D01*
X143071190Y-117706263D01*
X143236962Y-117578814D01*
X143410243Y-117472361D01*
X143588842Y-117387874D01*
X143770567Y-117326325D01*
X143953227Y-117288683D01*
X143961878Y-117288074D01*
X144134633Y-117275920D01*
X144265685Y-117275920D01*
X144301427Y-117214931D01*
X144312038Y-117194522D01*
X144335817Y-117120949D01*
X144345541Y-117038466D01*
X144339613Y-116957819D01*
X144337460Y-116947424D01*
X144327636Y-116923027D01*
X144307570Y-116907343D01*
X144269624Y-116893335D01*
X144257109Y-116889438D01*
X144224232Y-116879822D01*
X144192855Y-116872254D01*
X144159532Y-116866509D01*
X144120814Y-116862359D01*
X144073255Y-116859578D01*
X144013408Y-116857941D01*
X143937825Y-116857221D01*
X143843060Y-116857191D01*
X143725665Y-116857626D01*
X143681808Y-116857786D01*
X143520429Y-116857466D01*
X143381954Y-116855346D01*
X143263867Y-116851089D01*
X143163654Y-116844357D01*
X143078801Y-116834814D01*
X143006792Y-116822122D01*
X142945113Y-116805945D01*
X142891250Y-116785946D01*
X142842687Y-116761787D01*
X142796910Y-116733131D01*
X142777527Y-116719112D01*
X142729722Y-116673203D01*
X142694055Y-116615493D01*
X142687413Y-116601692D01*
X142672674Y-116566124D01*
X142665241Y-116533288D01*
X142663626Y-116493632D01*
X142666341Y-116437606D01*
X142680446Y-116333627D01*
X142712643Y-116227390D01*
X142763756Y-116126032D01*
X142835144Y-116027702D01*
X142928166Y-115930551D01*
X143044181Y-115832731D01*
X143184546Y-115732393D01*
X143307585Y-115651339D01*
X143450301Y-115560934D01*
X143575429Y-115486266D01*
X143684195Y-115426610D01*
X143777821Y-115381242D01*
X143845406Y-115350680D01*
X143896685Y-115326019D01*
X143926087Y-115309429D01*
X143934826Y-115300066D01*
X143924116Y-115297086D01*
X143895172Y-115299644D01*
X143882412Y-115301311D01*
X143837699Y-115306889D01*
X143780199Y-115313839D01*
X143719146Y-115321036D01*
X143687330Y-115325083D01*
X143589456Y-115340470D01*
X143472859Y-115362203D01*
X143342026Y-115389367D01*
X143201446Y-115421047D01*
X143055606Y-115456328D01*
X143028726Y-115463001D01*
X142953982Y-115481232D01*
X142863172Y-115503059D01*
X142762728Y-115526949D01*
X142659084Y-115551369D01*
X142558673Y-115574784D01*
X142527701Y-115582020D01*
X142417908Y-115608398D01*
X142301895Y-115637218D01*
X142187584Y-115666464D01*
X142082894Y-115694117D01*
X141995747Y-115718161D01*
X141936506Y-115734750D01*
X141823468Y-115764229D01*
X141719594Y-115787551D01*
X141617835Y-115805904D01*
X141511144Y-115820474D01*
X141392473Y-115832450D01*
X141254772Y-115843020D01*
X141242896Y-115843834D01*
X141163601Y-115849116D01*
X141105256Y-115852322D01*
X141063371Y-115853249D01*
X141033459Y-115851692D01*
X141011029Y-115847445D01*
X140991593Y-115840306D01*
X140970662Y-115830068D01*
X140956242Y-115821819D01*
X140917056Y-115791660D01*
X140889217Y-115759609D01*
X140869082Y-115708720D01*
X140864630Y-115647750D01*
X140876746Y-115587940D01*
X140903859Y-115536648D01*
X140944398Y-115501228D01*
X140957079Y-115496107D01*
X140994532Y-115485331D01*
X141046183Y-115473265D01*
X141104823Y-115461686D01*
X141183004Y-115446002D01*
X141298427Y-115418907D01*
X141425120Y-115385719D01*
X141555864Y-115348511D01*
X141683438Y-115309354D01*
X141800625Y-115270318D01*
X141900203Y-115233476D01*
X141920508Y-115225217D01*
X141992251Y-115194061D01*
X142081289Y-115153244D01*
X142183463Y-115104835D01*
X142294615Y-115050904D01*
X142410588Y-114993522D01*
X142527225Y-114934756D01*
X142640366Y-114876676D01*
X142745856Y-114821353D01*
X142839535Y-114770855D01*
X142917246Y-114727252D01*
X142975682Y-114692520D01*
X143050707Y-114646199D01*
X143128337Y-114596847D01*
X143198775Y-114550610D01*
X143211798Y-114541899D01*
X143269990Y-114503498D01*
X143322648Y-114469531D01*
X143364427Y-114443409D01*
X143389985Y-114428543D01*
X143422470Y-114409412D01*
X143476851Y-114372521D01*
X143542547Y-114324395D01*
X143615127Y-114268530D01*
X143690162Y-114208420D01*
X143763220Y-114147559D01*
X143829872Y-114089441D01*
X143885688Y-114037561D01*
X143942321Y-113979999D01*
X144033037Y-113876695D01*
X144108582Y-113775869D01*
X144131888Y-113741252D01*
X144199288Y-113638011D01*
X144252507Y-113550063D01*
X144293270Y-113473594D01*
X144323303Y-113404790D01*
X144344331Y-113339837D01*
X144358079Y-113274919D01*
X144366274Y-113206224D01*
X144367045Y-113196831D01*
X144370182Y-113148405D01*
X144369489Y-113120060D01*
X144364379Y-113106751D01*
X144354261Y-113103436D01*
X144337485Y-113105003D01*
X144312772Y-113112441D01*
X144281675Y-113127579D01*
X144241408Y-113152145D01*
X144189182Y-113187869D01*
X144122209Y-113236478D01*
X144037702Y-113299700D01*
X143973395Y-113348829D01*
X143905726Y-113402543D01*
X143843645Y-113454794D01*
X143782544Y-113509750D01*
X143717814Y-113571576D01*
X143644846Y-113644442D01*
X143559031Y-113732514D01*
X143495935Y-113798336D01*
X143423191Y-113875384D01*
X143353972Y-113949847D01*
X143291967Y-114017721D01*
X143240863Y-114075001D01*
X143204347Y-114117683D01*
X143192686Y-114131754D01*
X143122856Y-114210292D01*
X143062261Y-114267263D01*
X143008984Y-114304284D01*
X142961108Y-114322973D01*
X142901871Y-114325775D01*
X142839036Y-114307795D01*
X142784306Y-114271503D01*
X142743386Y-114220797D01*
X142721985Y-114159577D01*
X142721443Y-114132619D01*
X142727041Y-114078187D01*
X142739096Y-114002989D01*
X142757044Y-113909371D01*
X142780322Y-113799680D01*
X142808367Y-113676262D01*
X142837272Y-113555430D01*
X143214946Y-113555430D01*
X143224825Y-113548291D01*
X143249648Y-113524914D01*
X143286515Y-113488146D01*
X143332548Y-113440857D01*
X143384869Y-113385917D01*
X143404328Y-113365405D01*
X143472874Y-113295659D01*
X143539525Y-113232660D01*
X143610229Y-113171180D01*
X143690932Y-113105990D01*
X143787581Y-113031862D01*
X143817219Y-113009618D01*
X143888767Y-112956652D01*
X143955530Y-112908195D01*
X144013528Y-112867084D01*
X144058781Y-112836156D01*
X144087310Y-112818246D01*
X144111825Y-112804027D01*
X144138716Y-112786400D01*
X144149245Y-112776429D01*
X144139448Y-112767527D01*
X144109300Y-112751307D01*
X144063174Y-112730207D01*
X144005526Y-112706257D01*
X143940809Y-112681485D01*
X143935288Y-112679452D01*
X143887658Y-112661620D01*
X143824494Y-112637636D01*
X143753374Y-112610389D01*
X143681875Y-112582768D01*
X143656569Y-112573003D01*
X143597481Y-112550685D01*
X143549438Y-112533226D01*
X143516844Y-112522199D01*
X143504101Y-112519180D01*
X143501822Y-112523763D01*
X143492651Y-112550030D01*
X143478166Y-112596321D01*
X143459263Y-112659415D01*
X143436843Y-112736094D01*
X143411803Y-112823138D01*
X143385042Y-112917328D01*
X143357458Y-113015445D01*
X143329949Y-113114269D01*
X143303413Y-113210582D01*
X143278749Y-113301163D01*
X143256855Y-113382794D01*
X143238629Y-113452256D01*
X143224970Y-113506329D01*
X143216777Y-113541793D01*
X143214946Y-113555430D01*
X142837272Y-113555430D01*
X142840613Y-113541465D01*
X142876496Y-113397634D01*
X142915454Y-113247118D01*
X142956922Y-113092261D01*
X143000336Y-112935412D01*
X143045131Y-112778916D01*
X143090745Y-112625121D01*
X143154517Y-112414107D01*
X143061960Y-112393892D01*
X143002738Y-112381495D01*
X142927457Y-112367548D01*
X142849613Y-112355460D01*
X142765290Y-112344797D01*
X142670571Y-112335125D01*
X142561537Y-112326009D01*
X142434270Y-112317015D01*
X142284854Y-112307708D01*
X142176671Y-112301206D01*
X142006688Y-112290532D01*
X141859549Y-112280502D01*
X141733213Y-112270822D01*
X141625635Y-112261199D01*
X141534773Y-112251337D01*
X141458586Y-112240945D01*
X141395028Y-112229727D01*
X141342059Y-112217390D01*
X141297635Y-112203640D01*
X141259714Y-112188184D01*
X141226252Y-112170727D01*
X141208041Y-112159141D01*
X143618893Y-112159141D01*
X143619915Y-112164096D01*
X143637343Y-112177126D01*
X143669709Y-112189852D01*
X143678051Y-112192431D01*
X143721464Y-112207295D01*
X143776478Y-112227598D01*
X143833237Y-112249732D01*
X143857003Y-112259085D01*
X143899632Y-112274669D01*
X143928745Y-112283619D01*
X143939070Y-112284216D01*
X143937964Y-112280380D01*
X143930065Y-112256029D01*
X143915921Y-112213620D01*
X143897063Y-112157724D01*
X143875020Y-112092912D01*
X143870715Y-112080167D01*
X143846239Y-112002950D01*
X143823796Y-111924793D01*
X143805715Y-111854164D01*
X143794327Y-111799534D01*
X143775945Y-111688703D01*
X143699990Y-111916885D01*
X143676622Y-111987023D01*
X143654749Y-112052538D01*
X143636904Y-112105851D01*
X143624485Y-112142779D01*
X143618893Y-112159141D01*
X141208041Y-112159141D01*
X141195207Y-112150976D01*
X141169015Y-112129675D01*
X141125950Y-112077694D01*
X141096302Y-112018382D01*
X141085265Y-111960728D01*
X141085349Y-111954248D01*
X141097440Y-111889762D01*
X141565521Y-111889762D01*
X141595952Y-111896520D01*
X141603011Y-111897651D01*
X141636325Y-111901118D01*
X141691843Y-111905764D01*
X141766923Y-111911411D01*
X141858924Y-111917881D01*
X141965203Y-111924994D01*
X142083120Y-111932572D01*
X142210033Y-111940437D01*
X142343300Y-111948410D01*
X142480279Y-111956312D01*
X142589366Y-111963217D01*
X142733235Y-111975341D01*
X142864170Y-111990653D01*
X142989967Y-112010112D01*
X143118427Y-112034675D01*
X143161149Y-112042874D01*
X143210694Y-112050482D01*
X143246291Y-112053628D01*
X143262203Y-112051634D01*
X143266061Y-112043595D01*
X143277751Y-112013479D01*
X143295571Y-111964620D01*
X143318262Y-111900547D01*
X143344563Y-111824784D01*
X143373216Y-111740859D01*
X143376677Y-111730659D01*
X143413865Y-111622771D01*
X143455883Y-111503414D01*
X143499490Y-111381649D01*
X143504101Y-111368997D01*
X143541443Y-111266538D01*
X143578499Y-111167142D01*
X143592629Y-111129796D01*
X143621883Y-111052202D01*
X143647593Y-110983644D01*
X143668328Y-110927957D01*
X143682658Y-110888977D01*
X143689152Y-110870537D01*
X143689801Y-110867645D01*
X143686481Y-110861285D01*
X143671989Y-110861169D01*
X143643009Y-110868018D01*
X143596228Y-110882553D01*
X143528332Y-110905494D01*
X143459928Y-110929908D01*
X143376315Y-110961478D01*
X143296176Y-110993316D01*
X143230183Y-111021280D01*
X143213059Y-111028916D01*
X143084856Y-111086796D01*
X142946557Y-111150319D01*
X142803832Y-111216809D01*
X142662348Y-111283596D01*
X142527775Y-111348004D01*
X142405780Y-111407361D01*
X142302033Y-111458994D01*
X142264600Y-111478185D01*
X142185458Y-111520058D01*
X142098551Y-111567405D01*
X142007725Y-111618007D01*
X141916829Y-111669648D01*
X141829709Y-111720111D01*
X141750214Y-111767179D01*
X141682192Y-111808635D01*
X141629488Y-111842261D01*
X141595952Y-111865842D01*
X141565521Y-111889762D01*
X141097440Y-111889762D01*
X141100442Y-111873751D01*
X141141558Y-111793340D01*
X141208725Y-111712959D01*
X141254281Y-111670965D01*
X141342404Y-111601592D01*
X141454093Y-111524472D01*
X141588673Y-111439987D01*
X141745468Y-111348513D01*
X141923802Y-111250430D01*
X142123000Y-111146116D01*
X142342384Y-111035949D01*
X142581280Y-110920310D01*
X142839012Y-110799576D01*
X142935278Y-110755371D01*
X143029479Y-110712828D01*
X143114406Y-110675595D01*
X143194327Y-110642021D01*
X143273507Y-110610456D01*
X143356213Y-110579252D01*
X143446711Y-110546758D01*
X143549266Y-110511325D01*
X143668145Y-110471303D01*
X143671989Y-110470028D01*
X143775945Y-110435547D01*
X143807615Y-110425042D01*
X143969743Y-110372113D01*
G37*
%TD*%
D11*
%TO.C,J4*%
X119243600Y-102726400D03*
D12*
X121243600Y-102726400D03*
%TD*%
D13*
%TO.C,J9*%
X133451600Y-118561600D03*
D14*
X134951600Y-114241600D03*
D15*
X131951600Y-114241600D03*
%TD*%
D16*
%TO.C,C32*%
X143306800Y-127711200D03*
D17*
X143306800Y-130211200D03*
%TD*%
D18*
%TO.C,J3*%
X112471200Y-101142800D03*
%TD*%
D19*
%TO.C,H2*%
X121564400Y-108661200D03*
%TD*%
D20*
%TO.C,J2*%
X125222000Y-102177600D03*
D21*
X125222000Y-100177600D03*
X125222000Y-98177600D03*
%TD*%
D22*
%TO.C,J8*%
X135045200Y-110481200D03*
D12*
X133045200Y-110481200D03*
X131045200Y-110481200D03*
%TD*%
D19*
%TO.C,H1*%
X109575600Y-121361200D03*
%TD*%
D18*
%TO.C,TP1*%
X111963200Y-118567200D03*
%TD*%
D13*
%TO.C,J1*%
X143766000Y-105206800D03*
D23*
X139446000Y-103706800D03*
D24*
X139446000Y-106706800D03*
%TD*%
D22*
%TO.C,J6*%
X121259600Y-99009200D03*
D12*
X119259600Y-99009200D03*
%TD*%
D25*
%TO.C,C12*%
X130403600Y-101829200D03*
X130403600Y-100279200D03*
%TD*%
D26*
%TO.C,C5*%
X130454400Y-107276600D03*
X130454400Y-108826600D03*
%TD*%
D27*
%TO.C,U1*%
X134831700Y-102397600D03*
X134831700Y-101447600D03*
X134831700Y-100497600D03*
X137106700Y-100497600D03*
X137106700Y-101447600D03*
X137106700Y-102397600D03*
%TD*%
D28*
%TO.C,U13*%
X124154300Y-113355600D03*
X124154300Y-114005600D03*
X124154300Y-114655600D03*
X124154300Y-115305600D03*
X124154300Y-115955600D03*
D29*
X123016800Y-117093100D03*
X122366800Y-117093100D03*
X121716800Y-117093100D03*
X121066800Y-117093100D03*
X120416800Y-117093100D03*
D28*
X119279300Y-115955600D03*
X119279300Y-115305600D03*
X119279300Y-114655600D03*
X119279300Y-114005600D03*
X119279300Y-113355600D03*
D29*
X120416800Y-112218100D03*
X121066800Y-112218100D03*
X121716800Y-112218100D03*
X122366800Y-112218100D03*
X123016800Y-112218100D03*
D30*
X121716800Y-114655600D03*
%TD*%
D31*
%TO.C,R25*%
X143969200Y-124206000D03*
X142949200Y-124206000D03*
%TD*%
%TO.C,R13*%
X107037600Y-108254800D03*
X106017600Y-108254800D03*
%TD*%
D32*
%TO.C,C27*%
X143937200Y-123291600D03*
X142977200Y-123291600D03*
%TD*%
D33*
%TO.C,R28*%
X132738400Y-124307600D03*
X133758400Y-124307600D03*
%TD*%
D25*
%TO.C,C10*%
X131876800Y-101829200D03*
X131876800Y-100279200D03*
%TD*%
%TO.C,C6*%
X130454400Y-104965800D03*
X130454400Y-103415800D03*
%TD*%
D34*
%TO.C,Q1*%
X101259600Y-112549700D03*
X103159600Y-112549700D03*
X102209600Y-114424700D03*
%TD*%
D32*
%TO.C,C34*%
X133728400Y-123393200D03*
X132768400Y-123393200D03*
%TD*%
D35*
%TO.C,U3*%
X126773700Y-105344000D03*
X126773700Y-103444000D03*
X128648700Y-104394000D03*
%TD*%
D36*
%TO.C,C31*%
X125730000Y-112290800D03*
X125730000Y-111330800D03*
%TD*%
D37*
%TO.C,C35*%
X129618800Y-120446800D03*
X130578800Y-120446800D03*
%TD*%
D38*
%TO.C,Q2*%
X103159600Y-103858300D03*
X101259600Y-103858300D03*
X102209600Y-101983300D03*
%TD*%
D39*
%TO.C,Q3*%
X139612400Y-112872400D03*
X139612400Y-113512400D03*
X139612400Y-114172400D03*
X139612400Y-114812400D03*
D40*
X137787400Y-113842400D03*
%TD*%
D41*
%TO.C,D3*%
X101509600Y-110845600D03*
X102909600Y-110845600D03*
%TD*%
D42*
%TO.C,D6*%
X106070400Y-103112800D03*
X106070400Y-101712800D03*
%TD*%
D43*
%TO.C,R31*%
X126441200Y-113844700D03*
X126441200Y-115669700D03*
%TD*%
D44*
%TO.C,R29*%
X139801600Y-127749800D03*
X139801600Y-129399800D03*
%TD*%
D32*
%TO.C,C33*%
X133728400Y-122224800D03*
X132768400Y-122224800D03*
%TD*%
D44*
%TO.C,R30*%
X136906000Y-127749800D03*
X136906000Y-129399800D03*
%TD*%
D33*
%TO.C,R20*%
X107846400Y-107289600D03*
X108866400Y-107289600D03*
%TD*%
%TO.C,R2*%
X134059200Y-99364800D03*
X135079200Y-99364800D03*
%TD*%
D37*
%TO.C,C28*%
X132768400Y-121310400D03*
X133728400Y-121310400D03*
%TD*%
D45*
%TO.C,U11*%
X128336000Y-113213300D03*
X129286000Y-113213300D03*
X130236000Y-113213300D03*
X130236000Y-115488300D03*
X128336000Y-115488300D03*
%TD*%
D46*
%TO.C,D1*%
X137086800Y-104166400D03*
X137086800Y-107466400D03*
%TD*%
D47*
%TO.C,L1*%
X134981600Y-105714800D03*
X132181600Y-105714800D03*
%TD*%
D36*
%TO.C,C25*%
X140766800Y-118793200D03*
X140766800Y-117833200D03*
%TD*%
D48*
%TO.C,C9*%
X125272800Y-103406000D03*
X125272800Y-104366000D03*
%TD*%
D31*
%TO.C,R27*%
X143967200Y-122377200D03*
X142947200Y-122377200D03*
%TD*%
D48*
%TO.C,C8*%
X125222000Y-106606400D03*
X125222000Y-107566400D03*
%TD*%
D31*
%TO.C,R16*%
X108866400Y-108254800D03*
X107846400Y-108254800D03*
%TD*%
D49*
%TO.C,JP2*%
X101549200Y-105511600D03*
X102260400Y-105511600D03*
X102971600Y-105537000D03*
%TD*%
D50*
%TO.C,U12*%
X135902700Y-125756800D03*
X135902700Y-125256801D03*
X135902700Y-124756799D03*
X135902700Y-124256800D03*
X135902700Y-123756801D03*
X135902700Y-123256799D03*
X135902700Y-122756800D03*
D51*
X136828400Y-121831100D03*
X137328399Y-121831100D03*
X137828401Y-121831100D03*
X138328400Y-121831100D03*
X138828399Y-121831100D03*
X139328401Y-121831100D03*
X139828400Y-121831100D03*
D50*
X140754100Y-122756800D03*
X140754100Y-123256799D03*
X140754100Y-123756801D03*
X140754100Y-124256800D03*
X140754100Y-124756799D03*
X140754100Y-125256801D03*
X140754100Y-125756800D03*
D51*
X139828400Y-126682500D03*
X139328401Y-126682500D03*
X138828399Y-126682500D03*
X138328400Y-126682500D03*
X137828401Y-126682500D03*
X137328399Y-126682500D03*
X136828400Y-126682500D03*
D52*
X138328400Y-124256800D03*
%TD*%
D31*
%TO.C,R22*%
X106021600Y-119837200D03*
X105001600Y-119837200D03*
%TD*%
D53*
%TO.C,U14*%
X130473200Y-119110000D03*
X129673200Y-119110000D03*
X128873200Y-119110000D03*
X128073200Y-119110000D03*
X127273200Y-119110000D03*
X126473200Y-119110000D03*
D54*
X126473200Y-118110000D03*
D53*
X126473200Y-117110000D03*
X127273200Y-117110000D03*
X128073200Y-117110000D03*
X128873200Y-117110000D03*
X129673200Y-117110000D03*
X130473200Y-117110000D03*
D54*
X130473200Y-118110000D03*
%TD*%
D31*
%TO.C,R3*%
X135079200Y-98450400D03*
X134059200Y-98450400D03*
%TD*%
D42*
%TO.C,D5*%
X104648000Y-103112800D03*
X104648000Y-101712800D03*
%TD*%
D49*
%TO.C,JP5*%
X124053600Y-119024400D03*
X123342400Y-119024400D03*
X122631200Y-118999000D03*
%TD*%
%TO.C,JP1*%
X101549200Y-116992400D03*
X102260400Y-116992400D03*
X102971600Y-117017800D03*
%TD*%
D55*
%TO.C,FB1*%
X127101600Y-110464500D03*
X127101600Y-112039500D03*
%TD*%
D56*
%TO.C,C1*%
X139004000Y-99872800D03*
X140904000Y-99872800D03*
%TD*%
D31*
%TO.C,R23*%
X106021600Y-118872000D03*
X105001600Y-118872000D03*
%TD*%
D32*
%TO.C,C30*%
X125803600Y-110236000D03*
X124843600Y-110236000D03*
%TD*%
D57*
%TO.C,R19*%
X135737600Y-116380800D03*
X135737600Y-117400800D03*
%TD*%
D31*
%TO.C,R26*%
X143969200Y-125120400D03*
X142949200Y-125120400D03*
%TD*%
D35*
%TO.C,U2*%
X126773700Y-108747600D03*
X126773700Y-106847600D03*
X128648700Y-107797600D03*
%TD*%
D33*
%TO.C,R18*%
X104188800Y-108254800D03*
X105208800Y-108254800D03*
%TD*%
D58*
%TO.C,U6*%
X106563200Y-106953900D03*
X105613200Y-106953900D03*
X104663200Y-106953900D03*
X104663200Y-104678900D03*
X105613200Y-104678900D03*
X106563200Y-104678900D03*
%TD*%
D22*
%TO.C,J12*%
X139347200Y-131987200D03*
D12*
X137347200Y-131987200D03*
X135347200Y-131987200D03*
X133347200Y-131987200D03*
%TD*%
D59*
%TO.C,C36*%
X121577400Y-119024400D03*
X120027400Y-119024400D03*
%TD*%
D60*
%TO.C,D7*%
X145389600Y-127733600D03*
X145389600Y-130533600D03*
%TD*%
D33*
%TO.C,R24*%
X132738400Y-125222000D03*
X133758400Y-125222000D03*
%TD*%
D61*
%TO.C,R17*%
X135737600Y-119280400D03*
X135737600Y-118260400D03*
%TD*%
D27*
%TO.C,U8*%
X137190900Y-118755200D03*
X137190900Y-117805200D03*
X137190900Y-116855200D03*
X139465900Y-116855200D03*
X139465900Y-117805200D03*
X139465900Y-118755200D03*
%TD*%
D36*
%TO.C,C7*%
X133299200Y-102892800D03*
X133299200Y-101932800D03*
%TD*%
D41*
%TO.C,D4*%
X101509600Y-109474000D03*
X102909600Y-109474000D03*
%TD*%
M02*
