G04 Layer: TopLayer*
G04 EasyEDA v6.5.9, 2022-08-01 21:18:00*
G04 ac5e******************************************aa,10*
G04 Gerber Generator version 0.2*
G04 Scale: 100 percent, Rotated: No, Reflected: No *
G04 Dimensions in millimeters *
G04 leading zeros omitted , absolute positions ,4 integer and 5 decimal *
%TF.GenerationSoftware,KiCad,Pcbnew,(6.0.6)*%
%TF.CreationDate,2022-09-22T21:47:15+08:00*%
%TF.ProjectId,Stealthburner_Toolhead_PCB,53746561-6c74-4686-9275-726e65725f54,rev?*%
%TF.SameCoordinates,Original*%
%TF.FileFunction,Soldermask,Top*%
%TF.FilePolarity,Negative*%
%FSLAX46Y46*%
G04 Gerber Fmt 4.6, Leading zero omitted, Abs format (unit mm)*
G04 Created by KiCad (PCBNEW (6.0.6)) date 2022-09-22 21:47:15*
%MOMM*%
%LPD*%
G01*
G04 APERTURE LIST*
G04 Aperture macros list*
%AMRoundRect*
0 Rectangle with rounded corners*
0 $1 Rounding radius*
0 $2 $3 $4 $5 $6 $7 $8 $9 X,Y pos of 4 corners*
0 Add a 4 corners polygon primitive as box body*
4,1,4,$2,$3,$4,$5,$6,$7,$8,$9,$2,$3,0*
0 Add four circle primitives for the rounded corners*
1,1,$1+$1,$2,$3*
1,1,$1+$1,$4,$5*
1,1,$1+$1,$6,$7*
1,1,$1+$1,$8,$9*
0 Add four rect primitives between the rounded corners*
20,1,$1+$1,$2,$3,$4,$5,0*
20,1,$1+$1,$4,$5,$6,$7,0*
20,1,$1+$1,$6,$7,$8,$9,0*
20,1,$1+$1,$8,$9,$2,$3,0*%
%AMFreePoly0*
4,1,6,1.000000,0.000000,0.500000,-0.750000,-0.500000,-0.750000,-0.500000,0.750000,0.500000,0.750000,1.000000,0.000000,1.000000,0.000000,$1*%
%AMFreePoly1*
4,1,6,0.500000,-0.750000,-0.650000,-0.750000,-0.150000,0.000000,-0.650000,0.750000,0.500000,0.750000,0.500000,-0.750000,0.500000,-0.750000,$1*%
G04 Aperture macros list end*
%ADD10RoundRect,0.140000X-0.170000X0.140000X-0.170000X-0.140000X0.170000X-0.140000X0.170000X0.140000X0*%
%ADD11RoundRect,0.140000X0.170000X-0.140000X0.170000X0.140000X-0.170000X0.140000X-0.170000X-0.140000X0*%
%ADD12RoundRect,0.250000X-0.350000X-0.625000X0.350000X-0.625000X0.350000X0.625000X-0.350000X0.625000X0*%
%ADD13O,1.200000X1.750000*%
%ADD14R,0.812800X0.177800*%
%ADD15R,0.177800X0.812800*%
%ADD16R,3.200400X3.200400*%
%ADD17RoundRect,0.140000X-0.140000X-0.170000X0.140000X-0.170000X0.140000X0.170000X-0.140000X0.170000X0*%
%ADD18FreePoly0,0.000000*%
%ADD19FreePoly1,0.000000*%
%ADD20C,3.000000*%
%ADD21RoundRect,0.250001X0.499999X0.759999X-0.499999X0.759999X-0.499999X-0.759999X0.499999X-0.759999X0*%
%ADD22O,1.500000X2.020000*%
%ADD23RoundRect,0.135000X0.135000X0.185000X-0.135000X0.185000X-0.135000X-0.185000X0.135000X-0.185000X0*%
%ADD24RoundRect,0.200000X-0.600000X0.200000X-0.600000X-0.200000X0.600000X-0.200000X0.600000X0.200000X0*%
%ADD25RoundRect,0.250001X-1.249999X0.799999X-1.249999X-0.799999X1.249999X-0.799999X1.249999X0.799999X0*%
%ADD26R,1.600000X1.600000*%
%ADD27C,1.600000*%
%ADD28C,1.000000*%
%ADD29RoundRect,0.135000X-0.135000X-0.185000X0.135000X-0.185000X0.135000X0.185000X-0.135000X0.185000X0*%
%ADD30RoundRect,0.250000X-0.250000X-1.500000X0.250000X-1.500000X0.250000X1.500000X-0.250000X1.500000X0*%
%ADD31RoundRect,0.250001X-0.499999X-1.449999X0.499999X-1.449999X0.499999X1.449999X-0.499999X1.449999X0*%
%ADD32C,5.000000*%
%ADD33R,0.700000X0.600000*%
%ADD34RoundRect,0.250000X0.625000X-0.350000X0.625000X0.350000X-0.625000X0.350000X-0.625000X-0.350000X0*%
%ADD35O,1.750000X1.200000*%
%ADD36RoundRect,0.250000X0.350000X0.625000X-0.350000X0.625000X-0.350000X-0.625000X0.350000X-0.625000X0*%
%ADD37RoundRect,0.140000X0.140000X0.170000X-0.140000X0.170000X-0.140000X-0.170000X0.140000X-0.170000X0*%
%ADD38RoundRect,0.135000X-0.185000X0.135000X-0.185000X-0.135000X0.185000X-0.135000X0.185000X0.135000X0*%
%ADD39R,0.400000X1.900000*%
%ADD40RoundRect,0.100000X-0.300000X-0.100000X0.300000X-0.100000X0.300000X0.100000X-0.300000X0.100000X0*%
%ADD41R,1.500000X2.400000*%
%ADD42RoundRect,0.135000X0.185000X-0.135000X0.185000X0.135000X-0.185000X0.135000X-0.185000X-0.135000X0*%
%ADD43RoundRect,0.250001X-0.759999X0.499999X-0.759999X-0.499999X0.759999X-0.499999X0.759999X0.499999X0*%
%ADD44O,2.020000X1.500000*%
%ADD45R,0.812800X0.254000*%
%ADD46R,0.203200X1.600200*%
%ADD47RoundRect,0.150000X-0.150000X0.512500X-0.150000X-0.512500X0.150000X-0.512500X0.150000X0.512500X0*%
%ADD48R,1.380000X0.450000*%
%ADD49R,1.550000X1.425000*%
%ADD50R,1.300000X1.650000*%
%ADD51R,1.900000X1.000000*%
%ADD52R,1.900000X1.800000*%
G04 APERTURE END LIST*
%TO.C,G\u002A\u002A\u002A*%
G36*
X142531502Y-112658776D02*
G01*
X143503351Y-112098286D01*
X144475200Y-111537798D01*
X145447049Y-112098286D01*
X146418898Y-112658776D01*
X146418898Y-114925193D01*
X145451447Y-115483859D01*
X145282606Y-115581280D01*
X145122856Y-115673305D01*
X144974785Y-115758452D01*
X144840982Y-115835241D01*
X144724034Y-115902190D01*
X144626530Y-115957818D01*
X144551058Y-116000644D01*
X144500205Y-116029187D01*
X144476561Y-116041966D01*
X144475200Y-116042525D01*
X144458838Y-116033962D01*
X144414614Y-116009261D01*
X144345117Y-115969903D01*
X144252934Y-115917369D01*
X144140653Y-115853140D01*
X144010864Y-115778697D01*
X143866153Y-115695521D01*
X143709109Y-115605094D01*
X143542320Y-115508896D01*
X143498954Y-115483859D01*
X142686640Y-115014779D01*
X143384618Y-115014779D01*
X143401225Y-115017661D01*
X143447115Y-115020126D01*
X143516390Y-115021996D01*
X143603155Y-115023091D01*
X143665164Y-115023302D01*
X143945709Y-115023302D01*
X143963426Y-114999879D01*
X144480424Y-114999879D01*
X144492995Y-115008929D01*
X144533819Y-115016014D01*
X144596024Y-115021119D01*
X144672737Y-115024225D01*
X144757086Y-115025315D01*
X144842197Y-115024373D01*
X144921200Y-115021380D01*
X144987219Y-115016320D01*
X145033384Y-115009176D01*
X145051997Y-115001314D01*
X145065398Y-114982205D01*
X145095945Y-114936958D01*
X145141470Y-114868839D01*
X145199801Y-114781114D01*
X145268769Y-114677048D01*
X145346203Y-114559905D01*
X145429935Y-114432953D01*
X145458184Y-114390061D01*
X145846148Y-113800795D01*
X145561927Y-113795946D01*
X145446650Y-113794759D01*
X145362460Y-113795864D01*
X145305321Y-113799493D01*
X145271201Y-113805880D01*
X145257388Y-113813536D01*
X145242677Y-113833768D01*
X145211566Y-113879358D01*
X145166618Y-113946396D01*
X145110395Y-114030970D01*
X145045457Y-114129169D01*
X144974367Y-114237081D01*
X144899686Y-114350794D01*
X144823977Y-114466397D01*
X144749800Y-114579979D01*
X144679719Y-114687628D01*
X144616293Y-114785432D01*
X144562085Y-114869481D01*
X144519658Y-114935862D01*
X144491572Y-114980664D01*
X144480424Y-114999879D01*
X143963426Y-114999879D01*
X143988951Y-114966134D01*
X144005913Y-114941847D01*
X144039792Y-114891706D01*
X144088829Y-114818379D01*
X144151269Y-114724536D01*
X144225355Y-114612847D01*
X144309331Y-114485982D01*
X144401441Y-114346610D01*
X144499928Y-114197400D01*
X144603036Y-114041023D01*
X144709008Y-113880147D01*
X144816088Y-113717443D01*
X144922520Y-113555580D01*
X145026546Y-113397227D01*
X145126412Y-113245055D01*
X145220360Y-113101732D01*
X145306634Y-112969929D01*
X145383477Y-112852314D01*
X145449134Y-112751558D01*
X145501847Y-112670331D01*
X145539861Y-112611301D01*
X145561418Y-112577138D01*
X145565782Y-112569477D01*
X145549175Y-112566508D01*
X145503285Y-112563969D01*
X145434010Y-112562043D01*
X145347245Y-112560916D01*
X145285236Y-112560698D01*
X145004691Y-112560698D01*
X144961500Y-112617866D01*
X144944629Y-112642043D01*
X144910836Y-112692086D01*
X144861876Y-112765323D01*
X144799506Y-112859087D01*
X144725482Y-112970708D01*
X144641559Y-113097516D01*
X144549495Y-113236842D01*
X144451044Y-113386017D01*
X144347963Y-113542371D01*
X144242008Y-113703236D01*
X144134935Y-113865942D01*
X144028501Y-114027819D01*
X143924461Y-114186199D01*
X143824571Y-114338411D01*
X143730587Y-114481788D01*
X143644267Y-114613658D01*
X143567365Y-114731354D01*
X143501637Y-114832206D01*
X143448840Y-114913545D01*
X143410731Y-114972700D01*
X143389064Y-115007004D01*
X143384618Y-115014779D01*
X142686640Y-115014779D01*
X142531502Y-114925193D01*
X142531502Y-113770444D01*
X143114190Y-113770444D01*
X143115604Y-113778813D01*
X143134327Y-113784595D01*
X143174319Y-113788038D01*
X143239540Y-113789391D01*
X143333948Y-113788903D01*
X143394079Y-113788034D01*
X143687590Y-113783205D01*
X144081178Y-113185144D01*
X144166447Y-113055270D01*
X144245374Y-112934466D01*
X144315918Y-112825900D01*
X144376036Y-112732741D01*
X144423689Y-112658156D01*
X144456835Y-112605312D01*
X144473434Y-112577379D01*
X144474983Y-112573891D01*
X144458722Y-112567490D01*
X144414409Y-112563037D01*
X144349107Y-112560422D01*
X144269885Y-112559537D01*
X144183809Y-112560276D01*
X144097944Y-112562530D01*
X144019357Y-112566192D01*
X143955115Y-112571153D01*
X143912283Y-112577306D01*
X143898422Y-112582686D01*
X143886013Y-112600571D01*
X143856835Y-112643986D01*
X143813441Y-112709061D01*
X143758386Y-112791929D01*
X143694223Y-112888722D01*
X143623507Y-112995570D01*
X143548791Y-113108605D01*
X143472631Y-113223960D01*
X143397579Y-113337766D01*
X143326191Y-113446154D01*
X143261020Y-113545256D01*
X143204621Y-113631204D01*
X143159547Y-113700130D01*
X143128353Y-113748164D01*
X143114190Y-113770444D01*
X142531502Y-113770444D01*
X142531502Y-112658776D01*
G37*
%TD*%
D10*
%TO.C,C24*%
X113434800Y-115296400D03*
X113434800Y-116256400D03*
%TD*%
D11*
%TO.C,C16*%
X114554000Y-103400800D03*
X114554000Y-102440800D03*
%TD*%
D12*
%TO.C,J4*%
X119243600Y-102726400D03*
D13*
X121243600Y-102726400D03*
%TD*%
D14*
%TO.C,U7*%
X108407200Y-106772075D03*
X108407200Y-107172125D03*
X108407200Y-107572175D03*
X108407200Y-107972225D03*
X108407200Y-108372275D03*
X108407200Y-108772325D03*
X108407200Y-109172375D03*
X108407200Y-109572425D03*
X108407200Y-109972475D03*
X108407200Y-110372525D03*
X108407200Y-110772575D03*
X108407200Y-111172625D03*
X108407200Y-111572675D03*
X108407200Y-111972725D03*
D15*
X109210475Y-112776000D03*
X109610525Y-112776000D03*
X110010575Y-112776000D03*
X110410625Y-112776000D03*
X110810675Y-112776000D03*
X111210725Y-112776000D03*
X111610775Y-112776000D03*
X112010825Y-112776000D03*
X112410875Y-112776000D03*
X112810925Y-112776000D03*
X113210975Y-112776000D03*
X113611025Y-112776000D03*
X114011075Y-112776000D03*
X114411125Y-112776000D03*
D14*
X115214400Y-111972725D03*
X115214400Y-111572675D03*
X115214400Y-111172625D03*
X115214400Y-110772575D03*
X115214400Y-110372525D03*
X115214400Y-109972475D03*
X115214400Y-109572425D03*
X115214400Y-109172375D03*
X115214400Y-108772325D03*
X115214400Y-108372275D03*
X115214400Y-107972225D03*
X115214400Y-107572175D03*
X115214400Y-107172125D03*
X115214400Y-106772075D03*
D15*
X114411125Y-105968800D03*
X114011075Y-105968800D03*
X113611025Y-105968800D03*
X113210975Y-105968800D03*
X112810925Y-105968800D03*
X112410875Y-105968800D03*
X112010825Y-105968800D03*
X111610775Y-105968800D03*
X111210725Y-105968800D03*
X110810675Y-105968800D03*
X110410625Y-105968800D03*
X110010575Y-105968800D03*
X109610525Y-105968800D03*
X109210475Y-105968800D03*
D16*
X111810800Y-109372400D03*
%TD*%
D17*
%TO.C,C19*%
X117477600Y-110896400D03*
X118437600Y-110896400D03*
%TD*%
D18*
%TO.C,JP4*%
X118793600Y-112826800D03*
D19*
X120243600Y-112826800D03*
%TD*%
D20*
%TO.C,J9*%
X133451600Y-118561600D03*
D21*
X134951600Y-114241600D03*
D22*
X131951600Y-114241600D03*
%TD*%
D23*
%TO.C,R5*%
X108968000Y-100838000D03*
X107948000Y-100838000D03*
%TD*%
D24*
%TO.C,J7*%
X105168400Y-111342800D03*
X105168400Y-112592800D03*
X105168400Y-113842800D03*
X105168400Y-115092800D03*
X105168400Y-116342800D03*
D25*
X102268400Y-118892800D03*
X102268400Y-108792800D03*
%TD*%
D18*
%TO.C,JP3*%
X122756000Y-112826800D03*
D19*
X124206000Y-112826800D03*
%TD*%
D26*
%TO.C,C32*%
X143306800Y-127711200D03*
D27*
X143306800Y-130211200D03*
%TD*%
D28*
%TO.C,J3*%
X112471200Y-101142800D03*
%TD*%
D11*
%TO.C,C18*%
X115468400Y-103400800D03*
X115468400Y-102440800D03*
%TD*%
D29*
%TO.C,R14*%
X115618800Y-97891600D03*
X116638800Y-97891600D03*
%TD*%
D23*
%TO.C,R7*%
X129745200Y-96875600D03*
X128725200Y-96875600D03*
%TD*%
D30*
%TO.C,J11*%
X118716800Y-113685200D03*
X120716800Y-113685200D03*
X122716800Y-113685200D03*
X124716800Y-113685200D03*
D31*
X127066800Y-119435200D03*
X116366800Y-119435200D03*
%TD*%
D11*
%TO.C,C15*%
X112623600Y-103400800D03*
X112623600Y-102440800D03*
%TD*%
%TO.C,C23*%
X106426000Y-109852400D03*
X106426000Y-108892400D03*
%TD*%
D32*
%TO.C,H2*%
X121564400Y-108661200D03*
%TD*%
D33*
%TO.C,D2*%
X129082800Y-101080800D03*
X129082800Y-99680800D03*
%TD*%
D29*
%TO.C,R12*%
X117447600Y-108204000D03*
X118467600Y-108204000D03*
%TD*%
D34*
%TO.C,J2*%
X125222000Y-102177600D03*
D35*
X125222000Y-100177600D03*
X125222000Y-98177600D03*
%TD*%
D11*
%TO.C,C4*%
X113436400Y-118386800D03*
X113436400Y-117426800D03*
%TD*%
D36*
%TO.C,J8*%
X135045200Y-110481200D03*
D13*
X133045200Y-110481200D03*
X131045200Y-110481200D03*
%TD*%
D32*
%TO.C,H1*%
X109575600Y-121361200D03*
%TD*%
D10*
%TO.C,C29*%
X105511600Y-122252800D03*
X105511600Y-123212800D03*
%TD*%
D37*
%TO.C,C13*%
X118437600Y-107340400D03*
X117477600Y-107340400D03*
%TD*%
D28*
%TO.C,TP1*%
X111963200Y-118567200D03*
%TD*%
D23*
%TO.C,R4*%
X108968000Y-99923600D03*
X107948000Y-99923600D03*
%TD*%
D38*
%TO.C,R11*%
X112369600Y-115266400D03*
X112369600Y-116286400D03*
%TD*%
%TO.C,R8*%
X139192000Y-115314000D03*
X139192000Y-116334000D03*
%TD*%
D39*
%TO.C,Y1*%
X108780400Y-116081200D03*
X109980400Y-116081200D03*
X111180400Y-116081200D03*
%TD*%
D23*
%TO.C,R6*%
X129745200Y-98704400D03*
X128725200Y-98704400D03*
%TD*%
D37*
%TO.C,C17*%
X116608800Y-98806000D03*
X115648800Y-98806000D03*
%TD*%
D40*
%TO.C,U9*%
X101572400Y-121224800D03*
X101572400Y-122224800D03*
X101572400Y-123224800D03*
X104472400Y-123224800D03*
X104472400Y-122224800D03*
X104472400Y-121224800D03*
D41*
X103022400Y-122224800D03*
%TD*%
D24*
%TO.C,J10*%
X105168400Y-99760400D03*
X105168400Y-101010400D03*
X105168400Y-102260400D03*
X105168400Y-103510400D03*
X105168400Y-104760400D03*
D25*
X102268400Y-97210400D03*
X102268400Y-107310400D03*
%TD*%
D42*
%TO.C,R10*%
X140106400Y-116334000D03*
X140106400Y-115314000D03*
%TD*%
D20*
%TO.C,J1*%
X143766000Y-105206800D03*
D43*
X139446000Y-103706800D03*
D44*
X139446000Y-106706800D03*
%TD*%
D11*
%TO.C,C21*%
X113538000Y-103400800D03*
X113538000Y-102440800D03*
%TD*%
%TO.C,C20*%
X116433600Y-105890000D03*
X116433600Y-104930000D03*
%TD*%
D45*
%TO.C,U4*%
X108126400Y-101967599D03*
X108126400Y-102467600D03*
X108126400Y-102967600D03*
X108126400Y-103467601D03*
X110923200Y-103467601D03*
X110923200Y-102967600D03*
X110923200Y-102467600D03*
X110923200Y-101967599D03*
D46*
X109524800Y-102717600D03*
%TD*%
D29*
%TO.C,R15*%
X115618800Y-99720400D03*
X116638800Y-99720400D03*
%TD*%
D37*
%TO.C,C3*%
X111071600Y-99923600D03*
X110111600Y-99923600D03*
%TD*%
D17*
%TO.C,C11*%
X128755200Y-97790000D03*
X129715200Y-97790000D03*
%TD*%
D11*
%TO.C,C22*%
X107137200Y-105940800D03*
X107137200Y-104980800D03*
%TD*%
D47*
%TO.C,U5*%
X141158000Y-111689300D03*
X140208000Y-111689300D03*
X139258000Y-111689300D03*
X139258000Y-113964300D03*
X140208000Y-113964300D03*
X141158000Y-113964300D03*
%TD*%
D38*
%TO.C,R1*%
X114350800Y-117396800D03*
X114350800Y-118416800D03*
%TD*%
D37*
%TO.C,C2*%
X111071600Y-100838000D03*
X110111600Y-100838000D03*
%TD*%
D10*
%TO.C,C14*%
X114452400Y-115293200D03*
X114452400Y-116253200D03*
%TD*%
D36*
%TO.C,J6*%
X121259600Y-99009200D03*
D13*
X119259600Y-99009200D03*
%TD*%
D29*
%TO.C,R9*%
X117447600Y-106322400D03*
X118467600Y-106322400D03*
%TD*%
D48*
%TO.C,J5*%
X142710400Y-122254800D03*
X142710400Y-121604800D03*
X142710400Y-120954800D03*
X142710400Y-120304800D03*
X142710400Y-119654800D03*
D49*
X142795400Y-123442300D03*
X142795400Y-118467300D03*
D50*
X145370400Y-117579800D03*
D51*
X145370400Y-119404800D03*
D50*
X145370400Y-124329800D03*
D52*
X145370400Y-122104800D03*
%TD*%
D36*
%TO.C,J12*%
X139347200Y-131987200D03*
D13*
X137347200Y-131987200D03*
X135347200Y-131987200D03*
X133347200Y-131987200D03*
%TD*%
M02*
